<svg viewBox="0 0 79 79" xmlns="http://www.w3.org/2000/svg">
<rect width="100%" height="100%" fill="#FFFFFF" />
<path d="M0 0L0 79L79 79L79 0ZM2 2L77 2L77 77L2 77Z" fill="#ffffff" fill-rule="evenodd" />
<path d="M10 68L24 68L24 54L10 54ZM26 68L28 68L28 66L26 66ZM32 68L34 68L34 64L32 64ZM38 68L42 68L42 66L40 66L40 64L36 64L36 66L38 66ZM44 68L52 68L52 66L54 66L54 64L58 64L58 62L60 62L60 68L62 68L62 64L64 64L64 62L62 62L62 60L60 60L60 50L62 50L62 52L64 52L64 56L66 56L66 52L68 52L68 50L64 50L64 48L60 48L60 46L58 46L58 44L56 44L56 46L52 46L52 44L50 44L50 48L58 48L58 50L48 50L48 46L44 46L44 50L42 50L42 46L40 46L40 42L42 42L42 40L38 40L38 46L34 46L34 48L32 48L32 50L36 50L36 52L40 52L40 54L42 54L42 56L44 56L44 52L50 52L50 54L48 54L48 56L50 56L50 60L52 60L52 64L50 64L50 66L44 66ZM54 68L56 68L56 66L54 66ZM64 68L66 68L66 64L64 64ZM12 66L12 56L22 56L22 66ZM14 64L20 64L20 58L14 58ZM26 64L28 64L28 62L30 62L30 58L28 58L28 60L26 60ZM34 64L36 64L36 62L34 62ZM46 64L50 64L50 62L48 62L48 60L44 60L44 62L46 62ZM66 64L68 64L68 60L66 60ZM40 62L42 62L42 60L44 60L44 58L40 58ZM54 62L54 60L56 60L56 62ZM34 60L36 60L36 58L34 58ZM64 60L66 60L66 58L64 58ZM26 58L28 58L28 54L30 54L30 56L32 56L32 54L34 54L34 52L28 52L28 50L26 50ZM32 58L34 58L34 56L32 56ZM36 58L40 58L40 54L38 54L38 56L36 56ZM46 58L48 58L48 56L46 56ZM52 58L52 52L58 52L58 58ZM54 56L56 56L56 54L54 54ZM12 52L20 52L20 48L18 48L18 46L16 46L16 50L12 50ZM22 52L24 52L24 50L22 50ZM24 50L26 50L26 48L24 48ZM28 50L30 50L30 48L28 48ZM10 48L12 48L12 46L10 46ZM20 48L24 48L24 46L22 46L22 44L20 44ZM30 48L32 48L32 46L30 46ZM14 46L16 46L16 44L20 44L20 42L18 42L18 40L14 40L14 42L12 42L12 40L10 40L10 44L14 44ZM26 46L28 46L28 42L26 42ZM60 46L64 46L64 44L62 44L62 40L60 40L60 38L58 38L58 40L56 40L56 42L58 42L58 44L60 44ZM66 46L68 46L68 42L66 42L66 40L68 40L68 36L62 36L62 40L64 40L64 44L66 44ZM22 44L24 44L24 42L22 42ZM42 44L44 44L44 42L42 42ZM46 44L50 44L50 42L48 42L48 40L50 40L50 36L48 36L48 34L44 34L44 32L42 32L42 34L38 34L38 38L44 38L44 40L46 40ZM52 44L54 44L54 42L52 42ZM20 42L22 42L22 40L20 40ZM28 42L30 42L30 40L32 40L32 42L34 42L34 36L36 36L36 34L34 34L34 32L32 32L32 38L28 38L28 36L26 36L26 30L28 30L28 32L32 32L32 28L34 28L34 26L32 26L32 22L30 22L30 24L28 24L28 22L26 22L26 26L28 26L28 28L26 28L26 26L20 26L20 28L24 28L24 30L22 30L22 32L24 32L24 34L22 34L22 32L20 32L20 28L18 28L18 26L14 26L14 28L12 28L12 32L10 32L10 34L12 34L12 36L10 36L10 38L16 38L16 36L14 36L14 32L18 32L18 34L20 34L20 36L18 36L18 38L22 38L22 36L24 36L24 38L22 38L22 40L28 40ZM36 40L38 40L38 38L36 38ZM52 40L56 40L56 38L58 38L58 34L56 34L56 36L54 36L54 38L52 38ZM28 36L30 36L30 34L28 34ZM50 36L52 36L52 34L50 34ZM60 36L62 36L62 34L60 34ZM52 34L56 34L56 32L54 32L54 30L58 30L58 32L60 32L60 30L64 30L64 34L68 34L68 32L66 32L66 30L68 30L68 26L64 26L64 28L62 28L62 26L60 26L60 28L56 28L56 26L54 26L54 28L52 28ZM36 32L38 32L38 30L42 30L42 28L44 28L44 26L46 26L46 24L44 24L44 20L48 20L48 22L50 22L50 24L52 24L52 16L50 16L50 14L48 14L48 18L42 18L42 20L40 20L40 22L42 22L42 24L40 24L40 28L38 28L38 26L36 26ZM44 32L48 32L48 30L50 30L50 28L52 28L52 26L46 26L46 30L44 30ZM10 28L12 28L12 26L10 26ZM34 26L36 26L36 22L34 22ZM10 24L24 24L24 10L10 10ZM38 24L40 24L40 22L38 22ZM46 24L48 24L48 22L46 22ZM54 24L68 24L68 10L54 10ZM12 22L12 12L22 12L22 22ZM28 22L30 22L30 20L28 20ZM32 22L34 22L34 20L36 20L36 14L34 14L34 16L32 16L32 18L30 18L30 20L32 20ZM36 22L38 22L38 20L36 20ZM56 22L56 12L66 12L66 22ZM14 20L20 20L20 14L14 14ZM38 20L40 20L40 18L42 18L42 16L38 16ZM58 20L64 20L64 14L58 14ZM26 18L28 18L28 16L26 16ZM42 16L44 16L44 14L46 14L46 12L52 12L52 10L44 10L44 12L42 12ZM26 14L32 14L32 10L26 10ZM36 14L38 14L38 12L42 12L42 10L36 10Z" fill="#000000" fill-rule="evenodd" />
</svg>
