<svg viewBox="0 0 131 43" xmlns="http://www.w3.org/2000/svg">
<rect width="100%" height="100%" fill="#FFFFFF" />
<path d="M0 0L0 43L131 43L131 0ZM2 2L129 2L129 41L2 41Z" fill="#ffffff" fill-rule="evenodd" />
<path d="M6 36L12 36L12 34L8 34L8 32L12 32L12 30L14 30L14 32L16 32L16 30L18 30L18 32L20 32L20 26L18 26L18 28L16 28L16 26L14 26L14 24L12 24L12 26L10 26L10 30L6 30ZM14 36L16 36L16 34L14 34ZM18 36L20 36L20 34L18 34ZM22 36L24 36L24 34L22 34ZM26 36L28 36L28 34L26 34ZM30 36L32 36L32 34L30 34ZM34 36L36 36L36 34L34 34ZM38 36L40 36L40 34L38 34ZM42 36L48 36L48 34L50 34L50 36L52 36L52 34L54 34L54 32L52 32L52 30L54 30L54 32L56 32L56 30L58 30L58 32L60 32L60 30L62 30L62 28L64 28L64 26L66 26L66 28L70 28L70 26L68 26L68 24L62 24L62 26L60 26L60 28L54 28L54 26L52 26L52 28L46 28L46 30L44 30L44 28L46 28L46 26L44 26L44 24L46 24L46 26L50 26L50 24L48 24L48 20L46 20L46 22L44 22L44 20L46 20L46 18L44 18L44 16L46 16L46 18L48 18L48 14L50 14L50 10L48 10L48 6L42 6L42 8L40 8L40 10L42 10L42 14L40 14L40 16L42 16L42 18L40 18L40 20L42 20L42 22L36 22L36 24L34 24L34 26L32 26L32 30L30 30L30 32L36 32L36 30L34 30L34 28L36 28L36 26L38 26L38 24L42 24L42 30L40 30L40 28L38 28L38 32L40 32L40 34L42 34ZM54 36L56 36L56 34L54 34ZM58 36L60 36L60 34L58 34ZM62 36L64 36L64 34L62 34ZM66 36L68 36L68 34L66 34ZM70 36L72 36L72 34L74 34L74 36L76 36L76 32L74 32L74 28L78 28L78 26L80 26L80 24L78 24L78 20L76 20L76 16L74 16L74 18L72 18L72 20L74 20L74 22L76 22L76 24L74 24L74 22L72 22L72 20L70 20L70 24L72 24L72 32L70 32L70 30L66 30L66 32L68 32L68 34L70 34ZM78 36L80 36L80 32L78 32ZM82 36L88 36L88 30L82 30L82 28L86 28L86 26L84 26L84 24L86 24L86 22L84 22L84 20L86 20L86 18L84 18L84 16L88 16L88 18L92 18L92 16L90 16L90 14L92 14L92 16L94 16L94 12L88 12L88 6L82 6L82 8L80 8L80 6L78 6L78 10L82 10L82 12L86 12L86 14L82 14L82 12L80 12L80 16L82 16L82 18L80 18L80 20L82 20L82 26L80 26L80 32L82 32ZM90 36L92 36L92 32L90 32ZM94 36L96 36L96 32L94 32ZM98 36L100 36L100 34L98 34ZM102 36L104 36L104 32L106 32L106 30L102 30L102 32L100 32L100 34L102 34ZM106 36L108 36L108 34L106 34ZM110 36L112 36L112 34L110 34ZM114 36L124 36L124 26L120 26L120 24L116 24L116 26L114 26L114 24L112 24L112 28L110 28L110 20L108 20L108 24L106 24L106 26L108 26L108 30L110 30L110 32L112 32L112 34L114 34ZM12 34L14 34L14 32L12 32ZM20 34L22 34L22 32L20 32ZM24 34L26 34L26 32L24 32ZM36 34L38 34L38 32L36 32ZM44 34L44 32L46 32L46 34ZM84 34L84 32L86 32L86 34ZM108 34L110 34L110 32L108 32ZM116 34L116 28L122 28L122 34ZM22 32L24 32L24 30L22 30ZM26 32L28 32L28 30L26 30ZM48 32L48 30L50 30L50 32ZM62 32L64 32L64 30L62 30ZM92 32L94 32L94 30L92 30ZM96 32L98 32L98 30L96 30ZM118 32L120 32L120 30L118 30ZM28 30L30 30L30 28L28 28ZM88 30L92 30L92 28L90 28L90 26L92 26L92 24L94 24L94 22L96 22L96 24L98 24L98 22L100 22L100 20L92 20L92 22L90 22L90 24L88 24ZM98 30L100 30L100 28L98 28ZM6 28L8 28L8 26L6 26ZM96 28L98 28L98 26L96 26ZM100 28L106 28L106 26L104 26L104 24L106 24L106 22L102 22L102 24L98 24L98 26L100 26ZM8 26L10 26L10 24L12 24L12 22L6 22L6 24L8 24ZM16 26L18 26L18 24L16 24ZM22 26L26 26L26 24L30 24L30 22L28 22L28 20L30 20L30 18L24 18L24 20L26 20L26 22L24 22L24 24L22 24ZM30 26L32 26L32 24L30 24ZM54 26L60 26L60 24L58 24L58 22L56 22L56 24L54 24ZM94 26L96 26L96 24L94 24ZM14 24L16 24L16 22L14 22ZM18 24L22 24L22 22L18 22ZM32 24L34 24L34 22L32 22ZM50 24L54 24L54 22L52 22L52 18L50 18ZM60 24L62 24L62 22L60 22ZM120 24L124 24L124 22L122 22L122 20L124 20L124 18L122 18L122 16L120 16L120 20L118 20L118 22L120 22ZM22 22L24 22L24 20L22 20ZM62 22L68 22L68 20L66 20L66 18L64 18L64 20L62 20ZM86 22L90 22L90 20L86 20ZM6 20L20 20L20 6L6 6ZM54 20L56 20L56 18L54 18ZM58 20L60 20L60 18L58 18ZM100 20L108 20L108 16L106 16L106 14L102 14L102 16L104 16L104 18L102 18L102 16L100 16ZM110 20L118 20L118 16L116 16L116 14L114 14L114 16L112 16L112 18L110 18ZM8 18L8 8L18 8L18 18ZM22 18L24 18L24 16L26 16L26 14L24 14L24 12L28 12L28 10L30 10L30 8L28 8L28 6L26 6L26 10L22 10ZM34 18L36 18L36 16L34 16ZM68 18L72 18L72 16L70 16L70 14L66 14L66 16L68 16ZM78 18L80 18L80 16L78 16ZM94 18L96 18L96 16L94 16ZM10 16L16 16L16 10L10 10ZM32 16L34 16L34 14L32 14ZM36 16L38 16L38 14L40 14L40 12L36 12ZM50 16L56 16L56 14L58 14L58 16L60 16L60 14L62 14L62 12L64 12L64 10L66 10L66 12L72 12L72 14L74 14L74 12L76 12L76 6L74 6L74 8L72 8L72 10L68 10L68 6L66 6L66 8L64 8L64 6L62 6L62 10L60 10L60 12L52 12L52 14L50 14ZM62 16L64 16L64 14L62 14ZM76 16L78 16L78 14L76 14ZM96 16L98 16L98 14L96 14ZM108 16L110 16L110 12L108 12ZM122 16L124 16L124 14L122 14ZM30 14L32 14L32 10L30 10ZM44 14L44 12L46 12L46 14ZM98 14L100 14L100 12L98 12ZM112 14L114 14L114 12L112 12ZM96 12L98 12L98 10L96 10ZM100 12L108 12L108 10L110 10L110 12L112 12L112 10L114 10L114 12L118 12L118 8L116 8L116 6L114 6L114 8L112 8L112 6L110 6L110 8L108 8L108 6L106 6L106 8L104 8L104 6L102 6L102 8L100 8L100 6L98 6L98 10L100 10ZM120 12L124 12L124 6L118 6L118 8L122 8L122 10L120 10ZM44 10L44 8L46 8L46 10ZM50 10L52 10L52 6L50 6ZM54 10L60 10L60 6L58 6L58 8L56 8L56 6L54 6ZM84 10L84 8L86 8L86 10ZM90 10L92 10L92 6L90 6ZM22 8L24 8L24 6L22 6ZM30 8L32 8L32 6L30 6ZM34 8L36 8L36 6L34 6ZM38 8L40 8L40 6L38 6ZM70 8L72 8L72 6L70 6ZM94 8L96 8L96 6L94 6Z" fill="#000000" fill-rule="evenodd" />
</svg>
