<svg viewBox="0 0 95 95" xmlns="http://www.w3.org/2000/svg">
<rect width="100%" height="100%" fill="#FFFFFF" />
<path d="M0 0L0 95L95 95L95 0ZM2 2L93 2L93 93L2 93Z" fill="#ffffff" fill-rule="evenodd" />
<path d="M10 84L24 84L24 70L10 70ZM26 84L30 84L30 82L26 82ZM32 84L34 84L34 82L36 82L36 84L40 84L40 82L38 82L38 78L36 78L36 76L38 76L38 78L46 78L46 76L40 76L40 74L42 74L42 72L44 72L44 70L42 70L42 64L44 64L44 62L42 62L42 60L40 60L40 66L38 66L38 68L40 68L40 70L32 70L32 74L34 74L34 72L38 72L38 74L34 74L34 76L32 76L32 80L30 80L30 82L32 82ZM42 84L44 84L44 82L46 82L46 80L42 80ZM46 84L48 84L48 82L46 82ZM50 84L54 84L54 82L50 82ZM56 84L60 84L60 78L56 78L56 80L58 80L58 82L56 82ZM62 84L64 84L64 82L62 82ZM68 84L72 84L72 82L70 82L70 80L68 80ZM80 84L84 84L84 76L82 76L82 82L80 82ZM12 82L12 72L22 72L22 82ZM54 82L56 82L56 80L54 80ZM72 82L74 82L74 80L72 80ZM14 80L20 80L20 74L14 74ZM26 80L30 80L30 78L28 78L28 76L30 76L30 68L26 68L26 70L28 70L28 72L26 72ZM46 80L48 80L48 78L46 78ZM50 80L54 80L54 78L50 78ZM62 80L64 80L64 78L66 78L66 76L64 76L64 72L66 72L66 76L70 76L70 80L72 80L72 78L74 78L74 76L78 76L78 78L80 78L80 76L82 76L82 74L76 74L76 72L80 72L80 70L78 70L78 66L80 66L80 64L74 64L74 66L72 66L72 62L74 62L74 60L72 60L72 58L66 58L66 60L64 60L64 62L62 62L62 64L64 64L64 66L66 66L66 62L68 62L68 60L70 60L70 62L68 62L68 66L66 66L66 70L62 70L62 72L60 72L60 74L62 74L62 76L60 76L60 78L62 78ZM66 80L68 80L68 78L66 78ZM46 76L60 76L60 74L46 74ZM68 74L68 68L74 68L74 74ZM82 74L84 74L84 66L80 66L80 68L82 68ZM46 72L48 72L48 70L46 70ZM50 72L52 72L52 70L50 70ZM54 72L56 72L56 66L52 66L52 68L54 68ZM70 72L72 72L72 70L70 70ZM58 70L62 70L62 68L58 68ZM10 68L12 68L12 62L14 62L14 60L12 60L12 58L14 58L14 56L18 56L18 58L20 58L20 54L18 54L18 50L20 50L20 48L18 48L18 46L14 46L14 44L16 44L16 42L12 42L12 46L10 46L10 48L12 48L12 54L10 54ZM14 68L18 68L18 66L16 66L16 64L18 64L18 62L22 62L22 60L18 60L18 58L16 58L16 62L14 62ZM22 68L24 68L24 66L22 66ZM46 68L50 68L50 66L52 66L52 64L50 64L50 62L48 62L48 64L44 64L44 66L46 66ZM28 66L30 66L30 62L28 62L28 60L32 60L32 56L34 56L34 58L38 58L38 56L36 56L36 54L26 54L26 64L28 64ZM32 66L34 66L34 64L36 64L36 60L34 60L34 62L32 62ZM36 66L38 66L38 64L36 64ZM58 66L60 66L60 62L62 62L62 60L60 60L60 58L62 58L62 56L60 56L60 54L58 54L58 58L56 58L56 60L58 60ZM22 64L24 64L24 62L22 62ZM52 64L56 64L56 60L54 60L54 62L52 62ZM80 64L84 64L84 62L80 62ZM44 62L48 62L48 60L44 60ZM50 62L52 62L52 60L50 60ZM78 62L80 62L80 60L82 60L82 58L78 58ZM22 60L24 60L24 58L22 58ZM38 60L40 60L40 58L38 58ZM42 60L44 60L44 58L48 58L48 56L46 56L46 54L48 54L48 50L46 50L46 52L44 52L44 54L42 54L42 56L40 56L40 58L42 58ZM48 60L50 60L50 58L48 58ZM52 60L54 60L54 58L56 58L56 56L54 56L54 52L58 52L58 48L60 48L60 46L56 46L56 50L54 50L54 46L50 46L50 48L52 48L52 52L50 52L50 54L48 54L48 56L50 56L50 58L52 58ZM62 60L64 60L64 58L62 58ZM64 58L66 58L66 56L64 56ZM76 58L78 58L78 56L82 56L82 54L84 54L84 46L82 46L82 48L80 48L80 50L82 50L82 52L80 52L80 54L76 54ZM82 58L84 58L84 56L82 56ZM22 56L24 56L24 54L22 54ZM68 56L70 56L70 54L68 54ZM38 54L42 54L42 52L40 52L40 50L38 50ZM60 54L62 54L62 52L60 52ZM64 54L68 54L68 52L64 52ZM14 52L14 48L16 48L16 52ZM22 52L24 52L24 50L22 50ZM26 52L36 52L36 50L38 50L38 48L34 48L34 50L26 50ZM62 52L64 52L64 50L66 50L66 48L62 48ZM72 52L74 52L74 50L76 50L76 48L80 48L80 46L82 46L82 44L80 44L80 42L78 42L78 46L74 46L74 48L72 48ZM76 52L78 52L78 50L76 50ZM42 50L46 50L46 48L42 48ZM20 48L30 48L30 46L28 46L28 44L30 44L30 46L32 46L32 44L34 44L34 42L32 42L32 40L30 40L30 42L22 42L22 40L18 40L18 42L20 42L20 44L26 44L26 46L20 46ZM32 48L34 48L34 46L32 46ZM38 48L40 48L40 46L38 46ZM68 48L70 48L70 46L68 46ZM18 46L20 46L20 44L18 44ZM34 46L36 46L36 44L34 44ZM40 46L46 46L46 44L40 44ZM60 46L66 46L66 44L64 44L64 42L62 42L62 44L60 44ZM70 46L72 46L72 42L78 42L78 32L74 32L74 30L72 30L72 28L74 28L74 30L76 30L76 28L78 28L78 30L82 30L82 28L80 28L80 26L70 26L70 30L66 30L66 32L64 32L64 30L62 30L62 36L60 36L60 32L58 32L58 38L60 38L60 40L64 40L64 38L66 38L66 40L64 40L64 42L68 42L68 40L70 40L70 38L68 38L68 36L64 36L64 34L68 34L68 32L70 32L70 34L74 34L74 40L70 40ZM36 44L40 44L40 42L44 42L44 40L42 40L42 38L44 38L44 36L42 36L42 32L44 32L44 30L42 30L42 28L44 28L44 26L48 26L48 22L46 22L46 24L44 24L44 22L46 22L46 20L48 20L48 12L46 12L46 14L44 14L44 16L46 16L46 18L44 18L44 20L42 20L42 26L40 26L40 36L38 36L38 34L36 34L36 36L32 36L32 34L36 34L36 32L38 32L38 28L36 28L36 30L34 30L34 32L30 32L30 28L28 28L28 34L22 34L22 32L26 32L26 30L20 30L20 28L24 28L24 26L14 26L14 28L12 28L12 26L10 26L10 30L12 30L12 32L10 32L10 38L12 38L12 36L16 36L16 38L22 38L22 36L24 36L24 38L26 38L26 36L30 36L30 38L40 38L40 40L38 40L38 42L36 42ZM46 44L60 44L60 40L58 40L58 42L52 42L52 40L50 40L50 42L46 42ZM10 42L12 42L12 40L10 40ZM82 42L84 42L84 40L82 40ZM14 40L16 40L16 38L14 38ZM22 40L24 40L24 38L22 38ZM26 40L30 40L30 38L26 38ZM46 40L48 40L48 36L50 36L50 34L52 34L52 36L54 36L54 40L58 40L58 38L56 38L56 34L54 34L54 32L56 32L56 28L54 28L54 30L52 30L52 32L50 32L50 30L48 30L48 32L44 32L44 34L46 34ZM70 38L72 38L72 36L70 36ZM82 38L84 38L84 34L82 34ZM18 36L18 32L20 32L20 36ZM14 34L14 32L16 32L16 34ZM80 34L82 34L82 32L80 32ZM16 32L16 28L18 28L18 32ZM82 32L84 32L84 30L82 30ZM32 30L34 30L34 28L36 28L36 26L32 26L32 22L30 22L30 24L28 24L28 22L30 22L30 20L32 20L32 18L34 18L34 20L32 20L32 22L34 22L34 24L36 24L36 16L38 16L38 26L40 26L40 20L42 20L42 18L40 18L40 16L42 16L42 14L44 14L44 12L40 12L40 14L36 14L36 12L38 12L38 10L34 10L34 14L32 14L32 16L30 16L30 18L28 18L28 14L26 14L26 26L30 26L30 28L32 28ZM44 30L48 30L48 28L44 28ZM50 30L52 30L52 28L50 28ZM58 30L62 30L62 28L58 28ZM64 30L66 30L66 28L64 28ZM48 28L50 28L50 26L48 26ZM52 28L54 28L54 26L56 26L56 22L54 22L54 24L52 24L52 22L50 22L50 26L52 26ZM56 28L58 28L58 26L56 26ZM60 26L62 26L62 24L60 24ZM66 26L68 26L68 22L66 22ZM10 24L24 24L24 10L10 10ZM58 24L60 24L60 20L58 20ZM62 24L64 24L64 22L66 22L66 18L64 18L64 20L62 20ZM70 24L84 24L84 10L70 10ZM12 22L12 12L22 12L22 22ZM52 22L54 22L54 14L52 14L52 16L50 16L50 20L52 20ZM72 22L72 12L82 12L82 22ZM14 20L20 20L20 14L14 14ZM60 20L62 20L62 18L60 18ZM74 20L80 20L80 14L74 14ZM42 18L44 18L44 16L42 16ZM56 18L60 18L60 16L58 16L58 14L60 14L60 12L54 12L54 14L56 14ZM66 18L68 18L68 14L66 14L66 10L64 10L64 14L60 14L60 16L66 16ZM28 14L30 14L30 12L28 12ZM50 14L52 14L52 12L50 12ZM30 12L32 12L32 10L30 10ZM44 12L46 12L46 10L44 10ZM60 12L62 12L62 10L60 10Z" fill="#000000" fill-rule="evenodd" />
</svg>
