<svg viewBox="0 0 95 95" xmlns="http://www.w3.org/2000/svg">
<rect width="100%" height="100%" fill="#FFFFFF" />
<path d="M0 0L0 95L95 95L95 0ZM2 2L93 2L93 93L2 93Z" fill="#ffffff" fill-rule="evenodd" />
<path d="M10 84L24 84L24 70L10 70ZM26 84L30 84L30 82L26 82ZM36 84L42 84L42 82L36 82ZM44 84L46 84L46 80L48 80L48 76L46 76L46 74L48 74L48 76L54 76L54 78L52 78L52 84L60 84L60 80L62 80L62 78L64 78L64 80L62 80L62 82L66 82L66 76L60 76L60 78L58 78L58 76L60 76L60 74L56 74L56 72L62 72L62 70L64 70L64 68L60 68L60 64L58 64L58 66L56 66L56 70L54 70L54 72L52 72L52 74L50 74L50 72L48 72L48 68L46 68L46 70L44 70L44 76L40 76L40 78L38 78L38 80L44 80ZM48 84L50 84L50 80L48 80ZM68 84L84 84L84 82L82 82L82 80L80 80L80 78L76 78L76 80L78 80L78 82L76 82L76 80L74 80L74 78L72 78L72 76L80 76L80 74L82 74L82 72L80 72L80 70L78 70L78 74L76 74L76 70L78 70L78 68L76 68L76 66L70 66L70 62L68 62L68 60L60 60L60 62L62 62L62 66L66 66L66 76L68 76L68 80L72 80L72 82L68 82ZM12 82L12 72L22 72L22 82ZM32 82L34 82L34 78L36 78L36 76L28 76L28 80L30 80L30 78L32 78ZM56 82L56 80L58 80L58 82ZM14 80L20 80L20 74L14 74ZM80 78L84 78L84 74L82 74L82 76L80 76ZM26 76L28 76L28 74L26 74ZM30 74L42 74L42 70L44 70L44 68L38 68L38 70L40 70L40 72L38 72L38 70L36 70L36 68L34 68L34 72L32 72L32 68L34 68L34 66L32 66L32 64L30 64L30 68L26 68L26 72L30 72ZM62 74L64 74L64 72L62 72ZM68 74L68 68L74 68L74 74ZM70 72L72 72L72 70L70 70ZM10 68L14 68L14 66L10 66ZM22 68L24 68L24 66L22 66ZM36 68L38 68L38 66L42 66L42 64L44 64L44 68L46 68L46 66L50 66L50 68L54 68L54 66L56 66L56 64L58 64L58 60L56 60L56 62L54 62L54 64L52 64L52 62L50 62L50 64L48 64L48 62L44 62L44 60L38 60L38 64L34 64L34 66L36 66ZM78 68L84 68L84 66L82 66L82 64L80 64L80 62L82 62L82 60L80 60L80 56L78 56L78 64L76 64L76 66L78 66ZM14 66L20 66L20 64L24 64L24 62L20 62L20 60L12 60L12 56L10 56L10 62L14 62ZM24 66L26 66L26 64L24 64ZM26 64L28 64L28 62L26 62ZM32 64L34 64L34 58L30 58L30 56L24 56L24 58L20 58L20 60L24 60L24 62L26 62L26 58L28 58L28 60L32 60ZM74 62L76 62L76 60L74 60ZM44 60L46 60L46 54L44 54L44 56L42 56L42 58L44 58ZM50 60L56 60L56 58L58 58L58 52L56 52L56 50L54 50L54 48L52 48L52 52L54 52L54 54L50 54L50 56L48 56L48 58L50 58ZM58 60L60 60L60 58L58 58ZM68 60L74 60L74 58L72 58L72 56L70 56L70 58L68 58ZM82 60L84 60L84 56L82 56ZM18 58L20 58L20 54L16 54L16 56L18 56ZM34 58L36 58L36 56L34 56ZM38 58L40 58L40 56L42 56L42 54L44 54L44 52L46 52L46 50L48 50L48 52L50 52L50 48L44 48L44 50L42 50L42 52L40 52L40 50L42 50L42 46L44 46L44 44L46 44L46 46L48 46L48 40L46 40L46 30L38 30L38 32L36 32L36 34L30 34L30 36L28 36L28 40L26 40L26 42L30 42L30 38L32 38L32 44L34 44L34 42L36 42L36 40L34 40L34 38L38 38L38 42L36 42L36 44L40 44L40 42L42 42L42 40L44 40L44 42L42 42L42 44L40 44L40 46L38 46L38 54L36 54L36 56L38 56ZM66 58L68 58L68 56L66 56ZM12 56L14 56L14 52L10 52L10 54L12 54ZM22 56L24 56L24 54L22 54ZM32 56L34 56L34 54L32 54ZM64 56L66 56L66 54L70 54L70 52L72 52L72 56L78 56L78 54L82 54L82 52L80 52L80 48L78 48L78 50L76 50L76 52L74 52L74 50L76 50L76 48L72 48L72 50L68 50L68 52L60 52L60 54L64 54ZM20 54L22 54L22 52L20 52ZM24 54L28 54L28 52L30 52L30 50L26 50L26 48L24 48L24 50L22 50L22 52L24 52ZM34 54L36 54L36 48L32 48L32 52L34 52ZM46 54L48 54L48 52L46 52ZM14 52L18 52L18 44L20 44L20 48L24 48L24 46L22 46L22 44L24 44L24 42L20 42L20 40L18 40L18 38L14 38L14 40L16 40L16 42L14 42L14 44L16 44L16 46L14 46ZM58 52L60 52L60 48L62 48L62 46L64 46L64 50L68 50L68 48L66 48L66 46L68 46L68 44L64 44L64 42L68 42L68 44L74 44L74 42L70 42L70 40L66 40L66 38L70 38L70 36L72 36L72 34L70 34L70 32L68 32L68 36L66 36L66 30L68 30L68 28L66 28L66 24L64 24L64 28L60 28L60 32L62 32L62 34L64 34L64 38L62 38L62 36L60 36L60 38L58 38L58 36L56 36L56 38L54 38L54 40L56 40L56 42L58 42L58 40L62 40L62 44L60 44L60 46L58 46L58 44L56 44L56 48L58 48ZM82 52L84 52L84 48L82 48ZM10 50L12 50L12 48L10 48ZM30 48L32 48L32 46L30 46ZM50 48L52 48L52 46L50 46ZM68 48L72 48L72 46L68 46ZM76 48L78 48L78 46L76 46ZM10 46L14 46L14 44L12 44L12 42L10 42ZM26 46L30 46L30 44L26 44ZM34 46L36 46L36 44L34 44ZM52 46L54 46L54 40L52 40L52 42L50 42L50 44L52 44ZM74 46L76 46L76 44L74 44ZM78 46L80 46L80 42L82 42L82 44L84 44L84 40L80 40L80 38L78 38L78 36L80 36L80 30L78 30L78 34L76 34L76 36L74 36L74 38L76 38L76 40L78 40ZM10 40L12 40L12 38L10 38ZM20 40L24 40L24 38L20 38ZM50 40L52 40L52 38L50 38ZM12 38L14 38L14 36L12 36ZM18 38L20 38L20 36L18 36ZM42 38L42 36L38 36L38 34L40 34L40 32L42 32L42 34L44 34L44 38ZM14 36L18 36L18 34L22 34L22 32L24 32L24 34L22 34L22 36L28 36L28 32L30 32L30 26L28 26L28 22L30 22L30 20L32 20L32 22L34 22L34 24L32 24L32 30L38 30L38 28L40 28L40 26L38 26L38 24L36 24L36 20L34 20L34 18L30 18L30 14L28 14L28 16L26 16L26 26L22 26L22 28L26 28L26 30L22 30L22 28L20 28L20 26L18 26L18 28L16 28L16 32L14 32ZM48 36L56 36L56 32L58 32L58 28L60 28L60 20L58 20L58 26L54 26L54 24L52 24L52 26L48 26L48 28L52 28L52 30L50 30L50 32L52 32L52 34L50 34L50 32L48 32ZM58 36L60 36L60 34L58 34ZM82 36L84 36L84 34L82 34ZM10 34L12 34L12 26L10 26ZM72 34L74 34L74 30L72 30ZM46 30L48 30L48 28L46 28ZM74 30L76 30L76 28L78 28L78 26L68 26L68 28L74 28ZM34 28L34 26L36 26L36 28ZM44 28L46 28L46 24L44 24ZM82 28L84 28L84 26L82 26ZM40 26L42 26L42 24L40 24ZM10 24L24 24L24 10L10 10ZM30 24L32 24L32 22L30 22ZM38 24L40 24L40 20L38 20ZM42 24L44 24L44 20L48 20L48 18L40 18L40 20L42 20ZM46 24L48 24L48 22L46 22ZM50 24L52 24L52 22L50 22ZM54 24L56 24L56 22L54 22ZM62 24L64 24L64 22L62 22ZM66 24L68 24L68 22L66 22ZM70 24L84 24L84 10L70 10ZM12 22L12 12L22 12L22 22ZM48 22L50 22L50 20L48 20ZM52 22L54 22L54 20L52 20ZM72 22L72 12L82 12L82 22ZM14 20L20 20L20 14L14 14ZM56 20L58 20L58 16L60 16L60 14L56 14ZM64 20L66 20L66 18L64 18ZM74 20L80 20L80 14L74 14ZM34 18L40 18L40 16L36 16L36 14L34 14L34 12L30 12L30 14L32 14L32 16L34 16ZM48 18L50 18L50 16L54 16L54 12L52 12L52 14L50 14L50 12L48 12ZM60 18L64 18L64 16L60 16ZM66 18L68 18L68 16L66 16ZM42 16L46 16L46 14L42 14ZM40 14L42 14L42 12L40 12ZM60 14L64 14L64 12L66 12L66 14L68 14L68 10L60 10ZM26 12L30 12L30 10L26 10ZM34 12L40 12L40 10L34 10ZM42 12L48 12L48 10L42 10ZM54 12L58 12L58 10L54 10Z" fill="#000000" fill-rule="evenodd" />
</svg>
