<svg viewBox="0 0 87 87" xmlns="http://www.w3.org/2000/svg">
<rect width="100%" height="100%" fill="#FFFFFF" />
<path d="M0 0L0 87L87 87L87 0ZM2 2L85 2L85 85L2 85Z" fill="#ffffff" fill-rule="evenodd" />
<path d="M10 76L24 76L24 62L10 62ZM26 76L32 76L32 74L30 74L30 68L28 68L28 74L26 74ZM34 76L36 76L36 74L34 74ZM40 76L46 76L46 74L48 74L48 70L44 70L44 68L42 68L42 72L44 72L44 74L40 74ZM52 76L62 76L62 74L60 74L60 72L62 72L62 70L60 70L60 68L62 68L62 70L64 70L64 68L66 68L66 72L62 72L62 74L68 74L68 72L70 72L70 70L72 70L72 66L68 66L68 64L70 64L70 62L68 62L68 60L70 60L70 58L54 58L54 60L58 60L58 68L56 68L56 66L54 66L54 64L52 64L52 70L54 70L54 72L52 72ZM70 76L72 76L72 74L70 74ZM74 76L76 76L76 74L74 74ZM12 74L12 64L22 64L22 74ZM32 74L34 74L34 72L36 72L36 70L40 70L40 64L44 64L44 66L46 66L46 68L50 68L50 64L46 64L46 62L44 62L44 58L48 58L48 60L46 60L46 62L50 62L50 60L52 60L52 58L54 58L54 56L52 56L52 54L50 54L50 56L48 56L48 52L46 52L46 54L44 54L44 56L42 56L42 54L38 54L38 52L36 52L36 56L38 56L38 58L42 58L42 62L38 62L38 68L34 68L34 70L32 70ZM38 74L40 74L40 72L38 72ZM14 72L20 72L20 66L14 66ZM26 68L28 68L28 66L26 66ZM74 68L76 68L76 66L74 66ZM30 66L34 66L34 64L32 64L32 62L30 62L30 60L26 60L26 64L30 64ZM60 66L60 60L66 60L66 66ZM72 66L74 66L74 60L72 60ZM50 64L52 64L52 62L50 62ZM54 64L56 64L56 62L54 62ZM62 64L64 64L64 62L62 62ZM32 62L38 62L38 58L36 58L36 60L34 60L34 52L32 52L32 54L30 54L30 56L32 56L32 58L30 58L30 60L32 60ZM10 60L18 60L18 58L16 58L16 56L20 56L20 54L16 54L16 52L20 52L20 50L16 50L16 48L20 48L20 50L22 50L22 48L24 48L24 50L22 50L22 52L24 52L24 54L28 54L28 52L26 52L26 50L30 50L30 48L26 48L26 42L22 42L22 44L24 44L24 46L18 46L18 40L16 40L16 38L14 38L14 40L12 40L12 44L16 44L16 46L12 46L12 48L14 48L14 58L10 58ZM20 60L24 60L24 58L22 58L22 56L20 56ZM74 60L76 60L76 58L74 58ZM24 58L26 58L26 56L24 56ZM22 56L24 56L24 54L22 54ZM56 56L60 56L60 54L56 54ZM64 56L68 56L68 54L66 54L66 48L64 48L64 50L62 50L62 52L64 52ZM70 56L74 56L74 54L72 54L72 52L74 52L74 50L68 50L68 54L70 54ZM10 54L12 54L12 52L10 52ZM54 54L56 54L56 52L58 52L58 50L56 50L56 48L48 48L48 52L52 52L52 50L54 50ZM74 54L76 54L76 52L74 52ZM34 52L36 52L36 50L38 50L38 48L32 48L32 50L34 50ZM42 52L44 52L44 48L42 48L42 44L44 44L44 42L40 42L40 44L38 44L38 48L40 48L40 50L42 50ZM10 50L12 50L12 48L10 48ZM60 50L62 50L62 48L60 48ZM46 48L48 48L48 44L44 44L44 46L46 46ZM56 48L58 48L58 46L56 46ZM72 48L74 48L74 46L76 46L76 42L74 42L74 38L72 38L72 44L68 44L68 46L72 46ZM10 46L12 46L12 44L10 44ZM28 46L30 46L30 44L28 44ZM32 46L36 46L36 44L38 44L38 42L40 42L40 40L38 40L38 38L36 38L36 42L34 42L34 40L32 40L32 38L34 38L34 36L32 36L32 34L30 34L30 38L28 38L28 42L32 42ZM52 46L56 46L56 44L60 44L60 42L54 42L54 40L52 40L52 42L48 42L48 44L52 44ZM64 46L66 46L66 44L64 44ZM62 44L64 44L64 38L62 38L62 40L60 40L60 42L62 42ZM20 42L22 42L22 40L20 40ZM44 42L48 42L48 40L46 40L46 36L42 36L42 40L44 40ZM66 42L68 42L68 40L66 40ZM10 40L12 40L12 36L10 36ZM18 40L20 40L20 38L18 38ZM22 40L26 40L26 36L24 36L24 38L22 38ZM50 40L52 40L52 38L50 38ZM54 40L58 40L58 38L54 38ZM68 40L70 40L70 38L72 38L72 36L70 36L70 32L68 32L68 34L66 34L66 32L64 32L64 34L62 34L62 36L68 36ZM16 38L18 38L18 34L14 34L14 32L12 32L12 36L16 36ZM60 38L62 38L62 36L60 36ZM74 38L76 38L76 36L74 36ZM22 36L24 36L24 34L22 34ZM36 36L42 36L42 34L46 34L46 36L48 36L48 32L46 32L46 30L44 30L44 32L42 32L42 28L38 28L38 26L34 26L34 32L36 32L36 30L40 30L40 32L38 32L38 34L36 34ZM50 36L52 36L52 34L50 34ZM54 36L60 36L60 32L62 32L62 28L64 28L64 30L66 30L66 28L68 28L68 30L72 30L72 32L74 32L74 30L76 30L76 26L74 26L74 28L70 28L70 26L60 26L60 22L58 22L58 24L56 24L56 20L54 20L54 24L52 24L52 28L54 28L54 26L58 26L58 28L60 28L60 30L56 30L56 34L54 34ZM18 34L20 34L20 32L18 32ZM24 34L26 34L26 30L22 30L22 32L24 32ZM28 34L30 34L30 32L28 32ZM32 34L34 34L34 32L32 32ZM52 34L54 34L54 30L52 30ZM74 34L76 34L76 32L74 32ZM10 32L12 32L12 30L10 30ZM16 32L18 32L18 30L16 30ZM18 30L20 30L20 26L18 26ZM30 30L32 30L32 26L30 26ZM50 30L52 30L52 28L50 28ZM54 30L56 30L56 28L54 28ZM10 28L12 28L12 26L10 26ZM22 28L28 28L28 20L30 20L30 18L28 18L28 16L26 16L26 26L22 26ZM42 28L50 28L50 26L46 26L46 24L44 24L44 22L46 22L46 20L42 20L42 24L40 24L40 22L38 22L38 26L42 26ZM10 24L24 24L24 10L10 10ZM30 24L32 24L32 22L30 22ZM34 24L36 24L36 22L34 22ZM46 24L48 24L48 22L46 22ZM50 24L52 24L52 22L50 22ZM62 24L76 24L76 10L62 10ZM12 22L12 12L22 12L22 22ZM48 22L50 22L50 20L52 20L52 18L48 18L48 16L44 16L44 18L46 18L46 20L48 20ZM64 22L64 12L74 12L74 22ZM14 20L20 20L20 14L14 14ZM32 20L34 20L34 18L32 18ZM36 20L40 20L40 18L42 18L42 16L44 16L44 14L46 14L46 10L40 10L40 12L42 12L42 14L40 14L40 16L38 16L38 18L36 18ZM56 20L58 20L58 18L60 18L60 10L50 10L50 12L58 12L58 14L56 14ZM66 20L72 20L72 14L66 14ZM52 18L54 18L54 14L50 14L50 16L52 16ZM34 16L38 16L38 14L34 14ZM32 14L34 14L34 12L32 12ZM48 14L50 14L50 12L48 12ZM26 12L28 12L28 10L26 10ZM30 12L32 12L32 10L30 10Z" fill="#000000" fill-rule="evenodd" />
</svg>
