<svg viewBox="0 0 79 79" xmlns="http://www.w3.org/2000/svg">
<rect width="100%" height="100%" fill="#FFFFFF" />
<path d="M0 0L0 79L79 79L79 0ZM2 2L77 2L77 77L2 77Z" fill="#ffffff" fill-rule="evenodd" />
<path d="M10 68L24 68L24 54L10 54ZM26 68L28 68L28 66L26 66ZM32 68L36 68L36 66L40 66L40 64L42 64L42 60L40 60L40 62L38 62L38 64L30 64L30 66L32 66ZM42 68L44 68L44 66L42 66ZM50 68L52 68L52 66L50 66ZM62 68L66 68L66 66L68 66L68 60L66 60L66 62L64 62L64 66L62 66ZM12 66L12 56L22 56L22 66ZM44 66L48 66L48 64L50 64L50 62L52 62L52 60L56 60L56 62L60 62L60 60L62 60L62 62L64 62L64 58L62 58L62 56L60 56L60 50L62 50L62 48L60 48L60 44L58 44L58 40L56 40L56 46L52 46L52 48L56 48L56 50L52 50L52 48L48 48L48 52L42 52L42 54L40 54L40 56L38 56L38 58L34 58L34 60L36 60L36 62L38 62L38 60L40 60L40 58L42 58L42 56L44 56L44 58L42 58L42 60L46 60L46 58L48 58L48 62L46 62L46 64L44 64ZM52 66L54 66L54 64L52 64ZM60 66L62 66L62 62L60 62ZM14 64L20 64L20 58L14 58ZM28 62L30 62L30 60L32 60L32 58L26 58L26 60L28 60ZM32 62L34 62L34 60L32 60ZM52 58L52 52L58 52L58 58ZM64 58L66 58L66 56L64 56ZM26 56L30 56L30 54L28 54L28 48L26 48ZM32 56L36 56L36 54L40 54L40 52L38 52L38 48L42 48L42 46L36 46L36 48L34 48L34 50L36 50L36 52L32 52ZM48 56L48 54L50 54L50 56ZM54 56L56 56L56 54L54 54ZM62 56L64 56L64 52L62 52ZM66 56L68 56L68 54L66 54ZM10 52L14 52L14 50L10 50ZM18 52L24 52L24 50L22 50L22 48L20 48L20 50L18 50ZM40 52L42 52L42 50L40 50ZM64 52L66 52L66 50L68 50L68 46L66 46L66 48L64 48ZM30 50L32 50L32 46L30 46ZM42 50L46 50L46 44L42 44L42 46L44 46L44 48L42 48ZM14 48L18 48L18 46L14 46ZM22 48L24 48L24 46L22 46ZM62 48L64 48L64 46L66 46L66 44L62 44ZM10 46L12 46L12 44L10 44ZM20 46L22 46L22 44L20 44ZM24 46L30 46L30 44L24 44ZM16 44L20 44L20 42L18 42L18 40L20 40L20 38L22 38L22 36L24 36L24 38L22 38L22 40L24 40L24 42L26 42L26 40L28 40L28 38L26 38L26 36L32 36L32 38L34 38L34 34L30 34L30 28L28 28L28 32L24 32L24 34L22 34L22 32L20 32L20 26L18 26L18 34L20 34L20 36L18 36L18 38L16 38L16 40L14 40L14 38L12 38L12 40L10 40L10 42L16 42ZM22 44L24 44L24 42L22 42ZM30 44L40 44L40 40L38 40L38 42L30 42ZM50 44L54 44L54 42L50 42ZM60 44L62 44L62 40L60 40ZM28 42L30 42L30 40L28 40ZM44 42L48 42L48 38L46 38L46 40L44 40ZM64 42L66 42L66 40L64 40ZM30 40L32 40L32 38L30 38ZM34 40L36 40L36 38L34 38ZM40 40L44 40L44 36L48 36L48 38L50 38L50 36L52 36L52 38L54 38L54 32L52 32L52 30L50 30L50 34L46 34L46 32L48 32L48 30L34 30L34 34L36 34L36 38L40 38L40 36L38 36L38 32L42 32L42 38L40 38ZM50 40L52 40L52 38L50 38ZM54 40L56 40L56 38L54 38ZM58 40L60 40L60 36L62 36L62 30L60 30L60 34L58 34L58 36L56 36L56 38L58 38ZM62 40L64 40L64 36L62 36ZM66 40L68 40L68 36L66 36ZM14 38L16 38L16 36L14 36ZM10 36L14 36L14 32L10 32ZM64 36L66 36L66 32L64 32ZM14 32L16 32L16 28L12 28L12 30L14 30ZM22 32L24 32L24 30L22 30ZM54 32L58 32L58 30L60 30L60 28L62 28L62 26L52 26L52 20L48 20L48 22L50 22L50 26L48 26L48 28L54 28ZM66 32L68 32L68 26L66 26ZM24 30L26 30L26 28L28 28L28 18L30 18L30 20L32 20L32 14L30 14L30 12L28 12L28 16L26 16L26 26L22 26L22 28L24 28ZM62 30L64 30L64 28L62 28ZM10 28L12 28L12 26L10 26ZM30 28L34 28L34 26L36 26L36 22L38 22L38 26L36 26L36 28L42 28L42 26L40 26L40 22L42 22L42 20L40 20L40 18L42 18L42 20L44 20L44 16L46 16L46 14L44 14L44 12L42 12L42 14L40 14L40 16L38 16L38 18L36 18L36 20L32 20L32 22L34 22L34 24L32 24L32 22L30 22ZM44 28L46 28L46 24L44 24ZM10 24L24 24L24 10L10 10ZM42 24L44 24L44 22L42 22ZM46 24L48 24L48 22L46 22ZM54 24L68 24L68 10L54 10ZM12 22L12 12L22 12L22 22ZM44 22L46 22L46 20L44 20ZM56 22L56 12L66 12L66 22ZM14 20L20 20L20 14L14 14ZM58 20L64 20L64 14L58 14ZM34 18L36 18L36 16L38 16L38 14L34 14ZM50 18L52 18L52 10L50 10L50 12L48 12L48 14L50 14ZM32 14L34 14L34 12L32 12ZM26 12L28 12L28 10L26 10ZM34 12L36 12L36 10L34 10Z" fill="#000000" fill-rule="evenodd" />
</svg>
