<svg viewBox="0 0 131 43" xmlns="http://www.w3.org/2000/svg">
<rect width="100%" height="100%" fill="#FFFFFF" />
<path d="M0 0L0 43L131 43L131 0ZM2 2L129 2L129 41L2 41Z" fill="#ffffff" fill-rule="evenodd" />
<path d="M6 36L12 36L12 32L10 32L10 34L8 34L8 32L10 32L10 30L6 30ZM14 36L16 36L16 34L18 34L18 32L14 32ZM18 36L20 36L20 34L18 34ZM22 36L24 36L24 34L22 34ZM26 36L28 36L28 32L30 32L30 30L28 30L28 28L30 28L30 26L26 26L26 28L22 28L22 30L18 30L18 32L24 32L24 30L26 30ZM30 36L32 36L32 34L30 34ZM34 36L36 36L36 32L38 32L38 36L40 36L40 32L42 32L42 36L48 36L48 30L42 30L42 26L38 26L38 18L40 18L40 16L36 16L36 14L40 14L40 12L46 12L46 14L48 14L48 16L46 16L46 18L44 18L44 20L46 20L46 22L48 22L48 20L50 20L50 18L52 18L52 16L50 16L50 12L48 12L48 6L42 6L42 10L40 10L40 6L38 6L38 8L36 8L36 10L38 10L38 12L34 12L34 8L32 8L32 6L30 6L30 8L28 8L28 6L26 6L26 10L22 10L22 18L24 18L24 16L26 16L26 14L24 14L24 12L28 12L28 10L32 10L32 14L30 14L30 16L28 16L28 20L26 20L26 22L28 22L28 24L30 24L30 22L32 22L32 20L30 20L30 18L36 18L36 22L32 22L32 24L36 24L36 26L32 26L32 28L40 28L40 30L32 30L32 32L34 32ZM50 36L52 36L52 34L50 34ZM54 36L56 36L56 34L54 34ZM58 36L60 36L60 34L58 34ZM62 36L64 36L64 34L62 34ZM66 36L68 36L68 34L66 34ZM70 36L72 36L72 30L66 30L66 32L68 32L68 34L70 34ZM74 36L76 36L76 34L74 34ZM78 36L80 36L80 34L82 34L82 36L88 36L88 34L90 34L90 36L92 36L92 34L94 34L94 36L96 36L96 34L98 34L98 36L100 36L100 32L98 32L98 30L96 30L96 28L94 28L94 32L88 32L88 28L86 28L86 30L84 30L84 28L86 28L86 26L84 26L84 24L82 24L82 28L80 28L80 32L76 32L76 34L78 34ZM102 36L104 36L104 34L102 34ZM106 36L108 36L108 34L110 34L110 32L106 32L106 30L104 30L104 34L106 34ZM110 36L112 36L112 34L110 34ZM114 36L124 36L124 26L120 26L120 24L118 24L118 20L116 20L116 22L114 22L114 20L112 20L112 28L110 28L110 22L108 22L108 28L106 28L106 30L110 30L110 32L112 32L112 34L114 34ZM44 34L44 32L46 32L46 34ZM84 34L84 32L86 32L86 34ZM116 34L116 28L122 28L122 34ZM50 32L52 32L52 24L50 24L50 28L48 28L48 30L50 30ZM54 32L56 32L56 30L58 30L58 32L60 32L60 30L62 30L62 28L64 28L64 26L66 26L66 28L70 28L70 26L68 26L68 24L62 24L62 26L60 26L60 28L54 28ZM62 32L64 32L64 30L62 30ZM118 32L120 32L120 30L118 30ZM14 30L18 30L18 28L16 28L16 26L14 26ZM30 30L32 30L32 28L30 28ZM72 30L74 30L74 28L76 28L76 24L74 24L74 22L72 22L72 20L70 20L70 24L72 24ZM98 30L104 30L104 28L98 28ZM6 28L8 28L8 26L6 26ZM18 28L20 28L20 24L18 24ZM44 28L48 28L48 24L46 24L46 26L44 26ZM78 28L80 28L80 26L78 26ZM88 28L94 28L94 26L96 26L96 24L94 24L94 22L98 22L98 20L94 20L94 18L92 18L92 16L94 16L94 14L90 14L90 16L88 16L88 22L90 22L90 20L92 20L92 22L90 22L90 24L92 24L92 26L90 26L90 24L88 24ZM96 28L98 28L98 26L96 26ZM104 28L106 28L106 22L104 22L104 24L102 24L102 26L104 26ZM8 26L10 26L10 24L12 24L12 22L6 22L6 24L8 24ZM12 26L14 26L14 24L12 24ZM30 26L32 26L32 24L30 24ZM42 26L44 26L44 24L46 24L46 22L42 22ZM54 26L60 26L60 24L58 24L58 22L56 22L56 24L54 24ZM114 26L114 24L116 24L116 26ZM14 24L16 24L16 22L14 22ZM20 24L22 24L22 22L20 22ZM48 24L50 24L50 22L48 22ZM52 24L54 24L54 22L52 22ZM60 24L62 24L62 22L60 22ZM78 24L82 24L82 22L78 22ZM84 24L88 24L88 22L84 22ZM100 24L102 24L102 20L110 20L110 18L108 18L108 12L124 12L124 6L118 6L118 8L116 8L116 6L114 6L114 10L110 10L110 8L108 8L108 6L106 6L106 8L104 8L104 12L106 12L106 14L104 14L104 18L100 18ZM120 24L124 24L124 22L122 22L122 20L120 20ZM22 22L24 22L24 20L22 20ZM50 22L52 22L52 20L50 20ZM62 22L68 22L68 20L66 20L66 18L64 18L64 20L62 20ZM6 20L20 20L20 6L6 6ZM52 20L56 20L56 18L52 18ZM58 20L60 20L60 18L58 18ZM72 20L80 20L80 18L78 18L78 16L82 16L82 20L86 20L86 18L84 18L84 16L86 16L86 14L84 14L84 12L86 12L86 14L88 14L88 12L92 12L92 10L90 10L90 8L88 8L88 6L82 6L82 14L78 14L78 12L80 12L80 10L74 10L74 8L72 8L72 10L68 10L68 6L66 6L66 8L64 8L64 6L62 6L62 10L60 10L60 12L54 12L54 14L52 14L52 16L56 16L56 14L58 14L58 16L60 16L60 14L62 14L62 12L64 12L64 10L66 10L66 12L72 12L72 14L74 14L74 12L76 12L76 18L72 18ZM114 20L116 20L116 18L118 18L118 14L116 14L116 16L114 16ZM122 20L124 20L124 18L122 18ZM8 18L8 8L18 8L18 18ZM68 18L72 18L72 16L70 16L70 14L66 14L66 16L68 16ZM94 18L96 18L96 16L94 16ZM98 18L100 18L100 16L98 16ZM120 18L122 18L122 16L120 16ZM10 16L16 16L16 10L10 10ZM40 16L42 16L42 14L40 14ZM44 16L46 16L46 14L44 14ZM62 16L64 16L64 14L62 14ZM96 16L98 16L98 14L100 14L100 12L102 12L102 10L98 10L98 12L96 12ZM122 16L124 16L124 14L122 14ZM102 14L104 14L104 12L102 12ZM50 12L54 12L54 10L50 10ZM44 10L44 8L46 8L46 10ZM54 10L60 10L60 6L58 6L58 8L56 8L56 6L54 6ZM84 10L84 8L86 8L86 10ZM92 10L96 10L96 6L94 6L94 8L92 8ZM120 10L120 8L122 8L122 10ZM22 8L24 8L24 6L22 6ZM34 8L36 8L36 6L34 6ZM50 8L52 8L52 6L50 6ZM70 8L72 8L72 6L70 6ZM74 8L76 8L76 6L74 6ZM78 8L80 8L80 6L78 6ZM90 8L92 8L92 6L90 6ZM98 8L100 8L100 6L98 6ZM102 8L104 8L104 6L102 6ZM110 8L112 8L112 6L110 6Z" fill="#000000" fill-rule="evenodd" />
</svg>
