<svg viewBox="0 0 87 87" xmlns="http://www.w3.org/2000/svg">
<rect width="100%" height="100%" fill="#FFFFFF" />
<path d="M0 0L0 87L87 87L87 0ZM2 2L85 2L85 85L2 85Z" fill="#ffffff" fill-rule="evenodd" />
<path d="M10 76L24 76L24 62L10 62ZM26 76L34 76L34 72L30 72L30 68L28 68L28 66L30 66L30 64L26 64L26 72L28 72L28 74L26 74ZM36 76L42 76L42 74L44 74L44 68L42 68L42 70L40 70L40 72L38 72L38 74L36 74ZM44 76L46 76L46 74L44 74ZM50 76L52 76L52 74L54 74L54 68L48 68L48 70L52 70L52 72L50 72ZM62 76L64 76L64 74L66 74L66 72L64 72L64 70L62 70L62 72L60 72L60 74L62 74ZM70 76L74 76L74 74L72 74L72 68L70 68L70 72L68 72L68 74L70 74ZM12 74L12 64L22 64L22 74ZM56 74L58 74L58 72L60 72L60 70L62 70L62 68L64 68L64 70L68 70L68 68L70 68L70 66L68 66L68 64L70 64L70 66L72 66L72 68L74 68L74 64L72 64L72 62L76 62L76 60L72 60L72 58L76 58L76 56L74 56L74 54L72 54L72 56L70 56L70 58L66 58L66 54L64 54L64 56L62 56L62 54L56 54L56 60L52 60L52 62L54 62L54 64L46 64L46 66L44 66L44 68L48 68L48 66L54 66L54 68L56 68L56 64L58 64L58 68L56 68ZM14 72L20 72L20 66L14 66ZM34 72L36 72L36 68L32 68L32 70L34 70ZM46 72L48 72L48 70L46 70ZM74 70L76 70L76 68L74 68ZM38 68L42 68L42 64L46 64L46 62L44 62L44 60L42 60L42 62L36 62L36 60L34 60L34 64L32 64L32 66L38 66ZM60 66L60 60L66 60L66 66ZM62 64L64 64L64 62L62 62ZM26 62L30 62L30 60L26 60ZM46 62L50 62L50 60L46 60ZM68 62L68 60L70 60L70 62ZM10 60L12 60L12 54L14 54L14 52L10 52ZM16 60L26 60L26 58L22 58L22 56L20 56L20 50L16 50L16 48L14 48L14 46L10 46L10 50L14 50L14 52L18 52L18 54L16 54L16 56L18 56L18 58L16 58ZM32 60L34 60L34 58L32 58ZM36 60L38 60L38 58L40 58L40 56L38 56L38 54L36 54ZM40 60L42 60L42 58L40 58ZM44 60L46 60L46 58L44 58ZM50 60L52 60L52 58L50 58ZM14 58L16 58L16 56L14 56ZM26 58L28 58L28 56L26 56ZM46 58L50 58L50 56L46 56ZM52 58L54 58L54 56L52 56ZM22 56L24 56L24 54L22 54ZM28 56L30 56L30 54L28 54ZM32 56L34 56L34 54L36 54L36 52L34 52L34 46L36 46L36 44L34 44L34 40L32 40L32 42L30 42L30 54L32 54ZM40 56L46 56L46 54L42 54L42 50L40 50L40 48L38 48L38 46L36 46L36 52L38 52L38 54L40 54ZM50 56L52 56L52 54L50 54ZM48 54L50 54L50 52L48 52ZM52 54L56 54L56 52L52 52ZM62 54L64 54L64 50L60 50L60 52L62 52ZM68 54L72 54L72 52L70 52L70 50L68 50ZM74 54L76 54L76 50L74 50ZM22 52L28 52L28 50L26 50L26 46L28 46L28 44L26 44L26 42L30 42L30 38L28 38L28 40L24 40L24 42L22 42L22 40L20 40L20 44L24 44L24 46L22 46L22 48L24 48L24 50L22 50ZM44 52L48 52L48 48L46 48L46 50L44 50ZM50 52L52 52L52 50L50 50ZM20 50L22 50L22 48L20 48ZM42 50L44 50L44 48L42 48ZM52 50L56 50L56 48L52 48ZM58 50L60 50L60 48L68 48L68 46L64 46L64 44L58 44L58 42L56 42L56 44L50 44L50 42L48 42L48 40L46 40L46 42L44 42L44 40L42 40L42 44L48 44L48 46L58 46ZM70 50L72 50L72 46L76 46L76 44L68 44L68 46L70 46ZM40 48L42 48L42 46L40 46ZM44 48L46 48L46 46L44 46ZM14 46L18 46L18 42L16 42L16 44L14 44ZM10 44L14 44L14 40L12 40L12 42L10 42ZM36 44L38 44L38 42L36 42ZM64 44L68 44L68 42L64 42ZM38 42L40 42L40 40L38 40ZM52 42L56 42L56 36L46 36L46 38L50 38L50 40L52 40ZM60 42L62 42L62 40L60 40ZM68 42L72 42L72 40L68 40ZM74 42L76 42L76 40L74 40ZM10 40L12 40L12 38L10 38ZM14 40L20 40L20 38L14 38ZM22 40L24 40L24 38L22 38ZM34 40L38 40L38 38L34 38ZM44 40L46 40L46 38L44 38ZM58 40L60 40L60 38L58 38ZM64 40L66 40L66 36L64 36ZM72 40L74 40L74 38L72 38ZM24 38L28 38L28 32L32 32L32 30L34 30L34 28L38 28L38 26L34 26L34 24L32 24L32 20L34 20L34 24L36 24L36 16L34 16L34 18L30 18L30 26L32 26L32 28L30 28L30 30L26 30L26 28L24 28L24 30L22 30L22 32L26 32L26 36L24 36ZM32 38L34 38L34 36L32 36ZM38 38L44 38L44 36L38 36ZM70 38L72 38L72 36L70 36ZM74 38L76 38L76 36L74 36ZM10 36L18 36L18 32L16 32L16 34L10 34ZM20 36L24 36L24 34L20 34ZM30 36L32 36L32 34L30 34ZM44 36L46 36L46 34L44 34ZM58 36L60 36L60 34L58 34ZM66 36L68 36L68 34L66 34ZM32 34L34 34L34 32L32 32ZM38 34L42 34L42 32L46 32L46 34L48 34L48 30L40 30L40 32L38 32ZM50 34L54 34L54 32L50 32ZM56 34L58 34L58 32L56 32ZM60 34L64 34L64 32L66 32L66 30L64 30L64 28L68 28L68 30L76 30L76 28L72 28L72 26L62 26L62 32L60 32ZM68 34L76 34L76 32L68 32ZM10 32L12 32L12 30L10 30ZM14 32L16 32L16 28L24 28L24 26L14 26ZM34 32L36 32L36 30L34 30ZM54 32L56 32L56 30L54 30ZM38 30L40 30L40 28L38 28ZM48 30L50 30L50 28L48 28ZM52 30L54 30L54 28L52 28ZM56 30L58 30L58 28L56 28ZM10 28L12 28L12 26L10 26ZM40 28L48 28L48 22L46 22L46 26L42 26L42 24L40 24ZM50 28L52 28L52 26L50 26ZM54 28L56 28L56 26L54 26ZM58 28L60 28L60 26L58 26ZM26 26L28 26L28 16L30 16L30 12L32 12L32 16L34 16L34 14L36 14L36 16L38 16L38 14L42 14L42 16L38 16L38 18L40 18L40 20L38 20L38 24L40 24L40 22L42 22L42 24L44 24L44 22L46 22L46 20L42 20L42 18L46 18L46 16L44 16L44 14L48 14L48 12L44 12L44 10L42 10L42 12L38 12L38 10L28 10L28 14L26 14ZM52 26L54 26L54 24L52 24ZM10 24L24 24L24 10L10 10ZM50 24L52 24L52 20L54 20L54 18L46 18L46 20L50 20ZM54 24L56 24L56 20L54 20ZM58 24L60 24L60 16L58 16ZM62 24L76 24L76 10L62 10ZM12 22L12 12L22 12L22 22ZM64 22L64 12L74 12L74 22ZM14 20L20 20L20 14L14 14ZM66 20L72 20L72 14L66 14ZM54 18L56 18L56 12L50 12L50 14L52 14L52 16L54 16ZM48 16L50 16L50 14L48 14ZM58 14L60 14L60 12L58 12ZM48 12L50 12L50 10L48 10ZM56 12L58 12L58 10L56 10Z" fill="#000000" fill-rule="evenodd" />
</svg>
