<svg viewBox="0 0 95 95" xmlns="http://www.w3.org/2000/svg">
<rect width="100%" height="100%" fill="#FFFFFF" />
<path d="M0 0L0 95L95 95L95 0ZM2 2L93 2L93 93L2 93Z" fill="#ffffff" fill-rule="evenodd" />
<path d="M10 84L24 84L24 70L10 70ZM26 84L28 84L28 82L26 82ZM34 84L40 84L40 82L36 82L36 80L34 80ZM44 84L46 84L46 80L48 80L48 78L44 78L44 76L42 76L42 74L44 74L44 76L46 76L46 74L48 74L48 76L56 76L56 74L54 74L54 72L48 72L48 70L44 70L44 72L42 72L42 70L44 70L44 68L46 68L46 64L42 64L42 62L36 62L36 60L34 60L34 58L38 58L38 60L40 60L40 58L44 58L44 62L46 62L46 64L48 64L48 60L46 60L46 54L44 54L44 56L42 56L42 54L44 54L44 52L46 52L46 50L48 50L48 52L56 52L56 50L58 50L58 44L60 44L60 40L58 40L58 42L56 42L56 46L50 46L50 48L52 48L52 50L50 50L50 48L46 48L46 46L44 46L44 44L42 44L42 48L44 48L44 50L40 50L40 52L36 52L36 54L34 54L34 56L32 56L32 60L30 60L30 62L34 62L34 64L38 64L38 66L36 66L36 68L34 68L34 72L36 72L36 74L32 74L32 76L36 76L36 80L42 80L42 82L44 82ZM48 84L56 84L56 82L54 82L54 78L50 78L50 80L52 80L52 82L48 82ZM58 84L60 84L60 82L58 82ZM62 84L66 84L66 80L64 80L64 76L60 76L60 78L62 78ZM78 84L84 84L84 82L82 82L82 80L78 80ZM12 82L12 72L22 72L22 82ZM30 82L32 82L32 80L34 80L34 78L32 78L32 76L30 76L30 78L28 78L28 80L30 80ZM56 82L58 82L58 80L60 80L60 78L58 78L58 76L56 76ZM68 82L70 82L70 80L72 80L72 82L76 82L76 80L74 80L74 78L72 78L72 76L76 76L76 72L78 72L78 76L80 76L80 78L84 78L84 74L80 74L80 72L82 72L82 70L80 70L80 66L82 66L82 68L84 68L84 64L80 64L80 62L78 62L78 66L74 66L74 64L72 64L72 66L66 66L66 72L62 72L62 74L66 74L66 76L68 76L68 78L66 78L66 80L68 80ZM14 80L20 80L20 74L14 74ZM76 80L78 80L78 78L76 78ZM26 76L30 76L30 74L26 74ZM58 76L60 76L60 74L58 74ZM38 74L38 68L40 68L40 74ZM56 74L58 74L58 68L60 68L60 64L58 64L58 62L60 62L60 64L62 64L62 66L66 66L66 62L70 62L70 60L72 60L72 62L78 62L78 60L74 60L74 56L78 56L78 60L80 60L80 58L82 58L82 56L80 56L80 48L78 48L78 50L76 50L76 52L74 52L74 50L70 50L70 48L72 48L72 46L66 46L66 44L60 44L60 46L64 46L64 48L62 48L62 50L66 50L66 48L68 48L68 52L72 52L72 56L70 56L70 58L68 58L68 56L70 56L70 54L68 54L68 52L62 52L62 54L64 54L64 56L62 56L62 58L66 58L66 60L60 60L60 54L58 54L58 52L56 52L56 54L50 54L50 58L48 58L48 60L56 60L56 58L58 58L58 60L56 60L56 64L54 64L54 62L52 62L52 64L48 64L48 66L50 66L50 68L56 68L56 70L54 70L54 72L56 72ZM68 74L68 68L74 68L74 74ZM26 72L28 72L28 70L32 70L32 68L26 68ZM60 72L62 72L62 70L64 70L64 68L60 68ZM70 72L72 72L72 70L70 70ZM10 68L18 68L18 62L20 62L20 60L14 60L14 56L12 56L12 58L10 58L10 62L14 62L14 64L16 64L16 66L10 66ZM22 68L26 68L26 64L30 64L30 62L28 62L28 60L26 60L26 62L20 62L20 64L24 64L24 66L22 66ZM32 68L34 68L34 64L30 64L30 66L32 66ZM40 68L40 66L42 66L42 68ZM80 62L82 62L82 60L80 60ZM22 60L26 60L26 58L22 58ZM82 60L84 60L84 58L82 58ZM18 58L20 58L20 56L18 56ZM28 58L30 58L30 56L32 56L32 54L30 54L30 52L28 52ZM10 56L12 56L12 54L10 54ZM16 56L18 56L18 54L16 54ZM22 56L24 56L24 54L22 54ZM14 54L16 54L16 52L18 52L18 50L14 50ZM24 54L26 54L26 52L24 52ZM46 54L48 54L48 52L46 52ZM20 52L24 52L24 50L22 50L22 48L20 48ZM58 52L60 52L60 50L58 50ZM82 52L84 52L84 48L82 48ZM10 50L12 50L12 46L10 46ZM26 50L30 50L30 48L28 48L28 46L22 46L22 48L26 48ZM32 48L38 48L38 46L34 46L34 44L32 44ZM18 46L20 46L20 44L26 44L26 40L24 40L24 42L18 42L18 40L12 40L12 38L10 38L10 44L12 44L12 42L14 42L14 44L18 44ZM38 46L40 46L40 42L42 42L42 38L46 38L46 40L44 40L44 44L46 44L46 42L50 42L50 44L54 44L54 42L56 42L56 40L54 40L54 38L52 38L52 40L48 40L48 36L46 36L46 30L44 30L44 32L42 32L42 30L40 30L40 34L44 34L44 36L40 36L40 40L38 40L38 42L36 42L36 44L38 44ZM74 46L76 46L76 44L74 44ZM80 46L82 46L82 44L80 44ZM30 44L32 44L32 40L30 40ZM68 44L72 44L72 42L68 42ZM78 44L80 44L80 38L78 38ZM82 44L84 44L84 42L82 42ZM34 42L36 42L36 38L34 38L34 36L32 36L32 40L34 40ZM66 42L68 42L68 40L66 40ZM18 40L24 40L24 38L18 38ZM26 40L28 40L28 36L24 36L24 38L26 38ZM56 40L58 40L58 36L56 36ZM64 40L66 40L66 38L68 38L68 36L60 36L60 38L64 38ZM12 38L14 38L14 36L12 36ZM36 38L38 38L38 36L36 36ZM74 38L76 38L76 36L74 36ZM14 36L24 36L24 34L22 34L22 32L16 32L16 34L14 34ZM34 36L36 36L36 30L32 30L32 32L34 32ZM48 36L50 36L50 34L48 34ZM52 36L54 36L54 32L58 32L58 34L60 34L60 32L62 32L62 28L60 28L60 30L58 30L58 28L56 28L56 30L54 30L54 28L56 28L56 26L58 26L58 28L60 28L60 22L62 22L62 26L66 26L66 28L64 28L64 34L68 34L68 32L70 32L70 30L68 30L68 28L74 28L74 30L72 30L72 32L78 32L78 30L76 30L76 28L78 28L78 26L68 26L68 16L66 16L66 14L64 14L64 16L60 16L60 14L58 14L58 18L62 18L62 20L58 20L58 24L56 24L56 20L58 20L58 18L52 18L52 20L54 20L54 24L52 24L52 26L50 26L50 24L48 24L48 28L52 28L52 30L50 30L50 34L52 34ZM68 36L72 36L72 32L70 32L70 34L68 34ZM76 36L84 36L84 32L82 32L82 34L80 34L80 32L78 32L78 34L76 34ZM24 34L26 34L26 32L28 32L28 30L22 30L22 32L24 32ZM10 32L12 32L12 26L10 26ZM14 32L16 32L16 30L14 30ZM20 30L22 30L22 28L20 28ZM30 30L32 30L32 28L30 28ZM36 30L40 30L40 26L38 26L38 28L36 28ZM46 30L48 30L48 28L46 28ZM18 28L20 28L20 26L18 26ZM22 28L30 28L30 24L28 24L28 22L30 22L30 24L32 24L32 20L34 20L34 24L36 24L36 22L38 22L38 24L40 24L40 20L36 20L36 16L38 16L38 14L34 14L34 16L30 16L30 20L28 20L28 16L26 16L26 26L22 26ZM34 28L36 28L36 26L34 26ZM42 28L46 28L46 24L44 24L44 26L42 26ZM82 28L84 28L84 26L82 26ZM32 26L34 26L34 24L32 24ZM36 26L38 26L38 24L36 24ZM40 26L42 26L42 24L40 24ZM10 24L24 24L24 10L10 10ZM42 24L44 24L44 22L42 22ZM46 24L48 24L48 22L50 22L50 20L48 20L48 18L46 18ZM50 24L52 24L52 22L50 22ZM64 24L64 20L66 20L66 24ZM70 24L84 24L84 10L70 10ZM12 22L12 12L22 12L22 22ZM72 22L72 12L82 12L82 22ZM14 20L20 20L20 14L14 14ZM40 20L44 20L44 18L40 18ZM74 20L80 20L80 14L74 14ZM48 18L50 18L50 16L48 16ZM42 16L48 16L48 14L42 14ZM50 16L56 16L56 14L54 14L54 12L52 12L52 10L50 10L50 12L48 12L48 14L50 14ZM28 14L30 14L30 12L28 12ZM62 14L64 14L64 12L62 12ZM26 12L28 12L28 10L26 10ZM30 12L32 12L32 10L30 10ZM34 12L36 12L36 10L34 10ZM46 12L48 12L48 10L46 10ZM56 12L58 12L58 10L56 10ZM60 12L62 12L62 10L60 10ZM64 12L68 12L68 10L64 10Z" fill="#000000" fill-rule="evenodd" />
</svg>
