<svg viewBox="0 0 87 87" xmlns="http://www.w3.org/2000/svg">
<rect width="100%" height="100%" fill="#FFFFFF" />
<path d="M0 0L0 87L87 87L87 0ZM2 2L85 2L85 85L2 85Z" fill="#ffffff" fill-rule="evenodd" />
<path d="M10 76L24 76L24 62L10 62ZM26 76L28 76L28 74L26 74ZM34 76L38 76L38 74L40 74L40 70L38 70L38 72L36 72L36 68L40 68L40 66L42 66L42 64L44 64L44 66L46 66L46 68L48 68L48 70L50 70L50 68L52 68L52 66L48 66L48 64L46 64L46 62L44 62L44 60L46 60L46 54L50 54L50 50L48 50L48 52L44 52L44 56L42 56L42 54L40 54L40 52L38 52L38 56L40 56L40 58L42 58L42 60L40 60L40 58L38 58L38 56L36 56L36 52L38 52L38 42L40 42L40 38L38 38L38 36L42 36L42 34L46 34L46 36L48 36L48 38L50 38L50 36L52 36L52 34L50 34L50 32L46 32L46 30L44 30L44 32L42 32L42 30L40 30L40 32L38 32L38 34L36 34L36 36L32 36L32 38L34 38L34 40L36 40L36 42L32 42L32 44L36 44L36 50L32 50L32 52L34 52L34 54L32 54L32 52L26 52L26 54L30 54L30 58L34 58L34 60L38 60L38 62L34 62L34 60L30 60L30 64L34 64L34 66L32 66L32 68L34 68ZM40 76L44 76L44 74L40 74ZM48 76L52 76L52 74L50 74L50 72L48 72ZM54 76L62 76L62 74L60 74L60 70L58 70L58 68L56 68L56 74L54 74ZM66 76L68 76L68 72L70 72L70 70L72 70L72 68L68 68L68 64L74 64L74 60L70 60L70 58L62 58L62 56L60 56L60 54L54 54L54 56L56 56L56 58L54 58L54 62L56 62L56 60L58 60L58 68L62 68L62 70L64 70L64 68L66 68L66 72L62 72L62 74L66 74ZM74 76L76 76L76 74L74 74ZM12 74L12 64L22 64L22 74ZM28 74L32 74L32 72L30 72L30 70L32 70L32 68L28 68ZM44 74L46 74L46 72L48 72L48 70L44 70L44 68L42 68L42 72L44 72ZM52 74L54 74L54 72L52 72ZM14 72L20 72L20 66L14 66ZM26 68L28 68L28 66L26 66ZM54 68L56 68L56 66L54 66ZM74 68L76 68L76 66L74 66ZM28 66L30 66L30 64L28 64ZM36 66L36 64L38 64L38 66ZM52 66L54 66L54 62L50 62L50 64L52 64ZM60 66L60 60L66 60L66 66ZM26 64L28 64L28 56L26 56L26 58L22 58L22 60L26 60ZM62 64L64 64L64 62L62 62ZM46 62L48 62L48 60L46 60ZM10 60L14 60L14 58L10 58ZM16 60L18 60L18 58L22 58L22 56L24 56L24 54L20 54L20 56L16 56ZM48 60L50 60L50 58L54 58L54 56L52 56L52 54L50 54L50 56L48 56ZM74 60L76 60L76 58L74 58ZM66 56L74 56L74 54L72 54L72 52L74 52L74 54L76 54L76 50L74 50L74 46L72 46L72 44L70 44L70 48L72 48L72 50L64 50L64 48L62 48L62 52L70 52L70 54L66 54ZM10 54L12 54L12 52L10 52ZM16 54L20 54L20 52L16 52ZM52 54L54 54L54 52L56 52L56 48L58 48L58 44L56 44L56 46L54 46L54 44L52 44ZM60 54L62 54L62 52L60 52ZM12 52L16 52L16 48L18 48L18 46L16 46L16 44L20 44L20 40L18 40L18 42L16 42L16 38L14 38L14 40L12 40L12 42L14 42L14 44L12 44L12 48L10 48L10 50L12 50ZM22 52L26 52L26 50L22 50ZM40 52L44 52L44 48L42 48L42 46L46 46L46 44L44 44L44 42L40 42ZM58 52L60 52L60 48L58 48ZM18 50L22 50L22 48L18 48ZM26 50L30 50L30 48L28 48L28 46L26 46ZM22 48L24 48L24 46L22 46ZM30 48L32 48L32 44L30 44ZM46 48L48 48L48 46L46 46ZM60 48L62 48L62 46L60 46ZM64 48L66 48L66 44L64 44ZM74 46L76 46L76 42L74 42L74 38L72 38L72 44L74 44ZM10 44L12 44L12 42L10 42ZM22 44L30 44L30 42L32 42L32 38L30 38L30 40L28 40L28 38L30 38L30 34L28 34L28 32L30 32L30 34L32 34L32 30L26 30L26 28L28 28L28 26L30 26L30 24L28 24L28 22L30 22L30 20L32 20L32 18L28 18L28 16L26 16L26 26L22 26L22 28L24 28L24 30L22 30L22 28L20 28L20 30L18 30L18 28L12 28L12 26L10 26L10 40L12 40L12 38L14 38L14 36L16 36L16 32L18 32L18 38L20 38L20 40L24 40L24 38L22 38L22 36L20 36L20 32L26 32L26 34L22 34L22 36L24 36L24 38L26 38L26 42L22 42ZM48 44L50 44L50 40L48 40ZM54 44L56 44L56 40L52 40L52 42L54 42ZM60 44L64 44L64 40L62 40L62 42L60 42ZM66 44L70 44L70 42L68 42L68 40L66 40ZM44 42L46 42L46 40L44 40ZM58 42L60 42L60 40L62 40L62 36L60 36L60 38L56 38L56 40L58 40ZM42 40L44 40L44 36L42 36ZM46 40L48 40L48 38L46 38ZM50 40L52 40L52 38L50 38ZM54 38L56 38L56 34L58 34L58 36L60 36L60 32L58 32L58 28L54 28L54 30L56 30L56 32L54 32L54 30L52 30L52 28L50 28L50 32L52 32L52 34L54 34ZM64 38L66 38L66 36L64 36ZM68 38L70 38L70 32L72 32L72 36L74 36L74 28L70 28L70 26L58 26L58 28L60 28L60 30L62 30L62 32L64 32L64 30L66 30L66 28L68 28L68 30L66 30L66 32L64 32L64 34L68 34ZM74 38L76 38L76 36L74 36ZM62 36L64 36L64 34L62 34ZM12 34L12 30L14 30L14 34ZM32 30L34 30L34 28L32 28ZM36 30L40 30L40 28L36 28ZM42 30L44 30L44 28L42 28ZM18 28L20 28L20 26L18 26ZM30 28L32 28L32 26L30 26ZM44 28L50 28L50 26L52 26L52 28L54 28L54 24L52 24L52 22L50 22L50 24L48 24L48 26L46 26L46 24L44 24L44 20L42 20L42 24L40 24L40 26L44 26ZM74 28L76 28L76 26L74 26ZM32 26L34 26L34 24L32 24ZM10 24L24 24L24 10L10 10ZM30 24L32 24L32 22L30 22ZM34 24L36 24L36 22L34 22ZM38 24L40 24L40 18L42 18L42 14L40 14L40 16L38 16ZM46 24L48 24L48 22L50 22L50 20L52 20L52 18L50 18L50 16L44 16L44 20L46 20ZM54 24L56 24L56 22L54 22ZM58 24L60 24L60 22L58 22ZM62 24L76 24L76 10L62 10ZM12 22L12 12L22 12L22 22ZM52 22L54 22L54 20L52 20ZM64 22L64 12L74 12L74 22ZM14 20L20 20L20 14L14 14ZM54 20L58 20L58 16L60 16L60 14L54 14L54 12L50 12L50 10L48 10L48 14L52 14L52 16L54 16ZM66 20L72 20L72 14L66 14ZM32 18L34 18L34 14L36 14L36 10L34 10L34 12L28 12L28 16L30 16L30 14L32 14ZM36 16L38 16L38 14L36 14ZM42 14L46 14L46 10L40 10L40 12L42 12ZM26 12L28 12L28 10L26 10Z" fill="#000000" fill-rule="evenodd" />
</svg>
