<svg viewBox="0 0 79 79" xmlns="http://www.w3.org/2000/svg">
<rect width="100%" height="100%" fill="#FFFFFF" />
<path d="M0 0L0 79L79 79L79 0ZM2 2L77 2L77 77L2 77Z" fill="#ffffff" fill-rule="evenodd" />
<path d="M10 68L24 68L24 54L10 54ZM26 68L30 68L30 66L26 66ZM32 68L38 68L38 66L36 66L36 64L34 64L34 66L32 66ZM46 68L52 68L52 66L56 66L56 64L54 64L54 62L52 62L52 64L50 64L50 62L48 62L48 66L46 66ZM56 68L66 68L66 64L64 64L64 66L62 66L62 64L64 64L64 62L60 62L60 64L58 64L58 66L56 66ZM12 66L12 56L22 56L22 66ZM38 66L40 66L40 62L38 62ZM42 66L44 66L44 64L42 64ZM14 64L20 64L20 58L14 58ZM26 64L28 64L28 60L26 60ZM30 64L32 64L32 62L30 62ZM66 64L68 64L68 60L66 60ZM36 62L38 62L38 60L36 60ZM42 62L48 62L48 60L46 60L46 58L44 58L44 60L42 60ZM58 62L60 62L60 56L66 56L66 52L68 52L68 50L64 50L64 52L62 52L62 50L64 50L64 48L60 48L60 50L46 50L46 52L48 52L48 54L46 54L46 58L48 58L48 56L50 56L50 60L58 60ZM34 60L36 60L36 58L40 58L40 60L42 60L42 58L44 58L44 56L40 56L40 54L38 54L38 56L36 56L36 54L34 54L34 52L40 52L40 50L42 50L42 44L40 44L40 40L38 40L38 46L36 46L36 48L34 48L34 46L22 46L22 44L20 44L20 42L18 42L18 40L16 40L16 38L10 38L10 40L14 40L14 44L12 44L12 46L14 46L14 48L16 48L16 50L12 50L12 52L18 52L18 50L20 50L20 48L18 48L18 46L16 46L16 44L18 44L18 46L20 46L20 48L24 48L24 50L20 50L20 52L26 52L26 48L30 48L30 52L32 52L32 54L30 54L30 56L34 56ZM64 60L66 60L66 58L64 58ZM26 58L30 58L30 56L28 56L28 54L30 54L30 52L26 52ZM52 58L52 52L58 52L58 58ZM54 56L56 56L56 54L54 54ZM42 54L44 54L44 50L42 50ZM44 50L46 50L46 48L44 48ZM10 48L12 48L12 46L10 46ZM46 48L48 48L48 46L46 46ZM50 48L60 48L60 46L58 46L58 42L56 42L56 44L54 44L54 42L50 42L50 44L48 44L48 46L50 46ZM44 46L46 46L46 44L44 44ZM60 46L64 46L64 44L66 44L66 42L62 42L62 44L60 44ZM66 46L68 46L68 44L66 44ZM22 44L24 44L24 42L22 42ZM32 44L36 44L36 40L38 40L38 38L34 38L34 36L32 36L32 38L26 38L26 42L28 42L28 40L34 40L34 42L32 42ZM42 44L44 44L44 42L42 42ZM46 44L48 44L48 42L46 42ZM20 42L22 42L22 40L24 40L24 38L20 38ZM48 42L50 42L50 38L48 38L48 36L50 36L50 34L48 34L48 32L46 32L46 34L44 34L44 36L42 36L42 34L44 34L44 30L42 30L42 32L40 32L40 34L38 34L38 38L46 38L46 40L48 40ZM60 42L62 42L62 40L60 40ZM66 42L68 42L68 36L64 36L64 34L60 34L60 36L62 36L62 40L66 40ZM52 40L60 40L60 38L56 38L56 36L52 36ZM16 38L18 38L18 34L14 34L14 36L16 36ZM24 38L26 38L26 36L24 36ZM20 36L24 36L24 34L20 34ZM30 36L32 36L32 34L30 34ZM10 34L14 34L14 32L10 32ZM28 34L30 34L30 32L28 32ZM32 34L34 34L34 32L38 32L38 30L42 30L42 28L46 28L46 30L50 30L50 28L52 28L52 26L50 26L50 24L48 24L48 22L50 22L50 18L48 18L48 20L46 20L46 18L42 18L42 20L40 20L40 22L42 22L42 24L40 24L40 28L38 28L38 26L36 26L36 30L30 30L30 32L32 32ZM54 34L58 34L58 32L56 32L56 30L54 30L54 28L52 28L52 32L54 32ZM64 34L68 34L68 32L66 32L66 30L68 30L68 26L64 26L64 30L62 30L62 32L64 32ZM20 32L28 32L28 28L26 28L26 26L20 26L20 28L18 28L18 26L14 26L14 28L16 28L16 30L20 30ZM10 30L14 30L14 28L12 28L12 26L10 26ZM22 30L22 28L24 28L24 30ZM56 30L62 30L62 26L60 26L60 28L56 28ZM32 28L34 28L34 26L32 26ZM54 28L56 28L56 26L54 26ZM26 26L30 26L30 24L28 24L28 22L26 22ZM34 26L36 26L36 22L34 22ZM10 24L24 24L24 10L10 10ZM30 24L32 24L32 20L30 20L30 18L28 18L28 22L30 22ZM38 24L40 24L40 22L38 22ZM44 24L44 22L46 22L46 24ZM50 24L52 24L52 22L50 22ZM54 24L68 24L68 10L54 10ZM12 22L12 12L22 12L22 22ZM36 22L38 22L38 20L36 20ZM56 22L56 12L66 12L66 22ZM14 20L20 20L20 14L14 14ZM32 20L36 20L36 16L34 16L34 18L32 18ZM38 20L40 20L40 18L42 18L42 16L38 16ZM58 20L64 20L64 14L58 14ZM26 18L28 18L28 16L26 16ZM50 18L52 18L52 16L50 16ZM30 16L32 16L32 14L30 14ZM42 16L44 16L44 12L42 12ZM26 14L28 14L28 10L26 10ZM34 14L38 14L38 12L42 12L42 10L34 10ZM30 12L32 12L32 10L30 10ZM44 12L52 12L52 10L44 10Z" fill="#000000" fill-rule="evenodd" />
</svg>
