<svg viewBox="0 0 131 43" xmlns="http://www.w3.org/2000/svg">
<rect width="100%" height="100%" fill="#FFFFFF" />
<path d="M0 0L0 43L131 43L131 0ZM2 2L129 2L129 41L2 41Z" fill="#ffffff" fill-rule="evenodd" />
<path d="M6 36L12 36L12 32L16 32L16 34L18 34L18 36L20 36L20 32L18 32L18 30L14 30L14 28L10 28L10 30L6 30ZM14 36L16 36L16 34L14 34ZM22 36L24 36L24 32L22 32ZM26 36L28 36L28 34L30 34L30 36L32 36L32 32L30 32L30 30L32 30L32 28L30 28L30 26L26 26L26 28L24 28L24 26L22 26L22 22L20 22L20 28L22 28L22 30L28 30L28 32L26 32ZM34 36L36 36L36 34L38 34L38 36L40 36L40 34L42 34L42 36L48 36L48 32L52 32L52 34L54 34L54 32L56 32L56 30L58 30L58 32L60 32L60 30L62 30L62 28L64 28L64 26L66 26L66 28L70 28L70 26L68 26L68 24L62 24L62 26L60 26L60 28L54 28L54 30L50 30L50 26L48 26L48 22L44 22L44 24L46 24L46 26L44 26L44 28L46 28L46 30L36 30L36 28L34 28L34 30L32 30L32 32L34 32ZM50 36L52 36L52 34L50 34ZM54 36L56 36L56 34L54 34ZM58 36L60 36L60 34L58 34ZM62 36L64 36L64 34L62 34ZM66 36L68 36L68 34L66 34ZM70 36L72 36L72 32L74 32L74 30L76 30L76 32L74 32L74 36L76 36L76 34L78 34L78 36L80 36L80 32L78 32L78 26L80 26L80 32L82 32L82 36L88 36L88 30L82 30L82 26L84 26L84 24L88 24L88 20L92 20L92 18L88 18L88 16L86 16L86 18L84 18L84 16L82 16L82 24L74 24L74 22L72 22L72 20L70 20L70 24L72 24L72 30L66 30L66 32L68 32L68 34L70 34ZM90 36L92 36L92 32L90 32ZM94 36L96 36L96 34L94 34ZM98 36L100 36L100 34L102 34L102 32L98 32ZM102 36L104 36L104 34L102 34ZM106 36L108 36L108 34L110 34L110 32L108 32L108 30L106 30L106 32L104 32L104 34L106 34ZM110 36L112 36L112 34L110 34ZM114 36L124 36L124 26L120 26L120 24L116 24L116 26L114 26L114 24L112 24L112 28L110 28L110 20L106 20L106 24L108 24L108 26L106 26L106 24L104 24L104 28L108 28L108 30L110 30L110 32L112 32L112 34L114 34ZM8 34L8 32L10 32L10 34ZM44 34L44 32L46 32L46 34ZM84 34L84 32L86 32L86 34ZM116 34L116 28L122 28L122 34ZM62 32L64 32L64 30L62 30ZM92 32L96 32L96 30L100 30L100 28L92 28ZM102 32L104 32L104 30L102 30ZM118 32L120 32L120 30L118 30ZM6 28L8 28L8 26L6 26ZM16 28L18 28L18 22L14 22L14 26L16 26ZM32 28L34 28L34 26L38 26L38 22L40 22L40 16L34 16L34 20L32 20L32 16L30 16L30 20L22 20L22 22L24 22L24 24L30 24L30 22L32 22ZM40 28L42 28L42 26L40 26ZM52 28L54 28L54 26L52 26ZM84 28L92 28L92 26L90 26L90 24L88 24L88 26L84 26ZM100 28L102 28L102 24L100 24ZM8 26L12 26L12 22L6 22L6 24L8 24ZM50 26L52 26L52 24L50 24ZM54 26L60 26L60 24L58 24L58 22L56 22L56 24L54 24ZM94 26L96 26L96 24L100 24L100 22L102 22L102 24L104 24L104 20L100 20L100 18L106 18L106 16L98 16L98 20L96 20L96 22L94 22L94 20L92 20L92 22L90 22L90 24L94 24ZM34 24L34 22L36 22L36 24ZM60 24L62 24L62 22L60 22ZM120 24L124 24L124 22L122 22L122 20L124 20L124 18L122 18L122 16L120 16ZM42 22L44 22L44 20L48 20L48 22L54 22L54 20L56 20L56 18L52 18L52 16L50 16L50 18L48 18L48 14L44 14L44 16L46 16L46 18L42 18ZM62 22L68 22L68 20L66 20L66 18L64 18L64 20L62 20ZM76 22L78 22L78 20L80 20L80 16L74 16L74 18L72 18L72 20L76 20ZM84 22L84 20L86 20L86 22ZM112 22L114 22L114 20L118 20L118 18L116 18L116 14L112 14L112 16L114 16L114 18L110 18L110 20L112 20ZM6 20L20 20L20 6L6 6ZM58 20L60 20L60 18L58 18ZM94 20L96 20L96 18L94 18ZM8 18L8 8L18 8L18 18ZM22 18L24 18L24 16L26 16L26 14L24 14L24 12L28 12L28 10L32 10L32 12L36 12L36 10L34 10L34 8L32 8L32 6L30 6L30 8L28 8L28 6L26 6L26 10L22 10ZM68 18L72 18L72 16L70 16L70 14L66 14L66 16L68 16ZM92 18L94 18L94 16L98 16L98 14L102 14L102 12L106 12L106 8L104 8L104 6L102 6L102 8L100 8L100 6L98 6L98 10L100 10L100 12L90 12L90 14L92 14ZM108 18L110 18L110 14L108 14ZM10 16L16 16L16 10L10 10ZM28 16L30 16L30 14L28 14ZM32 16L34 16L34 14L32 14ZM40 16L42 16L42 14L44 14L44 12L48 12L48 6L42 6L42 10L40 10ZM54 16L56 16L56 14L58 14L58 16L60 16L60 14L62 14L62 12L64 12L64 10L66 10L66 12L72 12L72 14L76 14L76 12L78 12L78 10L80 10L80 6L78 6L78 8L76 8L76 6L74 6L74 8L72 8L72 10L68 10L68 6L66 6L66 8L64 8L64 6L62 6L62 10L60 10L60 12L52 12L52 14L54 14ZM62 16L64 16L64 14L62 14ZM80 16L82 16L82 14L84 14L84 12L90 12L90 8L88 8L88 6L82 6L82 12L78 12L78 14L80 14ZM84 16L86 16L86 14L84 14ZM118 16L120 16L120 12L124 12L124 6L118 6L118 12L116 12L116 14L118 14ZM122 16L124 16L124 14L122 14ZM30 14L32 14L32 12L30 12ZM110 12L116 12L116 6L114 6L114 8L112 8L112 10L110 10ZM38 10L40 10L40 6L38 6ZM44 10L44 8L46 8L46 10ZM50 10L52 10L52 6L50 6ZM54 10L60 10L60 6L58 6L58 8L56 8L56 6L54 6ZM84 10L84 8L86 8L86 10ZM94 10L96 10L96 6L94 6ZM120 10L120 8L122 8L122 10ZM22 8L24 8L24 6L22 6ZM34 8L36 8L36 6L34 6ZM70 8L72 8L72 6L70 6ZM90 8L92 8L92 6L90 6ZM106 8L108 8L108 6L106 6ZM110 8L112 8L112 6L110 6Z" fill="#000000" fill-rule="evenodd" />
</svg>
