<svg viewBox="0 0 87 87" xmlns="http://www.w3.org/2000/svg">
<rect width="100%" height="100%" fill="#FFFFFF" />
<path d="M0 0L0 87L87 87L87 0ZM2 2L85 2L85 85L2 85Z" fill="#ffffff" fill-rule="evenodd" />
<path d="M10 76L24 76L24 62L10 62ZM26 76L28 76L28 74L26 74ZM32 76L34 76L34 74L32 74ZM36 76L42 76L42 74L38 74L38 72L36 72L36 70L38 70L38 66L36 66L36 68L34 68L34 74L36 74ZM54 76L56 76L56 74L54 74ZM60 76L62 76L62 72L60 72ZM66 76L68 76L68 74L66 74ZM12 74L12 64L22 64L22 74ZM30 74L32 74L32 66L28 66L28 68L30 68ZM46 74L48 74L48 72L46 72ZM52 74L54 74L54 70L56 70L56 68L50 68L50 66L48 66L48 72L50 72L50 70L52 70ZM56 74L58 74L58 72L56 72ZM74 74L76 74L76 72L74 72ZM14 72L20 72L20 66L14 66ZM26 72L28 72L28 68L26 68ZM38 72L40 72L40 70L38 70ZM42 72L44 72L44 70L46 70L46 68L42 68L42 64L38 64L38 66L40 66L40 70L42 70ZM64 72L66 72L66 70L68 70L68 60L72 60L72 62L76 62L76 60L74 60L74 56L72 56L72 58L66 58L66 54L68 54L68 56L72 56L72 54L70 54L70 52L68 52L68 48L64 48L64 54L60 54L60 56L64 56L64 58L60 58L60 56L58 56L58 58L56 58L56 60L58 60L58 70L62 70L62 68L64 68ZM70 72L72 72L72 70L74 70L74 66L72 66L72 68L70 68ZM26 66L28 66L28 64L32 64L32 66L34 66L34 64L38 64L38 58L36 58L36 56L40 56L40 54L42 54L42 52L44 52L44 48L42 48L42 50L40 50L40 52L34 52L34 50L32 50L32 54L34 54L34 60L36 60L36 62L34 62L34 60L32 60L32 58L30 58L30 62L28 62L28 60L26 60ZM44 66L46 66L46 64L44 64ZM50 66L56 66L56 64L52 64L52 62L50 62ZM60 66L60 60L66 60L66 66ZM70 66L72 66L72 64L70 64ZM42 64L44 64L44 60L42 60ZM46 64L48 64L48 62L46 62ZM62 64L64 64L64 62L62 62ZM52 62L56 62L56 60L54 60L54 58L50 58L50 54L48 54L48 56L46 56L46 60L52 60ZM10 60L12 60L12 58L10 58ZM14 60L18 60L18 56L20 56L20 54L16 54L16 58L14 58ZM22 60L26 60L26 58L22 58ZM12 58L14 58L14 56L12 56ZM26 58L28 58L28 56L32 56L32 54L30 54L30 52L28 52L28 54L26 54ZM42 58L44 58L44 56L42 56ZM22 56L24 56L24 54L22 54ZM44 56L46 56L46 52L44 52ZM74 56L76 56L76 48L74 48L74 50L70 50L70 52L72 52L72 54L74 54ZM10 54L12 54L12 52L10 52ZM14 54L16 54L16 52L20 52L20 48L18 48L18 50L14 50L14 46L12 46L12 52L14 52ZM24 54L26 54L26 52L24 52ZM22 52L24 52L24 50L22 50ZM26 52L28 52L28 50L30 50L30 48L28 48L28 44L32 44L32 42L36 42L36 44L38 44L38 40L32 40L32 38L30 38L30 42L28 42L28 40L24 40L24 42L26 42L26 46L22 46L22 48L24 48L24 50L26 50ZM54 52L60 52L60 50L58 50L58 46L56 46L56 50L54 50ZM34 50L40 50L40 46L36 46L36 48L34 48ZM50 50L54 50L54 44L52 44L52 48L50 48ZM16 48L18 48L18 46L20 46L20 42L22 42L22 40L24 40L24 38L20 38L20 40L16 40L16 42L14 42L14 40L16 40L16 36L14 36L14 38L10 38L10 42L12 42L12 44L14 44L14 46L16 46ZM30 48L34 48L34 46L30 46ZM46 48L50 48L50 44L52 44L52 42L54 42L54 38L56 38L56 40L58 40L58 42L66 42L66 44L60 44L60 48L64 48L64 46L68 46L68 48L70 48L70 40L68 40L68 38L66 38L66 40L64 40L64 38L66 38L66 34L64 34L64 36L62 36L62 38L58 38L58 34L60 34L60 32L58 32L58 30L54 30L54 34L56 34L56 36L54 36L54 34L52 34L52 30L50 30L50 32L48 32L48 34L46 34L46 36L52 36L52 38L50 38L50 42L48 42L48 44L46 44ZM72 48L74 48L74 46L72 46ZM10 46L12 46L12 44L10 44ZM34 46L36 46L36 44L34 44ZM42 46L44 46L44 44L46 44L46 42L44 42L44 36L42 36L42 38L40 38L40 40L42 40ZM22 44L24 44L24 42L22 42ZM72 44L76 44L76 42L74 42L74 36L70 36L70 38L72 38ZM46 40L48 40L48 38L46 38ZM24 38L26 38L26 36L24 36ZM34 38L36 38L36 34L38 34L38 32L36 32L36 30L34 30L34 34L32 34L32 28L34 28L34 26L32 26L32 22L30 22L30 24L28 24L28 22L26 22L26 26L30 26L30 28L28 28L28 32L26 32L26 30L22 30L22 32L24 32L24 34L28 34L28 36L34 36ZM38 38L40 38L40 36L38 36ZM20 36L24 36L24 34L22 34L22 32L20 32ZM60 36L62 36L62 34L60 34ZM68 36L70 36L70 34L68 34ZM74 36L76 36L76 34L74 34ZM14 34L18 34L18 32L14 32ZM42 34L46 34L46 30L48 30L48 22L46 22L46 24L44 24L44 26L46 26L46 28L40 28L40 30L44 30L44 32L42 32ZM66 34L68 34L68 32L66 32ZM72 34L74 34L74 32L72 32ZM10 32L14 32L14 28L12 28L12 26L10 26ZM18 32L20 32L20 30L18 30ZM60 32L62 32L62 30L60 30ZM16 30L18 30L18 26L14 26L14 28L16 28ZM20 30L22 30L22 28L26 28L26 26L20 26ZM62 30L68 30L68 28L64 28L64 26L62 26ZM36 28L38 28L38 26L36 26ZM54 28L58 28L58 24L56 24L56 26L54 26ZM68 28L70 28L70 26L68 26ZM72 28L76 28L76 26L72 26ZM40 26L42 26L42 24L40 24ZM50 26L54 26L54 24L52 24L52 22L50 22ZM10 24L24 24L24 10L10 10ZM34 24L36 24L36 22L38 22L38 24L40 24L40 20L42 20L42 24L44 24L44 18L40 18L40 16L38 16L38 18L36 18L36 14L34 14L34 20L32 20L32 22L34 22ZM54 24L56 24L56 22L54 22ZM58 24L60 24L60 20L58 20ZM62 24L76 24L76 10L62 10ZM12 22L12 12L22 12L22 22ZM28 22L30 22L30 20L28 20ZM64 22L64 12L74 12L74 22ZM14 20L20 20L20 14L14 14ZM30 20L32 20L32 16L30 16ZM52 20L54 20L54 18L56 18L56 20L58 20L58 18L60 18L60 14L58 14L58 16L56 16L56 12L54 12L54 16L52 16ZM66 20L72 20L72 14L66 14ZM26 18L28 18L28 16L26 16ZM46 18L50 18L50 16L52 16L52 14L50 14L50 12L44 12L44 10L40 10L40 12L42 12L42 16L44 16L44 14L48 14L48 16L46 16ZM28 16L30 16L30 14L28 14ZM26 14L28 14L28 10L26 10ZM30 14L32 14L32 12L30 12ZM36 12L38 12L38 10L36 10ZM58 12L60 12L60 10L58 10Z" fill="#000000" fill-rule="evenodd" />
</svg>
