<svg viewBox="0 0 95 95" xmlns="http://www.w3.org/2000/svg">
<rect width="100%" height="100%" fill="#FFFFFF" />
<path d="M0 0L0 95L95 95L95 0ZM2 2L93 2L93 93L2 93Z" fill="#ffffff" fill-rule="evenodd" />
<path d="M10 84L24 84L24 70L10 70ZM26 84L40 84L40 78L44 78L44 76L42 76L42 70L40 70L40 68L42 68L42 70L44 70L44 68L46 68L46 66L42 66L42 64L46 64L46 66L48 66L48 62L52 62L52 60L50 60L50 58L54 58L54 52L52 52L52 50L54 50L54 52L56 52L56 54L58 54L58 52L62 52L62 50L60 50L60 48L58 48L58 50L56 50L56 46L54 46L54 44L50 44L50 42L46 42L46 44L48 44L48 46L52 46L52 48L50 48L50 50L48 50L48 54L50 54L50 56L46 56L46 50L44 50L44 52L42 52L42 54L44 54L44 58L48 58L48 60L44 60L44 62L42 62L42 60L44 60L44 58L40 58L40 56L42 56L42 54L40 54L40 50L38 50L38 52L36 52L36 58L38 58L38 62L36 62L36 58L34 58L34 62L32 62L32 64L34 64L34 66L36 66L36 68L38 68L38 70L36 70L36 74L38 74L38 72L40 72L40 74L38 74L38 82L34 82L34 78L36 78L36 76L32 76L32 70L30 70L30 72L26 72L26 80L32 80L32 82L26 82ZM44 84L50 84L50 82L54 82L54 76L50 76L50 74L46 74L46 76L48 76L48 78L50 78L50 80L48 80L48 82L44 82ZM54 84L56 84L56 82L54 82ZM58 84L64 84L64 82L70 82L70 80L66 80L66 76L70 76L70 78L72 78L72 80L74 80L74 78L76 78L76 76L82 76L82 74L84 74L84 70L82 70L82 66L74 66L74 60L72 60L72 62L68 62L68 60L66 60L66 62L64 62L64 66L66 66L66 64L72 64L72 66L66 66L66 68L64 68L64 70L66 70L66 74L64 74L64 70L62 70L62 68L64 68L64 66L60 66L60 62L58 62L58 68L60 68L60 72L62 72L62 74L60 74L60 72L58 72L58 74L54 74L54 76L56 76L56 78L60 78L60 80L62 80L62 78L64 78L64 80L62 80L62 82L60 82L60 80L56 80L56 82L58 82ZM70 84L72 84L72 82L70 82ZM76 84L84 84L84 76L82 76L82 78L78 78L78 80L82 80L82 82L76 82ZM12 82L12 72L22 72L22 82ZM42 82L44 82L44 80L42 80ZM14 80L20 80L20 74L14 74ZM46 80L48 80L48 78L46 78ZM28 78L28 74L30 74L30 78ZM50 74L54 74L54 72L50 72ZM68 74L68 68L74 68L74 74ZM78 74L78 70L76 70L76 68L80 68L80 74ZM46 72L48 72L48 70L54 70L54 72L56 72L56 70L58 70L58 68L56 68L56 62L52 62L52 64L50 64L50 66L54 66L54 68L50 68L50 66L48 66L48 68L46 68ZM70 72L72 72L72 70L70 70ZM26 70L30 70L30 68L26 68ZM34 70L36 70L36 68L34 68ZM10 68L12 68L12 60L14 60L14 62L16 62L16 60L20 60L20 58L16 58L16 52L14 52L14 54L12 54L12 56L14 56L14 58L12 58L12 56L10 56ZM14 68L18 68L18 66L16 66L16 64L14 64ZM20 68L24 68L24 66L20 66ZM30 68L32 68L32 66L30 66ZM38 66L38 64L40 64L40 66ZM82 66L84 66L84 62L80 62L80 64L82 64ZM20 64L30 64L30 62L28 62L28 60L30 60L30 58L28 58L28 56L26 56L26 54L22 54L22 56L24 56L24 58L26 58L26 60L24 60L24 62L20 62ZM56 62L58 62L58 60L56 60ZM76 62L80 62L80 58L74 58L74 60L76 60ZM22 60L24 60L24 58L22 58ZM54 60L56 60L56 58L54 58ZM58 60L66 60L66 58L64 58L64 56L62 56L62 58L58 58ZM68 60L72 60L72 58L70 58L70 54L68 54L68 56L66 56L66 58L68 58ZM82 60L84 60L84 54L82 54ZM20 58L22 58L22 56L20 56ZM32 58L34 58L34 54L30 54L30 56L32 56ZM18 56L20 56L20 54L18 54ZM58 56L60 56L60 54L58 54ZM64 56L66 56L66 54L64 54ZM76 56L78 56L78 54L76 54ZM10 54L12 54L12 52L14 52L14 50L18 50L18 44L24 44L24 42L16 42L16 48L12 48L12 50L10 50ZM20 54L22 54L22 52L20 52ZM26 54L28 54L28 52L26 52ZM66 54L68 54L68 52L66 52ZM72 54L74 54L74 52L76 52L76 48L78 48L78 46L80 46L80 42L74 42L74 44L76 44L76 46L74 46L74 48L72 48L72 50L70 50L70 46L68 46L68 44L66 44L66 46L64 46L64 48L68 48L68 52L72 52ZM78 54L80 54L80 52L84 52L84 50L78 50ZM18 52L20 52L20 50L18 50ZM22 52L24 52L24 50L22 50ZM30 52L34 52L34 50L32 50L32 46L30 46ZM64 52L66 52L66 50L64 50ZM26 50L28 50L28 46L30 46L30 38L28 38L28 44L24 44L24 46L26 46ZM34 50L36 50L36 42L32 42L32 44L34 44ZM42 50L44 50L44 48L42 48ZM46 50L48 50L48 46L46 46L46 44L42 44L42 40L44 40L44 36L42 36L42 38L40 38L40 40L38 40L38 38L34 38L34 40L36 40L36 42L40 42L40 44L38 44L38 48L40 48L40 46L44 46L44 48L46 48ZM10 48L12 48L12 46L14 46L14 44L12 44L12 42L16 42L16 40L12 40L12 38L14 38L14 36L16 36L16 30L20 30L20 32L24 32L24 30L22 30L22 28L24 28L24 26L14 26L14 30L12 30L12 32L14 32L14 34L12 34L12 36L10 36ZM20 48L24 48L24 46L20 46ZM60 48L62 48L62 46L60 46ZM80 48L84 48L84 46L80 46ZM56 46L58 46L58 40L54 40L54 38L50 38L50 40L52 40L52 42L56 42ZM60 44L64 44L64 42L60 42ZM68 44L72 44L72 38L70 38L70 42L68 42ZM82 44L84 44L84 38L80 38L80 40L82 40ZM24 42L26 42L26 40L24 40ZM64 42L68 42L68 40L66 40L66 38L64 38ZM20 40L24 40L24 38L20 38ZM46 40L48 40L48 38L46 38ZM58 40L60 40L60 38L58 38ZM74 40L76 40L76 38L74 38ZM16 38L20 38L20 36L16 36ZM26 38L28 38L28 36L30 36L30 38L34 38L34 36L38 36L38 34L40 34L40 36L42 36L42 32L44 32L44 30L42 30L42 28L44 28L44 26L48 26L48 22L46 22L46 24L44 24L44 22L42 22L42 26L40 26L40 28L38 28L38 26L34 26L34 28L30 28L30 30L34 30L34 32L32 32L32 34L30 34L30 32L28 32L28 34L26 34L26 32L24 32L24 34L22 34L22 36L26 36ZM48 38L50 38L50 34L54 34L54 30L58 30L58 28L56 28L56 26L54 26L54 28L52 28L52 26L50 26L50 28L44 28L44 30L46 30L46 32L48 32L48 30L50 30L50 32L48 32ZM56 38L58 38L58 36L56 36ZM60 38L64 38L64 36L66 36L66 34L68 34L68 36L72 36L72 34L70 34L70 28L68 28L68 30L62 30L62 28L66 28L66 24L64 24L64 22L62 22L62 26L58 26L58 28L60 28L60 30L58 30L58 32L62 32L62 34L58 34L58 36L60 36ZM66 38L68 38L68 36L66 36ZM72 38L74 38L74 36L72 36ZM44 36L46 36L46 34L44 34ZM54 36L56 36L56 34L54 34ZM74 36L76 36L76 34L74 34ZM78 36L80 36L80 34L78 34ZM10 34L12 34L12 32L10 32ZM18 34L20 34L20 32L18 32ZM56 34L58 34L58 32L56 32ZM80 34L84 34L84 30L80 30L80 26L70 26L70 28L72 28L72 30L74 30L74 28L78 28L78 32L80 32ZM10 30L12 30L12 26L10 26ZM24 30L26 30L26 28L24 28ZM26 26L28 26L28 20L32 20L32 22L34 22L34 20L36 20L36 14L38 14L38 12L36 12L36 10L32 10L32 14L34 14L34 18L32 18L32 16L30 16L30 18L28 18L28 14L26 14ZM30 26L32 26L32 22L30 22ZM52 26L54 26L54 24L52 24ZM10 24L24 24L24 10L10 10ZM34 24L36 24L36 22L34 22ZM38 24L40 24L40 22L42 22L42 20L40 20L40 18L38 18L38 20L36 20L36 22L38 22ZM50 24L52 24L52 22L50 22ZM54 24L56 24L56 22L54 22ZM58 24L60 24L60 22L58 22ZM66 24L68 24L68 16L66 16L66 12L60 12L60 14L64 14L64 16L60 16L60 18L66 18L66 20L64 20L64 22L66 22ZM70 24L84 24L84 10L70 10ZM12 22L12 12L22 12L22 22ZM44 22L46 22L46 20L54 20L54 18L52 18L52 16L56 16L56 20L58 20L58 14L54 14L54 12L50 12L50 14L48 14L48 10L46 10L46 16L50 16L50 18L46 18L46 16L42 16L42 20L44 20ZM60 22L62 22L62 20L60 20ZM72 22L72 12L82 12L82 22ZM14 20L20 20L20 14L14 14ZM74 20L80 20L80 14L74 14ZM40 16L42 16L42 12L40 12ZM38 12L40 12L40 10L38 10ZM42 12L44 12L44 10L42 10ZM54 12L58 12L58 10L54 10ZM66 12L68 12L68 10L66 10Z" fill="#000000" fill-rule="evenodd" />
</svg>
