<svg viewBox="0 0 87 87" xmlns="http://www.w3.org/2000/svg">
<rect width="100%" height="100%" fill="#FFFFFF" />
<path d="M0 0L0 87L87 87L87 0ZM2 2L85 2L85 85L2 85Z" fill="#ffffff" fill-rule="evenodd" />
<path d="M10 76L24 76L24 62L10 62ZM26 76L32 76L32 72L30 72L30 74L26 74ZM34 76L38 76L38 74L42 74L42 76L46 76L46 74L44 74L44 72L46 72L46 74L50 74L50 76L52 76L52 72L50 72L50 70L46 70L46 68L42 68L42 72L40 72L40 70L38 70L38 72L34 72ZM56 76L62 76L62 74L56 74ZM64 76L74 76L74 74L72 74L72 72L76 72L76 68L74 68L74 66L72 66L72 68L68 68L68 70L66 70L66 74L64 74ZM12 74L12 64L22 64L22 74ZM54 74L56 74L56 72L58 72L58 68L56 68L56 66L52 66L52 68L54 68L54 70L52 70L52 72L54 72ZM14 72L20 72L20 66L14 66ZM28 72L30 72L30 68L34 68L34 66L28 66ZM32 72L34 72L34 70L32 70ZM60 72L62 72L62 68L64 68L64 70L66 70L66 68L68 68L68 66L72 66L72 64L74 64L74 62L76 62L76 58L74 58L74 60L70 60L70 62L68 62L68 54L70 54L70 52L68 52L68 50L66 50L66 48L68 48L68 46L66 46L66 44L68 44L68 42L70 42L70 46L74 46L74 44L72 44L72 42L76 42L76 40L74 40L74 36L76 36L76 34L72 34L72 36L70 36L70 38L66 38L66 36L64 36L64 40L66 40L66 42L64 42L64 46L62 46L62 36L60 36L60 38L58 38L58 40L60 40L60 42L58 42L58 44L60 44L60 48L64 48L64 56L66 56L66 58L64 58L64 56L62 56L62 54L60 54L60 58L58 58L58 62L56 62L56 60L52 60L52 56L54 56L54 58L58 58L58 56L56 56L56 54L58 54L58 52L62 52L62 50L60 50L60 48L58 48L58 46L56 46L56 50L54 50L54 54L50 54L50 58L48 58L48 56L46 56L46 60L48 60L48 62L52 62L52 64L56 64L56 66L58 66L58 68L60 68ZM34 70L36 70L36 68L34 68ZM50 70L52 70L52 68L50 68ZM40 68L42 68L42 66L40 66ZM46 68L48 68L48 66L46 66ZM36 66L40 66L40 64L42 64L42 62L40 62L40 60L42 60L42 58L38 58L38 64L36 64ZM42 66L44 66L44 64L42 64ZM48 66L50 66L50 64L48 64ZM60 66L60 60L66 60L66 66ZM74 66L76 66L76 64L74 64ZM30 64L34 64L34 60L36 60L36 56L38 56L38 54L34 54L34 56L32 56L32 54L28 54L28 52L24 52L24 54L26 54L26 56L24 56L24 58L26 58L26 62L30 62L30 58L32 58L32 62L30 62ZM46 64L48 64L48 62L46 62ZM62 64L64 64L64 62L62 62ZM42 62L44 62L44 60L42 60ZM10 60L14 60L14 58L12 58L12 52L14 52L14 50L10 50ZM18 60L20 60L20 58L22 58L22 56L20 56L20 54L18 54L18 56L16 56L16 58L18 58ZM22 60L24 60L24 58L22 58ZM70 58L72 58L72 56L70 56ZM22 56L24 56L24 54L22 54ZM40 56L44 56L44 54L50 54L50 46L48 46L48 48L42 48L42 50L40 50L40 52L42 52L42 54L40 54ZM72 56L74 56L74 54L76 54L76 46L74 46L74 52L72 52ZM14 54L16 54L16 52L14 52ZM20 54L22 54L22 52L24 52L24 50L22 50L22 48L16 48L16 44L14 44L14 46L12 46L12 48L14 48L14 50L16 50L16 52L20 52ZM28 52L30 52L30 50L32 50L32 46L30 46L30 48L28 48L28 46L26 46L26 50L28 50ZM44 52L44 50L48 50L48 52ZM34 50L38 50L38 48L36 48L36 46L34 46ZM68 50L72 50L72 48L68 48ZM22 48L24 48L24 46L22 46ZM38 48L42 48L42 44L40 44L40 46L38 46ZM10 46L12 46L12 44L10 44ZM18 46L22 46L22 44L20 44L20 42L22 42L22 40L20 40L20 38L18 38L18 36L24 36L24 38L26 38L26 40L32 40L32 36L34 36L34 38L36 38L36 36L38 36L38 40L40 40L40 36L42 36L42 38L44 38L44 36L48 36L48 38L54 38L54 34L50 34L50 32L48 32L48 34L44 34L44 30L42 30L42 26L40 26L40 20L38 20L38 26L36 26L36 28L40 28L40 32L38 32L38 34L34 34L34 32L32 32L32 34L30 34L30 38L28 38L28 34L26 34L26 32L32 32L32 30L30 30L30 24L28 24L28 22L26 22L26 28L24 28L24 30L22 30L22 32L24 32L24 34L16 34L16 32L14 32L14 36L12 36L12 32L14 32L14 28L12 28L12 30L10 30L10 42L12 42L12 40L14 40L14 38L16 38L16 44L18 44ZM24 46L26 46L26 40L24 40L24 42L22 42L22 44L24 44ZM28 46L30 46L30 44L28 44ZM36 46L38 46L38 44L36 44ZM44 46L48 46L48 44L44 44ZM50 46L56 46L56 40L54 40L54 44L50 44ZM12 44L14 44L14 42L12 42ZM34 44L36 44L36 42L34 42ZM42 44L44 44L44 42L42 42ZM40 42L42 42L42 40L40 40ZM48 42L52 42L52 40L48 40ZM22 40L24 40L24 38L22 38ZM46 40L48 40L48 38L46 38ZM56 36L60 36L60 32L56 32ZM62 36L64 36L64 34L62 34ZM66 36L70 36L70 34L72 34L72 32L68 32L68 34L66 34ZM64 34L66 34L66 32L64 32ZM16 32L18 32L18 30L16 30ZM34 32L36 32L36 30L34 30ZM46 32L48 32L48 30L46 30ZM50 32L54 32L54 30L60 30L60 28L58 28L58 24L56 24L56 26L54 26L54 28L52 28L52 22L50 22L50 24L48 24L48 26L50 26L50 28L48 28L48 30L50 30ZM62 32L64 32L64 30L62 30ZM66 32L68 32L68 28L64 28L64 30L66 30ZM72 32L74 32L74 30L72 30ZM18 30L22 30L22 28L18 28ZM32 30L34 30L34 28L32 28ZM70 30L72 30L72 28L74 28L74 26L68 26L68 28L70 28ZM74 30L76 30L76 28L74 28ZM10 28L12 28L12 26L10 26ZM22 28L24 28L24 26L22 26ZM44 28L48 28L48 26L44 26ZM60 28L64 28L64 26L60 26ZM34 26L36 26L36 22L34 22ZM10 24L24 24L24 10L10 10ZM30 24L32 24L32 22L30 22ZM42 24L44 24L44 22L46 22L46 20L48 20L48 18L44 18L44 20L42 20ZM46 24L48 24L48 22L46 22ZM54 24L56 24L56 20L54 20L54 16L56 16L56 14L54 14L54 10L52 10L52 12L50 12L50 14L52 14L52 16L48 16L48 18L52 18L52 22L54 22ZM58 24L60 24L60 20L58 20ZM62 24L76 24L76 10L62 10ZM12 22L12 12L22 12L22 22ZM32 22L34 22L34 20L32 20ZM64 22L64 12L74 12L74 22ZM14 20L20 20L20 14L14 14ZM40 20L42 20L42 18L40 18ZM56 20L58 20L58 16L56 16ZM66 20L72 20L72 14L66 14ZM26 18L28 18L28 14L30 14L30 12L26 12ZM34 18L36 18L36 16L38 16L38 14L40 14L40 12L34 12L34 14L30 14L30 16L34 16ZM42 16L48 16L48 14L46 14L46 12L44 12L44 14L42 14ZM58 16L60 16L60 14L58 14ZM32 12L34 12L34 10L32 10ZM42 12L44 12L44 10L42 10ZM46 12L48 12L48 10L46 10ZM56 12L58 12L58 10L56 10Z" fill="#000000" fill-rule="evenodd" />
</svg>
