<svg viewBox="0 0 79 79" xmlns="http://www.w3.org/2000/svg">
<rect width="100%" height="100%" fill="#FFFFFF" />
<path d="M0 0L0 79L79 79L79 0ZM2 2L77 2L77 77L2 77Z" fill="#ffffff" fill-rule="evenodd" />
<path d="M10 68L24 68L24 54L10 54ZM26 68L30 68L30 66L32 66L32 64L34 64L34 62L36 62L36 66L32 66L32 68L38 68L38 66L40 66L40 68L42 68L42 66L44 66L44 64L38 64L38 60L36 60L36 58L34 58L34 60L32 60L32 62L30 62L30 64L28 64L28 66L26 66ZM44 68L56 68L56 66L60 66L60 68L62 68L62 64L58 64L58 60L60 60L60 62L64 62L64 60L66 60L66 58L60 58L60 54L62 54L62 52L64 52L64 56L66 56L66 52L68 52L68 50L64 50L64 46L62 46L62 48L60 48L60 46L58 46L58 44L56 44L56 48L58 48L58 50L54 50L54 46L52 46L52 44L54 44L54 42L52 42L52 40L56 40L56 38L54 38L54 36L52 36L52 38L48 38L48 42L50 42L50 44L44 44L44 46L46 46L46 48L48 48L48 46L50 46L50 52L48 52L48 56L50 56L50 60L52 60L52 62L54 62L54 60L56 60L56 64L52 64L52 66L50 66L50 64L52 64L52 62L48 62L48 66L44 66ZM64 68L66 68L66 64L64 64ZM12 66L12 56L22 56L22 66ZM14 64L20 64L20 58L14 58ZM26 64L28 64L28 62L30 62L30 60L26 60ZM66 64L68 64L68 60L66 60ZM40 62L44 62L44 60L40 60ZM46 62L48 62L48 56L46 56L46 58L44 58L44 60L46 60ZM30 60L32 60L32 58L34 58L34 56L28 56L28 50L26 50L26 58L30 58ZM36 58L40 58L40 54L38 54L38 56L36 56ZM42 58L44 58L44 56L46 56L46 52L44 52L44 50L42 50L42 52L40 52L40 54L42 54ZM52 58L52 52L58 52L58 58ZM34 56L36 56L36 52L40 52L40 48L44 48L44 46L42 46L42 44L40 44L40 42L44 42L44 40L46 40L46 38L44 38L44 36L42 36L42 40L38 40L38 46L34 46L34 48L36 48L36 50L32 50L32 52L34 52ZM54 56L56 56L56 54L54 54ZM30 54L32 54L32 52L30 52ZM12 52L14 52L14 50L12 50ZM20 52L24 52L24 50L20 50ZM46 52L48 52L48 50L46 50ZM18 50L20 50L20 48L18 48ZM28 50L32 50L32 48L30 48L30 46L28 46L28 42L26 42L26 40L28 40L28 38L26 38L26 36L24 36L24 38L22 38L22 36L24 36L24 34L22 34L22 32L16 32L16 34L14 34L14 36L20 36L20 40L24 40L24 42L20 42L20 44L18 44L18 46L22 46L22 44L26 44L26 48L28 48ZM44 50L46 50L46 48L44 48ZM10 48L12 48L12 46L10 46ZM14 48L16 48L16 46L14 46ZM22 48L24 48L24 46L22 46ZM12 46L14 46L14 44L12 44ZM32 46L34 46L34 44L32 44ZM60 46L62 46L62 40L68 40L68 36L66 36L66 38L62 38L62 36L60 36L60 38L58 38L58 40L56 40L56 42L60 42ZM64 46L68 46L68 44L64 44ZM14 44L18 44L18 38L12 38L12 36L10 36L10 40L12 40L12 42L14 42ZM30 44L32 44L32 42L30 42ZM30 40L38 40L38 38L34 38L34 36L28 36L28 38L30 38ZM38 38L40 38L40 34L38 34ZM34 36L36 36L36 34L34 34ZM50 36L52 36L52 34L50 34ZM62 36L66 36L66 28L68 28L68 26L64 26L64 30L62 30L62 26L60 26L60 28L56 28L56 30L58 30L58 34L60 34L60 32L64 32L64 34L62 34ZM10 34L14 34L14 32L16 32L16 30L18 30L18 26L14 26L14 30L12 30L12 32L10 32ZM24 34L28 34L28 30L30 30L30 26L28 26L28 28L26 28L26 32L24 32ZM30 34L32 34L32 32L34 32L34 30L30 30ZM54 34L56 34L56 30L54 30ZM22 32L24 32L24 30L22 30ZM36 32L38 32L38 30L42 30L42 28L44 28L44 26L46 26L46 28L44 28L44 30L46 30L46 32L48 32L48 28L50 28L50 32L52 32L52 26L48 26L48 22L46 22L46 24L44 24L44 22L46 22L46 20L44 20L44 18L42 18L42 20L40 20L40 22L42 22L42 24L40 24L40 28L38 28L38 26L36 26L36 22L38 22L38 20L36 20L36 18L34 18L34 20L32 20L32 16L26 16L26 18L30 18L30 24L32 24L32 22L34 22L34 24L32 24L32 28L34 28L34 30L36 30ZM10 28L12 28L12 26L10 26ZM20 28L26 28L26 26L20 26ZM54 28L56 28L56 26L54 26ZM26 26L28 26L28 22L26 22ZM10 24L24 24L24 10L10 10ZM38 24L40 24L40 22L38 22ZM50 24L52 24L52 22L50 22ZM54 24L68 24L68 10L54 10ZM12 22L12 12L22 12L22 22ZM48 22L50 22L50 14L48 14ZM56 22L56 12L66 12L66 22ZM14 20L20 20L20 14L14 14ZM38 20L40 20L40 18L42 18L42 16L38 16ZM58 20L64 20L64 14L58 14ZM32 16L36 16L36 14L32 14ZM42 16L44 16L44 12L42 12ZM26 14L30 14L30 12L34 12L34 10L26 10ZM36 14L38 14L38 12L42 12L42 10L36 10ZM46 14L48 14L48 12L52 12L52 10L44 10L44 12L46 12Z" fill="#000000" fill-rule="evenodd" />
</svg>
