<svg viewBox="0 0 131 43" xmlns="http://www.w3.org/2000/svg">
<rect width="100%" height="100%" fill="#FFFFFF" />
<path d="M0 0L0 43L131 43L131 0ZM2 2L129 2L129 41L2 41Z" fill="#ffffff" fill-rule="evenodd" />
<path d="M6 36L12 36L12 34L8 34L8 30L6 30ZM14 36L16 36L16 34L18 34L18 36L20 36L20 34L22 34L22 36L24 36L24 32L20 32L20 30L16 30L16 26L12 26L12 24L10 24L10 22L6 22L6 24L8 24L8 26L10 26L10 28L12 28L12 32L14 32ZM26 36L28 36L28 30L30 30L30 28L26 28ZM30 36L32 36L32 30L30 30ZM34 36L36 36L36 34L38 34L38 32L40 32L40 30L42 30L42 28L40 28L40 24L38 24L38 26L36 26L36 32L34 32ZM38 36L40 36L40 34L38 34ZM42 36L48 36L48 34L50 34L50 32L52 32L52 30L54 30L54 28L52 28L52 26L54 26L54 24L56 24L56 22L58 22L58 24L60 24L60 22L62 22L62 20L64 20L64 18L66 18L66 20L70 20L70 18L68 18L68 16L62 16L62 18L60 18L60 20L54 20L54 22L52 22L52 20L54 20L54 18L60 18L60 16L58 16L58 14L56 14L56 16L54 16L54 14L52 14L52 10L50 10L50 8L48 8L48 6L42 6L42 10L38 10L38 12L42 12L42 18L44 18L44 16L46 16L46 18L48 18L48 22L50 22L50 28L46 28L46 30L42 30L42 32L40 32L40 34L42 34ZM50 36L52 36L52 34L50 34ZM54 36L56 36L56 34L58 34L58 36L60 36L60 32L58 32L58 30L56 30L56 32L52 32L52 34L54 34ZM62 36L64 36L64 34L66 34L66 36L68 36L68 32L62 32ZM70 36L72 36L72 34L74 34L74 28L72 28L72 32L70 32ZM74 36L76 36L76 34L74 34ZM78 36L80 36L80 34L82 34L82 36L88 36L88 30L84 30L84 28L88 28L88 30L92 30L92 32L98 32L98 30L100 30L100 28L98 28L98 26L96 26L96 28L92 28L92 26L90 26L90 24L98 24L98 20L118 20L118 18L120 18L120 12L118 12L118 16L114 16L114 18L110 18L110 16L106 16L106 18L104 18L104 16L106 16L106 14L102 14L102 16L100 16L100 18L94 18L94 22L92 22L92 18L90 18L90 16L98 16L98 12L108 12L108 6L106 6L106 8L104 8L104 6L102 6L102 8L100 8L100 6L98 6L98 10L96 10L96 6L94 6L94 12L92 12L92 14L90 14L90 12L92 12L92 10L90 10L90 8L88 8L88 6L82 6L82 8L80 8L80 6L78 6L78 8L76 8L76 10L78 10L78 12L82 12L82 16L76 16L76 18L78 18L78 20L82 20L82 22L80 22L80 24L82 24L82 30L80 30L80 32L78 32ZM90 36L92 36L92 32L90 32ZM94 36L96 36L96 34L94 34ZM98 36L100 36L100 34L102 34L102 32L98 32ZM102 36L104 36L104 34L102 34ZM106 36L108 36L108 34L110 34L110 32L104 32L104 34L106 34ZM110 36L112 36L112 34L110 34ZM114 36L124 36L124 26L120 26L120 24L118 24L118 22L116 22L116 26L114 26L114 22L112 22L112 28L110 28L110 24L108 24L108 22L100 22L100 24L104 24L104 28L106 28L106 26L108 26L108 28L106 28L106 30L110 30L110 32L112 32L112 34L114 34ZM44 34L44 32L46 32L46 34ZM84 34L84 32L86 32L86 34ZM116 34L116 28L122 28L122 34ZM60 32L62 32L62 30L60 30ZM102 32L104 32L104 28L102 28ZM118 32L120 32L120 30L118 30ZM22 30L24 30L24 28L26 28L26 26L24 26L24 24L26 24L26 22L24 22L24 20L22 20L22 22L20 22L20 24L16 24L16 26L22 26ZM32 30L34 30L34 22L36 22L36 20L28 20L28 18L26 18L26 22L28 22L28 24L26 24L26 26L30 26L30 28L32 28ZM62 30L68 30L68 28L66 28L66 26L64 26L64 28L62 28ZM6 28L8 28L8 26L6 26ZM44 28L46 28L46 26L44 26ZM54 28L56 28L56 26L54 26ZM58 28L60 28L60 26L58 26ZM70 28L72 28L72 22L66 22L66 24L68 24L68 26L70 26ZM74 28L76 28L76 24L74 24ZM78 28L80 28L80 24L78 24ZM100 28L102 28L102 26L100 26ZM42 26L44 26L44 24L46 24L46 22L44 22L44 20L40 20L40 22L42 22ZM46 26L48 26L48 24L46 24ZM84 26L84 24L86 24L86 26ZM12 24L16 24L16 22L12 22ZM62 24L64 24L64 22L62 22ZM76 24L78 24L78 20L76 20ZM86 24L86 22L84 22L84 20L88 20L88 24ZM120 24L124 24L124 22L120 22ZM72 22L74 22L74 20L76 20L76 18L74 18L74 14L72 14L72 12L70 12L70 16L72 16ZM6 20L20 20L20 6L6 6ZM44 20L46 20L46 18L44 18ZM120 20L124 20L124 18L120 18ZM8 18L8 8L18 8L18 18ZM22 18L24 18L24 16L26 16L26 14L24 14L24 12L28 12L28 10L30 10L30 14L32 14L32 12L34 12L34 10L38 10L38 8L36 8L36 6L34 6L34 8L32 8L32 6L30 6L30 8L28 8L28 6L26 6L26 10L22 10ZM30 18L32 18L32 16L30 16ZM36 18L38 18L38 16L40 16L40 14L38 14L38 12L36 12ZM50 18L50 16L52 16L52 18ZM84 18L84 16L86 16L86 18ZM10 16L16 16L16 10L10 10ZM32 16L34 16L34 14L32 14ZM48 16L48 14L44 14L44 12L50 12L50 16ZM60 16L62 16L62 14L60 14ZM86 16L86 14L84 14L84 12L88 12L88 16ZM112 16L114 16L114 12L112 12ZM122 16L124 16L124 14L122 14ZM62 14L68 14L68 12L66 12L66 10L64 10L64 12L62 12ZM108 14L110 14L110 12L108 12ZM54 12L56 12L56 10L54 10ZM58 12L60 12L60 10L58 10ZM72 12L76 12L76 10L72 10ZM110 12L112 12L112 6L110 6ZM114 12L118 12L118 10L116 10L116 6L114 6ZM120 12L124 12L124 6L118 6L118 8L122 8L122 10L120 10ZM44 10L44 8L46 8L46 10ZM52 10L54 10L54 8L52 8ZM56 10L58 10L58 8L56 8ZM68 10L72 10L72 6L70 6L70 8L68 8ZM84 10L84 8L86 8L86 10ZM22 8L24 8L24 6L22 6ZM38 8L40 8L40 6L38 6ZM50 8L52 8L52 6L50 6ZM54 8L56 8L56 6L54 6ZM58 8L60 8L60 6L58 6ZM62 8L64 8L64 6L62 6ZM66 8L68 8L68 6L66 6ZM74 8L76 8L76 6L74 6ZM90 8L92 8L92 6L90 6Z" fill="#000000" fill-rule="evenodd" />
</svg>
