<svg viewBox="0 0 87 87" xmlns="http://www.w3.org/2000/svg">
<rect width="100%" height="100%" fill="#FFFFFF" />
<path d="M0 0L0 87L87 87L87 0ZM2 2L85 2L85 85L2 85Z" fill="#ffffff" fill-rule="evenodd" />
<path d="M10 76L24 76L24 62L10 62ZM26 76L32 76L32 74L30 74L30 72L32 72L32 70L30 70L30 68L26 68L26 72L28 72L28 74L26 74ZM34 76L36 76L36 74L34 74ZM40 76L42 76L42 74L40 74ZM44 76L46 76L46 70L44 70L44 72L42 72L42 74L44 74ZM50 76L60 76L60 74L50 74ZM64 76L68 76L68 72L66 72L66 68L68 68L68 62L70 62L70 58L68 58L68 56L64 56L64 58L62 58L62 56L60 56L60 58L56 58L56 56L54 56L54 60L58 60L58 62L54 62L54 64L58 64L58 66L54 66L54 70L56 70L56 68L60 68L60 74L64 74ZM70 76L72 76L72 74L70 74ZM12 74L12 64L22 64L22 74ZM32 74L34 74L34 72L32 72ZM38 74L40 74L40 72L38 72ZM74 74L76 74L76 72L74 72ZM14 72L20 72L20 66L14 66ZM34 72L38 72L38 70L40 70L40 64L36 64L36 62L34 62L34 64L30 64L30 66L32 66L32 70L34 70L34 66L36 66L36 70L34 70ZM48 72L50 72L50 70L52 70L52 68L48 68ZM70 72L72 72L72 70L76 70L76 64L74 64L74 68L72 68L72 62L70 62ZM42 70L44 70L44 68L48 68L48 64L50 64L50 62L54 62L54 60L52 60L52 58L50 58L50 54L48 54L48 62L46 62L46 66L42 66ZM62 70L62 68L64 68L64 70ZM26 66L28 66L28 64L30 64L30 60L28 60L28 58L26 58L26 56L24 56L24 58L18 58L18 60L26 60ZM60 66L60 60L66 60L66 66ZM62 64L64 64L64 62L62 62ZM32 62L34 62L34 56L32 56ZM36 62L44 62L44 60L38 60L38 58L36 58ZM10 60L12 60L12 58L10 58ZM44 60L46 60L46 58L44 58ZM72 60L74 60L74 58L72 58ZM12 58L18 58L18 54L14 54L14 56L12 56ZM28 58L30 58L30 56L28 56ZM42 58L44 58L44 56L42 56ZM20 56L24 56L24 54L20 54ZM26 56L28 56L28 54L30 54L30 52L34 52L34 50L32 50L32 48L30 48L30 50L28 50L28 52L24 52L24 54L26 54ZM30 56L32 56L32 54L30 54ZM36 56L38 56L38 54L36 54ZM40 56L42 56L42 52L40 52ZM44 56L46 56L46 54L48 54L48 52L50 52L50 50L52 50L52 48L48 48L48 44L44 44L44 40L46 40L46 42L48 42L48 36L50 36L50 32L46 32L46 36L42 36L42 38L40 38L40 48L42 48L42 52L44 52L44 50L46 50L46 52L44 52ZM52 56L54 56L54 54L56 54L56 52L52 52ZM56 56L58 56L58 54L56 54ZM62 56L64 56L64 54L62 54ZM68 56L70 56L70 54L68 54ZM72 56L76 56L76 52L74 52L74 54L72 54ZM10 54L12 54L12 52L18 52L18 50L14 50L14 48L18 48L18 44L16 44L16 46L10 46ZM18 54L20 54L20 52L18 52ZM58 54L60 54L60 52L58 52ZM64 54L66 54L66 52L70 52L70 54L72 54L72 50L70 50L70 48L68 48L68 50L64 50ZM22 52L24 52L24 50L22 50ZM36 52L40 52L40 50L36 50ZM60 52L62 52L62 50L60 50ZM18 50L20 50L20 48L18 48ZM24 50L26 50L26 46L22 46L22 48L24 48ZM56 50L60 50L60 48L62 48L62 46L58 46L58 48L56 48ZM62 50L64 50L64 48L62 48ZM72 50L76 50L76 48L72 48ZM36 48L38 48L38 46L36 46ZM44 48L44 46L46 46L46 48ZM54 48L56 48L56 46L54 46ZM64 48L66 48L66 46L70 46L70 44L68 44L68 42L66 42L66 44L64 44L64 42L66 42L66 40L62 40L62 36L60 36L60 42L62 42L62 46L64 46ZM70 48L72 48L72 46L70 46ZM26 46L28 46L28 44L26 44ZM32 46L34 46L34 42L32 42ZM52 46L54 46L54 40L50 40L50 42L52 42ZM56 46L58 46L58 44L56 44ZM74 46L76 46L76 40L72 40L72 38L70 38L70 34L68 34L68 32L64 32L64 30L66 30L66 28L64 28L64 26L62 26L62 28L60 28L60 30L62 30L62 36L64 36L64 34L66 34L66 36L68 36L68 38L66 38L66 40L70 40L70 44L72 44L72 42L74 42ZM12 44L16 44L16 42L12 42ZM18 44L20 44L20 40L18 40ZM22 44L24 44L24 42L22 42ZM36 44L38 44L38 42L36 42ZM48 44L50 44L50 42L48 42ZM58 44L60 44L60 42L58 42ZM10 42L12 42L12 40L18 40L18 38L10 38ZM26 42L32 42L32 40L36 40L36 38L32 38L32 36L30 36L30 40L26 40ZM56 42L58 42L58 40L56 40ZM22 40L26 40L26 38L22 38ZM38 38L40 38L40 36L42 36L42 34L38 34ZM56 38L58 38L58 36L60 36L60 34L56 34L56 32L54 32L54 34L52 34L52 36L56 36ZM14 36L20 36L20 32L24 32L24 30L22 30L22 28L24 28L24 30L26 30L26 32L28 32L28 28L26 28L26 26L20 26L20 30L18 30L18 26L14 26L14 32L12 32L12 34L14 34ZM22 36L24 36L24 34L22 34ZM26 36L30 36L30 34L26 34ZM32 36L34 36L34 30L36 30L36 32L38 32L38 30L40 30L40 28L36 28L36 22L38 22L38 20L40 20L40 18L36 18L36 16L38 16L38 14L34 14L34 18L30 18L30 24L28 24L28 22L26 22L26 26L28 26L28 28L30 28L30 30L32 30L32 32L30 32L30 34L32 34ZM72 36L74 36L74 34L72 34ZM16 34L16 32L18 32L18 34ZM24 34L26 34L26 32L24 32ZM42 34L44 34L44 32L46 32L46 24L44 24L44 22L46 22L46 24L48 24L48 22L50 22L50 24L52 24L52 20L48 20L48 16L46 16L46 18L42 18L42 24L40 24L40 22L38 22L38 26L40 26L40 28L42 28L42 26L44 26L44 30L42 30ZM74 34L76 34L76 26L72 26L72 28L74 28L74 30L72 30L72 28L70 28L70 32L74 32ZM50 32L52 32L52 28L48 28L48 30L50 30ZM56 32L58 32L58 28L56 28L56 26L60 26L60 20L58 20L58 24L56 24L56 22L54 22L54 26L52 26L52 28L54 28L54 30L56 30ZM10 30L12 30L12 26L10 26ZM68 28L70 28L70 26L68 26ZM32 26L32 20L34 20L34 26ZM10 24L24 24L24 10L10 10ZM62 24L76 24L76 10L62 10ZM12 22L12 12L22 12L22 22ZM64 22L64 12L74 12L74 22ZM14 20L20 20L20 14L14 14ZM54 20L58 20L58 18L56 18L56 16L54 16L54 10L52 10L52 14L48 14L48 16L50 16L50 18L54 18ZM66 20L72 20L72 14L66 14ZM26 18L30 18L30 14L34 14L34 12L36 12L36 10L32 10L32 12L28 12L28 10L26 10L26 14L28 14L28 16L26 16ZM40 18L42 18L42 16L40 16ZM58 18L60 18L60 14L58 14L58 10L56 10L56 16L58 16ZM44 16L46 16L46 10L44 10ZM38 14L40 14L40 10L38 10ZM48 12L50 12L50 10L48 10Z" fill="#000000" fill-rule="evenodd" />
</svg>
