<svg viewBox="0 0 95 95" xmlns="http://www.w3.org/2000/svg">
<rect width="100%" height="100%" fill="#FFFFFF" />
<path d="M0 0L0 95L95 95L95 0ZM2 2L93 2L93 93L2 93Z" fill="#ffffff" fill-rule="evenodd" />
<path d="M10 84L24 84L24 70L10 70ZM26 84L28 84L28 82L26 82ZM30 84L36 84L36 82L34 82L34 80L32 80L32 82L30 82ZM38 84L42 84L42 82L40 82L40 80L38 80ZM44 84L46 84L46 78L44 78L44 76L42 76L42 80L44 80ZM48 84L50 84L50 82L48 82ZM52 84L56 84L56 82L58 82L58 76L56 76L56 78L54 78L54 76L50 76L50 74L48 74L48 72L46 72L46 70L44 70L44 74L46 74L46 76L48 76L48 78L50 78L50 80L52 80ZM58 84L60 84L60 82L58 82ZM64 84L66 84L66 76L64 76L64 74L62 74L62 76L60 76L60 80L62 80L62 78L64 78L64 80L62 80L62 82L64 82ZM70 84L72 84L72 82L70 82ZM74 84L84 84L84 82L82 82L82 80L80 80L80 78L76 78L76 80L78 80L78 82L74 82ZM12 82L12 72L22 72L22 82ZM68 82L70 82L70 80L72 80L72 78L74 78L74 76L80 76L80 74L82 74L82 72L78 72L78 74L76 74L76 72L78 72L78 70L76 70L76 66L72 66L72 64L70 64L70 62L68 62L68 66L64 66L64 68L66 68L66 76L68 76ZM14 80L20 80L20 74L14 74ZM28 80L30 80L30 76L28 76ZM34 80L38 80L38 78L36 78L36 76L42 76L42 74L38 74L38 72L36 72L36 74L34 74L34 76L32 76L32 78L34 78ZM82 78L84 78L84 74L82 74ZM26 76L28 76L28 74L26 74ZM30 76L32 76L32 72L28 72L28 74L30 74ZM54 76L56 76L56 74L58 74L58 76L60 76L60 72L62 72L62 70L64 70L64 68L60 68L60 64L66 64L66 62L68 62L68 60L62 60L62 62L58 62L58 60L54 60L54 64L58 64L58 68L56 68L56 72L54 72ZM50 74L52 74L52 70L50 70ZM68 74L68 68L74 68L74 74ZM26 72L28 72L28 70L30 70L30 68L28 68L28 66L26 66ZM34 72L36 72L36 70L38 70L38 68L40 68L40 66L44 66L44 68L46 68L46 70L48 70L48 66L46 66L46 64L48 64L48 66L52 66L52 70L54 70L54 68L56 68L56 66L54 66L54 64L50 64L50 60L52 60L52 58L50 58L50 56L48 56L48 60L46 60L46 62L44 62L44 64L42 64L42 62L40 62L40 64L36 64L36 68L34 68L34 64L28 64L28 66L32 66L32 70L34 70ZM38 72L42 72L42 70L44 70L44 68L40 68L40 70L38 70ZM70 72L72 72L72 70L70 70ZM80 70L82 70L82 68L80 68ZM10 68L16 68L16 66L10 66ZM18 68L24 68L24 66L20 66L20 62L22 62L22 60L24 60L24 58L20 58L20 60L18 60L18 64L16 64L16 66L18 66ZM78 68L80 68L80 66L82 66L82 68L84 68L84 64L80 64L80 62L78 62L78 60L84 60L84 56L80 56L80 54L78 54L78 58L76 58L76 60L74 60L74 62L76 62L76 66L78 66ZM14 64L16 64L16 62L14 62ZM22 64L26 64L26 62L22 62ZM34 64L36 64L36 62L40 62L40 60L38 60L38 58L36 58L36 56L34 56L34 54L32 54L32 58L34 58ZM10 62L12 62L12 60L16 60L16 58L18 58L18 54L16 54L16 56L10 56ZM28 62L32 62L32 58L30 58L30 60L28 60ZM26 60L28 60L28 58L26 58ZM42 60L44 60L44 58L42 58ZM58 60L60 60L60 58L58 58ZM70 60L74 60L74 58L72 58L72 56L70 56ZM24 58L26 58L26 56L24 56ZM52 58L54 58L54 56L56 56L56 58L58 58L58 52L56 52L56 54L52 54ZM62 58L64 58L64 56L62 56ZM66 58L68 58L68 56L66 56ZM22 56L24 56L24 54L22 54ZM28 56L30 56L30 54L32 54L32 52L30 52L30 50L32 50L32 48L34 48L34 46L30 46L30 48L26 48L26 50L22 50L22 52L28 52ZM36 56L38 56L38 54L36 54ZM40 56L44 56L44 54L46 54L46 48L44 48L44 52L42 52L42 50L40 50ZM46 56L48 56L48 54L46 54ZM64 56L66 56L66 52L62 52L62 54L64 54ZM68 56L70 56L70 52L74 52L74 50L72 50L72 48L70 48L70 46L68 46L68 44L60 44L60 46L64 46L64 48L66 48L66 50L68 50ZM12 54L16 54L16 52L18 52L18 50L20 50L20 48L26 48L26 44L28 44L28 42L20 42L20 40L18 40L18 42L16 42L16 44L18 44L18 46L16 46L16 50L14 50L14 46L12 46L12 44L10 44L10 48L12 48L12 50L10 50L10 52L12 52ZM34 54L36 54L36 52L34 52ZM74 54L78 54L78 52L74 52ZM32 52L34 52L34 50L32 50ZM36 52L38 52L38 50L36 50ZM48 52L56 52L56 50L58 50L58 48L60 48L60 46L58 46L58 44L56 44L56 46L52 46L52 44L48 44L48 46L50 46L50 48L52 48L52 50L48 50ZM78 52L84 52L84 50L82 50L82 48L80 48L80 40L78 40ZM34 50L36 50L36 48L34 48ZM62 50L64 50L64 48L62 48ZM38 48L40 48L40 40L44 40L44 42L46 42L46 44L48 44L48 42L52 42L52 40L46 40L46 38L42 38L42 36L40 36L40 34L44 34L44 36L46 36L46 34L50 34L50 38L54 38L54 30L52 30L52 32L50 32L50 28L52 28L52 26L48 26L48 28L46 28L46 30L44 30L44 32L42 32L42 30L40 30L40 28L36 28L36 22L38 22L38 24L40 24L40 18L34 18L34 24L32 24L32 28L30 28L30 30L36 30L36 32L38 32L38 34L36 34L36 38L32 38L32 36L30 36L30 38L26 38L26 40L28 40L28 42L30 42L30 44L34 44L34 42L32 42L32 40L38 40L38 42L36 42L36 44L38 44ZM42 48L44 48L44 46L46 46L46 44L42 44ZM46 48L48 48L48 46L46 46ZM72 48L74 48L74 46L72 46ZM14 46L16 46L16 44L14 44ZM22 46L22 44L24 44L24 46ZM74 46L76 46L76 44L74 44ZM12 44L14 44L14 42L12 42ZM54 44L56 44L56 40L54 40ZM68 44L74 44L74 40L72 40L72 42L68 42ZM10 42L12 42L12 40L18 40L18 34L22 34L22 32L20 32L20 30L18 30L18 28L12 28L12 26L10 26L10 32L12 32L12 30L16 30L16 32L12 32L12 34L16 34L16 38L12 38L12 36L10 36ZM64 42L68 42L68 40L72 40L72 38L68 38L68 36L60 36L60 40L62 40L62 38L64 38ZM22 40L24 40L24 38L22 38ZM56 40L58 40L58 36L56 36ZM74 40L78 40L78 36L74 36ZM24 38L26 38L26 34L22 34L22 36L24 36ZM46 38L48 38L48 36L46 36ZM80 38L82 38L82 36L80 36ZM28 36L30 36L30 30L28 30ZM58 36L60 36L60 34L58 34ZM68 36L74 36L74 34L76 34L76 32L78 32L78 26L68 26L68 12L66 12L66 14L64 14L64 16L66 16L66 18L64 18L64 20L66 20L66 24L64 24L64 26L66 26L66 28L64 28L64 30L62 30L62 28L60 28L60 26L58 26L58 30L60 30L60 32L64 32L64 34L66 34L66 30L68 30L68 28L74 28L74 32L72 32L72 34L68 34ZM78 36L80 36L80 32L78 32ZM56 34L58 34L58 30L56 30ZM22 32L24 32L24 30L22 30ZM68 32L70 32L70 30L68 30ZM24 30L28 30L28 28L30 28L30 26L28 26L28 22L30 22L30 24L32 24L32 18L30 18L30 20L28 20L28 18L30 18L30 16L32 16L32 12L28 12L28 16L26 16L26 26L22 26L22 28L24 28ZM54 30L56 30L56 28L54 28ZM80 30L82 30L82 28L80 28ZM18 28L20 28L20 26L18 26ZM40 28L44 28L44 22L46 22L46 18L44 18L44 16L42 16L42 24L40 24ZM82 28L84 28L84 26L82 26ZM52 26L54 26L54 24L52 24ZM56 26L58 26L58 24L56 24ZM10 24L24 24L24 10L10 10ZM46 24L48 24L48 22L46 22ZM50 24L52 24L52 20L48 20L48 22L50 22ZM54 24L56 24L56 22L54 22ZM58 24L60 24L60 22L58 22ZM62 24L64 24L64 20L62 20L62 18L64 18L64 16L60 16L60 22L62 22ZM70 24L84 24L84 10L70 10ZM12 22L12 12L22 12L22 22ZM72 22L72 12L82 12L82 22ZM14 20L20 20L20 14L14 14ZM56 20L58 20L58 18L56 18ZM74 20L80 20L80 14L74 14ZM32 18L34 18L34 16L32 16ZM46 18L48 18L48 16L46 16ZM34 16L36 16L36 14L34 14ZM38 16L40 16L40 14L38 14ZM44 16L46 16L46 14L44 14ZM52 16L54 16L54 12L52 12ZM58 16L60 16L60 14L62 14L62 12L66 12L66 10L60 10L60 12L56 12L56 14L58 14ZM36 14L38 14L38 12L36 12ZM40 14L42 14L42 12L40 12ZM46 14L50 14L50 12L52 12L52 10L48 10L48 12L46 12ZM26 12L28 12L28 10L26 10ZM34 12L36 12L36 10L34 10ZM38 12L40 12L40 10L38 10ZM44 12L46 12L46 10L44 10Z" fill="#000000" fill-rule="evenodd" />
</svg>
