<svg viewBox="0 0 87 87" xmlns="http://www.w3.org/2000/svg">
<rect width="100%" height="100%" fill="#FFFFFF" />
<path d="M0 0L0 87L87 87L87 0ZM2 2L85 2L85 85L2 85Z" fill="#ffffff" fill-rule="evenodd" />
<path d="M10 76L24 76L24 62L10 62ZM26 76L28 76L28 74L26 74ZM30 76L32 76L32 74L30 74ZM36 76L38 76L38 74L44 74L44 72L46 72L46 70L44 70L44 68L46 68L46 70L48 70L48 64L50 64L50 60L48 60L48 56L52 56L52 52L50 52L50 42L48 42L48 40L50 40L50 38L52 38L52 36L54 36L54 34L52 34L52 22L54 22L54 18L56 18L56 16L54 16L54 14L52 14L52 12L50 12L50 14L48 14L48 12L42 12L42 14L46 14L46 18L44 18L44 16L42 16L42 14L40 14L40 12L34 12L34 16L36 16L36 14L38 14L38 18L34 18L34 26L36 26L36 22L38 22L38 26L40 26L40 20L42 20L42 24L44 24L44 20L46 20L46 24L48 24L48 20L50 20L50 28L48 28L48 30L44 30L44 32L46 32L46 34L44 34L44 32L42 32L42 40L40 40L40 42L42 42L42 46L48 46L48 54L46 54L46 48L42 48L42 46L40 46L40 48L38 48L38 46L40 46L40 42L38 42L38 44L36 44L36 48L34 48L34 50L30 50L30 52L26 52L26 54L32 54L32 56L26 56L26 64L28 64L28 62L30 62L30 66L28 66L28 70L26 70L26 72L28 72L28 74L30 74L30 72L32 72L32 70L30 70L30 68L32 68L32 64L34 64L34 62L32 62L32 60L34 60L34 58L38 58L38 56L34 56L34 54L36 54L36 50L38 50L38 56L42 56L42 54L40 54L40 52L42 52L42 50L44 50L44 56L46 56L46 62L44 62L44 64L46 64L46 66L40 66L40 68L42 68L42 72L36 72ZM44 76L46 76L46 74L44 74ZM48 76L52 76L52 72L50 72L50 70L48 70ZM56 76L60 76L60 70L62 70L62 68L66 68L66 72L68 72L68 70L70 70L70 68L68 68L68 66L70 66L70 64L68 64L68 62L70 62L70 48L72 48L72 46L70 46L70 44L68 44L68 46L66 46L66 44L68 44L68 42L70 42L70 40L66 40L66 42L64 42L64 40L62 40L62 42L60 42L60 44L56 44L56 48L58 48L58 46L60 46L60 48L62 48L62 46L64 46L64 50L66 50L66 48L68 48L68 58L66 58L66 52L64 52L64 50L62 50L62 54L60 54L60 58L58 58L58 60L56 60L56 62L54 62L54 58L52 58L52 64L56 64L56 66L54 66L54 68L50 68L50 70L52 70L52 72L54 72L54 70L56 70L56 68L58 68L58 70L56 70ZM66 76L68 76L68 74L66 74ZM74 76L76 76L76 74L74 74ZM12 74L12 64L22 64L22 74ZM14 72L20 72L20 66L14 66ZM34 72L36 72L36 68L38 68L38 66L34 66ZM62 72L64 72L64 70L62 70ZM72 72L76 72L76 68L74 68L74 66L70 66L70 68L72 68ZM38 70L40 70L40 68L38 68ZM50 66L52 66L52 64L50 64ZM60 66L60 60L66 60L66 66ZM36 64L38 64L38 62L36 62ZM40 64L42 64L42 62L40 62ZM62 64L64 64L64 62L62 62ZM74 64L76 64L76 58L74 58ZM38 62L40 62L40 60L42 60L42 62L44 62L44 58L38 58ZM10 60L20 60L20 58L18 58L18 56L16 56L16 58L10 58ZM22 60L24 60L24 58L22 58ZM28 60L28 58L30 58L30 60ZM20 58L22 58L22 56L26 56L26 54L22 54L22 52L24 52L24 50L22 50L22 48L20 48L20 46L18 46L18 44L16 44L16 42L18 42L18 40L20 40L20 34L18 34L18 36L12 36L12 38L14 38L14 42L12 42L12 44L14 44L14 48L16 48L16 54L18 54L18 50L20 50L20 54L18 54L18 56L20 56ZM54 58L56 58L56 56L58 56L58 54L56 54L56 52L58 52L58 50L54 50ZM10 56L14 56L14 50L12 50L12 44L10 44L10 52L12 52L12 54L10 54ZM74 56L76 56L76 54L74 54ZM58 54L60 54L60 52L58 52ZM72 54L74 54L74 52L72 52ZM74 52L76 52L76 50L74 50ZM24 50L26 50L26 48L34 48L34 46L22 46L22 48L24 48ZM58 50L60 50L60 48L58 48ZM74 48L76 48L76 46L74 46ZM20 46L22 46L22 44L24 44L24 42L22 42L22 40L20 40L20 42L18 42L18 44L20 44ZM32 44L36 44L36 42L34 42L34 40L28 40L28 42L32 42ZM44 44L44 36L46 36L46 44ZM52 44L54 44L54 42L52 42ZM70 44L76 44L76 42L74 42L74 40L72 40L72 42L70 42ZM36 42L38 42L38 40L36 40ZM50 42L52 42L52 40L50 40ZM54 42L56 42L56 40L58 40L58 38L54 38ZM22 40L24 40L24 38L22 38ZM34 40L36 40L36 38L34 38ZM64 40L66 40L66 34L64 34L64 32L66 32L66 26L64 26L64 30L58 30L58 26L56 26L56 22L54 22L54 30L56 30L56 32L54 32L54 34L56 34L56 36L58 36L58 38L64 38ZM74 40L76 40L76 38L74 38ZM24 38L26 38L26 36L24 36ZM30 38L34 38L34 34L32 34L32 36L30 36ZM36 38L40 38L40 32L42 32L42 30L36 30L36 28L34 28L34 26L32 26L32 28L30 28L30 24L28 24L28 30L30 30L30 32L38 32L38 34L36 34ZM72 38L74 38L74 36L76 36L76 34L74 34L74 32L76 32L76 26L74 26L74 28L72 28L72 34L70 34L70 36L72 36ZM10 36L12 36L12 34L10 34ZM22 36L24 36L24 34L22 34ZM28 36L30 36L30 32L28 32L28 30L26 30L26 34L28 34ZM60 36L60 34L62 34L62 36ZM12 34L14 34L14 32L12 32ZM20 34L22 34L22 32L24 32L24 30L22 30L22 28L20 28ZM48 34L48 32L50 32L50 34ZM66 34L70 34L70 28L68 28L68 32L66 32ZM10 32L12 32L12 30L10 30ZM14 32L18 32L18 28L16 28L16 30L14 30ZM24 30L26 30L26 26L22 26L22 28L24 28ZM42 30L44 30L44 26L40 26L40 28L42 28ZM10 28L12 28L12 26L10 26ZM14 28L16 28L16 26L14 26ZM70 28L72 28L72 26L70 26ZM10 24L24 24L24 10L10 10ZM26 24L28 24L28 22L30 22L30 20L32 20L32 18L30 18L30 16L28 16L28 20L26 20ZM30 24L32 24L32 22L30 22ZM58 24L60 24L60 20L58 20ZM62 24L76 24L76 10L62 10ZM12 22L12 12L22 12L22 22ZM64 22L64 12L74 12L74 22ZM14 20L20 20L20 14L14 14ZM66 20L72 20L72 14L66 14ZM32 18L34 18L34 16L32 16ZM50 18L50 16L52 16L52 18ZM26 16L28 16L28 14L26 14ZM30 16L32 16L32 14L30 14ZM58 16L60 16L60 12L58 12ZM28 14L30 14L30 12L32 12L32 10L26 10L26 12L28 12ZM40 12L42 12L42 10L40 10ZM48 12L50 12L50 10L48 10ZM52 12L54 12L54 10L52 10Z" fill="#000000" fill-rule="evenodd" />
</svg>
