<svg viewBox="0 0 79 79" xmlns="http://www.w3.org/2000/svg">
<rect width="100%" height="100%" fill="#FFFFFF" />
<path d="M0 0L0 79L79 79L79 0ZM2 2L77 2L77 77L2 77Z" fill="#ffffff" fill-rule="evenodd" />
<path d="M10 68L24 68L24 54L10 54ZM26 68L28 68L28 66L26 66ZM30 68L34 68L34 66L30 66ZM38 68L40 68L40 66L42 66L42 68L54 68L54 64L52 64L52 66L50 66L50 62L48 62L48 64L46 64L46 66L44 66L44 64L46 64L46 62L48 62L48 60L46 60L46 58L44 58L44 50L42 50L42 46L40 46L40 40L38 40L38 46L36 46L36 50L34 50L34 56L32 56L32 58L40 58L40 62L42 62L42 64L36 64L36 66L38 66ZM60 68L66 68L66 64L64 64L64 66L62 66L62 64L64 64L64 62L60 62ZM12 66L12 56L22 56L22 66ZM56 66L58 66L58 60L62 60L62 58L60 58L60 56L62 56L62 52L64 52L64 56L66 56L66 52L68 52L68 50L64 50L64 46L60 46L60 48L56 48L56 50L52 50L52 48L48 48L48 44L50 44L50 46L52 46L52 44L54 44L54 40L56 40L56 38L54 38L54 36L52 36L52 42L48 42L48 40L46 40L46 44L44 44L44 46L46 46L46 48L44 48L44 50L46 50L46 52L48 52L48 50L50 50L50 52L48 52L48 54L50 54L50 62L54 62L54 60L56 60ZM14 64L20 64L20 58L14 58ZM26 64L36 64L36 62L38 62L38 60L34 60L34 62L32 62L32 60L26 60ZM66 64L68 64L68 60L66 60ZM64 60L66 60L66 58L64 58ZM26 58L30 58L30 56L28 56L28 54L30 54L30 52L32 52L32 50L34 50L34 48L32 48L32 44L30 44L30 42L28 42L28 44L26 44L26 46L28 46L28 48L30 48L30 50L28 50L28 48L24 48L24 50L26 50ZM52 58L52 52L58 52L58 58ZM30 56L32 56L32 54L30 54ZM36 56L36 52L42 52L42 56L40 56L40 54L38 54L38 56ZM54 56L56 56L56 54L54 54ZM12 52L16 52L16 50L12 50ZM20 52L24 52L24 50L22 50L22 48L20 48ZM16 50L18 50L18 48L16 48ZM10 48L12 48L12 46L10 46ZM14 48L16 48L16 46L14 46ZM18 48L20 48L20 44L18 44ZM22 48L24 48L24 46L22 46ZM52 48L56 48L56 46L52 46ZM56 46L58 46L58 44L56 44ZM64 46L68 46L68 44L64 44ZM20 44L26 44L26 42L20 42ZM32 44L36 44L36 40L34 40L34 42L32 42ZM42 44L44 44L44 40L42 40ZM58 44L64 44L64 42L62 42L62 40L64 40L64 38L66 38L66 40L64 40L64 42L68 42L68 32L66 32L66 34L64 34L64 36L60 36L60 38L58 38ZM16 42L18 42L18 38L20 38L20 40L24 40L24 38L22 38L22 36L20 36L20 34L18 34L18 36L16 36L16 34L14 34L14 40L16 40ZM30 42L32 42L32 40L30 40ZM10 40L12 40L12 38L10 38ZM32 40L34 40L34 38L36 38L36 32L38 32L38 30L42 30L42 28L44 28L44 26L46 26L46 24L44 24L44 20L46 20L46 24L48 24L48 22L50 22L50 24L52 24L52 20L48 20L48 18L50 18L50 14L48 14L48 12L46 12L46 16L44 16L44 18L42 18L42 20L40 20L40 22L42 22L42 24L40 24L40 28L38 28L38 26L36 26L36 30L34 30L34 34L32 34ZM36 40L38 40L38 38L36 38ZM48 40L50 40L50 36L46 36L46 38L48 38ZM24 38L30 38L30 36L26 36L26 32L24 32L24 34L22 34L22 36L24 36ZM38 38L44 38L44 36L40 36L40 34L38 34ZM44 36L46 36L46 34L44 34ZM50 36L52 36L52 34L50 34ZM58 36L60 36L60 34L58 34ZM16 34L18 34L18 32L16 32ZM20 34L22 34L22 32L24 32L24 30L20 30L20 28L18 28L18 32L20 32ZM30 34L32 34L32 26L30 26L30 30L28 30L28 32L30 32ZM40 34L42 34L42 32L40 32ZM46 34L50 34L50 32L48 32L48 28L50 28L50 26L46 26L46 30L44 30L44 32L46 32ZM10 32L12 32L12 30L10 30ZM52 32L54 32L54 30L52 30ZM56 32L66 32L66 30L62 30L62 26L60 26L60 28L56 28L56 26L54 26L54 30L56 30ZM12 30L14 30L14 28L12 28ZM50 30L52 30L52 28L50 28ZM66 30L68 30L68 26L64 26L64 28L66 28ZM10 28L12 28L12 26L10 26ZM14 28L18 28L18 26L14 26ZM20 28L26 28L26 26L20 26ZM26 26L30 26L30 24L28 24L28 22L26 22ZM10 24L24 24L24 10L10 10ZM30 24L32 24L32 22L30 22ZM34 24L36 24L36 22L34 22ZM38 24L40 24L40 22L38 22ZM54 24L68 24L68 10L54 10ZM12 22L12 12L22 12L22 22ZM28 22L30 22L30 20L32 20L32 14L34 14L34 20L36 20L36 14L38 14L38 12L42 12L42 10L34 10L34 12L30 12L30 14L28 14L28 16L30 16L30 18L28 18ZM36 22L38 22L38 20L36 20ZM56 22L56 12L66 12L66 22ZM14 20L20 20L20 14L14 14ZM38 20L40 20L40 18L42 18L42 16L38 16ZM58 20L64 20L64 14L58 14ZM26 18L28 18L28 16L26 16ZM42 16L44 16L44 12L42 12ZM26 14L28 14L28 10L26 10ZM50 14L52 14L52 10L48 10L48 12L50 12Z" fill="#000000" fill-rule="evenodd" />
</svg>
