<svg viewBox="0 0 55 47" xmlns="http://www.w3.org/2000/svg">
<rect width="100%" height="100%" fill="#FFFFFF" />
<path d="M0 0L0 47L55 47L55 0ZM2 2L53 2L53 45L2 45Z" fill="#ffffff" fill-rule="evenodd" />
<path d="M6 40L10 40L10 34L6 34L6 36L8 36L8 38L6 38ZM12 40L14 40L14 6L12 6ZM42 40L44 40L44 38L42 38ZM42 36L44 36L44 34L42 34ZM6 32L8 32L8 30L6 30ZM42 32L44 32L44 30L42 30ZM16 30L18 30L18 28L16 28ZM20 30L22 30L22 28L20 28ZM24 30L26 30L26 28L24 28ZM28 30L30 30L30 28L28 28ZM32 30L34 30L34 28L32 28ZM36 30L38 30L38 28L36 28ZM40 30L42 30L42 28L40 28ZM44 30L46 30L46 28L44 28ZM6 28L8 28L8 26L6 26ZM42 28L44 28L44 26L42 26ZM6 24L10 24L10 22L6 22ZM42 24L44 24L44 22L42 22ZM6 20L8 20L8 18L6 18ZM42 20L44 20L44 18L42 18ZM16 18L18 18L18 16L16 16ZM20 18L22 18L22 16L20 16ZM24 18L26 18L26 16L24 16ZM28 18L30 18L30 16L28 16ZM32 18L34 18L34 16L32 16ZM36 18L38 18L38 16L36 16ZM40 18L42 18L42 16L40 16ZM44 18L46 18L46 16L44 16ZM6 16L8 16L8 14L6 14ZM42 16L44 16L44 14L42 14ZM6 12L10 12L10 6L6 6L6 8L8 8L8 10L6 10ZM42 12L44 12L44 10L42 10ZM42 8L44 8L44 6L42 6Z" fill="#ffffff" fill-rule="evenodd" />
<path d="M4 42L50 42L50 4L4 4ZM6 40L6 38L8 38L8 36L6 36L6 34L8 34L8 32L6 32L6 30L8 30L8 28L6 28L6 26L8 26L8 24L6 24L6 22L8 22L8 20L6 20L6 18L8 18L8 16L6 16L6 14L8 14L8 12L6 12L6 10L8 10L8 8L6 8L6 6L10 6L10 40ZM12 40L12 6L48 6L48 16L46 16L46 18L48 18L48 28L46 28L46 30L48 30L48 40ZM42 38L44 38L44 36L42 36ZM42 34L44 34L44 32L42 32ZM14 30L16 30L16 28L14 28ZM18 30L20 30L20 28L18 28ZM22 30L24 30L24 28L22 28ZM26 30L28 30L28 28L26 28ZM30 30L32 30L32 28L30 28ZM34 30L36 30L36 28L34 28ZM38 30L40 30L40 28L38 28ZM42 30L44 30L44 28L42 28ZM42 26L44 26L44 24L42 24ZM42 22L44 22L44 20L42 20ZM14 18L16 18L16 16L14 16ZM18 18L20 18L20 16L18 16ZM22 18L24 18L24 16L22 16ZM26 18L28 18L28 16L26 16ZM30 18L32 18L32 16L30 16ZM34 18L36 18L36 16L34 16ZM38 18L40 18L40 16L38 16ZM42 18L44 18L44 16L42 16ZM42 14L44 14L44 12L42 12ZM42 10L44 10L44 8L42 8Z" fill="#000000" fill-rule="evenodd" />
<path d="M14 40L16 40L16 38L14 38ZM20 40L22 40L22 38L20 38ZM44 40L48 40L48 38L44 38ZM16 38L18 38L18 36L16 36ZM18 36L20 36L20 34L18 34ZM22 36L32 36L32 34L22 34ZM34 36L42 36L42 34L34 34ZM16 34L18 34L18 32L16 32ZM20 32L24 32L24 30L20 30ZM28 32L42 32L42 30L28 30ZM44 32L48 32L48 30L44 30ZM8 30L10 30L10 28L8 28ZM14 28L16 28L16 26L14 26ZM32 28L38 28L38 26L32 26ZM16 26L18 26L18 24L16 24ZM22 26L24 26L24 24L22 24ZM28 26L30 26L30 24L28 24ZM46 26L48 26L48 24L46 24ZM18 24L20 24L20 22L18 22ZM24 24L28 24L28 22L24 22ZM30 24L38 24L38 22L30 22ZM40 24L42 24L42 22L40 22ZM44 24L46 24L46 22L44 22ZM20 22L22 22L22 20L20 20ZM46 22L48 22L48 20L46 20ZM8 20L10 20L10 18L8 18ZM14 20L16 20L16 18L14 18ZM22 20L24 20L24 18L22 18ZM26 20L32 20L32 18L26 18ZM38 20L42 20L42 18L38 18ZM14 16L16 16L16 14L14 14ZM32 16L36 16L36 14L32 14ZM8 14L10 14L10 12L8 12ZM28 14L30 14L30 12L28 12ZM40 14L42 14L42 12L40 12ZM18 12L20 12L20 10L18 10ZM24 12L28 12L28 10L24 10ZM30 12L34 12L34 10L30 10ZM36 12L40 12L40 10L36 10ZM46 12L48 12L48 10L46 10ZM20 10L22 10L22 8L20 8ZM24 8L30 8L30 6L24 6ZM34 8L36 8L36 6L34 6ZM38 8L42 8L42 6L38 6ZM44 8L48 8L48 6L44 6Z" fill="#00ffff" fill-rule="evenodd" />
<path d="M22 40L28 40L28 38L22 38ZM30 40L34 40L34 38L30 38ZM34 38L36 38L36 36L34 36ZM38 38L40 38L40 36L38 36ZM46 38L48 38L48 36L46 36ZM14 36L16 36L16 34L14 34ZM32 36L34 36L34 34L32 34ZM44 36L46 36L46 34L44 34ZM18 34L20 34L20 32L18 32ZM46 34L48 34L48 32L46 32ZM8 32L10 32L10 30L8 30ZM14 32L16 32L16 30L14 30ZM24 32L28 32L28 30L24 30ZM16 28L18 28L18 26L16 26ZM22 28L26 28L26 26L22 26ZM30 28L32 28L32 26L30 26ZM40 28L42 28L42 26L40 26ZM8 26L10 26L10 24L8 24ZM18 26L20 26L20 24L18 24ZM14 24L16 24L16 22L14 22ZM20 24L22 24L22 22L20 22ZM28 24L30 24L30 22L28 22ZM38 24L40 24L40 22L38 22ZM16 22L18 22L18 20L16 20ZM22 22L24 22L24 20L22 20ZM18 20L20 20L20 18L18 18ZM24 20L26 20L26 18L24 18ZM32 20L38 20L38 18L32 18ZM44 20L46 20L46 18L44 18ZM8 16L10 16L10 14L8 14ZM16 16L20 16L20 14L16 14ZM30 16L32 16L32 14L30 14ZM38 16L42 16L42 14L38 14ZM46 16L48 16L48 14L46 14ZM24 14L28 14L28 12L24 12ZM20 12L22 12L22 10L20 10ZM28 12L30 12L30 10L28 10ZM34 12L36 12L36 10L34 10ZM40 12L42 12L42 10L40 10ZM44 12L46 12L46 10L44 10ZM14 10L18 10L18 8L14 8ZM20 8L22 8L22 6L20 6ZM30 8L34 8L34 6L30 6ZM36 8L38 8L38 6L36 6Z" fill="#ff00ff" fill-rule="evenodd" />
<path d="M16 40L18 40L18 38L16 38ZM36 40L38 40L38 38L36 38ZM40 40L42 40L42 38L40 38ZM14 38L16 38L16 36L14 36ZM18 38L26 38L26 36L18 36ZM28 38L34 38L34 36L28 36ZM44 38L46 38L46 36L44 36ZM46 36L48 36L48 34L46 34ZM8 34L10 34L10 32L8 32ZM14 34L16 34L16 32L14 32ZM20 34L22 34L22 32L20 32ZM24 34L28 34L28 32L24 32ZM16 32L18 32L18 30L16 30ZM44 28L48 28L48 26L44 26ZM20 26L22 26L22 24L20 24ZM26 26L28 26L28 24L26 24ZM30 26L32 26L32 24L30 24ZM38 26L42 26L42 24L38 24ZM22 24L24 24L24 22L22 22ZM46 24L48 24L48 22L46 22ZM14 22L16 22L16 20L14 20ZM24 22L26 22L26 20L24 20ZM32 22L38 22L38 20L32 20ZM44 22L46 22L46 20L44 20ZM16 20L18 20L18 18L16 18ZM46 20L48 20L48 18L46 18ZM20 16L24 16L24 14L20 14ZM28 16L30 16L30 14L28 14ZM36 16L38 16L38 14L36 14ZM14 14L20 14L20 12L14 12ZM34 14L36 14L36 12L34 12ZM38 14L40 14L40 12L38 12ZM44 14L48 14L48 12L44 12ZM22 12L24 12L24 10L22 10ZM18 10L20 10L20 8L18 8ZM30 10L34 10L34 8L30 8ZM36 10L38 10L38 8L36 8ZM22 8L24 8L24 6L22 6Z" fill="#ffff00" fill-rule="evenodd" />
<path d="M18 40L20 40L20 38L18 38ZM28 40L30 40L30 38L28 38ZM34 40L36 40L36 38L34 38ZM38 40L40 40L40 38L38 38ZM26 38L28 38L28 36L26 36ZM36 38L38 38L38 36L36 36ZM40 38L42 38L42 36L40 36ZM16 36L18 36L18 34L16 34ZM20 36L22 36L22 34L20 34ZM22 34L24 34L24 32L22 32ZM28 34L42 34L42 32L28 32ZM44 34L46 34L46 32L44 32ZM18 32L20 32L20 30L18 30ZM8 28L10 28L10 26L8 26ZM18 28L22 28L22 26L18 26ZM26 28L30 28L30 26L26 26ZM38 28L40 28L40 26L38 26ZM14 26L16 26L16 24L14 24ZM24 26L26 26L26 24L24 24ZM32 26L38 26L38 24L32 24ZM44 26L46 26L46 24L44 24ZM16 24L18 24L18 22L16 22ZM8 22L10 22L10 20L8 20ZM18 22L20 22L20 20L18 20ZM26 22L32 22L32 20L26 20ZM38 22L42 22L42 20L38 20ZM20 20L22 20L22 18L20 18ZM8 18L10 18L10 16L8 16ZM24 16L28 16L28 14L24 14ZM44 16L46 16L46 14L44 14ZM20 14L24 14L24 12L20 12ZM30 14L34 14L34 12L30 12ZM36 14L38 14L38 12L36 12ZM14 12L18 12L18 10L14 10ZM22 10L30 10L30 8L22 8ZM34 10L36 10L36 8L34 8ZM38 10L42 10L42 8L38 8ZM44 10L48 10L48 8L44 8ZM14 8L20 8L20 6L14 6Z" fill="#00ff00" fill-rule="evenodd" />
</svg>
