<svg viewBox="0 0 131 43" xmlns="http://www.w3.org/2000/svg">
<rect width="100%" height="100%" fill="#FFFFFF" />
<path d="M0 0L0 43L131 43L131 0ZM2 2L129 2L129 41L2 41Z" fill="#ffffff" fill-rule="evenodd" />
<path d="M6 36L12 36L12 30L10 30L10 34L8 34L8 30L6 30ZM14 36L16 36L16 34L14 34ZM18 36L20 36L20 32L22 32L22 30L24 30L24 34L26 34L26 36L28 36L28 34L30 34L30 30L28 30L28 32L26 32L26 28L22 28L22 26L20 26L20 30L18 30L18 32L16 32L16 34L18 34ZM22 36L24 36L24 34L22 34ZM30 36L32 36L32 34L30 34ZM34 36L36 36L36 34L38 34L38 36L40 36L40 30L42 30L42 28L46 28L46 26L42 26L42 24L40 24L40 22L32 22L32 18L34 18L34 16L28 16L28 20L30 20L30 22L28 22L28 20L26 20L26 24L28 24L28 26L36 26L36 24L38 24L38 26L40 26L40 28L38 28L38 32L32 32L32 34L34 34ZM42 36L48 36L48 30L50 30L50 36L52 36L52 30L54 30L54 28L56 28L56 26L52 26L52 24L48 24L48 22L42 22L42 24L46 24L46 26L48 26L48 28L46 28L46 30L42 30ZM54 36L56 36L56 34L58 34L58 36L60 36L60 32L58 32L58 30L56 30L56 32L54 32ZM62 36L64 36L64 34L66 34L66 36L68 36L68 32L62 32ZM70 36L72 36L72 34L70 34ZM74 36L76 36L76 34L74 34ZM78 36L80 36L80 34L82 34L82 36L88 36L88 30L84 30L84 28L80 28L80 30L82 30L82 32L80 32L80 30L78 30ZM90 36L92 36L92 32L90 32ZM94 36L96 36L96 34L94 34ZM98 36L100 36L100 34L102 34L102 32L98 32ZM102 36L104 36L104 34L102 34ZM106 36L108 36L108 34L106 34ZM110 36L112 36L112 34L110 34ZM114 36L124 36L124 26L120 26L120 24L116 24L116 26L114 26L114 24L112 24L112 28L110 28L110 20L108 20L108 22L106 22L106 24L104 24L104 26L100 26L100 28L106 28L106 26L108 26L108 30L110 30L110 32L112 32L112 34L114 34ZM44 34L44 32L46 32L46 34ZM72 34L74 34L74 30L72 30L72 28L70 28L70 32L72 32ZM84 34L84 32L86 32L86 34ZM104 34L106 34L106 30L104 30ZM108 34L110 34L110 32L108 32ZM116 34L116 28L122 28L122 34ZM60 32L62 32L62 30L60 30ZM92 32L98 32L98 30L100 30L100 28L96 28L96 30L92 30ZM118 32L120 32L120 30L118 30ZM12 30L14 30L14 26L10 26L10 28L12 28ZM16 30L18 30L18 26L16 26ZM30 30L36 30L36 28L30 28ZM62 30L68 30L68 28L66 28L66 26L64 26L64 28L62 28ZM74 30L78 30L78 28L80 28L80 26L78 26L78 24L76 24L76 26L72 26L72 28L74 28ZM90 30L92 30L92 24L88 24L88 26L84 26L84 28L90 28ZM6 28L8 28L8 26L6 26ZM26 28L28 28L28 26L26 26ZM36 28L38 28L38 26L36 26ZM58 28L60 28L60 26L58 26ZM94 28L96 28L96 24L94 24ZM8 26L10 26L10 24L14 24L14 22L6 22L6 24L8 24ZM14 26L16 26L16 24L14 24ZM22 26L24 26L24 22L18 22L18 24L22 24ZM68 26L72 26L72 24L70 24L70 22L66 22L66 24L68 24ZM98 26L100 26L100 24L98 24ZM52 24L56 24L56 22L58 22L58 24L60 24L60 22L62 22L62 20L64 20L64 18L66 18L66 20L72 20L72 22L76 22L76 20L74 20L74 16L76 16L76 20L78 20L78 16L80 16L80 14L84 14L84 12L88 12L88 10L92 10L92 6L90 6L90 8L88 8L88 6L82 6L82 12L78 12L78 14L76 14L76 12L74 12L74 14L72 14L72 12L70 12L70 16L72 16L72 18L68 18L68 16L62 16L62 18L60 18L60 20L52 20ZM62 24L64 24L64 22L62 22ZM80 24L86 24L86 22L82 22L82 20L80 20ZM92 24L94 24L94 22L92 22ZM96 24L98 24L98 22L96 22ZM102 24L104 24L104 22L102 22ZM114 24L116 24L116 22L114 22ZM120 24L124 24L124 22L122 22L122 20L124 20L124 18L118 18L118 16L120 16L120 12L116 12L116 14L114 14L114 12L112 12L112 16L114 16L114 18L110 18L110 20L118 20L118 22L120 22ZM48 22L50 22L50 20L48 20ZM86 22L88 22L88 20L90 20L90 18L88 18L88 16L86 16L86 18L84 18L84 20L86 20ZM6 20L20 20L20 6L6 6ZM22 20L24 20L24 16L26 16L26 14L24 14L24 12L28 12L28 10L30 10L30 8L28 8L28 6L26 6L26 10L22 10ZM34 20L38 20L38 16L42 16L42 18L44 18L44 16L46 16L46 18L44 18L44 20L48 20L48 18L50 18L50 16L54 16L54 12L56 12L56 10L54 10L54 8L52 8L52 6L50 6L50 10L52 10L52 14L48 14L48 12L50 12L50 10L48 10L48 6L42 6L42 8L40 8L40 10L42 10L42 12L40 12L40 14L36 14L36 18L34 18ZM40 20L42 20L42 18L40 18ZM50 20L52 20L52 18L50 18ZM96 20L108 20L108 16L104 16L104 12L102 12L102 18L100 18L100 16L98 16L98 18L96 18ZM8 18L8 8L18 8L18 18ZM54 18L60 18L60 16L58 16L58 14L56 14L56 16L54 16ZM80 18L84 18L84 16L80 16ZM94 18L96 18L96 16L94 16ZM10 16L16 16L16 10L10 10ZM60 16L62 16L62 14L60 14ZM84 16L86 16L86 14L84 14ZM90 16L94 16L94 14L96 14L96 16L98 16L98 12L96 12L96 10L94 10L94 12L90 12ZM122 16L124 16L124 14L122 14ZM30 14L32 14L32 12L34 12L34 8L32 8L32 10L30 10ZM34 14L36 14L36 12L34 12ZM44 14L44 12L46 12L46 14ZM62 14L68 14L68 12L66 12L66 10L64 10L64 12L62 12ZM36 12L40 12L40 10L36 10ZM58 12L60 12L60 10L58 10ZM72 12L74 12L74 10L72 10ZM76 12L78 12L78 10L80 10L80 6L78 6L78 8L76 8ZM98 12L102 12L102 10L98 10ZM104 12L112 12L112 10L108 10L108 6L106 6L106 8L104 8ZM114 12L116 12L116 6L114 6ZM120 12L124 12L124 6L118 6L118 10L120 10L120 8L122 8L122 10L120 10ZM44 10L44 8L46 8L46 10ZM68 10L72 10L72 6L70 6L70 8L68 8ZM84 10L84 8L86 8L86 10ZM22 8L24 8L24 6L22 6ZM30 8L32 8L32 6L30 6ZM34 8L36 8L36 6L34 6ZM38 8L40 8L40 6L38 6ZM54 8L56 8L56 6L54 6ZM58 8L60 8L60 6L58 6ZM62 8L64 8L64 6L62 6ZM66 8L68 8L68 6L66 6ZM74 8L76 8L76 6L74 6ZM94 8L96 8L96 6L94 6ZM98 8L100 8L100 6L98 6ZM102 8L104 8L104 6L102 6ZM110 8L112 8L112 6L110 6Z" fill="#000000" fill-rule="evenodd" />
</svg>
