<svg viewBox="0 0 87 87" xmlns="http://www.w3.org/2000/svg">
<rect width="100%" height="100%" fill="#FFFFFF" />
<path d="M0 0L0 87L87 87L87 0ZM2 2L85 2L85 85L2 85Z" fill="#ffffff" fill-rule="evenodd" />
<path d="M10 76L24 76L24 62L10 62ZM26 76L34 76L34 74L32 74L32 70L28 70L28 66L30 66L30 64L26 64L26 72L28 72L28 74L26 74ZM36 76L42 76L42 74L44 74L44 70L42 70L42 68L44 68L44 66L46 66L46 64L42 64L42 62L38 62L38 64L40 64L40 68L38 68L38 70L34 70L34 72L40 72L40 74L36 74ZM44 76L48 76L48 74L50 74L50 72L48 72L48 70L50 70L50 68L48 68L48 66L46 66L46 74L44 74ZM54 76L56 76L56 74L58 74L58 72L64 72L64 76L66 76L66 74L72 74L72 72L66 72L66 70L58 70L58 68L56 68L56 72L54 72L54 70L50 70L50 72L52 72L52 74L54 74ZM58 76L62 76L62 74L58 74ZM72 76L74 76L74 74L72 74ZM12 74L12 64L22 64L22 74ZM14 72L20 72L20 66L14 66ZM32 70L34 70L34 68L38 68L38 66L32 66ZM66 70L68 70L68 66L72 66L72 64L74 64L74 62L72 62L72 60L68 60L68 58L64 58L64 56L62 56L62 54L60 54L60 58L58 58L58 62L56 62L56 64L54 64L54 62L56 62L56 60L52 60L52 64L48 64L48 66L50 66L50 68L52 68L52 66L54 66L54 68L56 68L56 66L58 66L58 68L66 68ZM70 70L74 70L74 66L72 66L72 68L70 68ZM60 66L60 60L66 60L66 66ZM74 66L76 66L76 64L74 64ZM32 64L36 64L36 62L32 62ZM62 64L64 64L64 62L62 62ZM68 64L68 62L70 62L70 64ZM26 62L32 62L32 60L30 60L30 58L28 58L28 56L26 56L26 58L22 58L22 60L26 60ZM42 62L46 62L46 60L42 60ZM48 62L50 62L50 60L52 60L52 58L48 58L48 56L46 56L46 60L48 60ZM74 62L76 62L76 58L74 58ZM10 60L12 60L12 54L14 54L14 52L12 52L12 50L16 50L16 48L14 48L14 46L10 46ZM32 60L34 60L34 56L30 56L30 58L32 58ZM40 60L42 60L42 56L46 56L46 54L42 54L42 46L36 46L36 48L40 48L40 50L38 50L38 56L40 56ZM14 58L16 58L16 56L14 56ZM36 58L38 58L38 56L36 56ZM52 58L54 58L54 56L56 56L56 54L60 54L60 52L52 52ZM56 58L58 58L58 56L56 56ZM68 58L72 58L72 54L76 54L76 52L70 52L70 50L68 50L68 48L62 48L62 50L64 50L64 52L68 52L68 54L64 54L64 56L68 56ZM16 56L20 56L20 54L16 54ZM22 56L24 56L24 54L22 54ZM34 56L36 56L36 52L32 52L32 54L34 54ZM20 54L22 54L22 52L20 52ZM24 54L26 54L26 52L28 52L28 50L22 50L22 52L24 52ZM28 54L30 54L30 52L28 52ZM48 54L50 54L50 52L52 52L52 50L48 50ZM62 54L64 54L64 52L62 52ZM16 52L18 52L18 50L16 50ZM30 52L32 52L32 50L34 50L34 48L30 48L30 46L34 46L34 44L32 44L32 40L30 40L30 42L26 42L26 44L24 44L24 46L28 46L28 50L30 50ZM60 52L62 52L62 50L60 50ZM18 50L20 50L20 48L18 48ZM44 50L48 50L48 48L44 48ZM52 50L54 50L54 48L56 48L56 46L54 46L54 44L52 44L52 46L50 46L50 48L52 48ZM56 50L60 50L60 48L56 48ZM70 50L72 50L72 48L70 48ZM74 50L76 50L76 48L74 48ZM20 48L24 48L24 46L22 46L22 44L24 44L24 42L20 42L20 44L18 44L18 42L16 42L16 46L20 46ZM60 48L62 48L62 46L64 46L64 44L60 44ZM68 48L70 48L70 46L68 46ZM42 46L50 46L50 44L46 44L46 42L44 42L44 44L42 44ZM56 46L58 46L58 44L56 44ZM70 46L76 46L76 44L70 44ZM10 44L14 44L14 40L12 40L12 38L10 38ZM40 44L42 44L42 40L40 40ZM50 44L52 44L52 42L50 42ZM54 44L56 44L56 42L54 42ZM58 44L60 44L60 42L64 42L64 40L60 40L60 38L64 38L64 40L66 40L66 36L52 36L52 38L50 38L50 40L52 40L52 42L54 42L54 38L58 38L58 40L56 40L56 42L58 42ZM64 44L70 44L70 42L64 42ZM18 42L20 42L20 40L18 40ZM34 42L38 42L38 36L36 36L36 34L34 34L34 30L32 30L32 34L30 34L30 30L32 30L32 28L28 28L28 34L26 34L26 32L24 32L24 34L22 34L22 36L26 36L26 38L22 38L22 36L20 36L20 40L30 40L30 38L28 38L28 36L32 36L32 40L34 40ZM48 42L50 42L50 40L48 40ZM70 42L76 42L76 40L74 40L74 38L72 38L72 40L70 40ZM14 38L16 38L16 36L18 36L18 34L16 34L16 32L12 32L12 26L10 26L10 36L12 36L12 34L14 34ZM40 38L42 38L42 36L40 36ZM48 38L50 38L50 36L48 36ZM70 38L72 38L72 36L70 36ZM74 38L76 38L76 36L74 36ZM42 36L44 36L44 34L42 34ZM46 36L48 36L48 34L50 34L50 36L52 36L52 34L54 34L54 32L52 32L52 30L50 30L50 32L48 32L48 30L46 30ZM66 36L70 36L70 34L66 34ZM72 36L74 36L74 34L72 34ZM18 34L22 34L22 32L24 32L24 30L22 30L22 28L24 28L24 26L14 26L14 30L20 30L20 32L18 32ZM40 34L42 34L42 32L44 32L44 28L48 28L48 26L42 26L42 30L40 30ZM56 34L58 34L58 32L56 32ZM60 34L62 34L62 30L64 30L64 32L66 32L66 28L68 28L68 32L70 32L70 34L72 34L72 30L76 30L76 28L72 28L72 26L62 26L62 28L52 28L52 30L58 30L58 32L60 32ZM74 34L76 34L76 32L74 32ZM24 30L26 30L26 28L24 28ZM38 30L40 30L40 28L38 28ZM48 30L50 30L50 28L48 28ZM50 28L52 28L52 26L50 26ZM26 26L36 26L36 22L34 22L34 24L32 24L32 22L34 22L34 20L30 20L30 24L28 24L28 18L32 18L32 16L36 16L36 12L34 12L34 14L32 14L32 12L30 12L30 14L26 14ZM40 26L42 26L42 24L40 24ZM52 26L56 26L56 22L54 22L54 24L52 24ZM58 26L60 26L60 22L58 22ZM10 24L24 24L24 10L10 10ZM38 24L40 24L40 22L42 22L42 20L44 20L44 18L42 18L42 16L40 16L40 10L36 10L36 12L38 12L38 18L40 18L40 20L38 20ZM42 24L44 24L44 22L42 22ZM46 24L48 24L48 20L44 20L44 22L46 22ZM50 24L52 24L52 22L54 22L54 18L48 18L48 20L50 20ZM62 24L76 24L76 10L62 10ZM12 22L12 12L22 12L22 22ZM64 22L64 12L74 12L74 22ZM14 20L20 20L20 14L14 14ZM56 20L60 20L60 18L58 18L58 16L56 16L56 12L54 12L54 14L50 14L50 16L54 16L54 18L56 18ZM66 20L72 20L72 14L66 14ZM46 18L48 18L48 14L46 14ZM42 16L44 16L44 14L42 14ZM58 16L60 16L60 12L58 12ZM44 14L46 14L46 12L44 12ZM32 12L34 12L34 10L32 10ZM48 12L50 12L50 10L48 10ZM52 12L54 12L54 10L52 10ZM56 12L58 12L58 10L56 10Z" fill="#000000" fill-rule="evenodd" />
</svg>
