<svg viewBox="0 0 95 95" xmlns="http://www.w3.org/2000/svg">
<rect width="100%" height="100%" fill="#FFFFFF" />
<path d="M0 0L0 95L95 95L95 0ZM2 2L93 2L93 93L2 93Z" fill="#ffffff" fill-rule="evenodd" />
<path d="M10 84L24 84L24 70L10 70ZM26 84L28 84L28 82L26 82ZM30 84L36 84L36 80L40 80L40 78L38 78L38 76L40 76L40 78L42 78L42 74L44 74L44 72L46 72L46 68L44 68L44 70L42 70L42 66L38 66L38 64L36 64L36 70L38 70L38 68L40 68L40 72L34 72L34 74L30 74L30 76L32 76L32 78L34 78L34 80L32 80L32 78L30 78L30 76L26 76L26 80L30 80ZM38 84L42 84L42 82L38 82ZM44 84L46 84L46 82L44 82ZM48 84L50 84L50 82L52 82L52 78L50 78L50 80L48 80L48 78L50 78L50 74L52 74L52 72L48 72L48 74L46 74L46 82L48 82ZM54 84L56 84L56 80L54 80ZM58 84L64 84L64 80L60 80L60 82L58 82ZM68 84L70 84L70 82L68 82ZM76 84L84 84L84 82L80 82L80 80L78 80L78 78L76 78L76 76L78 76L78 72L76 72L76 68L78 68L78 70L80 70L80 72L84 72L84 66L82 66L82 68L80 68L80 66L72 66L72 64L70 64L70 62L76 62L76 60L80 60L80 58L82 58L82 60L80 60L80 66L82 66L82 62L84 62L84 56L80 56L80 54L74 54L74 56L76 56L76 58L74 58L74 60L72 60L72 58L70 58L70 56L68 56L68 54L70 54L70 50L66 50L66 56L64 56L64 58L62 58L62 56L60 56L60 58L58 58L58 62L60 62L60 64L62 64L62 62L66 62L66 58L68 58L68 62L66 62L66 64L68 64L68 66L66 66L66 64L62 64L62 66L64 66L64 68L66 68L66 72L64 72L64 74L66 74L66 76L64 76L64 78L70 78L70 80L72 80L72 82L76 82ZM12 82L12 72L22 72L22 82ZM42 82L44 82L44 78L42 78ZM14 80L20 80L20 74L14 74ZM56 80L60 80L60 78L58 78L58 76L56 76ZM52 78L54 78L54 74L52 74ZM72 78L72 76L74 76L74 78ZM82 78L84 78L84 76L82 76ZM62 76L64 76L64 74L62 74ZM80 76L82 76L82 74L80 74ZM26 74L30 74L30 70L32 70L32 72L34 72L34 66L30 66L30 68L26 68ZM54 74L56 74L56 70L58 70L58 68L54 68L54 70L52 70L52 72L54 72ZM58 74L60 74L60 72L62 72L62 66L60 66L60 70L58 70ZM68 74L68 68L74 68L74 74ZM70 72L72 72L72 70L70 70ZM50 70L52 70L52 68L54 68L54 64L52 64L52 66L50 66ZM20 68L26 68L26 64L28 64L28 66L30 66L30 64L36 64L36 62L34 62L34 56L32 56L32 58L28 58L28 56L26 56L26 54L30 54L30 52L28 52L28 48L26 48L26 52L24 52L24 54L22 54L22 52L20 52L20 56L24 56L24 58L20 58L20 62L22 62L22 60L26 60L26 62L22 62L22 64L24 64L24 66L22 66L22 64L20 64L20 62L18 62L18 64L16 64L16 62L18 62L18 60L16 60L16 58L14 58L14 52L12 52L12 56L10 56L10 60L12 60L12 64L14 64L14 66L20 66ZM46 68L48 68L48 64L46 64ZM10 66L12 66L12 64L10 64ZM42 66L44 66L44 62L46 62L46 60L42 60L42 62L40 62L40 64L42 64ZM48 64L50 64L50 60L48 60ZM76 64L78 64L78 62L76 62ZM38 62L40 62L40 60L38 60ZM36 60L38 60L38 56L36 56ZM40 60L42 60L42 58L40 58ZM46 60L48 60L48 58L46 58ZM50 60L52 60L52 58L50 58ZM54 60L56 60L56 56L58 56L58 52L60 52L60 48L56 48L56 54L54 54L54 50L52 50L52 52L50 52L50 50L48 50L48 52L46 52L46 54L44 54L44 56L48 56L48 54L52 54L52 56L54 56ZM18 58L20 58L20 56L18 56ZM48 58L50 58L50 56L48 56ZM30 56L32 56L32 54L30 54ZM38 56L40 56L40 48L44 48L44 46L46 46L46 48L44 48L44 50L42 50L42 54L44 54L44 52L46 52L46 50L48 50L48 44L50 44L50 46L52 46L52 48L56 48L56 46L54 46L54 44L56 44L56 46L58 46L58 42L60 42L60 40L64 40L64 38L66 38L66 34L68 34L68 38L72 38L72 40L74 40L74 38L76 38L76 34L74 34L74 32L70 32L70 28L68 28L68 26L66 26L66 30L68 30L68 32L60 32L60 34L58 34L58 40L56 40L56 38L54 38L54 40L50 40L50 42L46 42L46 44L44 44L44 38L46 38L46 40L50 40L50 34L48 34L48 36L46 36L46 34L44 34L44 36L40 36L40 38L42 38L42 40L40 40L40 42L42 42L42 46L36 46L36 48L34 48L34 54L38 54ZM62 56L64 56L64 54L62 54ZM16 54L18 54L18 50L16 50ZM80 54L82 54L82 52L80 52ZM10 52L12 52L12 46L14 46L14 44L20 44L20 42L18 42L18 40L24 40L24 38L22 38L22 36L20 36L20 34L12 34L12 38L14 38L14 36L18 36L18 38L16 38L16 40L12 40L12 42L10 42ZM22 52L24 52L24 50L22 50ZM30 52L32 52L32 46L36 46L36 42L38 42L38 36L36 36L36 38L32 38L32 36L30 36L30 34L32 34L32 36L34 36L34 32L36 32L36 30L32 30L32 32L30 32L30 30L28 30L28 28L26 28L26 32L24 32L24 34L28 34L28 36L26 36L26 40L34 40L34 44L32 44L32 42L30 42L30 44L28 44L28 48L30 48ZM36 52L36 50L38 50L38 52ZM62 52L64 52L64 48L66 48L66 44L64 44L64 46L62 46ZM72 52L78 52L78 48L76 48L76 50L74 50L74 48L70 48L70 50L72 50ZM14 50L16 50L16 46L14 46ZM18 50L22 50L22 48L20 48L20 46L18 46ZM22 48L24 48L24 46L22 46ZM68 48L70 48L70 46L74 46L74 44L68 44ZM80 48L84 48L84 44L82 44L82 40L80 40L80 42L76 42L76 46L80 46ZM22 44L24 44L24 42L22 42ZM26 44L28 44L28 42L26 42ZM38 44L40 44L40 42L38 42ZM60 44L64 44L64 42L60 42ZM64 42L70 42L70 40L64 40ZM76 40L78 40L78 38L76 38ZM78 38L84 38L84 32L76 32L76 34L78 34ZM22 36L24 36L24 34L22 34ZM54 36L56 36L56 34L54 34ZM10 34L12 34L12 32L10 32ZM36 34L38 34L38 32L36 32ZM40 34L42 34L42 30L46 30L46 32L48 32L48 30L54 30L54 26L52 26L52 28L50 28L50 26L52 26L52 22L54 22L54 24L56 24L56 20L50 20L50 14L48 14L48 12L52 12L52 10L42 10L42 12L46 12L46 16L48 16L48 20L46 20L46 24L48 24L48 22L50 22L50 24L48 24L48 26L46 26L46 24L44 24L44 22L42 22L42 28L40 28L40 30L38 30L38 32L40 32ZM50 34L52 34L52 32L50 32ZM18 32L24 32L24 30L22 30L22 28L26 28L26 26L20 26L20 30L18 30ZM54 32L58 32L58 28L60 28L60 26L58 26L58 24L56 24L56 30L54 30ZM74 32L76 32L76 30L74 30ZM12 30L14 30L14 28L12 28ZM36 30L38 30L38 28L36 28ZM72 30L74 30L74 28L72 28ZM76 30L78 30L78 26L76 26ZM10 28L12 28L12 26L10 26ZM14 28L18 28L18 26L14 26ZM30 28L36 28L36 22L38 22L38 20L34 20L34 18L30 18L30 14L34 14L34 12L36 12L36 16L38 16L38 14L40 14L40 10L32 10L32 12L28 12L28 10L26 10L26 14L28 14L28 16L26 16L26 18L28 18L28 20L32 20L32 22L34 22L34 26L32 26L32 22L30 22ZM38 28L40 28L40 26L38 26ZM62 28L64 28L64 26L62 26ZM70 28L72 28L72 26L70 26ZM80 28L84 28L84 26L80 26ZM26 26L28 26L28 22L26 22ZM10 24L24 24L24 10L10 10ZM38 24L40 24L40 22L38 22ZM58 24L60 24L60 22L58 22ZM62 24L64 24L64 22L62 22ZM66 24L68 24L68 16L66 16L66 18L64 18L64 16L62 16L62 14L64 14L64 12L60 12L60 14L58 14L58 20L60 20L60 22L62 22L62 20L66 20ZM70 24L84 24L84 10L70 10ZM12 22L12 12L22 12L22 22ZM40 22L42 22L42 20L44 20L44 18L46 18L46 16L44 16L44 14L42 14L42 18L38 18L38 20L40 20ZM72 22L72 12L82 12L82 22ZM14 20L20 20L20 14L14 14ZM74 20L80 20L80 14L74 14ZM34 18L36 18L36 16L34 16ZM54 18L56 18L56 16L54 16ZM64 16L66 16L66 14L64 14ZM56 14L58 14L58 10L54 10L54 12L56 12ZM66 14L68 14L68 10L66 10Z" fill="#000000" fill-rule="evenodd" />
</svg>
