<svg viewBox="0 0 87 87" xmlns="http://www.w3.org/2000/svg">
<rect width="100%" height="100%" fill="#FFFFFF" />
<path d="M0 0L0 87L87 87L87 0ZM2 2L85 2L85 85L2 85Z" fill="#ffffff" fill-rule="evenodd" />
<path d="M10 76L24 76L24 62L10 62ZM26 76L32 76L32 74L34 74L34 72L30 72L30 74L26 74ZM38 76L40 76L40 74L38 74ZM42 76L44 76L44 72L46 72L46 70L42 70L42 72L40 72L40 74L42 74ZM48 76L52 76L52 74L48 74ZM54 76L60 76L60 72L58 72L58 70L56 70L56 74L54 74ZM62 76L66 76L66 72L62 72ZM68 76L70 76L70 74L68 74ZM12 74L12 64L22 64L22 74ZM36 74L38 74L38 72L36 72ZM70 74L76 74L76 68L70 68L70 70L68 70L68 68L70 68L70 66L72 66L72 62L68 62L68 58L72 58L72 56L66 56L66 58L64 58L64 54L72 54L72 56L76 56L76 52L72 52L72 50L76 50L76 40L72 40L72 36L70 36L70 38L68 38L68 40L64 40L64 42L68 42L68 44L64 44L64 42L62 42L62 44L60 44L60 46L56 46L56 48L60 48L60 50L66 50L66 46L68 46L68 50L66 50L66 52L62 52L62 54L58 54L58 52L54 52L54 58L56 58L56 56L62 56L62 58L56 58L56 60L54 60L54 66L56 66L56 68L58 68L58 70L60 70L60 72L62 72L62 68L66 68L66 72L70 72ZM14 72L20 72L20 66L14 66ZM34 72L36 72L36 70L38 70L38 72L40 72L40 68L30 68L30 70L34 70ZM48 72L52 72L52 68L50 68L50 70L48 70ZM26 70L28 70L28 68L30 68L30 64L32 64L32 66L34 66L34 62L30 62L30 60L26 60ZM40 68L42 68L42 62L40 62L40 64L36 64L36 66L40 66ZM44 68L48 68L48 66L44 66ZM50 66L52 66L52 62L48 62L48 60L46 60L46 64L50 64ZM60 66L60 60L66 60L66 66ZM74 66L76 66L76 64L74 64ZM56 64L56 62L58 62L58 64ZM62 64L64 64L64 62L62 62ZM34 62L36 62L36 60L34 60ZM38 62L40 62L40 60L38 60ZM42 62L44 62L44 60L42 60ZM72 62L74 62L74 60L72 60ZM10 60L14 60L14 58L12 58L12 52L10 52ZM18 60L24 60L24 58L22 58L22 56L14 56L14 58L18 58ZM40 60L42 60L42 58L40 58ZM44 60L46 60L46 58L48 58L48 60L52 60L52 58L50 58L50 56L48 56L48 54L50 54L50 52L42 52L42 54L40 54L40 52L38 52L38 56L42 56L42 58L44 58ZM74 60L76 60L76 58L74 58ZM28 58L32 58L32 56L34 56L34 58L36 58L36 54L32 54L32 52L30 52L30 54L26 54L26 52L24 52L24 54L22 54L22 56L28 56ZM44 56L44 54L46 54L46 56ZM18 54L22 54L22 52L24 52L24 50L20 50L20 52L18 52ZM14 52L18 52L18 50L14 50ZM58 52L60 52L60 50L58 50ZM12 50L14 50L14 48L12 48ZM26 50L30 50L30 48L32 48L32 50L34 50L34 48L36 48L36 44L38 44L38 42L36 42L36 38L38 38L38 36L40 36L40 32L42 32L42 30L44 30L44 28L42 28L42 26L38 26L38 24L36 24L36 28L40 28L40 30L38 30L38 34L36 34L36 36L34 36L34 46L30 46L30 44L28 44L28 48L26 48ZM38 50L42 50L42 48L44 48L44 46L40 46L40 48L38 48ZM44 50L48 50L48 48L44 48ZM50 50L52 50L52 48L50 48ZM54 50L56 50L56 48L54 48ZM16 48L20 48L20 46L22 46L22 44L24 44L24 46L22 46L22 48L26 48L26 44L28 44L28 42L32 42L32 40L24 40L24 42L22 42L22 40L18 40L18 42L16 42L16 44L18 44L18 46L16 46ZM48 48L50 48L50 46L48 46ZM52 48L54 48L54 46L52 46ZM62 48L62 46L64 46L64 48ZM72 48L72 46L70 46L70 42L74 42L74 48ZM14 46L16 46L16 44L14 44ZM46 46L48 46L48 44L46 44ZM50 46L52 46L52 44L50 44ZM10 44L14 44L14 42L10 42ZM54 44L60 44L60 42L58 42L58 40L56 40L56 36L54 36L54 38L52 38L52 40L54 40ZM38 42L42 42L42 40L38 40ZM46 42L50 42L50 32L48 32L48 34L46 34L46 32L48 32L48 30L50 30L50 32L54 32L54 30L52 30L52 22L50 22L50 24L48 24L48 22L46 22L46 26L48 26L48 28L46 28L46 30L44 30L44 32L42 32L42 40L46 40L46 36L48 36L48 40L46 40ZM10 40L12 40L12 36L14 36L14 34L10 34ZM14 40L16 40L16 36L14 36ZM22 40L24 40L24 38L22 38ZM58 40L60 40L60 38L58 38ZM26 38L32 38L32 36L30 36L30 28L28 28L28 34L22 34L22 32L20 32L20 34L18 34L18 36L26 36ZM60 38L62 38L62 36L60 36ZM64 38L66 38L66 36L70 36L70 34L68 34L68 32L66 32L66 34L64 34L64 30L68 30L68 26L66 26L66 28L62 28L62 30L60 30L60 32L62 32L62 36L64 36ZM74 38L76 38L76 34L74 34ZM52 36L54 36L54 34L52 34ZM58 36L60 36L60 32L58 32L58 28L56 28L56 34L58 34ZM16 34L18 34L18 32L20 32L20 30L22 30L22 28L24 28L24 30L22 30L22 32L26 32L26 28L28 28L28 26L16 26L16 28L14 28L14 30L12 30L12 32L16 32ZM34 34L36 34L36 28L32 28L32 32L34 32ZM70 34L74 34L74 32L76 32L76 30L74 30L74 28L76 28L76 26L70 26ZM10 30L12 30L12 26L10 26ZM44 28L46 28L46 26L44 26ZM60 28L62 28L62 26L60 26ZM28 26L30 26L30 24L28 24ZM56 26L60 26L60 20L54 20L54 18L52 18L52 16L50 16L50 14L52 14L52 12L48 12L48 14L46 14L46 12L42 12L42 16L48 16L48 18L50 18L50 20L52 20L52 22L54 22L54 24L56 24L56 22L58 22L58 24L56 24ZM10 24L24 24L24 10L10 10ZM26 24L28 24L28 22L26 22ZM30 24L32 24L32 20L30 20ZM34 24L36 24L36 22L34 22ZM38 24L40 24L40 20L42 20L42 18L36 18L36 20L38 20ZM42 24L44 24L44 22L42 22ZM62 24L76 24L76 10L62 10ZM12 22L12 12L22 12L22 22ZM64 22L64 12L74 12L74 22ZM14 20L20 20L20 14L14 14ZM26 20L30 20L30 16L28 16L28 18L26 18ZM32 20L34 20L34 18L36 18L36 16L32 16ZM44 20L48 20L48 18L44 18ZM66 20L72 20L72 14L66 14ZM56 18L60 18L60 14L58 14L58 16L56 16ZM26 16L28 16L28 12L30 12L30 10L26 10ZM52 16L56 16L56 12L54 12L54 14L52 14ZM32 14L36 14L36 12L34 12L34 10L32 10ZM38 12L42 12L42 10L38 10ZM52 12L54 12L54 10L52 10Z" fill="#000000" fill-rule="evenodd" />
</svg>
