<svg viewBox="0 0 79 79" xmlns="http://www.w3.org/2000/svg">
<rect width="100%" height="100%" fill="#FFFFFF" />
<path d="M0 0L0 79L79 79L79 0ZM2 2L77 2L77 77L2 77Z" fill="#ffffff" fill-rule="evenodd" />
<path d="M10 68L24 68L24 54L10 54ZM26 68L28 68L28 66L26 66ZM30 68L34 68L34 66L32 66L32 64L28 64L28 66L30 66ZM44 68L46 68L46 64L48 64L48 66L50 66L50 68L54 68L54 66L52 66L52 64L50 64L50 60L60 60L60 56L62 56L62 52L60 52L60 50L58 50L58 48L56 48L56 46L60 46L60 50L62 50L62 48L64 48L64 46L62 46L62 44L66 44L66 40L68 40L68 36L66 36L66 34L64 34L64 42L62 42L62 40L58 40L58 44L52 44L52 46L54 46L54 48L52 48L52 50L48 50L48 52L50 52L50 56L48 56L48 52L46 52L46 54L44 54L44 52L42 52L42 54L40 54L40 56L42 56L42 62L44 62L44 58L48 58L48 60L46 60L46 62L44 62L44 64L42 64L42 62L38 62L38 60L40 60L40 56L38 56L38 58L36 58L36 60L34 60L34 64L36 64L36 66L44 66ZM58 68L60 68L60 66L58 66ZM64 68L66 68L66 66L68 66L68 60L66 60L66 62L64 62ZM12 66L12 56L22 56L22 66ZM54 66L58 66L58 64L54 64ZM60 66L62 66L62 62L60 62ZM14 64L20 64L20 58L14 58ZM62 62L64 62L64 60L62 60ZM26 60L28 60L28 58L26 58ZM30 60L34 60L34 56L32 56L32 54L34 54L34 52L32 52L32 50L28 50L28 48L26 48L26 56L28 56L28 52L30 52L30 56L28 56L28 58L30 58ZM52 58L52 52L58 52L58 58ZM64 58L66 58L66 56L64 56ZM54 56L56 56L56 54L54 54ZM66 56L68 56L68 54L66 54ZM36 54L40 54L40 52L38 52L38 48L40 48L40 50L44 50L44 52L46 52L46 50L48 50L48 48L42 48L42 46L50 46L50 44L46 44L46 40L48 40L48 38L44 38L44 40L42 40L42 42L44 42L44 44L42 44L42 42L40 42L40 40L38 40L38 42L36 42L36 44L40 44L40 46L36 46ZM10 52L14 52L14 50L10 50ZM16 52L18 52L18 46L16 46ZM20 52L24 52L24 50L20 50ZM62 52L66 52L66 50L68 50L68 46L66 46L66 48L64 48L64 50L62 50ZM32 50L34 50L34 48L32 48ZM22 48L24 48L24 46L22 46ZM30 48L32 48L32 46L30 46ZM50 48L52 48L52 46L50 46ZM10 46L12 46L12 44L10 44ZM14 46L16 46L16 44L14 44ZM20 46L22 46L22 44L26 44L26 46L30 46L30 44L28 44L28 42L22 42L22 40L20 40L20 42L16 42L16 44L20 44ZM32 46L34 46L34 42L32 42ZM12 44L14 44L14 42L16 42L16 40L14 40L14 36L12 36L12 34L10 34L10 42L12 42ZM50 44L52 44L52 40L54 40L54 38L62 38L62 32L56 32L56 34L60 34L60 36L52 36L52 38L50 38ZM30 42L32 42L32 40L30 40ZM34 42L36 42L36 38L34 38L34 34L32 34L32 40L34 40ZM54 42L56 42L56 40L54 40ZM16 40L20 40L20 38L16 38ZM22 40L24 40L24 38L22 38ZM26 40L28 40L28 38L26 38ZM40 40L42 40L42 38L40 38ZM36 38L40 38L40 36L38 36L38 32L40 32L40 36L42 36L42 32L44 32L44 30L36 30L36 32L34 32L34 34L36 34ZM42 38L44 38L44 36L42 36ZM48 38L50 38L50 34L48 34ZM14 36L20 36L20 34L18 34L18 32L16 32L16 28L14 28L14 32L12 32L12 34L14 34ZM22 36L26 36L26 34L30 34L30 30L22 30L22 28L20 28L20 26L18 26L18 30L20 30L20 34L22 34L22 32L24 32L24 34L22 34ZM44 34L46 34L46 32L44 32ZM66 34L68 34L68 26L66 26L66 28L62 28L62 32L66 32ZM10 32L12 32L12 30L10 30ZM46 32L48 32L48 28L46 28ZM50 32L52 32L52 30L50 30ZM54 32L56 32L56 30L60 30L60 28L62 28L62 26L52 26L52 28L54 28ZM32 30L36 30L36 28L34 28L34 26L32 26L32 22L34 22L34 20L36 20L36 22L38 22L38 26L36 26L36 28L42 28L42 26L40 26L40 22L42 22L42 20L40 20L40 18L42 18L42 20L46 20L46 18L52 18L52 16L50 16L50 14L52 14L52 12L46 12L46 14L48 14L48 16L46 16L46 14L44 14L44 12L42 12L42 14L40 14L40 16L38 16L38 18L36 18L36 16L34 16L34 12L32 12L32 14L30 14L30 18L32 18L32 20L30 20L30 24L28 24L28 20L30 20L30 18L28 18L28 16L26 16L26 26L22 26L22 28L32 28ZM10 28L12 28L12 26L10 26ZM48 28L50 28L50 26L48 26ZM34 26L36 26L36 22L34 22ZM44 26L48 26L48 22L50 22L50 26L52 26L52 20L46 20L46 24L44 24ZM10 24L24 24L24 10L10 10ZM42 24L44 24L44 22L42 22ZM54 24L68 24L68 10L54 10ZM12 22L12 12L22 12L22 22ZM56 22L56 12L66 12L66 22ZM14 20L20 20L20 14L14 14ZM58 20L64 20L64 14L58 14ZM36 16L38 16L38 14L36 14ZM28 14L30 14L30 12L32 12L32 10L26 10L26 12L28 12ZM44 12L46 12L46 10L44 10Z" fill="#000000" fill-rule="evenodd" />
</svg>
