<svg viewBox="0 0 131 43" xmlns="http://www.w3.org/2000/svg">
<rect width="100%" height="100%" fill="#FFFFFF" />
<path d="M0 0L0 43L131 43L131 0ZM2 2L129 2L129 41L2 41Z" fill="#ffffff" fill-rule="evenodd" />
<path d="M6 36L12 36L12 34L8 34L8 30L6 30ZM14 36L16 36L16 32L14 32L14 30L12 30L12 34L14 34ZM18 36L20 36L20 32L26 32L26 30L22 30L22 28L20 28L20 26L16 26L16 28L18 28ZM22 36L24 36L24 34L22 34ZM26 36L28 36L28 32L26 32ZM30 36L32 36L32 34L30 34ZM34 36L36 36L36 34L34 34ZM38 36L40 36L40 34L38 34ZM42 36L48 36L48 34L50 34L50 30L38 30L38 32L42 32ZM50 36L52 36L52 34L50 34ZM54 36L56 36L56 34L54 34ZM58 36L60 36L60 34L58 34ZM62 36L64 36L64 34L62 34ZM66 36L68 36L68 34L66 34ZM70 36L72 36L72 32L70 32L70 30L66 30L66 32L68 32L68 34L70 34ZM74 36L76 36L76 34L74 34ZM78 36L80 36L80 32L78 32ZM82 36L88 36L88 32L90 32L90 36L92 36L92 34L94 34L94 32L96 32L96 28L94 28L94 26L92 26L92 30L90 30L90 28L88 28L88 30L84 30L84 28L88 28L88 26L84 26L84 24L86 24L86 22L82 22L82 24L80 24L80 26L78 26L78 28L82 28L82 30L80 30L80 32L82 32ZM94 36L96 36L96 34L94 34ZM98 36L100 36L100 34L98 34ZM102 36L104 36L104 32L102 32ZM106 36L108 36L108 34L106 34ZM110 36L112 36L112 34L110 34ZM114 36L124 36L124 26L120 26L120 24L116 24L116 26L114 26L114 24L112 24L112 28L110 28L110 24L108 24L108 22L104 22L104 20L96 20L96 16L100 16L100 12L102 12L102 8L100 8L100 6L98 6L98 10L96 10L96 12L98 12L98 14L96 14L96 12L94 12L94 14L90 14L90 12L92 12L92 10L94 10L94 8L92 8L92 6L90 6L90 8L88 8L88 6L82 6L82 8L80 8L80 6L78 6L78 10L80 10L80 12L82 12L82 14L78 14L78 12L76 12L76 14L74 14L74 18L76 18L76 16L80 16L80 20L82 20L82 16L86 16L86 14L84 14L84 12L86 12L86 14L88 14L88 16L90 16L90 22L92 22L92 24L100 24L100 22L102 22L102 24L106 24L106 26L104 26L104 28L106 28L106 30L104 30L104 32L108 32L108 30L110 30L110 32L112 32L112 34L114 34ZM44 34L44 32L46 32L46 34ZM84 34L84 32L86 32L86 34ZM108 34L110 34L110 32L108 32ZM116 34L116 28L122 28L122 34ZM54 32L56 32L56 30L58 30L58 32L60 32L60 30L62 30L62 28L64 28L64 26L66 26L66 28L72 28L72 30L74 30L74 32L78 32L78 30L76 30L76 28L74 28L74 22L72 22L72 20L70 20L70 24L72 24L72 26L68 26L68 24L62 24L62 26L60 26L60 28L50 28L50 30L54 30ZM62 32L64 32L64 30L62 30ZM98 32L102 32L102 24L100 24L100 26L96 26L96 28L98 28ZM118 32L120 32L120 30L118 30ZM26 30L32 30L32 26L30 26L30 28L28 28L28 26L30 26L30 24L28 24L28 22L34 22L34 20L32 20L32 18L30 18L30 20L28 20L28 18L26 18L26 20L24 20L24 22L14 22L14 26L16 26L16 24L26 24L26 26L24 26L24 28L26 28ZM6 28L8 28L8 26L6 26ZM10 28L14 28L14 26L12 26L12 24L10 24L10 22L6 22L6 24L8 24L8 26L10 26ZM38 28L40 28L40 26L38 26ZM44 28L46 28L46 26L44 26ZM32 26L34 26L34 24L32 24ZM36 26L38 26L38 24L42 24L42 22L40 22L40 20L38 20L38 18L36 18L36 22L34 22L34 24L36 24ZM42 26L44 26L44 24L42 24ZM46 26L60 26L60 24L58 24L58 22L56 22L56 24L54 24L54 22L52 22L52 20L56 20L56 18L54 18L54 16L52 16L52 18L50 18L50 24L48 24L48 22L44 22L44 24L46 24ZM90 26L92 26L92 24L90 24ZM60 24L62 24L62 22L60 22ZM88 24L90 24L90 22L88 22ZM114 24L116 24L116 22L114 22ZM120 24L124 24L124 22L122 22L122 20L124 20L124 18L122 18L122 16L120 16ZM42 22L44 22L44 20L46 20L46 18L42 18L42 14L44 14L44 12L46 12L46 14L48 14L48 10L50 10L50 8L48 8L48 6L42 6L42 8L40 8L40 6L38 6L38 8L36 8L36 6L34 6L34 8L32 8L32 6L30 6L30 8L28 8L28 6L26 6L26 10L22 10L22 20L24 20L24 16L26 16L26 14L24 14L24 12L28 12L28 10L30 10L30 14L32 14L32 16L34 16L34 10L42 10L42 12L40 12L40 14L38 14L38 18L40 18L40 20L42 20ZM62 22L68 22L68 20L66 20L66 18L64 18L64 20L62 20ZM74 22L80 22L80 20L74 20ZM86 22L88 22L88 20L86 20ZM112 22L114 22L114 20L118 20L118 16L114 16L114 18L110 18L110 16L104 16L104 20L106 20L106 18L108 18L108 20L112 20ZM6 20L20 20L20 6L6 6ZM58 20L60 20L60 18L58 18ZM72 20L74 20L74 18L72 18ZM84 20L86 20L86 18L84 18ZM8 18L8 8L18 8L18 18ZM34 18L36 18L36 16L34 16ZM46 18L50 18L50 16L46 16ZM68 18L72 18L72 16L70 16L70 14L66 14L66 16L68 16ZM92 18L92 16L94 16L94 18ZM100 18L102 18L102 16L100 16ZM10 16L16 16L16 10L10 10ZM44 16L46 16L46 14L44 14ZM54 16L56 16L56 14L58 14L58 16L60 16L60 14L62 14L62 12L64 12L64 10L66 10L66 12L72 12L72 14L74 14L74 8L72 8L72 10L68 10L68 6L66 6L66 8L64 8L64 6L62 6L62 10L60 10L60 12L54 12L54 10L52 10L52 14L54 14ZM62 16L64 16L64 14L62 14ZM102 16L104 16L104 12L102 12ZM110 16L114 16L114 14L110 14ZM122 16L124 16L124 14L122 14ZM108 14L110 14L110 12L108 12ZM106 12L108 12L108 6L106 6L106 8L104 8L104 10L106 10ZM110 12L124 12L124 6L118 6L118 10L116 10L116 6L114 6L114 10L112 10L112 6L110 6ZM44 10L44 8L46 8L46 10ZM56 10L60 10L60 6L58 6L58 8L56 8ZM84 10L84 8L86 8L86 10ZM120 10L120 8L122 8L122 10ZM22 8L24 8L24 6L22 6ZM50 8L52 8L52 6L50 6ZM54 8L56 8L56 6L54 6ZM70 8L72 8L72 6L70 6ZM74 8L76 8L76 6L74 6ZM94 8L96 8L96 6L94 6ZM102 8L104 8L104 6L102 6Z" fill="#000000" fill-rule="evenodd" />
</svg>
