<svg viewBox="0 0 87 87" xmlns="http://www.w3.org/2000/svg">
<rect width="100%" height="100%" fill="#FFFFFF" />
<path d="M0 0L0 87L87 87L87 0ZM2 2L85 2L85 85L2 85Z" fill="#ffffff" fill-rule="evenodd" />
<path d="M10 76L24 76L24 62L10 62ZM26 76L28 76L28 74L26 74ZM32 76L38 76L38 74L40 74L40 72L38 72L38 68L36 68L36 70L34 70L34 72L36 72L36 74L34 74L34 72L28 72L28 74L32 74ZM44 76L48 76L48 74L50 74L50 76L52 76L52 68L56 68L56 70L58 70L58 74L60 74L60 70L62 70L62 68L68 68L68 64L70 64L70 70L72 70L72 64L74 64L74 62L72 62L72 54L70 54L70 56L68 56L68 58L58 58L58 60L56 60L56 58L54 58L54 60L52 60L52 62L58 62L58 66L56 66L56 64L54 64L54 66L50 66L50 72L48 72L48 70L46 70L46 74L44 74ZM54 76L56 76L56 70L54 70ZM64 76L72 76L72 74L76 74L76 70L72 70L72 72L70 72L70 70L64 70L64 72L68 72L68 74L64 74ZM12 74L12 64L22 64L22 74ZM14 72L20 72L20 66L14 66ZM40 72L42 72L42 70L40 70ZM26 70L28 70L28 68L30 68L30 60L26 60ZM30 70L32 70L32 68L30 68ZM42 70L46 70L46 68L48 68L48 66L46 66L46 64L44 64L44 68L42 68ZM38 68L42 68L42 66L40 66L40 64L42 64L42 62L46 62L46 60L44 60L44 58L42 58L42 60L40 60L40 62L38 62L38 64L32 64L32 66L38 66ZM74 68L76 68L76 64L74 64ZM60 66L60 60L66 60L66 66ZM46 64L50 64L50 62L46 62ZM62 64L64 64L64 62L62 62ZM32 62L36 62L36 60L40 60L40 58L38 58L38 56L36 56L36 54L32 54L32 56L34 56L34 58L32 58ZM68 62L68 60L70 60L70 62ZM74 62L76 62L76 58L74 58ZM10 60L16 60L16 56L14 56L14 58L12 58L12 52L10 52ZM18 60L20 60L20 56L18 56ZM22 60L24 60L24 58L22 58ZM46 60L48 60L48 56L50 56L50 60L52 60L52 56L56 56L56 52L54 52L54 54L46 54L46 52L44 52L44 54L42 54L42 56L44 56L44 58L46 58ZM24 58L30 58L30 56L24 56ZM56 58L58 58L58 56L56 56ZM20 56L24 56L24 54L20 54ZM58 56L66 56L66 54L68 54L68 50L66 50L66 52L62 52L62 54L60 54L60 52L58 52ZM74 56L76 56L76 54L74 54ZM14 54L18 54L18 52L20 52L20 50L14 50ZM24 54L26 54L26 52L24 52ZM28 54L30 54L30 52L28 52ZM72 54L74 54L74 52L72 52ZM22 52L24 52L24 50L22 50ZM30 52L32 52L32 50L30 50ZM34 52L44 52L44 48L46 48L46 46L44 46L44 42L42 42L42 44L40 44L40 50L38 50L38 48L36 48L36 46L34 46ZM48 52L50 52L50 50L48 50ZM52 52L54 52L54 50L52 50ZM74 52L76 52L76 50L74 50ZM10 50L12 50L12 48L10 48ZM20 50L22 50L22 48L20 48ZM24 50L30 50L30 46L28 46L28 44L24 44L24 46L26 46L26 48L24 48ZM46 50L48 50L48 48L46 48ZM50 50L52 50L52 48L56 48L56 50L66 50L66 48L68 48L68 50L74 50L74 48L76 48L76 44L74 44L74 46L72 46L72 48L70 48L70 46L68 46L68 44L70 44L70 46L72 46L72 42L76 42L76 40L70 40L70 34L68 34L68 32L66 32L66 36L68 36L68 38L66 38L66 40L68 40L68 42L66 42L66 44L64 44L64 38L66 38L66 36L64 36L64 34L62 34L62 32L60 32L60 28L58 28L58 26L56 26L56 28L52 28L52 36L54 36L54 38L56 38L56 36L58 36L58 34L56 34L56 32L54 32L54 30L56 30L56 32L58 32L58 34L60 34L60 36L62 36L62 40L60 40L60 38L56 38L56 40L58 40L58 44L60 44L60 42L62 42L62 44L60 44L60 48L58 48L58 46L54 46L54 44L52 44L52 46L50 46L50 42L46 42L46 44L48 44L48 48L50 48ZM12 48L14 48L14 46L12 46ZM18 48L20 48L20 46L22 46L22 44L18 44L18 40L16 40L16 36L14 36L14 38L10 38L10 40L14 40L14 42L16 42L16 44L14 44L14 46L18 46ZM22 48L24 48L24 46L22 46ZM62 48L62 46L64 46L64 48ZM32 46L34 46L34 42L36 42L36 40L34 40L34 36L30 36L30 38L28 38L28 40L26 40L26 42L30 42L30 40L32 40ZM36 46L38 46L38 44L36 44ZM10 44L12 44L12 42L10 42ZM22 44L24 44L24 42L22 42ZM38 44L40 44L40 42L42 42L42 40L54 40L54 38L50 38L50 36L46 36L46 38L44 38L44 36L46 36L46 34L48 34L48 30L50 30L50 28L46 28L46 26L44 26L44 28L40 28L40 30L38 30L38 32L40 32L40 34L36 34L36 38L40 38L40 36L42 36L42 38L40 38L40 40L38 40ZM20 42L22 42L22 40L20 40ZM22 40L26 40L26 38L28 38L28 36L26 36L26 34L22 34L22 36L24 36L24 38L22 38ZM18 38L22 38L22 36L18 36ZM72 38L74 38L74 36L76 36L76 34L72 34ZM10 36L14 36L14 34L20 34L20 30L18 30L18 28L20 28L20 30L22 30L22 28L24 28L24 30L22 30L22 32L26 32L26 30L32 30L32 28L34 28L34 26L32 26L32 22L30 22L30 28L28 28L28 26L16 26L16 28L14 28L14 32L12 32L12 30L10 30ZM26 34L28 34L28 32L26 32ZM30 34L32 34L32 32L30 32ZM34 34L36 34L36 30L34 30ZM70 34L72 34L72 32L70 32ZM42 32L42 30L44 30L44 32ZM68 32L70 32L70 30L72 30L72 32L76 32L76 26L70 26L70 28L68 28L68 26L66 26L66 28L64 28L64 30L68 30ZM10 28L12 28L12 26L10 26ZM36 28L38 28L38 26L40 26L40 22L42 22L42 26L44 26L44 20L46 20L46 18L40 18L40 16L38 16L38 20L36 20L36 14L40 14L40 10L38 10L38 12L36 12L36 10L32 10L32 18L34 18L34 20L32 20L32 22L34 22L34 24L36 24L36 22L38 22L38 24L36 24ZM60 28L62 28L62 26L60 26ZM46 26L52 26L52 22L50 22L50 24L48 24L48 22L46 22ZM54 26L56 26L56 22L58 22L58 26L60 26L60 20L58 20L58 18L52 18L52 20L54 20ZM10 24L24 24L24 10L10 10ZM26 24L28 24L28 22L26 22ZM62 24L76 24L76 10L62 10ZM12 22L12 12L22 12L22 22ZM28 22L30 22L30 20L28 20ZM64 22L64 12L74 12L74 22ZM14 20L20 20L20 14L14 14ZM26 20L28 20L28 18L26 18ZM30 20L32 20L32 18L30 18ZM66 20L72 20L72 14L66 14ZM28 18L30 18L30 12L28 12L28 10L26 10L26 16L28 16ZM46 18L48 18L48 16L46 16ZM50 18L52 18L52 14L50 14L50 12L48 12L48 16L50 16ZM58 18L60 18L60 16L58 16ZM40 16L42 16L42 14L40 14ZM54 14L56 14L56 10L54 10ZM58 14L60 14L60 12L58 12ZM46 12L48 12L48 10L46 10Z" fill="#000000" fill-rule="evenodd" />
</svg>
