<svg viewBox="0 0 95 95" xmlns="http://www.w3.org/2000/svg">
<rect width="100%" height="100%" fill="#FFFFFF" />
<path d="M0 0L0 95L95 95L95 0ZM2 2L93 2L93 93L2 93Z" fill="#ffffff" fill-rule="evenodd" />
<path d="M10 84L24 84L24 70L10 70ZM26 84L28 84L28 82L26 82ZM34 84L36 84L36 82L34 82ZM44 84L46 84L46 82L44 82ZM50 84L52 84L52 82L54 82L54 80L52 80L52 78L50 78ZM54 84L56 84L56 82L54 82ZM58 84L62 84L62 82L58 82ZM70 84L72 84L72 80L70 80ZM76 84L84 84L84 74L82 74L82 78L80 78L80 80L82 80L82 82L76 82ZM12 82L12 72L22 72L22 82ZM30 82L34 82L34 80L30 80ZM36 82L38 82L38 80L36 80ZM42 82L44 82L44 80L42 80ZM46 82L48 82L48 78L46 78ZM62 82L68 82L68 80L66 80L66 78L64 78L64 80L62 80ZM14 80L20 80L20 74L14 74ZM26 80L28 80L28 74L30 74L30 72L26 72ZM34 80L36 80L36 78L34 78ZM38 80L40 80L40 78L44 78L44 76L42 76L42 74L38 74L38 72L34 72L34 74L36 74L36 78L38 78ZM58 80L60 80L60 78L58 78ZM72 80L74 80L74 78L76 78L76 80L78 80L78 78L80 78L80 74L78 74L78 76L76 76L76 72L78 72L78 68L80 68L80 66L76 66L76 64L74 64L74 66L72 66L72 64L74 64L74 60L72 60L72 62L70 62L70 66L66 66L66 68L64 68L64 66L60 66L60 64L58 64L58 68L60 68L60 70L66 70L66 74L64 74L64 72L62 72L62 74L60 74L60 70L58 70L58 76L60 76L60 78L64 78L64 76L68 76L68 78L72 78ZM30 78L32 78L32 76L34 76L34 74L30 74ZM52 78L54 78L54 76L52 76ZM56 78L58 78L58 76L56 76ZM46 76L48 76L48 74L46 74ZM54 76L56 76L56 70L54 70L54 68L50 68L50 66L54 66L54 64L56 64L56 62L58 62L58 60L56 60L56 58L58 58L58 60L60 60L60 62L62 62L62 60L64 60L64 58L60 58L60 56L54 56L54 52L52 52L52 54L50 54L50 58L54 58L54 62L52 62L52 64L50 64L50 62L48 62L48 60L46 60L46 66L44 66L44 68L46 68L46 72L48 72L48 70L50 70L50 74L54 74ZM68 74L68 68L74 68L74 74ZM80 74L82 74L82 72L84 72L84 70L80 70ZM32 72L34 72L34 66L32 66ZM40 72L44 72L44 68L42 68L42 70L40 70ZM70 72L72 72L72 70L70 70ZM26 70L28 70L28 68L30 68L30 66L32 66L32 62L34 62L34 58L36 58L36 56L34 56L34 54L32 54L32 52L36 52L36 50L34 50L34 48L32 48L32 46L30 46L30 56L32 56L32 60L30 60L30 64L28 64L28 66L26 66ZM36 70L38 70L38 68L42 68L42 64L44 64L44 62L42 62L42 60L36 60L36 62L40 62L40 64L38 64L38 66L36 66ZM56 70L58 70L58 68L56 68ZM10 68L12 68L12 60L14 60L14 66L18 66L18 68L20 68L20 66L22 66L22 64L20 64L20 62L18 62L18 64L16 64L16 60L24 60L24 58L20 58L20 56L18 56L18 58L16 58L16 56L14 56L14 58L10 58ZM22 68L24 68L24 66L22 66ZM54 68L56 68L56 66L54 66ZM64 66L66 66L66 64L68 64L68 62L70 62L70 60L72 60L72 54L70 54L70 58L68 58L68 60L66 60L66 62L64 62ZM82 66L84 66L84 62L82 62L82 58L78 58L78 54L74 54L74 56L76 56L76 58L74 58L74 60L76 60L76 62L78 62L78 60L80 60L80 62L78 62L78 64L82 64ZM22 64L28 64L28 62L22 62ZM50 62L52 62L52 60L50 60ZM28 60L30 60L30 56L28 56ZM42 60L44 60L44 58L42 58ZM48 60L50 60L50 58L48 58ZM40 58L42 58L42 56L44 56L44 58L48 58L48 56L46 56L46 50L44 50L44 48L42 48L42 54L40 54ZM64 58L68 58L68 56L66 56L66 54L60 54L60 56L64 56ZM82 58L84 58L84 54L80 54L80 56L82 56ZM10 56L12 56L12 54L10 54ZM16 56L18 56L18 54L16 54ZM22 56L24 56L24 54L22 54ZM36 56L38 56L38 52L36 52ZM12 54L14 54L14 52L12 52ZM26 54L28 54L28 52L26 52ZM48 54L50 54L50 52L48 52ZM56 54L58 54L58 52L66 52L66 50L64 50L64 48L62 48L62 50L56 50L56 48L54 48L54 46L58 46L58 48L62 48L62 46L60 46L60 44L62 44L62 46L64 46L64 42L60 42L60 40L58 40L58 42L56 42L56 40L54 40L54 38L52 38L52 42L54 42L54 44L52 44L52 46L50 46L50 48L52 48L52 50L54 50L54 52L56 52ZM66 54L68 54L68 52L66 52ZM72 54L74 54L74 52L72 52ZM18 52L24 52L24 50L20 50L20 48L26 48L26 46L28 46L28 44L24 44L24 46L16 46L16 50L18 50ZM70 52L72 52L72 50L74 50L74 44L76 44L76 46L78 46L78 44L80 44L80 50L74 50L74 52L84 52L84 46L82 46L82 44L84 44L84 38L82 38L82 40L80 40L80 42L76 42L76 40L74 40L74 42L72 42L72 40L74 40L74 36L72 36L72 38L68 38L68 36L66 36L66 38L64 38L64 42L66 42L66 40L68 40L68 42L70 42L70 44L72 44L72 46L68 46L68 44L66 44L66 46L64 46L64 48L66 48L66 50L70 50ZM10 50L12 50L12 48L14 48L14 46L10 46ZM36 50L38 50L38 48L36 48ZM34 48L36 48L36 44L34 44ZM38 48L40 48L40 46L38 46ZM46 48L48 48L48 46L46 46ZM14 46L16 46L16 44L14 44ZM40 46L44 46L44 44L42 44L42 42L40 42ZM12 44L14 44L14 42L12 42ZM16 44L18 44L18 42L16 42ZM20 44L24 44L24 42L22 42L22 40L20 40ZM28 44L32 44L32 42L28 42ZM46 44L48 44L48 42L46 42ZM50 44L52 44L52 42L50 42ZM24 42L28 42L28 40L26 40L26 36L28 36L28 34L26 34L26 32L24 32L24 34L22 34L22 32L24 32L24 30L22 30L22 28L24 28L24 26L14 26L14 28L16 28L16 30L20 30L20 32L16 32L16 36L14 36L14 32L16 32L16 30L14 30L14 28L12 28L12 32L10 32L10 40L12 40L12 38L16 38L16 40L20 40L20 38L18 38L18 36L20 36L20 38L22 38L22 36L24 36L24 38L22 38L22 40L24 40ZM32 42L38 42L38 40L36 40L36 38L34 38L34 40L32 40ZM30 40L32 40L32 38L30 38ZM40 40L42 40L42 38L40 38ZM46 40L48 40L48 38L52 38L52 36L50 36L50 34L54 34L54 28L50 28L50 30L52 30L52 32L50 32L50 30L48 30L48 36L46 36ZM36 38L40 38L40 36L36 36ZM42 38L44 38L44 36L42 36ZM56 38L58 38L58 36L56 36ZM62 38L64 38L64 36L66 36L66 34L68 34L68 32L70 32L70 34L68 34L68 36L72 36L72 34L74 34L74 32L72 32L72 30L68 30L68 28L66 28L66 30L64 30L64 34L60 34L60 36L62 36ZM32 36L34 36L34 32L32 32ZM40 36L42 36L42 32L44 32L44 30L42 30L42 28L44 28L44 26L40 26L40 28L38 28L38 26L40 26L40 22L38 22L38 24L36 24L36 34L40 34ZM44 36L46 36L46 34L44 34ZM54 36L56 36L56 34L54 34ZM74 36L80 36L80 34L74 34ZM82 36L84 36L84 34L82 34ZM28 34L30 34L30 30L32 30L32 28L24 28L24 30L26 30L26 32L28 32ZM58 34L60 34L60 30L58 30ZM80 34L82 34L82 32L84 32L84 30L80 30ZM74 32L78 32L78 28L80 28L80 26L70 26L70 28L72 28L72 30L74 30L74 28L76 28L76 30L74 30ZM46 30L48 30L48 28L46 28ZM56 30L58 30L58 28L56 28ZM10 28L12 28L12 26L10 26ZM54 28L56 28L56 26L54 26ZM60 28L62 28L62 26L60 26ZM64 28L66 28L66 26L68 26L68 18L66 18L66 20L62 20L62 16L60 16L60 20L58 20L58 24L60 24L60 22L62 22L62 24L64 24L64 22L66 22L66 24L64 24ZM26 26L34 26L34 24L32 24L32 22L30 22L30 24L28 24L28 22L30 22L30 20L34 20L34 24L36 24L36 22L38 22L38 16L36 16L36 18L34 18L34 16L32 16L32 14L30 14L30 16L28 16L28 14L26 14ZM44 26L50 26L50 24L48 24L48 22L46 22L46 24L44 24ZM52 26L54 26L54 24L52 24ZM10 24L24 24L24 10L10 10ZM42 24L44 24L44 22L42 22ZM50 24L52 24L52 18L46 18L46 16L44 16L44 18L42 18L42 20L44 20L44 22L46 22L46 20L50 20ZM54 24L56 24L56 20L54 20ZM70 24L84 24L84 10L70 10ZM12 22L12 12L22 12L22 22ZM40 22L42 22L42 20L40 20ZM72 22L72 12L82 12L82 22ZM14 20L20 20L20 14L14 14ZM56 20L58 20L58 18L56 18ZM74 20L80 20L80 14L74 14ZM34 16L36 16L36 12L34 12L34 10L28 10L28 14L30 14L30 12L32 12L32 14L34 14ZM46 16L48 16L48 12L46 12ZM52 16L56 16L56 14L54 14L54 12L50 12L50 14L52 14ZM66 16L68 16L68 10L66 10L66 12L62 12L62 10L60 10L60 14L66 14ZM38 14L44 14L44 12L46 12L46 10L40 10L40 12L38 12ZM36 12L38 12L38 10L36 10ZM56 12L58 12L58 10L56 10Z" fill="#000000" fill-rule="evenodd" />
</svg>
