<svg viewBox="0 0 87 87" xmlns="http://www.w3.org/2000/svg">
<rect width="100%" height="100%" fill="#FFFFFF" />
<path d="M0 0L0 87L87 87L87 0ZM2 2L85 2L85 85L2 85Z" fill="#ffffff" fill-rule="evenodd" />
<path d="M10 76L24 76L24 62L10 62ZM26 76L28 76L28 74L26 74ZM30 76L36 76L36 74L30 74ZM40 76L48 76L48 74L46 74L46 72L48 72L48 68L46 68L46 66L44 66L44 72L40 72L40 62L38 62L38 66L36 66L36 62L34 62L34 60L36 60L36 62L38 62L38 58L36 58L36 54L38 54L38 50L32 50L32 52L34 52L34 56L32 56L32 64L34 64L34 66L30 66L30 64L28 64L28 58L30 58L30 56L32 56L32 52L30 52L30 54L26 54L26 52L24 52L24 54L22 54L22 52L20 52L20 56L26 56L26 66L28 66L28 68L34 68L34 70L38 70L38 74L40 74ZM50 76L52 76L52 72L50 72ZM56 76L58 76L58 72L56 72L56 70L60 70L60 68L66 68L66 70L68 70L68 66L70 66L70 68L74 68L74 70L76 70L76 66L74 66L74 64L72 64L72 62L70 62L70 64L68 64L68 62L70 62L70 60L68 60L68 58L70 58L70 56L72 56L72 62L74 62L74 56L76 56L76 54L74 54L74 50L70 50L70 52L68 52L68 54L66 54L66 58L62 58L62 56L60 56L60 58L58 58L58 54L54 54L54 50L52 50L52 52L50 52L50 54L52 54L52 56L56 56L56 60L54 60L54 62L56 62L56 66L54 66L54 62L48 62L48 66L50 66L50 70L52 70L52 68L54 68L54 74L56 74ZM60 76L62 76L62 74L66 74L66 72L60 72ZM66 76L70 76L70 74L66 74ZM12 74L12 64L22 64L22 74ZM74 74L76 74L76 72L74 72ZM14 72L20 72L20 66L14 66ZM26 72L28 72L28 68L26 68ZM32 72L34 72L34 70L32 70ZM68 72L70 72L70 70L68 70ZM60 66L60 60L66 60L66 66ZM62 64L64 64L64 62L62 62ZM42 62L48 62L48 60L44 60L44 56L46 56L46 54L42 54L42 58L40 58L40 60L42 60ZM10 60L12 60L12 58L10 58ZM18 60L24 60L24 58L18 58ZM12 58L14 58L14 56L12 56ZM38 58L40 58L40 56L38 56ZM46 58L50 58L50 56L46 56ZM16 56L18 56L18 52L14 52L14 54L16 54ZM62 56L64 56L64 54L62 54ZM10 54L12 54L12 52L14 52L14 50L10 50ZM40 54L42 54L42 52L40 52ZM46 54L48 54L48 52L50 52L50 50L46 50ZM60 54L62 54L62 52L60 52ZM22 52L24 52L24 50L22 50ZM26 52L30 52L30 50L26 50ZM58 52L60 52L60 50L58 50ZM14 50L18 50L18 44L16 44L16 46L14 46ZM20 50L22 50L22 48L20 48ZM30 50L32 50L32 44L30 44L30 42L22 42L22 44L28 44L28 46L30 46ZM40 50L44 50L44 48L46 48L46 46L52 46L52 48L54 48L54 44L56 44L56 46L58 46L58 44L62 44L62 46L60 46L60 50L64 50L64 48L74 48L74 46L72 46L72 42L74 42L74 40L72 40L72 38L76 38L76 30L72 30L72 34L74 34L74 36L70 36L70 30L72 30L72 28L70 28L70 26L68 26L68 32L66 32L66 34L64 34L64 38L66 38L66 36L68 36L68 38L66 38L66 40L68 40L68 42L70 42L70 46L68 46L68 44L66 44L66 42L64 42L64 40L62 40L62 42L60 42L60 40L56 40L56 42L54 42L54 40L50 40L50 44L44 44L44 46L40 46L40 44L42 44L42 42L40 42L40 40L42 40L42 42L44 42L44 36L42 36L42 38L38 38L38 40L36 40L36 44L38 44L38 48L40 48ZM54 50L56 50L56 48L54 48ZM10 48L12 48L12 46L10 46ZM22 48L28 48L28 46L22 46ZM12 46L14 46L14 44L12 44ZM20 46L22 46L22 44L20 44ZM10 44L12 44L12 42L14 42L14 40L16 40L16 38L18 38L18 36L16 36L16 34L18 34L18 32L14 32L14 30L18 30L18 26L14 26L14 28L12 28L12 26L10 26L10 32L12 32L12 34L14 34L14 38L12 38L12 36L10 36ZM18 44L20 44L20 42L18 42ZM32 44L34 44L34 42L32 42ZM74 44L76 44L76 42L74 42ZM16 42L18 42L18 40L16 40ZM46 42L48 42L48 40L46 40ZM18 40L26 40L26 38L22 38L22 36L24 36L24 34L22 34L22 32L20 32L20 38L18 38ZM28 40L32 40L32 38L30 38L30 36L28 36ZM48 40L50 40L50 36L52 36L52 26L50 26L50 24L48 24L48 22L46 22L46 24L44 24L44 26L42 26L42 30L44 30L44 28L46 28L46 26L48 26L48 28L50 28L50 32L46 32L46 38L48 38ZM60 40L62 40L62 38L60 38ZM34 38L38 38L38 36L34 36ZM58 38L60 38L60 36L58 36ZM30 36L34 36L34 34L32 34L32 32L30 32ZM40 36L42 36L42 34L40 34ZM54 36L56 36L56 32L54 32ZM60 36L62 36L62 34L64 34L64 32L66 32L66 30L62 30L62 32L58 32L58 34L60 34ZM26 34L28 34L28 32L26 32ZM36 34L40 34L40 28L38 28L38 32L36 32ZM18 32L20 32L20 30L18 30ZM22 32L26 32L26 26L20 26L20 30L22 30L22 28L24 28L24 30L22 30ZM28 32L30 32L30 30L28 30ZM32 32L34 32L34 26L36 26L36 20L34 20L34 24L32 24L32 26L30 26L30 28L32 28ZM44 32L46 32L46 30L44 30ZM56 32L58 32L58 30L56 30ZM54 30L56 30L56 28L54 28ZM60 30L62 30L62 28L60 28ZM56 28L58 28L58 24L56 24L56 16L52 16L52 18L54 18L54 26L56 26ZM62 28L64 28L64 26L62 26ZM72 28L76 28L76 26L72 26ZM26 26L30 26L30 24L28 24L28 22L26 22ZM10 24L24 24L24 10L10 10ZM30 24L32 24L32 22L30 22ZM38 24L40 24L40 22L38 22ZM42 24L44 24L44 22L42 22ZM50 24L52 24L52 18L50 18L50 20L48 20L48 22L50 22ZM58 24L60 24L60 22L58 22ZM62 24L76 24L76 10L62 10ZM12 22L12 12L22 12L22 22ZM44 22L46 22L46 18L44 18ZM64 22L64 12L74 12L74 22ZM14 20L20 20L20 14L14 14ZM28 20L30 20L30 14L28 14L28 16L26 16L26 18L28 18ZM38 20L40 20L40 16L38 16ZM58 20L60 20L60 18L58 18ZM66 20L72 20L72 14L66 14ZM34 18L36 18L36 16L34 16ZM42 18L44 18L44 16L46 16L46 14L44 14L44 12L46 12L46 10L34 10L34 12L36 12L36 14L38 14L38 12L42 12L42 14L40 14L40 16L42 16ZM32 16L34 16L34 14L32 14ZM50 16L52 16L52 14L50 14ZM58 16L60 16L60 12L58 12L58 10L56 10L56 14L58 14ZM26 14L28 14L28 10L26 10ZM30 14L32 14L32 10L30 10ZM46 14L48 14L48 12L46 12ZM48 12L54 12L54 10L48 10Z" fill="#000000" fill-rule="evenodd" />
</svg>
