<svg viewBox="0 0 79 79" xmlns="http://www.w3.org/2000/svg">
<rect width="100%" height="100%" fill="#FFFFFF" />
<path d="M0 0L0 79L79 79L79 0ZM2 2L77 2L77 77L2 77Z" fill="#ffffff" fill-rule="evenodd" />
<path d="M10 68L24 68L24 54L10 54ZM26 68L28 68L28 66L26 66ZM32 68L34 68L34 66L36 66L36 68L38 68L38 62L36 62L36 64L34 64L34 62L36 62L36 60L34 60L34 58L32 58L32 64L28 64L28 66L32 66ZM40 68L42 68L42 66L40 66ZM44 68L46 68L46 66L50 66L50 68L54 68L54 64L46 64L46 62L44 62L44 60L42 60L42 62L40 62L40 64L42 64L42 66L44 66ZM56 68L58 68L58 66L56 66ZM60 68L62 68L62 60L60 60ZM64 68L66 68L66 66L68 66L68 60L66 60L66 62L64 62ZM12 66L12 56L22 56L22 66ZM14 64L20 64L20 58L14 58ZM54 64L58 64L58 60L60 60L60 58L62 58L62 56L60 56L60 54L62 54L62 52L60 52L60 50L58 50L58 48L56 48L56 50L54 50L54 48L56 48L56 46L50 46L50 50L48 50L48 54L50 54L50 56L48 56L48 60L50 60L50 62L54 62L54 60L56 60L56 62L54 62ZM28 62L30 62L30 60L28 60ZM26 60L28 60L28 58L26 58ZM36 60L40 60L40 56L38 56L38 58L36 58ZM30 58L32 58L32 52L30 52ZM34 58L36 58L36 56L34 56ZM44 58L46 58L46 56L48 56L48 54L44 54L44 52L46 52L46 50L48 50L48 46L42 46L42 44L40 44L40 46L36 46L36 50L32 50L32 52L36 52L36 54L40 54L40 56L44 56ZM52 58L52 52L58 52L58 58ZM64 58L66 58L66 56L64 56ZM26 56L28 56L28 52L26 52ZM54 56L56 56L56 54L54 54ZM66 56L68 56L68 54L66 54ZM10 52L14 52L14 50L10 50ZM16 52L18 52L18 50L20 50L20 44L24 44L24 42L20 42L20 40L24 40L24 42L26 42L26 40L30 40L30 38L20 38L20 36L18 36L18 34L16 34L16 38L18 38L18 40L16 40L16 44L18 44L18 48L14 48L14 50L16 50ZM20 52L24 52L24 50L20 50ZM28 52L30 52L30 48L28 48ZM38 52L38 48L42 48L42 50L40 50L40 52ZM62 52L66 52L66 50L68 50L68 46L66 46L66 48L64 48L64 50L62 50ZM60 50L62 50L62 48L64 48L64 44L62 44L62 40L64 40L64 38L66 38L66 34L62 34L62 26L50 26L50 24L48 24L48 28L52 28L52 34L50 34L50 32L48 32L48 36L52 36L52 38L54 38L54 40L52 40L52 44L54 44L54 42L58 42L58 40L60 40L60 44L56 44L56 46L58 46L58 48L60 48ZM22 48L26 48L26 46L22 46ZM32 48L34 48L34 40L30 40L30 44L26 44L26 46L32 46ZM10 46L12 46L12 42L14 42L14 40L12 40L12 38L10 38ZM14 46L16 46L16 44L14 44ZM36 44L40 44L40 42L42 42L42 38L40 38L40 40L38 40L38 42L36 42ZM42 44L50 44L50 42L46 42L46 40L44 40L44 42L42 42ZM64 44L68 44L68 42L66 42L66 40L64 40ZM14 40L16 40L16 38L14 38ZM50 40L52 40L52 38L50 38ZM66 40L68 40L68 38L66 38ZM12 38L14 38L14 34L16 34L16 30L14 30L14 32L10 32L10 36L12 36ZM30 38L40 38L40 36L38 36L38 32L40 32L40 36L42 36L42 34L46 34L46 32L48 32L48 30L36 30L36 32L34 32L34 28L30 28L30 30L28 30L28 32L32 32L32 34L34 34L34 36L30 36ZM42 38L44 38L44 36L42 36ZM60 38L60 36L62 36L62 38ZM20 36L24 36L24 34L22 34L22 32L24 32L24 30L20 30L20 32L18 32L18 34L20 34ZM54 36L54 32L56 32L56 34L58 34L58 36ZM24 34L28 34L28 32L24 32ZM58 34L58 32L60 32L60 34ZM66 32L68 32L68 26L66 26L66 28L64 28L64 30L66 30ZM26 30L28 30L28 28L30 28L30 26L34 26L34 28L42 28L42 26L40 26L40 22L42 22L42 20L40 20L40 18L42 18L42 20L44 20L44 16L46 16L46 14L44 14L44 12L42 12L42 14L40 14L40 16L38 16L38 18L36 18L36 20L34 20L34 24L32 24L32 20L30 20L30 24L28 24L28 20L30 20L30 18L36 18L36 16L38 16L38 14L34 14L34 16L32 16L32 14L30 14L30 16L26 16L26 26L22 26L22 28L26 28ZM54 30L54 28L56 28L56 30ZM10 28L12 28L12 26L10 26ZM18 28L20 28L20 26L18 26ZM36 26L36 22L38 22L38 26ZM44 26L46 26L46 24L44 24ZM10 24L24 24L24 10L10 10ZM42 24L44 24L44 22L42 22ZM46 24L48 24L48 22L50 22L50 24L52 24L52 20L50 20L50 18L48 18L48 20L44 20L44 22L46 22ZM54 24L68 24L68 10L54 10ZM12 22L12 12L22 12L22 22ZM56 22L56 12L66 12L66 22ZM14 20L20 20L20 14L14 14ZM58 20L64 20L64 14L58 14ZM32 14L34 14L34 12L32 12ZM48 14L50 14L50 10L46 10L46 12L48 12ZM26 12L30 12L30 10L26 10ZM34 12L36 12L36 10L34 10Z" fill="#000000" fill-rule="evenodd" />
</svg>
