<svg viewBox="0 0 131 43" xmlns="http://www.w3.org/2000/svg">
<rect width="100%" height="100%" fill="#FFFFFF" />
<path d="M0 0L0 43L131 43L131 0ZM2 2L129 2L129 41L2 41Z" fill="#ffffff" fill-rule="evenodd" />
<path d="M6 36L12 36L12 32L10 32L10 34L8 34L8 32L10 32L10 30L6 30ZM14 36L16 36L16 34L14 34ZM18 36L20 36L20 32L24 32L24 30L20 30L20 26L22 26L22 22L18 22L18 24L16 24L16 26L18 26L18 32L16 32L16 34L18 34ZM22 36L24 36L24 34L22 34ZM26 36L28 36L28 34L26 34ZM30 36L32 36L32 34L30 34ZM34 36L36 36L36 34L34 34ZM38 36L40 36L40 34L42 34L42 36L48 36L48 34L50 34L50 36L52 36L52 32L50 32L50 30L48 30L48 28L50 28L50 22L52 22L52 20L50 20L50 18L60 18L60 16L58 16L58 14L56 14L56 16L54 16L54 12L56 12L56 10L50 10L50 12L52 12L52 14L50 14L50 16L48 16L48 14L44 14L44 16L46 16L46 18L48 18L48 20L46 20L46 22L48 22L48 26L44 26L44 24L42 24L42 32L40 32L40 30L38 30L38 32L36 32L36 34L38 34ZM54 36L56 36L56 34L58 34L58 36L60 36L60 32L58 32L58 30L56 30L56 32L54 32ZM62 36L64 36L64 34L66 34L66 36L68 36L68 32L62 32ZM70 36L72 36L72 34L70 34ZM74 36L76 36L76 34L74 34ZM78 36L80 36L80 34L78 34ZM82 36L88 36L88 34L90 34L90 36L92 36L92 34L94 34L94 32L88 32L88 28L86 28L86 30L84 30L84 28L86 28L86 26L84 26L84 24L82 24L82 22L84 22L84 20L82 20L82 18L84 18L84 16L90 16L90 10L92 10L92 12L94 12L94 8L92 8L92 6L90 6L90 8L88 8L88 6L82 6L82 8L80 8L80 10L82 10L82 12L86 12L86 14L82 14L82 12L80 12L80 20L78 20L78 22L80 22L80 26L82 26L82 30L80 30L80 32L82 32ZM94 36L96 36L96 34L94 34ZM98 36L100 36L100 34L98 34ZM102 36L104 36L104 34L102 34ZM106 36L108 36L108 34L106 34ZM110 36L112 36L112 34L110 34ZM114 36L124 36L124 26L120 26L120 24L118 24L118 22L116 22L116 26L114 26L114 24L112 24L112 28L110 28L110 20L108 20L108 22L102 22L102 24L100 24L100 22L98 22L98 24L96 24L96 20L94 20L94 24L90 24L90 28L100 28L100 26L102 26L102 28L106 28L106 26L108 26L108 30L110 30L110 32L112 32L112 34L114 34ZM24 34L26 34L26 32L24 32ZM32 34L34 34L34 32L32 32ZM44 34L44 32L46 32L46 34ZM72 34L74 34L74 30L72 30L72 28L70 28L70 32L72 32ZM84 34L84 32L86 32L86 34ZM96 34L98 34L98 32L96 32ZM104 34L106 34L106 32L104 32ZM108 34L110 34L110 32L108 32ZM116 34L116 28L122 28L122 34ZM14 32L16 32L16 28L14 28ZM34 32L36 32L36 30L34 30ZM60 32L62 32L62 30L60 30ZM94 32L96 32L96 30L94 30ZM100 32L102 32L102 30L100 30ZM118 32L120 32L120 30L118 30ZM10 30L12 30L12 28L10 28ZM26 30L28 30L28 26L32 26L32 24L28 24L28 22L30 22L30 16L32 16L32 22L34 22L34 18L38 18L38 22L40 22L40 12L38 12L38 14L36 14L36 16L34 16L34 14L32 14L32 12L30 12L30 14L28 14L28 18L24 18L24 16L26 16L26 14L24 14L24 12L28 12L28 10L30 10L30 8L28 8L28 6L26 6L26 10L22 10L22 20L26 20L26 26L22 26L22 28L26 28ZM44 30L44 28L46 28L46 30ZM50 30L52 30L52 28L50 28ZM62 30L68 30L68 28L66 28L66 26L64 26L64 28L62 28ZM74 30L78 30L78 28L80 28L80 26L78 26L78 24L76 24L76 26L72 26L72 28L74 28ZM6 28L8 28L8 26L6 26ZM12 28L14 28L14 22L12 22L12 24L10 24L10 22L6 22L6 24L8 24L8 26L12 26ZM32 28L38 28L38 26L36 26L36 24L34 24L34 26L32 26ZM54 28L56 28L56 26L54 26ZM58 28L60 28L60 26L58 26ZM38 26L40 26L40 24L38 24ZM68 26L72 26L72 24L70 24L70 22L66 22L66 24L68 24ZM44 24L46 24L46 22L44 22ZM54 24L56 24L56 22L58 22L58 24L60 24L60 22L62 22L62 20L64 20L64 18L66 18L66 20L72 20L72 22L74 22L74 16L78 16L78 12L74 12L74 14L72 14L72 12L70 12L70 16L72 16L72 18L68 18L68 16L62 16L62 18L60 18L60 20L54 20ZM62 24L64 24L64 22L62 22ZM84 24L90 24L90 20L86 20L86 22L84 22ZM120 24L124 24L124 22L122 22L122 20L120 20ZM42 22L44 22L44 20L42 20ZM6 20L20 20L20 6L6 6ZM44 20L46 20L46 18L44 18ZM76 20L78 20L78 18L76 18ZM84 20L86 20L86 18L84 18ZM90 20L92 20L92 18L94 18L94 16L90 16ZM98 20L100 20L100 16L96 16L96 18L98 18ZM102 20L108 20L108 18L110 18L110 16L108 16L108 12L114 12L114 14L112 14L112 18L110 18L110 20L118 20L118 18L116 18L116 16L120 16L120 12L124 12L124 6L118 6L118 8L122 8L122 10L118 10L118 12L116 12L116 6L114 6L114 10L110 10L110 8L108 8L108 6L106 6L106 8L104 8L104 12L106 12L106 14L104 14L104 18L102 18ZM122 20L124 20L124 18L122 18ZM8 18L8 8L18 8L18 18ZM42 18L44 18L44 16L42 16ZM120 18L122 18L122 16L120 16ZM10 16L16 16L16 10L10 10ZM60 16L62 16L62 14L60 14ZM94 16L96 16L96 14L100 14L100 12L102 12L102 10L98 10L98 8L96 8L96 12L94 12ZM122 16L124 16L124 14L122 14ZM42 14L44 14L44 12L48 12L48 10L50 10L50 8L48 8L48 6L42 6L42 10L40 10L40 12L42 12ZM48 14L50 14L50 12L48 12ZM62 14L68 14L68 12L66 12L66 10L64 10L64 12L62 12ZM102 14L104 14L104 12L102 12ZM32 12L34 12L34 10L32 10ZM58 12L60 12L60 10L58 10ZM72 12L74 12L74 10L72 10ZM36 10L38 10L38 8L36 8ZM44 10L44 8L46 8L46 10ZM56 10L58 10L58 8L56 8ZM68 10L72 10L72 6L70 6L70 8L68 8ZM84 10L84 8L86 8L86 10ZM22 8L24 8L24 6L22 6ZM30 8L32 8L32 6L30 6ZM34 8L36 8L36 6L34 6ZM38 8L40 8L40 6L38 6ZM50 8L52 8L52 6L50 6ZM54 8L56 8L56 6L54 6ZM58 8L60 8L60 6L58 6ZM62 8L64 8L64 6L62 6ZM66 8L68 8L68 6L66 6ZM74 8L76 8L76 6L74 6ZM78 8L80 8L80 6L78 6ZM94 8L96 8L96 6L94 6ZM98 8L100 8L100 6L98 6ZM102 8L104 8L104 6L102 6ZM110 8L112 8L112 6L110 6Z" fill="#000000" fill-rule="evenodd" />
</svg>
