<svg viewBox="0 0 95 95" xmlns="http://www.w3.org/2000/svg">
<rect width="100%" height="100%" fill="#FFFFFF" />
<path d="M0 0L0 95L95 95L95 0ZM2 2L93 2L93 93L2 93Z" fill="#ffffff" fill-rule="evenodd" />
<path d="M10 84L24 84L24 70L10 70ZM26 84L28 84L28 82L26 82ZM38 84L40 84L40 82L44 82L44 80L42 80L42 78L40 78L40 80L38 80L38 78L36 78L36 76L34 76L34 78L32 78L32 80L30 80L30 74L32 74L32 72L30 72L30 70L32 70L32 72L36 72L36 76L38 76L38 74L40 74L40 72L38 72L38 68L44 68L44 66L36 66L36 68L32 68L32 66L34 66L34 60L36 60L36 58L30 58L30 66L28 66L28 68L26 68L26 72L28 72L28 74L26 74L26 76L28 76L28 82L34 82L34 80L36 80L36 82L38 82ZM46 84L48 84L48 82L46 82ZM50 84L52 84L52 82L54 82L54 80L56 80L56 82L54 82L54 84L58 84L58 82L60 82L60 80L58 80L58 78L56 78L56 76L52 76L52 80L50 80L50 76L44 76L44 80L46 80L46 78L48 78L48 82L50 82ZM62 84L64 84L64 82L68 82L68 80L66 80L66 78L64 78L64 80L62 80ZM68 84L72 84L72 76L76 76L76 68L78 68L78 64L80 64L80 68L82 68L82 72L84 72L84 64L82 64L82 56L80 56L80 52L78 52L78 56L76 56L76 58L74 58L74 56L72 56L72 60L76 60L76 64L72 64L72 66L62 66L62 68L64 68L64 70L66 70L66 72L64 72L64 74L66 74L66 76L70 76L70 82L68 82ZM74 84L76 84L76 82L74 82ZM80 84L84 84L84 82L82 82L82 78L84 78L84 76L82 76L82 74L80 74L80 68L78 68L78 78L76 78L76 80L80 80ZM12 82L12 72L22 72L22 82ZM14 80L20 80L20 74L14 74ZM58 78L60 78L60 76L62 76L62 74L58 74L58 68L60 68L60 64L58 64L58 66L54 66L54 70L52 70L52 68L50 68L50 66L48 66L48 62L46 62L46 60L42 60L42 64L46 64L46 68L48 68L48 70L50 70L50 76L52 76L52 74L54 74L54 72L56 72L56 76L58 76ZM40 76L44 76L44 74L40 74ZM68 74L68 68L74 68L74 74ZM40 72L44 72L44 70L40 70ZM46 72L48 72L48 70L46 70ZM62 72L64 72L64 70L62 70ZM70 72L72 72L72 70L70 70ZM44 70L46 70L46 68L44 68ZM60 70L62 70L62 68L60 68ZM10 68L16 68L16 66L10 66ZM18 68L20 68L20 66L22 66L22 64L20 64L20 60L18 60L18 56L20 56L20 52L16 52L16 66L18 66ZM22 68L26 68L26 66L28 66L28 64L26 64L26 60L24 60L24 62L22 62L22 64L24 64L24 66L22 66ZM36 64L40 64L40 60L42 60L42 58L46 58L46 60L48 60L48 56L46 56L46 54L44 54L44 52L42 52L42 56L40 56L40 58L38 58L38 60L36 60ZM50 64L52 64L52 60L48 60L48 62L50 62ZM60 64L68 64L68 62L64 62L64 60L62 60L62 56L60 56L60 54L62 54L62 52L58 52L58 54L56 54L56 56L54 56L54 60L56 60L56 58L58 58L58 60L60 60ZM10 62L12 62L12 60L10 60ZM70 62L72 62L72 60L70 60ZM20 60L24 60L24 58L20 58ZM66 60L68 60L68 58L66 58ZM26 58L28 58L28 56L26 56ZM36 58L38 58L38 56L36 56ZM68 58L70 58L70 56L72 56L72 54L66 54L66 52L72 52L72 50L76 50L76 48L74 48L74 46L72 46L72 48L62 48L62 52L64 52L64 54L62 54L62 56L68 56ZM22 56L24 56L24 54L22 54ZM30 56L34 56L34 54L32 54L32 52L30 52ZM38 56L40 56L40 54L38 54ZM82 56L84 56L84 48L80 48L80 44L82 44L82 42L84 42L84 40L76 40L76 42L74 42L74 40L76 40L76 38L78 38L78 36L74 36L74 38L70 38L70 40L66 40L66 36L68 36L68 34L70 34L70 32L64 32L64 28L70 28L70 30L72 30L72 28L78 28L78 26L68 26L68 10L66 10L66 14L64 14L64 12L62 12L62 16L66 16L66 18L64 18L64 20L66 20L66 24L64 24L64 20L60 20L60 22L62 22L62 24L60 24L60 22L58 22L58 26L56 26L56 20L60 20L60 18L58 18L58 14L52 14L52 12L50 12L50 14L48 14L48 18L46 18L46 24L44 24L44 26L46 26L46 28L48 28L48 20L50 20L50 18L52 18L52 16L56 16L56 18L52 18L52 22L54 22L54 28L60 28L60 32L62 32L62 36L64 36L64 38L62 38L62 40L64 40L64 42L60 42L60 44L62 44L62 46L64 46L64 44L68 44L68 46L72 46L72 44L74 44L74 46L76 46L76 48L78 48L78 50L80 50L80 52L82 52ZM10 54L14 54L14 50L10 50ZM24 54L28 54L28 50L20 50L20 52L24 52ZM34 54L38 54L38 52L34 52ZM46 54L50 54L50 52L46 52ZM52 54L54 54L54 52L52 52ZM72 54L76 54L76 52L72 52ZM38 52L40 52L40 50L44 50L44 48L42 48L42 46L40 46L40 48L38 48L38 46L40 46L40 44L44 44L44 42L42 42L42 40L40 40L40 36L36 36L36 38L38 38L38 44L32 44L32 42L30 42L30 46L26 46L26 48L28 48L28 50L30 50L30 48L32 48L32 46L34 46L34 48L36 48L36 50L38 50ZM50 52L52 52L52 50L54 50L54 46L52 46L52 48L50 48L50 44L44 44L44 48L46 48L46 46L48 46L48 50L50 50ZM14 50L20 50L20 48L18 48L18 46L20 46L20 44L18 44L18 42L16 42L16 44L14 44L14 46L12 46L12 48L14 48ZM32 50L34 50L34 48L32 48ZM56 50L58 50L58 48L60 48L60 44L58 44L58 46L56 46ZM22 48L24 48L24 46L22 46ZM10 46L12 46L12 44L14 44L14 42L10 42ZM24 46L26 46L26 42L30 42L30 40L28 40L28 38L30 38L30 40L32 40L32 36L30 36L30 32L32 32L32 34L36 34L36 32L34 32L34 30L32 30L32 28L36 28L36 32L38 32L38 30L40 30L40 28L38 28L38 26L36 26L36 20L34 20L34 26L30 26L30 24L28 24L28 20L30 20L30 18L28 18L28 16L26 16L26 26L22 26L22 28L26 28L26 30L28 30L28 28L30 28L30 30L28 30L28 32L24 32L24 34L26 34L26 38L22 38L22 36L20 36L20 32L24 32L24 30L18 30L18 32L10 32L10 34L12 34L12 36L14 36L14 38L18 38L18 40L20 40L20 42L22 42L22 40L24 40L24 42L22 42L22 44L24 44ZM54 46L56 46L56 44L54 44ZM50 44L52 44L52 42L54 42L54 40L56 40L56 42L58 42L58 38L52 38L52 40L50 40ZM14 42L16 42L16 40L14 40ZM34 42L36 42L36 40L34 40ZM12 40L14 40L14 38L12 38ZM46 40L48 40L48 38L46 38ZM10 38L12 38L12 36L10 36ZM42 38L46 38L46 36L42 36ZM48 38L52 38L52 34L48 34ZM58 38L62 38L62 36L58 36ZM68 38L70 38L70 36L68 36ZM80 38L84 38L84 34L82 34L82 36L80 36ZM16 36L16 34L18 34L18 36ZM22 36L24 36L24 34L22 34ZM40 36L42 36L42 34L40 34ZM54 36L58 36L58 34L56 34L56 30L54 30L54 28L48 28L48 30L50 30L50 32L52 32L52 34L54 34ZM70 36L74 36L74 34L80 34L80 32L82 32L82 28L78 28L78 32L74 32L74 30L72 30L72 34L70 34ZM38 34L40 34L40 32L38 32ZM46 34L48 34L48 30L46 30L46 28L42 28L42 32L46 32ZM58 34L60 34L60 32L58 32ZM10 30L16 30L16 28L12 28L12 26L10 26ZM18 28L20 28L20 26L18 26ZM40 28L42 28L42 26L40 26ZM82 28L84 28L84 26L82 26ZM38 26L40 26L40 22L38 22ZM50 26L52 26L52 22L50 22ZM10 24L24 24L24 10L10 10ZM30 24L32 24L32 22L30 22ZM42 24L44 24L44 22L42 22ZM70 24L84 24L84 10L70 10ZM12 22L12 12L22 12L22 22ZM40 22L42 22L42 20L40 20ZM72 22L72 12L82 12L82 22ZM14 20L20 20L20 14L14 14ZM32 20L34 20L34 18L32 18ZM38 20L40 20L40 18L38 18ZM42 20L44 20L44 18L42 18ZM74 20L80 20L80 14L74 14ZM30 18L32 18L32 16L30 16ZM34 18L38 18L38 16L34 16ZM44 18L46 18L46 16L44 16ZM60 18L62 18L62 16L60 16ZM28 16L30 16L30 12L32 12L32 10L26 10L26 12L28 12ZM32 16L34 16L34 14L32 14ZM40 16L42 16L42 14L40 14ZM36 14L38 14L38 10L34 10L34 12L36 12ZM42 14L44 14L44 12L42 12ZM46 14L48 14L48 12L50 12L50 10L44 10L44 12L46 12ZM40 12L42 12L42 10L40 10ZM54 12L56 12L56 10L54 10ZM58 12L62 12L62 10L58 10Z" fill="#000000" fill-rule="evenodd" />
</svg>
