<svg viewBox="0 0 95 95" xmlns="http://www.w3.org/2000/svg">
<rect width="100%" height="100%" fill="#FFFFFF" />
<path d="M0 0L0 95L95 95L95 0ZM2 2L93 2L93 93L2 93Z" fill="#ffffff" fill-rule="evenodd" />
<path d="M10 84L24 84L24 70L10 70ZM26 84L36 84L36 82L34 82L34 80L36 80L36 82L38 82L38 78L36 78L36 76L34 76L34 74L36 74L36 70L38 70L38 58L40 58L40 68L42 68L42 64L44 64L44 62L42 62L42 60L44 60L44 58L42 58L42 54L40 54L40 56L38 56L38 54L36 54L36 52L34 52L34 50L32 50L32 52L24 52L24 54L26 54L26 56L24 56L24 58L28 58L28 60L30 60L30 58L36 58L36 64L34 64L34 66L36 66L36 68L32 68L32 76L28 76L28 74L30 74L30 68L32 68L32 64L30 64L30 66L28 66L28 68L26 68L26 70L28 70L28 72L26 72L26 80L30 80L30 78L32 78L32 80L30 80L30 82L26 82ZM42 84L46 84L46 82L44 82L44 80L42 80ZM48 84L50 84L50 82L54 82L54 84L56 84L56 82L58 82L58 84L64 84L64 82L60 82L60 78L58 78L58 80L52 80L52 78L54 78L54 76L52 76L52 74L54 74L54 76L56 76L56 78L58 78L58 76L62 76L62 78L64 78L64 76L68 76L68 78L72 78L72 76L74 76L74 78L76 78L76 72L78 72L78 68L80 68L80 66L72 66L72 62L70 62L70 66L68 66L68 60L66 60L66 62L62 62L62 66L66 66L66 68L64 68L64 70L66 70L66 74L64 74L64 72L62 72L62 74L56 74L56 72L54 72L54 70L52 70L52 68L46 68L46 72L48 72L48 70L50 70L50 72L48 72L48 74L46 74L46 76L48 76L48 78L50 78L50 80L48 80ZM68 84L70 84L70 80L68 80L68 78L64 78L64 82L68 82ZM72 84L74 84L74 82L72 82ZM76 84L84 84L84 70L80 70L80 74L78 74L78 76L82 76L82 78L80 78L80 80L82 80L82 82L76 82ZM12 82L12 72L22 72L22 82ZM74 82L76 82L76 80L74 80ZM14 80L20 80L20 74L14 74ZM72 80L74 80L74 78L72 78ZM40 78L44 78L44 76L42 76L42 74L40 74L40 72L38 72L38 74L36 74L36 76L40 76ZM68 74L68 68L74 68L74 74ZM40 72L42 72L42 70L40 70ZM70 72L72 72L72 70L70 70ZM54 70L58 70L58 68L56 68L56 66L58 66L58 64L54 64L54 62L52 62L52 58L54 58L54 60L56 60L56 56L46 56L46 50L44 50L44 52L42 52L42 54L44 54L44 58L48 58L48 60L46 60L46 62L50 62L50 66L54 66ZM10 68L12 68L12 62L14 62L14 60L24 60L24 58L20 58L20 56L16 56L16 58L12 58L12 60L10 60ZM22 68L24 68L24 66L22 66ZM44 68L46 68L46 66L44 66ZM58 68L62 68L62 66L58 66ZM20 66L22 66L22 64L20 64ZM46 66L48 66L48 64L46 64ZM14 64L16 64L16 62L14 62ZM18 64L20 64L20 62L18 62ZM22 64L30 64L30 62L22 62ZM32 64L34 64L34 62L32 62ZM74 64L84 64L84 62L80 62L80 60L82 60L82 58L84 58L84 54L80 54L80 50L78 50L78 54L74 54L74 52L72 52L72 54L70 54L70 56L72 56L72 58L68 58L68 60L72 60L72 62L74 62L74 60L76 60L76 62L74 62ZM30 62L32 62L32 60L30 60ZM56 62L58 62L58 60L56 60ZM60 62L62 62L62 60L64 60L64 58L60 58L60 56L58 56L58 60L60 60ZM10 58L12 58L12 56L16 56L16 54L14 54L14 52L12 52L12 54L10 54ZM66 58L68 58L68 56L66 56ZM78 58L78 56L80 56L80 58ZM20 56L24 56L24 54L20 54ZM30 56L30 54L32 54L32 56ZM62 56L66 56L66 54L62 54ZM38 54L40 54L40 52L38 52ZM48 54L50 54L50 52L48 52ZM52 54L54 54L54 52L52 52ZM56 54L58 54L58 52L56 52ZM66 54L68 54L68 50L66 50L66 48L70 48L70 44L72 44L72 40L76 40L76 38L74 38L74 36L72 36L72 38L70 38L70 42L68 42L68 44L66 44L66 46L64 46L64 50L60 50L60 52L66 52ZM14 52L18 52L18 50L16 50L16 48L12 48L12 50L14 50ZM20 52L24 52L24 50L22 50L22 48L24 48L24 50L28 50L28 48L26 48L26 46L28 46L28 44L24 44L24 46L20 46L20 48L18 48L18 50L20 50ZM54 52L56 52L56 50L54 50ZM70 52L72 52L72 48L70 48ZM74 52L76 52L76 50L74 50ZM30 50L32 50L32 46L30 46ZM34 50L36 50L36 48L34 48ZM38 50L40 50L40 46L44 46L44 44L40 44L40 42L38 42L38 40L40 40L40 42L44 42L44 40L42 40L42 38L38 38L38 36L42 36L42 32L44 32L44 30L42 30L42 28L44 28L44 26L48 26L48 22L46 22L46 24L44 24L44 22L42 22L42 24L40 24L40 22L42 22L42 18L36 18L36 20L34 20L34 18L32 18L32 20L30 20L30 26L28 26L28 28L24 28L24 30L22 30L22 32L26 32L26 34L28 34L28 30L32 30L32 22L34 22L34 24L36 24L36 22L38 22L38 24L36 24L36 26L34 26L34 30L36 30L36 28L38 28L38 26L40 26L40 30L36 30L36 34L34 34L34 38L36 38L36 42L32 42L32 46L34 46L34 44L36 44L36 46L38 46ZM42 50L44 50L44 48L42 48ZM46 50L50 50L50 48L48 48L48 46L44 46L44 48L46 48ZM52 50L54 50L54 48L52 48ZM80 50L82 50L82 48L84 48L84 46L80 46ZM50 48L52 48L52 46L50 46ZM60 48L62 48L62 46L60 46ZM74 48L78 48L78 44L82 44L82 40L84 40L84 38L80 38L80 42L74 42L74 44L76 44L76 46L74 46ZM10 46L12 46L12 42L14 42L14 46L16 46L16 44L18 44L18 42L22 42L22 40L26 40L26 42L28 42L28 38L26 38L26 36L24 36L24 38L20 38L20 40L18 40L18 38L16 38L16 40L14 40L14 38L12 38L12 40L10 40ZM18 46L20 46L20 44L18 44ZM52 46L54 46L54 44L52 44ZM56 46L58 46L58 44L56 44ZM62 46L64 46L64 44L66 44L66 42L68 42L68 40L66 40L66 38L64 38L64 42L60 42L60 44L62 44ZM72 46L74 46L74 44L72 44ZM22 44L24 44L24 42L22 42ZM28 44L30 44L30 42L28 42ZM46 44L48 44L48 42L46 42ZM54 44L56 44L56 40L54 40L54 38L52 38L52 42L54 42ZM30 42L32 42L32 40L30 40ZM32 40L34 40L34 38L32 38ZM46 40L48 40L48 38L46 38ZM58 40L60 40L60 38L58 38ZM14 38L16 38L16 32L20 32L20 28L24 28L24 26L14 26L14 28L12 28L12 30L14 30L14 34L10 34L10 36L14 36ZM18 38L20 38L20 36L18 36ZM30 38L32 38L32 34L28 34L28 36L30 36ZM42 38L44 38L44 36L42 36ZM48 38L52 38L52 34L54 34L54 28L50 28L50 30L52 30L52 32L50 32L50 30L48 30L48 28L46 28L46 32L48 32ZM54 38L58 38L58 36L56 36L56 34L54 34ZM62 38L64 38L64 32L62 32L62 34L58 34L58 36L62 36ZM66 38L68 38L68 36L66 36ZM22 36L24 36L24 34L22 34ZM44 36L46 36L46 34L44 34ZM68 36L72 36L72 32L74 32L74 30L70 30L70 32L66 32L66 34L68 34ZM74 36L84 36L84 30L80 30L80 26L70 26L70 28L78 28L78 30L76 30L76 34L74 34ZM20 34L22 34L22 32L20 32ZM32 34L34 34L34 30L32 30ZM78 34L78 32L80 32L80 34ZM58 32L60 32L60 28L62 28L62 26L60 26L60 18L66 18L66 16L60 16L60 12L58 12L58 18L56 18L56 16L54 16L54 18L52 18L52 16L50 16L50 18L46 18L46 16L44 16L44 22L46 22L46 20L50 20L50 24L52 24L52 20L54 20L54 24L56 24L56 20L58 20L58 26L54 26L54 28L56 28L56 30L58 30ZM64 32L66 32L66 30L64 30ZM66 30L68 30L68 28L66 28ZM10 28L12 28L12 26L10 26ZM26 26L28 26L28 18L30 18L30 16L28 16L28 14L26 14ZM52 26L54 26L54 24L52 24ZM62 26L64 26L64 22L66 22L66 26L68 26L68 20L62 20ZM10 24L24 24L24 10L10 10ZM70 24L84 24L84 10L70 10ZM12 22L12 12L22 12L22 22ZM72 22L72 12L82 12L82 22ZM14 20L20 20L20 14L14 14ZM74 20L80 20L80 14L74 14ZM30 16L32 16L32 14L34 14L34 10L32 10L32 12L28 12L28 14L30 14ZM34 16L40 16L40 12L38 12L38 14L34 14ZM42 16L44 16L44 14L42 14ZM52 16L54 16L54 12L58 12L58 10L52 10L52 12L50 12L50 14L52 14ZM64 14L68 14L68 10L66 10L66 12L64 12ZM36 12L38 12L38 10L36 10ZM40 12L44 12L44 10L40 10Z" fill="#000000" fill-rule="evenodd" />
</svg>
