<svg viewBox="0 0 87 87" xmlns="http://www.w3.org/2000/svg">
<rect width="100%" height="100%" fill="#FFFFFF" />
<path d="M0 0L0 87L87 87L87 0ZM2 2L85 2L85 85L2 85Z" fill="#ffffff" fill-rule="evenodd" />
<path d="M10 76L24 76L24 62L10 62ZM26 76L30 76L30 72L28 72L28 74L26 74ZM32 76L34 76L34 74L36 74L36 72L32 72ZM36 76L44 76L44 74L40 74L40 72L42 72L42 70L40 70L40 66L38 66L38 64L36 64L36 68L38 68L38 74L36 74ZM56 76L64 76L64 74L62 74L62 72L60 72L60 74L56 74ZM68 76L72 76L72 74L76 74L76 64L68 64L68 58L64 58L64 56L68 56L68 54L70 54L70 52L68 52L68 50L66 50L66 52L64 52L64 54L60 54L60 58L58 58L58 52L60 52L60 48L58 48L58 44L56 44L56 48L52 48L52 50L54 50L54 52L56 52L56 56L54 56L54 58L56 58L56 60L58 60L58 64L54 64L54 62L52 62L52 64L50 64L50 66L54 66L54 70L56 70L56 68L60 68L60 70L62 70L62 68L68 68L68 70L66 70L66 72L64 72L64 74L68 74ZM12 74L12 64L22 64L22 74ZM50 74L52 74L52 72L50 72ZM14 72L20 72L20 66L14 66ZM44 72L46 72L46 70L44 70ZM48 72L50 72L50 70L48 70ZM52 72L54 72L54 70L52 70ZM56 72L60 72L60 70L56 70ZM62 72L64 72L64 70L62 70ZM70 72L70 70L72 70L72 72ZM26 70L28 70L28 66L34 66L34 64L36 64L36 62L38 62L38 60L34 60L34 62L30 62L30 64L28 64L28 62L30 62L30 60L34 60L34 56L36 56L36 58L38 58L38 60L40 60L40 58L42 58L42 56L40 56L40 54L32 54L32 58L20 58L20 56L18 56L18 60L26 60ZM30 70L34 70L34 68L30 68ZM42 70L44 70L44 68L46 68L46 66L48 66L48 64L46 64L46 62L48 62L48 64L50 64L50 60L46 60L46 58L48 58L48 56L50 56L50 54L46 54L46 56L44 56L44 60L42 60L42 62L44 62L44 66L42 66ZM46 70L48 70L48 68L46 68ZM72 70L72 68L70 68L70 66L74 66L74 70ZM48 68L50 68L50 66L48 66ZM60 66L60 60L66 60L66 66ZM40 64L42 64L42 62L40 62ZM62 64L64 64L64 62L62 62ZM54 62L56 62L56 60L54 60ZM70 62L76 62L76 60L74 60L74 58L76 58L76 52L72 52L72 56L68 56L68 58L72 58L72 60L70 60ZM10 60L14 60L14 58L12 58L12 54L14 54L14 50L10 50ZM50 60L52 60L52 58L50 58ZM14 58L16 58L16 56L14 56ZM16 56L18 56L18 54L16 54ZM20 56L24 56L24 54L20 54ZM28 56L30 56L30 54L28 54ZM18 54L20 54L20 52L18 52ZM26 54L28 54L28 52L32 52L32 50L30 50L30 48L28 48L28 46L32 46L32 44L34 44L34 42L30 42L30 40L28 40L28 44L26 44L26 46L22 46L22 48L26 48L26 50L22 50L22 48L20 48L20 42L18 42L18 50L20 50L20 52L26 52ZM50 54L52 54L52 52L50 52ZM16 52L18 52L18 50L16 50ZM34 52L38 52L38 50L36 50L36 48L34 48ZM40 52L44 52L44 48L42 48L42 50L40 50ZM46 52L48 52L48 50L46 50ZM14 50L16 50L16 48L14 48ZM48 50L50 50L50 46L52 46L52 42L50 42L50 44L48 44L48 46L46 46L46 42L44 42L44 48L48 48ZM62 50L66 50L66 48L62 48ZM68 50L76 50L76 46L74 46L74 48L70 48L70 46L74 46L74 44L70 44L70 42L74 42L74 44L76 44L76 40L72 40L72 36L74 36L74 38L76 38L76 30L72 30L72 32L74 32L74 34L72 34L72 32L70 32L70 34L68 34L68 38L70 38L70 40L68 40L68 38L66 38L66 46L68 46ZM36 48L42 48L42 42L40 42L40 44L38 44L38 46L36 46ZM60 48L62 48L62 46L60 46ZM10 46L16 46L16 44L14 44L14 42L12 42L12 44L10 44ZM62 46L64 46L64 38L60 38L60 36L64 36L64 34L58 34L58 36L56 36L56 38L58 38L58 44L62 44ZM22 44L26 44L26 40L28 40L28 38L30 38L30 36L28 36L28 32L32 32L32 34L34 34L34 30L32 30L32 28L36 28L36 34L34 34L34 36L38 36L38 30L40 30L40 26L44 26L44 22L46 22L46 24L48 24L48 22L50 22L50 20L46 20L46 18L44 18L44 14L40 14L40 12L42 12L42 10L36 10L36 12L32 12L32 16L34 16L34 18L36 18L36 16L38 16L38 18L40 18L40 16L42 16L42 18L40 18L40 20L38 20L38 24L36 24L36 26L34 26L34 24L32 24L32 22L30 22L30 26L16 26L16 32L12 32L12 30L10 30L10 34L18 34L18 30L20 30L20 28L26 28L26 30L22 30L22 32L26 32L26 36L24 36L24 38L20 38L20 42L22 42L22 40L24 40L24 42L22 42ZM14 42L16 42L16 40L14 40ZM34 42L36 42L36 40L38 40L38 38L34 38L34 36L32 36L32 38L30 38L30 40L34 40ZM38 42L40 42L40 40L38 40ZM42 42L44 42L44 40L42 40ZM60 42L60 40L62 40L62 42ZM10 40L12 40L12 38L16 38L16 40L18 40L18 36L10 36ZM40 40L42 40L42 38L40 38ZM46 40L50 40L50 38L52 38L52 40L56 40L56 38L54 38L54 36L56 36L56 34L50 34L50 32L46 32L46 34L48 34L48 36L46 36L46 34L44 34L44 38L46 38ZM38 38L40 38L40 36L38 36ZM64 38L66 38L66 36L64 36ZM22 36L24 36L24 34L22 34ZM30 36L32 36L32 34L30 34ZM40 36L42 36L42 34L40 34ZM20 34L22 34L22 32L20 32ZM40 32L42 32L42 30L40 30ZM52 32L54 32L54 30L52 30ZM56 32L60 32L60 30L58 30L58 28L56 28ZM62 32L66 32L66 30L62 30ZM44 30L46 30L46 26L44 26ZM60 30L62 30L62 26L60 26L60 20L58 20L58 18L56 18L56 22L58 22L58 28L60 28ZM66 30L68 30L68 26L66 26ZM70 30L72 30L72 28L76 28L76 26L70 26ZM10 28L12 28L12 26L10 26ZM54 28L56 28L56 26L54 26ZM10 24L24 24L24 10L10 10ZM26 24L28 24L28 22L26 22ZM34 24L36 24L36 22L34 22ZM40 24L40 22L42 22L42 24ZM50 24L52 24L52 22L50 22ZM54 24L56 24L56 22L54 22ZM62 24L76 24L76 10L62 10ZM12 22L12 12L22 12L22 22ZM64 22L64 12L74 12L74 22ZM14 20L20 20L20 14L14 14ZM26 20L30 20L30 18L32 18L32 16L28 16L28 18L26 18ZM32 20L34 20L34 18L32 18ZM66 20L72 20L72 14L66 14ZM46 18L52 18L52 12L50 12L50 10L44 10L44 12L46 12L46 14L50 14L50 16L46 16ZM54 18L56 18L56 16L54 16ZM58 18L60 18L60 14L56 14L56 16L58 16ZM26 16L28 16L28 14L30 14L30 12L28 12L28 10L26 10ZM54 14L56 14L56 12L58 12L58 10L54 10ZM30 12L32 12L32 10L30 10Z" fill="#000000" fill-rule="evenodd" />
</svg>
