<svg viewBox="0 0 79 79" xmlns="http://www.w3.org/2000/svg">
<rect width="100%" height="100%" fill="#FFFFFF" />
<path d="M0 0L0 79L79 79L79 0ZM2 2L77 2L77 77L2 77Z" fill="#ffffff" fill-rule="evenodd" />
<path d="M10 68L24 68L24 54L10 54ZM26 68L28 68L28 66L26 66ZM30 68L32 68L32 64L30 64L30 62L28 62L28 66L30 66ZM34 68L38 68L38 62L36 62L36 66L34 66ZM40 68L52 68L52 62L50 62L50 66L46 66L46 64L42 64L42 62L40 62ZM60 68L62 68L62 66L60 66ZM12 66L12 56L22 56L22 66ZM56 66L58 66L58 64L62 64L62 62L54 62L54 64L56 64ZM62 66L66 66L66 64L68 64L68 62L64 62L64 64L62 64ZM14 64L20 64L20 58L14 58ZM30 62L36 62L36 60L44 60L44 62L50 62L50 60L60 60L60 56L62 56L62 54L60 54L60 52L66 52L66 50L60 50L60 46L62 46L62 40L58 40L58 42L60 42L60 44L58 44L58 48L56 48L56 50L48 50L48 48L46 48L46 50L44 50L44 46L42 46L42 48L40 48L40 50L42 50L42 52L46 52L46 56L50 56L50 58L46 58L46 56L42 56L42 52L38 52L38 48L40 48L40 46L36 46L36 48L34 48L34 52L36 52L36 54L40 54L40 56L38 56L38 58L32 58L32 60L30 60ZM62 62L64 62L64 60L62 60ZM26 60L30 60L30 58L26 58ZM64 60L66 60L66 58L68 58L68 52L66 52L66 54L64 54ZM30 58L32 58L32 56L36 56L36 54L34 54L34 52L32 52L32 54L30 54ZM52 58L52 52L58 52L58 58ZM26 56L28 56L28 50L20 50L20 52L26 52ZM54 56L56 56L56 54L54 54ZM48 54L48 52L50 52L50 54ZM10 52L18 52L18 48L14 48L14 50L10 50ZM66 50L68 50L68 48L66 48ZM18 48L24 48L24 46L22 46L22 44L20 44L20 46L18 46ZM26 48L30 48L30 46L28 46L28 44L26 44ZM32 48L34 48L34 46L36 46L36 44L44 44L44 46L46 46L46 44L50 44L50 40L48 40L48 42L42 42L42 40L38 40L38 42L36 42L36 40L34 40L34 38L40 38L40 36L38 36L38 32L40 32L40 34L44 34L44 38L48 38L48 36L50 36L50 34L54 34L54 30L52 30L52 28L54 28L54 30L56 30L56 28L60 28L60 30L64 30L64 28L62 28L62 26L52 26L52 14L50 14L50 12L48 12L48 16L50 16L50 20L46 20L46 14L44 14L44 12L42 12L42 14L40 14L40 16L38 16L38 18L36 18L36 16L32 16L32 12L30 12L30 10L26 10L26 12L28 12L28 16L26 16L26 26L22 26L22 28L28 28L28 32L30 32L30 28L32 28L32 22L30 22L30 26L28 26L28 22L30 22L30 20L32 20L32 18L34 18L34 20L36 20L36 22L38 22L38 26L34 26L34 28L42 28L42 26L40 26L40 22L42 22L42 20L40 20L40 18L42 18L42 20L44 20L44 22L46 22L46 24L48 24L48 22L50 22L50 24L48 24L48 26L46 26L46 28L50 28L50 32L48 32L48 34L46 34L46 32L48 32L48 30L46 30L46 28L44 28L44 30L32 30L32 32L36 32L36 36L34 36L34 34L28 34L28 36L30 36L30 38L28 38L28 40L26 40L26 42L34 42L34 44L32 44ZM48 48L56 48L56 44L58 44L58 42L54 42L54 44L50 44L50 46L48 46ZM62 48L66 48L66 46L62 46ZM10 46L14 46L14 44L12 44L12 40L14 40L14 38L12 38L12 36L14 36L14 38L16 38L16 36L18 36L18 34L16 34L16 32L18 32L18 28L16 28L16 30L12 30L12 34L10 34ZM16 46L18 46L18 42L22 42L22 40L24 40L24 38L22 38L22 36L24 36L24 34L20 34L20 36L18 36L18 38L16 38L16 42L14 42L14 44L16 44ZM22 44L26 44L26 42L22 42ZM42 40L44 40L44 38L42 38ZM52 40L56 40L56 36L58 36L58 32L56 32L56 34L54 34L54 38L52 38ZM64 40L68 40L68 34L66 34L66 36L64 36ZM26 38L28 38L28 36L26 36ZM50 38L52 38L52 36L50 36ZM58 38L60 38L60 36L58 36ZM60 36L62 36L62 34L60 34ZM18 34L20 34L20 32L18 32ZM24 34L26 34L26 30L22 30L22 28L20 28L20 32L24 32ZM62 34L64 34L64 32L62 32ZM58 32L60 32L60 30L58 30ZM66 32L68 32L68 30L66 30ZM10 30L12 30L12 26L10 26ZM18 28L20 28L20 26L18 26ZM66 28L68 28L68 26L66 26ZM44 26L46 26L46 24L44 24ZM10 24L24 24L24 10L10 10ZM34 24L36 24L36 22L34 22ZM42 24L44 24L44 22L42 22ZM54 24L68 24L68 10L54 10ZM12 22L12 12L22 12L22 22ZM56 22L56 12L66 12L66 22ZM14 20L20 20L20 14L14 14ZM58 20L64 20L64 14L58 14ZM36 16L38 16L38 14L36 14ZM34 14L36 14L36 10L32 10L32 12L34 12ZM46 12L48 12L48 10L46 10ZM50 12L52 12L52 10L50 10Z" fill="#000000" fill-rule="evenodd" />
</svg>
