<svg viewBox="0 0 131 43" xmlns="http://www.w3.org/2000/svg">
<rect width="100%" height="100%" fill="#FFFFFF" />
<path d="M0 0L0 43L131 43L131 0ZM2 2L129 2L129 41L2 41Z" fill="#ffffff" fill-rule="evenodd" />
<path d="M6 36L12 36L12 34L14 34L14 36L16 36L16 34L18 34L18 36L20 36L20 34L22 34L22 36L24 36L24 34L26 34L26 36L28 36L28 34L30 34L30 36L32 36L32 32L34 32L34 30L30 30L30 28L32 28L32 26L34 26L34 28L36 28L36 34L38 34L38 36L40 36L40 34L42 34L42 36L48 36L48 34L50 34L50 36L52 36L52 30L50 30L50 26L52 26L52 30L54 30L54 32L56 32L56 30L58 30L58 32L60 32L60 30L62 30L62 28L64 28L64 26L66 26L66 28L72 28L72 30L74 30L74 32L78 32L78 30L76 30L76 28L74 28L74 22L72 22L72 20L70 20L70 24L72 24L72 26L68 26L68 24L62 24L62 26L60 26L60 28L54 28L54 26L60 26L60 24L58 24L58 22L56 22L56 24L54 24L54 22L52 22L52 24L50 24L50 22L52 22L52 20L56 20L56 18L50 18L50 20L48 20L48 22L42 22L42 20L40 20L40 22L38 22L38 24L40 24L40 26L44 26L44 24L46 24L46 26L48 26L48 30L42 30L42 32L40 32L40 30L38 30L38 28L40 28L40 26L38 26L38 24L34 24L34 22L32 22L32 24L30 24L30 26L28 26L28 28L26 28L26 26L28 26L28 24L26 24L26 22L22 22L22 24L20 24L20 26L24 26L24 28L22 28L22 30L24 30L24 32L20 32L20 26L18 26L18 28L12 28L12 26L10 26L10 30L6 30ZM34 36L36 36L36 34L34 34ZM54 36L56 36L56 34L54 34ZM58 36L60 36L60 34L58 34ZM62 36L64 36L64 34L62 34ZM66 36L68 36L68 34L66 34ZM70 36L72 36L72 32L70 32L70 30L66 30L66 32L68 32L68 34L70 34ZM74 36L76 36L76 34L74 34ZM78 36L80 36L80 34L78 34ZM82 36L88 36L88 30L80 30L80 32L82 32ZM90 36L92 36L92 34L90 34ZM94 36L96 36L96 34L98 34L98 28L96 28L96 32L94 32ZM98 36L100 36L100 34L98 34ZM102 36L104 36L104 34L102 34ZM106 36L108 36L108 34L110 34L110 32L104 32L104 34L106 34ZM110 36L112 36L112 34L110 34ZM114 36L124 36L124 26L120 26L120 24L118 24L118 22L116 22L116 26L114 26L114 22L112 22L112 28L110 28L110 24L108 24L108 22L110 22L110 20L120 20L120 24L124 24L124 22L122 22L122 20L124 20L124 18L120 18L120 12L116 12L116 14L118 14L118 18L116 18L116 14L114 14L114 12L116 12L116 6L114 6L114 10L112 10L112 6L110 6L110 12L112 12L112 16L114 16L114 18L108 18L108 16L106 16L106 18L104 18L104 20L106 20L106 22L104 22L104 26L106 26L106 28L108 28L108 30L110 30L110 32L112 32L112 34L114 34ZM8 34L8 32L10 32L10 34ZM44 34L44 32L46 32L46 34ZM84 34L84 32L86 32L86 34ZM116 34L116 28L122 28L122 34ZM14 32L14 30L18 30L18 32ZM26 32L26 30L28 30L28 32ZM62 32L64 32L64 30L62 30ZM90 32L94 32L94 26L96 26L96 24L94 24L94 20L90 20L90 18L88 18L88 16L86 16L86 18L84 18L84 20L88 20L88 22L90 22L90 24L92 24L92 28L88 28L88 30L90 30ZM118 32L120 32L120 30L118 30ZM40 30L42 30L42 28L40 28ZM6 28L8 28L8 26L6 26ZM44 28L46 28L46 26L44 26ZM84 28L88 28L88 26L90 26L90 24L86 24L86 26L84 26ZM98 28L104 28L104 26L100 26L100 24L98 24ZM8 26L10 26L10 24L18 24L18 22L6 22L6 24L8 24ZM28 24L30 24L30 22L28 22ZM60 24L62 24L62 22L60 22ZM80 24L82 24L82 22L80 22ZM84 24L86 24L86 22L84 22ZM34 22L36 22L36 20L34 20ZM62 22L68 22L68 20L66 20L66 18L64 18L64 20L62 20ZM74 22L80 22L80 16L78 16L78 20L76 20L76 16L74 16L74 18L72 18L72 20L74 20ZM102 22L104 22L104 20L102 20ZM6 20L20 20L20 6L6 6ZM22 20L24 20L24 16L26 16L26 14L24 14L24 12L28 12L28 10L30 10L30 12L32 12L32 6L30 6L30 8L28 8L28 6L26 6L26 10L22 10ZM30 20L32 20L32 16L34 16L34 14L36 14L36 12L32 12L32 14L30 14L30 16L28 16L28 18L30 18ZM42 20L48 20L48 18L44 18L44 16L40 16L40 18L42 18ZM58 20L60 20L60 18L58 18ZM96 20L102 20L102 18L100 18L100 16L98 16L98 18L96 18ZM8 18L8 8L18 8L18 18ZM36 18L38 18L38 16L36 16ZM48 18L50 18L50 16L48 16ZM68 18L72 18L72 16L70 16L70 14L66 14L66 16L68 16ZM94 18L96 18L96 16L94 16ZM102 18L104 18L104 16L102 16ZM10 16L16 16L16 10L10 10ZM38 16L40 16L40 14L38 14ZM44 16L46 16L46 14L44 14ZM52 16L56 16L56 14L58 14L58 16L60 16L60 14L62 14L62 12L64 12L64 10L66 10L66 12L72 12L72 14L74 14L74 8L72 8L72 10L68 10L68 6L66 6L66 8L64 8L64 6L62 6L62 10L60 10L60 12L54 12L54 8L52 8L52 6L50 6L50 8L48 8L48 6L42 6L42 8L40 8L40 12L46 12L46 14L52 14ZM62 16L64 16L64 14L62 14ZM76 16L78 16L78 14L80 14L80 12L76 12ZM80 16L82 16L82 14L80 14ZM84 16L86 16L86 14L84 14ZM88 16L92 16L92 12L90 12L90 14L88 14ZM96 16L98 16L98 12L100 12L100 6L98 6L98 8L96 8L96 6L94 6L94 8L92 8L92 12L96 12ZM100 16L102 16L102 12L100 12ZM104 16L106 16L106 14L108 14L108 16L110 16L110 12L106 12L106 10L108 10L108 6L106 6L106 8L104 8L104 6L102 6L102 12L104 12ZM122 16L124 16L124 14L122 14ZM36 12L38 12L38 8L36 8ZM48 12L48 10L50 10L50 12ZM82 12L90 12L90 10L88 10L88 6L82 6ZM122 12L124 12L124 6L118 6L118 10L120 10L120 8L122 8ZM44 10L44 8L46 8L46 10ZM58 10L60 10L60 6L58 6ZM84 10L84 8L86 8L86 10ZM22 8L24 8L24 6L22 6ZM34 8L36 8L36 6L34 6ZM38 8L40 8L40 6L38 6ZM54 8L56 8L56 6L54 6ZM70 8L72 8L72 6L70 6ZM74 8L76 8L76 6L74 6ZM78 8L80 8L80 6L78 6ZM90 8L92 8L92 6L90 6Z" fill="#000000" fill-rule="evenodd" />
</svg>
