<svg viewBox="0 0 87 87" xmlns="http://www.w3.org/2000/svg">
<rect width="100%" height="100%" fill="#FFFFFF" />
<path d="M0 0L0 87L87 87L87 0ZM2 2L85 2L85 85L2 85Z" fill="#ffffff" fill-rule="evenodd" />
<path d="M10 76L24 76L24 62L10 62ZM26 76L28 76L28 74L26 74ZM34 76L38 76L38 74L40 74L40 76L50 76L50 74L44 74L44 72L42 72L42 68L40 68L40 72L36 72L36 74L34 74ZM54 76L60 76L60 74L56 74L56 72L54 72L54 70L50 70L50 72L52 72L52 74L54 74ZM62 76L64 76L64 74L62 74ZM72 76L74 76L74 74L72 74ZM12 74L12 64L22 64L22 74ZM30 74L32 74L32 72L30 72ZM60 74L62 74L62 72L60 72ZM66 74L72 74L72 72L66 72ZM14 72L20 72L20 66L14 66ZM26 72L30 72L30 68L36 68L36 66L34 66L34 64L32 64L32 62L28 62L28 64L30 64L30 66L28 66L28 64L26 64ZM32 72L34 72L34 70L32 70ZM44 72L48 72L48 68L46 68L46 70L44 70ZM58 72L60 72L60 70L62 70L62 68L66 68L66 70L68 70L68 68L70 68L70 66L68 66L68 60L70 60L70 58L66 58L66 56L64 56L64 58L62 58L62 56L60 56L60 58L58 58L58 60L52 60L52 62L50 62L50 64L52 64L52 68L54 68L54 66L56 66L56 64L54 64L54 62L56 62L56 64L58 64L58 68L54 68L54 70L58 70ZM62 72L66 72L66 70L62 70ZM36 70L38 70L38 68L36 68ZM70 70L72 70L72 68L70 68ZM74 70L76 70L76 66L74 66ZM38 68L40 68L40 66L42 66L42 62L38 62L38 64L36 64L36 66L38 66ZM44 68L46 68L46 66L48 66L48 62L50 62L50 60L52 60L52 58L58 58L58 56L54 56L54 50L56 50L56 46L58 46L58 44L52 44L52 48L48 48L48 50L52 50L52 52L50 52L50 54L52 54L52 56L50 56L50 58L48 58L48 60L46 60L46 58L42 58L42 56L46 56L46 54L44 54L44 52L42 52L42 54L40 54L40 56L34 56L34 60L36 60L36 58L40 58L40 60L44 60L44 62L46 62L46 64L44 64ZM60 66L60 60L66 60L66 66ZM70 66L72 66L72 64L70 64ZM34 64L36 64L36 62L34 62ZM62 64L64 64L64 62L62 62ZM26 62L28 62L28 60L30 60L30 58L26 58ZM32 62L34 62L34 60L32 60ZM36 62L38 62L38 60L36 60ZM70 62L76 62L76 56L74 56L74 60L70 60ZM10 60L12 60L12 50L14 50L14 48L12 48L12 44L10 44ZM16 60L20 60L20 56L16 56ZM22 60L24 60L24 58L22 58ZM24 58L26 58L26 56L30 56L30 58L32 58L32 54L30 54L30 52L32 52L32 54L34 54L34 52L36 52L36 50L38 50L38 52L42 52L42 50L40 50L40 48L38 48L38 44L32 44L32 42L30 42L30 46L28 46L28 48L30 48L30 50L26 50L26 52L24 52L24 54L20 54L20 56L24 56ZM46 58L48 58L48 56L46 56ZM70 58L72 58L72 56L70 56ZM58 56L60 56L60 54L64 54L64 52L58 52ZM18 54L20 54L20 52L18 52ZM36 54L38 54L38 52L36 52ZM46 54L48 54L48 52L46 52ZM68 54L76 54L76 52L74 52L74 50L72 50L72 52L68 52ZM16 52L18 52L18 50L16 50ZM20 52L24 52L24 50L22 50L22 48L18 48L18 50L20 50ZM64 52L68 52L68 50L64 50ZM32 50L32 46L34 46L34 50ZM44 50L46 50L46 44L48 44L48 46L50 46L50 44L52 44L52 42L56 42L56 38L54 38L54 36L52 36L52 34L50 34L50 38L52 38L52 40L50 40L50 42L48 42L48 40L46 40L46 42L42 42L42 40L46 40L46 38L42 38L42 36L46 36L46 38L48 38L48 32L46 32L46 30L44 30L44 28L42 28L42 30L40 30L40 32L38 32L38 34L36 34L36 32L34 32L34 34L30 34L30 36L24 36L24 38L22 38L22 40L26 40L26 38L28 38L28 40L34 40L34 38L32 38L32 36L40 36L40 40L36 40L36 42L38 42L38 44L44 44ZM58 50L60 50L60 46L58 46ZM68 50L72 50L72 48L74 48L74 46L72 46L72 44L70 44L70 48L68 48ZM16 48L18 48L18 44L16 44L16 42L14 42L14 46L16 46ZM22 48L26 48L26 44L24 44L24 46L22 46ZM40 48L42 48L42 46L40 46ZM64 48L68 48L68 46L66 46L66 44L62 44L62 46L64 46ZM74 46L76 46L76 44L74 44ZM20 44L24 44L24 42L20 42ZM58 44L62 44L62 42L64 42L64 40L60 40L60 38L64 38L64 36L58 36ZM66 44L70 44L70 42L66 42ZM72 44L74 44L74 42L72 42ZM10 42L12 42L12 40L16 40L16 38L12 38L12 36L10 36ZM16 42L20 42L20 40L16 40ZM70 42L72 42L72 40L74 40L74 38L72 38L72 36L70 36L70 34L66 34L66 30L64 30L64 32L54 32L54 30L52 30L52 28L50 28L50 26L48 26L48 28L46 28L46 30L50 30L50 32L52 32L52 34L54 34L54 36L56 36L56 34L64 34L64 36L68 36L68 38L70 38ZM74 42L76 42L76 40L74 40ZM64 40L68 40L68 38L64 38ZM16 38L20 38L20 36L18 36L18 34L20 34L20 32L12 32L12 36L14 36L14 34L16 34ZM74 38L76 38L76 36L74 36ZM22 36L24 36L24 34L22 34ZM72 36L74 36L74 34L72 34ZM26 34L30 34L30 32L26 32ZM70 34L72 34L72 32L70 32ZM74 34L76 34L76 32L74 32ZM10 32L12 32L12 30L10 30ZM20 32L26 32L26 28L24 28L24 30L22 30L22 28L24 28L24 26L14 26L14 28L12 28L12 30L20 30ZM30 32L32 32L32 30L30 30ZM72 32L74 32L74 30L72 30ZM36 30L40 30L40 28L38 28L38 26L36 26ZM54 30L58 30L58 28L60 28L60 26L56 26L56 28L54 28ZM62 30L64 30L64 28L70 28L70 30L72 30L72 26L62 26ZM74 30L76 30L76 28L74 28ZM10 28L12 28L12 26L10 26ZM28 28L30 28L30 26L28 26ZM40 28L42 28L42 24L40 24ZM44 28L46 28L46 26L44 26ZM26 26L28 26L28 20L30 20L30 26L36 26L36 22L34 22L34 24L32 24L32 22L34 22L34 18L28 18L28 14L26 14ZM46 26L48 26L48 22L50 22L50 20L48 20L48 14L46 14L46 20L44 20L44 22L46 22ZM52 26L54 26L54 24L52 24ZM10 24L24 24L24 10L10 10ZM38 24L40 24L40 22L42 22L42 18L44 18L44 12L40 12L40 18L38 18L38 20L36 20L36 22L38 22ZM42 24L44 24L44 22L42 22ZM50 24L52 24L52 22L50 22ZM54 24L56 24L56 22L58 22L58 20L60 20L60 10L54 10L54 12L58 12L58 14L52 14L52 10L46 10L46 12L50 12L50 16L52 16L52 18L50 18L50 20L52 20L52 22L54 22ZM58 24L60 24L60 22L58 22ZM62 24L76 24L76 10L62 10ZM12 22L12 12L22 12L22 22ZM64 22L64 12L74 12L74 22ZM14 20L20 20L20 14L14 14ZM54 20L54 16L58 16L58 18L56 18L56 20ZM66 20L72 20L72 14L66 14ZM32 16L34 16L34 14L36 14L36 16L38 16L38 12L36 12L36 10L30 10L30 12L32 12ZM38 12L40 12L40 10L38 10Z" fill="#000000" fill-rule="evenodd" />
</svg>
