<svg viewBox="0 0 95 95" xmlns="http://www.w3.org/2000/svg">
<rect width="100%" height="100%" fill="#FFFFFF" />
<path d="M0 0L0 95L95 95L95 0ZM2 2L93 2L93 93L2 93Z" fill="#ffffff" fill-rule="evenodd" />
<path d="M10 84L24 84L24 70L10 70ZM26 84L28 84L28 82L26 82ZM32 84L34 84L34 80L36 80L36 74L38 74L38 72L36 72L36 70L34 70L34 72L32 72L32 74L34 74L34 76L32 76L32 78L30 78L30 72L26 72L26 80L30 80L30 82L32 82ZM36 84L38 84L38 82L36 82ZM40 84L42 84L42 80L46 80L46 78L42 78L42 76L40 76L40 74L38 74L38 82L40 82ZM44 84L46 84L46 82L44 82ZM54 84L56 84L56 82L54 82ZM58 84L66 84L66 82L68 82L68 84L72 84L72 80L66 80L66 76L70 76L70 78L72 78L72 76L74 76L74 78L80 78L80 76L82 76L82 78L80 78L80 80L82 80L82 82L76 82L76 84L84 84L84 70L82 70L82 74L78 74L78 72L76 72L76 68L80 68L80 66L76 66L76 62L74 62L74 64L72 64L72 62L70 62L70 64L68 64L68 66L66 66L66 62L62 62L62 66L54 66L54 68L56 68L56 70L58 70L58 68L64 68L64 70L66 70L66 74L58 74L58 76L60 76L60 78L58 78L58 80L56 80L56 82L58 82ZM12 82L12 72L22 72L22 82ZM46 82L54 82L54 80L46 80ZM60 82L60 80L64 80L64 82ZM14 80L20 80L20 74L14 74ZM72 80L74 80L74 78L72 78ZM46 78L58 78L58 76L56 76L56 74L58 74L58 72L54 72L54 68L52 68L52 66L54 66L54 60L52 60L52 62L50 62L50 68L46 68L46 66L44 66L44 68L42 68L42 70L44 70L44 72L42 72L42 70L38 70L38 72L40 72L40 74L42 74L42 76L44 76L44 74L48 74L48 72L46 72L46 70L50 70L50 74L54 74L54 76L46 76ZM62 78L62 76L64 76L64 78ZM68 74L68 68L74 68L74 74ZM30 72L32 72L32 70L30 70ZM70 72L72 72L72 70L70 70ZM26 70L30 70L30 68L26 68ZM10 68L12 68L12 60L10 60ZM22 68L24 68L24 66L22 66ZM32 68L34 68L34 66L38 66L38 64L40 64L40 62L44 62L44 60L42 60L42 58L44 58L44 52L42 52L42 54L38 54L38 56L40 56L40 60L38 60L38 58L34 58L34 60L36 60L36 62L34 62L34 64L32 64ZM14 66L16 66L16 60L18 60L18 58L14 58L14 56L10 56L10 58L12 58L12 60L14 60ZM20 66L22 66L22 64L24 64L24 62L20 62ZM24 66L28 66L28 62L26 62L26 64L24 64ZM42 66L44 66L44 64L42 64ZM80 66L84 66L84 62L78 62L78 64L80 64ZM58 64L60 64L60 62L58 62ZM24 62L26 62L26 60L24 60ZM28 62L30 62L30 60L28 60ZM32 62L34 62L34 60L32 60ZM56 62L58 62L58 60L56 60ZM66 62L68 62L68 60L72 60L72 58L74 58L74 52L76 52L76 54L78 54L78 52L82 52L82 50L68 50L68 52L72 52L72 56L70 56L70 58L68 58L68 56L70 56L70 54L68 54L68 52L66 52L66 54L64 54L64 52L66 52L66 50L58 50L58 52L56 52L56 54L62 54L62 58L64 58L64 56L66 56ZM20 60L24 60L24 58L20 58ZM30 60L32 60L32 58L34 58L34 56L32 56L32 54L36 54L36 52L34 52L34 50L32 50L32 46L30 46L30 52L28 52L28 54L26 54L26 52L24 52L24 54L22 54L22 56L26 56L26 58L28 58L28 56L30 56ZM46 60L50 60L50 58L46 58ZM54 60L56 60L56 54L54 54L54 52L50 52L50 50L54 50L54 48L50 48L50 46L48 46L48 44L46 44L46 46L42 46L42 44L44 44L44 42L40 42L40 44L36 44L36 50L40 50L40 52L42 52L42 48L46 48L46 50L48 50L48 52L46 52L46 56L48 56L48 54L50 54L50 56L52 56L52 58L54 58ZM58 60L62 60L62 58L58 58ZM74 60L80 60L80 58L74 58ZM82 60L84 60L84 54L78 54L78 56L82 56ZM10 54L22 54L22 52L20 52L20 50L22 50L22 48L24 48L24 50L26 50L26 52L28 52L28 46L20 46L20 44L18 44L18 42L16 42L16 44L12 44L12 46L16 46L16 50L18 50L18 52L16 52L16 50L10 50ZM22 52L24 52L24 50L22 50ZM44 52L46 52L46 50L44 50ZM10 48L12 48L12 46L10 46ZM54 48L56 48L56 46L54 46ZM62 48L66 48L66 46L62 46ZM70 48L72 48L72 46L70 46ZM76 48L84 48L84 46L78 46L78 44L76 44ZM28 46L30 46L30 44L28 44ZM32 46L34 46L34 42L40 42L40 40L38 40L38 36L34 36L34 38L32 38L32 36L28 36L28 34L36 34L36 32L40 32L40 30L44 30L44 28L42 28L42 24L40 24L40 22L42 22L42 20L38 20L38 24L36 24L36 22L34 22L34 26L36 26L36 28L38 28L38 30L34 30L34 26L30 26L30 28L32 28L32 32L30 32L30 30L28 30L28 32L26 32L26 36L24 36L24 38L26 38L26 44L28 44L28 42L30 42L30 40L28 40L28 38L30 38L30 40L32 40L32 42L30 42L30 44L32 44ZM50 46L52 46L52 44L50 44ZM56 46L58 46L58 44L56 44ZM60 46L62 46L62 44L66 44L66 42L64 42L64 40L66 40L66 38L62 38L62 36L66 36L66 32L70 32L70 34L68 34L68 36L66 36L66 38L68 38L68 40L66 40L66 42L68 42L68 44L72 44L72 42L70 42L70 36L72 36L72 38L74 38L74 36L76 36L76 32L74 32L74 34L72 34L72 30L68 30L68 28L66 28L66 30L64 30L64 34L60 34L60 32L58 32L58 36L60 36L60 38L58 38L58 44L60 44ZM66 46L68 46L68 44L66 44ZM72 46L74 46L74 44L72 44ZM10 44L12 44L12 42L14 42L14 40L12 40L12 36L10 36ZM22 44L24 44L24 42L22 42ZM48 44L50 44L50 42L54 42L54 40L56 40L56 38L52 38L52 36L48 36L48 38L50 38L50 40L46 40L46 34L44 34L44 32L42 32L42 38L40 38L40 40L44 40L44 42L48 42ZM54 44L56 44L56 42L54 42ZM74 44L76 44L76 40L74 40ZM78 44L82 44L82 42L84 42L84 38L80 38L80 42L78 42ZM60 42L60 40L62 40L62 42ZM14 40L18 40L18 38L14 38ZM22 40L24 40L24 38L22 38ZM56 38L58 38L58 36L56 36ZM76 38L80 38L80 36L82 36L82 32L84 32L84 30L80 30L80 34L78 34L78 36L76 36ZM12 36L14 36L14 34L12 34ZM22 36L24 36L24 34L22 34ZM54 36L56 36L56 32L54 32L54 28L52 28L52 30L50 30L50 32L52 32L52 34L54 34ZM18 34L22 34L22 32L18 32ZM46 34L48 34L48 30L46 30ZM10 32L14 32L14 28L12 28L12 30L10 30ZM16 32L18 32L18 30L16 30ZM22 32L24 32L24 30L22 30ZM18 30L20 30L20 28L24 28L24 26L14 26L14 28L18 28ZM24 30L28 30L28 28L24 28ZM56 30L58 30L58 28L66 28L66 26L54 26L54 28L56 28ZM72 30L74 30L74 28L76 28L76 30L78 30L78 28L80 28L80 26L70 26L70 28L72 28ZM10 28L12 28L12 26L10 26ZM46 28L52 28L52 26L54 26L54 24L52 24L52 22L50 22L50 24L48 24L48 26L46 26ZM26 26L28 26L28 18L30 18L30 20L32 20L32 16L28 16L28 14L26 14ZM66 26L68 26L68 22L66 22ZM10 24L24 24L24 10L10 10ZM30 24L32 24L32 22L30 22ZM42 24L44 24L44 22L42 22ZM46 24L48 24L48 20L52 20L52 22L54 22L54 18L50 18L50 16L54 16L54 18L56 18L56 20L58 20L58 18L62 18L62 24L64 24L64 22L66 22L66 20L64 20L64 16L60 16L60 14L56 14L56 12L54 12L54 10L50 10L50 12L52 12L52 14L50 14L50 12L48 12L48 14L46 14L46 16L44 16L44 18L46 18ZM54 24L56 24L56 22L54 22ZM58 24L60 24L60 22L58 22ZM70 24L84 24L84 10L70 10ZM12 22L12 12L22 12L22 22ZM72 22L72 12L82 12L82 22ZM14 20L20 20L20 14L14 14ZM36 20L38 20L38 18L36 18ZM42 20L44 20L44 18L42 18ZM74 20L80 20L80 14L74 14ZM40 18L42 18L42 16L40 16ZM34 16L40 16L40 14L38 14L38 10L34 10L34 12L36 12L36 14L34 14ZM66 16L68 16L68 14L66 14ZM28 14L34 14L34 12L32 12L32 10L30 10L30 12L28 12ZM40 14L42 14L42 12L40 12ZM64 14L66 14L66 12L64 12ZM42 12L44 12L44 10L42 10ZM46 12L48 12L48 10L46 10ZM56 12L60 12L60 10L56 10ZM66 12L68 12L68 10L66 10Z" fill="#000000" fill-rule="evenodd" />
</svg>
