<svg viewBox="0 0 87 87" xmlns="http://www.w3.org/2000/svg">
<rect width="100%" height="100%" fill="#FFFFFF" />
<path d="M0 0L0 87L87 87L87 0ZM2 2L85 2L85 85L2 85Z" fill="#ffffff" fill-rule="evenodd" />
<path d="M10 76L24 76L24 62L10 62ZM26 76L30 76L30 74L26 74ZM32 76L34 76L34 74L38 74L38 70L34 70L34 68L32 68L32 70L30 70L30 68L28 68L28 72L30 72L30 74L32 74ZM42 76L52 76L52 72L50 72L50 74L44 74L44 72L50 72L50 70L52 70L52 68L56 68L56 66L52 66L52 60L54 60L54 58L50 58L50 56L48 56L48 52L44 52L44 50L48 50L48 52L52 52L52 50L50 50L50 44L52 44L52 40L54 40L54 44L56 44L56 46L54 46L54 48L58 48L58 50L60 50L60 46L58 46L58 42L56 42L56 38L52 38L52 36L54 36L54 34L50 34L50 32L48 32L48 34L42 34L42 32L44 32L44 30L40 30L40 32L38 32L38 34L36 34L36 36L34 36L34 38L32 38L32 40L38 40L38 38L40 38L40 36L42 36L42 38L44 38L44 36L48 36L48 38L50 38L50 42L48 42L48 48L42 48L42 54L40 54L40 56L46 56L46 60L50 60L50 66L46 66L46 68L48 68L48 70L44 70L44 68L42 68L42 72L40 72L40 74L42 74ZM58 76L62 76L62 74L64 74L64 76L66 76L66 74L70 74L70 76L74 76L74 74L72 74L72 72L68 72L68 68L70 68L70 66L68 66L68 64L70 64L70 66L74 66L74 62L68 62L68 60L70 60L70 58L72 58L72 56L74 56L74 54L76 54L76 52L72 52L72 54L70 54L70 56L68 56L68 58L64 58L64 54L62 54L62 58L60 58L60 56L58 56L58 64L56 64L56 66L58 66L58 68L60 68L60 70L62 70L62 68L64 68L64 70L62 70L62 72L60 72L60 74L58 74ZM12 74L12 64L22 64L22 74ZM54 74L58 74L58 72L54 72ZM14 72L20 72L20 66L14 66ZM58 72L60 72L60 70L58 70ZM72 72L76 72L76 68L70 68L70 70L72 70ZM34 68L38 68L38 66L34 66ZM28 66L32 66L32 60L34 60L34 62L36 62L36 60L38 60L38 62L40 62L40 60L42 60L42 62L40 62L40 64L42 64L42 66L44 66L44 58L38 58L38 54L40 54L40 52L38 52L38 48L34 48L34 50L36 50L36 52L34 52L34 54L36 54L36 56L34 56L34 58L28 58L28 56L26 56L26 58L20 58L20 60L26 60L26 62L30 62L30 64L28 64ZM60 66L60 60L66 60L66 66ZM36 64L38 64L38 62L36 62ZM46 64L48 64L48 62L46 62ZM54 64L56 64L56 60L54 60ZM62 64L64 64L64 62L62 62ZM10 60L16 60L16 58L12 58L12 52L18 52L18 54L22 54L22 52L20 52L20 50L16 50L16 44L14 44L14 46L10 46ZM74 60L76 60L76 58L74 58ZM16 58L20 58L20 56L18 56L18 54L14 54L14 56L16 56ZM54 58L56 58L56 54L50 54L50 56L54 56ZM22 56L26 56L26 52L24 52L24 54L22 54ZM32 56L34 56L34 54L32 54ZM66 56L68 56L68 52L66 52L66 50L64 50L64 54L66 54ZM30 54L32 54L32 50L26 50L26 52L30 52ZM22 52L24 52L24 50L22 50ZM54 52L58 52L58 50L54 50ZM60 52L62 52L62 50L60 50ZM12 50L12 48L14 48L14 50ZM24 50L26 50L26 48L24 48ZM62 50L64 50L64 48L66 48L66 50L76 50L76 46L74 46L74 48L68 48L68 46L66 46L66 44L70 44L70 42L76 42L76 40L74 40L74 36L72 36L72 38L66 38L66 36L64 36L64 34L62 34L62 38L64 38L64 46L62 46ZM18 48L20 48L20 46L22 46L22 44L20 44L20 38L18 38L18 36L20 36L20 34L22 34L22 32L24 32L24 30L22 30L22 28L20 28L20 32L18 32L18 34L16 34L16 32L14 32L14 36L16 36L16 38L14 38L14 36L12 36L12 34L10 34L10 42L12 42L12 40L14 40L14 42L16 42L16 40L18 40L18 42L16 42L16 44L18 44ZM22 48L24 48L24 46L22 46ZM26 48L34 48L34 46L32 46L32 44L26 44ZM40 48L42 48L42 46L46 46L46 42L44 42L44 44L38 44L38 46L40 46ZM60 46L62 46L62 38L60 38L60 40L58 40L58 42L60 42ZM70 46L72 46L72 44L70 44ZM22 44L26 44L26 42L28 42L28 40L24 40L24 42L22 42ZM32 44L34 44L34 42L32 42ZM30 42L32 42L32 40L30 40ZM40 42L42 42L42 40L40 40ZM66 42L66 40L68 40L68 42ZM22 40L24 40L24 38L22 38ZM44 40L46 40L46 38L44 38ZM24 38L32 38L32 36L34 36L34 34L30 34L30 36L24 36ZM56 38L58 38L58 36L56 36ZM22 36L24 36L24 34L22 34ZM58 36L60 36L60 30L58 30ZM68 36L72 36L72 32L70 32L70 30L68 30L68 28L66 28L66 30L64 30L64 34L68 34ZM28 34L30 34L30 30L32 30L32 28L28 28L28 30L26 30L26 32L28 32ZM74 34L76 34L76 32L74 32ZM10 32L14 32L14 30L12 30L12 26L10 26ZM46 32L48 32L48 30L46 30ZM72 32L74 32L74 30L76 30L76 28L74 28L74 26L68 26L68 28L70 28L70 30L72 30ZM34 30L36 30L36 28L38 28L38 26L36 26L36 20L34 20L34 18L32 18L32 22L34 22L34 26L32 26L32 28L34 28ZM48 30L56 30L56 28L60 28L60 30L62 30L62 28L64 28L64 26L60 26L60 22L58 22L58 26L56 26L56 22L54 22L54 26L52 26L52 22L54 22L54 20L56 20L56 18L54 18L54 14L56 14L56 12L54 12L54 10L50 10L50 14L46 14L46 12L42 12L42 16L50 16L50 18L52 18L52 20L50 20L50 24L48 24ZM22 28L24 28L24 26L22 26ZM26 28L28 28L28 26L32 26L32 22L30 22L30 24L28 24L28 22L26 22ZM40 28L42 28L42 26L40 26ZM44 28L46 28L46 26L44 26ZM38 26L40 26L40 20L38 20ZM10 24L24 24L24 10L10 10ZM42 24L44 24L44 20L42 20ZM46 24L48 24L48 22L46 22ZM62 24L76 24L76 10L62 10ZM12 22L12 12L22 12L22 22ZM64 22L64 12L74 12L74 22ZM14 20L20 20L20 14L14 14ZM28 20L30 20L30 18L32 18L32 16L30 16L30 14L32 14L32 16L38 16L38 14L40 14L40 12L42 12L42 10L38 10L38 12L36 12L36 14L34 14L34 12L26 12L26 18L28 18ZM40 20L42 20L42 18L40 18ZM46 20L48 20L48 18L46 18ZM66 20L72 20L72 14L66 14ZM56 18L60 18L60 12L58 12L58 14L56 14ZM34 12L36 12L36 10L34 10ZM56 12L58 12L58 10L56 10Z" fill="#000000" fill-rule="evenodd" />
</svg>
