<svg viewBox="0 0 79 79" xmlns="http://www.w3.org/2000/svg">
<rect width="100%" height="100%" fill="#FFFFFF" />
<path d="M0 0L0 79L79 79L79 0ZM2 2L77 2L77 77L2 77Z" fill="#ffffff" fill-rule="evenodd" />
<path d="M10 68L24 68L24 54L10 54ZM26 68L30 68L30 64L28 64L28 66L26 66ZM34 68L46 68L46 66L34 66ZM50 68L54 68L54 64L56 64L56 62L54 62L54 60L56 60L56 62L58 62L58 60L60 60L60 58L62 58L62 56L60 56L60 50L54 50L54 48L52 48L52 50L50 50L50 52L46 52L46 54L48 54L48 60L52 60L52 66L50 66ZM58 68L60 68L60 66L58 66ZM66 68L68 68L68 66L66 66ZM12 66L12 56L22 56L22 66ZM32 66L34 66L34 64L38 64L38 62L40 62L40 56L46 56L46 54L44 54L44 52L40 52L40 54L36 54L36 56L38 56L38 58L36 58L36 60L34 60L34 58L36 58L36 56L32 56ZM46 66L50 66L50 62L48 62L48 64L46 64ZM56 66L58 66L58 64L56 64ZM60 66L62 66L62 64L68 64L68 54L66 54L66 58L64 58L64 60L66 60L66 62L58 62L58 64L60 64ZM14 64L20 64L20 58L14 58ZM26 64L28 64L28 62L26 62ZM40 64L42 64L42 62L40 62ZM44 64L46 64L46 62L44 62ZM42 62L44 62L44 60L42 60ZM44 60L46 60L46 58L44 58ZM52 58L52 52L58 52L58 58ZM26 56L28 56L28 52L26 52ZM54 56L56 56L56 54L54 54ZM62 56L64 56L64 54L62 54ZM30 54L34 54L34 52L38 52L38 48L36 48L36 50L34 50L34 46L32 46L32 44L30 44L30 48L32 48L32 52L30 52ZM10 52L14 52L14 50L10 50ZM22 52L26 52L26 48L24 48L24 50L22 50ZM62 52L64 52L64 50L62 50ZM66 52L68 52L68 50L66 50ZM14 50L16 50L16 46L18 46L18 42L14 42L14 46L10 46L10 48L14 48ZM18 50L22 50L22 48L24 48L24 46L20 46L20 48L18 48ZM28 50L30 50L30 48L28 48ZM48 50L50 50L50 48L52 48L52 46L54 46L54 48L56 48L56 46L58 46L58 44L60 44L60 42L58 42L58 40L54 40L54 44L52 44L52 42L50 42L50 40L52 40L52 36L50 36L50 38L48 38L48 40L46 40L46 42L48 42L48 44L46 44L46 48L48 48ZM60 50L62 50L62 48L64 48L64 44L62 44L62 46L60 46ZM40 48L44 48L44 32L42 32L42 36L40 36L40 38L36 38L36 40L38 40L38 42L36 42L36 40L34 40L34 38L32 38L32 40L30 40L30 42L32 42L32 44L36 44L36 46L40 46ZM66 48L68 48L68 46L66 46ZM26 46L28 46L28 44L26 44ZM10 44L12 44L12 42L10 42ZM22 44L26 44L26 42L28 42L28 38L22 38L22 40L24 40L24 42L22 42ZM28 44L30 44L30 42L28 42ZM64 44L68 44L68 38L66 38L66 40L64 40ZM20 42L22 42L22 40L20 40ZM10 40L12 40L12 38L10 38ZM14 40L16 40L16 38L14 38ZM18 40L20 40L20 38L18 38ZM58 40L62 40L62 38L58 38ZM16 38L18 38L18 36L20 36L20 34L18 34L18 28L16 28L16 32L14 32L14 34L16 34ZM20 38L22 38L22 36L20 36ZM46 38L48 38L48 36L46 36ZM56 38L58 38L58 36L56 36ZM62 38L66 38L66 36L68 36L68 34L62 34L62 30L60 30L60 34L58 34L58 36L62 36ZM12 36L14 36L14 34L12 34ZM22 36L26 36L26 34L28 34L28 32L24 32L24 34L22 34ZM28 36L30 36L30 34L28 34ZM32 36L34 36L34 34L32 34ZM36 36L38 36L38 32L36 32L36 30L40 30L40 26L42 26L42 28L44 28L44 22L42 22L42 24L40 24L40 22L38 22L38 26L36 26L36 28L26 28L26 26L22 26L22 28L24 28L24 30L28 30L28 32L30 32L30 34L32 34L32 30L34 30L34 34L36 34ZM48 36L50 36L50 34L48 34ZM54 36L56 36L56 34L58 34L58 32L56 32L56 30L54 30ZM10 34L12 34L12 32L14 32L14 28L12 28L12 26L10 26ZM50 34L52 34L52 32L50 32ZM20 32L24 32L24 30L22 30L22 28L20 28ZM40 32L42 32L42 30L40 30ZM44 32L50 32L50 30L54 30L54 28L50 28L50 26L52 26L52 22L50 22L50 24L48 24L48 30L46 30L46 28L44 28ZM66 32L68 32L68 26L66 26ZM56 30L58 30L58 26L56 26ZM62 30L64 30L64 26L62 26ZM14 28L16 28L16 26L14 26ZM30 26L36 26L36 22L34 22L34 24L32 24L32 20L26 20L26 24L28 24L28 22L30 22ZM10 24L24 24L24 10L10 10ZM46 24L48 24L48 20L46 20L46 14L44 14L44 10L40 10L40 12L42 12L42 14L40 14L40 12L36 12L36 14L38 14L38 18L36 18L36 14L32 14L32 12L36 12L36 10L30 10L30 12L28 12L28 14L30 14L30 16L28 16L28 18L32 18L32 16L34 16L34 18L32 18L32 20L40 20L40 22L42 22L42 18L40 18L40 16L44 16L44 22L46 22ZM54 24L68 24L68 10L54 10ZM12 22L12 12L22 12L22 22ZM56 22L56 12L66 12L66 22ZM14 20L20 20L20 14L14 14ZM48 20L50 20L50 18L48 18ZM58 20L64 20L64 14L58 14ZM26 16L28 16L28 14L26 14ZM48 16L50 16L50 14L48 14ZM46 14L48 14L48 12L50 12L50 10L46 10ZM50 14L52 14L52 12L50 12ZM26 12L28 12L28 10L26 10Z" fill="#000000" fill-rule="evenodd" />
</svg>
