<svg viewBox="0 0 131 43" xmlns="http://www.w3.org/2000/svg">
<rect width="100%" height="100%" fill="#FFFFFF" />
<path d="M0 0L0 43L131 43L131 0ZM2 2L129 2L129 41L2 41Z" fill="#ffffff" fill-rule="evenodd" />
<path d="M6 36L12 36L12 34L8 34L8 32L10 32L10 30L6 30ZM14 36L16 36L16 32L14 32ZM18 36L20 36L20 34L18 34ZM22 36L24 36L24 34L26 34L26 32L24 32L24 30L26 30L26 32L30 32L30 30L28 30L28 24L26 24L26 22L28 22L28 18L24 18L24 20L22 20L22 24L24 24L24 26L22 26L22 28L20 28L20 32L22 32ZM26 36L28 36L28 34L26 34ZM30 36L32 36L32 32L30 32ZM34 36L36 36L36 34L34 34ZM38 36L40 36L40 32L38 32L38 30L36 30L36 34L38 34ZM42 36L48 36L48 30L44 30L44 28L42 28L42 30L40 30L40 32L42 32ZM50 36L52 36L52 34L50 34ZM54 36L56 36L56 34L54 34ZM58 36L60 36L60 34L58 34ZM62 36L64 36L64 34L62 34ZM66 36L68 36L68 34L66 34ZM70 36L72 36L72 34L74 34L74 32L72 32L72 30L66 30L66 32L68 32L68 34L70 34ZM74 36L76 36L76 34L74 34ZM78 36L80 36L80 32L78 32L78 28L76 28L76 34L78 34ZM82 36L88 36L88 28L90 28L90 26L92 26L92 24L88 24L88 22L84 22L84 24L86 24L86 26L84 26L84 28L86 28L86 30L84 30L84 28L82 28ZM90 36L92 36L92 34L90 34ZM94 36L96 36L96 32L94 32ZM98 36L100 36L100 32L98 32ZM102 36L104 36L104 34L106 34L106 30L104 30L104 28L102 28L102 30L100 30L100 32L102 32ZM106 36L108 36L108 34L106 34ZM110 36L112 36L112 34L110 34ZM114 36L124 36L124 26L120 26L120 24L116 24L116 26L114 26L114 24L112 24L112 28L110 28L110 22L104 22L104 28L106 28L106 26L108 26L108 30L110 30L110 32L112 32L112 34L114 34ZM44 34L44 32L46 32L46 34ZM52 34L54 34L54 32L56 32L56 30L58 30L58 32L60 32L60 30L62 30L62 28L64 28L64 26L66 26L66 28L70 28L70 26L68 26L68 24L62 24L62 26L60 26L60 28L54 28L54 30L52 30L52 28L54 28L54 26L60 26L60 24L58 24L58 22L56 22L56 24L52 24L52 22L48 22L48 24L50 24L50 26L44 26L44 28L48 28L48 30L50 30L50 32L52 32ZM84 34L84 32L86 32L86 34ZM108 34L110 34L110 32L108 32ZM116 34L116 28L122 28L122 34ZM16 32L18 32L18 26L16 26L16 28L14 28L14 30L16 30ZM62 32L64 32L64 30L62 30ZM90 32L94 32L94 30L92 30L92 28L90 28ZM96 32L98 32L98 28L96 28ZM118 32L120 32L120 30L118 30ZM30 30L34 30L34 28L32 28L32 26L34 26L34 28L36 28L36 24L34 24L34 22L30 22ZM38 30L40 30L40 28L38 28ZM72 30L74 30L74 28L76 28L76 26L74 26L74 22L72 22L72 20L70 20L70 24L72 24ZM6 28L8 28L8 26L6 26ZM10 28L14 28L14 24L16 24L16 22L12 22L12 26L10 26ZM78 28L80 28L80 26L78 26ZM98 28L102 28L102 26L100 26L100 24L98 24ZM8 26L10 26L10 22L6 22L6 24L8 24ZM18 26L22 26L22 24L20 24L20 22L18 22ZM40 26L42 26L42 22L40 22ZM82 26L84 26L84 24L82 24ZM44 24L46 24L46 22L44 22ZM60 24L62 24L62 22L60 22ZM78 24L82 24L82 16L80 16L80 14L78 14L78 12L80 12L80 10L74 10L74 8L72 8L72 10L68 10L68 6L66 6L66 8L64 8L64 6L62 6L62 10L60 10L60 12L54 12L54 8L52 8L52 6L50 6L50 8L48 8L48 6L42 6L42 8L40 8L40 10L38 10L38 8L36 8L36 14L34 14L34 16L36 16L36 18L38 18L38 14L42 14L42 12L48 12L48 10L50 10L50 12L52 12L52 14L42 14L42 16L46 16L46 18L48 18L48 16L56 16L56 14L58 14L58 16L60 16L60 14L62 14L62 12L64 12L64 10L66 10L66 12L72 12L72 14L74 14L74 12L76 12L76 18L78 18L78 20L80 20L80 22L78 22ZM92 24L98 24L98 22L100 22L100 20L94 20L94 22L92 22ZM114 24L116 24L116 22L118 22L118 18L120 18L120 22L122 22L122 20L124 20L124 18L122 18L122 16L120 16L120 8L122 8L122 12L124 12L124 6L118 6L118 12L116 12L116 20L114 20ZM122 24L124 24L124 22L122 22ZM34 22L40 22L40 20L34 20ZM42 22L44 22L44 20L42 20ZM52 22L54 22L54 20L56 20L56 18L52 18ZM62 22L68 22L68 20L66 20L66 18L64 18L64 20L62 20ZM90 22L92 22L92 20L90 20ZM6 20L20 20L20 6L6 6ZM32 20L34 20L34 18L32 18ZM40 20L42 20L42 16L40 16ZM44 20L46 20L46 18L44 18ZM48 20L50 20L50 18L48 18ZM58 20L60 20L60 18L58 18ZM72 20L76 20L76 18L72 18ZM84 20L86 20L86 18L84 18ZM88 20L90 20L90 18L92 18L92 16L88 16ZM100 20L114 20L114 12L112 12L112 18L108 18L108 16L110 16L110 12L108 12L108 14L106 14L106 16L104 16L104 14L102 14L102 16L100 16ZM8 18L8 8L18 8L18 18ZM22 18L24 18L24 16L26 16L26 14L24 14L24 12L28 12L28 10L30 10L30 12L32 12L32 10L34 10L34 8L32 8L32 6L30 6L30 8L28 8L28 6L26 6L26 10L22 10ZM28 18L32 18L32 14L30 14L30 16L28 16ZM68 18L72 18L72 16L70 16L70 14L66 14L66 16L68 16ZM10 16L16 16L16 10L10 10ZM62 16L64 16L64 14L62 14ZM84 16L86 16L86 14L84 14ZM92 16L98 16L98 14L100 14L100 12L94 12L94 14L92 14ZM122 16L124 16L124 14L122 14ZM82 14L84 14L84 12L88 12L88 14L90 14L90 12L92 12L92 10L88 10L88 6L82 6ZM100 12L108 12L108 6L106 6L106 8L104 8L104 10L102 10L102 8L100 8ZM114 12L116 12L116 6L114 6ZM44 10L44 8L46 8L46 10ZM56 10L60 10L60 6L58 6L58 8L56 8ZM84 10L84 8L86 8L86 10ZM94 10L96 10L96 6L94 6ZM22 8L24 8L24 6L22 6ZM34 8L36 8L36 6L34 6ZM38 8L40 8L40 6L38 6ZM54 8L56 8L56 6L54 6ZM70 8L72 8L72 6L70 6ZM74 8L76 8L76 6L74 6ZM78 8L80 8L80 6L78 6ZM90 8L92 8L92 6L90 6ZM98 8L100 8L100 6L98 6ZM102 8L104 8L104 6L102 6ZM110 8L112 8L112 6L110 6Z" fill="#000000" fill-rule="evenodd" />
</svg>
