<svg viewBox="0 0 95 95" xmlns="http://www.w3.org/2000/svg">
<rect width="100%" height="100%" fill="#FFFFFF" />
<path d="M0 0L0 95L95 95L95 0ZM2 2L93 2L93 93L2 93Z" fill="#ffffff" fill-rule="evenodd" />
<path d="M10 84L24 84L24 70L10 70ZM26 84L28 84L28 82L26 82ZM30 84L32 84L32 82L30 82ZM34 84L36 84L36 80L32 80L32 82L34 82ZM40 84L42 84L42 82L40 82ZM48 84L50 84L50 82L48 82ZM54 84L60 84L60 78L62 78L62 82L66 82L66 84L76 84L76 82L74 82L74 80L72 80L72 76L76 76L76 66L80 66L80 60L82 60L82 56L84 56L84 48L80 48L80 52L82 52L82 54L80 54L80 56L74 56L74 58L72 58L72 60L78 60L78 64L74 64L74 62L72 62L72 60L66 60L66 62L64 62L64 64L68 64L68 66L64 66L64 68L62 68L62 70L66 70L66 72L62 72L62 74L60 74L60 72L58 72L58 80L56 80L56 82L54 82ZM80 84L84 84L84 82L82 82L82 78L84 78L84 76L80 76L80 74L82 74L82 72L80 72L80 68L78 68L78 76L76 76L76 82L78 82L78 80L80 80ZM12 82L12 72L22 72L22 82ZM38 82L40 82L40 80L38 80ZM14 80L20 80L20 74L14 74ZM28 80L30 80L30 76L28 76ZM36 80L38 80L38 78L36 78ZM42 80L48 80L48 78L46 78L46 76L42 76ZM50 80L54 80L54 76L48 76L48 78L50 78ZM34 78L36 78L36 74L34 74L34 72L32 72L32 74L30 74L30 76L34 76ZM38 78L40 78L40 76L38 76ZM66 78L66 76L68 76L68 78ZM26 76L28 76L28 74L26 74ZM40 76L42 76L42 72L40 72L40 70L38 70L38 74L40 74ZM46 76L48 76L48 72L46 72L46 70L44 70L44 66L50 66L50 68L46 68L46 70L48 70L48 72L50 72L50 70L56 70L56 72L58 72L58 70L60 70L60 68L52 68L52 66L58 66L58 62L56 62L56 60L54 60L54 62L52 62L52 64L50 64L50 60L44 60L44 64L42 64L42 62L40 62L40 64L38 64L38 66L42 66L42 72L44 72L44 74L46 74ZM54 76L56 76L56 72L54 72ZM64 76L64 74L66 74L66 76ZM28 74L30 74L30 72L32 72L32 70L30 70L30 66L32 66L32 64L30 64L30 62L32 62L32 60L30 60L30 58L28 58L28 60L26 60L26 58L28 58L28 56L24 56L24 58L22 58L22 60L24 60L24 62L22 62L22 60L20 60L20 66L22 66L22 64L26 64L26 72L28 72ZM50 74L52 74L52 72L50 72ZM68 74L68 68L74 68L74 74ZM34 72L36 72L36 70L34 70ZM70 72L72 72L72 70L70 70ZM32 70L34 70L34 66L32 66ZM36 70L38 70L38 66L36 66ZM82 70L84 70L84 68L82 68ZM10 68L14 68L14 66L10 66ZM22 68L24 68L24 66L22 66ZM14 66L18 66L18 62L16 62L16 64L14 64ZM34 66L36 66L36 64L34 64ZM70 66L70 64L72 64L72 66ZM82 66L84 66L84 64L82 64ZM10 62L12 62L12 60L10 60ZM58 62L60 62L60 60L62 60L62 58L68 58L68 56L66 56L66 52L68 52L68 50L66 50L66 48L64 48L64 50L62 50L62 52L64 52L64 54L62 54L62 56L60 56L60 58L58 58ZM14 60L18 60L18 58L16 58L16 54L14 54L14 52L10 52L10 54L12 54L12 56L10 56L10 58L14 58ZM34 60L44 60L44 56L42 56L42 54L40 54L40 58L36 58L36 56L38 56L38 54L40 54L40 52L36 52L36 54L32 54L32 56L34 56ZM50 60L52 60L52 58L54 58L54 56L58 56L58 54L60 54L60 52L58 52L58 50L56 50L56 52L54 52L54 54L52 54L52 56L48 56L48 58L50 58ZM20 58L22 58L22 56L20 56ZM30 58L32 58L32 56L30 56ZM18 56L20 56L20 52L26 52L26 54L28 54L28 56L30 56L30 54L32 54L32 52L36 52L36 50L34 50L34 48L38 48L38 46L36 46L36 44L34 44L34 46L32 46L32 44L28 44L28 46L30 46L30 48L32 48L32 50L30 50L30 52L28 52L28 48L26 48L26 50L20 50L20 48L18 48L18 42L14 42L14 44L16 44L16 48L14 48L14 44L12 44L12 50L14 50L14 52L18 52ZM22 56L24 56L24 54L22 54ZM46 56L48 56L48 54L52 54L52 52L50 52L50 50L48 50L48 52L44 52L44 54L46 54ZM68 56L72 56L72 54L70 54L70 52L68 52ZM74 54L76 54L76 52L74 52ZM40 52L42 52L42 50L40 50ZM70 52L74 52L74 50L76 50L76 48L74 48L74 44L76 44L76 42L72 42L72 44L68 44L68 46L72 46L72 48L68 48L68 50L70 50ZM76 52L78 52L78 50L76 50ZM44 50L46 50L46 44L42 44L42 48L44 48ZM52 50L54 50L54 48L52 48ZM58 50L60 50L60 48L58 48ZM22 48L26 48L26 46L22 46ZM50 48L52 48L52 44L50 44L50 42L48 42L48 40L46 40L46 38L42 38L42 40L44 40L44 42L46 42L46 44L48 44L48 46L50 46ZM54 48L56 48L56 46L54 46ZM76 48L80 48L80 44L82 44L82 42L80 42L80 40L78 40L78 46L76 46ZM38 46L40 46L40 44L42 44L42 40L40 40L40 42L38 42L38 40L40 40L40 38L36 38L36 44L38 44ZM60 46L64 46L64 42L58 42L58 38L60 38L60 36L56 36L56 40L54 40L54 44L60 44ZM10 44L12 44L12 38L14 38L14 36L12 36L12 34L10 34ZM20 44L24 44L24 42L22 42L22 40L20 40L20 38L18 38L18 36L16 36L16 40L18 40L18 42L20 42ZM26 44L28 44L28 42L26 42ZM32 44L34 44L34 42L32 42ZM66 44L68 44L68 42L66 42ZM24 42L26 42L26 40L28 40L28 36L30 36L30 34L26 34L26 32L28 32L28 28L30 28L30 24L28 24L28 16L26 16L26 26L22 26L22 28L24 28L24 30L18 30L18 28L14 28L14 30L16 30L16 32L14 32L14 34L20 34L20 36L26 36L26 38L22 38L22 40L24 40ZM30 42L32 42L32 36L30 36ZM50 42L52 42L52 38L54 38L54 36L56 36L56 34L58 34L58 32L60 32L60 28L58 28L58 30L56 30L56 32L54 32L54 30L52 30L52 32L50 32L50 28L52 28L52 26L54 26L54 24L52 24L52 22L50 22L50 24L48 24L48 28L44 28L44 32L46 32L46 36L48 36L48 34L50 34L50 36L48 36L48 38L50 38ZM64 42L66 42L66 38L70 38L70 36L66 36L66 34L70 34L70 36L72 36L72 34L76 34L76 36L78 36L78 34L82 34L82 40L84 40L84 32L82 32L82 28L78 28L78 26L68 26L68 28L70 28L70 30L72 30L72 32L68 32L68 30L66 30L66 32L64 32L64 34L62 34L62 36L64 36L64 38L62 38L62 40L64 40ZM70 40L72 40L72 38L70 38ZM74 40L78 40L78 38L76 38L76 36L72 36L72 38L74 38ZM34 38L36 38L36 34L34 34L34 32L36 32L36 34L38 34L38 32L40 32L40 34L42 34L42 36L44 36L44 32L42 32L42 30L40 30L40 28L38 28L38 30L36 30L36 28L34 28L34 30L30 30L30 34L32 34L32 36L34 36ZM38 36L40 36L40 34L38 34ZM22 34L22 32L24 32L24 34ZM10 32L12 32L12 30L10 30ZM74 32L74 28L76 28L76 30L78 30L78 32ZM54 30L56 30L56 28L54 28ZM62 30L64 30L64 26L68 26L68 20L66 20L66 24L64 24L64 22L62 22L62 26L60 26L60 28L62 28ZM10 28L12 28L12 26L10 26ZM18 28L20 28L20 26L18 26ZM42 28L44 28L44 26L42 26ZM82 28L84 28L84 26L82 26ZM32 26L34 26L34 24L32 24ZM38 26L42 26L42 24L40 24L40 22L38 22ZM58 26L60 26L60 22L62 22L62 20L58 20ZM10 24L24 24L24 10L10 10ZM30 24L32 24L32 22L34 22L34 20L36 20L36 16L34 16L34 18L32 18L32 20L30 20ZM34 24L36 24L36 22L34 22ZM42 24L44 24L44 22L46 22L46 20L52 20L52 16L50 16L50 18L46 18L46 16L44 16L44 18L42 18L42 16L40 16L40 20L42 20ZM46 24L48 24L48 22L46 22ZM54 24L56 24L56 22L54 22ZM70 24L84 24L84 10L70 10ZM12 22L12 12L22 12L22 22ZM72 22L72 12L82 12L82 22ZM14 20L20 20L20 14L14 14ZM54 20L58 20L58 18L56 18L56 14L58 14L58 16L60 16L60 12L54 12L54 14L52 14L52 16L54 16ZM64 20L66 20L66 18L64 18ZM74 20L80 20L80 14L74 14ZM60 18L62 18L62 16L60 16ZM28 16L30 16L30 14L32 14L32 16L34 16L34 12L32 12L32 10L26 10L26 12L28 12ZM38 16L40 16L40 14L38 14ZM64 16L66 16L66 14L68 14L68 10L66 10L66 12L64 12L64 10L60 10L60 12L62 12L62 14L64 14ZM40 14L44 14L44 12L46 12L46 10L42 10L42 12L40 12ZM46 14L50 14L50 12L52 12L52 10L48 10L48 12L46 12ZM34 12L36 12L36 10L34 10ZM38 12L40 12L40 10L38 10Z" fill="#000000" fill-rule="evenodd" />
</svg>
