<svg viewBox="0 0 95 95" xmlns="http://www.w3.org/2000/svg">
<rect width="100%" height="100%" fill="#FFFFFF" />
<path d="M0 0L0 95L95 95L95 0ZM2 2L93 2L93 93L2 93Z" fill="#ffffff" fill-rule="evenodd" />
<path d="M10 84L24 84L24 70L10 70ZM26 84L30 84L30 76L28 76L28 74L30 74L30 72L34 72L34 74L36 74L36 68L32 68L32 70L28 70L28 68L26 68L26 78L28 78L28 82L26 82ZM32 84L34 84L34 78L32 78ZM36 84L44 84L44 82L46 82L46 80L44 80L44 78L50 78L50 74L52 74L52 72L54 72L54 70L52 70L52 64L50 64L50 66L48 66L48 68L46 68L46 70L48 70L48 72L42 72L42 68L38 68L38 70L40 70L40 74L48 74L48 76L42 76L42 78L38 78L38 82L36 82ZM50 84L52 84L52 80L54 80L54 84L58 84L58 82L56 82L56 80L58 80L58 76L52 76L52 78L50 78L50 80L48 80L48 82L50 82ZM64 84L76 84L76 82L82 82L82 84L84 84L84 74L80 74L80 76L82 76L82 80L80 80L80 76L78 76L78 78L72 78L72 80L70 80L70 82L64 82ZM12 82L12 72L22 72L22 82ZM40 82L40 80L42 80L42 82ZM14 80L20 80L20 74L14 74ZM60 80L64 80L64 76L68 76L68 78L66 78L66 80L70 80L70 78L72 78L72 76L78 76L78 72L76 72L76 66L70 66L70 62L68 62L68 60L66 60L66 58L62 58L62 60L60 60L60 64L62 64L62 62L64 62L64 64L66 64L66 66L64 66L64 68L66 68L66 74L64 74L64 70L56 70L56 72L54 72L54 74L58 74L58 76L60 76L60 74L62 74L62 78L60 78ZM36 78L38 78L38 76L36 76ZM32 76L34 76L34 74L32 74ZM68 74L68 68L74 68L74 74ZM70 72L72 72L72 70L70 70ZM78 72L80 72L80 70L82 70L82 68L80 68L80 66L84 66L84 62L78 62L78 64L76 64L76 66L78 66ZM82 72L84 72L84 70L82 70ZM54 70L56 70L56 68L62 68L62 66L56 66L56 64L54 64ZM10 68L12 68L12 64L16 64L16 66L20 66L20 68L26 68L26 66L30 66L30 64L28 64L28 62L26 62L26 64L24 64L24 66L22 66L22 64L20 64L20 60L28 60L28 56L26 56L26 58L22 58L22 56L18 56L18 60L16 60L16 62L12 62L12 60L10 60ZM30 68L32 68L32 66L30 66ZM34 66L42 66L42 64L34 64ZM62 66L64 66L64 64L62 64ZM22 64L24 64L24 62L22 62ZM32 64L34 64L34 60L32 60ZM42 64L46 64L46 62L44 62L44 60L52 60L52 56L50 56L50 58L46 58L46 56L48 56L48 54L44 54L44 58L38 58L38 56L42 56L42 54L44 54L44 52L46 52L46 50L40 50L40 48L42 48L42 46L38 46L38 54L34 54L34 56L32 56L32 58L36 58L36 60L38 60L38 62L40 62L40 60L42 60ZM48 64L50 64L50 62L48 62ZM52 64L54 64L54 60L52 60ZM56 62L58 62L58 60L56 60ZM72 62L76 62L76 60L74 60L74 56L76 56L76 60L78 60L78 58L80 58L80 52L78 52L78 54L76 54L76 52L78 52L78 48L76 48L76 46L74 46L74 44L72 44L72 50L70 50L70 48L68 48L68 50L66 50L66 48L68 48L68 46L66 46L66 42L70 42L70 44L72 44L72 40L66 40L66 38L68 38L68 36L66 36L66 34L64 34L64 36L60 36L60 38L64 38L64 44L62 44L62 42L60 42L60 48L58 48L58 46L56 46L56 44L52 44L52 42L50 42L50 38L48 38L48 40L46 40L46 38L48 38L48 34L50 34L50 36L52 36L52 32L54 32L54 30L56 30L56 32L54 32L54 34L56 34L56 38L58 38L58 36L60 36L60 34L58 34L58 32L62 32L62 34L64 34L64 32L74 32L74 30L76 30L76 26L74 26L74 28L72 28L72 30L66 30L66 28L70 28L70 26L66 26L66 24L64 24L64 26L62 26L62 30L58 30L58 26L62 26L62 24L60 24L60 22L58 22L58 24L56 24L56 28L52 28L52 30L50 30L50 32L46 32L46 30L44 30L44 34L46 34L46 36L44 36L44 34L42 34L42 36L40 36L40 38L38 38L38 40L42 40L42 42L34 42L34 44L36 44L36 46L38 46L38 44L42 44L42 46L44 46L44 48L46 48L46 50L48 50L48 54L50 54L50 50L52 50L52 48L50 48L50 46L52 46L52 48L54 48L54 50L64 50L64 52L62 52L62 54L64 54L64 56L66 56L66 52L74 52L74 54L72 54L72 58L70 58L70 60L72 60ZM14 60L16 60L16 58L14 58ZM30 60L32 60L32 58L30 58ZM82 60L84 60L84 54L82 54ZM12 58L14 58L14 56L12 56ZM54 58L60 58L60 56L58 56L58 52L54 52L54 54L56 54L56 56L54 56ZM66 58L70 58L70 56L66 56ZM10 56L12 56L12 54L14 54L14 56L16 56L16 52L18 52L18 50L16 50L16 48L18 48L18 46L16 46L16 44L14 44L14 42L12 42L12 46L10 46L10 48L14 48L14 52L10 52ZM22 56L26 56L26 54L22 54ZM28 56L32 56L32 54L30 54L30 52L26 52L26 54L28 54ZM52 56L54 56L54 54L52 54ZM18 54L20 54L20 52L18 52ZM20 52L24 52L24 50L22 50L22 48L18 48L18 50L20 50ZM30 52L34 52L34 44L32 44L32 48L30 48ZM80 52L84 52L84 46L82 46L82 48L80 48ZM26 50L28 50L28 48L26 48ZM22 48L24 48L24 46L22 46ZM78 48L80 48L80 46L82 46L82 44L84 44L84 42L80 42L80 40L78 40L78 38L76 38L76 40L74 40L74 42L78 42L78 44L76 44L76 46L78 46ZM18 46L22 46L22 44L18 44ZM26 46L30 46L30 40L28 40L28 38L26 38L26 36L28 36L28 34L26 34L26 30L22 30L22 32L24 32L24 34L18 34L18 36L16 36L16 38L20 38L20 36L24 36L24 38L20 38L20 42L22 42L22 40L26 40L26 42L28 42L28 44L26 44ZM68 46L70 46L70 44L68 44ZM16 44L18 44L18 40L14 40L14 42L16 42ZM22 44L26 44L26 42L22 42ZM46 44L46 42L48 42L48 44ZM56 44L58 44L58 42L60 42L60 40L56 40ZM10 40L14 40L14 34L18 34L18 28L28 28L28 26L16 26L16 32L14 32L14 28L12 28L12 32L10 32L10 34L12 34L12 36L10 36ZM32 40L34 40L34 38L32 38ZM52 40L54 40L54 38L52 38ZM72 40L74 40L74 38L72 38ZM80 40L84 40L84 38L82 38L82 36L80 36ZM28 38L32 38L32 34L30 34L30 36L28 36ZM34 38L38 38L38 36L40 36L40 34L38 34L38 30L36 30L36 32L34 32ZM74 38L76 38L76 36L74 36ZM70 36L72 36L72 34L70 34ZM40 34L42 34L42 32L40 32ZM74 34L80 34L80 28L84 28L84 26L78 26L78 30L76 30L76 32L74 32ZM82 34L84 34L84 30L82 30ZM28 32L32 32L32 30L34 30L34 28L36 28L36 26L34 26L34 24L32 24L32 22L30 22L30 24L28 24L28 26L30 26L30 28L28 28ZM46 30L50 30L50 26L52 26L52 22L54 22L54 24L56 24L56 22L58 22L58 20L54 20L54 16L56 16L56 14L52 14L52 16L50 16L50 18L52 18L52 20L50 20L50 24L48 24L48 26L46 26ZM10 28L12 28L12 26L10 26ZM38 28L40 28L40 26L38 26ZM42 28L44 28L44 26L42 26ZM36 26L38 26L38 24L36 24ZM10 24L24 24L24 10L10 10ZM26 24L28 24L28 22L26 22ZM34 24L36 24L36 22L38 22L38 24L40 24L40 14L50 14L50 12L48 12L48 10L42 10L42 12L38 12L38 20L34 20L34 18L36 18L36 14L32 14L32 16L30 16L30 14L28 14L28 10L26 10L26 16L28 16L28 18L26 18L26 20L30 20L30 18L32 18L32 22L34 22ZM42 24L44 24L44 22L42 22ZM46 24L48 24L48 22L46 22ZM62 24L64 24L64 20L62 20ZM66 24L68 24L68 18L66 18ZM70 24L84 24L84 10L70 10ZM12 22L12 12L22 12L22 22ZM44 22L46 22L46 16L44 16ZM72 22L72 12L82 12L82 22ZM14 20L20 20L20 14L14 14ZM48 20L50 20L50 18L48 18ZM58 20L60 20L60 18L62 18L62 16L64 16L64 14L62 14L62 12L64 12L64 10L60 10L60 16L58 16ZM74 20L80 20L80 14L74 14ZM64 18L66 18L66 16L64 16ZM66 16L68 16L68 14L66 14ZM30 14L32 14L32 12L30 12ZM32 12L34 12L34 10L32 10ZM52 12L54 12L54 10L52 10Z" fill="#000000" fill-rule="evenodd" />
</svg>
