<svg viewBox="0 0 87 87" xmlns="http://www.w3.org/2000/svg">
<rect width="100%" height="100%" fill="#FFFFFF" />
<path d="M0 0L0 87L87 87L87 0ZM2 2L85 2L85 85L2 85Z" fill="#ffffff" fill-rule="evenodd" />
<path d="M10 76L24 76L24 62L10 62ZM26 76L32 76L32 74L34 74L34 76L38 76L38 72L34 72L34 70L36 70L36 68L34 68L34 64L36 64L36 62L30 62L30 64L28 64L28 68L30 68L30 66L32 66L32 70L30 70L30 72L28 72L28 74L26 74ZM42 76L48 76L48 74L50 74L50 76L66 76L66 72L68 72L68 74L70 74L70 76L74 76L74 74L72 74L72 72L70 72L70 70L72 70L72 72L76 72L76 64L70 64L70 62L68 62L68 60L70 60L70 58L72 58L72 56L70 56L70 54L68 54L68 58L66 58L66 54L68 54L68 52L66 52L66 48L62 48L62 50L64 50L64 58L62 58L62 56L60 56L60 52L56 52L56 50L50 50L50 52L46 52L46 54L50 54L50 56L54 56L54 54L58 54L58 62L56 62L56 60L54 60L54 62L52 62L52 64L56 64L56 66L58 66L58 68L60 68L60 70L58 70L58 72L62 72L62 68L64 68L64 72L62 72L62 74L52 74L52 72L50 72L50 70L52 70L52 64L50 64L50 66L46 66L46 68L48 68L48 72L46 72L46 74L44 74L44 68L42 68L42 72L40 72L40 74L42 74ZM12 74L12 64L22 64L22 74ZM14 72L20 72L20 66L14 66ZM54 72L56 72L56 68L54 68ZM38 70L40 70L40 68L42 68L42 66L38 66L38 64L36 64L36 68L38 68ZM70 68L70 66L74 66L74 68ZM42 66L44 66L44 58L38 58L38 54L36 54L36 62L38 62L38 60L40 60L40 62L38 62L38 64L42 64ZM60 66L60 60L66 60L66 66ZM46 64L48 64L48 62L46 62ZM62 64L64 64L64 62L62 62ZM26 62L30 62L30 60L34 60L34 56L30 56L30 54L36 54L36 50L34 50L34 52L32 52L32 50L34 50L34 48L28 48L28 50L30 50L30 52L26 52L26 54L28 54L28 58L26 58ZM50 62L52 62L52 58L50 58L50 56L48 56L48 60L50 60ZM70 62L76 62L76 58L74 58L74 60L70 60ZM10 60L14 60L14 58L12 58L12 54L14 54L14 52L12 52L12 50L14 50L14 52L18 52L18 46L16 46L16 48L10 48ZM18 60L20 60L20 56L18 56L18 54L16 54L16 56L14 56L14 58L18 58ZM22 60L24 60L24 58L22 58ZM22 56L24 56L24 54L22 54ZM40 56L46 56L46 54L44 54L44 50L40 50L40 52L42 52L42 54L40 54ZM72 56L74 56L74 54L76 54L76 52L74 52L74 50L76 50L76 44L74 44L74 48L70 48L70 46L68 46L68 52L70 52L70 50L72 50L72 52L70 52L70 54L72 54ZM20 54L22 54L22 52L20 52ZM38 54L40 54L40 52L38 52ZM22 52L24 52L24 50L22 50ZM60 52L62 52L62 50L60 50ZM24 50L26 50L26 48L24 48ZM44 50L50 50L50 48L56 48L56 50L58 50L58 48L62 48L62 46L56 46L56 44L58 44L58 42L54 42L54 44L52 44L52 46L50 46L50 44L48 44L48 48L44 48ZM20 48L24 48L24 46L22 46L22 44L20 44ZM26 48L28 48L28 46L26 46ZM34 48L42 48L42 46L38 46L38 42L34 42L34 44L36 44L36 46L34 46ZM10 46L14 46L14 44L12 44L12 40L10 40ZM28 46L34 46L34 44L32 44L32 42L30 42L30 44L28 44ZM42 46L46 46L46 44L42 44ZM64 46L66 46L66 44L64 44ZM70 46L72 46L72 44L70 44ZM16 44L20 44L20 42L16 42ZM22 44L28 44L28 42L22 42ZM50 44L52 44L52 40L48 40L48 42L50 42ZM60 44L62 44L62 42L60 42ZM66 44L70 44L70 42L76 42L76 40L74 40L74 36L76 36L76 32L74 32L74 34L72 34L72 40L68 40L68 42L66 42ZM14 42L16 42L16 40L14 40ZM20 42L22 42L22 40L28 40L28 34L30 34L30 32L28 32L28 28L30 28L30 24L28 24L28 22L26 22L26 30L22 30L22 32L26 32L26 38L20 38L20 36L16 36L16 34L20 34L20 30L18 30L18 32L14 32L14 30L12 30L12 32L10 32L10 34L12 34L12 38L16 38L16 40L20 40ZM32 42L34 42L34 40L36 40L36 38L40 38L40 36L42 36L42 38L44 38L44 40L46 40L46 36L48 36L48 38L52 38L52 40L54 40L54 38L56 38L56 36L54 36L54 34L52 34L52 36L50 36L50 34L44 34L44 30L42 30L42 28L46 28L46 26L40 26L40 20L36 20L36 22L38 22L38 26L36 26L36 28L40 28L40 32L42 32L42 34L40 34L40 32L38 32L38 34L36 34L36 32L34 32L34 38L32 38L32 36L30 36L30 40L32 40ZM38 42L42 42L42 40L38 40ZM58 42L60 42L60 40L62 40L62 38L58 38ZM62 42L64 42L64 40L62 40ZM66 40L68 40L68 38L66 38ZM64 38L66 38L66 36L68 36L68 34L66 34L66 32L64 32L64 34L62 34L62 36L64 36ZM22 36L24 36L24 34L22 34ZM58 36L60 36L60 32L62 32L62 30L60 30L60 28L58 28L58 24L56 24L56 26L52 26L52 28L56 28L56 30L58 30L58 32L54 32L54 34L58 34ZM70 34L72 34L72 32L74 32L74 30L76 30L76 28L74 28L74 26L68 26L68 28L72 28L72 30L70 30ZM32 32L34 32L34 30L32 30ZM46 32L48 32L48 28L46 28ZM50 32L54 32L54 30L50 30ZM66 32L68 32L68 28L64 28L64 26L60 26L60 28L62 28L62 30L66 30ZM10 30L12 30L12 26L10 26ZM30 30L32 30L32 28L30 28ZM34 30L36 30L36 28L34 28ZM22 28L24 28L24 26L22 26ZM32 26L36 26L36 22L34 22L34 24L32 24ZM46 26L48 26L48 18L46 18L46 20L42 20L42 24L44 24L44 22L46 22ZM50 26L52 26L52 22L54 22L54 20L50 20ZM10 24L24 24L24 10L10 10ZM30 24L32 24L32 22L30 22ZM54 24L56 24L56 22L54 22ZM58 24L60 24L60 20L58 20ZM62 24L76 24L76 10L62 10ZM12 22L12 12L22 12L22 22ZM28 22L30 22L30 18L28 18ZM32 22L34 22L34 20L36 20L36 16L38 16L38 14L40 14L40 12L42 12L42 10L38 10L38 12L36 12L36 14L34 14L34 16L32 16L32 14L30 14L30 18L32 18ZM64 22L64 12L74 12L74 22ZM14 20L20 20L20 14L14 14ZM40 20L42 20L42 18L40 18ZM66 20L72 20L72 14L66 14ZM26 18L28 18L28 12L26 12ZM48 18L54 18L54 12L58 12L58 10L52 10L52 12L50 12L50 14L52 14L52 16L50 16L50 14L46 14L46 12L42 12L42 16L48 16ZM56 16L58 16L58 14L56 14ZM32 14L34 14L34 10L28 10L28 12L32 12ZM58 14L60 14L60 12L58 12ZM48 12L50 12L50 10L48 10Z" fill="#000000" fill-rule="evenodd" />
</svg>
