<svg viewBox="0 0 79 79" xmlns="http://www.w3.org/2000/svg">
<rect width="100%" height="100%" fill="#FFFFFF" />
<path d="M0 0L0 79L79 79L79 0ZM2 2L77 2L77 77L2 77Z" fill="#ffffff" fill-rule="evenodd" />
<path d="M10 68L24 68L24 54L10 54ZM26 68L38 68L38 66L36 66L36 64L34 64L34 62L38 62L38 64L42 64L42 62L40 62L40 60L36 60L36 50L38 50L38 48L40 48L40 50L44 50L44 48L46 48L46 46L52 46L52 44L50 44L50 42L48 42L48 44L46 44L46 42L44 42L44 44L42 44L42 46L40 46L40 44L36 44L36 48L34 48L34 44L30 44L30 46L32 46L32 48L26 48L26 50L28 50L28 52L30 52L30 50L34 50L34 52L30 52L30 54L28 54L28 56L30 56L30 58L28 58L28 56L26 56L26 64L32 64L32 66L26 66ZM40 68L48 68L48 66L52 66L52 68L54 68L54 66L56 66L56 68L60 68L60 66L62 66L62 64L60 64L60 62L62 62L62 64L64 64L64 66L66 66L66 62L68 62L68 60L66 60L66 58L68 58L68 56L64 56L64 58L62 58L62 60L60 60L60 58L62 58L62 56L64 56L64 54L66 54L66 52L64 52L64 50L62 50L62 54L60 54L60 50L56 50L56 48L54 48L54 50L48 50L48 52L46 52L46 54L50 54L50 56L48 56L48 58L50 58L50 60L56 60L56 62L54 62L54 64L46 64L46 66L44 66L44 64L42 64L42 66L40 66ZM62 68L64 68L64 66L62 66ZM12 66L12 56L22 56L22 66ZM14 64L20 64L20 58L14 58ZM28 62L28 60L32 60L32 62ZM42 62L44 62L44 60L46 60L46 58L42 58L42 56L46 56L46 54L44 54L44 52L42 52L42 54L40 54L40 56L38 56L38 58L40 58L40 60L42 60ZM46 62L50 62L50 60L46 60ZM32 60L32 56L34 56L34 60ZM52 58L52 52L58 52L58 58ZM54 56L56 56L56 54L54 54ZM26 54L28 54L28 52L26 52ZM10 52L12 52L12 46L14 46L14 48L16 48L16 44L14 44L14 42L10 42ZM22 52L26 52L26 50L22 50ZM38 52L40 52L40 50L38 50ZM44 52L46 52L46 50L44 50ZM20 50L22 50L22 48L20 48ZM46 50L48 50L48 48L46 48ZM60 50L62 50L62 48L60 48ZM64 50L66 50L66 48L64 48ZM18 48L20 48L20 44L18 44ZM22 48L26 48L26 46L28 46L28 44L30 44L30 40L26 40L26 44L24 44L24 46L22 46ZM56 48L60 48L60 46L62 46L62 48L64 48L64 46L66 46L66 44L64 44L64 42L62 42L62 44L60 44L60 42L62 42L62 40L52 40L52 38L50 38L50 42L56 42L56 44L54 44L54 46L56 46ZM20 44L24 44L24 42L22 42L22 40L20 40ZM40 44L42 44L42 40L44 40L44 36L46 36L46 34L38 34L38 36L42 36L42 38L40 38L40 40L38 40L38 42L40 42ZM14 42L18 42L18 40L20 40L20 38L16 38L16 40L14 40ZM34 42L36 42L36 40L34 40ZM10 40L12 40L12 38L10 38ZM22 40L26 40L26 38L28 38L28 36L26 36L26 34L22 34L22 36L24 36L24 38L22 38ZM30 40L32 40L32 38L30 38ZM46 40L48 40L48 38L46 38ZM14 38L16 38L16 36L14 36ZM20 38L22 38L22 36L20 36ZM32 38L36 38L36 36L34 36L34 34L32 34ZM48 38L50 38L50 36L48 36ZM54 38L64 38L64 36L60 36L60 34L62 34L62 32L60 32L60 28L64 28L64 26L54 26L54 28L52 28L52 30L54 30L54 32L48 32L48 34L50 34L50 36L54 36L54 34L58 34L58 36L54 36ZM66 38L68 38L68 36L66 36ZM16 36L18 36L18 34L16 34ZM28 36L30 36L30 34L28 34ZM64 36L66 36L66 34L64 34ZM10 34L12 34L12 30L16 30L16 28L20 28L20 30L22 30L22 28L24 28L24 26L14 26L14 28L12 28L12 26L10 26ZM14 34L16 34L16 32L14 32ZM18 34L20 34L20 30L16 30L16 32L18 32ZM26 34L28 34L28 30L32 30L32 32L34 32L34 26L32 26L32 28L24 28L24 30L22 30L22 32L26 32ZM36 34L38 34L38 32L44 32L44 30L42 30L42 28L36 28ZM62 32L66 32L66 30L62 30ZM44 30L50 30L50 28L44 28ZM66 30L68 30L68 28L66 28ZM50 28L52 28L52 22L50 22ZM26 26L32 26L32 22L34 22L34 24L36 24L36 20L34 20L34 16L38 16L38 14L40 14L40 16L38 16L38 18L40 18L40 20L44 20L44 18L42 18L42 14L46 14L46 12L42 12L42 10L36 10L36 14L34 14L34 10L32 10L32 12L30 12L30 10L28 10L28 14L32 14L32 16L30 16L30 18L32 18L32 20L30 20L30 24L28 24L28 20L30 20L30 18L28 18L28 14L26 14ZM38 26L40 26L40 22L38 22ZM42 26L44 26L44 22L42 22ZM10 24L24 24L24 10L10 10ZM46 24L48 24L48 20L52 20L52 18L50 18L50 16L48 16L48 18L46 18L46 20L44 20L44 22L46 22ZM54 24L68 24L68 10L54 10ZM12 22L12 12L22 12L22 22ZM56 22L56 12L66 12L66 22ZM14 20L20 20L20 14L14 14ZM58 20L64 20L64 14L58 14ZM44 18L46 18L46 16L44 16ZM46 16L48 16L48 14L46 14ZM50 16L52 16L52 12L50 12ZM48 12L50 12L50 10L48 10Z" fill="#000000" fill-rule="evenodd" />
</svg>
