<svg viewBox="0 0 131 43" xmlns="http://www.w3.org/2000/svg">
<rect width="100%" height="100%" fill="#FFFFFF" />
<path d="M0 0L0 43L131 43L131 0ZM2 2L129 2L129 41L2 41Z" fill="#ffffff" fill-rule="evenodd" />
<path d="M6 36L12 36L12 34L8 34L8 32L10 32L10 30L6 30ZM14 36L16 36L16 32L14 32ZM18 36L20 36L20 34L22 34L22 32L18 32ZM22 36L24 36L24 34L22 34ZM26 36L28 36L28 34L30 34L30 32L28 32L28 30L26 30L26 28L28 28L28 30L30 30L30 22L12 22L12 24L10 24L10 22L6 22L6 24L8 24L8 26L14 26L14 24L16 24L16 28L20 28L20 26L18 26L18 24L20 24L20 26L24 26L24 28L20 28L20 30L24 30L24 32L26 32ZM30 36L32 36L32 34L30 34ZM34 36L36 36L36 34L34 34ZM38 36L40 36L40 34L38 34ZM42 36L48 36L48 34L50 34L50 32L56 32L56 30L58 30L58 32L60 32L60 30L62 30L62 28L64 28L64 26L66 26L66 28L70 28L70 26L68 26L68 24L62 24L62 26L60 26L60 28L54 28L54 30L44 30L44 28L46 28L46 26L40 26L40 24L42 24L42 22L44 22L44 20L46 20L46 18L44 18L44 16L46 16L46 18L48 18L48 16L50 16L50 14L42 14L42 16L40 16L40 18L42 18L42 20L40 20L40 22L38 22L38 28L40 28L40 30L42 30ZM50 36L52 36L52 34L50 34ZM54 36L56 36L56 34L54 34ZM58 36L60 36L60 34L58 34ZM62 36L64 36L64 34L62 34ZM66 36L68 36L68 34L66 34ZM70 36L72 36L72 34L74 34L74 36L76 36L76 32L74 32L74 30L76 30L76 24L74 24L74 22L72 22L72 20L70 20L70 24L72 24L72 32L70 32L70 30L66 30L66 32L68 32L68 34L70 34ZM78 36L80 36L80 32L78 32ZM82 36L88 36L88 32L94 32L94 30L96 30L96 32L100 32L100 30L98 30L98 28L92 28L92 30L88 30L88 28L92 28L92 24L100 24L100 20L102 20L102 22L104 22L104 20L108 20L108 16L100 16L100 18L98 18L98 20L96 20L96 22L94 22L94 20L92 20L92 22L90 22L90 24L88 24L88 26L84 26L84 28L86 28L86 30L84 30L84 28L80 28L80 32L82 32ZM90 36L92 36L92 34L90 34ZM94 36L96 36L96 32L94 32ZM98 36L100 36L100 34L98 34ZM102 36L104 36L104 34L106 34L106 32L100 32L100 34L102 34ZM106 36L108 36L108 34L106 34ZM110 36L112 36L112 34L110 34ZM114 36L124 36L124 26L120 26L120 24L116 24L116 26L114 26L114 24L112 24L112 28L110 28L110 24L108 24L108 30L110 30L110 32L112 32L112 34L114 34ZM36 34L38 34L38 32L36 32ZM44 34L44 32L46 32L46 34ZM84 34L84 32L86 32L86 34ZM108 34L110 34L110 32L108 32ZM116 34L116 28L122 28L122 34ZM16 32L18 32L18 30L16 30ZM32 32L34 32L34 30L32 30ZM38 32L40 32L40 30L38 30ZM62 32L64 32L64 30L62 30ZM118 32L120 32L120 30L118 30ZM10 30L16 30L16 28L10 28ZM36 30L38 30L38 28L36 28ZM100 30L104 30L104 28L102 28L102 26L104 26L104 28L106 28L106 24L100 24L100 26L98 26L98 28L100 28ZM6 28L8 28L8 26L6 26ZM50 28L52 28L52 26L50 26ZM26 26L26 24L28 24L28 26ZM34 26L36 26L36 20L34 20L34 18L36 18L36 20L40 20L40 18L38 18L38 16L34 16L34 14L32 14L32 16L30 16L30 14L28 14L28 18L26 18L26 20L30 20L30 22L34 22ZM46 26L48 26L48 22L44 22L44 24L46 24ZM54 26L60 26L60 24L58 24L58 22L56 22L56 24L54 24ZM78 26L84 26L84 24L86 24L86 22L84 22L84 20L92 20L92 18L90 18L90 16L88 16L88 12L90 12L90 8L88 8L88 6L82 6L82 10L80 10L80 6L78 6L78 8L76 8L76 6L74 6L74 8L72 8L72 10L68 10L68 6L66 6L66 8L64 8L64 6L62 6L62 10L60 10L60 12L54 12L54 14L52 14L52 16L50 16L50 18L48 18L48 20L50 20L50 22L52 22L52 24L54 24L54 20L52 20L52 18L54 18L54 16L56 16L56 14L58 14L58 16L60 16L60 14L62 14L62 12L64 12L64 10L66 10L66 12L72 12L72 14L76 14L76 12L80 12L80 16L78 16L78 14L76 14L76 16L74 16L74 18L72 18L72 20L74 20L74 22L76 22L76 20L78 20L78 18L80 18L80 20L82 20L82 24L78 24ZM60 24L62 24L62 22L60 22ZM76 24L78 24L78 22L76 22ZM122 24L124 24L124 22L122 22ZM62 22L68 22L68 20L66 20L66 18L64 18L64 20L62 20ZM108 22L110 22L110 20L108 20ZM116 22L118 22L118 18L116 18ZM120 22L122 22L122 20L124 20L124 18L120 18ZM6 20L20 20L20 6L6 6ZM22 20L24 20L24 16L26 16L26 14L24 14L24 12L28 12L28 10L32 10L32 6L30 6L30 8L28 8L28 6L26 6L26 10L22 10ZM54 20L56 20L56 18L54 18ZM58 20L60 20L60 18L58 18ZM94 20L96 20L96 16L100 16L100 12L90 12L90 14L92 14L92 18L94 18ZM110 20L114 20L114 18L112 18L112 16L110 16ZM8 18L8 8L18 8L18 18ZM68 18L72 18L72 16L70 16L70 14L66 14L66 16L68 16ZM84 18L84 16L86 16L86 18ZM10 16L16 16L16 10L10 10ZM62 16L64 16L64 14L62 14ZM82 16L82 12L86 12L86 14L84 14L84 16ZM108 16L110 16L110 14L108 14ZM112 16L116 16L116 12L120 12L120 8L122 8L122 12L124 12L124 6L118 6L118 8L116 8L116 6L114 6L114 10L112 10L112 6L110 6L110 8L108 8L108 6L106 6L106 8L104 8L104 10L102 10L102 8L100 8L100 12L108 12L108 10L110 10L110 14L112 14ZM120 16L124 16L124 14L120 14ZM30 14L32 14L32 12L30 12ZM38 14L42 14L42 12L48 12L48 10L52 10L52 6L50 6L50 8L48 8L48 6L42 6L42 10L40 10L40 12L38 12ZM50 14L52 14L52 12L50 12ZM32 12L34 12L34 10L32 10ZM36 12L38 12L38 10L36 10ZM34 10L36 10L36 6L34 6ZM44 10L44 8L46 8L46 10ZM54 10L60 10L60 6L58 6L58 8L56 8L56 6L54 6ZM84 10L84 8L86 8L86 10ZM92 10L94 10L94 8L92 8ZM22 8L24 8L24 6L22 6ZM38 8L40 8L40 6L38 6ZM70 8L72 8L72 6L70 6ZM90 8L92 8L92 6L90 6ZM94 8L96 8L96 6L94 6ZM98 8L100 8L100 6L98 6ZM102 8L104 8L104 6L102 6Z" fill="#000000" fill-rule="evenodd" />
</svg>
