<svg viewBox="0 0 95 95" xmlns="http://www.w3.org/2000/svg">
<rect width="100%" height="100%" fill="#FFFFFF" />
<path d="M0 0L0 95L95 95L95 0ZM2 2L93 2L93 93L2 93Z" fill="#ffffff" fill-rule="evenodd" />
<path d="M10 84L24 84L24 70L10 70ZM26 84L32 84L32 82L30 82L30 80L32 80L32 82L34 82L34 76L36 76L36 80L38 80L38 70L40 70L40 68L38 68L38 64L36 64L36 66L34 66L34 64L32 64L32 62L34 62L34 58L36 58L36 56L32 56L32 60L30 60L30 62L28 62L28 64L24 64L24 66L22 66L22 64L18 64L18 66L16 66L16 68L26 68L26 72L30 72L30 70L28 70L28 66L32 66L32 74L26 74L26 76L28 76L28 82L26 82ZM34 84L44 84L44 82L40 82L40 80L38 80L38 82L34 82ZM48 84L50 84L50 82L48 82ZM52 84L54 84L54 82L60 82L60 78L62 78L62 80L64 80L64 82L62 82L62 84L68 84L68 82L66 82L66 76L60 76L60 74L62 74L62 72L60 72L60 70L58 70L58 68L54 68L54 66L58 66L58 68L60 68L60 64L58 64L58 62L56 62L56 60L54 60L54 62L52 62L52 64L50 64L50 60L52 60L52 58L54 58L54 56L56 56L56 58L58 58L58 56L60 56L60 54L58 54L58 52L60 52L60 48L58 48L58 50L56 50L56 52L54 52L54 54L52 54L52 56L48 56L48 60L44 60L44 62L48 62L48 66L50 66L50 68L52 68L52 70L56 70L56 72L58 72L58 80L56 80L56 78L54 78L54 76L50 76L50 74L48 74L48 72L46 72L46 70L44 70L44 72L42 72L42 74L46 74L46 76L48 76L48 78L50 78L50 80L52 80ZM70 84L76 84L76 82L74 82L74 80L72 80L72 76L76 76L76 64L74 64L74 66L66 66L66 68L60 68L60 70L66 70L66 72L64 72L64 74L66 74L66 76L70 76L70 80L68 80L68 82L70 82ZM80 84L84 84L84 82L82 82L82 78L80 78L80 76L84 76L84 74L82 74L82 72L80 72L80 70L78 70L78 80L80 80ZM12 82L12 72L22 72L22 82ZM76 82L78 82L78 80L76 80ZM14 80L20 80L20 74L14 74ZM42 80L46 80L46 78L44 78L44 76L42 76ZM30 78L30 76L32 76L32 78ZM40 76L42 76L42 74L40 74ZM54 76L56 76L56 72L54 72ZM34 74L34 72L36 72L36 74ZM68 74L68 68L74 68L74 74ZM40 72L42 72L42 70L40 70ZM50 72L52 72L52 70L50 70ZM70 72L72 72L72 70L70 70ZM82 72L84 72L84 64L82 64ZM46 70L48 70L48 66L46 66ZM10 68L14 68L14 66L10 66ZM42 68L44 68L44 66L46 66L46 64L42 64L42 62L40 62L40 66L42 66ZM62 66L66 66L66 64L62 64ZM16 64L18 64L18 62L16 62ZM22 64L24 64L24 62L22 62ZM60 64L62 64L62 56L60 56L60 58L58 58L58 62L60 62ZM66 64L70 64L70 62L68 62L68 60L70 60L70 56L68 56L68 58L66 58ZM76 64L82 64L82 56L80 56L80 54L78 54L78 56L76 56L76 58L74 58L74 60L76 60ZM10 62L16 62L16 60L10 60ZM20 62L22 62L22 60L20 60ZM26 62L28 62L28 60L26 60ZM38 62L40 62L40 58L36 58L36 60L38 60ZM70 62L72 62L72 60L70 60ZM78 62L78 60L80 60L80 62ZM22 60L24 60L24 58L22 58ZM28 60L30 60L30 56L28 56ZM42 60L44 60L44 54L46 54L46 52L44 52L44 50L34 50L34 48L32 48L32 46L30 46L30 48L28 48L28 46L26 46L26 48L24 48L24 50L26 50L26 54L30 54L30 56L32 56L32 52L36 52L36 54L40 54L40 52L42 52L42 54L40 54L40 58L42 58ZM10 58L12 58L12 54L10 54ZM14 58L20 58L20 54L22 54L22 52L20 52L20 48L16 48L16 42L14 42L14 48L12 48L12 50L10 50L10 52L12 52L12 54L14 54L14 50L16 50L16 54L18 54L18 56L14 56ZM24 58L26 58L26 56L24 56ZM22 56L24 56L24 54L22 54ZM46 56L48 56L48 54L46 54ZM62 56L68 56L68 52L66 52L66 48L64 48L64 52L60 52L60 54L62 54ZM72 56L76 56L76 54L78 54L78 50L76 50L76 52L74 52L74 54L72 54ZM82 56L84 56L84 50L82 50ZM50 54L52 54L52 52L50 52ZM22 52L24 52L24 50L22 50ZM46 52L50 52L50 50L46 50ZM52 52L54 52L54 50L56 50L56 48L52 48ZM68 52L74 52L74 44L68 44L68 40L66 40L66 36L62 36L62 38L64 38L64 42L66 42L66 48L68 48ZM44 50L46 50L46 46L44 46L44 44L42 44L42 48L44 48ZM10 48L12 48L12 46L10 46ZM22 48L24 48L24 46L22 46ZM34 48L36 48L36 46L34 46ZM50 48L52 48L52 44L50 44L50 42L52 42L52 38L54 38L54 36L56 36L56 34L54 34L54 32L50 32L50 28L46 28L46 30L48 30L48 32L46 32L46 30L44 30L44 32L42 32L42 30L40 30L40 32L38 32L38 34L46 34L46 36L48 36L48 34L52 34L52 36L50 36L50 40L46 40L46 38L44 38L44 42L46 42L46 44L48 44L48 46L50 46ZM60 48L64 48L64 44L60 44ZM70 48L70 46L72 46L72 48ZM76 48L82 48L82 44L84 44L84 42L80 42L80 40L76 40L76 42L74 42L74 44L78 44L78 46L76 46ZM20 46L22 46L22 44L20 44ZM24 46L26 46L26 42L28 42L28 34L26 34L26 36L24 36L24 38L22 38L22 36L20 36L20 38L18 38L18 40L16 40L16 42L18 42L18 44L20 44L20 40L24 40L24 42L22 42L22 44L24 44ZM36 46L38 46L38 42L36 42ZM10 44L12 44L12 42L10 42ZM28 44L30 44L30 42L28 42ZM32 44L34 44L34 36L30 36L30 42L32 42ZM40 44L42 44L42 40L40 40L40 36L36 36L36 40L38 40L38 42L40 42ZM54 44L56 44L56 42L58 42L58 44L60 44L60 42L62 42L62 40L60 40L60 36L56 36L56 40L54 40ZM72 42L74 42L74 38L76 38L76 36L72 36L72 38L70 38L70 40L72 40ZM10 40L16 40L16 38L18 38L18 36L16 36L16 28L14 28L14 34L12 34L12 32L10 32L10 36L14 36L14 38L10 38ZM80 40L84 40L84 34L82 34L82 36L80 36ZM68 38L70 38L70 36L68 36ZM18 36L20 36L20 34L18 34ZM22 36L24 36L24 34L22 34ZM34 36L36 36L36 32L38 32L38 30L30 30L30 28L32 28L32 26L28 26L28 18L30 18L30 16L26 16L26 26L22 26L22 28L24 28L24 30L26 30L26 28L28 28L28 34L30 34L30 32L32 32L32 34L34 34ZM66 36L68 36L68 34L70 34L70 32L72 32L72 34L74 34L74 28L78 28L78 26L68 26L68 28L70 28L70 30L68 30L68 28L66 28L66 32L64 32L64 34L66 34ZM70 36L72 36L72 34L70 34ZM24 34L26 34L26 32L24 32ZM56 34L58 34L58 32L60 32L60 30L62 30L62 24L60 24L60 28L58 28L58 30L56 30L56 28L54 28L54 32L56 32ZM76 34L78 34L78 32L76 32ZM20 32L24 32L24 30L22 30L22 28L20 28ZM78 32L80 32L80 28L78 28ZM10 28L12 28L12 26L10 26ZM18 28L20 28L20 26L18 26ZM36 28L44 28L44 22L46 22L46 20L48 20L48 14L46 14L46 12L44 12L44 10L36 10L36 12L42 12L42 14L44 14L44 16L46 16L46 18L44 18L44 20L42 20L42 26L36 26ZM50 28L52 28L52 26L50 26ZM64 28L66 28L66 26L68 26L68 16L66 16L66 18L64 18L64 20L66 20L66 24L64 24ZM82 28L84 28L84 26L82 26ZM34 26L36 26L36 20L34 20ZM52 26L54 26L54 24L52 24ZM56 26L58 26L58 24L56 24ZM10 24L24 24L24 10L10 10ZM30 24L32 24L32 22L30 22ZM38 24L40 24L40 20L42 20L42 18L38 18ZM46 24L48 24L48 22L46 22ZM50 24L52 24L52 22L50 22ZM54 24L56 24L56 22L54 22ZM58 24L60 24L60 22L58 22ZM62 24L64 24L64 22L62 22ZM70 24L84 24L84 10L70 10ZM12 22L12 12L22 12L22 22ZM48 22L50 22L50 20L48 20ZM60 22L62 22L62 16L60 16ZM72 22L72 12L82 12L82 22ZM14 20L20 20L20 14L14 14ZM50 20L52 20L52 16L50 16ZM54 20L58 20L58 18L56 18L56 16L54 16ZM74 20L80 20L80 14L74 14ZM32 18L34 18L34 16L32 16ZM36 18L38 18L38 14L36 14L36 12L34 12L34 10L30 10L30 12L28 12L28 14L34 14L34 16L36 16ZM42 18L44 18L44 16L42 16ZM52 16L54 16L54 14L52 14ZM58 16L60 16L60 12L56 12L56 14L58 14ZM64 16L66 16L66 14L68 14L68 12L64 12L64 10L60 10L60 12L62 12L62 14L64 14ZM48 14L50 14L50 12L52 12L52 10L48 10ZM26 12L28 12L28 10L26 10Z" fill="#000000" fill-rule="evenodd" />
</svg>
