<svg viewBox="0 0 95 95" xmlns="http://www.w3.org/2000/svg">
<rect width="100%" height="100%" fill="#FFFFFF" />
<path d="M0 0L0 95L95 95L95 0ZM2 2L93 2L93 93L2 93Z" fill="#ffffff" fill-rule="evenodd" />
<path d="M10 84L24 84L24 70L10 70ZM26 84L28 84L28 82L26 82ZM30 84L34 84L34 82L30 82ZM36 84L38 84L38 80L40 80L40 78L44 78L44 76L42 76L42 74L44 74L44 70L38 70L38 68L36 68L36 66L38 66L38 62L40 62L40 66L38 66L38 68L42 68L42 64L44 64L44 62L42 62L42 60L44 60L44 58L42 58L42 54L38 54L38 56L36 56L36 58L40 58L40 60L34 60L34 58L28 58L28 60L32 60L32 62L36 62L36 64L34 64L34 68L32 68L32 70L36 70L36 76L38 76L38 78L36 78ZM44 84L46 84L46 82L44 82ZM54 84L64 84L64 82L68 82L68 78L66 78L66 76L68 76L68 78L72 78L72 80L74 80L74 78L78 78L78 76L82 76L82 78L78 78L78 80L82 80L82 82L76 82L76 84L84 84L84 70L82 70L82 68L80 68L80 70L78 70L78 68L76 68L76 66L72 66L72 64L74 64L74 60L72 60L72 62L68 62L68 60L66 60L66 62L64 62L64 64L62 64L62 66L58 66L58 68L60 68L60 70L62 70L62 68L64 68L64 70L66 70L66 72L62 72L62 74L54 74L54 76L56 76L56 78L58 78L58 76L60 76L60 78L58 78L58 80L62 80L62 82L58 82L58 80L56 80L56 82L54 82ZM70 84L72 84L72 80L70 80ZM12 82L12 72L22 72L22 82ZM42 82L44 82L44 80L42 80ZM46 82L48 82L48 80L46 80ZM50 82L54 82L54 76L52 76L52 78L50 78ZM14 80L20 80L20 74L14 74ZM26 80L28 80L28 78L30 78L30 74L28 74L28 72L26 72ZM62 78L62 76L64 76L64 78ZM32 76L34 76L34 74L32 74ZM46 76L48 76L48 74L46 74ZM30 74L32 74L32 70L30 70ZM38 74L38 72L40 72L40 74ZM48 74L54 74L54 72L56 72L56 70L52 70L52 66L56 66L56 62L54 62L54 64L50 64L50 62L48 62L48 60L44 60L44 62L46 62L46 64L48 64L48 68L46 68L46 72L48 72L48 70L50 70L50 72L48 72ZM68 74L68 68L74 68L74 74ZM78 74L78 72L80 72L80 74ZM58 72L60 72L60 70L58 70ZM70 72L72 72L72 70L70 70ZM26 70L30 70L30 66L32 66L32 62L28 62L28 68L26 68ZM56 70L58 70L58 68L56 68ZM10 68L12 68L12 62L14 62L14 60L10 60ZM14 68L20 68L20 66L22 66L22 64L16 64L16 66L14 66ZM22 68L24 68L24 66L22 66ZM44 68L46 68L46 66L44 66ZM78 68L80 68L80 66L78 66ZM24 66L26 66L26 64L24 64ZM66 66L66 64L70 64L70 66ZM82 66L84 66L84 62L80 62L80 64L82 64ZM22 64L24 64L24 62L22 62ZM60 64L62 64L62 62L60 62ZM18 62L20 62L20 60L18 60ZM24 62L28 62L28 60L26 60L26 58L22 58L22 56L16 56L16 58L20 58L20 60L24 60ZM50 62L54 62L54 60L50 60ZM56 62L60 62L60 60L66 60L66 54L64 54L64 50L60 50L60 52L62 52L62 54L60 54L60 56L62 56L62 58L60 58L60 56L58 56L58 60L56 60ZM76 62L80 62L80 58L78 58L78 60L76 60ZM54 60L56 60L56 56L52 56L52 54L54 54L54 52L46 52L46 50L44 50L44 52L42 52L42 54L44 54L44 58L48 58L48 56L46 56L46 54L50 54L50 58L54 58ZM70 60L72 60L72 58L74 58L74 56L76 56L76 54L74 54L74 52L72 52L72 54L70 54L70 52L72 52L72 50L74 50L74 48L78 48L78 46L74 46L74 44L84 44L84 38L82 38L82 42L74 42L74 36L72 36L72 38L68 38L68 36L66 36L66 38L64 38L64 40L66 40L66 42L68 42L68 44L72 44L72 48L70 48L70 50L68 50L68 48L66 48L66 46L64 46L64 50L66 50L66 54L68 54L68 58L70 58ZM74 60L76 60L76 58L74 58ZM82 60L84 60L84 58L82 58ZM10 58L14 58L14 56L10 56ZM26 58L28 58L28 56L26 56ZM80 58L82 58L82 56L84 56L84 54L82 54L82 50L84 50L84 46L80 46L80 50L74 50L74 52L78 52L78 56L80 56ZM22 56L24 56L24 54L22 54ZM28 56L34 56L34 54L36 54L36 50L38 50L38 52L40 52L40 48L38 48L38 42L40 42L40 40L42 40L42 38L40 38L40 36L34 36L34 38L38 38L38 40L34 40L34 38L32 38L32 40L30 40L30 38L28 38L28 40L26 40L26 42L22 42L22 40L24 40L24 38L22 38L22 36L24 36L24 38L26 38L26 36L28 36L28 34L22 34L22 32L20 32L20 38L16 38L16 40L20 40L20 52L18 52L18 54L22 54L22 52L24 52L24 54L28 54L28 52L26 52L26 50L28 50L28 46L26 46L26 48L24 48L24 50L22 50L22 48L24 48L24 46L22 46L22 44L24 44L24 46L26 46L26 44L28 44L28 42L30 42L30 44L32 44L32 42L34 42L34 44L36 44L36 46L34 46L34 44L32 44L32 46L30 46L30 50L28 50L28 52L30 52L30 54L28 54ZM12 54L16 54L16 52L18 52L18 48L16 48L16 50L14 50L14 48L10 48L10 52L12 52ZM56 54L58 54L58 52L56 52ZM54 52L56 52L56 50L54 50ZM42 50L44 50L44 48L42 48ZM46 50L48 50L48 46L44 46L44 48L46 48ZM52 50L54 50L54 48L52 48ZM58 50L60 50L60 46L58 46ZM14 48L16 48L16 40L14 40L14 38L10 38L10 40L12 40L12 42L14 42L14 44L12 44L12 42L10 42L10 46L14 46ZM50 48L52 48L52 46L50 46ZM54 48L56 48L56 46L54 46ZM68 48L70 48L70 46L68 46ZM40 46L44 46L44 44L40 44ZM56 46L58 46L58 44L56 44ZM62 46L64 46L64 44L66 44L66 42L60 42L60 36L62 36L62 34L56 34L56 32L54 32L54 30L52 30L52 32L50 32L50 30L48 30L48 28L46 28L46 34L48 34L48 38L50 38L50 40L52 40L52 42L54 42L54 44L56 44L56 42L58 42L58 44L62 44ZM66 46L68 46L68 44L66 44ZM46 44L52 44L52 42L46 42ZM46 40L48 40L48 38L46 38ZM54 40L54 36L56 36L56 38L58 38L58 40ZM76 40L80 40L80 34L74 34L74 36L76 36ZM14 38L16 38L16 36L18 36L18 34L16 34L16 32L14 32L14 28L12 28L12 30L10 30L10 36L14 36ZM42 38L44 38L44 36L46 36L46 34L42 34L42 32L44 32L44 30L42 30L42 28L40 28L40 36L42 36ZM30 36L32 36L32 32L34 32L34 28L32 28L32 26L30 26L30 28L24 28L24 30L26 30L26 32L28 32L28 30L30 30ZM50 36L50 34L54 34L54 36ZM68 36L72 36L72 30L70 30L70 32L66 32L66 30L60 30L60 32L64 32L64 34L68 34ZM82 36L84 36L84 30L80 30L80 34L82 34ZM34 34L36 34L36 32L34 32ZM18 32L20 32L20 30L18 30ZM22 32L24 32L24 30L22 30ZM74 32L78 32L78 28L80 28L80 26L70 26L70 28L72 28L72 30L74 30L74 28L76 28L76 30L74 30ZM16 30L18 30L18 28L24 28L24 26L14 26L14 28L16 28ZM36 30L38 30L38 28L36 28ZM50 30L52 30L52 28L50 28ZM56 30L58 30L58 28L56 28ZM66 30L68 30L68 28L66 28ZM10 28L12 28L12 26L10 26ZM34 28L36 28L36 26L38 26L38 28L40 28L40 26L42 26L42 28L44 28L44 26L48 26L48 22L46 22L46 24L44 24L44 22L42 22L42 24L40 24L40 22L38 22L38 24L36 24L36 22L34 22L34 24L32 24L32 26L34 26ZM54 28L56 28L56 26L54 26ZM58 28L62 28L62 26L60 26L60 22L62 22L62 26L64 26L64 22L66 22L66 26L68 26L68 18L66 18L66 20L58 20ZM26 26L28 26L28 22L30 22L30 24L32 24L32 20L28 20L28 14L26 14ZM50 26L54 26L54 24L52 24L52 22L50 22ZM10 24L24 24L24 10L10 10ZM54 24L56 24L56 22L54 22ZM70 24L84 24L84 10L70 10ZM12 22L12 12L22 12L22 22ZM40 22L42 22L42 20L44 20L44 22L46 22L46 20L54 20L54 18L48 18L48 16L44 16L44 18L40 18ZM72 22L72 12L82 12L82 22ZM14 20L20 20L20 14L14 14ZM32 20L34 20L34 18L32 18ZM36 20L38 20L38 18L36 18ZM56 20L58 20L58 16L56 16L56 12L58 12L58 10L52 10L52 12L54 12L54 14L52 14L52 16L54 16L54 18L56 18ZM74 20L80 20L80 14L74 14ZM30 18L32 18L32 16L30 16ZM34 18L36 18L36 16L34 16ZM38 18L40 18L40 16L38 16ZM60 18L64 18L64 16L60 16ZM40 16L42 16L42 14L44 14L44 10L40 10L40 12L38 12L38 14L40 14ZM58 16L60 16L60 14L58 14ZM66 16L68 16L68 10L66 10L66 12L64 12L64 10L60 10L60 12L62 12L62 14L66 14ZM30 14L32 14L32 10L28 10L28 12L30 12ZM50 14L52 14L52 12L50 12Z" fill="#000000" fill-rule="evenodd" />
</svg>
