<svg viewBox="0 0 87 87" xmlns="http://www.w3.org/2000/svg">
<rect width="100%" height="100%" fill="#FFFFFF" />
<path d="M0 0L0 87L87 87L87 0ZM2 2L85 2L85 85L2 85Z" fill="#ffffff" fill-rule="evenodd" />
<path d="M10 76L24 76L24 62L10 62ZM26 76L32 76L32 74L36 74L36 72L30 72L30 70L32 70L32 68L28 68L28 74L26 74ZM36 76L42 76L42 74L40 74L40 68L36 68L36 64L34 64L34 66L32 66L32 68L34 68L34 70L38 70L38 74L36 74ZM48 76L50 76L50 74L52 74L52 76L60 76L60 74L58 74L58 72L60 72L60 68L62 68L62 70L64 70L64 68L68 68L68 60L70 60L70 62L72 62L72 66L74 66L74 62L76 62L76 58L74 58L74 60L72 60L72 58L68 58L68 56L66 56L66 52L68 52L68 48L70 48L70 46L72 46L72 50L70 50L70 52L74 52L74 54L76 54L76 48L74 48L74 44L76 44L76 42L74 42L74 38L72 38L72 42L70 42L70 44L68 44L68 46L66 46L66 44L64 44L64 46L62 46L62 48L60 48L60 50L62 50L62 52L64 52L64 56L62 56L62 58L60 58L60 56L58 56L58 58L56 58L56 56L54 56L54 54L50 54L50 56L52 56L52 58L48 58L48 52L46 52L46 56L42 56L42 54L40 54L40 58L44 58L44 60L48 60L48 62L50 62L50 60L52 60L52 62L50 62L50 64L52 64L52 66L54 66L54 64L58 64L58 70L54 70L54 68L52 68L52 72L48 72L48 70L44 70L44 68L42 68L42 72L44 72L44 74L48 74ZM64 76L68 76L68 74L64 74ZM74 76L76 76L76 74L74 74ZM12 74L12 64L22 64L22 74ZM54 74L54 72L56 72L56 74ZM62 74L64 74L64 72L62 72ZM14 72L20 72L20 66L14 66ZM66 72L70 72L70 70L72 70L72 68L68 68L68 70L66 70ZM26 68L28 68L28 66L26 66ZM46 68L48 68L48 64L46 64L46 62L44 62L44 64L42 64L42 62L44 62L44 60L40 60L40 62L36 62L36 64L38 64L38 66L46 66ZM54 68L56 68L56 66L54 66ZM60 66L60 60L66 60L66 66ZM26 64L28 64L28 60L26 60ZM32 64L34 64L34 58L32 58ZM62 64L64 64L64 62L62 62ZM54 62L54 60L56 60L56 62ZM10 60L18 60L18 58L10 58ZM22 60L26 60L26 58L28 58L28 56L26 56L26 54L28 54L28 52L24 52L24 54L22 54L22 52L18 52L18 54L16 54L16 52L14 52L14 50L16 50L16 52L18 52L18 50L22 50L22 48L20 48L20 46L22 46L22 44L26 44L26 46L22 46L22 48L24 48L24 50L28 50L28 48L30 48L30 46L28 46L28 44L30 44L30 46L32 46L32 44L34 44L34 40L32 40L32 42L30 42L30 40L28 40L28 42L26 42L26 40L28 40L28 36L30 36L30 34L34 34L34 32L30 32L30 30L28 30L28 32L24 32L24 34L26 34L26 36L24 36L24 38L22 38L22 36L20 36L20 40L24 40L24 42L20 42L20 40L18 40L18 48L14 48L14 46L10 46L10 48L12 48L12 50L10 50L10 54L14 54L14 56L18 56L18 58L20 58L20 56L24 56L24 58L22 58ZM38 60L40 60L40 58L38 58ZM28 56L32 56L32 54L34 54L34 52L30 52L30 54L28 54ZM36 56L38 56L38 54L40 54L40 52L38 52L38 50L36 50L36 48L32 48L32 50L34 50L34 52L36 52ZM56 56L58 56L58 54L62 54L62 52L54 52L54 54L56 54ZM68 56L70 56L70 54L68 54ZM72 56L74 56L74 54L72 54ZM22 52L24 52L24 50L22 50ZM28 52L30 52L30 50L28 50ZM42 52L44 52L44 46L46 46L46 36L42 36L42 40L44 40L44 44L42 44L42 42L38 42L38 40L36 40L36 44L40 44L40 48L42 48ZM52 52L54 52L54 48L56 48L56 50L58 50L58 44L56 44L56 42L54 42L54 44L50 44L50 46L52 46ZM64 50L64 48L66 48L66 50ZM36 48L38 48L38 46L36 46ZM46 48L48 48L48 46L46 46ZM34 46L36 46L36 44L34 44ZM60 46L62 46L62 44L60 44ZM10 44L12 44L12 38L10 38ZM14 44L16 44L16 42L14 42ZM48 44L50 44L50 42L48 42ZM58 44L60 44L60 38L58 38L58 34L56 34L56 36L54 36L54 40L58 40ZM62 44L64 44L64 42L62 42ZM66 44L68 44L68 40L70 40L70 38L72 38L72 36L74 36L74 32L72 32L72 34L70 34L70 36L68 36L68 38L66 38L66 40L64 40L64 42L66 42ZM50 42L54 42L54 40L52 40L52 38L50 38ZM16 40L18 40L18 36L14 36L14 38L16 38ZM38 40L40 40L40 38L38 38ZM62 40L64 40L64 38L66 38L66 36L64 36L64 34L62 34L62 36L60 36L60 38L62 38ZM32 38L38 38L38 36L40 36L40 32L38 32L38 34L36 34L36 36L32 36ZM74 38L76 38L76 36L74 36ZM10 36L14 36L14 34L12 34L12 32L10 32ZM22 36L24 36L24 34L22 34ZM46 36L54 36L54 34L56 34L56 32L54 32L54 30L52 30L52 28L50 28L50 32L46 32L46 30L44 30L44 28L38 28L38 26L36 26L36 30L40 30L40 32L44 32L44 34L46 34ZM66 36L68 36L68 32L66 32L66 28L70 28L70 26L60 26L60 30L64 30L64 34L66 34ZM14 34L20 34L20 32L16 32L16 30L14 30L14 28L12 28L12 32L14 32ZM60 34L62 34L62 32L60 32ZM22 32L24 32L24 30L22 30ZM56 32L58 32L58 30L56 30ZM68 32L70 32L70 30L68 30ZM16 30L18 30L18 28L16 28ZM20 30L22 30L22 28L20 28ZM24 30L26 30L26 28L28 28L28 26L32 26L32 20L30 20L30 18L28 18L28 16L26 16L26 26L22 26L22 28L24 28ZM30 30L32 30L32 28L30 28ZM46 30L48 30L48 28L46 28ZM54 30L56 30L56 26L54 26L54 24L52 24L52 28L54 28ZM70 30L72 30L72 28L70 28ZM10 28L12 28L12 26L10 26ZM18 28L20 28L20 26L18 26ZM32 28L34 28L34 26L32 26ZM44 28L46 28L46 26L48 26L48 22L50 22L50 20L52 20L52 18L48 18L48 16L44 16L44 18L46 18L46 24L44 24L44 20L42 20L42 24L40 24L40 26L44 26ZM48 28L50 28L50 26L48 26ZM74 28L76 28L76 26L74 26ZM10 24L24 24L24 10L10 10ZM28 24L28 22L30 22L30 24ZM34 24L36 24L36 20L34 20ZM38 24L40 24L40 18L42 18L42 16L38 16L38 18L36 18L36 20L38 20ZM50 24L52 24L52 22L50 22ZM54 24L56 24L56 22L54 22ZM58 24L60 24L60 20L58 20ZM62 24L76 24L76 10L62 10ZM12 22L12 12L22 12L22 22ZM64 22L64 12L74 12L74 22ZM14 20L20 20L20 14L14 14ZM54 20L56 20L56 18L54 18ZM66 20L72 20L72 14L66 14ZM32 18L36 18L36 16L32 16ZM28 16L30 16L30 12L32 12L32 10L26 10L26 12L28 12ZM36 16L38 16L38 14L36 14ZM42 16L44 16L44 14L46 14L46 10L44 10L44 12L42 12ZM50 16L54 16L54 14L56 14L56 12L50 12L50 10L48 10L48 14L50 14ZM56 16L58 16L58 14L56 14ZM32 14L36 14L36 12L32 12ZM40 12L42 12L42 10L40 10ZM56 12L58 12L58 10L56 10Z" fill="#000000" fill-rule="evenodd" />
</svg>
