<svg viewBox="0 0 79 79" xmlns="http://www.w3.org/2000/svg">
<rect width="100%" height="100%" fill="#FFFFFF" />
<path d="M0 0L0 79L79 79L79 0ZM2 2L77 2L77 77L2 77Z" fill="#ffffff" fill-rule="evenodd" />
<path d="M10 68L24 68L24 54L10 54ZM26 68L28 68L28 66L26 66ZM32 68L34 68L34 66L32 66ZM36 68L42 68L42 66L44 66L44 68L46 68L46 66L50 66L50 62L46 62L46 64L44 64L44 60L42 60L42 62L38 62L38 64L36 64ZM50 68L52 68L52 66L50 66ZM58 68L60 68L60 66L58 66ZM64 68L66 68L66 66L68 66L68 60L66 60L66 62L60 62L60 66L62 66L62 64L64 64ZM12 66L12 56L22 56L22 66ZM30 66L32 66L32 62L36 62L36 60L42 60L42 58L46 58L46 56L44 56L44 54L42 54L42 52L38 52L38 48L42 48L42 52L44 52L44 54L46 54L46 50L48 50L48 52L50 52L50 54L48 54L48 60L50 60L50 62L54 62L54 60L62 60L62 54L64 54L64 52L66 52L66 50L68 50L68 46L66 46L66 48L64 48L64 50L62 50L62 52L60 52L60 50L58 50L58 48L56 48L56 46L54 46L54 50L52 50L52 48L44 48L44 46L48 46L48 44L44 44L44 42L42 42L42 46L36 46L36 52L34 52L34 54L32 54L32 56L28 56L28 58L26 58L26 60L30 60L30 58L34 58L34 60L30 60ZM52 66L56 66L56 64L52 64ZM14 64L20 64L20 58L14 58ZM36 58L36 54L40 54L40 56L38 56L38 58ZM52 58L52 52L58 52L58 58ZM64 58L66 58L66 56L64 56ZM26 56L28 56L28 52L26 52ZM54 56L56 56L56 54L54 54ZM66 56L68 56L68 54L66 54ZM10 52L18 52L18 50L16 50L16 48L14 48L14 50L10 50ZM22 52L26 52L26 50L28 50L28 48L24 48L24 50L22 50ZM18 50L22 50L22 48L24 48L24 46L20 46L20 44L10 44L10 46L16 46L16 48L18 48ZM32 50L34 50L34 46L36 46L36 44L40 44L40 42L42 42L42 38L44 38L44 34L48 34L48 32L46 32L46 30L32 30L32 32L30 32L30 30L22 30L22 32L28 32L28 36L32 36L32 40L34 40L34 42L32 42L32 46L28 46L28 48L32 48ZM60 50L62 50L62 48L60 48ZM50 46L52 46L52 44L50 44ZM56 46L60 46L60 44L62 44L62 46L66 46L66 44L64 44L64 42L62 42L62 40L60 40L60 42L58 42L58 44L56 44ZM22 44L30 44L30 42L32 42L32 40L30 40L30 38L22 38L22 40L24 40L24 42L22 42ZM48 44L50 44L50 42L48 42ZM52 44L54 44L54 42L52 42ZM10 42L22 42L22 40L20 40L20 38L18 38L18 40L16 40L16 36L14 36L14 40L12 40L12 38L10 38ZM26 42L26 40L28 40L28 42ZM36 42L36 38L40 38L40 40L38 40L38 42ZM44 42L48 42L48 38L46 38L46 40L44 40ZM50 42L52 42L52 40L50 40ZM66 42L68 42L68 36L66 36ZM54 40L56 40L56 38L54 38ZM20 38L22 38L22 36L20 36ZM34 38L34 36L36 36L36 38ZM50 38L52 38L52 36L50 36ZM56 38L64 38L64 36L58 36L58 34L56 34ZM12 36L14 36L14 34L12 34ZM18 36L20 36L20 32L16 32L16 30L14 30L14 34L18 34ZM22 36L24 36L24 34L22 34ZM38 36L38 32L42 32L42 36ZM48 36L50 36L50 34L48 34ZM52 36L54 36L54 34L52 34ZM64 36L66 36L66 32L68 32L68 26L66 26L66 28L62 28L62 30L64 30ZM10 34L12 34L12 30L14 30L14 28L12 28L12 26L10 26ZM34 34L34 32L36 32L36 34ZM54 34L56 34L56 30L54 30L54 28L56 28L56 30L60 30L60 28L62 28L62 26L52 26L52 30L50 30L50 32L54 32ZM60 34L62 34L62 32L60 32ZM16 30L22 30L22 28L20 28L20 26L18 26L18 28L16 28ZM48 30L50 30L50 26L52 26L52 20L48 20L48 22L50 22L50 24L48 24ZM22 28L30 28L30 26L28 26L28 22L30 22L30 20L32 20L32 18L30 18L30 16L26 16L26 26L22 26ZM36 28L42 28L42 26L40 26L40 22L42 22L42 20L40 20L40 18L42 18L42 20L44 20L44 18L52 18L52 16L48 16L48 14L46 14L46 12L42 12L42 14L40 14L40 16L38 16L38 18L34 18L34 20L36 20L36 22L38 22L38 26L36 26ZM30 26L32 26L32 22L30 22ZM34 26L36 26L36 22L34 22ZM44 26L46 26L46 24L44 24ZM10 24L24 24L24 10L10 10ZM42 24L44 24L44 22L42 22ZM46 24L48 24L48 22L46 22ZM54 24L68 24L68 10L54 10ZM12 22L12 12L22 12L22 22ZM32 22L34 22L34 20L32 20ZM56 22L56 12L66 12L66 22ZM14 20L20 20L20 14L14 14ZM58 20L64 20L64 14L58 14ZM32 16L34 16L34 12L32 12ZM36 16L38 16L38 14L36 14ZM28 14L30 14L30 12L28 12ZM48 14L52 14L52 10L50 10L50 12L48 12ZM26 12L28 12L28 10L26 10Z" fill="#000000" fill-rule="evenodd" />
</svg>
