<svg viewBox="0 0 95 95" xmlns="http://www.w3.org/2000/svg">
<rect width="100%" height="100%" fill="#FFFFFF" />
<path d="M0 0L0 95L95 95L95 0ZM2 2L93 2L93 93L2 93Z" fill="#ffffff" fill-rule="evenodd" />
<path d="M10 84L24 84L24 70L10 70ZM26 84L28 84L28 82L26 82ZM30 84L34 84L34 78L36 78L36 80L38 80L38 78L40 78L40 76L36 76L36 72L34 72L34 76L32 76L32 74L30 74L30 80L32 80L32 82L30 82ZM36 84L42 84L42 82L40 82L40 80L38 80L38 82L36 82ZM46 84L50 84L50 82L48 82L48 80L46 80ZM60 84L62 84L62 80L58 80L58 82L60 82ZM64 84L66 84L66 80L68 80L68 84L70 84L70 78L68 78L68 76L80 76L80 72L76 72L76 70L78 70L78 68L76 68L76 66L74 66L74 64L72 64L72 62L70 62L70 64L66 64L66 68L64 68L64 72L62 72L62 74L60 74L60 72L62 72L62 64L60 64L60 68L58 68L58 72L54 72L54 76L60 76L60 78L64 78L64 76L66 76L66 78L64 78ZM72 84L76 84L76 82L80 82L80 84L84 84L84 82L82 82L82 78L80 78L80 80L72 80ZM12 82L12 72L22 72L22 82ZM28 82L30 82L30 80L28 80ZM52 82L56 82L56 80L52 80ZM14 80L20 80L20 74L14 74ZM42 80L44 80L44 76L42 76ZM50 80L52 80L52 76L50 76L50 74L52 74L52 72L46 72L46 70L44 70L44 68L40 68L40 72L44 72L44 74L46 74L46 76L48 76L48 78L50 78ZM56 80L58 80L58 78L56 78ZM82 78L84 78L84 68L80 68L80 72L82 72ZM26 76L28 76L28 74L26 74ZM28 74L30 74L30 72L28 72ZM68 74L68 68L74 68L74 74ZM26 72L28 72L28 70L30 70L30 68L32 68L32 66L30 66L30 64L32 64L32 62L34 62L34 60L36 60L36 58L32 58L32 60L30 60L30 62L26 62L26 60L24 60L24 62L22 62L22 64L24 64L24 66L22 66L22 68L26 68L26 64L28 64L28 68L26 68ZM32 72L34 72L34 68L32 68ZM36 72L38 72L38 68L36 68ZM70 72L72 72L72 70L70 70ZM46 70L48 70L48 66L52 66L52 68L50 68L50 70L56 70L56 68L54 68L54 66L58 66L58 62L56 62L56 64L50 64L50 60L52 60L52 58L50 58L50 56L48 56L48 60L46 60L46 62L48 62L48 64L46 64ZM10 68L14 68L14 66L10 66ZM16 68L18 68L18 64L14 64L14 66L16 66ZM34 68L36 68L36 64L34 64ZM38 68L40 68L40 66L38 66ZM20 66L22 66L22 64L20 64ZM40 66L44 66L44 64L42 64L42 62L40 62ZM78 66L82 66L82 60L80 60L80 64L78 64ZM64 64L66 64L66 62L64 62ZM74 64L76 64L76 60L74 60ZM10 62L12 62L12 58L10 58ZM14 62L16 62L16 58L14 58ZM18 62L22 62L22 60L24 60L24 58L22 58L22 56L20 56L20 54L18 54L18 52L16 52L16 54L14 54L14 52L10 52L10 56L12 56L12 58L14 58L14 56L18 56ZM38 62L40 62L40 60L38 60ZM54 62L56 62L56 60L54 60ZM58 62L60 62L60 60L62 60L62 58L60 58L60 56L58 56L58 54L50 54L50 56L52 56L52 58L54 58L54 56L56 56L56 58L58 58ZM68 62L70 62L70 60L68 60ZM26 60L30 60L30 58L28 58L28 54L26 54L26 52L24 52L24 54L22 54L22 56L24 56L24 58L26 58ZM42 60L44 60L44 58L42 58ZM70 60L74 60L74 58L72 58L72 56L68 56L68 54L66 54L66 52L64 52L64 48L66 48L66 44L64 44L64 46L62 46L62 48L58 48L58 50L56 50L56 46L54 46L54 48L52 48L52 50L54 50L54 52L60 52L60 56L64 56L64 58L70 58ZM76 60L80 60L80 56L82 56L82 52L78 52L78 56L74 56L74 58L76 58ZM82 60L84 60L84 56L82 56ZM38 58L40 58L40 56L44 56L44 54L38 54L38 52L34 52L34 46L32 46L32 44L36 44L36 42L34 42L34 38L32 38L32 42L30 42L30 48L28 48L28 46L26 46L26 44L24 44L24 46L22 46L22 44L14 44L14 42L18 42L18 40L14 40L14 36L12 36L12 34L10 34L10 38L12 38L12 40L10 40L10 42L12 42L12 44L10 44L10 50L12 50L12 46L16 46L16 48L18 48L18 46L20 46L20 48L18 48L18 50L20 50L20 52L24 52L24 50L22 50L22 48L24 48L24 50L30 50L30 52L28 52L28 54L30 54L30 56L38 56ZM46 56L48 56L48 54L46 54ZM44 54L46 54L46 52L44 52ZM70 54L72 54L72 52L70 52ZM74 54L76 54L76 52L74 52ZM38 52L44 52L44 50L38 50ZM46 52L52 52L52 50L46 50ZM72 52L74 52L74 50L72 50ZM82 52L84 52L84 48L82 48ZM14 50L16 50L16 48L14 48ZM36 50L38 50L38 46L40 46L40 42L38 42L38 44L36 44ZM44 50L46 50L46 48L44 48ZM66 50L68 50L68 48L66 48ZM70 50L72 50L72 48L78 48L78 44L80 44L80 40L76 40L76 44L74 44L74 42L72 42L72 40L64 40L64 42L66 42L66 44L68 44L68 42L70 42L70 44L72 44L72 46L68 46L68 48L70 48ZM78 50L80 50L80 48L78 48ZM42 48L44 48L44 44L42 44ZM46 48L48 48L48 46L46 46ZM50 48L52 48L52 44L50 44L50 40L46 40L46 38L44 38L44 40L42 40L42 42L46 42L46 44L48 44L48 46L50 46ZM60 46L62 46L62 44L60 44ZM22 44L24 44L24 42L22 42ZM54 44L56 44L56 42L58 42L58 36L56 36L56 40L54 40ZM58 44L60 44L60 42L58 42ZM62 44L64 44L64 42L62 42ZM82 44L84 44L84 40L82 40ZM20 42L22 42L22 40L20 40ZM26 42L28 42L28 40L26 40ZM22 40L26 40L26 36L24 36L24 38L22 38ZM40 40L42 40L42 38L40 38ZM50 40L52 40L52 38L50 38ZM60 40L64 40L64 36L62 36L62 32L60 32L60 34L58 34L58 36L60 36ZM72 40L74 40L74 38L76 38L76 36L78 36L78 32L76 32L76 34L74 34L74 36L72 36L72 34L70 34L70 36L68 36L68 38L72 38ZM80 40L82 40L82 38L84 38L84 34L80 34ZM16 38L18 38L18 36L16 36ZM20 38L22 38L22 36L24 36L24 34L20 34ZM34 38L40 38L40 34L42 34L42 36L44 36L44 34L46 34L46 32L42 32L42 30L38 30L38 32L32 32L32 36L34 36ZM46 38L50 38L50 36L46 36ZM52 38L54 38L54 36L52 36ZM26 36L28 36L28 34L26 34ZM36 36L36 34L38 34L38 36ZM54 36L56 36L56 34L58 34L58 32L60 32L60 28L58 28L58 30L56 30L56 32L50 32L50 28L52 28L52 26L54 26L54 24L52 24L52 16L50 16L50 18L48 18L48 22L50 22L50 24L48 24L48 28L46 28L46 32L48 32L48 34L54 34ZM12 34L18 34L18 32L12 32ZM24 34L26 34L26 30L18 30L18 32L24 32ZM28 34L30 34L30 32L28 32ZM68 34L70 34L70 30L74 30L74 32L76 32L76 28L78 28L78 26L68 26L68 22L66 22L66 24L64 24L64 22L66 22L66 20L68 20L68 12L62 12L62 10L60 10L60 12L54 12L54 14L52 14L52 16L54 16L54 20L56 20L56 14L58 14L58 16L62 16L62 14L66 14L66 16L62 16L62 18L58 18L58 20L62 20L62 26L60 26L60 28L68 28L68 30L62 30L62 32L68 32ZM72 34L74 34L74 32L72 32ZM10 32L12 32L12 30L10 30ZM30 32L32 32L32 30L30 30ZM14 30L16 30L16 28L14 28ZM26 30L30 30L30 28L28 28L28 18L30 18L30 16L34 16L34 12L38 12L38 14L36 14L36 16L38 16L38 18L40 18L40 14L42 14L42 10L26 10L26 12L28 12L28 16L26 16L26 26L22 26L22 28L26 28ZM36 30L38 30L38 28L36 28ZM54 30L56 30L56 28L54 28ZM10 28L12 28L12 26L10 26ZM18 28L20 28L20 26L18 26ZM34 28L36 28L36 26L34 26ZM38 28L44 28L44 22L42 22L42 24L40 24L40 26L38 26ZM82 28L84 28L84 26L82 26ZM30 26L34 26L34 24L32 24L32 22L30 22ZM36 26L38 26L38 24L36 24ZM56 26L60 26L60 22L58 22L58 24L56 24ZM10 24L24 24L24 10L10 10ZM34 24L36 24L36 22L34 22ZM38 24L40 24L40 22L42 22L42 20L38 20ZM46 24L48 24L48 22L46 22ZM54 24L56 24L56 22L54 22ZM70 24L84 24L84 10L70 10ZM12 22L12 12L22 12L22 22ZM32 22L34 22L34 20L32 20ZM44 22L46 22L46 18L42 18L42 20L44 20ZM72 22L72 12L82 12L82 22ZM14 20L20 20L20 14L14 14ZM34 20L38 20L38 18L34 18ZM74 20L80 20L80 14L74 14ZM46 18L48 18L48 14L50 14L50 12L54 12L54 10L48 10L48 12L44 12L44 14L42 14L42 16L46 16Z" fill="#000000" fill-rule="evenodd" />
</svg>
