<svg viewBox="0 0 95 95" xmlns="http://www.w3.org/2000/svg">
<rect width="100%" height="100%" fill="#FFFFFF" />
<path d="M0 0L0 95L95 95L95 0ZM2 2L93 2L93 93L2 93Z" fill="#ffffff" fill-rule="evenodd" />
<path d="M10 84L24 84L24 70L10 70ZM26 84L28 84L28 82L26 82ZM36 84L38 84L38 82L40 82L40 80L34 80L34 82L36 82ZM40 84L42 84L42 82L40 82ZM44 84L46 84L46 82L48 82L48 78L44 78L44 76L42 76L42 80L44 80ZM48 84L50 84L50 82L48 82ZM52 84L56 84L56 80L62 80L62 78L58 78L58 76L60 76L60 74L56 74L56 72L54 72L54 76L56 76L56 78L52 78L52 76L50 76L50 74L48 74L48 72L46 72L46 70L44 70L44 72L42 72L42 70L44 70L44 68L46 68L46 64L42 64L42 62L40 62L40 66L42 66L42 68L40 68L40 72L34 72L34 70L28 70L28 62L26 62L26 72L32 72L32 74L26 74L26 76L28 76L28 82L32 82L32 78L30 78L30 76L32 76L32 78L34 78L34 74L38 74L38 76L42 76L42 74L46 74L46 76L48 76L48 78L50 78L50 80L52 80ZM68 84L76 84L76 82L72 82L72 80L74 80L74 76L76 76L76 74L78 74L78 76L82 76L82 78L84 78L84 74L80 74L80 70L78 70L78 72L76 72L76 70L78 70L78 68L76 68L76 64L74 64L74 66L68 66L68 62L70 62L70 60L72 60L72 62L76 62L76 64L78 64L78 68L80 68L80 70L82 70L82 68L84 68L84 64L80 64L80 62L78 62L78 60L74 60L74 58L72 58L72 56L76 56L76 52L74 52L74 54L70 54L70 56L68 56L68 60L66 60L66 54L68 54L68 52L64 52L64 56L62 56L62 58L64 58L64 62L62 62L62 66L66 66L66 76L70 76L70 78L64 78L64 82L66 82L66 80L68 80ZM78 84L84 84L84 82L82 82L82 80L78 80ZM12 82L12 72L22 72L22 82ZM14 80L20 80L20 74L14 74ZM36 78L38 78L38 76L36 76ZM62 78L64 78L64 76L62 76ZM50 74L52 74L52 72L50 72ZM62 74L64 74L64 70L62 70ZM68 74L68 68L74 68L74 74ZM56 72L58 72L58 70L62 70L62 68L60 68L60 66L58 66L58 62L62 62L62 60L60 60L60 58L58 58L58 60L56 60L56 62L54 62L54 60L52 60L52 64L50 64L50 60L52 60L52 58L58 58L58 52L56 52L56 50L58 50L58 42L60 42L60 38L58 38L58 36L56 36L56 34L54 34L54 30L52 30L52 32L50 32L50 28L56 28L56 34L58 34L58 36L60 36L60 32L58 32L58 24L56 24L56 26L54 26L54 24L52 24L52 26L48 26L48 28L46 28L46 30L44 30L44 32L42 32L42 30L40 30L40 32L38 32L38 34L44 34L44 36L46 36L46 38L48 38L48 34L46 34L46 32L48 32L48 34L50 34L50 36L52 36L52 38L56 38L56 40L46 40L46 38L44 38L44 36L36 36L36 42L38 42L38 40L40 40L40 44L42 44L42 42L46 42L46 44L48 44L48 42L52 42L52 44L56 44L56 46L54 46L54 48L52 48L52 50L48 50L48 52L54 52L54 54L56 54L56 56L54 56L54 54L50 54L50 58L48 58L48 60L44 60L44 62L46 62L46 64L48 64L48 66L50 66L50 68L52 68L52 70L54 70L54 64L56 64ZM70 72L72 72L72 70L70 70ZM36 70L38 70L38 68L36 68ZM46 70L48 70L48 68L46 68ZM10 68L14 68L14 66L10 66ZM22 68L24 68L24 66L22 66ZM30 68L36 68L36 64L32 64L32 66L30 66ZM16 66L18 66L18 64L20 64L20 66L22 66L22 64L24 64L24 62L20 62L20 60L24 60L24 58L18 58L18 60L16 60ZM36 64L38 64L38 62L36 62ZM10 62L14 62L14 60L16 60L16 58L14 58L14 56L20 56L20 54L22 54L22 52L24 52L24 50L20 50L20 52L18 52L18 54L16 54L16 52L14 52L14 54L12 54L12 52L10 52L10 56L12 56L12 60L10 60ZM28 62L30 62L30 60L32 60L32 58L28 58ZM34 62L36 62L36 60L34 60ZM38 62L40 62L40 58L38 58L38 54L36 54L36 56L34 56L34 54L32 54L32 52L30 52L30 54L28 54L28 52L30 52L30 50L34 50L34 48L32 48L32 46L34 46L34 44L36 44L36 42L26 42L26 46L30 46L30 48L26 48L26 52L24 52L24 54L26 54L26 58L28 58L28 56L32 56L32 58L36 58L36 60L38 60ZM80 62L82 62L82 60L80 60ZM42 60L44 60L44 58L42 58ZM78 60L80 60L80 58L82 58L82 60L84 60L84 56L82 56L82 54L80 54L80 56L78 56ZM40 58L42 58L42 56L44 56L44 54L46 54L46 56L48 56L48 52L46 52L46 46L44 46L44 44L42 44L42 48L44 48L44 52L42 52L42 50L34 50L34 54L36 54L36 52L40 52ZM22 56L24 56L24 54L22 54ZM60 56L62 56L62 52L60 52ZM78 54L80 54L80 46L78 46L78 50L76 50L76 52L78 52ZM12 52L14 52L14 44L16 44L16 42L10 42L10 46L12 46ZM16 52L18 52L18 50L16 50ZM58 52L60 52L60 50L58 50ZM68 52L74 52L74 50L72 50L72 46L70 46L70 50L68 50ZM82 52L84 52L84 48L82 48ZM64 50L68 50L68 48L66 48L66 46L68 46L68 44L64 44ZM16 48L20 48L20 46L16 46ZM22 48L24 48L24 46L22 46ZM36 48L40 48L40 44L38 44L38 46L36 46ZM50 48L52 48L52 44L48 44L48 46L50 46ZM60 48L62 48L62 44L60 44ZM74 46L78 46L78 44L74 44ZM80 46L82 46L82 44L80 44ZM18 44L20 44L20 42L22 42L22 40L18 40ZM22 44L24 44L24 42L22 42ZM68 44L72 44L72 40L74 40L74 38L70 38L70 42L68 42ZM78 44L80 44L80 42L82 42L82 40L80 40L80 34L82 34L82 32L80 32L80 30L78 30L78 26L68 26L68 10L60 10L60 12L58 12L58 14L62 14L62 12L66 12L66 16L64 16L64 18L62 18L62 20L66 20L66 24L64 24L64 22L62 22L62 28L60 28L60 30L64 30L64 36L60 36L60 38L64 38L64 42L68 42L68 40L66 40L66 38L68 38L68 36L66 36L66 32L68 32L68 28L74 28L74 30L76 30L76 32L78 32L78 34L76 34L76 36L78 36ZM82 44L84 44L84 42L82 42ZM24 42L26 42L26 40L24 40ZM12 40L14 40L14 38L16 38L16 40L18 40L18 36L12 36ZM22 40L24 40L24 38L22 38ZM26 40L28 40L28 38L30 38L30 40L32 40L32 36L28 36L28 34L26 34ZM20 38L22 38L22 36L20 36ZM74 38L76 38L76 36L74 36ZM22 36L24 36L24 34L22 34ZM34 36L36 36L36 34L34 34ZM68 36L74 36L74 34L72 34L72 30L70 30L70 32L68 32ZM82 36L84 36L84 34L82 34ZM10 34L14 34L14 32L16 32L16 30L14 30L14 28L12 28L12 26L10 26L10 30L12 30L12 32L10 32ZM18 34L22 34L22 32L20 32L20 30L18 30ZM30 34L34 34L34 32L30 32ZM22 32L24 32L24 30L22 30ZM26 32L30 32L30 30L28 30L28 28L30 28L30 26L32 26L32 22L30 22L30 24L28 24L28 22L30 22L30 20L28 20L28 18L30 18L30 16L32 16L32 12L30 12L30 14L28 14L28 16L26 16L26 26L22 26L22 28L26 28ZM34 32L38 32L38 30L40 30L40 26L38 26L38 28L36 28L36 30L34 30ZM20 30L22 30L22 28L20 28ZM30 30L32 30L32 28L30 28ZM18 28L20 28L20 26L18 26ZM32 28L36 28L36 26L32 26ZM42 28L44 28L44 26L42 26ZM82 28L84 28L84 26L82 26ZM36 26L38 26L38 24L36 24ZM40 26L42 26L42 24L40 24ZM10 24L24 24L24 10L10 10ZM34 24L36 24L36 22L34 22ZM38 24L40 24L40 22L38 22ZM42 24L44 24L44 22L42 22ZM46 24L48 24L48 22L46 22ZM50 24L52 24L52 22L50 22ZM54 24L56 24L56 20L54 20ZM58 24L60 24L60 22L58 22ZM70 24L84 24L84 10L70 10ZM12 22L12 12L22 12L22 22ZM36 22L38 22L38 20L36 20ZM44 22L46 22L46 18L44 18ZM48 22L50 22L50 20L48 20ZM72 22L72 12L82 12L82 22ZM14 20L20 20L20 14L14 14ZM34 20L36 20L36 18L34 18ZM40 20L42 20L42 18L40 18ZM56 20L58 20L58 18L62 18L62 16L56 16ZM74 20L80 20L80 14L74 14ZM32 18L34 18L34 16L32 16ZM36 18L40 18L40 16L36 16ZM46 18L48 18L48 16L46 16ZM34 16L36 16L36 14L38 14L38 12L42 12L42 14L44 14L44 16L46 16L46 10L36 10L36 12L34 12ZM52 16L54 16L54 12L52 12ZM48 14L50 14L50 12L52 12L52 10L48 10ZM26 12L30 12L30 10L26 10ZM32 12L34 12L34 10L32 10ZM56 12L58 12L58 10L56 10Z" fill="#000000" fill-rule="evenodd" />
</svg>
