<svg viewBox="0 0 87 87" xmlns="http://www.w3.org/2000/svg">
<rect width="100%" height="100%" fill="#FFFFFF" />
<path d="M0 0L0 87L87 87L87 0ZM2 2L85 2L85 85L2 85Z" fill="#ffffff" fill-rule="evenodd" />
<path d="M10 76L24 76L24 62L10 62ZM26 76L28 76L28 74L26 74ZM36 76L40 76L40 74L38 74L38 72L40 72L40 70L36 70L36 68L34 68L34 70L32 70L32 72L34 72L34 74L36 74ZM42 76L50 76L50 74L44 74L44 70L46 70L46 68L42 68L42 72L40 72L40 74L42 74ZM52 76L56 76L56 74L52 74ZM58 76L64 76L64 74L58 74ZM68 76L70 76L70 74L68 74ZM72 76L74 76L74 74L72 74ZM12 74L12 64L22 64L22 74ZM56 74L58 74L58 70L56 70ZM70 74L72 74L72 72L76 72L76 68L72 68L72 64L70 64L70 62L72 62L72 64L74 64L74 60L72 60L72 56L74 56L74 54L76 54L76 50L74 50L74 52L72 52L72 54L70 54L70 56L68 56L68 58L70 58L70 60L68 60L68 58L66 58L66 54L70 54L70 52L66 52L66 48L64 48L64 46L66 46L66 44L62 44L62 46L60 46L60 48L58 48L58 50L60 50L60 52L62 52L62 50L64 50L64 52L62 52L62 54L64 54L64 58L60 58L60 56L62 56L62 54L58 54L58 60L52 60L52 58L50 58L50 60L46 60L46 64L48 64L48 62L50 62L50 64L58 64L58 68L60 68L60 72L64 72L64 70L62 70L62 68L68 68L68 66L70 66L70 68L68 68L68 70L66 70L66 72L70 72ZM14 72L20 72L20 66L14 66ZM28 72L30 72L30 70L28 70ZM46 72L50 72L50 70L52 70L52 66L46 66L46 68L48 68L48 70L46 70ZM30 70L32 70L32 68L30 68ZM54 70L56 70L56 68L54 68ZM28 68L30 68L30 66L36 66L36 64L32 64L32 62L36 62L36 64L38 64L38 66L40 66L40 64L42 64L42 62L44 62L44 60L42 60L42 58L40 58L40 60L34 60L34 58L32 58L32 60L26 60L26 62L28 62ZM42 66L44 66L44 64L42 64ZM60 66L60 60L66 60L66 66ZM62 64L64 64L64 62L62 62ZM10 60L14 60L14 58L12 58L12 54L14 54L14 52L16 52L16 54L14 54L14 56L18 56L18 60L20 60L20 58L22 58L22 56L20 56L20 52L18 52L18 50L20 50L20 48L24 48L24 46L22 46L22 44L18 44L18 42L16 42L16 46L18 46L18 48L16 48L16 50L14 50L14 48L12 48L12 46L14 46L14 42L12 42L12 44L10 44ZM22 60L24 60L24 58L22 58ZM74 60L76 60L76 58L74 58ZM24 58L26 58L26 56L24 56ZM30 58L32 58L32 56L34 56L34 52L36 52L36 50L34 50L34 46L32 46L32 48L30 48L30 50L28 50L28 48L24 48L24 50L26 50L26 54L30 54L30 52L32 52L32 54L30 54ZM36 58L38 58L38 56L36 56ZM46 58L48 58L48 54L50 54L50 52L46 52L46 54L44 54L44 50L40 50L40 52L42 52L42 54L40 54L40 52L38 52L38 56L46 56ZM54 58L56 58L56 56L54 56ZM22 56L24 56L24 54L22 54ZM50 56L54 56L54 54L50 54ZM54 54L58 54L58 52L56 52L56 48L54 48L54 50L52 50L52 48L54 48L54 46L52 46L52 40L50 40L50 42L48 42L48 44L50 44L50 46L48 46L48 48L44 48L44 50L50 50L50 52L54 52ZM22 52L24 52L24 50L22 50ZM36 50L38 50L38 48L44 48L44 46L46 46L46 42L42 42L42 44L38 44L38 46L36 46ZM68 50L74 50L74 48L72 48L72 46L70 46L70 48L68 48ZM56 48L58 48L58 44L54 44L54 46L56 46ZM66 48L68 48L68 46L66 46ZM74 48L76 48L76 44L72 44L72 46L74 46ZM24 46L26 46L26 44L24 44ZM30 46L32 46L32 44L30 44ZM22 44L24 44L24 42L22 42ZM26 44L28 44L28 42L26 42ZM36 44L38 44L38 42L36 42ZM60 44L62 44L62 42L60 42ZM66 44L68 44L68 42L70 42L70 44L72 44L72 42L76 42L76 40L74 40L74 36L72 36L72 40L66 40ZM10 42L12 42L12 40L14 40L14 42L16 42L16 40L18 40L18 38L14 38L14 36L12 36L12 34L10 34ZM18 42L20 42L20 40L18 40ZM24 42L26 42L26 38L28 38L28 40L30 40L30 38L32 38L32 36L26 36L26 34L36 34L36 28L34 28L34 30L30 30L30 32L24 32L24 34L22 34L22 36L24 36L24 38L22 38L22 40L24 40ZM30 42L32 42L32 40L30 40ZM40 42L42 42L42 40L40 40ZM54 42L56 42L56 40L54 40ZM32 40L38 40L38 38L32 38ZM44 40L46 40L46 38L44 38ZM60 40L64 40L64 38L66 38L66 36L64 36L64 34L66 34L66 32L64 32L64 30L66 30L66 32L68 32L68 38L70 38L70 34L74 34L74 36L76 36L76 32L74 32L74 30L72 30L72 28L74 28L74 26L68 26L68 28L70 28L70 30L68 30L68 28L64 28L64 26L58 26L58 28L62 28L62 38L60 38ZM18 38L20 38L20 36L18 36ZM38 38L40 38L40 36L42 36L42 38L44 38L44 36L48 36L48 38L52 38L52 36L50 36L50 34L52 34L52 32L54 32L54 34L56 34L56 36L58 36L58 32L56 32L56 30L50 30L50 32L48 32L48 34L44 34L44 32L42 32L42 34L40 34L40 32L38 32L38 34L36 34L36 36L38 36ZM16 36L18 36L18 34L16 34ZM12 34L16 34L16 28L12 28L12 30L14 30L14 32L12 32ZM18 32L20 32L20 30L22 30L22 28L18 28ZM22 32L24 32L24 30L22 30ZM40 32L42 32L42 30L44 30L44 28L46 28L46 26L36 26L36 28L38 28L38 30L40 30ZM46 32L48 32L48 30L46 30ZM28 30L30 30L30 28L32 28L32 26L34 26L34 24L32 24L32 22L30 22L30 24L28 24L28 22L26 22L26 28L28 28ZM56 30L58 30L58 28L56 28ZM10 28L12 28L12 26L10 26ZM22 28L24 28L24 26L22 26ZM48 28L50 28L50 24L48 24L48 18L46 18L46 20L42 20L42 24L44 24L44 22L46 22L46 26L48 26ZM54 28L56 28L56 26L54 26ZM56 26L58 26L58 24L56 24ZM10 24L24 24L24 10L10 10ZM34 24L36 24L36 22L34 22ZM38 24L40 24L40 20L38 20ZM50 24L52 24L52 22L50 22ZM54 24L56 24L56 22L54 22ZM58 24L60 24L60 20L58 20ZM62 24L76 24L76 10L62 10ZM12 22L12 12L22 12L22 22ZM52 22L54 22L54 20L52 20ZM64 22L64 12L74 12L74 22ZM14 20L20 20L20 14L14 14ZM40 20L42 20L42 18L40 18ZM66 20L72 20L72 14L66 14ZM26 18L28 18L28 12L26 12ZM48 18L54 18L54 12L52 12L52 14L46 14L46 12L42 12L42 16L48 16ZM32 16L34 16L34 14L32 14ZM36 16L38 16L38 14L40 14L40 12L42 12L42 10L38 10L38 12L36 12ZM58 14L60 14L60 12L58 12ZM34 12L36 12L36 10L34 10ZM46 12L48 12L48 10L46 10Z" fill="#000000" fill-rule="evenodd" />
</svg>
