<svg viewBox="0 0 79 79" xmlns="http://www.w3.org/2000/svg">
<rect width="100%" height="100%" fill="#FFFFFF" />
<path d="M0 0L0 79L79 79L79 0ZM2 2L77 2L77 77L2 77Z" fill="#ffffff" fill-rule="evenodd" />
<path d="M10 68L24 68L24 54L10 54ZM26 68L32 68L32 66L30 66L30 64L28 64L28 66L26 66ZM38 68L42 68L42 66L44 66L44 68L46 68L46 66L48 66L48 64L50 64L50 68L54 68L54 66L56 66L56 64L52 64L52 62L54 62L54 60L56 60L56 62L60 62L60 64L64 64L64 68L66 68L66 66L68 66L68 60L66 60L66 62L64 62L64 60L60 60L60 54L62 54L62 52L66 52L66 50L68 50L68 46L66 46L66 48L64 48L64 50L62 50L62 48L60 48L60 50L52 50L52 48L48 48L48 50L50 50L50 52L48 52L48 54L50 54L50 56L48 56L48 60L50 60L50 62L44 62L44 64L42 64L42 62L40 62L40 64L38 64L38 60L42 60L42 62L44 62L44 60L46 60L46 56L48 56L48 54L44 54L44 56L42 56L42 52L48 52L48 50L46 50L46 48L42 48L42 46L36 46L36 50L34 50L34 52L36 52L36 54L40 54L40 56L38 56L38 58L36 58L36 62L34 62L34 64L32 64L32 66L38 66ZM56 68L60 68L60 64L58 64L58 66L56 66ZM12 66L12 56L22 56L22 66ZM14 64L20 64L20 58L14 58ZM30 64L32 64L32 62L30 62ZM28 62L30 62L30 60L28 60ZM26 60L28 60L28 58L26 58ZM32 60L34 60L34 58L32 58ZM30 58L32 58L32 56L34 56L34 58L36 58L36 54L34 54L34 52L30 52L30 54L28 54L28 50L30 50L30 44L32 44L32 40L30 40L30 34L28 34L28 36L26 36L26 40L24 40L24 42L28 42L28 44L24 44L24 46L22 46L22 48L26 48L26 56L30 56ZM52 58L52 52L58 52L58 58ZM64 58L66 58L66 56L64 56ZM54 56L56 56L56 54L54 54ZM66 56L68 56L68 54L66 54ZM10 52L16 52L16 50L10 50ZM18 52L20 52L20 50L18 50ZM22 52L24 52L24 50L22 50ZM38 52L38 48L40 48L40 52ZM16 50L18 50L18 46L16 46ZM32 48L34 48L34 46L32 46ZM56 48L60 48L60 46L62 46L62 48L64 48L64 44L60 44L60 42L62 42L62 40L56 40L56 38L54 38L54 34L52 34L52 40L54 40L54 42L56 42L56 44L54 44L54 46L56 46ZM10 46L12 46L12 44L10 44ZM18 46L22 46L22 44L18 44ZM34 46L36 46L36 44L40 44L40 40L38 40L38 42L34 42ZM42 46L44 46L44 44L42 44ZM22 44L24 44L24 42L22 42ZM48 44L50 44L50 42L48 42ZM52 44L54 44L54 42L52 42ZM66 44L68 44L68 42L66 42ZM18 42L22 42L22 40L18 40ZM42 42L48 42L48 38L44 38L44 40L42 40ZM50 42L52 42L52 40L50 40ZM64 42L66 42L66 40L64 40ZM10 40L12 40L12 38L14 38L14 36L16 36L16 40L18 40L18 36L20 36L20 30L18 30L18 32L16 32L16 34L12 34L12 32L10 32ZM22 40L24 40L24 38L22 38ZM34 40L36 40L36 38L40 38L40 40L42 40L42 38L44 38L44 36L42 36L42 34L40 34L40 36L38 36L38 32L42 32L42 30L36 30L36 32L30 32L30 34L34 34L34 36L32 36L32 38L34 38ZM62 40L64 40L64 38L66 38L66 40L68 40L68 36L62 36ZM48 38L50 38L50 32L46 32L46 30L44 30L44 36L48 36ZM56 38L60 38L60 34L58 34L58 32L54 32L54 34L56 34ZM22 36L26 36L26 34L22 34ZM60 34L62 34L62 32L66 32L66 34L68 34L68 26L66 26L66 28L62 28L62 26L52 26L52 32L54 32L54 30L58 30L58 32L60 32ZM12 32L14 32L14 30L12 30ZM22 32L24 32L24 30L22 30ZM26 32L28 32L28 30L26 30ZM24 30L26 30L26 28L28 28L28 22L30 22L30 20L32 20L32 22L34 22L34 20L36 20L36 22L38 22L38 26L36 26L36 22L34 22L34 26L32 26L32 22L30 22L30 30L32 30L32 28L42 28L42 26L40 26L40 22L42 22L42 20L40 20L40 18L42 18L42 20L46 20L46 18L44 18L44 16L46 16L46 14L52 14L52 12L46 12L46 10L44 10L44 12L42 12L42 14L40 14L40 16L38 16L38 18L36 18L36 16L32 16L32 18L30 18L30 16L26 16L26 26L22 26L22 28L24 28ZM48 30L50 30L50 24L48 24L48 22L50 22L50 24L52 24L52 20L46 20L46 24L44 24L44 28L48 28ZM10 28L12 28L12 26L10 26ZM18 28L20 28L20 26L18 26ZM10 24L24 24L24 10L10 10ZM42 24L44 24L44 22L42 22ZM54 24L68 24L68 10L54 10ZM12 22L12 12L22 12L22 22ZM56 22L56 12L66 12L66 22ZM14 20L20 20L20 14L14 14ZM58 20L64 20L64 14L58 14ZM50 18L52 18L52 16L50 16ZM36 16L38 16L38 14L36 14ZM30 14L32 14L32 10L30 10ZM34 14L36 14L36 10L34 10ZM26 12L28 12L28 10L26 10Z" fill="#000000" fill-rule="evenodd" />
</svg>
