<svg viewBox="0 0 87 87" xmlns="http://www.w3.org/2000/svg">
<rect width="100%" height="100%" fill="#FFFFFF" />
<path d="M0 0L0 87L87 87L87 0ZM2 2L85 2L85 85L2 85Z" fill="#ffffff" fill-rule="evenodd" />
<path d="M10 76L24 76L24 62L10 62ZM26 76L30 76L30 74L26 74ZM38 76L46 76L46 74L38 74ZM50 76L52 76L52 74L50 74ZM54 76L62 76L62 72L60 72L60 74L58 74L58 72L60 72L60 70L56 70L56 74L54 74ZM64 76L72 76L72 74L66 74L66 72L64 72ZM12 74L12 64L22 64L22 74ZM32 74L34 74L34 72L32 72ZM36 74L38 74L38 72L36 72ZM46 74L50 74L50 70L48 70L48 72L46 72ZM52 74L54 74L54 70L52 70ZM72 74L74 74L74 72L72 72ZM14 72L20 72L20 66L14 66ZM26 72L28 72L28 70L32 70L32 68L30 68L30 66L28 66L28 64L26 64ZM34 72L36 72L36 70L34 70ZM40 72L42 72L42 70L40 70ZM44 72L46 72L46 70L48 70L48 68L46 68L46 66L44 66L44 64L46 64L46 66L48 66L48 62L52 62L52 60L46 60L46 58L44 58L44 62L42 62L42 64L40 64L40 68L42 68L42 70L44 70ZM66 72L68 72L68 70L66 70ZM36 70L40 70L40 68L38 68L38 66L36 66ZM50 70L52 70L52 68L50 68ZM60 70L66 70L66 68L68 68L68 66L70 66L70 64L68 64L68 62L70 62L70 64L72 64L72 62L74 62L74 60L70 60L70 58L68 58L68 56L64 56L64 58L60 58L60 54L58 54L58 56L56 56L56 58L52 58L52 60L58 60L58 62L56 62L56 66L58 66L58 68L60 68ZM70 70L72 70L72 66L70 66ZM54 68L56 68L56 66L54 66ZM30 66L34 66L34 62L36 62L36 60L34 60L34 58L32 58L32 56L34 56L34 58L36 58L36 52L38 52L38 54L44 54L44 56L46 56L46 58L50 58L50 56L48 56L48 54L52 54L52 52L40 52L40 48L42 48L42 42L40 42L40 46L38 46L38 42L36 42L36 40L32 40L32 38L22 38L22 40L24 40L24 42L22 42L22 44L24 44L24 46L20 46L20 48L18 48L18 44L14 44L14 38L12 38L12 40L10 40L10 42L12 42L12 44L10 44L10 46L12 46L12 48L14 48L14 50L12 50L12 52L10 52L10 60L12 60L12 54L20 54L20 52L26 52L26 58L28 58L28 56L30 56L30 58L28 58L28 60L32 60L32 62L30 62ZM52 66L54 66L54 64L52 64ZM60 66L60 60L66 60L66 66ZM74 66L76 66L76 62L74 62ZM36 64L40 64L40 62L42 62L42 58L40 58L40 60L38 60L38 62L36 62ZM62 64L64 64L64 62L62 62ZM26 62L28 62L28 60L26 60ZM14 60L18 60L18 58L20 58L20 56L14 56ZM22 60L24 60L24 58L22 58ZM38 58L40 58L40 56L38 56ZM70 58L74 58L74 54L70 54ZM20 56L24 56L24 54L20 54ZM54 56L56 56L56 54L54 54ZM32 54L32 52L34 52L34 54ZM56 54L58 54L58 52L62 52L62 50L54 50L54 52L56 52ZM64 54L70 54L70 52L68 52L68 48L66 48L66 46L64 46L64 44L62 44L62 46L52 46L52 48L44 48L44 50L54 50L54 48L64 48L64 50L66 50L66 52L64 52ZM28 52L28 50L22 50L22 48L28 48L28 46L26 46L26 40L28 40L28 42L30 42L30 46L32 46L32 42L34 42L34 44L36 44L36 50L34 50L34 48L32 48L32 50L30 50L30 52ZM72 52L76 52L76 50L72 50ZM10 50L12 50L12 48L10 48ZM70 50L72 50L72 46L70 46ZM48 46L52 46L52 42L54 42L54 40L50 40L50 38L48 38L48 36L46 36L46 42L44 42L44 44L48 44L48 42L50 42L50 44L48 44ZM72 46L74 46L74 44L72 44ZM54 44L62 44L62 42L60 42L60 34L58 34L58 36L56 36L56 38L58 38L58 42L54 42ZM64 44L72 44L72 42L66 42L66 40L64 40L64 38L62 38L62 42L64 42ZM74 44L76 44L76 38L66 38L66 40L74 40ZM18 42L20 42L20 40L18 40ZM42 42L44 42L44 40L42 40ZM16 40L18 40L18 38L20 38L20 36L18 36L18 34L16 34L16 32L18 32L18 30L20 30L20 28L24 28L24 26L14 26L14 32L10 32L10 38L12 38L12 36L16 36ZM36 40L42 40L42 38L36 38ZM32 38L36 38L36 34L34 34L34 36L32 36ZM42 38L44 38L44 36L42 36ZM50 38L52 38L52 36L50 36ZM64 38L66 38L66 34L70 34L70 36L76 36L76 34L72 34L72 30L70 30L70 32L66 32L66 30L62 30L62 32L64 32ZM22 36L24 36L24 34L22 34ZM26 36L28 36L28 32L32 32L32 30L30 30L30 28L26 28ZM30 36L32 36L32 34L30 34ZM40 36L42 36L42 34L50 34L50 30L48 30L48 32L46 32L46 30L48 30L48 28L50 28L50 26L48 26L48 20L52 20L52 22L54 22L54 24L56 24L56 22L58 22L58 24L60 24L60 20L54 20L54 18L52 18L52 16L54 16L54 14L56 14L56 12L52 12L52 14L50 14L50 12L48 12L48 10L46 10L46 12L42 12L42 14L46 14L46 16L50 16L50 18L46 18L46 16L44 16L44 18L42 18L42 20L46 20L46 26L40 26L40 28L44 28L44 30L40 30ZM52 36L56 36L56 34L52 34ZM18 34L22 34L22 32L18 32ZM22 32L24 32L24 30L22 30ZM36 32L38 32L38 30L36 30ZM52 32L56 32L56 30L52 30ZM58 32L60 32L60 30L58 30ZM38 30L40 30L40 28L38 28ZM50 30L52 30L52 28L50 28ZM56 30L58 30L58 28L56 28ZM66 30L68 30L68 28L72 28L72 26L62 26L62 28L66 28ZM72 30L74 30L74 28L72 28ZM10 28L12 28L12 26L10 26ZM32 28L34 28L34 24L32 24ZM36 28L38 28L38 24L36 24ZM54 28L56 28L56 26L54 26ZM26 26L28 26L28 22L30 22L30 24L32 24L32 20L30 20L30 18L32 18L32 16L34 16L34 18L32 18L32 20L34 20L34 24L36 24L36 22L38 22L38 18L36 18L36 16L38 16L38 14L40 14L40 12L42 12L42 10L28 10L28 14L26 14ZM50 26L54 26L54 24L52 24L52 22L50 22ZM10 24L24 24L24 10L10 10ZM38 24L40 24L40 22L38 22ZM42 24L44 24L44 22L42 22ZM62 24L76 24L76 10L62 10ZM12 22L12 12L22 12L22 22ZM40 22L42 22L42 20L40 20ZM64 22L64 12L74 12L74 22ZM14 20L20 20L20 14L14 14ZM66 20L72 20L72 14L66 14ZM38 18L42 18L42 14L40 14L40 16L38 16ZM54 18L56 18L56 16L54 16ZM58 18L60 18L60 12L58 12ZM32 14L32 12L34 12L34 14ZM50 12L52 12L52 10L50 10ZM56 12L58 12L58 10L56 10Z" fill="#000000" fill-rule="evenodd" />
</svg>
