<svg viewBox="0 0 95 95" xmlns="http://www.w3.org/2000/svg">
<rect width="100%" height="100%" fill="#FFFFFF" />
<path d="M0 0L0 95L95 95L95 0ZM2 2L93 2L93 93L2 93Z" fill="#ffffff" fill-rule="evenodd" />
<path d="M10 84L24 84L24 70L10 70ZM26 84L36 84L36 82L30 82L30 80L28 80L28 82L26 82ZM40 84L46 84L46 82L50 82L50 84L56 84L56 82L54 82L54 80L62 80L62 78L58 78L58 76L56 76L56 78L54 78L54 76L56 76L56 74L54 74L54 72L56 72L56 74L58 74L58 72L62 72L62 70L64 70L64 68L60 68L60 70L58 70L58 68L56 68L56 70L52 70L52 72L46 72L46 70L44 70L44 68L46 68L46 62L44 62L44 64L42 64L42 62L40 62L40 58L38 58L38 56L36 56L36 54L34 54L34 52L32 52L32 50L34 50L34 48L36 48L36 50L34 50L34 52L36 52L36 54L38 54L38 52L40 52L40 54L38 54L38 56L42 56L42 60L44 60L44 54L46 54L46 56L48 56L48 52L50 52L50 56L48 56L48 60L50 60L50 62L52 62L52 60L56 60L56 64L54 64L54 62L52 62L52 64L50 64L50 66L48 66L48 68L56 68L56 66L60 66L60 62L62 62L62 60L60 60L60 58L56 58L56 56L58 56L58 52L56 52L56 54L54 54L54 52L56 52L56 50L58 50L58 44L60 44L60 42L56 42L56 40L58 40L58 38L60 38L60 32L62 32L62 30L64 30L64 36L62 36L62 38L60 38L60 40L62 40L62 42L64 42L64 40L66 40L66 42L68 42L68 40L72 40L72 38L68 38L68 36L74 36L74 32L72 32L72 34L66 34L66 28L60 28L60 30L58 30L58 28L56 28L56 26L54 26L54 24L52 24L52 28L54 28L54 30L56 30L56 34L58 34L58 36L56 36L56 38L52 38L52 42L48 42L48 40L42 40L42 38L44 38L44 36L40 36L40 34L38 34L38 40L40 40L40 42L46 42L46 46L44 46L44 44L42 44L42 48L44 48L44 52L42 52L42 50L40 50L40 48L38 48L38 46L40 46L40 44L36 44L36 46L34 46L34 42L38 42L38 40L34 40L34 38L36 38L36 30L34 30L34 24L32 24L32 28L30 28L30 32L34 32L34 34L32 34L32 38L28 38L28 40L32 40L32 48L30 48L30 54L28 54L28 58L30 58L30 60L32 60L32 56L34 56L34 58L36 58L36 60L34 60L34 62L32 62L32 64L34 64L34 66L32 66L32 68L36 68L36 62L38 62L38 64L40 64L40 66L42 66L42 68L40 68L40 66L38 66L38 70L40 70L40 72L42 72L42 74L46 74L46 76L48 76L48 74L52 74L52 80L46 80L46 78L44 78L44 76L42 76L42 80L44 80L44 82L40 82ZM58 84L60 84L60 82L58 82ZM64 84L66 84L66 82L64 82ZM68 84L70 84L70 82L68 82ZM74 84L84 84L84 82L82 82L82 80L80 80L80 76L82 76L82 74L84 74L84 72L80 72L80 70L78 70L78 68L76 68L76 64L74 64L74 66L70 66L70 64L68 64L68 60L64 60L64 64L66 64L66 76L70 76L70 78L64 78L64 80L72 80L72 78L74 78L74 76L76 76L76 72L78 72L78 76L76 76L76 80L78 80L78 82L74 82ZM12 82L12 72L22 72L22 82ZM72 82L74 82L74 80L72 80ZM14 80L20 80L20 74L14 74ZM30 80L34 80L34 78L30 78ZM38 80L40 80L40 78L38 78ZM36 78L38 78L38 76L40 76L40 74L38 74L38 70L36 70ZM82 78L84 78L84 76L82 76ZM26 76L28 76L28 74L26 74ZM30 76L34 76L34 74L32 74L32 72L28 72L28 74L30 74ZM58 76L60 76L60 74L58 74ZM68 74L68 68L74 68L74 74ZM26 72L28 72L28 68L26 68ZM32 72L34 72L34 70L32 70ZM70 72L72 72L72 70L70 70ZM30 70L32 70L32 68L30 68ZM46 70L48 70L48 68L46 68ZM10 68L14 68L14 66L10 66ZM16 68L24 68L24 66L16 66ZM28 68L30 68L30 66L28 66ZM78 68L82 68L82 66L84 66L84 64L80 64L80 62L78 62ZM26 66L28 66L28 64L30 64L30 60L28 60L28 62L22 62L22 64L26 64ZM30 66L32 66L32 64L30 64ZM16 64L20 64L20 62L16 62ZM72 64L74 64L74 62L78 62L78 60L84 60L84 56L82 56L82 58L80 58L80 56L78 56L78 58L76 58L76 60L74 60L74 58L68 58L68 60L72 60ZM10 62L12 62L12 60L14 60L14 62L16 62L16 58L12 58L12 54L10 54ZM46 62L48 62L48 60L46 60ZM22 60L28 60L28 58L22 58ZM16 58L18 58L18 52L20 52L20 50L22 50L22 48L20 48L20 46L22 46L22 44L28 44L28 40L26 40L26 42L22 42L22 40L18 40L18 42L16 42L16 44L18 44L18 46L14 46L14 50L16 50L16 48L18 48L18 50L16 50ZM62 58L68 58L68 56L66 56L66 54L68 54L68 56L70 56L70 52L74 52L74 50L72 50L72 48L66 48L66 46L68 46L68 44L64 44L64 46L62 46L62 48L64 48L64 50L68 50L68 52L64 52L64 50L62 50L62 52L60 52L60 54L62 54ZM22 56L24 56L24 54L22 54ZM12 54L14 54L14 52L12 52ZM20 54L22 54L22 52L20 52ZM24 54L28 54L28 52L24 52ZM74 54L80 54L80 52L84 52L84 50L82 50L82 48L78 48L78 52L74 52ZM10 52L12 52L12 50L10 50ZM22 52L24 52L24 50L22 50ZM26 50L28 50L28 46L22 46L22 48L26 48ZM46 50L46 48L48 48L48 44L56 44L56 48L54 48L54 46L52 46L52 50ZM10 48L12 48L12 46L10 46ZM76 48L78 48L78 46L76 46ZM12 46L14 46L14 44L12 44ZM60 46L62 46L62 44L60 44ZM74 46L76 46L76 44L74 44ZM10 44L12 44L12 42L10 42ZM68 44L74 44L74 42L76 42L76 40L72 40L72 42L68 42ZM78 44L84 44L84 42L80 42L80 40L78 40ZM12 42L14 42L14 40L12 40ZM22 40L26 40L26 38L28 38L28 36L30 36L30 32L28 32L28 30L26 30L26 34L22 34L22 36L24 36L24 38L22 38ZM76 40L78 40L78 36L84 36L84 34L80 34L80 30L76 30L76 32L78 32L78 34L76 34L76 36L74 36L74 38L76 38ZM80 40L82 40L82 38L80 38ZM10 38L12 38L12 36L18 36L18 38L20 38L20 34L18 34L18 30L20 30L20 26L18 26L18 28L16 28L16 34L10 34ZM46 38L48 38L48 36L46 36ZM44 36L46 36L46 32L42 32L42 30L40 30L40 34L44 34ZM48 36L56 36L56 34L54 34L54 30L50 30L50 32L52 32L52 34L48 34ZM10 32L14 32L14 28L12 28L12 26L10 26ZM20 32L24 32L24 30L20 30ZM24 30L26 30L26 28L28 28L28 26L30 26L30 24L28 24L28 20L34 20L34 18L32 18L32 16L30 16L30 18L28 18L28 16L26 16L26 26L22 26L22 28L24 28ZM74 30L76 30L76 28L78 28L78 26L68 26L68 28L74 28ZM80 30L82 30L82 28L80 28ZM36 28L38 28L38 26L42 26L42 28L46 28L46 26L48 26L48 22L50 22L50 24L52 24L52 20L46 20L46 24L44 24L44 22L42 22L42 24L40 24L40 22L38 22L38 24L36 24ZM58 28L60 28L60 26L58 26ZM82 28L84 28L84 26L82 26ZM56 26L58 26L58 24L56 24ZM62 26L64 26L64 20L62 20ZM66 26L68 26L68 18L66 18L66 16L68 16L68 14L62 14L62 16L60 16L60 14L62 14L62 12L68 12L68 10L60 10L60 12L58 12L58 14L52 14L52 16L58 16L58 18L60 18L60 20L62 20L62 18L64 18L64 20L66 20ZM10 24L24 24L24 10L10 10ZM30 24L32 24L32 22L30 22ZM34 24L36 24L36 20L34 20ZM54 24L56 24L56 20L58 20L58 18L54 18ZM58 24L60 24L60 20L58 20ZM70 24L84 24L84 10L70 10ZM12 22L12 12L22 12L22 22ZM72 22L72 12L82 12L82 22ZM14 20L20 20L20 14L14 14ZM38 20L40 20L40 18L42 18L42 20L46 20L46 18L44 18L44 16L36 16L36 18L38 18ZM74 20L80 20L80 14L74 14ZM46 18L50 18L50 16L48 16L48 14L52 14L52 12L48 12L48 10L46 10L46 14L44 14L44 16L46 16ZM28 16L30 16L30 14L28 14ZM34 16L36 16L36 14L34 14ZM30 14L32 14L32 12L30 12ZM36 14L44 14L44 10L40 10L40 12L38 12L38 10L32 10L32 12L36 12ZM26 12L28 12L28 10L26 10ZM56 12L58 12L58 10L56 10Z" fill="#000000" fill-rule="evenodd" />
</svg>
