<svg viewBox="0 0 87 87" xmlns="http://www.w3.org/2000/svg">
<rect width="100%" height="100%" fill="#FFFFFF" />
<path d="M0 0L0 87L87 87L87 0ZM2 2L85 2L85 85L2 85Z" fill="#ffffff" fill-rule="evenodd" />
<path d="M10 76L24 76L24 62L10 62ZM26 76L28 76L28 74L26 74ZM30 76L32 76L32 74L30 74ZM34 76L36 76L36 74L38 74L38 72L40 72L40 66L38 66L38 68L36 68L36 70L34 70ZM40 76L42 76L42 74L44 74L44 76L52 76L52 74L50 74L50 72L48 72L48 70L52 70L52 68L46 68L46 72L40 72ZM56 76L58 76L58 72L56 72L56 70L54 70L54 74L56 74ZM66 76L68 76L68 74L66 74ZM12 74L12 64L22 64L22 74ZM28 74L30 74L30 70L32 70L32 68L30 68L30 66L28 66L28 68L26 68L26 72L28 72ZM74 74L76 74L76 72L74 72ZM14 72L20 72L20 66L14 66ZM62 72L64 72L64 70L62 70ZM68 72L70 72L70 70L68 70ZM56 70L58 70L58 68L66 68L66 70L68 70L68 66L72 66L72 64L68 64L68 58L70 58L70 52L68 52L68 54L66 54L66 56L64 56L64 52L62 52L62 50L60 50L60 54L62 54L62 56L60 56L60 58L58 58L58 48L54 48L54 50L56 50L56 52L54 52L54 54L56 54L56 56L54 56L54 58L56 58L56 60L58 60L58 62L56 62L56 60L54 60L54 64L58 64L58 66L54 66L54 64L52 64L52 68L56 68ZM74 70L76 70L76 64L74 64L74 66L72 66L72 68L74 68ZM32 68L34 68L34 66L36 66L36 64L32 64L32 62L30 62L30 66L32 66ZM44 68L46 68L46 66L44 66ZM26 66L28 66L28 62L30 62L30 60L32 60L32 62L36 62L36 60L38 60L38 58L34 58L34 54L32 54L32 52L30 52L30 50L28 50L28 54L30 54L30 58L28 58L28 60L26 60ZM40 66L44 66L44 62L48 62L48 66L50 66L50 60L44 60L44 54L42 54L42 58L40 58L40 60L42 60L42 64L40 64ZM60 66L60 60L66 60L66 66ZM36 64L38 64L38 62L36 62ZM62 64L64 64L64 62L62 62ZM38 62L40 62L40 60L38 60ZM74 62L76 62L76 60L74 60ZM10 60L12 60L12 58L10 58ZM14 60L18 60L18 56L20 56L20 54L14 54L14 56L12 56L12 58L14 58ZM20 60L24 60L24 58L20 58ZM50 60L52 60L52 58L50 58ZM70 60L74 60L74 56L76 56L76 54L74 54L74 52L72 52L72 58L70 58ZM24 58L26 58L26 56L24 56ZM22 56L24 56L24 54L22 54ZM26 56L28 56L28 54L26 54ZM36 56L40 56L40 54L38 54L38 52L36 52ZM10 54L12 54L12 52L16 52L16 50L18 50L18 48L24 48L24 46L22 46L22 44L20 44L20 46L16 46L16 48L10 48ZM20 54L22 54L22 52L20 52ZM40 54L42 54L42 52L40 52ZM46 54L52 54L52 52L50 52L50 50L46 50ZM22 52L26 52L26 50L22 50ZM34 52L36 52L36 48L34 48ZM38 52L40 52L40 50L38 50ZM64 52L68 52L68 50L64 50ZM70 52L72 52L72 50L70 50ZM74 52L76 52L76 50L74 50ZM30 50L32 50L32 48L34 48L34 44L44 44L44 46L40 46L40 50L42 50L42 48L46 48L46 46L48 46L48 42L50 42L50 46L52 46L52 48L54 48L54 44L56 44L56 42L62 42L62 40L56 40L56 38L60 38L60 36L62 36L62 34L58 34L58 36L56 36L56 34L58 34L58 32L60 32L60 30L56 30L56 32L54 32L54 36L52 36L52 38L54 38L54 40L52 40L52 38L48 38L48 40L46 40L46 42L44 42L44 40L46 40L46 38L48 38L48 36L50 36L50 34L48 34L48 32L46 32L46 36L42 36L42 38L34 38L34 36L36 36L36 34L34 34L34 32L32 32L32 30L30 30L30 28L28 28L28 32L30 32L30 34L28 34L28 38L30 38L30 36L32 36L32 44L28 44L28 48L30 48ZM50 50L52 50L52 48L50 48ZM62 50L64 50L64 48L68 48L68 44L70 44L70 42L74 42L74 40L72 40L72 38L68 38L68 42L62 42ZM36 48L38 48L38 46L36 46ZM58 48L60 48L60 44L56 44L56 46L58 46ZM70 48L74 48L74 46L70 46ZM12 46L14 46L14 44L16 44L16 42L18 42L18 44L20 44L20 42L22 42L22 40L18 40L18 38L22 38L22 36L20 36L20 30L16 30L16 32L14 32L14 34L10 34L10 36L14 36L14 38L16 38L16 40L14 40L14 38L10 38L10 40L12 40L12 42L10 42L10 44L12 44ZM24 46L26 46L26 44L28 44L28 42L26 42L26 40L24 40L24 42L22 42L22 44L24 44ZM64 46L64 44L66 44L66 46ZM74 46L76 46L76 42L74 42ZM38 42L38 40L42 40L42 42ZM22 40L24 40L24 38L22 38ZM62 40L64 40L64 38L66 38L66 36L62 36ZM72 38L76 38L76 36L72 36ZM16 36L16 34L18 34L18 36ZM22 36L24 36L24 34L22 34ZM40 36L42 36L42 34L40 34ZM68 36L72 36L72 34L70 34L70 30L62 30L62 32L64 32L64 34L68 34ZM24 34L26 34L26 32L24 32ZM36 34L40 34L40 30L38 30L38 32L36 32ZM50 34L52 34L52 32L50 32ZM74 34L76 34L76 30L72 30L72 32L74 32ZM22 32L24 32L24 30L22 30ZM34 32L36 32L36 26L34 26ZM42 32L46 32L46 30L44 30L44 28L48 28L48 26L46 26L46 24L44 24L44 26L42 26ZM10 30L16 30L16 28L18 28L18 26L14 26L14 28L12 28L12 26L10 26ZM48 30L50 30L50 28L48 28ZM52 30L56 30L56 26L52 26L52 22L50 22L50 28L52 28ZM70 30L72 30L72 28L70 28ZM20 28L26 28L26 26L20 26ZM38 28L40 28L40 22L38 22ZM62 28L64 28L64 26L62 26ZM68 28L70 28L70 26L68 26ZM72 28L76 28L76 26L72 26ZM26 26L32 26L32 22L30 22L30 24L28 24L28 22L26 22ZM56 26L58 26L58 24L56 24ZM10 24L24 24L24 10L10 10ZM34 24L36 24L36 22L34 22ZM42 24L44 24L44 22L42 22ZM46 24L48 24L48 22L50 22L50 20L46 20ZM54 24L56 24L56 16L60 16L60 14L58 14L58 10L50 10L50 14L48 14L48 16L52 16L52 14L54 14L54 12L56 12L56 14L54 14ZM58 24L60 24L60 20L58 20ZM62 24L76 24L76 10L62 10ZM12 22L12 12L22 12L22 22ZM28 22L30 22L30 20L32 20L32 16L30 16L30 18L28 18ZM64 22L64 12L74 12L74 22ZM14 20L20 20L20 14L14 14ZM34 20L40 20L40 18L44 18L44 16L38 16L38 18L34 18ZM50 20L52 20L52 18L50 18ZM66 20L72 20L72 14L66 14ZM26 18L28 18L28 16L26 16ZM28 16L30 16L30 14L28 14ZM34 16L36 16L36 14L34 14ZM44 16L46 16L46 14L44 14ZM26 14L28 14L28 12L30 12L30 14L34 14L34 12L32 12L32 10L26 10ZM36 14L38 14L38 12L40 12L40 10L34 10L34 12L36 12ZM42 14L44 14L44 12L46 12L46 14L48 14L48 10L42 10Z" fill="#000000" fill-rule="evenodd" />
</svg>
