<?xml version="1.0" encoding="UTF-8" standalone="no"?>
<!-- Created with Inkscape (http://www.inkscape.org/) -->

<svg
   width="16.933334mm"
   height="16.933334mm"
   viewBox="0 0 16.933334 16.933334"
   version="1.1"
   id="svg5"
   xml:space="preserve"
   inkscape:version="1.3 (0e150ed6c4, 2023-07-21)"
   sodipodi:docname="Zilver_64px.svg"
   inkscape:export-filename="Silverquote_30.png"
   inkscape:export-xdpi="96"
   inkscape:export-ydpi="96"
   xmlns:inkscape="http://www.inkscape.org/namespaces/inkscape"
   xmlns:sodipodi="http://sodipodi.sourceforge.net/DTD/sodipodi-0.dtd"
   xmlns="http://www.w3.org/2000/svg"
   xmlns:svg="http://www.w3.org/2000/svg"><sodipodi:namedview
     id="namedview7"
     pagecolor="#ffffff"
     bordercolor="#000000"
     borderopacity="0.25"
     inkscape:showpageshadow="2"
     inkscape:pageopacity="0.0"
     inkscape:pagecheckerboard="0"
     inkscape:deskcolor="#d1d1d1"
     inkscape:document-units="mm"
     showgrid="false"
     inkscape:zoom="4.6823728"
     inkscape:cx="56.38167"
     inkscape:cy="34.704627"
     inkscape:window-width="1920"
     inkscape:window-height="1001"
     inkscape:window-x="-9"
     inkscape:window-y="-9"
     inkscape:window-maximized="1"
     inkscape:current-layer="svg5" /><defs
     id="defs2" /><g
     id="g1"
     transform="matrix(0.10745079,0,0,0.10745079,-0.3980927,-0.35944616)"><path
       id="path2"
       style="display:inline;fill:#000000;fill-opacity:1;stroke:none;stroke-width:1.5;stroke-linecap:round;stroke-linejoin:round;stroke-miterlimit:0;stroke-dasharray:none;stroke-opacity:1"
       inkscape:label="CONTOUR"
       d="m 18.111927,4.972141 -52.46088,21.197672 -22.106661,52.084677 21.197672,52.46088 52.08416,22.10666 L 69.287615,131.62436 91.394276,79.540199 70.196604,27.078802 Z m -0.0615,7.102926 L 65.130763,32.057309 84.29135,79.478188 64.309108,126.55852 16.88823,145.71962 -30.191584,125.73686 -49.353205,78.315985 -29.369929,31.235654 Z"
       transform="translate(65.031318,3.2438951)" /><path
       style="display:inline;fill:#000000;fill-opacity:1;stroke:#ffffff;stroke-width:1.29892;stroke-linecap:round;stroke-linejoin:round;stroke-miterlimit:0;stroke-dasharray:none;stroke-opacity:1"
       d="M 41.303419,75.200661 H 63.969916 L 41.246549,58.947753 V 45.067033 H 74.934112 V 31.609784 H 89.85898 v 13.457249 h 33.68758 v 13.88072 H 59.127489 l 22.560739,16.252908 h 41.915182 v 13.880717 h -22.65939 l 22.71628,16.252902 v 13.88071 H 89.972721 v 13.45725 H 75.047851 V 119.21499 H 41.360287 V 105.33428 H 106.10018 L 83.376762,89.081378 c 0,0 -42.073343,0 -42.073343,0 z"
       id="path4"
       inkscape:label="Z Barré" /></g></svg>
