<svg viewBox="0 0 79 79" xmlns="http://www.w3.org/2000/svg">
<rect width="100%" height="100%" fill="#FFFFFF" />
<path d="M0 0L0 79L79 79L79 0ZM2 2L77 2L77 77L2 77Z" fill="#ffffff" fill-rule="evenodd" />
<path d="M10 68L24 68L24 54L10 54ZM26 68L30 68L30 58L28 58L28 66L26 66ZM32 68L34 68L34 64L32 64ZM40 68L46 68L46 66L44 66L44 64L46 64L46 66L50 66L50 64L48 64L48 62L44 62L44 60L46 60L46 58L42 58L42 60L40 60L40 56L38 56L38 58L32 58L32 60L34 60L34 64L36 64L36 66L40 66ZM52 68L60 68L60 66L52 66ZM12 66L12 56L22 56L22 66ZM60 66L64 66L64 64L62 64L62 62L60 62L60 60L62 60L62 56L64 56L64 52L62 52L62 54L60 54L60 52L62 52L62 48L58 48L58 46L54 46L54 48L56 48L56 50L54 50L54 48L52 48L52 40L50 40L50 42L48 42L48 46L46 46L46 48L48 48L48 50L50 50L50 56L48 56L48 52L46 52L46 50L44 50L44 54L46 54L46 58L48 58L48 62L50 62L50 60L52 60L52 62L50 62L50 64L54 64L54 60L58 60L58 62L56 62L56 64L60 64ZM66 66L68 66L68 64L66 64ZM14 64L20 64L20 58L14 58ZM38 64L38 62L40 62L40 64ZM64 64L66 64L66 62L64 62ZM36 62L36 60L38 60L38 62ZM62 62L64 62L64 60L62 60ZM66 62L68 62L68 56L66 56L66 58L64 58L64 60L66 60ZM52 58L52 52L58 52L58 58ZM28 56L30 56L30 54L28 54ZM34 56L36 56L36 50L32 50L32 54L34 54ZM40 56L44 56L44 54L42 54L42 52L40 52L40 50L38 50L38 54L40 54ZM54 56L56 56L56 54L54 54ZM26 54L28 54L28 52L30 52L30 50L28 50L28 48L30 48L30 46L32 46L32 44L30 44L30 40L34 40L34 38L32 38L32 36L26 36L26 38L28 38L28 40L24 40L24 42L22 42L22 44L24 44L24 46L22 46L22 44L20 44L20 42L22 42L22 40L24 40L24 38L22 38L22 36L20 36L20 34L18 34L18 36L16 36L16 40L18 40L18 46L14 46L14 44L12 44L12 42L10 42L10 52L12 52L12 48L16 48L16 50L18 50L18 48L24 48L24 50L26 50ZM66 54L68 54L68 52L66 52ZM14 52L16 52L16 50L14 50ZM20 52L24 52L24 50L20 50ZM36 50L38 50L38 48L36 48ZM40 50L42 50L42 46L44 46L44 44L46 44L46 42L44 42L44 40L42 40L42 44L36 44L36 40L34 40L34 42L32 42L32 44L34 44L34 46L40 46ZM32 48L34 48L34 46L32 46ZM62 48L64 48L64 46L62 46ZM66 48L68 48L68 46L66 46ZM58 46L62 46L62 44L64 44L64 40L62 40L62 38L60 38L60 40L58 40L58 42L60 42L60 44L58 44ZM56 44L58 44L58 42L56 42ZM12 42L16 42L16 40L12 40ZM46 42L48 42L48 40L46 40ZM10 40L12 40L12 38L10 38ZM40 40L42 40L42 38L50 38L50 36L46 36L46 34L42 34L42 30L38 30L38 28L36 28L36 32L34 32L34 30L30 30L30 34L34 34L34 36L38 36L38 32L40 32ZM52 40L54 40L54 38L60 38L60 36L62 36L62 32L60 32L60 34L58 34L58 36L56 36L56 34L54 34L54 36L52 36ZM62 38L68 38L68 34L66 34L66 36L62 36ZM10 36L12 36L12 34L10 34ZM22 36L26 36L26 34L28 34L28 32L24 32L24 34L22 34ZM16 34L18 34L18 32L16 32ZM20 34L22 34L22 32L24 32L24 30L18 30L18 32L20 32ZM52 34L54 34L54 28L56 28L56 26L52 26L52 30L50 30L50 32L52 32ZM64 34L66 34L66 32L64 32ZM14 32L16 32L16 28L14 28ZM44 32L46 32L46 30L44 30ZM56 32L60 32L60 28L58 28L58 30L56 30ZM62 32L64 32L64 30L62 30ZM10 30L12 30L12 26L10 26ZM24 30L30 30L30 28L28 28L28 26L30 26L30 28L32 28L32 26L34 26L34 24L32 24L32 20L34 20L34 24L36 24L36 16L34 16L34 14L32 14L32 16L30 16L30 24L28 24L28 22L26 22L26 28L24 28ZM42 30L44 30L44 28L42 28ZM46 30L50 30L50 24L48 24L48 22L46 22L46 26L48 26L48 28L46 28ZM22 28L24 28L24 26L22 26ZM44 28L46 28L46 26L44 26ZM60 28L66 28L66 26L60 26ZM38 26L44 26L44 22L42 22L42 24L40 24L40 22L38 22ZM10 24L24 24L24 10L10 10ZM50 24L52 24L52 20L50 20ZM54 24L68 24L68 10L54 10ZM12 22L12 12L22 12L22 22ZM40 22L42 22L42 20L44 20L44 18L46 18L46 16L42 16L42 18L40 18ZM56 22L56 12L66 12L66 22ZM14 20L20 20L20 14L14 14ZM46 20L50 20L50 18L46 18ZM58 20L64 20L64 14L58 14ZM26 18L28 18L28 12L26 12ZM36 16L38 16L38 14L40 14L40 12L36 12L36 10L34 10L34 14L36 14ZM40 16L42 16L42 14L40 14ZM46 16L48 16L48 14L46 14ZM42 14L46 14L46 10L40 10L40 12L42 12ZM50 14L52 14L52 12L50 12ZM30 12L32 12L32 10L30 10Z" fill="#000000" fill-rule="evenodd" />
</svg>
