<svg viewBox="0 0 131 43" xmlns="http://www.w3.org/2000/svg">
<rect width="100%" height="100%" fill="#FFFFFF" />
<path d="M0 0L0 43L131 43L131 0ZM2 2L129 2L129 41L2 41Z" fill="#ffffff" fill-rule="evenodd" />
<path d="M6 36L12 36L12 32L14 32L14 36L16 36L16 32L22 32L22 30L24 30L24 28L26 28L26 26L24 26L24 24L26 24L26 20L24 20L24 22L22 22L22 28L20 28L20 30L14 30L14 28L16 28L16 24L10 24L10 22L6 22L6 24L8 24L8 26L12 26L12 28L10 28L10 34L8 34L8 30L6 30ZM18 36L20 36L20 34L18 34ZM22 36L24 36L24 32L22 32ZM26 36L28 36L28 34L30 34L30 32L32 32L32 26L28 26L28 28L26 28L26 30L28 30L28 32L26 32ZM30 36L32 36L32 34L30 34ZM34 36L36 36L36 34L34 34ZM38 36L40 36L40 34L38 34ZM42 36L48 36L48 34L50 34L50 32L48 32L48 30L40 30L40 28L38 28L38 24L36 24L36 26L34 26L34 28L36 28L36 30L34 30L34 32L36 32L36 34L38 34L38 32L40 32L40 34L42 34ZM50 36L52 36L52 34L50 34ZM54 36L56 36L56 34L54 34ZM58 36L60 36L60 34L58 34ZM62 36L64 36L64 34L62 34ZM66 36L68 36L68 34L66 34ZM70 36L72 36L72 34L70 34ZM74 36L76 36L76 34L74 34ZM78 36L80 36L80 32L82 32L82 36L88 36L88 32L98 32L98 36L100 36L100 28L98 28L98 26L96 26L96 28L94 28L94 30L92 30L92 24L88 24L88 22L92 22L92 24L94 24L94 22L96 22L96 24L98 24L98 20L90 20L90 16L88 16L88 20L86 20L86 22L84 22L84 24L86 24L86 26L84 26L84 28L86 28L86 30L84 30L84 28L82 28L82 30L78 30L78 32L76 32L76 34L78 34ZM90 36L92 36L92 34L90 34ZM94 36L96 36L96 34L94 34ZM102 36L104 36L104 34L102 34ZM106 36L108 36L108 34L106 34ZM110 36L112 36L112 34L110 34ZM114 36L124 36L124 26L120 26L120 24L118 24L118 22L120 22L120 24L124 24L124 22L122 22L122 20L120 20L120 18L118 18L118 20L116 20L116 26L114 26L114 20L112 20L112 28L110 28L110 24L108 24L108 22L106 22L106 24L104 24L104 28L106 28L106 26L108 26L108 30L110 30L110 32L112 32L112 34L114 34ZM44 34L44 32L46 32L46 34ZM68 34L70 34L70 30L66 30L66 32L68 32ZM72 34L74 34L74 22L72 22L72 20L70 20L70 24L72 24ZM84 34L84 32L86 32L86 34ZM104 34L106 34L106 32L104 32ZM108 34L110 34L110 32L108 32ZM116 34L116 28L122 28L122 34ZM52 32L56 32L56 30L58 30L58 32L60 32L60 30L62 30L62 28L64 28L64 26L66 26L66 28L70 28L70 26L68 26L68 24L62 24L62 26L60 26L60 28L54 28L54 30L52 30ZM62 32L64 32L64 30L62 30ZM102 32L104 32L104 28L102 28ZM118 32L120 32L120 30L118 30ZM48 30L52 30L52 28L48 28ZM6 28L8 28L8 26L6 26ZM42 28L48 28L48 26L52 26L52 28L54 28L54 26L60 26L60 24L58 24L58 22L56 22L56 24L54 24L54 22L52 22L52 24L48 24L48 22L44 22L44 20L42 20L42 22L40 22L40 26L42 26L42 24L46 24L46 26L42 26ZM76 28L80 28L80 26L76 26ZM100 28L102 28L102 24L98 24L98 26L100 26ZM18 26L20 26L20 24L18 24ZM32 26L34 26L34 22L32 22ZM82 26L84 26L84 24L82 24ZM94 26L96 26L96 24L94 24ZM60 24L62 24L62 22L60 22ZM78 24L82 24L82 20L80 20L80 22L78 22ZM102 24L104 24L104 22L102 22ZM36 22L38 22L38 20L36 20ZM62 22L68 22L68 20L66 20L66 18L64 18L64 20L62 20ZM76 22L78 22L78 20L76 20ZM6 20L20 20L20 6L6 6ZM22 20L24 20L24 16L26 16L26 14L24 14L24 12L28 12L28 10L34 10L34 8L32 8L32 6L30 6L30 8L28 8L28 6L26 6L26 10L22 10ZM26 20L30 20L30 18L36 18L36 16L34 16L34 14L32 14L32 16L30 16L30 14L28 14L28 18L26 18ZM38 20L40 20L40 18L38 18ZM44 20L46 20L46 18L44 18ZM54 20L56 20L56 18L54 18ZM58 20L60 20L60 18L58 18ZM72 20L76 20L76 16L74 16L74 18L72 18ZM78 20L80 20L80 16L78 16ZM82 20L86 20L86 18L84 18L84 16L88 16L88 12L90 12L90 8L88 8L88 6L82 6L82 8L80 8L80 6L78 6L78 8L76 8L76 10L78 10L78 12L80 12L80 16L82 16ZM98 20L112 20L112 18L114 18L114 20L116 20L116 16L118 16L118 14L112 14L112 16L110 16L110 18L108 18L108 16L104 16L104 12L102 12L102 16L100 16L100 18L98 18ZM122 20L124 20L124 18L122 18ZM8 18L8 8L18 8L18 18ZM40 18L42 18L42 16L40 16ZM46 18L48 18L48 16L50 16L50 18L52 18L52 14L42 14L42 16L46 16ZM68 18L72 18L72 16L70 16L70 14L66 14L66 16L68 16ZM10 16L16 16L16 10L10 10ZM36 16L40 16L40 14L38 14L38 12L34 12L34 14L36 14ZM54 16L56 16L56 14L58 14L58 16L60 16L60 14L62 14L62 12L64 12L64 10L66 10L66 12L72 12L72 14L74 14L74 12L76 12L76 10L74 10L74 8L72 8L72 10L68 10L68 6L66 6L66 8L64 8L64 6L62 6L62 10L60 10L60 12L54 12ZM62 16L64 16L64 14L62 14ZM90 16L98 16L98 14L100 14L100 12L94 12L94 14L92 14L92 12L90 12ZM122 16L124 16L124 14L122 14ZM40 14L42 14L42 12L40 12ZM84 14L84 12L86 12L86 14ZM38 12L40 12L40 6L38 6L38 8L36 8L36 10L38 10ZM42 12L54 12L54 10L56 10L56 6L54 6L54 8L52 8L52 6L50 6L50 8L48 8L48 6L42 6ZM92 12L94 12L94 10L92 10ZM100 12L102 12L102 10L104 10L104 12L124 12L124 6L118 6L118 10L116 10L116 6L114 6L114 8L112 8L112 10L110 10L110 8L108 8L108 6L106 6L106 8L104 8L104 6L102 6L102 8L100 8L100 6L98 6L98 10L100 10ZM44 10L44 8L46 8L46 10ZM58 10L60 10L60 6L58 6ZM84 10L84 8L86 8L86 10ZM94 10L96 10L96 6L94 6ZM120 10L120 8L122 8L122 10ZM22 8L24 8L24 6L22 6ZM34 8L36 8L36 6L34 6ZM70 8L72 8L72 6L70 6ZM74 8L76 8L76 6L74 6ZM90 8L92 8L92 6L90 6ZM110 8L112 8L112 6L110 6Z" fill="#000000" fill-rule="evenodd" />
</svg>
