<svg viewBox="0 0 95 95" xmlns="http://www.w3.org/2000/svg">
<rect width="100%" height="100%" fill="#FFFFFF" />
<path d="M0 0L0 95L95 95L95 0ZM2 2L93 2L93 93L2 93Z" fill="#ffffff" fill-rule="evenodd" />
<path d="M10 84L24 84L24 70L10 70ZM26 84L32 84L32 82L26 82ZM34 84L40 84L40 80L38 80L38 82L36 82L36 76L38 76L38 74L34 74L34 76L32 76L32 80L34 80ZM42 84L48 84L48 82L44 82L44 80L42 80ZM50 84L52 84L52 82L50 82ZM60 84L62 84L62 82L60 82ZM64 84L66 84L66 82L64 82ZM68 84L72 84L72 80L70 80L70 78L68 78L68 80L66 80L66 82L68 82ZM78 84L84 84L84 70L82 70L82 72L80 72L80 74L78 74L78 76L82 76L82 78L78 78L78 76L76 76L76 74L78 74L78 72L76 72L76 70L82 70L82 68L80 68L80 66L78 66L78 68L76 68L76 66L74 66L74 64L72 64L72 66L66 66L66 72L64 72L64 76L62 76L62 78L66 78L66 76L70 76L70 78L76 78L76 80L74 80L74 82L78 82L78 80L82 80L82 82L78 82ZM12 82L12 72L22 72L22 82ZM52 82L58 82L58 80L54 80L54 76L56 76L56 74L50 74L50 76L52 76L52 78L50 78L50 80L52 80ZM62 82L64 82L64 80L62 80ZM14 80L20 80L20 74L14 74ZM26 80L28 80L28 78L30 78L30 76L28 76L28 72L26 72ZM44 80L46 80L46 78L44 78ZM60 80L62 80L62 78L60 78ZM40 78L44 78L44 76L40 76ZM56 78L58 78L58 76L56 76ZM46 76L48 76L48 74L46 74ZM58 76L62 76L62 74L58 74ZM40 74L42 74L42 72L44 72L44 70L38 70L38 68L34 68L34 72L40 72ZM48 74L50 74L50 72L48 72ZM56 74L58 74L58 72L56 72ZM68 74L68 68L74 68L74 74ZM28 72L30 72L30 70L28 70ZM46 72L48 72L48 70L46 70ZM54 72L56 72L56 70L54 70ZM62 72L64 72L64 70L62 70ZM70 72L72 72L72 70L70 70ZM26 70L28 70L28 68L26 68ZM48 70L52 70L52 68L50 68L50 66L54 66L54 64L56 64L56 60L54 60L54 58L58 58L58 62L64 62L64 60L62 60L62 58L60 58L60 56L54 56L54 54L60 54L60 52L58 52L58 48L62 48L62 46L56 46L56 52L52 52L52 60L50 60L50 62L52 62L52 64L50 64L50 62L48 62L48 64L46 64L46 66L42 66L42 64L46 64L46 62L42 62L42 60L40 60L40 62L38 62L38 60L40 60L40 58L38 58L38 54L36 54L36 56L34 56L34 60L36 60L36 62L32 62L32 64L34 64L34 66L38 66L38 68L48 68ZM56 70L58 70L58 68L56 68ZM10 68L12 68L12 60L10 60ZM14 68L18 68L18 60L16 60L16 64L14 64ZM22 68L26 68L26 66L28 66L28 68L34 68L34 66L32 66L32 64L28 64L28 62L26 62L26 60L24 60L24 62L22 62L22 60L24 60L24 58L22 58L22 56L20 56L20 54L16 54L16 58L18 58L18 60L20 60L20 64L24 64L24 66L22 66ZM54 68L56 68L56 66L54 66ZM58 68L64 68L64 66L66 66L66 62L64 62L64 64L62 64L62 66L58 66ZM82 68L84 68L84 62L82 62ZM76 66L78 66L78 64L80 64L80 62L76 62ZM68 64L72 64L72 62L68 62ZM28 62L32 62L32 54L30 54L30 56L28 56L28 54L26 54L26 58L28 58ZM46 62L48 62L48 60L46 60ZM66 62L68 62L68 60L66 60ZM80 62L82 62L82 60L84 60L84 54L82 54L82 58L78 58L78 60L80 60ZM14 60L16 60L16 58L14 58ZM42 60L44 60L44 58L42 58ZM64 60L66 60L66 58L68 58L68 60L76 60L76 58L72 58L72 56L76 56L76 58L78 58L78 54L74 54L74 52L72 52L72 54L70 54L70 56L66 56L66 54L64 54L64 52L62 52L62 54L60 54L60 56L62 56L62 58L64 58ZM12 58L14 58L14 56L12 56ZM40 58L42 58L42 54L40 54ZM44 58L50 58L50 56L46 56L46 52L48 52L48 50L44 50L44 52L42 52L42 54L44 54ZM22 56L24 56L24 54L22 54ZM10 54L12 54L12 52L14 52L14 54L16 54L16 50L14 50L14 48L18 48L18 46L14 46L14 44L10 44L10 46L12 46L12 48L10 48ZM20 54L22 54L22 52L20 52ZM34 54L36 54L36 52L38 52L38 48L36 48L36 50L34 50ZM48 54L50 54L50 52L48 52ZM66 54L70 54L70 52L66 52ZM80 54L82 54L82 52L84 52L84 50L82 50L82 48L84 48L84 46L74 46L74 44L72 44L72 46L70 46L70 52L72 52L72 48L80 48L80 50L74 50L74 52L80 52ZM22 52L32 52L32 50L34 50L34 48L36 48L36 44L38 44L38 42L36 42L36 40L34 40L34 42L32 42L32 44L34 44L34 46L30 46L30 42L28 42L28 46L26 46L26 48L24 48L24 50L22 50ZM50 52L52 52L52 50L50 50ZM60 52L62 52L62 50L60 50ZM64 52L66 52L66 48L68 48L68 46L64 46ZM18 50L22 50L22 48L24 48L24 46L20 46L20 48L18 48ZM42 50L44 50L44 48L42 48ZM52 50L54 50L54 48L52 48ZM38 48L40 48L40 46L38 46ZM46 48L48 48L48 46L46 46ZM50 48L52 48L52 46L50 46ZM40 46L46 46L46 44L42 44L42 40L44 40L44 38L40 38ZM52 46L54 46L54 44L56 44L56 42L52 42L52 40L50 40L50 44L52 44ZM62 46L64 46L64 44L62 44ZM16 44L18 44L18 42L22 42L22 40L20 40L20 38L14 38L14 36L12 36L12 34L10 34L10 40L16 40ZM22 44L24 44L24 42L22 42ZM46 44L48 44L48 42L46 42ZM58 44L62 44L62 42L60 42L60 40L56 40L56 42L58 42ZM64 44L72 44L72 40L76 40L76 38L70 38L70 40L68 40L68 38L64 38L64 40L62 40L62 42L64 42ZM74 44L80 44L80 42L74 42ZM82 44L84 44L84 38L82 38L82 40L80 40L80 42L82 42ZM24 42L28 42L28 36L26 36L26 38L22 38L22 40L24 40ZM30 42L32 42L32 40L30 40ZM46 40L48 40L48 38L46 38ZM54 40L56 40L56 38L54 38ZM60 40L62 40L62 38L60 38ZM78 40L80 40L80 38L78 38ZM32 38L34 38L34 36L32 36ZM36 38L38 38L38 34L40 34L40 36L48 36L48 38L50 38L50 36L52 36L52 34L54 34L54 32L50 32L50 30L48 30L48 34L42 34L42 32L44 32L44 30L42 30L42 28L44 28L44 26L42 26L42 24L40 24L40 26L38 26L38 24L36 24L36 28L38 28L38 30L34 30L34 32L36 32L36 34L34 34L34 36L36 36ZM56 38L60 38L60 36L56 36ZM62 38L64 38L64 36L62 36ZM68 38L70 38L70 36L68 36ZM76 38L78 38L78 36L80 36L80 38L82 38L82 36L84 36L84 30L80 30L80 32L82 32L82 34L70 34L70 36L76 36ZM20 36L26 36L26 34L20 34ZM30 36L32 36L32 34L34 34L34 32L32 32L32 28L28 28L28 32L30 32ZM54 36L56 36L56 34L54 34ZM60 36L62 36L62 34L60 34ZM64 36L68 36L68 32L66 32L66 30L64 30ZM12 34L14 34L14 30L10 30L10 32L12 32ZM18 34L20 34L20 32L18 32ZM26 34L28 34L28 32L26 32ZM58 34L60 34L60 32L58 32ZM20 32L26 32L26 28L24 28L24 30L20 30ZM54 32L56 32L56 28L54 28L54 26L56 26L56 22L54 22L54 24L52 24L52 28L50 28L50 30L54 30ZM60 32L62 32L62 30L60 30ZM70 32L72 32L72 30L70 30ZM74 32L78 32L78 30L80 30L80 26L70 26L70 28L72 28L72 30L74 30L74 28L76 28L76 30L74 30ZM14 30L16 30L16 28L18 28L18 30L20 30L20 28L24 28L24 26L14 26ZM46 30L48 30L48 28L46 28ZM58 30L60 30L60 28L58 28ZM66 30L68 30L68 28L66 28ZM10 28L12 28L12 26L10 26ZM32 28L34 28L34 26L32 26ZM56 28L58 28L58 26L56 26ZM60 28L66 28L66 26L68 26L68 20L64 20L64 22L66 22L66 24L64 24L64 22L62 22L62 26L60 26ZM26 26L28 26L28 14L26 14ZM30 26L32 26L32 22L30 22ZM44 26L50 26L50 24L48 24L48 22L46 22L46 24L44 24ZM58 26L60 26L60 20L58 20ZM10 24L24 24L24 10L10 10ZM34 24L36 24L36 22L38 22L38 20L34 20ZM38 24L40 24L40 22L38 22ZM42 24L44 24L44 22L42 22ZM50 24L52 24L52 22L54 22L54 20L58 20L58 18L60 18L60 20L62 20L62 18L68 18L68 14L66 14L66 16L64 16L64 14L62 14L62 16L58 16L58 14L60 14L60 12L54 12L54 10L52 10L52 12L50 12L50 14L52 14L52 16L54 16L54 14L56 14L56 18L52 18L52 20L50 20ZM70 24L84 24L84 10L70 10ZM12 22L12 12L22 12L22 22ZM44 22L46 22L46 20L50 20L50 18L46 18L46 16L44 16L44 18L40 18L40 20L44 20ZM72 22L72 12L82 12L82 22ZM14 20L20 20L20 14L14 14ZM74 20L80 20L80 14L74 14ZM34 18L40 18L40 16L36 16L36 14L34 14ZM50 18L52 18L52 16L50 16ZM30 14L34 14L34 12L36 12L36 10L28 10L28 12L30 12ZM40 14L42 14L42 10L40 10ZM44 14L48 14L48 12L44 12ZM64 14L66 14L66 12L64 12ZM62 12L64 12L64 10L62 10Z" fill="#000000" fill-rule="evenodd" />
</svg>
