<svg viewBox="0 0 95 95" xmlns="http://www.w3.org/2000/svg">
<rect width="100%" height="100%" fill="#FFFFFF" />
<path d="M0 0L0 95L95 95L95 0ZM2 2L93 2L93 93L2 93Z" fill="#ffffff" fill-rule="evenodd" />
<path d="M10 84L24 84L24 70L10 70ZM26 84L28 84L28 82L26 82ZM30 84L36 84L36 82L34 82L34 80L36 80L36 78L28 78L28 76L32 76L32 74L28 74L28 72L26 72L26 80L28 80L28 82L30 82ZM38 84L42 84L42 80L44 80L44 78L42 78L42 76L40 76L40 78L38 78ZM44 84L46 84L46 82L44 82ZM50 84L52 84L52 82L50 82ZM54 84L58 84L58 82L54 82ZM60 84L64 84L64 82L60 82ZM68 84L70 84L70 82L72 82L72 84L76 84L76 80L74 80L74 78L72 78L72 80L70 80L70 78L72 78L72 76L74 76L74 78L76 78L76 80L78 80L78 76L82 76L82 78L80 78L80 80L82 80L82 82L78 82L78 84L84 84L84 70L80 70L80 74L76 74L76 70L80 70L80 66L78 66L78 60L80 60L80 66L84 66L84 62L82 62L82 58L76 58L76 56L78 56L78 54L74 54L74 56L72 56L72 54L70 54L70 58L68 58L68 60L66 60L66 62L68 62L68 66L64 66L64 70L66 70L66 74L64 74L64 70L62 70L62 74L58 74L58 76L56 76L56 72L54 72L54 68L50 68L50 64L48 64L48 62L46 62L46 66L48 66L48 68L46 68L46 66L44 66L44 68L42 68L42 70L40 70L40 74L42 74L42 72L44 72L44 74L50 74L50 72L46 72L46 70L52 70L52 74L54 74L54 76L44 76L44 78L46 78L46 82L50 82L50 80L48 80L48 78L50 78L50 80L52 80L52 82L54 82L54 78L60 78L60 76L62 76L62 78L64 78L64 80L66 80L66 76L68 76L68 80L66 80L66 82L68 82ZM12 82L12 72L22 72L22 82ZM58 82L60 82L60 80L58 80ZM14 80L20 80L20 74L14 74ZM34 76L38 76L38 72L34 72L34 70L36 70L36 68L32 68L32 74L34 74ZM42 76L44 76L44 74L42 74ZM68 74L68 68L74 68L74 74ZM58 72L60 72L60 70L58 70ZM70 72L72 72L72 70L70 70ZM26 70L28 70L28 68L32 68L32 66L28 66L28 58L26 58L26 60L24 60L24 62L22 62L22 64L26 64L26 66L22 66L22 68L26 68ZM38 70L40 70L40 66L38 66ZM56 70L58 70L58 68L56 68ZM60 70L62 70L62 66L60 66L60 62L58 62L58 68L60 68ZM10 68L12 68L12 62L16 62L16 60L14 60L14 58L12 58L12 60L10 60ZM14 68L20 68L20 64L18 64L18 66L14 66ZM34 66L36 66L36 64L40 64L40 62L44 62L44 60L42 60L42 58L44 58L44 56L42 56L42 54L40 54L40 58L38 58L38 50L40 50L40 52L42 52L42 48L44 48L44 46L42 46L42 44L44 44L44 42L50 42L50 40L46 40L46 38L50 38L50 40L52 40L52 42L54 42L54 38L52 38L52 34L50 34L50 36L46 36L46 34L44 34L44 36L42 36L42 38L44 38L44 40L42 40L42 38L40 38L40 34L38 34L38 32L36 32L36 40L38 40L38 42L34 42L34 36L32 36L32 40L30 40L30 36L28 36L28 34L22 34L22 36L24 36L24 38L20 38L20 36L18 36L18 34L22 34L22 32L24 32L24 30L22 30L22 28L24 28L24 26L14 26L14 30L16 30L16 32L14 32L14 30L12 30L12 34L10 34L10 36L12 36L12 40L10 40L10 44L12 44L12 42L16 42L16 40L14 40L14 38L16 38L16 40L18 40L18 42L22 42L22 40L26 40L26 38L28 38L28 42L32 42L32 46L34 46L34 48L30 48L30 50L32 50L32 52L34 52L34 54L32 54L32 58L34 58L34 56L36 56L36 60L34 60ZM42 66L44 66L44 64L42 64ZM52 66L56 66L56 62L54 62L54 60L52 60L52 62L50 62L50 64L52 64ZM62 66L64 66L64 64L66 64L66 62L62 62ZM72 66L72 64L76 64L76 66ZM30 64L32 64L32 60L30 60ZM70 64L70 60L72 60L72 64ZM56 62L58 62L58 56L56 56L56 58L54 58L54 60L56 60ZM74 62L74 60L76 60L76 62ZM16 60L24 60L24 58L22 58L22 56L20 56L20 58L16 58ZM46 60L48 60L48 58L46 58ZM60 60L64 60L64 58L68 58L68 56L66 56L66 54L62 54L62 58L60 58ZM72 60L72 58L74 58L74 60ZM14 58L16 58L16 56L20 56L20 52L24 52L24 54L32 54L32 52L30 52L30 50L28 50L28 52L26 52L26 50L16 50L16 48L14 48L14 44L12 44L12 50L14 50L14 52L12 52L12 50L10 50L10 54L14 54ZM28 58L30 58L30 56L28 56ZM50 58L54 58L54 52L50 52L50 50L54 50L54 52L56 52L56 50L60 50L60 48L62 48L62 44L66 44L66 46L64 46L64 48L62 48L62 50L60 50L60 52L66 52L66 48L68 48L68 42L70 42L70 40L68 40L68 38L62 38L62 36L66 36L66 30L64 30L64 32L62 32L62 34L60 34L60 38L58 38L58 40L56 40L56 42L58 42L58 44L60 44L60 46L58 46L58 48L50 48L50 46L48 46L48 50L44 50L44 52L46 52L46 56L48 56L48 54L50 54ZM22 56L24 56L24 54L22 54ZM82 56L84 56L84 54L82 54ZM16 54L16 52L18 52L18 54ZM42 54L44 54L44 52L42 52ZM56 54L58 54L58 52L56 52ZM66 54L68 54L68 52L66 52ZM68 52L72 52L72 48L74 48L74 44L72 44L72 46L70 46L70 48L68 48ZM74 52L76 52L76 48L74 48ZM78 52L84 52L84 46L82 46L82 44L80 44L80 42L78 42L78 48L82 48L82 50L78 50ZM26 50L28 50L28 48L26 48ZM18 48L20 48L20 46L18 46ZM22 48L24 48L24 46L22 46ZM38 48L38 46L40 46L40 48ZM26 46L30 46L30 44L26 44ZM46 46L48 46L48 44L46 44ZM50 46L54 46L54 44L50 44ZM56 46L58 46L58 44L56 44ZM22 44L26 44L26 42L22 42ZM70 44L72 44L72 42L70 42ZM74 44L76 44L76 42L74 42ZM82 44L84 44L84 38L82 38L82 36L84 36L84 30L80 30L80 34L76 34L76 32L72 32L72 34L70 34L70 32L68 32L68 36L72 36L72 38L74 38L74 36L76 36L76 38L80 38L80 40L82 40ZM60 42L60 40L64 40L64 42ZM54 38L58 38L58 36L56 36L56 32L54 32L54 30L50 30L50 32L52 32L52 34L54 34ZM42 34L44 34L44 32L42 32ZM46 34L48 34L48 32L46 32ZM58 34L60 34L60 32L58 32ZM18 32L18 28L20 28L20 32ZM26 32L28 32L28 30L26 30ZM32 32L34 32L34 30L32 30ZM38 32L40 32L40 30L38 30ZM70 32L72 32L72 30L70 30ZM76 32L78 32L78 30L76 30ZM10 30L12 30L12 26L10 26ZM24 30L26 30L26 28L24 28ZM34 30L36 30L36 28L40 28L40 26L44 26L44 22L42 22L42 24L40 24L40 22L38 22L38 26L34 26ZM40 30L46 30L46 28L40 28ZM56 30L58 30L58 28L56 28ZM60 30L62 30L62 28L66 28L66 24L64 24L64 22L66 22L66 20L62 20L62 26L58 26L58 28L60 28ZM72 30L74 30L74 28L80 28L80 26L70 26L70 28L72 28ZM28 28L32 28L32 26L34 26L34 24L32 24L32 22L30 22L30 26L28 26ZM46 28L52 28L52 26L46 26ZM54 28L56 28L56 22L54 22L54 24L52 24L52 26L54 26ZM26 26L28 26L28 22L30 22L30 20L28 20L28 18L34 18L34 20L32 20L32 22L34 22L34 24L36 24L36 22L38 22L38 20L36 20L36 16L32 16L32 14L30 14L30 12L28 12L28 14L26 14ZM10 24L24 24L24 10L10 10ZM46 24L48 24L48 20L50 20L50 24L52 24L52 20L54 20L54 18L50 18L50 16L54 16L54 18L56 18L56 20L58 20L58 18L66 18L66 12L62 12L62 14L64 14L64 16L58 16L58 14L56 14L56 12L54 12L54 14L50 14L50 12L48 12L48 10L46 10L46 12L44 12L44 14L48 14L48 18L46 18ZM58 24L60 24L60 20L58 20ZM66 24L68 24L68 22L66 22ZM70 24L84 24L84 10L70 10ZM12 22L12 12L22 12L22 22ZM72 22L72 12L82 12L82 22ZM14 20L20 20L20 14L14 14ZM38 20L44 20L44 18L46 18L46 16L44 16L44 14L42 14L42 18L40 18L40 12L38 12L38 10L34 10L34 12L36 12L36 14L38 14ZM66 20L68 20L68 18L66 18ZM74 20L80 20L80 14L74 14ZM58 14L60 14L60 12L58 12ZM30 12L32 12L32 10L30 10ZM40 12L44 12L44 10L40 10ZM50 12L52 12L52 10L50 10ZM56 12L58 12L58 10L56 10ZM60 12L62 12L62 10L60 10ZM66 12L68 12L68 10L66 10Z" fill="#000000" fill-rule="evenodd" />
</svg>
