<svg viewBox="0 0 87 87" xmlns="http://www.w3.org/2000/svg">
<rect width="100%" height="100%" fill="#FFFFFF" />
<path d="M0 0L0 87L87 87L87 0ZM2 2L85 2L85 85L2 85Z" fill="#ffffff" fill-rule="evenodd" />
<path d="M10 76L24 76L24 62L10 62ZM26 76L28 76L28 74L26 74ZM32 76L36 76L36 74L38 74L38 76L40 76L40 74L44 74L44 68L42 68L42 72L40 72L40 66L44 66L44 64L42 64L42 58L40 58L40 64L38 64L38 66L36 66L36 68L34 68L34 70L36 70L36 72L34 72L34 74L32 74ZM48 76L50 76L50 74L48 74ZM52 76L60 76L60 74L56 74L56 70L50 70L50 68L48 68L48 70L46 70L46 74L48 74L48 72L50 72L50 74L52 74L52 72L54 72L54 74L52 74ZM62 76L64 76L64 74L62 74ZM72 76L74 76L74 74L72 74ZM12 74L12 64L22 64L22 74ZM60 74L62 74L62 72L60 72ZM66 74L72 74L72 72L70 72L70 70L72 70L72 72L76 72L76 68L74 68L74 60L70 60L70 62L68 62L68 60L70 60L70 58L72 58L72 56L70 56L70 54L72 54L72 56L74 56L74 54L76 54L76 52L72 52L72 50L76 50L76 46L74 46L74 48L72 48L72 44L70 44L70 48L68 48L68 50L70 50L70 52L68 52L68 50L66 50L66 52L62 52L62 50L60 50L60 48L62 48L62 50L64 50L64 48L66 48L66 42L68 42L68 44L70 44L70 42L76 42L76 40L74 40L74 34L72 34L72 40L70 40L70 38L68 38L68 40L64 40L64 38L66 38L66 36L68 36L68 34L72 34L72 32L70 32L70 30L68 30L68 28L64 28L64 30L58 30L58 32L66 32L66 34L62 34L62 36L60 36L60 38L62 38L62 40L58 40L58 42L52 42L52 44L50 44L50 40L48 40L48 42L44 42L44 44L42 44L42 46L46 46L46 44L48 44L48 48L42 48L42 50L40 50L40 48L36 48L36 46L40 46L40 44L38 44L38 42L42 42L42 40L34 40L34 42L36 42L36 44L34 44L34 46L30 46L30 48L34 48L34 50L28 50L28 52L24 52L24 54L26 54L26 56L24 56L24 58L22 58L22 56L24 56L24 54L22 54L22 52L18 52L18 48L16 48L16 50L14 50L14 52L10 52L10 60L16 60L16 58L12 58L12 54L14 54L14 56L16 56L16 54L18 54L18 56L16 56L16 58L20 58L20 60L26 60L26 58L28 58L28 56L30 56L30 58L28 58L28 60L30 60L30 62L32 62L32 54L30 54L30 52L32 52L32 54L34 54L34 60L38 60L38 58L36 58L36 52L38 52L38 54L40 54L40 52L42 52L42 54L40 54L40 56L44 56L44 50L48 50L48 52L46 52L46 54L50 54L50 50L52 50L52 48L50 48L50 46L52 46L52 48L54 48L54 44L56 44L56 50L58 50L58 52L60 52L60 54L62 54L62 56L66 56L66 58L62 58L62 56L60 56L60 58L58 58L58 56L56 56L56 60L58 60L58 64L54 64L54 66L50 66L50 68L56 68L56 66L58 66L58 68L56 68L56 70L58 70L58 72L60 72L60 70L62 70L62 68L66 68ZM14 72L20 72L20 66L14 66ZM28 72L30 72L30 70L32 70L32 68L30 68L30 62L28 62ZM32 72L34 72L34 70L32 70ZM62 72L64 72L64 70L62 70ZM46 68L48 68L48 66L46 66ZM70 68L70 66L72 66L72 68ZM34 66L36 66L36 62L34 62ZM60 66L60 60L66 60L66 66ZM46 64L48 64L48 62L46 62ZM52 64L54 64L54 62L56 62L56 60L54 60L54 58L48 58L48 62L52 62ZM62 64L64 64L64 62L62 62ZM26 62L28 62L28 60L26 60ZM44 60L46 60L46 58L44 58ZM74 60L76 60L76 58L74 58ZM38 58L40 58L40 56L38 56ZM50 56L52 56L52 54L50 54ZM58 56L60 56L60 54L58 54ZM56 54L58 54L58 52L56 52ZM22 52L24 52L24 50L22 50ZM54 52L56 52L56 50L54 50ZM10 50L12 50L12 48L10 48ZM20 50L22 50L22 48L24 48L24 46L22 46L22 44L20 44L20 46L18 46L18 48L20 48ZM24 50L26 50L26 48L24 48ZM12 48L14 48L14 46L16 46L16 42L12 42L12 44L10 44L10 46L12 46ZM26 48L28 48L28 46L26 46ZM40 48L42 48L42 46L40 46ZM28 46L30 46L30 44L28 44ZM58 46L58 44L60 44L60 46ZM18 44L20 44L20 40L18 40ZM22 44L28 44L28 42L26 42L26 40L24 40L24 42L22 42ZM30 44L32 44L32 42L30 42ZM60 44L60 42L64 42L64 44ZM10 40L12 40L12 38L10 38ZM14 40L16 40L16 38L14 38ZM20 40L24 40L24 38L20 38ZM26 40L28 40L28 34L22 34L22 36L26 36ZM44 40L48 40L48 38L44 38ZM12 38L14 38L14 36L12 36ZM18 38L20 38L20 36L18 36ZM34 38L40 38L40 34L42 34L42 38L44 38L44 36L48 36L48 38L52 38L52 36L54 36L54 34L52 34L52 32L54 32L54 30L50 30L50 32L48 32L48 34L44 34L44 32L42 32L42 28L46 28L46 26L40 26L40 22L38 22L38 30L40 30L40 32L38 32L38 34L36 34L36 36L34 36ZM10 36L12 36L12 32L10 32ZM16 36L18 36L18 32L16 32L16 30L14 30L14 34L16 34ZM30 36L32 36L32 34L30 34ZM56 36L58 36L58 34L56 34ZM20 34L22 34L22 32L20 32ZM32 34L34 34L34 32L36 32L36 30L34 30L34 26L30 26L30 24L28 24L28 22L26 22L26 28L24 28L24 30L22 30L22 32L26 32L26 30L28 30L28 32L32 32ZM54 34L56 34L56 32L54 32ZM46 32L48 32L48 30L46 30ZM72 32L74 32L74 30L72 30ZM12 30L14 30L14 28L12 28ZM16 30L22 30L22 28L16 28ZM30 30L30 28L32 28L32 30ZM56 30L58 30L58 26L52 26L52 28L56 28ZM70 30L72 30L72 28L74 28L74 26L68 26L68 28L70 28ZM74 30L76 30L76 28L74 28ZM10 28L12 28L12 26L10 26ZM22 28L24 28L24 26L22 26ZM48 28L50 28L50 26L48 26ZM60 28L64 28L64 26L60 26ZM46 26L48 26L48 18L44 18L44 20L42 20L42 24L44 24L44 22L46 22ZM58 26L60 26L60 18L52 18L52 20L54 20L54 24L56 24L56 20L58 20ZM10 24L24 24L24 10L10 10ZM30 24L32 24L32 22L34 22L34 20L36 20L36 18L34 18L34 14L32 14L32 20L30 20ZM34 24L36 24L36 22L34 22ZM50 24L52 24L52 22L50 22ZM62 24L76 24L76 10L62 10ZM12 22L12 12L22 12L22 22ZM36 22L38 22L38 20L36 20ZM64 22L64 12L74 12L74 22ZM14 20L20 20L20 14L14 14ZM40 20L42 20L42 18L40 18ZM66 20L72 20L72 14L66 14ZM26 18L28 18L28 16L30 16L30 12L26 12ZM48 18L52 18L52 16L48 16ZM36 16L38 16L38 14L40 14L40 12L42 12L42 10L38 10L38 12L36 12ZM40 16L48 16L48 14L46 14L46 12L44 12L44 14L40 14ZM52 16L54 16L54 14L56 14L56 12L54 12L54 10L52 10ZM56 16L60 16L60 14L56 14ZM30 12L34 12L34 10L30 10ZM58 12L60 12L60 10L58 10Z" fill="#000000" fill-rule="evenodd" />
</svg>
