<svg viewBox="0 0 79 79" xmlns="http://www.w3.org/2000/svg">
<rect width="100%" height="100%" fill="#FFFFFF" />
<path d="M0 0L0 79L79 79L79 0ZM2 2L77 2L77 77L2 77Z" fill="#ffffff" fill-rule="evenodd" />
<path d="M10 68L24 68L24 54L10 54ZM26 68L34 68L34 66L32 66L32 64L38 64L38 60L36 60L36 62L34 62L34 60L30 60L30 64L28 64L28 66L26 66ZM36 68L42 68L42 66L44 66L44 64L52 64L52 66L54 66L54 60L58 60L58 62L64 62L64 60L60 60L60 56L66 56L66 52L68 52L68 50L64 50L64 54L62 54L62 50L64 50L64 48L66 48L66 44L64 44L64 46L62 46L62 48L60 48L60 50L58 50L58 48L60 48L60 46L58 46L58 44L60 44L60 46L62 46L62 40L60 40L60 38L58 38L58 40L56 40L56 36L54 36L54 34L56 34L56 32L54 32L54 28L52 28L52 20L50 20L50 16L48 16L48 18L46 18L46 16L44 16L44 18L42 18L42 20L40 20L40 22L42 22L42 24L40 24L40 28L38 28L38 26L36 26L36 22L34 22L34 38L36 38L36 32L38 32L38 30L42 30L42 28L50 28L50 30L52 30L52 32L48 32L48 30L44 30L44 32L46 32L46 34L48 34L48 36L50 36L50 34L52 34L52 38L54 38L54 42L56 42L56 44L54 44L54 42L52 42L52 44L50 44L50 48L52 48L52 50L50 50L50 48L48 48L48 50L46 50L46 52L50 52L50 60L52 60L52 62L46 62L46 60L44 60L44 62L42 62L42 64L40 64L40 66L36 66ZM44 68L52 68L52 66L44 66ZM60 68L62 68L62 66L60 66ZM64 68L66 68L66 64L64 64ZM12 66L12 56L22 56L22 66ZM56 66L60 66L60 64L58 64L58 62L56 62ZM14 64L20 64L20 58L14 58ZM26 64L28 64L28 60L26 60ZM66 64L68 64L68 60L66 60ZM40 62L42 62L42 60L44 60L44 56L40 56L40 54L38 54L38 56L36 56L36 52L40 52L40 50L46 50L46 48L42 48L42 44L40 44L40 40L38 40L38 46L36 46L36 48L34 48L34 50L32 50L32 52L34 52L34 56L32 56L32 58L40 58ZM28 60L30 60L30 56L28 56L28 52L26 52L26 58L28 58ZM64 60L66 60L66 58L64 58ZM52 58L52 52L58 52L58 58ZM30 56L32 56L32 52L30 52ZM54 56L56 56L56 54L54 54ZM40 54L44 54L44 52L40 52ZM12 52L16 52L16 50L12 50ZM18 52L26 52L26 50L32 50L32 48L34 48L34 46L30 46L30 48L28 48L28 46L30 46L30 44L32 44L32 42L34 42L34 40L32 40L32 34L30 34L30 38L28 38L28 42L26 42L26 44L24 44L24 46L26 46L26 48L24 48L24 50L20 50L20 48L24 48L24 46L18 46ZM10 48L12 48L12 46L10 46ZM14 48L16 48L16 46L14 46ZM54 48L54 46L56 46L56 48ZM12 46L14 46L14 42L12 42ZM34 46L36 46L36 42L34 42ZM46 46L48 46L48 42L46 42ZM18 44L24 44L24 42L20 42L20 40L18 40ZM42 44L44 44L44 40L42 40ZM66 44L68 44L68 42L66 42ZM48 42L52 42L52 40L50 40L50 38L48 38L48 36L46 36L46 34L44 34L44 36L42 36L42 38L44 38L44 40L48 40ZM64 42L66 42L66 40L64 40ZM12 40L14 40L14 38L12 38ZM22 40L26 40L26 36L24 36L24 38L22 38ZM36 40L38 40L38 38L36 38ZM62 40L64 40L64 38L66 38L66 40L68 40L68 36L62 36ZM10 38L12 38L12 34L14 34L14 32L12 32L12 26L10 26ZM14 38L18 38L18 36L16 36L16 34L14 34ZM20 38L22 38L22 36L24 36L24 34L18 34L18 36L20 36ZM38 38L40 38L40 34L38 34ZM26 36L28 36L28 34L26 34ZM56 36L58 36L58 34L56 34ZM16 34L18 34L18 32L16 32ZM24 34L26 34L26 32L24 32ZM64 34L68 34L68 32L66 32L66 30L64 30ZM22 32L24 32L24 30L22 30ZM30 32L32 32L32 28L28 28L28 30L30 30ZM56 32L58 32L58 30L60 30L60 28L56 28ZM60 32L62 32L62 30L60 30ZM14 30L18 30L18 26L14 26ZM20 30L22 30L22 28L26 28L26 26L20 26ZM54 28L56 28L56 26L54 26ZM60 28L62 28L62 26L60 26ZM64 28L68 28L68 26L64 26ZM26 26L28 26L28 22L26 22ZM30 26L32 26L32 20L30 20L30 16L34 16L34 18L32 18L32 20L36 20L36 14L34 14L34 12L32 12L32 14L30 14L30 12L28 12L28 10L26 10L26 14L28 14L28 16L26 16L26 18L28 18L28 22L30 22ZM48 26L48 22L50 22L50 26ZM10 24L24 24L24 10L10 10ZM38 24L40 24L40 22L38 22ZM44 24L44 22L46 22L46 24ZM54 24L68 24L68 10L54 10ZM12 22L12 12L22 12L22 22ZM36 22L38 22L38 20L36 20ZM56 22L56 12L66 12L66 22ZM14 20L20 20L20 14L14 14ZM38 20L40 20L40 18L42 18L42 16L38 16ZM58 20L64 20L64 14L58 14ZM42 16L44 16L44 14L46 14L46 16L48 16L48 12L42 12ZM50 16L52 16L52 14L50 14ZM36 14L38 14L38 12L42 12L42 10L34 10L34 12L36 12ZM30 12L32 12L32 10L30 10ZM48 12L50 12L50 10L48 10Z" fill="#000000" fill-rule="evenodd" />
</svg>
