<svg viewBox="0 0 131 43" xmlns="http://www.w3.org/2000/svg">
<rect width="100%" height="100%" fill="#FFFFFF" />
<path d="M0 0L0 43L131 43L131 0ZM2 2L129 2L129 41L2 41Z" fill="#ffffff" fill-rule="evenodd" />
<path d="M6 36L12 36L12 34L8 34L8 32L10 32L10 30L6 30ZM14 36L16 36L16 32L14 32L14 30L16 30L16 28L18 28L18 30L22 30L22 24L20 24L20 26L18 26L18 24L16 24L16 26L14 26L14 24L12 24L12 22L6 22L6 24L8 24L8 26L10 26L10 30L12 30L12 34L14 34ZM18 36L20 36L20 32L18 32ZM22 36L24 36L24 34L22 34ZM26 36L28 36L28 34L30 34L30 36L32 36L32 28L30 28L30 26L32 26L32 24L36 24L36 22L40 22L40 20L42 20L42 16L46 16L46 14L42 14L42 12L40 12L40 14L34 14L34 16L36 16L36 18L38 18L38 16L40 16L40 18L38 18L38 20L34 20L34 18L32 18L32 20L30 20L30 14L28 14L28 20L22 20L22 24L24 24L24 22L30 22L30 24L28 24L28 28L26 28ZM34 36L36 36L36 34L34 34ZM38 36L40 36L40 34L42 34L42 36L48 36L48 34L50 34L50 36L52 36L52 34L54 34L54 36L56 36L56 34L58 34L58 36L60 36L60 32L58 32L58 30L56 30L56 32L54 32L54 28L52 28L52 26L50 26L50 24L48 24L48 20L46 20L46 22L44 22L44 24L46 24L46 26L48 26L48 28L50 28L50 30L48 30L48 28L46 28L46 30L42 30L42 28L36 28L36 30L34 30L34 32L38 32L38 30L40 30L40 32L38 32ZM62 36L64 36L64 34L66 34L66 36L68 36L68 32L62 32ZM70 36L72 36L72 34L74 34L74 36L76 36L76 32L70 32ZM78 36L80 36L80 34L78 34ZM82 36L88 36L88 32L90 32L90 30L92 30L92 28L90 28L90 24L88 24L88 28L86 28L86 30L84 30L84 28L80 28L80 30L78 30L78 32L82 32ZM90 36L92 36L92 32L90 32ZM94 36L96 36L96 32L94 32ZM98 36L100 36L100 34L98 34ZM102 36L104 36L104 34L102 34ZM106 36L108 36L108 34L110 34L110 32L106 32L106 30L104 30L104 28L102 28L102 32L104 32L104 34L106 34ZM110 36L112 36L112 34L110 34ZM114 36L124 36L124 26L120 26L120 24L116 24L116 26L114 26L114 24L112 24L112 28L110 28L110 20L108 20L108 22L106 22L106 24L104 24L104 28L106 28L106 26L108 26L108 28L106 28L106 30L110 30L110 32L112 32L112 34L114 34ZM44 34L44 32L46 32L46 34ZM84 34L84 32L86 32L86 34ZM100 34L102 34L102 32L100 32ZM116 34L116 28L122 28L122 34ZM22 32L24 32L24 30L22 30ZM28 32L28 30L30 30L30 32ZM60 32L62 32L62 30L60 30ZM92 32L94 32L94 30L92 30ZM96 32L100 32L100 30L98 30L98 28L96 28ZM118 32L120 32L120 30L118 30ZM62 30L68 30L68 28L66 28L66 26L64 26L64 28L62 28ZM6 28L8 28L8 26L6 26ZM44 28L46 28L46 26L44 26ZM54 28L56 28L56 26L54 26ZM58 28L60 28L60 26L58 26ZM70 28L76 28L76 26L72 26L72 22L66 22L66 24L68 24L68 26L70 26ZM78 28L80 28L80 22L78 22L78 20L80 20L80 22L82 22L82 20L86 20L86 18L84 18L84 16L88 16L88 14L90 14L90 12L92 12L92 10L90 10L90 8L88 8L88 6L82 6L82 8L80 8L80 6L78 6L78 8L76 8L76 10L78 10L78 12L82 12L82 16L80 16L80 14L78 14L78 12L76 12L76 14L72 14L72 12L70 12L70 16L72 16L72 22L74 22L74 20L76 20L76 26L78 26ZM84 28L86 28L86 26L84 26ZM92 28L96 28L96 26L92 26ZM98 28L102 28L102 24L98 24ZM36 26L38 26L38 24L36 24ZM82 26L84 26L84 24L82 24ZM14 24L16 24L16 22L14 22ZM18 24L20 24L20 22L18 22ZM50 24L56 24L56 22L58 22L58 24L60 24L60 22L62 22L62 20L64 20L64 18L66 18L66 20L70 20L70 18L68 18L68 16L62 16L62 18L60 18L60 20L54 20L54 22L50 22ZM62 24L64 24L64 22L62 22ZM84 24L86 24L86 22L84 22ZM90 24L98 24L98 20L102 20L102 18L96 18L96 16L94 16L94 20L96 20L96 22L94 22L94 20L92 20L92 22L90 22ZM102 24L104 24L104 20L102 20ZM120 24L124 24L124 22L120 22ZM6 20L20 20L20 6L6 6ZM44 20L46 20L46 18L44 18ZM48 20L54 20L54 18L60 18L60 16L58 16L58 14L56 14L56 16L50 16L50 18L48 18ZM88 20L92 20L92 16L88 16ZM104 20L108 20L108 16L106 16L106 14L104 14L104 12L102 12L102 16L104 16ZM110 20L118 20L118 18L120 18L120 12L116 12L116 16L114 16L114 12L112 12L112 18L110 18ZM120 20L124 20L124 18L120 18ZM8 18L8 8L18 8L18 18ZM22 18L24 18L24 16L26 16L26 14L24 14L24 12L28 12L28 10L32 10L32 6L30 6L30 8L28 8L28 6L26 6L26 10L22 10ZM74 18L74 16L78 16L78 18ZM10 16L16 16L16 10L10 10ZM48 16L50 16L50 12L56 12L56 10L58 10L58 8L56 8L56 6L54 6L54 10L52 10L52 6L50 6L50 8L48 8L48 6L42 6L42 12L48 12ZM60 16L62 16L62 14L60 14ZM92 16L94 16L94 14L92 14ZM96 16L100 16L100 12L94 12L94 14L96 14ZM122 16L124 16L124 14L122 14ZM32 14L34 14L34 12L38 12L38 10L36 10L36 6L34 6L34 10L32 10ZM62 14L68 14L68 12L66 12L66 10L64 10L64 12L62 12ZM84 14L84 12L86 12L86 14ZM108 14L110 14L110 12L108 12ZM58 12L60 12L60 10L58 10ZM72 12L76 12L76 10L72 10ZM100 12L102 12L102 10L100 10ZM104 12L108 12L108 6L106 6L106 8L104 8L104 6L102 6L102 10L104 10ZM114 12L116 12L116 6L114 6ZM120 12L124 12L124 6L118 6L118 10L120 10L120 8L122 8L122 10L120 10ZM44 10L44 8L46 8L46 10ZM68 10L72 10L72 6L70 6L70 8L68 8ZM84 10L84 8L86 8L86 10ZM94 10L96 10L96 6L94 6ZM98 10L100 10L100 6L98 6ZM22 8L24 8L24 6L22 6ZM38 8L40 8L40 6L38 6ZM58 8L60 8L60 6L58 6ZM62 8L64 8L64 6L62 6ZM66 8L68 8L68 6L66 6ZM74 8L76 8L76 6L74 6ZM90 8L92 8L92 6L90 6ZM110 8L112 8L112 6L110 6Z" fill="#000000" fill-rule="evenodd" />
</svg>
