<svg viewBox="0 0 95 95" xmlns="http://www.w3.org/2000/svg">
<rect width="100%" height="100%" fill="#FFFFFF" />
<path d="M0 0L0 95L95 95L95 0ZM2 2L93 2L93 93L2 93Z" fill="#ffffff" fill-rule="evenodd" />
<path d="M10 84L24 84L24 70L10 70ZM26 84L38 84L38 80L34 80L34 82L32 82L32 80L30 80L30 82L26 82ZM42 84L44 84L44 82L42 82ZM48 84L52 84L52 82L48 82ZM56 84L60 84L60 80L58 80L58 76L54 76L54 78L52 78L52 80L56 80ZM66 84L68 84L68 82L66 82ZM70 84L74 84L74 82L70 82ZM82 84L84 84L84 78L82 78L82 76L78 76L78 78L80 78L80 80L78 80L78 82L82 82ZM12 82L12 72L22 72L22 82ZM40 82L42 82L42 80L40 80ZM44 82L48 82L48 78L46 78L46 80L44 80ZM68 82L70 82L70 80L68 80ZM14 80L20 80L20 74L14 74ZM32 80L34 80L34 74L36 74L36 70L40 70L40 72L42 72L42 70L44 70L44 72L52 72L52 70L50 70L50 64L46 64L46 68L48 68L48 70L46 70L46 68L44 68L44 64L42 64L42 66L38 66L38 68L32 68L32 66L30 66L30 68L26 68L26 78L28 78L28 76L32 76ZM38 80L40 80L40 78L38 78ZM60 80L62 80L62 78L60 78ZM64 80L66 80L66 78L64 78ZM72 80L76 80L76 78L72 78ZM36 78L38 78L38 76L44 76L44 72L42 72L42 74L40 74L40 72L38 72L38 74L36 74ZM50 78L52 78L52 76L54 76L54 72L52 72L52 74L46 74L46 76L50 76ZM62 78L64 78L64 76L70 76L70 78L72 78L72 76L76 76L76 70L78 70L78 72L82 72L82 74L84 74L84 70L80 70L80 64L82 64L82 66L84 66L84 62L76 62L76 64L78 64L78 68L76 68L76 64L72 64L72 62L70 62L70 64L68 64L68 62L70 62L70 60L72 60L72 58L70 58L70 56L76 56L76 54L80 54L80 56L78 56L78 58L82 58L82 56L84 56L84 54L82 54L82 52L84 52L84 46L82 46L82 50L80 50L80 52L76 52L76 48L72 48L72 46L70 46L70 48L68 48L68 50L70 50L70 52L72 52L72 50L74 50L74 54L70 54L70 52L66 52L66 34L64 34L64 36L58 36L58 34L60 34L60 32L58 32L58 30L48 30L48 28L46 28L46 30L44 30L44 28L42 28L42 30L40 30L40 28L38 28L38 26L36 26L36 30L38 30L38 32L34 32L34 34L40 34L40 32L42 32L42 34L46 34L46 32L48 32L48 34L52 34L52 32L56 32L56 38L58 38L58 40L60 40L60 38L64 38L64 42L62 42L62 46L58 46L58 48L60 48L60 50L62 50L62 48L64 48L64 54L62 54L62 56L68 56L68 58L58 58L58 52L60 52L60 50L58 50L58 48L54 48L54 52L56 52L56 58L48 58L48 60L46 60L46 62L50 62L50 60L54 60L54 62L52 62L52 64L54 64L54 68L52 68L52 70L56 70L56 68L62 68L62 74L60 74L60 76L62 76ZM28 74L28 70L30 70L30 72L32 72L32 74ZM56 74L60 74L60 72L58 72L58 70L56 70ZM64 74L64 70L66 70L66 74ZM68 74L68 68L74 68L74 74ZM70 72L72 72L72 70L70 70ZM10 68L12 68L12 64L14 64L14 62L12 62L12 60L14 60L14 58L12 58L12 56L14 56L14 54L10 54ZM14 68L18 68L18 64L14 64ZM20 68L26 68L26 66L22 66L22 64L20 64ZM26 66L30 66L30 62L26 62L26 60L24 60L24 62L22 62L22 64L26 64ZM56 66L56 60L58 60L58 66ZM60 66L60 62L62 62L62 60L64 60L64 64L62 64L62 66ZM34 64L36 64L36 62L38 62L38 60L34 60L34 58L32 58L32 62L34 62ZM40 64L42 64L42 62L40 62ZM44 64L46 64L46 62L44 62ZM14 62L16 62L16 60L14 60ZM18 62L22 62L22 60L18 60ZM72 62L76 62L76 60L72 60ZM22 60L24 60L24 58L22 58ZM40 60L42 60L42 58L40 58ZM44 60L46 60L46 58L44 58ZM82 60L84 60L84 58L82 58ZM18 58L20 58L20 56L24 56L24 54L22 54L22 52L26 52L26 50L22 50L22 48L24 48L24 46L22 46L22 44L18 44L18 42L22 42L22 40L14 40L14 42L16 42L16 48L18 48L18 46L20 46L20 48L18 48L18 50L20 50L20 54L16 54L16 56L18 56ZM30 58L32 58L32 56L30 56ZM38 58L40 58L40 56L38 56ZM46 58L48 58L48 56L46 56ZM26 56L30 56L30 52L26 52ZM34 56L38 56L38 54L40 54L40 56L42 56L42 52L38 52L38 50L36 50L36 54L34 54ZM50 56L54 56L54 54L50 54ZM44 54L46 54L46 52L48 52L48 54L50 54L50 50L52 50L52 48L50 48L50 46L46 46L46 48L48 48L48 50L44 50L44 46L42 46L42 48L38 48L38 50L42 50L42 52L44 52ZM10 52L16 52L16 48L14 48L14 50L10 50ZM30 52L34 52L34 50L32 50L32 48L30 48L30 44L26 44L26 50L30 50ZM34 50L36 50L36 48L34 48ZM52 48L54 48L54 46L52 46ZM78 48L80 48L80 46L82 46L82 44L84 44L84 38L82 38L82 40L80 40L80 38L78 38L78 40L76 40L76 36L72 36L72 38L74 38L74 42L76 42L76 44L78 44ZM34 46L36 46L36 44L34 44ZM44 46L46 46L46 44L48 44L48 42L44 42ZM54 46L58 46L58 44L60 44L60 42L58 42L58 40L52 40L52 44L54 44ZM68 46L70 46L70 44L68 44ZM72 46L74 46L74 44L72 44ZM12 44L14 44L14 42L12 42ZM22 44L26 44L26 38L22 38L22 40L24 40L24 42L22 42ZM32 44L34 44L34 42L32 42ZM38 44L42 44L42 42L44 42L44 38L42 38L42 34L40 34L40 36L38 36L38 38L40 38L40 42L38 42ZM70 44L72 44L72 40L68 40L68 42L70 42ZM10 42L12 42L12 40L10 40ZM34 42L38 42L38 40L34 40ZM48 42L50 42L50 38L48 38L48 36L46 36L46 40L48 40ZM28 40L34 40L34 38L28 38ZM12 38L18 38L18 36L14 36L14 34L10 34L10 36L12 36ZM20 38L22 38L22 36L20 36ZM26 38L28 38L28 36L32 36L32 32L34 32L34 28L32 28L32 26L36 26L36 22L34 22L34 24L32 24L32 22L30 22L30 26L16 26L16 28L12 28L12 26L10 26L10 30L14 30L14 34L16 34L16 32L18 32L18 30L20 30L20 34L22 34L22 32L24 32L24 30L22 30L22 28L30 28L30 34L28 34L28 32L24 32L24 34L22 34L22 36L26 36ZM34 38L36 38L36 36L34 36ZM50 38L54 38L54 36L50 36ZM80 38L82 38L82 36L80 36ZM70 36L72 36L72 32L76 32L76 26L74 26L74 30L70 30ZM76 36L78 36L78 34L82 34L82 32L76 32ZM82 36L84 36L84 34L82 34ZM62 34L64 34L64 32L62 32ZM64 32L66 32L66 30L70 30L70 26L68 26L68 28L66 28L66 24L64 24L64 22L62 22L62 24L60 24L60 26L62 26L62 30L64 30ZM82 32L84 32L84 30L82 30ZM58 30L60 30L60 28L58 28ZM78 30L80 30L80 28L84 28L84 26L78 26ZM52 28L56 28L56 26L58 26L58 24L56 24L56 22L58 22L58 24L60 24L60 22L62 22L62 20L60 20L60 18L58 18L58 20L54 20L54 26L52 26ZM40 26L42 26L42 24L40 24ZM44 26L52 26L52 22L50 22L50 24L48 24L48 22L46 22L46 24L44 24ZM10 24L24 24L24 10L10 10ZM26 24L28 24L28 22L26 22ZM38 24L40 24L40 22L42 22L42 24L44 24L44 18L48 18L48 16L42 16L42 12L40 12L40 18L38 18ZM66 24L68 24L68 10L66 10ZM70 24L84 24L84 10L70 10ZM12 22L12 12L22 12L22 22ZM28 22L30 22L30 20L32 20L32 18L26 18L26 20L28 20ZM32 22L34 22L34 20L32 20ZM72 22L72 12L82 12L82 22ZM14 20L20 20L20 14L14 14ZM34 20L36 20L36 18L38 18L38 14L36 14L36 16L34 16ZM48 20L50 20L50 18L48 18ZM52 20L54 20L54 16L56 16L56 18L58 18L58 14L60 14L60 12L58 12L58 10L54 10L54 12L56 12L56 14L52 14L52 16L50 16L50 18L52 18ZM74 20L80 20L80 14L74 14ZM60 18L64 18L64 16L62 16L62 14L60 14ZM26 16L30 16L30 14L32 14L32 12L30 12L30 10L26 10ZM48 16L50 16L50 12L52 12L52 10L48 10L48 12L46 12L46 14L48 14ZM34 14L36 14L36 10L34 10ZM38 12L40 12L40 10L38 10ZM42 12L46 12L46 10L42 10ZM60 12L62 12L62 10L60 10Z" fill="#000000" fill-rule="evenodd" />
</svg>
