<svg viewBox="0 0 95 95" xmlns="http://www.w3.org/2000/svg">
<rect width="100%" height="100%" fill="#FFFFFF" />
<path d="M0 0L0 95L95 95L95 0ZM2 2L93 2L93 93L2 93Z" fill="#ffffff" fill-rule="evenodd" />
<path d="M10 84L24 84L24 70L10 70ZM26 84L28 84L28 82L26 82ZM32 84L34 84L34 82L32 82ZM36 84L46 84L46 82L42 82L42 80L44 80L44 78L42 78L42 76L44 76L44 74L50 74L50 72L46 72L46 70L52 70L52 74L54 74L54 68L52 68L52 66L54 66L54 60L52 60L52 58L58 58L58 60L56 60L56 62L64 62L64 60L66 60L66 58L60 58L60 56L56 56L56 54L54 54L54 52L52 52L52 50L48 50L48 52L46 52L46 56L48 56L48 54L50 54L50 60L48 60L48 62L50 62L50 68L46 68L46 66L44 66L44 68L42 68L42 70L44 70L44 72L42 72L42 70L40 70L40 72L38 72L38 74L40 74L40 78L38 78L38 74L34 74L34 76L32 76L32 80L34 80L34 82L36 82ZM48 84L52 84L52 82L54 82L54 80L50 80L50 82L48 82ZM54 84L62 84L62 82L54 82ZM68 84L74 84L74 82L72 82L72 80L66 80L66 76L70 76L70 78L72 78L72 76L74 76L74 78L76 78L76 80L82 80L82 82L76 82L76 84L84 84L84 70L82 70L82 72L80 72L80 74L78 74L78 76L82 76L82 78L78 78L78 76L76 76L76 72L78 72L78 68L76 68L76 64L74 64L74 66L66 66L66 64L70 64L70 62L68 62L68 60L66 60L66 62L64 62L64 64L62 64L62 66L60 66L60 70L58 70L58 76L60 76L60 78L58 78L58 80L64 80L64 82L68 82ZM12 82L12 72L22 72L22 82ZM28 82L32 82L32 80L28 80ZM38 82L38 80L40 80L40 82ZM74 82L76 82L76 80L74 80ZM14 80L20 80L20 74L14 74ZM26 80L28 80L28 74L30 74L30 72L26 72ZM46 80L48 80L48 78L54 78L54 76L52 76L52 74L50 74L50 76L46 76ZM72 80L74 80L74 78L72 78ZM56 78L58 78L58 76L56 76ZM62 78L62 76L64 76L64 78ZM30 76L32 76L32 74L30 74ZM54 76L56 76L56 74L54 74ZM60 74L60 72L62 72L62 68L66 68L66 74ZM68 74L68 68L74 68L74 74ZM32 72L34 72L34 70L36 70L36 60L38 60L38 66L40 66L40 62L44 62L44 60L40 60L40 58L42 58L42 56L44 56L44 52L46 52L46 50L42 50L42 48L44 48L44 46L42 46L42 44L44 44L44 42L50 42L50 40L46 40L46 38L50 38L50 40L52 40L52 38L54 38L54 36L46 36L46 34L44 34L44 36L42 36L42 38L44 38L44 40L42 40L42 42L32 42L32 44L34 44L34 46L36 46L36 50L40 50L40 52L42 52L42 54L40 54L40 56L38 56L38 58L36 58L36 56L38 56L38 54L34 54L34 52L32 52L32 48L30 48L30 52L28 52L28 56L30 56L30 54L32 54L32 56L34 56L34 64L32 64L32 66L30 66L30 68L26 68L26 70L32 70ZM70 72L72 72L72 70L70 70ZM38 70L40 70L40 68L38 68ZM56 70L58 70L58 68L56 68ZM10 68L12 68L12 58L10 58ZM16 68L18 68L18 64L16 64ZM22 68L24 68L24 66L22 66ZM54 68L56 68L56 66L54 66ZM78 68L82 68L82 66L84 66L84 62L78 62L78 64L80 64L80 66L78 66ZM24 66L30 66L30 64L26 64L26 62L22 62L22 64L24 64ZM42 66L44 66L44 64L42 64ZM14 64L16 64L16 62L20 62L20 60L16 60L16 58L14 58ZM44 64L46 64L46 62L44 62ZM72 64L74 64L74 60L72 60ZM28 62L32 62L32 56L30 56L30 60L28 60ZM76 62L78 62L78 60L80 60L80 58L78 58L78 56L74 56L74 60L76 60ZM22 60L24 60L24 58L22 58ZM46 60L48 60L48 58L46 58ZM68 60L72 60L72 56L74 56L74 52L72 52L72 54L68 54L68 52L66 52L66 54L64 54L64 56L66 56L66 58L68 58L68 56L70 56L70 58L68 58ZM82 60L84 60L84 54L80 54L80 56L82 56ZM24 58L28 58L28 56L24 56ZM10 56L14 56L14 54L16 54L16 52L18 52L18 50L14 50L14 44L12 44L12 50L10 50ZM16 56L18 56L18 54L16 54ZM22 56L24 56L24 54L22 54ZM60 56L62 56L62 52L66 52L66 50L64 50L64 48L68 48L68 46L70 46L70 44L72 44L72 42L74 42L74 44L76 44L76 46L78 46L78 44L84 44L84 38L78 38L78 40L82 40L82 42L76 42L76 38L74 38L74 36L72 36L72 38L70 38L70 42L68 42L68 44L66 44L66 46L64 46L64 44L66 44L66 40L68 40L68 36L72 36L72 34L74 34L74 30L72 30L72 32L70 32L70 34L66 34L66 38L64 38L64 34L60 34L60 36L62 36L62 42L60 42L60 44L62 44L62 46L58 46L58 50L60 50L60 48L62 48L62 50L60 50ZM18 54L20 54L20 52L18 52ZM56 54L58 54L58 52L56 52ZM20 52L26 52L26 46L22 46L22 44L24 44L24 42L20 42L20 44L18 44L18 42L16 42L16 38L12 38L12 40L14 40L14 44L16 44L16 48L24 48L24 50L20 50ZM68 52L72 52L72 48L68 48ZM74 52L80 52L80 50L74 50ZM82 52L84 52L84 50L82 50ZM52 50L56 50L56 46L54 46L54 44L52 44L52 42L50 42L50 44L46 44L46 46L52 46ZM28 48L30 48L30 46L28 46ZM32 48L34 48L34 46L32 46ZM38 48L38 46L40 46L40 48ZM74 48L76 48L76 46L74 46ZM78 48L84 48L84 46L78 46ZM26 46L28 46L28 44L30 44L30 42L32 42L32 40L42 40L42 38L40 38L40 36L38 36L38 38L28 38L28 42L26 42ZM30 46L32 46L32 44L30 44ZM56 46L58 46L58 44L56 44ZM72 46L74 46L74 44L72 44ZM10 44L12 44L12 42L10 42ZM54 44L56 44L56 40L52 40L52 42L54 42ZM24 42L26 42L26 38L22 38L22 36L20 36L20 40L24 40ZM58 42L60 42L60 40L58 40ZM56 38L58 38L58 36L56 36ZM76 38L78 38L78 36L76 36ZM10 36L12 36L12 34L14 34L14 32L16 32L16 30L10 30ZM16 36L20 36L20 30L18 30L18 32L16 32ZM22 36L26 36L26 34L30 34L30 36L32 36L32 32L26 32L26 28L24 28L24 30L22 30L22 32L24 32L24 34L22 34ZM34 36L38 36L38 34L36 34L36 30L34 30L34 28L36 28L36 22L34 22L34 24L32 24L32 32L34 32ZM54 36L56 36L56 34L54 34ZM74 36L76 36L76 34L74 34ZM78 36L80 36L80 34L78 34ZM82 36L84 36L84 30L82 30L82 28L80 28L80 34L82 34ZM42 34L44 34L44 32L42 32ZM46 34L48 34L48 32L46 32ZM50 34L54 34L54 32L52 32L52 30L58 30L58 28L56 28L56 20L58 20L58 18L56 18L56 14L54 14L54 12L58 12L58 10L48 10L48 12L52 12L52 16L54 16L54 18L52 18L52 22L54 22L54 24L52 24L52 26L54 26L54 28L52 28L52 26L46 26L46 28L42 28L42 26L40 26L40 30L44 30L44 32L46 32L46 30L50 30ZM58 34L60 34L60 30L58 30ZM64 34L66 34L66 30L64 30ZM68 32L70 32L70 30L68 30ZM16 30L18 30L18 28L24 28L24 26L14 26L14 28L16 28ZM36 30L38 30L38 28L36 28ZM62 30L64 30L64 28L66 28L66 26L58 26L58 28L62 28ZM10 28L12 28L12 26L10 26ZM28 28L30 28L30 24L28 24L28 22L30 22L30 16L28 16L28 14L26 14L26 26L28 26ZM70 28L80 28L80 26L70 26ZM10 24L24 24L24 10L10 10ZM30 24L32 24L32 22L30 22ZM38 24L40 24L40 22L38 22ZM42 24L44 24L44 20L46 20L46 24L48 24L48 20L50 20L50 18L46 18L46 16L44 16L44 18L42 18L42 16L40 16L40 22L42 22ZM50 24L52 24L52 22L50 22ZM58 24L60 24L60 22L58 22ZM62 24L64 24L64 22L62 22ZM66 24L68 24L68 18L66 18L66 20L64 20L64 22L66 22ZM70 24L84 24L84 10L70 10ZM12 22L12 12L22 12L22 22ZM32 22L34 22L34 20L36 20L36 22L38 22L38 16L34 16L34 14L30 14L30 16L32 16ZM72 22L72 12L82 12L82 22ZM14 20L20 20L20 14L14 14ZM74 20L80 20L80 14L74 14ZM58 18L62 18L62 16L60 16L60 14L58 14ZM64 18L66 18L66 12L64 12ZM38 16L40 16L40 14L38 14ZM46 16L50 16L50 14L48 14L48 12L46 12ZM36 14L38 14L38 12L36 12ZM42 14L44 14L44 12L42 12ZM28 12L34 12L34 10L28 10ZM38 12L40 12L40 10L38 10ZM60 12L64 12L64 10L60 10ZM66 12L68 12L68 10L66 10Z" fill="#000000" fill-rule="evenodd" />
</svg>
