<svg viewBox="0 0 87 87" xmlns="http://www.w3.org/2000/svg">
<rect width="100%" height="100%" fill="#FFFFFF" />
<path d="M0 0L0 87L87 87L87 0ZM2 2L85 2L85 85L2 85Z" fill="#ffffff" fill-rule="evenodd" />
<path d="M10 76L24 76L24 62L10 62ZM26 76L28 76L28 74L26 74ZM30 76L32 76L32 74L34 74L34 72L32 72L32 70L28 70L28 72L30 72ZM36 76L46 76L46 74L48 74L48 72L44 72L44 74L40 74L40 70L36 70L36 68L34 68L34 72L38 72L38 74L36 74ZM48 76L50 76L50 74L48 74ZM52 76L56 76L56 74L58 74L58 76L60 76L60 72L54 72L54 70L52 70L52 72L50 72L50 74L52 74ZM64 76L68 76L68 70L66 70L66 72L64 72ZM70 76L76 76L76 72L74 72L74 74L70 74ZM12 74L12 64L22 64L22 74ZM14 72L20 72L20 66L14 66ZM42 72L44 72L44 68L42 68ZM48 72L50 72L50 70L48 70ZM70 72L72 72L72 70L76 70L76 66L74 66L74 68L72 68L72 66L70 66ZM50 70L52 70L52 68L50 68ZM56 70L58 70L58 68L60 68L60 70L62 70L62 68L68 68L68 64L72 64L72 66L74 66L74 60L76 60L76 50L74 50L74 52L72 52L72 50L68 50L68 48L66 48L66 46L68 46L68 48L72 48L72 46L70 46L70 44L66 44L66 42L68 42L68 40L64 40L64 42L60 42L60 40L58 40L58 44L56 44L56 40L52 40L52 38L50 38L50 40L48 40L48 46L50 46L50 48L52 48L52 44L50 44L50 42L52 42L52 44L54 44L54 46L58 46L58 52L64 52L64 56L66 56L66 58L64 58L64 56L62 56L62 54L60 54L60 56L58 56L58 52L56 52L56 58L58 58L58 64L52 64L52 60L54 60L54 58L50 58L50 56L48 56L48 52L46 52L46 56L42 56L42 54L40 54L40 56L38 56L38 58L44 58L44 60L46 60L46 58L48 58L48 60L50 60L50 66L52 66L52 68L54 68L54 66L56 66ZM26 68L34 68L34 66L32 66L32 64L30 64L30 66L26 66ZM46 68L50 68L50 66L48 66L48 64L46 64L46 62L44 62L44 60L42 60L42 64L44 64L44 66L46 66ZM34 66L38 66L38 64L40 64L40 60L38 60L38 62L36 62L36 64L34 64ZM40 66L42 66L42 64L40 64ZM60 66L60 60L66 60L66 66ZM26 64L30 64L30 58L26 58ZM32 64L34 64L34 62L36 62L36 60L38 60L38 58L36 58L36 56L38 56L38 52L40 52L40 50L38 50L38 48L36 48L36 50L34 50L34 52L32 52L32 54L30 54L30 58L32 58ZM62 64L64 64L64 62L62 62ZM46 62L48 62L48 60L46 60ZM70 62L70 60L72 60L72 62ZM10 60L14 60L14 58L10 58ZM18 60L20 60L20 58L22 58L22 56L20 56L20 54L18 54L18 56L16 56L16 58L18 58ZM22 60L24 60L24 58L22 58ZM24 58L26 58L26 56L24 56ZM22 56L24 56L24 54L22 54ZM50 56L52 56L52 52L54 52L54 48L52 48L52 50L50 50L50 48L48 48L48 52L50 52ZM10 54L16 54L16 52L18 52L18 50L14 50L14 48L10 48ZM26 54L28 54L28 50L26 50L26 48L28 48L28 46L22 46L22 48L24 48L24 50L20 50L20 52L26 52ZM66 54L66 52L68 52L68 54ZM30 52L32 52L32 46L34 46L34 48L36 48L36 44L30 44L30 40L28 40L28 38L26 38L26 42L28 42L28 46L30 46L30 48L28 48L28 50L30 50ZM42 52L44 52L44 50L42 50ZM40 50L42 50L42 46L40 46L40 44L42 44L42 42L38 42L38 40L36 40L36 44L38 44L38 48L40 48ZM60 50L60 48L62 48L62 46L60 46L60 44L64 44L64 50ZM72 50L74 50L74 48L72 48ZM46 48L48 48L48 46L46 46ZM74 48L76 48L76 44L74 44ZM10 46L12 46L12 44L14 44L14 46L20 46L20 44L16 44L16 42L14 42L14 40L16 40L16 42L20 42L20 40L18 40L18 38L14 38L14 36L12 36L12 40L10 40ZM42 46L46 46L46 40L44 40L44 44L42 44ZM22 44L26 44L26 42L22 42ZM72 44L74 44L74 42L76 42L76 40L72 40ZM32 42L34 42L34 40L32 40ZM20 40L24 40L24 38L20 38ZM34 40L36 40L36 38L34 38ZM38 40L40 40L40 38L38 38ZM42 40L44 40L44 36L42 36ZM46 40L48 40L48 38L46 38ZM56 40L58 40L58 36L54 36L54 38L56 38ZM60 40L62 40L62 36L64 36L64 32L54 32L54 34L60 34ZM18 38L20 38L20 36L24 36L24 34L22 34L22 32L24 32L24 34L26 34L26 32L32 32L32 28L30 28L30 30L26 30L26 28L30 28L30 26L28 26L28 22L30 22L30 20L28 20L28 18L32 18L32 16L30 16L30 14L28 14L28 16L26 16L26 26L22 26L22 28L24 28L24 30L22 30L22 28L20 28L20 32L18 32L18 28L12 28L12 30L10 30L10 32L16 32L16 36L18 36ZM24 38L26 38L26 36L24 36ZM32 38L34 38L34 36L32 36ZM48 38L50 38L50 36L54 36L54 34L52 34L52 32L54 32L54 30L52 30L52 28L50 28L50 34L48 34L48 32L46 32L46 30L44 30L44 28L46 28L46 30L48 30L48 28L50 28L50 26L46 26L46 24L44 24L44 20L42 20L42 24L40 24L40 26L42 26L42 32L44 32L44 34L46 34L46 36L48 36ZM66 38L74 38L74 36L76 36L76 32L74 32L74 30L72 30L72 28L70 28L70 30L68 30L68 32L66 32L66 34L72 34L72 36L66 36ZM10 36L12 36L12 34L10 34ZM26 36L32 36L32 34L26 34ZM34 36L40 36L40 32L38 32L38 34L36 34L36 32L34 32ZM34 30L38 30L38 24L36 24L36 26L34 26ZM58 30L62 30L62 28L66 28L66 30L68 30L68 28L70 28L70 26L60 26L60 18L58 18L58 16L60 16L60 14L58 14L58 12L60 12L60 10L56 10L56 12L48 12L48 14L50 14L50 16L52 16L52 18L56 18L56 20L54 20L54 24L56 24L56 22L58 22ZM10 28L12 28L12 26L10 26ZM18 28L20 28L20 26L18 26ZM74 28L76 28L76 26L74 26ZM32 26L34 26L34 24L32 24ZM52 26L54 26L54 24L52 24ZM10 24L24 24L24 10L10 10ZM30 24L32 24L32 22L30 22ZM34 24L36 24L36 22L38 22L38 20L40 20L40 18L42 18L42 14L40 14L40 16L38 16L38 18L32 18L32 20L34 20ZM38 24L40 24L40 22L38 22ZM46 24L48 24L48 22L46 22ZM50 24L52 24L52 18L48 18L48 16L44 16L44 18L46 18L46 20L48 20L48 22L50 22ZM62 24L76 24L76 10L62 10ZM12 22L12 12L22 12L22 22ZM64 22L64 12L74 12L74 22ZM14 20L20 20L20 14L14 14ZM66 20L72 20L72 14L66 14ZM34 16L38 16L38 14L36 14L36 12L34 12L34 10L30 10L30 14L34 14ZM54 16L54 14L56 14L56 16ZM42 14L46 14L46 12L48 12L48 10L44 10L44 12L42 12ZM26 12L28 12L28 10L26 10ZM40 12L42 12L42 10L40 10Z" fill="#000000" fill-rule="evenodd" />
</svg>
