<svg viewBox="0 0 79 79" xmlns="http://www.w3.org/2000/svg">
<rect width="100%" height="100%" fill="#FFFFFF" />
<path d="M0 0L0 79L79 79L79 0ZM2 2L77 2L77 77L2 77Z" fill="#ffffff" fill-rule="evenodd" />
<path d="M10 68L24 68L24 54L10 54ZM26 68L28 68L28 66L26 66ZM32 68L34 68L34 66L32 66ZM38 68L40 68L40 66L38 66ZM42 68L44 68L44 64L42 64L42 62L40 62L40 56L46 56L46 54L42 54L42 48L44 48L44 44L46 44L46 42L44 42L44 38L46 38L46 34L40 34L40 38L34 38L34 40L38 40L38 42L36 42L36 44L30 44L30 48L34 48L34 46L40 46L40 54L32 54L32 58L34 58L34 56L38 56L38 58L34 58L34 60L32 60L32 58L30 58L30 62L32 62L32 64L34 64L34 62L38 62L38 64L40 64L40 66L42 66ZM50 68L56 68L56 66L54 66L54 64L52 64L52 62L54 62L54 60L58 60L58 64L60 64L60 66L62 66L62 64L68 64L68 54L66 54L66 58L62 58L62 60L66 60L66 62L62 62L62 60L60 60L60 58L62 58L62 56L60 56L60 52L62 52L62 48L60 48L60 46L58 46L58 50L54 50L54 48L52 48L52 50L50 50L50 46L48 46L48 50L46 50L46 54L50 54L50 56L48 56L48 60L50 60L50 62L48 62L48 64L46 64L46 66L50 66ZM58 68L60 68L60 66L58 66ZM62 68L64 68L64 66L62 66ZM66 68L68 68L68 66L66 66ZM12 66L12 56L22 56L22 66ZM36 66L38 66L38 64L36 64ZM56 66L58 66L58 64L56 64ZM14 64L20 64L20 58L14 58ZM26 64L28 64L28 62L26 62ZM44 64L46 64L46 62L44 62ZM42 62L44 62L44 60L46 60L46 58L42 58ZM46 62L48 62L48 60L46 60ZM28 58L30 58L30 54L32 54L32 52L30 52L30 50L26 50L26 56L28 56ZM52 58L52 52L58 52L58 58ZM54 56L56 56L56 54L54 54ZM10 52L16 52L16 50L10 50ZM18 52L20 52L20 50L22 50L22 48L18 48ZM22 52L24 52L24 50L22 50ZM32 52L38 52L38 48L36 48L36 50L32 50ZM66 52L68 52L68 50L66 50ZM10 48L14 48L14 46L10 46ZM22 48L24 48L24 46L22 46ZM26 48L28 48L28 46L26 46ZM54 48L56 48L56 46L54 46ZM66 48L68 48L68 46L66 46ZM14 46L16 46L16 42L14 42ZM18 46L20 46L20 42L22 42L22 40L24 40L24 42L26 42L26 36L24 36L24 38L22 38L22 36L20 36L20 38L18 38L18 36L16 36L16 42L18 42ZM50 46L52 46L52 40L50 40L50 42L48 42L48 44L50 44ZM56 46L58 46L58 44L56 44ZM62 46L66 46L66 44L68 44L68 42L64 42L64 44L62 44ZM10 44L12 44L12 40L10 40ZM22 44L24 44L24 42L22 42ZM26 44L30 44L30 40L28 40L28 42L26 42ZM54 44L56 44L56 40L58 40L58 34L56 34L56 30L58 30L58 26L56 26L56 28L52 28L52 26L50 26L50 30L54 30L54 32L52 32L52 34L54 34L54 36L52 36L52 40L54 40ZM58 44L62 44L62 40L60 40L60 42L58 42ZM32 42L34 42L34 40L32 40ZM40 42L40 40L42 40L42 42ZM30 40L32 40L32 38L30 38ZM46 40L50 40L50 36L48 36L48 38L46 38ZM62 40L68 40L68 34L66 34L66 36L64 36L64 38L62 38ZM32 38L34 38L34 36L32 36ZM60 38L62 38L62 36L60 36ZM10 36L14 36L14 34L16 34L16 32L14 32L14 30L12 30L12 32L10 32ZM18 36L20 36L20 34L22 34L22 32L26 32L26 30L20 30L20 28L18 28ZM22 36L24 36L24 34L22 34ZM26 36L30 36L30 34L28 34L28 32L26 32ZM36 36L38 36L38 32L36 32ZM62 36L64 36L64 34L62 34ZM30 34L32 34L32 28L34 28L34 26L32 26L32 22L30 22L30 24L28 24L28 28L26 28L26 30L30 30ZM60 34L62 34L62 32L60 32ZM64 34L66 34L66 32L64 32ZM40 32L42 32L42 30L40 30ZM46 32L50 32L50 30L48 30L48 28L46 28ZM58 32L60 32L60 30L58 30ZM62 32L64 32L64 26L62 26L62 28L60 28L60 30L62 30ZM66 32L68 32L68 26L66 26ZM34 30L40 30L40 26L42 26L42 28L44 28L44 22L42 22L42 24L40 24L40 22L38 22L38 26L36 26L36 28L34 28ZM10 28L12 28L12 26L10 26ZM14 28L16 28L16 26L14 26ZM22 28L26 28L26 26L22 26ZM34 26L36 26L36 22L34 22ZM46 26L50 26L50 24L48 24L48 22L46 22ZM10 24L24 24L24 10L10 10ZM26 24L28 24L28 20L26 20ZM50 24L52 24L52 20L50 20ZM54 24L68 24L68 10L54 10ZM12 22L12 12L22 12L22 22ZM32 22L34 22L34 20L32 20ZM40 22L42 22L42 18L40 18L40 16L46 16L46 18L48 18L48 12L46 12L46 10L40 10L40 12L42 12L42 14L40 14L40 12L36 12L36 14L38 14L38 18L34 18L34 20L40 20ZM56 22L56 12L66 12L66 22ZM14 20L20 20L20 14L14 14ZM44 20L46 20L46 18L44 18ZM48 20L50 20L50 18L48 18ZM58 20L64 20L64 14L58 14ZM30 18L32 18L32 14L30 14L30 12L28 12L28 14L26 14L26 16L30 16ZM50 14L52 14L52 12L50 12ZM26 12L28 12L28 10L26 10ZM32 12L36 12L36 10L32 10ZM48 12L50 12L50 10L48 10Z" fill="#000000" fill-rule="evenodd" />
</svg>
