<svg viewBox="0 0 131 43" xmlns="http://www.w3.org/2000/svg">
<rect width="100%" height="100%" fill="#FFFFFF" />
<path d="M0 0L0 43L131 43L131 0ZM2 2L129 2L129 41L2 41Z" fill="#ffffff" fill-rule="evenodd" />
<path d="M6 36L12 36L12 34L8 34L8 32L10 32L10 30L6 30ZM14 36L16 36L16 34L18 34L18 36L20 36L20 34L22 34L22 36L24 36L24 34L26 34L26 32L24 32L24 30L22 30L22 32L20 32L20 30L22 30L22 28L12 28L12 24L14 24L14 22L6 22L6 24L8 24L8 26L10 26L10 30L12 30L12 34L14 34ZM26 36L28 36L28 34L26 34ZM30 36L32 36L32 34L30 34ZM34 36L36 36L36 32L38 32L38 30L36 30L36 28L34 28L34 30L32 30L32 28L34 28L34 24L32 24L32 26L30 26L30 20L26 20L26 22L22 22L22 24L28 24L28 30L26 30L26 32L28 32L28 34L30 34L30 32L32 32L32 34L34 34ZM38 36L40 36L40 34L42 34L42 36L48 36L48 30L44 30L44 28L40 28L40 32L38 32ZM50 36L52 36L52 34L54 34L54 32L50 32ZM54 36L56 36L56 34L54 34ZM58 36L60 36L60 34L58 34ZM62 36L64 36L64 34L62 34ZM66 36L68 36L68 34L66 34ZM70 36L72 36L72 32L70 32L70 30L66 30L66 32L68 32L68 34L70 34ZM74 36L76 36L76 34L74 34ZM78 36L80 36L80 32L82 32L82 36L88 36L88 26L84 26L84 28L86 28L86 30L84 30L84 28L80 28L80 30L76 30L76 28L74 28L74 22L72 22L72 20L70 20L70 24L72 24L72 26L68 26L68 24L62 24L62 26L60 26L60 28L54 28L54 32L56 32L56 30L58 30L58 32L60 32L60 30L62 30L62 28L64 28L64 26L66 26L66 28L72 28L72 30L74 30L74 32L78 32ZM90 36L92 36L92 32L94 32L94 36L96 36L96 32L100 32L100 28L96 28L96 30L94 30L94 28L92 28L92 30L90 30ZM98 36L100 36L100 34L98 34ZM102 36L104 36L104 34L102 34ZM106 36L108 36L108 34L110 34L110 32L104 32L104 34L106 34ZM110 36L112 36L112 34L110 34ZM114 36L124 36L124 26L120 26L120 24L118 24L118 20L116 20L116 26L114 26L114 24L112 24L112 28L110 28L110 20L108 20L108 22L106 22L106 24L104 24L104 22L100 22L100 18L98 18L98 20L96 20L96 22L94 22L94 20L92 20L92 26L94 26L94 28L96 28L96 24L102 24L102 26L104 26L104 28L106 28L106 26L108 26L108 28L106 28L106 30L110 30L110 32L112 32L112 34L114 34ZM44 34L44 32L46 32L46 34ZM84 34L84 32L86 32L86 34ZM100 34L102 34L102 32L100 32ZM116 34L116 28L122 28L122 34ZM16 32L16 30L18 30L18 32ZM62 32L64 32L64 30L62 30ZM102 32L104 32L104 28L102 28ZM118 32L120 32L120 30L118 30ZM48 30L50 30L50 28L54 28L54 26L52 26L52 22L50 22L50 24L48 24L48 26L44 26L44 28L48 28ZM6 28L8 28L8 26L6 26ZM38 28L40 28L40 26L38 26ZM100 28L102 28L102 26L100 26ZM14 26L20 26L20 22L18 22L18 24L14 24ZM36 26L38 26L38 24L36 24ZM42 26L44 26L44 24L42 24ZM54 26L60 26L60 24L58 24L58 22L56 22L56 24L54 24ZM34 24L36 24L36 22L34 22ZM38 24L42 24L42 22L38 22ZM44 24L48 24L48 22L44 22ZM60 24L62 24L62 22L60 22ZM78 24L90 24L90 20L88 20L88 22L82 22L82 20L78 20ZM120 24L124 24L124 22L122 22L122 20L120 20ZM42 22L44 22L44 20L42 20ZM48 22L50 22L50 20L48 20ZM62 22L68 22L68 20L66 20L66 18L64 18L64 20L62 20ZM74 22L76 22L76 20L78 20L78 16L76 16L76 12L74 12L74 8L72 8L72 10L68 10L68 6L66 6L66 8L64 8L64 6L62 6L62 10L60 10L60 12L54 12L54 14L52 14L52 12L50 12L50 14L44 14L44 16L52 16L52 18L54 18L54 16L56 16L56 14L58 14L58 16L60 16L60 14L62 14L62 12L64 12L64 10L66 10L66 12L72 12L72 14L74 14L74 18L72 18L72 20L74 20ZM112 22L114 22L114 20L112 20ZM6 20L20 20L20 6L6 6ZM22 20L26 20L26 18L24 18L24 16L26 16L26 14L24 14L24 12L28 12L28 10L30 10L30 8L28 8L28 6L26 6L26 10L22 10ZM36 20L42 20L42 18L38 18L38 14L36 14L36 12L34 12L34 16L36 16ZM44 20L46 20L46 18L44 18ZM54 20L56 20L56 18L54 18ZM58 20L60 20L60 18L58 18ZM84 20L86 20L86 18L84 18ZM90 20L92 20L92 18L90 18ZM94 20L96 20L96 18L94 18ZM104 20L108 20L108 18L110 18L110 14L108 14L108 16L106 16L106 14L104 14L104 16L102 16L102 18L104 18ZM114 20L116 20L116 18L118 18L118 16L120 16L120 12L118 12L118 14L116 14L116 16L114 16ZM122 20L124 20L124 18L122 18ZM8 18L8 8L18 8L18 18ZM30 18L34 18L34 16L30 16ZM68 18L72 18L72 16L70 16L70 14L66 14L66 16L68 16ZM82 18L84 18L84 16L88 16L88 14L90 14L90 12L88 12L88 6L82 6L82 12L80 12L80 14L78 14L78 16L82 16ZM92 18L94 18L94 16L96 16L96 14L98 14L98 12L92 12ZM10 16L16 16L16 10L10 10ZM62 16L64 16L64 14L62 14ZM122 16L124 16L124 14L122 14ZM30 14L32 14L32 10L30 10ZM38 14L42 14L42 12L40 12L40 6L38 6L38 8L36 8L36 6L34 6L34 8L32 8L32 10L38 10ZM84 14L84 12L86 12L86 14ZM102 14L104 14L104 10L102 10L102 8L100 8L100 12L102 12ZM42 12L50 12L50 10L48 10L48 6L42 6ZM76 12L78 12L78 10L76 10ZM90 12L92 12L92 10L90 10ZM106 12L118 12L118 10L120 10L120 8L122 8L122 10L120 10L120 12L124 12L124 6L118 6L118 8L116 8L116 6L114 6L114 8L112 8L112 10L110 10L110 8L108 8L108 6L106 6ZM44 10L44 8L46 8L46 10ZM58 10L60 10L60 6L58 6ZM84 10L84 8L86 8L86 10ZM92 10L96 10L96 6L94 6L94 8L92 8ZM22 8L24 8L24 6L22 6ZM30 8L32 8L32 6L30 6ZM50 8L52 8L52 6L50 6ZM54 8L56 8L56 6L54 6ZM70 8L72 8L72 6L70 6ZM74 8L76 8L76 6L74 6ZM78 8L80 8L80 6L78 6ZM90 8L92 8L92 6L90 6ZM98 8L100 8L100 6L98 6ZM102 8L104 8L104 6L102 6ZM110 8L112 8L112 6L110 6Z" fill="#000000" fill-rule="evenodd" />
</svg>
