<svg viewBox="0 0 95 95" xmlns="http://www.w3.org/2000/svg">
<rect width="100%" height="100%" fill="#FFFFFF" />
<path d="M0 0L0 95L95 95L95 0ZM2 2L93 2L93 93L2 93Z" fill="#ffffff" fill-rule="evenodd" />
<path d="M10 84L24 84L24 70L10 70ZM26 84L28 84L28 82L26 82ZM30 84L38 84L38 82L36 82L36 78L34 78L34 76L32 76L32 78L30 78L30 80L28 80L28 82L30 82ZM42 84L44 84L44 82L46 82L46 78L44 78L44 80L42 80L42 78L40 78L40 76L44 76L44 74L38 74L38 76L36 76L36 78L38 78L38 80L40 80L40 82L42 82ZM46 84L48 84L48 82L46 82ZM52 84L54 84L54 82L60 82L60 80L58 80L58 78L56 78L56 80L50 80L50 76L52 76L52 74L54 74L54 72L56 72L56 76L58 76L58 78L62 78L62 76L60 76L60 74L58 74L58 70L60 70L60 72L62 72L62 70L64 70L64 68L58 68L58 66L54 66L54 64L56 64L56 62L52 62L52 60L50 60L50 58L48 58L48 56L46 56L46 54L44 54L44 58L46 58L46 60L48 60L48 62L50 62L50 64L52 64L52 66L46 66L46 68L56 68L56 70L50 70L50 74L48 74L48 76L46 76L46 78L48 78L48 82L52 82ZM62 84L66 84L66 82L62 82ZM68 84L76 84L76 80L72 80L72 82L68 82ZM80 84L84 84L84 82L82 82L82 78L80 78L80 76L84 76L84 74L80 74L80 72L82 72L82 70L78 70L78 68L76 68L76 64L70 64L70 62L68 62L68 66L66 66L66 76L70 76L70 80L72 80L72 76L76 76L76 72L78 72L78 76L76 76L76 80L80 80ZM12 82L12 72L22 72L22 82ZM66 82L68 82L68 78L66 78ZM14 80L20 80L20 74L14 74ZM62 80L64 80L64 78L62 78ZM28 78L30 78L30 76L28 76ZM54 78L56 78L56 76L54 76ZM64 78L66 78L66 76L64 76ZM26 76L28 76L28 74L26 74ZM30 76L32 76L32 74L30 74ZM62 76L64 76L64 74L62 74ZM28 74L30 74L30 72L28 72ZM34 74L38 74L38 72L36 72L36 70L34 70ZM68 74L68 68L74 68L74 74ZM26 72L28 72L28 70L30 70L30 72L32 72L32 68L28 68L28 66L22 66L22 68L26 68ZM40 72L42 72L42 70L40 70ZM46 72L48 72L48 70L46 70ZM70 72L72 72L72 70L70 70ZM38 70L40 70L40 68L38 68ZM42 70L46 70L46 68L44 68L44 66L40 66L40 68L42 68ZM82 70L84 70L84 66L80 66L80 68L82 68ZM10 68L16 68L16 66L10 66ZM18 68L20 68L20 66L18 66ZM34 68L36 68L36 66L34 66ZM30 66L32 66L32 62L30 62ZM38 66L40 66L40 64L38 64ZM44 66L46 66L46 64L44 64ZM58 66L60 66L60 64L58 64ZM62 66L66 66L66 64L62 64ZM78 66L80 66L80 64L82 64L82 60L80 60L80 58L82 58L82 60L84 60L84 56L82 56L82 54L84 54L84 48L82 48L82 52L80 52L80 54L78 54L78 52L74 52L74 54L72 54L72 56L68 56L68 54L66 54L66 52L56 52L56 56L54 56L54 60L56 60L56 58L58 58L58 60L60 60L60 56L58 56L58 54L62 54L62 56L66 56L66 58L72 58L72 60L76 60L76 62L78 62ZM16 64L18 64L18 62L22 62L22 60L26 60L26 58L22 58L22 56L26 56L26 54L22 54L22 52L18 52L18 54L16 54L16 56L14 56L14 60L16 60L16 58L18 58L18 56L20 56L20 58L18 58L18 60L16 60ZM22 64L28 64L28 62L30 62L30 60L32 60L32 56L26 56L26 58L28 58L28 60L26 60L26 62L22 62ZM42 64L44 64L44 60L42 60ZM10 62L12 62L12 60L10 60ZM38 62L40 62L40 60L38 60ZM60 62L64 62L64 60L60 60ZM66 62L68 62L68 60L66 60ZM70 62L72 62L72 60L70 60ZM34 60L38 60L38 58L34 58ZM10 58L12 58L12 54L10 54ZM40 58L42 58L42 54L44 54L44 52L46 52L46 48L42 48L42 46L40 46L40 48L38 48L38 44L34 44L34 48L36 48L36 52L34 52L34 54L32 54L32 56L36 56L36 54L40 54ZM74 58L74 56L76 56L76 58ZM50 56L52 56L52 54L54 54L54 52L56 52L56 50L54 50L54 48L50 48L50 44L52 44L52 42L54 42L54 40L56 40L56 42L60 42L60 40L58 40L58 38L60 38L60 40L64 40L64 42L70 42L70 40L66 40L66 36L58 36L58 34L56 34L56 36L54 36L54 38L50 38L50 40L48 40L48 44L46 44L46 46L48 46L48 50L52 50L52 52L50 52ZM30 54L32 54L32 52L34 52L34 48L32 48L32 50L30 50ZM46 54L48 54L48 52L46 52ZM16 52L18 52L18 50L16 50ZM22 52L24 52L24 50L22 50ZM40 52L40 50L42 50L42 52ZM66 52L74 52L74 50L76 50L76 48L72 48L72 50L66 50ZM10 50L14 50L14 48L12 48L12 46L10 46ZM18 50L20 50L20 48L18 48ZM24 50L28 50L28 48L26 48L26 46L22 46L22 44L26 44L26 42L28 42L28 40L26 40L26 38L20 38L20 36L26 36L26 38L28 38L28 34L30 34L30 32L32 32L32 34L34 34L34 36L36 36L36 38L34 38L34 36L32 36L32 34L30 34L30 40L32 40L32 42L28 42L28 44L26 44L26 46L30 46L30 44L34 44L34 42L36 42L36 40L38 40L38 38L40 38L40 36L42 36L42 34L40 34L40 16L36 16L36 14L40 14L40 12L36 12L36 10L26 10L26 12L30 12L30 14L34 14L34 20L32 20L32 16L26 16L26 26L22 26L22 28L28 28L28 20L30 20L30 26L34 26L34 28L30 28L30 30L26 30L26 32L24 32L24 34L16 34L16 36L18 36L18 40L20 40L20 42L18 42L18 44L20 44L20 48L24 48ZM56 50L58 50L58 48L60 48L60 46L62 46L62 44L58 44L58 46L56 46ZM62 50L66 50L66 48L68 48L68 46L62 46ZM78 50L80 50L80 48L82 48L82 44L80 44L80 40L78 40L78 46L76 46L76 48L78 48ZM12 46L14 46L14 42L16 42L16 40L10 40L10 44L12 44ZM54 46L56 46L56 44L54 44ZM70 46L76 46L76 42L74 42L74 44L72 44L72 42L70 42ZM42 44L44 44L44 40L42 40ZM62 44L64 44L64 42L62 42ZM22 42L22 40L24 40L24 42ZM40 40L42 40L42 38L40 38ZM46 40L48 40L48 38L46 38ZM72 40L74 40L74 38L78 38L78 34L82 34L82 28L78 28L78 26L68 26L68 28L70 28L70 30L72 30L72 28L74 28L74 30L76 30L76 32L74 32L74 34L76 34L76 36L72 36ZM80 40L82 40L82 38L80 38ZM14 38L16 38L16 36L14 36ZM42 38L46 38L46 36L54 36L54 34L56 34L56 32L52 32L52 34L48 34L48 30L44 30L44 28L42 28L42 32L44 32L44 36L42 36ZM68 38L70 38L70 36L68 36ZM82 38L84 38L84 36L82 36ZM10 36L12 36L12 32L10 32ZM66 36L68 36L68 34L66 34ZM70 36L72 36L72 32L70 32ZM36 34L36 32L38 32L38 34ZM58 34L60 34L60 32L58 32ZM62 34L64 34L64 32L62 32ZM12 32L14 32L14 28L12 28L12 26L10 26L10 30L12 30ZM22 32L24 32L24 30L22 30ZM34 32L34 30L36 30L36 32ZM50 32L52 32L52 28L50 28L50 24L48 24L48 22L50 22L50 20L48 20L48 18L50 18L50 20L52 20L52 22L54 22L54 28L56 28L56 26L58 26L58 24L56 24L56 20L54 20L54 18L52 18L52 16L54 16L54 14L56 14L56 10L54 10L54 12L50 12L50 14L48 14L48 12L50 12L50 10L46 10L46 14L44 14L44 16L46 16L46 24L44 24L44 22L42 22L42 26L46 26L46 28L48 28L48 30L50 30ZM64 32L70 32L70 30L68 30L68 28L64 28ZM78 32L78 30L80 30L80 32ZM16 30L18 30L18 28L16 28ZM20 30L22 30L22 28L20 28ZM36 30L36 28L38 28L38 30ZM60 30L62 30L62 28L60 28ZM18 28L20 28L20 26L18 26ZM58 28L60 28L60 26L58 26ZM62 28L64 28L64 20L60 20L60 18L62 18L62 16L58 16L58 14L56 14L56 20L58 20L58 24L60 24L60 22L62 22ZM82 28L84 28L84 26L82 26ZM10 24L24 24L24 10L10 10ZM32 24L32 22L34 22L34 24ZM36 24L36 22L38 22L38 24ZM50 24L52 24L52 22L50 22ZM66 24L68 24L68 22L66 22ZM70 24L84 24L84 10L70 10ZM12 22L12 12L22 12L22 22ZM72 22L72 12L82 12L82 22ZM14 20L20 20L20 14L14 14ZM64 20L66 20L66 14L62 14L62 16L64 16ZM74 20L80 20L80 14L74 14ZM42 18L44 18L44 16L42 16ZM40 16L42 16L42 14L40 14ZM42 12L44 12L44 10L42 10ZM58 12L62 12L62 10L58 10ZM64 12L66 12L66 10L64 10Z" fill="#000000" fill-rule="evenodd" />
</svg>
