<svg viewBox="0 0 95 95" xmlns="http://www.w3.org/2000/svg">
<rect width="100%" height="100%" fill="#FFFFFF" />
<path d="M0 0L0 95L95 95L95 0ZM2 2L93 2L93 93L2 93Z" fill="#ffffff" fill-rule="evenodd" />
<path d="M10 84L24 84L24 70L10 70ZM26 84L32 84L32 82L30 82L30 80L28 80L28 82L26 82ZM34 84L42 84L42 80L48 80L48 78L52 78L52 76L46 76L46 78L42 78L42 76L40 76L40 82L36 82L36 80L34 80L34 78L32 78L32 76L30 76L30 80L32 80L32 82L34 82ZM44 84L46 84L46 82L44 82ZM56 84L58 84L58 82L56 82ZM60 84L64 84L64 82L70 82L70 78L72 78L72 76L74 76L74 78L76 78L76 76L82 76L82 78L80 78L80 80L82 80L82 82L78 82L78 80L72 80L72 82L76 82L76 84L84 84L84 70L82 70L82 72L80 72L80 74L76 74L76 70L80 70L80 66L70 66L70 62L64 62L64 64L66 64L66 66L58 66L58 68L64 68L64 70L66 70L66 72L64 72L64 74L60 74L60 70L58 70L58 72L52 72L52 74L54 74L54 80L56 80L56 78L58 78L58 76L56 76L56 74L58 74L58 76L66 76L66 78L68 78L68 80L62 80L62 82L60 82ZM12 82L12 72L22 72L22 82ZM50 82L54 82L54 80L50 80ZM14 80L20 80L20 74L14 74ZM26 80L28 80L28 76L30 76L30 74L28 74L28 72L26 72ZM58 80L60 80L60 78L58 78ZM36 78L38 78L38 74L36 74ZM42 76L44 76L44 74L48 74L48 72L46 72L46 70L54 70L54 68L52 68L52 66L54 66L54 68L56 68L56 62L58 62L58 60L56 60L56 58L58 58L58 60L60 60L60 62L62 62L62 58L60 58L60 56L62 56L62 52L66 52L66 54L68 54L68 52L72 52L72 50L66 50L66 46L64 46L64 50L58 50L58 52L60 52L60 54L58 54L58 56L54 56L54 54L52 54L52 50L50 50L50 52L48 52L48 50L50 50L50 48L48 48L48 46L58 46L58 44L66 44L66 42L64 42L64 40L66 40L66 42L68 42L68 36L66 36L66 38L62 38L62 42L58 42L58 40L56 40L56 38L52 38L52 36L50 36L50 34L48 34L48 38L50 38L50 44L46 44L46 46L42 46L42 44L44 44L44 42L40 42L40 40L38 40L38 42L36 42L36 46L34 46L34 44L32 44L32 46L30 46L30 48L32 48L32 50L34 50L34 48L38 48L38 46L40 46L40 48L38 48L38 50L34 50L34 52L36 52L36 56L38 56L38 52L42 52L42 54L40 54L40 56L42 56L42 58L44 58L44 52L46 52L46 56L48 56L48 54L50 54L50 56L52 56L52 58L54 58L54 64L52 64L52 58L50 58L50 60L48 60L48 62L50 62L50 68L46 68L46 66L44 66L44 68L42 68L42 70L44 70L44 72L42 72L42 70L40 70L40 74L42 74ZM30 74L32 74L32 72L38 72L38 70L36 70L36 64L34 64L34 66L32 66L32 68L34 68L34 70L30 70ZM68 74L68 68L74 68L74 74ZM70 72L72 72L72 70L70 70ZM26 70L30 70L30 66L32 66L32 62L30 62L30 64L28 64L28 66L26 66L26 64L24 64L24 66L22 66L22 68L26 68ZM38 70L40 70L40 64L38 64ZM56 70L58 70L58 68L56 68ZM10 68L12 68L12 62L14 62L14 58L12 58L12 56L10 56ZM14 68L20 68L20 66L16 66L16 64L14 64ZM20 66L22 66L22 64L20 64ZM42 66L44 66L44 64L42 64ZM46 66L48 66L48 62L46 62ZM80 66L82 66L82 64L84 64L84 62L80 62ZM16 64L20 64L20 62L18 62L18 60L16 60ZM22 64L24 64L24 62L22 62ZM36 64L38 64L38 62L44 62L44 60L40 60L40 56L38 56L38 60L36 60ZM76 64L78 64L78 62L76 62ZM20 62L22 62L22 60L20 60ZM24 62L26 62L26 60L28 60L28 58L30 58L30 54L32 54L32 52L26 52L26 50L30 50L30 48L28 48L28 46L26 46L26 48L24 48L24 50L22 50L22 48L24 48L24 46L22 46L22 44L24 44L24 46L26 46L26 44L32 44L32 42L30 42L30 40L32 40L32 38L36 38L36 36L34 36L34 32L30 32L30 34L32 34L32 36L30 36L30 38L28 38L28 40L26 40L26 38L22 38L22 40L24 40L24 42L22 42L22 40L20 40L20 42L18 42L18 38L20 38L20 36L18 36L18 34L16 34L16 36L12 36L12 38L10 38L10 46L12 46L12 48L14 48L14 46L16 46L16 48L14 48L14 50L10 50L10 52L12 52L12 56L14 56L14 52L16 52L16 50L18 50L18 44L20 44L20 52L24 52L24 54L22 54L22 56L26 56L26 58L22 58L22 60L24 60ZM28 62L30 62L30 60L28 60ZM32 62L34 62L34 60L36 60L36 56L34 56L34 54L32 54L32 58L30 58L30 60L32 60ZM72 62L74 62L74 60L72 60ZM78 62L80 62L80 58L74 58L74 60L78 60ZM46 60L48 60L48 58L46 58ZM64 60L66 60L66 54L64 54L64 56L62 56L62 58L64 58ZM68 60L72 60L72 56L68 56ZM82 60L84 60L84 54L82 54L82 52L80 52L80 56L82 56ZM14 58L16 58L16 56L14 56ZM48 58L50 58L50 56L48 56ZM16 56L20 56L20 52L16 52ZM76 56L78 56L78 54L76 54ZM56 54L58 54L58 52L56 52ZM72 54L74 54L74 52L72 52ZM54 52L56 52L56 50L58 50L58 48L52 48L52 50L54 50ZM74 52L80 52L80 50L74 50ZM82 52L84 52L84 46L82 46L82 44L80 44L80 42L78 42L78 44L76 44L76 46L80 46L80 50L82 50ZM42 50L42 48L46 48L46 50ZM72 50L74 50L74 48L72 48ZM70 48L72 48L72 46L70 46ZM66 46L68 46L68 44L66 44ZM72 46L74 46L74 44L72 44ZM14 44L14 42L12 42L12 40L16 40L16 44ZM52 44L52 42L54 42L54 44ZM68 44L72 44L72 42L68 42ZM74 44L76 44L76 42L74 42ZM82 44L84 44L84 42L82 42ZM32 42L36 42L36 40L32 40ZM44 42L48 42L48 40L46 40L46 34L44 34L44 36L42 36L42 38L40 38L40 40L44 40ZM72 42L74 42L74 36L72 36L72 38L70 38L70 40L72 40ZM80 42L82 42L82 40L84 40L84 38L78 38L78 40L80 40ZM36 40L38 40L38 38L36 38ZM38 38L40 38L40 34L38 34ZM56 38L58 38L58 36L56 36ZM76 38L78 38L78 36L80 36L80 34L74 34L74 36L76 36ZM22 36L24 36L24 34L22 34ZM26 36L28 36L28 30L26 30L26 28L24 28L24 30L22 30L22 32L26 32ZM54 36L56 36L56 32L54 32L54 30L50 30L50 32L52 32L52 34L54 34ZM60 36L62 36L62 34L60 34ZM64 36L66 36L66 34L64 34ZM68 36L72 36L72 32L70 32L70 34L68 34ZM82 36L84 36L84 34L82 34ZM12 34L14 34L14 30L10 30L10 32L12 32ZM20 34L22 34L22 32L20 32ZM36 34L38 34L38 32L36 32ZM42 34L44 34L44 32L42 32ZM58 34L60 34L60 32L58 32ZM62 34L64 34L64 32L70 32L70 28L68 28L68 26L66 26L66 24L64 24L64 22L66 22L66 24L68 24L68 16L54 16L54 18L56 18L56 20L58 20L58 24L56 24L56 26L58 26L58 28L66 28L66 30L62 30ZM16 32L20 32L20 28L24 28L24 26L14 26L14 28L18 28L18 30L16 30ZM38 32L40 32L40 30L44 30L44 28L42 28L42 26L44 26L44 18L46 18L46 16L44 16L44 14L42 14L42 12L40 12L40 14L36 14L36 10L34 10L34 12L32 12L32 14L34 14L34 16L36 16L36 18L34 18L34 16L32 16L32 14L30 14L30 12L32 12L32 10L28 10L28 14L26 14L26 26L30 26L30 24L28 24L28 22L30 22L30 18L32 18L32 22L34 22L34 26L36 26L36 20L40 20L40 18L38 18L38 16L40 16L40 18L42 18L42 24L40 24L40 22L38 22L38 26L40 26L40 28L38 28L38 26L36 26L36 28L34 28L34 30L38 30ZM72 32L74 32L74 28L78 28L78 30L80 30L80 26L70 26L70 28L72 28ZM80 32L84 32L84 30L80 30ZM28 30L30 30L30 28L28 28ZM56 30L58 30L58 28L56 28ZM10 28L12 28L12 26L10 26ZM30 28L32 28L32 26L30 26ZM46 28L50 28L50 26L46 26ZM54 28L56 28L56 26L54 26ZM50 26L54 26L54 24L52 24L52 22L54 22L54 18L50 18L50 16L54 16L54 10L50 10L50 12L52 12L52 14L50 14L50 12L48 12L48 18L46 18L46 24L48 24L48 20L50 20ZM60 26L60 18L66 18L66 20L62 20L62 26ZM10 24L24 24L24 10L10 10ZM30 24L32 24L32 22L30 22ZM54 24L56 24L56 22L54 22ZM70 24L84 24L84 10L70 10ZM12 22L12 12L22 12L22 22ZM72 22L72 12L82 12L82 22ZM14 20L20 20L20 14L14 14ZM74 20L80 20L80 14L74 14ZM58 14L66 14L66 12L60 12L60 10L56 10L56 12L58 12ZM38 12L40 12L40 10L38 10ZM42 12L48 12L48 10L42 10ZM66 12L68 12L68 10L66 10Z" fill="#000000" fill-rule="evenodd" />
</svg>
