<svg viewBox="0 0 87 87" xmlns="http://www.w3.org/2000/svg">
<rect width="100%" height="100%" fill="#FFFFFF" />
<path d="M0 0L0 87L87 87L87 0ZM2 2L85 2L85 85L2 85Z" fill="#ffffff" fill-rule="evenodd" />
<path d="M10 76L24 76L24 62L10 62ZM26 76L30 76L30 74L26 74ZM32 76L38 76L38 74L36 74L36 72L40 72L40 68L38 68L38 70L34 70L34 64L32 64L32 66L30 66L30 70L32 70L32 72L34 72L34 74L32 74ZM42 76L46 76L46 74L44 74L44 70L42 70L42 72L40 72L40 74L42 74ZM48 76L50 76L50 74L52 74L52 72L50 72L50 70L46 70L46 74L48 74ZM56 76L60 76L60 74L56 74ZM64 76L68 76L68 74L76 74L76 66L74 66L74 68L72 68L72 64L70 64L70 62L68 62L68 58L72 58L72 56L70 56L70 52L72 52L72 50L74 50L74 48L68 48L68 44L70 44L70 46L74 46L74 44L72 44L72 42L74 42L74 44L76 44L76 40L70 40L70 38L66 38L66 50L64 50L64 54L62 54L62 56L64 56L64 58L60 58L60 56L58 56L58 60L54 60L54 62L56 62L56 66L52 66L52 68L56 68L56 70L58 70L58 72L62 72L62 68L64 68L64 70L66 70L66 68L70 68L70 70L72 70L72 72L70 72L70 70L66 70L66 72L62 72L62 74L64 74ZM12 74L12 64L22 64L22 74ZM14 72L20 72L20 66L14 66ZM28 72L30 72L30 70L28 70ZM52 72L56 72L56 70L52 70ZM26 70L28 70L28 66L30 66L30 64L32 64L32 62L34 62L34 64L36 64L36 60L38 60L38 62L40 62L40 64L42 64L42 62L44 62L44 60L42 60L42 58L40 58L40 56L38 56L38 58L36 58L36 56L34 56L34 52L32 52L32 56L28 56L28 58L30 58L30 62L28 62L28 60L26 60ZM44 70L46 70L46 68L50 68L50 66L44 66ZM50 70L52 70L52 68L50 68ZM36 68L38 68L38 66L36 66ZM40 68L42 68L42 66L40 66ZM38 66L40 66L40 64L38 64ZM42 66L44 66L44 64L42 64ZM60 66L60 60L66 60L66 66ZM46 64L54 64L54 62L46 62ZM62 64L64 64L64 62L62 62ZM70 62L74 62L74 60L70 60ZM10 60L14 60L14 58L12 58L12 54L14 54L14 50L22 50L22 48L24 48L24 46L22 46L22 44L24 44L24 42L20 42L20 40L18 40L18 38L16 38L16 36L12 36L12 38L10 38L10 42L14 42L14 44L12 44L12 48L10 48ZM16 60L18 60L18 58L20 58L20 56L18 56L18 54L20 54L20 52L16 52L16 54L14 54L14 58L16 58ZM22 60L24 60L24 58L22 58ZM32 60L32 58L34 58L34 60ZM46 60L50 60L50 56L44 56L44 52L42 52L42 54L40 54L40 56L42 56L42 58L46 58ZM74 60L76 60L76 58L74 58ZM24 58L26 58L26 56L24 56ZM54 58L56 58L56 56L58 56L58 52L56 52L56 54L54 54ZM22 56L24 56L24 54L22 54ZM26 56L28 56L28 52L24 52L24 54L26 54ZM36 56L38 56L38 54L36 54ZM50 56L52 56L52 54L50 54ZM72 56L76 56L76 52L72 52ZM46 54L50 54L50 48L52 48L52 46L54 46L54 44L60 44L60 46L54 46L54 48L56 48L56 50L58 50L58 48L64 48L64 46L62 46L62 44L64 44L64 38L62 38L62 40L60 40L60 42L56 42L56 38L54 38L54 34L52 34L52 36L50 36L50 38L46 38L46 36L50 36L50 32L48 32L48 34L46 34L46 32L48 32L48 30L44 30L44 34L42 34L42 26L40 26L40 20L42 20L42 18L38 18L38 24L36 24L36 26L34 26L34 28L40 28L40 30L38 30L38 34L36 34L36 36L28 36L28 38L30 38L30 40L32 40L32 38L34 38L34 40L38 40L38 36L42 36L42 40L46 40L46 42L50 42L50 40L54 40L54 42L50 42L50 44L46 44L46 46L48 46L48 48L44 48L44 46L42 46L42 44L38 44L38 42L36 42L36 46L40 46L40 48L42 48L42 50L48 50L48 52L46 52ZM60 54L62 54L62 50L58 50L58 52L60 52ZM22 52L24 52L24 50L22 50ZM28 52L32 52L32 50L34 50L34 48L30 48L30 50L28 50ZM34 52L36 52L36 50L34 50ZM38 52L42 52L42 50L38 50ZM36 50L38 50L38 48L36 48ZM14 48L14 46L16 46L16 48ZM18 48L18 44L20 44L20 48ZM28 48L30 48L30 46L28 46ZM74 48L76 48L76 46L74 46ZM24 46L26 46L26 44L24 44ZM26 44L34 44L34 42L28 42L28 40L26 40ZM42 44L46 44L46 42L42 42ZM40 42L42 42L42 40L40 40ZM22 40L26 40L26 34L28 34L28 32L26 32L26 30L22 30L22 28L26 28L26 30L28 30L28 26L16 26L16 28L12 28L12 32L10 32L10 36L12 36L12 34L14 34L14 30L16 30L16 34L18 34L18 28L20 28L20 32L24 32L24 34L18 34L18 36L20 36L20 38L22 38L22 36L24 36L24 38L22 38ZM58 40L60 40L60 38L58 38ZM56 38L58 38L58 36L60 36L60 34L56 34ZM60 38L62 38L62 36L60 36ZM64 38L66 38L66 36L64 36ZM74 38L76 38L76 36L74 36ZM62 36L64 36L64 34L62 34ZM66 36L68 36L68 26L66 26L66 28L64 28L64 30L60 30L60 34L62 34L62 32L66 32ZM70 36L74 36L74 34L72 34L72 32L74 32L74 34L76 34L76 26L70 26ZM32 34L34 34L34 28L32 28L32 26L30 26L30 32L32 32ZM50 32L52 32L52 30L50 30ZM56 32L58 32L58 24L56 24L56 22L54 22L54 26L56 26ZM48 30L50 30L50 26L48 26ZM72 30L72 28L74 28L74 30ZM10 28L12 28L12 26L10 26ZM44 28L46 28L46 26L44 26ZM52 28L54 28L54 26L52 26ZM60 28L62 28L62 26L60 26ZM28 26L30 26L30 24L28 24ZM46 26L48 26L48 18L46 18L46 20L44 20L44 22L46 22ZM50 26L52 26L52 20L56 20L56 22L58 22L58 18L52 18L52 16L48 16L48 18L50 18ZM10 24L24 24L24 10L10 10ZM26 24L28 24L28 22L26 22ZM30 24L32 24L32 22L34 22L34 20L30 20ZM34 24L36 24L36 22L34 22ZM42 24L44 24L44 22L42 22ZM58 24L60 24L60 22L58 22ZM62 24L76 24L76 10L62 10ZM12 22L12 12L22 12L22 22ZM64 22L64 12L74 12L74 22ZM14 20L20 20L20 14L14 14ZM26 20L28 20L28 18L26 18ZM66 20L72 20L72 14L66 14ZM28 18L30 18L30 16L28 16ZM32 18L34 18L34 16L32 16ZM58 18L60 18L60 14L56 14L56 16L58 16ZM26 16L28 16L28 10L26 10ZM40 16L48 16L48 14L46 14L46 12L44 12L44 14L40 14ZM52 16L54 16L54 14L52 14ZM34 14L36 14L36 12L34 12ZM48 14L52 14L52 12L50 12L50 10L48 10ZM54 14L56 14L56 12L54 12ZM52 12L54 12L54 10L52 10ZM56 12L58 12L58 10L56 10Z" fill="#000000" fill-rule="evenodd" />
</svg>
