<svg viewBox="0 0 79 79" xmlns="http://www.w3.org/2000/svg">
<rect width="100%" height="100%" fill="#FFFFFF" />
<path d="M0 0L0 79L79 79L79 0ZM2 2L77 2L77 77L2 77Z" fill="#ffffff" fill-rule="evenodd" />
<path d="M10 68L24 68L24 54L10 54ZM26 68L28 68L28 66L26 66ZM30 68L38 68L38 66L34 66L34 64L42 64L42 60L40 60L40 62L36 62L36 60L34 60L34 54L40 54L40 56L42 56L42 54L44 54L44 52L46 52L46 48L44 48L44 50L42 50L42 52L38 52L38 48L40 48L40 50L42 50L42 46L44 46L44 44L42 44L42 42L40 42L40 40L38 40L38 42L32 42L32 44L34 44L34 48L36 48L36 50L34 50L34 48L32 48L32 44L30 44L30 48L26 48L26 50L22 50L22 52L26 52L26 56L28 56L28 58L26 58L26 60L28 60L28 62L30 62L30 64L32 64L32 66L30 66ZM42 68L46 68L46 62L52 62L52 66L54 66L54 64L56 64L56 62L54 62L54 60L58 60L58 62L60 62L60 66L62 66L62 60L60 60L60 58L62 58L62 56L60 56L60 52L62 52L62 56L64 56L64 52L66 52L66 50L68 50L68 44L66 44L66 42L62 42L62 40L60 40L60 44L64 44L64 50L62 50L62 46L60 46L60 48L58 48L58 46L60 46L60 44L54 44L54 40L56 40L56 38L58 38L58 40L60 40L60 38L64 38L64 36L66 36L66 32L64 32L64 34L62 34L62 36L60 36L60 34L56 34L56 36L54 36L54 38L50 38L50 40L46 40L46 38L44 38L44 40L42 40L42 42L44 42L44 44L46 44L46 42L50 42L50 44L52 44L52 48L48 48L48 52L50 52L50 54L46 54L46 56L48 56L48 60L46 60L46 56L42 56L42 60L44 60L44 64L42 64ZM50 68L52 68L52 66L50 66ZM56 68L60 68L60 66L56 66ZM62 68L66 68L66 66L68 66L68 60L66 60L66 62L64 62L64 66L62 66ZM12 66L12 56L22 56L22 66ZM28 66L30 66L30 64L28 64ZM48 66L50 66L50 64L48 64ZM14 64L20 64L20 58L14 58ZM36 60L40 60L40 56L38 56L38 58L36 58ZM30 58L30 54L28 54L28 52L30 52L30 50L32 50L32 58ZM52 58L52 52L58 52L58 58ZM64 58L66 58L66 56L64 56ZM54 56L56 56L56 54L54 54ZM66 56L68 56L68 54L66 54ZM10 52L14 52L14 50L10 50ZM16 52L20 52L20 50L18 50L18 48L16 48L16 46L20 46L20 48L24 48L24 46L22 46L22 44L18 44L18 42L16 42L16 40L14 40L14 44L10 44L10 46L14 46L14 50L16 50ZM46 48L48 48L48 44L46 44ZM24 46L26 46L26 44L24 44ZM36 46L36 44L40 44L40 46ZM22 44L24 44L24 42L22 42ZM28 44L30 44L30 42L28 42ZM18 42L22 42L22 40L24 40L24 38L22 38L22 36L26 36L26 32L24 32L24 34L18 34L18 32L16 32L16 34L14 34L14 36L20 36L20 38L18 38ZM56 42L58 42L58 40L56 40ZM66 42L68 42L68 36L66 36ZM26 40L36 40L36 38L40 38L40 40L42 40L42 36L38 36L38 32L42 32L42 30L36 30L36 32L34 32L34 34L36 34L36 36L34 36L34 38L30 38L30 36L26 36ZM12 38L14 38L14 36L12 36ZM32 36L34 36L34 34L32 34ZM42 36L48 36L48 34L46 34L46 30L48 30L48 28L46 28L46 26L48 26L48 28L50 28L50 24L48 24L48 22L46 22L46 24L44 24L44 32L42 32ZM50 36L54 36L54 34L50 34ZM10 34L14 34L14 32L16 32L16 30L14 30L14 28L12 28L12 30L10 30ZM28 34L32 34L32 28L30 28L30 32L28 32ZM48 34L50 34L50 32L48 32ZM54 34L56 34L56 32L60 32L60 30L62 30L62 26L52 26L52 28L50 28L50 30L54 30L54 28L56 28L56 30L54 30ZM60 34L62 34L62 32L60 32ZM20 32L24 32L24 30L22 30L22 28L20 28L20 26L18 26L18 30L20 30ZM62 32L64 32L64 30L62 30ZM66 32L68 32L68 26L66 26L66 28L64 28L64 30L66 30ZM24 30L28 30L28 26L30 26L30 24L28 24L28 18L30 18L30 12L28 12L28 16L26 16L26 26L22 26L22 28L24 28ZM10 28L12 28L12 26L10 26ZM32 28L34 28L34 24L32 24ZM36 28L42 28L42 26L40 26L40 22L42 22L42 20L40 20L40 18L42 18L42 20L48 20L48 22L50 22L50 16L46 16L46 18L44 18L44 16L46 16L46 14L44 14L44 12L42 12L42 14L40 14L40 16L38 16L38 18L34 18L34 16L38 16L38 14L36 14L36 12L34 12L34 14L32 14L32 18L30 18L30 20L34 20L34 24L36 24L36 22L38 22L38 26L36 26ZM10 24L24 24L24 10L10 10ZM30 24L32 24L32 22L30 22ZM42 24L44 24L44 22L42 22ZM50 24L52 24L52 22L50 22ZM54 24L68 24L68 10L54 10ZM12 22L12 12L22 12L22 22ZM56 22L56 12L66 12L66 22ZM14 20L20 20L20 14L14 14ZM58 20L64 20L64 14L58 14ZM46 14L52 14L52 12L46 12ZM26 12L28 12L28 10L26 10ZM30 12L34 12L34 10L30 10ZM44 12L46 12L46 10L44 10Z" fill="#000000" fill-rule="evenodd" />
</svg>
