<svg viewBox="0 0 131 43" xmlns="http://www.w3.org/2000/svg">
<rect width="100%" height="100%" fill="#FFFFFF" />
<path d="M0 0L0 43L131 43L131 0ZM2 2L129 2L129 41L2 41Z" fill="#ffffff" fill-rule="evenodd" />
<path d="M6 36L12 36L12 32L10 32L10 34L8 34L8 30L6 30ZM14 36L16 36L16 34L18 34L18 36L20 36L20 34L22 34L22 30L20 30L20 26L26 26L26 30L24 30L24 32L28 32L28 26L30 26L30 28L32 28L32 24L36 24L36 22L38 22L38 24L40 24L40 20L46 20L46 18L44 18L44 16L42 16L42 18L40 18L40 14L42 14L42 12L38 12L38 10L42 10L42 12L46 12L46 14L50 14L50 10L48 10L48 6L42 6L42 8L40 8L40 6L38 6L38 8L36 8L36 6L34 6L34 10L36 10L36 18L34 18L34 20L30 20L30 18L34 18L34 16L32 16L32 12L34 12L34 10L30 10L30 16L28 16L28 18L24 18L24 16L26 16L26 14L24 14L24 12L28 12L28 10L30 10L30 8L28 8L28 6L26 6L26 10L22 10L22 22L24 22L24 20L28 20L28 22L30 22L30 24L22 24L22 22L18 22L18 24L16 24L16 26L12 26L12 28L16 28L16 30L18 30L18 32L16 32L16 30L14 30ZM22 36L24 36L24 34L22 34ZM26 36L28 36L28 34L26 34ZM30 36L32 36L32 34L34 34L34 32L32 32L32 30L30 30ZM34 36L36 36L36 34L34 34ZM38 36L40 36L40 34L38 34ZM42 36L48 36L48 32L50 32L50 36L52 36L52 34L54 34L54 36L56 36L56 34L58 34L58 36L60 36L60 32L58 32L58 30L56 30L56 32L54 32L54 28L56 28L56 26L52 26L52 24L56 24L56 22L58 22L58 24L60 24L60 22L62 22L62 20L64 20L64 18L66 18L66 20L72 20L72 22L76 22L76 20L74 20L74 16L76 16L76 14L78 14L78 12L74 12L74 14L72 14L72 12L70 12L70 16L72 16L72 18L68 18L68 16L62 16L62 18L60 18L60 20L54 20L54 22L50 22L50 24L48 24L48 26L50 26L50 28L52 28L52 30L50 30L50 28L48 28L48 30L42 30L42 32L40 32L40 34L42 34ZM62 36L64 36L64 34L66 34L66 36L68 36L68 32L62 32ZM70 36L72 36L72 34L70 34ZM74 36L76 36L76 34L74 34ZM78 36L80 36L80 34L82 34L82 36L88 36L88 34L90 34L90 32L88 32L88 30L82 30L82 32L78 32ZM90 36L92 36L92 34L90 34ZM94 36L96 36L96 34L94 34ZM98 36L100 36L100 32L98 32ZM102 36L104 36L104 32L106 32L106 30L104 30L104 28L102 28L102 30L100 30L100 32L102 32ZM106 36L108 36L108 34L106 34ZM110 36L112 36L112 34L110 34ZM114 36L124 36L124 26L120 26L120 24L116 24L116 26L114 26L114 24L112 24L112 28L110 28L110 22L102 22L102 24L104 24L104 28L106 28L106 24L108 24L108 30L110 30L110 32L112 32L112 34L114 34ZM36 34L38 34L38 32L40 32L40 28L48 28L48 26L44 26L44 24L42 24L42 26L38 26L38 30L36 30ZM44 34L44 32L46 32L46 34ZM72 34L74 34L74 30L72 30L72 28L70 28L70 32L72 32ZM84 34L84 32L86 32L86 34ZM108 34L110 34L110 32L108 32ZM116 34L116 28L122 28L122 34ZM60 32L62 32L62 30L60 30ZM90 32L98 32L98 28L96 28L96 30L92 30L92 24L88 24L88 30L90 30ZM118 32L120 32L120 30L118 30ZM22 30L24 30L24 28L22 28ZM62 30L68 30L68 28L66 28L66 26L64 26L64 28L62 28ZM74 30L80 30L80 28L78 28L78 24L76 24L76 26L72 26L72 28L74 28ZM6 28L8 28L8 26L6 26ZM58 28L60 28L60 26L58 26ZM80 28L86 28L86 26L82 26L82 24L80 24ZM94 28L96 28L96 26L94 26ZM98 28L102 28L102 24L98 24ZM8 26L12 26L12 24L10 24L10 22L6 22L6 24L8 24ZM36 26L38 26L38 24L36 24ZM68 26L72 26L72 24L70 24L70 22L66 22L66 24L68 24ZM44 24L46 24L46 22L44 22ZM62 24L64 24L64 22L62 22ZM84 24L86 24L86 22L84 22ZM92 24L98 24L98 20L116 20L116 16L114 16L114 12L112 12L112 18L108 18L108 16L110 16L110 14L106 14L106 16L104 16L104 12L102 12L102 18L96 18L96 16L94 16L94 20L96 20L96 22L94 22L94 20L92 20ZM114 24L116 24L116 22L114 22ZM120 24L124 24L124 22L122 22L122 20L124 20L124 18L122 18L122 16L118 16L118 20L116 20L116 22L120 22ZM48 22L50 22L50 20L52 20L52 18L50 18L50 16L46 16L46 18L48 18ZM80 22L84 22L84 20L90 20L90 16L88 16L88 18L82 18L82 20L80 20ZM6 20L20 20L20 6L6 6ZM76 20L78 20L78 18L76 18ZM8 18L8 8L18 8L18 18ZM54 18L60 18L60 16L58 16L58 14L56 14L56 16L54 16ZM10 16L16 16L16 10L10 10ZM44 16L46 16L46 14L44 14ZM50 16L54 16L54 14L50 14ZM60 16L62 16L62 14L60 14ZM80 16L86 16L86 14L84 14L84 12L86 12L86 14L88 14L88 12L92 12L92 10L88 10L88 6L82 6L82 8L80 8L80 10L82 10L82 12L80 12ZM90 16L94 16L94 14L90 14ZM96 16L100 16L100 14L98 14L98 12L96 12L96 6L94 6L94 14L96 14ZM122 16L124 16L124 14L122 14ZM62 14L68 14L68 12L66 12L66 10L64 10L64 12L62 12ZM116 14L118 14L118 12L116 12ZM54 12L56 12L56 10L54 10ZM58 12L60 12L60 10L58 10ZM72 12L74 12L74 10L72 10ZM98 12L102 12L102 10L104 10L104 12L112 12L112 10L114 10L114 12L116 12L116 6L114 6L114 8L112 8L112 6L110 6L110 8L108 8L108 6L106 6L106 8L104 8L104 6L102 6L102 8L100 8L100 10L98 10ZM118 12L124 12L124 6L118 6ZM44 10L44 8L46 8L46 10ZM50 10L52 10L52 6L50 6ZM56 10L58 10L58 8L56 8ZM68 10L72 10L72 6L70 6L70 8L68 8ZM84 10L84 8L86 8L86 10ZM120 10L120 8L122 8L122 10ZM22 8L24 8L24 6L22 6ZM30 8L32 8L32 6L30 6ZM54 8L56 8L56 6L54 6ZM58 8L60 8L60 6L58 6ZM62 8L64 8L64 6L62 6ZM66 8L68 8L68 6L66 6ZM74 8L76 8L76 6L74 6ZM78 8L80 8L80 6L78 6ZM90 8L92 8L92 6L90 6ZM98 8L100 8L100 6L98 6Z" fill="#000000" fill-rule="evenodd" />
</svg>
