<svg viewBox="0 0 95 95" xmlns="http://www.w3.org/2000/svg">
<rect width="100%" height="100%" fill="#FFFFFF" />
<path d="M0 0L0 95L95 95L95 0ZM2 2L93 2L93 93L2 93Z" fill="#ffffff" fill-rule="evenodd" />
<path d="M10 84L24 84L24 70L10 70ZM26 84L28 84L28 82L26 82ZM30 84L32 84L32 82L34 82L34 78L30 78ZM34 84L36 84L36 82L34 82ZM44 84L46 84L46 82L44 82ZM54 84L56 84L56 82L54 82ZM60 84L62 84L62 82L60 82ZM64 84L66 84L66 82L64 82ZM76 84L84 84L84 70L82 70L82 72L80 72L80 74L76 74L76 72L80 72L80 70L76 70L76 66L74 66L74 60L72 60L72 62L70 62L70 64L72 64L72 66L68 66L68 60L66 60L66 62L64 62L64 64L62 64L62 66L60 66L60 68L66 68L66 72L62 72L62 74L58 74L58 76L66 76L66 78L68 78L68 76L70 76L70 78L76 78L76 76L82 76L82 78L78 78L78 80L82 80L82 82L76 82ZM12 82L12 72L22 72L22 82ZM36 82L40 82L40 78L44 78L44 76L42 76L42 74L40 74L40 76L36 76ZM42 82L44 82L44 80L42 80ZM46 82L48 82L48 80L46 80ZM52 82L54 82L54 78L50 78L50 80L52 80ZM56 82L60 82L60 80L66 80L66 78L58 78L58 80L56 80ZM66 82L68 82L68 80L66 80ZM70 82L72 82L72 80L70 80ZM74 82L76 82L76 80L74 80ZM14 80L20 80L20 74L14 74ZM26 80L28 80L28 78L30 78L30 76L28 76L28 72L26 72ZM68 80L70 80L70 78L68 78ZM56 78L58 78L58 76L56 76ZM34 76L36 76L36 74L34 74ZM46 76L48 76L48 74L46 74ZM50 76L56 76L56 74L50 74ZM32 74L34 74L34 72L32 72ZM38 74L40 74L40 72L38 72ZM42 74L44 74L44 72L42 72ZM48 74L50 74L50 72L48 72ZM56 74L58 74L58 72L56 72ZM68 74L68 68L74 68L74 74ZM28 72L30 72L30 64L32 64L32 62L30 62L30 56L28 56L28 60L26 60L26 58L22 58L22 60L24 60L24 62L20 62L20 64L24 64L24 66L22 66L22 68L26 68L26 70L28 70ZM34 72L36 72L36 70L34 70ZM40 72L42 72L42 70L40 70ZM46 72L48 72L48 70L46 70ZM50 72L52 72L52 70L50 70ZM54 72L56 72L56 70L60 70L60 68L54 68ZM70 72L72 72L72 70L70 70ZM38 70L40 70L40 68L48 68L48 70L50 70L50 68L52 68L52 66L54 66L54 64L56 64L56 60L54 60L54 58L56 58L56 56L54 56L54 52L52 52L52 54L50 54L50 56L52 56L52 60L50 60L50 62L52 62L52 64L50 64L50 62L48 62L48 64L46 64L46 66L42 66L42 64L44 64L44 62L42 62L42 60L44 60L44 58L40 58L40 62L38 62L38 64L32 64L32 66L36 66L36 68L38 68ZM80 70L82 70L82 68L80 68ZM10 68L12 68L12 60L10 60ZM16 68L20 68L20 66L16 66ZM78 68L80 68L80 66L78 66ZM82 68L84 68L84 62L82 62ZM14 66L16 66L16 64L18 64L18 62L20 62L20 58L16 58L16 62L14 62ZM56 66L58 66L58 64L56 64ZM76 66L78 66L78 64L80 64L80 62L78 62L78 60L80 60L80 58L74 58L74 60L76 60ZM26 64L26 62L28 62L28 64ZM58 64L62 64L62 62L60 62L60 60L66 60L66 58L58 58ZM32 62L34 62L34 58L32 58ZM46 62L48 62L48 60L46 60ZM80 62L82 62L82 60L80 60ZM36 60L38 60L38 58L40 58L40 56L42 56L42 54L38 54L38 56L34 56L34 58L36 58ZM68 60L72 60L72 58L74 58L74 54L72 54L72 56L68 56ZM10 58L14 58L14 56L12 56L12 54L14 54L14 52L10 52ZM44 58L48 58L48 56L46 56L46 54L50 54L50 52L46 52L46 50L44 50L44 48L42 48L42 52L44 52ZM82 58L84 58L84 54L76 54L76 56L82 56ZM14 56L20 56L20 54L22 54L22 52L18 52L18 54L14 54ZM22 56L28 56L28 54L30 54L30 50L32 50L32 48L30 48L30 42L26 42L26 38L28 38L28 36L30 36L30 34L26 34L26 36L24 36L24 38L20 38L20 40L18 40L18 38L16 38L16 42L18 42L18 44L24 44L24 46L26 46L26 48L24 48L24 50L22 50L22 52L24 52L24 54L22 54ZM32 56L34 56L34 54L32 54ZM60 56L62 56L62 54L60 54ZM64 56L68 56L68 52L66 52L66 54L64 54ZM36 54L38 54L38 52L36 52ZM56 54L60 54L60 52L58 52L58 48L62 48L62 46L54 46L54 48L52 48L52 50L54 50L54 52L56 52ZM62 54L64 54L64 52L62 52ZM14 52L16 52L16 50L14 50ZM26 52L26 50L28 50L28 52ZM32 52L36 52L36 50L32 50ZM38 52L40 52L40 48L38 48ZM50 52L52 52L52 50L50 50ZM60 52L62 52L62 50L60 50ZM64 52L66 52L66 50L68 50L68 52L76 52L76 50L74 50L74 48L72 48L72 50L70 50L70 48L66 48L66 46L64 46L64 48L62 48L62 50L64 50ZM78 52L80 52L80 50L78 50ZM16 50L18 50L18 48L20 48L20 46L14 46L14 48L16 48ZM20 50L22 50L22 48L20 48ZM76 50L78 50L78 48L76 48ZM80 50L84 50L84 46L82 46L82 48L80 48ZM22 48L24 48L24 46L22 46ZM32 48L34 48L34 46L32 46ZM36 48L38 48L38 46L36 46ZM50 48L52 48L52 46L50 46ZM70 48L72 48L72 46L70 46ZM78 48L80 48L80 46L78 46ZM40 46L44 46L44 44L42 44L42 42L40 42ZM52 46L54 46L54 44L56 44L56 42L52 42L52 38L50 38L50 44L52 44ZM62 46L64 46L64 44L62 44ZM68 46L70 46L70 44L68 44ZM72 46L74 46L74 44L72 44ZM76 46L78 46L78 44L80 44L80 46L82 46L82 44L84 44L84 38L82 38L82 42L74 42L74 44L76 44ZM10 44L12 44L12 40L10 40ZM14 44L16 44L16 42L14 42ZM32 44L36 44L36 42L34 42L34 40L36 40L36 38L40 38L40 36L38 36L38 32L40 32L40 36L46 36L46 34L42 34L42 32L48 32L48 36L46 36L46 40L48 40L48 38L50 38L50 36L52 36L52 34L54 34L54 32L50 32L50 30L48 30L48 28L46 28L46 30L42 30L42 28L40 28L40 26L38 26L38 28L36 28L36 22L38 22L38 24L40 24L40 20L34 20L34 30L32 30L32 32L36 32L36 34L34 34L34 36L30 36L30 40L32 40ZM46 44L48 44L48 42L46 42ZM58 44L62 44L62 42L60 42L60 40L62 40L62 38L58 38ZM64 44L68 44L68 42L64 42ZM70 44L72 44L72 42L74 42L74 40L72 40L72 38L70 38L70 40L68 40L68 42L70 42ZM22 42L22 40L24 40L24 42ZM42 42L44 42L44 40L42 40ZM62 42L64 42L64 40L62 40ZM40 40L42 40L42 38L40 38ZM54 40L56 40L56 38L58 38L58 36L54 36ZM64 40L68 40L68 38L70 38L70 36L66 36L66 38L64 38ZM74 40L78 40L78 38L82 38L82 36L80 36L80 34L74 34L74 32L72 32L72 34L70 34L70 36L76 36L76 38L74 38ZM12 38L14 38L14 36L20 36L20 32L18 32L18 34L16 34L16 32L18 32L18 30L14 30L14 28L12 28L12 30L10 30L10 32L12 32ZM62 38L64 38L64 36L62 36ZM22 36L24 36L24 34L22 34ZM58 36L62 36L62 34L60 34L60 32L58 32ZM64 36L66 36L66 34L64 34ZM24 34L26 34L26 32L28 32L28 30L22 30L22 32L24 32ZM62 34L64 34L64 32L68 32L68 34L70 34L70 32L72 32L72 30L68 30L68 28L66 28L66 30L60 30L60 32L62 32ZM82 34L84 34L84 30L82 30ZM54 32L56 32L56 28L54 28L54 26L56 26L56 22L54 22L54 24L52 24L52 22L54 22L54 20L60 20L60 18L58 18L58 14L60 14L60 12L56 12L56 18L52 18L52 20L50 20L50 24L48 24L48 22L46 22L46 24L44 24L44 22L42 22L42 24L40 24L40 26L42 26L42 28L44 28L44 26L52 26L52 28L50 28L50 30L54 30ZM74 32L76 32L76 30L74 30ZM78 32L80 32L80 30L78 30ZM18 30L22 30L22 28L24 28L24 26L14 26L14 28L18 28ZM28 30L32 30L32 22L30 22L30 26L28 26ZM58 30L60 30L60 28L58 28ZM72 30L74 30L74 28L80 28L80 26L70 26L70 28L72 28ZM80 30L82 30L82 28L80 28ZM10 28L12 28L12 26L10 26ZM60 28L66 28L66 26L68 26L68 20L64 20L64 18L62 18L62 24L64 24L64 22L66 22L66 24L64 24L64 26L60 26ZM26 26L28 26L28 20L30 20L30 18L32 18L32 16L34 16L34 10L30 10L30 14L26 14ZM58 26L60 26L60 22L58 22ZM10 24L24 24L24 10L10 10ZM70 24L84 24L84 10L70 10ZM12 22L12 12L22 12L22 22ZM44 22L46 22L46 20L50 20L50 18L46 18L46 16L44 16L44 18L42 18L42 20L44 20ZM72 22L72 12L82 12L82 22ZM14 20L20 20L20 14L14 14ZM74 20L80 20L80 14L74 14ZM34 18L38 18L38 16L34 16ZM40 18L42 18L42 16L44 16L44 14L46 14L46 16L48 16L48 12L38 12L38 16L40 16ZM50 18L52 18L52 16L50 16ZM60 18L62 18L62 16L60 16ZM64 18L68 18L68 16L64 16ZM52 16L54 16L54 14L52 14ZM50 14L52 14L52 12L50 12ZM64 14L68 14L68 12L64 12ZM36 12L38 12L38 10L36 10ZM52 12L54 12L54 10L52 10ZM62 12L64 12L64 10L62 10Z" fill="#000000" fill-rule="evenodd" />
</svg>
