<svg viewBox="0 0 95 95" xmlns="http://www.w3.org/2000/svg">
<rect width="100%" height="100%" fill="#FFFFFF" />
<path d="M0 0L0 95L95 95L95 0ZM2 2L93 2L93 93L2 93Z" fill="#ffffff" fill-rule="evenodd" />
<path d="M10 84L24 84L24 70L10 70ZM26 84L28 84L28 82L26 82ZM30 84L32 84L32 80L30 80ZM42 84L44 84L44 80L40 80L40 76L38 76L38 78L36 78L36 82L42 82ZM48 84L50 84L50 82L48 82ZM56 84L58 84L58 80L56 80ZM64 84L70 84L70 80L66 80L66 82L64 82ZM72 84L74 84L74 78L72 78ZM76 84L78 84L78 80L82 80L82 84L84 84L84 70L82 70L82 78L76 78ZM12 82L12 72L22 72L22 82ZM46 82L48 82L48 78L46 78ZM62 82L64 82L64 80L62 80ZM14 80L20 80L20 74L14 74ZM52 80L54 80L54 78L52 78ZM60 80L62 80L62 78L60 78ZM64 80L66 80L66 78L64 78ZM28 78L30 78L30 76L28 76ZM34 78L36 78L36 74L32 74L32 72L34 72L34 66L32 66L32 68L30 68L30 72L28 72L28 74L30 74L30 76L34 76ZM48 78L50 78L50 76L48 76ZM56 78L58 78L58 76L56 76ZM62 78L64 78L64 76L66 76L66 78L68 78L68 76L70 76L70 78L72 78L72 76L80 76L80 74L78 74L78 72L80 72L80 70L76 70L76 66L78 66L78 68L80 68L80 64L74 64L74 62L68 62L68 64L66 64L66 66L60 66L60 62L58 62L58 64L56 64L56 66L58 66L58 68L62 68L62 70L58 70L58 68L56 68L56 72L64 72L64 68L66 68L66 72L64 72L64 74L60 74L60 76L62 76ZM40 76L42 76L42 74L40 74ZM46 76L48 76L48 74L46 74ZM50 76L52 76L52 72L54 72L54 68L48 68L48 70L44 70L44 72L50 72ZM54 76L56 76L56 72L54 72ZM38 74L40 74L40 72L38 72ZM68 74L68 68L74 68L74 74ZM36 72L38 72L38 70L36 70ZM40 72L42 72L42 70L44 70L44 68L46 68L46 66L44 66L44 64L48 64L48 62L50 62L50 64L48 64L48 66L52 66L52 64L56 64L56 62L54 62L54 60L52 60L52 56L54 56L54 54L58 54L58 52L62 52L62 54L64 54L64 56L62 56L62 60L64 60L64 64L66 64L66 62L68 62L68 58L66 58L66 46L68 46L68 44L64 44L64 42L56 42L56 38L58 38L58 40L60 40L60 34L56 34L56 36L48 36L48 34L46 34L46 40L48 40L48 38L52 38L52 40L54 40L54 44L56 44L56 48L58 48L58 44L62 44L62 46L60 46L60 48L64 48L64 50L60 50L60 48L58 48L58 50L56 50L56 48L54 48L54 52L52 52L52 54L50 54L50 56L46 56L46 50L44 50L44 54L42 54L42 52L40 52L40 54L38 54L38 56L40 56L40 58L38 58L38 60L42 60L42 58L44 58L44 60L46 60L46 58L50 58L50 60L46 60L46 62L40 62L40 64L42 64L42 66L40 66ZM70 72L72 72L72 70L70 70ZM26 70L28 70L28 68L26 68ZM80 70L82 70L82 68L80 68ZM10 68L12 68L12 58L10 58ZM14 68L16 68L16 66L14 66ZM18 68L24 68L24 66L20 66L20 64L18 64L18 62L16 62L16 66L18 66ZM28 68L30 68L30 66L28 66ZM36 68L38 68L38 66L40 66L40 64L34 64L34 66L36 66ZM24 66L28 66L28 64L26 64L26 60L28 60L28 58L26 58L26 56L28 56L28 54L22 54L22 56L24 56L24 58L22 58L22 60L24 60L24 62L22 62L22 64L24 64ZM80 64L84 64L84 62L82 62L82 60L84 60L84 58L82 58L82 56L84 56L84 54L82 54L82 52L84 52L84 46L82 46L82 50L78 50L78 48L76 48L76 50L74 50L74 52L72 52L72 54L74 54L74 56L72 56L72 58L70 58L70 60L74 60L74 58L76 58L76 56L78 56L78 54L76 54L76 52L78 52L78 54L80 54ZM28 62L32 62L32 60L28 60ZM34 62L36 62L36 60L34 60ZM56 62L58 62L58 60L56 60ZM60 62L62 62L62 60L60 60ZM76 62L78 62L78 58L76 58ZM58 60L60 60L60 58L58 58ZM18 58L20 58L20 56L18 56ZM28 58L30 58L30 56L28 56ZM32 58L34 58L34 52L38 52L38 50L32 50L32 54L30 54L30 56L32 56ZM36 58L38 58L38 56L36 56ZM54 58L58 58L58 56L54 56ZM68 58L70 58L70 54L68 54ZM14 56L16 56L16 54L14 54ZM60 56L62 56L62 54L60 54ZM10 54L14 54L14 52L12 52L12 50L10 50ZM16 54L20 54L20 52L28 52L28 50L32 50L32 48L24 48L24 50L20 50L20 48L24 48L24 46L22 46L22 44L20 44L20 40L24 40L24 42L22 42L22 44L28 44L28 42L26 42L26 40L30 40L30 38L22 38L22 36L20 36L20 38L18 38L18 36L20 36L20 34L18 34L18 32L16 32L16 34L14 34L14 36L12 36L12 38L16 38L16 42L18 42L18 44L16 44L16 48L18 48L18 52L16 52ZM48 54L50 54L50 52L48 52ZM14 52L16 52L16 50L14 50ZM50 52L52 52L52 48L50 48ZM68 52L72 52L72 48L70 48L70 50L68 50ZM12 50L14 50L14 48L12 48ZM38 50L44 50L44 48L46 48L46 50L48 50L48 48L50 48L50 46L44 46L44 44L42 44L42 48L38 48ZM10 48L12 48L12 46L10 46ZM34 48L36 48L36 46L40 46L40 44L38 44L38 40L36 40L36 42L34 42L34 36L32 36L32 40L30 40L30 44L32 44L32 46L34 46ZM52 48L54 48L54 46L52 46ZM72 48L76 48L76 46L74 46L74 44L72 44ZM78 48L80 48L80 46L78 46ZM28 46L30 46L30 44L28 44ZM76 46L78 46L78 44L76 44ZM80 46L82 46L82 44L80 44ZM12 44L16 44L16 42L14 42L14 40L10 40L10 42L12 42ZM46 44L48 44L48 42L46 42ZM68 44L72 44L72 42L68 42ZM74 44L76 44L76 42L74 42ZM78 44L80 44L80 42L82 42L82 44L84 44L84 38L82 38L82 36L84 36L84 34L80 34L80 40L76 40L76 42L78 42ZM40 42L42 42L42 36L44 36L44 34L40 34L40 32L44 32L44 26L48 26L48 22L46 22L46 24L44 24L44 22L42 22L42 24L40 24L40 28L42 28L42 30L38 30L38 32L36 32L36 34L34 34L34 36L40 36ZM50 42L52 42L52 40L50 40ZM66 42L68 42L68 34L64 34L64 36L62 36L62 38L64 38L64 40L66 40ZM70 40L72 40L72 38L70 38ZM72 38L74 38L74 34L72 34L72 32L74 32L74 30L80 30L80 28L82 28L82 26L76 26L76 28L72 28L72 30L70 30L70 32L68 32L68 34L70 34L70 36L72 36ZM22 36L32 36L32 34L28 34L28 32L26 32L26 34L22 34ZM76 36L78 36L78 32L74 32L74 34L76 34ZM10 34L12 34L12 32L10 32ZM48 34L52 34L52 32L50 32L50 30L48 30ZM20 32L24 32L24 30L20 30ZM28 32L32 32L32 30L34 30L34 26L32 26L32 22L34 22L34 20L36 20L36 18L32 18L32 14L34 14L34 16L36 16L36 12L34 12L34 10L32 10L32 12L30 12L30 18L28 18L28 22L30 22L30 30L28 30ZM34 32L36 32L36 30L34 30ZM58 32L60 32L60 28L62 28L62 30L64 30L64 32L68 32L68 30L66 30L66 28L64 28L64 26L60 26L60 22L62 22L62 24L64 24L64 20L58 20L58 28L56 28L56 20L58 20L58 18L54 18L54 14L52 14L52 16L50 16L50 18L46 18L46 16L44 16L44 22L46 22L46 20L52 20L52 22L54 22L54 30L58 30ZM80 32L84 32L84 30L80 30ZM14 30L16 30L16 28L14 28ZM18 30L20 30L20 28L18 28ZM24 30L28 30L28 22L26 22L26 28L24 28ZM46 30L48 30L48 28L46 28ZM68 30L70 30L70 28L72 28L72 26L68 26ZM10 28L12 28L12 26L10 26ZM22 28L24 28L24 26L22 26ZM36 28L38 28L38 24L36 24L36 22L34 22L34 26L36 26ZM64 26L66 26L66 24L64 24ZM10 24L24 24L24 10L10 10ZM38 24L40 24L40 22L42 22L42 20L36 20L36 22L38 22ZM50 24L52 24L52 22L50 22ZM66 24L68 24L68 14L66 14L66 16L64 16L64 12L62 12L62 16L60 16L60 12L58 12L58 18L66 18ZM70 24L84 24L84 10L70 10ZM12 22L12 12L22 12L22 22ZM72 22L72 12L82 12L82 22ZM14 20L20 20L20 14L14 14ZM74 20L80 20L80 14L74 14ZM26 18L28 18L28 12L26 12ZM36 18L38 18L38 16L36 16ZM40 16L42 16L42 14L44 14L44 12L42 12L42 10L36 10L36 12L40 12ZM46 16L48 16L48 14L46 14ZM50 14L52 14L52 12L54 12L54 14L56 14L56 10L48 10L48 12L50 12ZM28 12L30 12L30 10L28 10ZM60 12L62 12L62 10L60 10Z" fill="#000000" fill-rule="evenodd" />
</svg>
