<svg viewBox="0 0 87 87" xmlns="http://www.w3.org/2000/svg">
<rect width="100%" height="100%" fill="#FFFFFF" />
<path d="M0 0L0 87L87 87L87 0ZM2 2L85 2L85 85L2 85Z" fill="#ffffff" fill-rule="evenodd" />
<path d="M10 76L24 76L24 62L10 62ZM26 76L28 76L28 74L26 74ZM34 76L36 76L36 74L38 74L38 70L36 70L36 68L38 68L38 66L40 66L40 62L38 62L38 64L36 64L36 62L34 62L34 60L32 60L32 56L26 56L26 58L28 58L28 60L30 60L30 66L28 66L28 68L26 68L26 70L28 70L28 74L32 74L32 70L30 70L30 68L32 68L32 66L34 66ZM40 76L44 76L44 74L40 74ZM50 76L54 76L54 72L52 72L52 70L50 70L50 72L44 72L44 74L50 74ZM56 76L60 76L60 72L58 72L58 74L56 74ZM64 76L74 76L74 74L68 74L68 68L70 68L70 66L68 66L68 64L70 64L70 54L72 54L72 50L68 50L68 56L66 56L66 58L64 58L64 56L66 56L66 54L64 54L64 52L62 52L62 58L58 58L58 62L56 62L56 60L54 60L54 64L52 64L52 62L50 62L50 66L54 66L54 68L56 68L56 64L58 64L58 68L62 68L62 70L64 70L64 68L66 68L66 74L64 74ZM12 74L12 64L22 64L22 74ZM62 74L64 74L64 72L62 72ZM14 72L20 72L20 66L14 66ZM40 72L44 72L44 70L48 70L48 68L50 68L50 66L48 66L48 62L46 62L46 58L42 58L42 60L44 60L44 64L42 64L42 66L46 66L46 68L38 68L38 70L40 70ZM70 72L72 72L72 68L70 68ZM74 72L76 72L76 70L74 70ZM52 70L54 70L54 68L52 68ZM56 70L58 70L58 68L56 68ZM74 68L76 68L76 66L74 66ZM26 66L28 66L28 64L26 64ZM60 66L60 60L66 60L66 66ZM72 66L74 66L74 62L72 62ZM62 64L64 64L64 62L62 62ZM26 62L28 62L28 60L26 60ZM36 62L38 62L38 60L36 60ZM48 62L50 62L50 60L48 60ZM74 62L76 62L76 54L74 54L74 56L72 56L72 60L74 60ZM10 60L12 60L12 58L10 58ZM16 60L20 60L20 58L18 58L18 56L14 56L14 52L16 52L16 50L18 50L18 48L16 48L16 46L14 46L14 50L12 50L12 54L10 54L10 56L12 56L12 58L16 58ZM22 60L24 60L24 58L22 58ZM34 60L36 60L36 56L40 56L40 54L42 54L42 50L44 50L44 48L40 48L40 52L38 52L38 48L36 48L36 54L34 54L34 52L32 52L32 56L34 56ZM38 60L40 60L40 58L38 58ZM52 60L54 60L54 58L58 58L58 56L56 56L56 52L58 52L58 50L60 50L60 52L62 52L62 50L64 50L64 52L66 52L66 48L56 48L56 50L54 50L54 48L52 48L52 50L48 50L48 52L52 52L52 54L54 54L54 56L52 56ZM20 58L22 58L22 56L20 56ZM40 58L42 58L42 56L40 56ZM46 58L50 58L50 56L52 56L52 54L46 54ZM22 56L26 56L26 54L22 54ZM42 56L44 56L44 54L42 54ZM16 54L20 54L20 52L16 52ZM28 54L30 54L30 52L32 52L32 50L28 50L28 44L30 44L30 40L28 40L28 42L26 42L26 48L24 48L24 50L22 50L22 48L20 48L20 52L28 52ZM58 54L60 54L60 52L58 52ZM44 52L46 52L46 50L44 50ZM10 50L12 50L12 46L10 46ZM72 50L74 50L74 48L76 48L76 46L72 46ZM18 48L20 48L20 46L22 46L22 44L24 44L24 42L20 42L20 40L18 40L18 38L20 38L20 36L16 36L16 46L18 46ZM22 48L24 48L24 46L22 46ZM30 48L36 48L36 44L34 44L34 46L30 46ZM38 48L40 48L40 46L38 46ZM44 48L46 48L46 46L50 46L50 44L52 44L52 46L54 46L54 48L56 48L56 42L54 42L54 40L58 40L58 38L54 38L54 36L56 36L56 34L54 34L54 32L52 32L52 36L50 36L50 32L52 32L52 30L54 30L54 28L48 28L48 30L46 30L46 36L44 36L44 38L46 38L46 40L44 40L44 38L42 38L42 36L40 36L40 34L38 34L38 36L36 36L36 38L40 38L40 40L42 40L42 42L40 42L40 46L44 46ZM50 48L52 48L52 46L50 46ZM66 48L68 48L68 46L66 46ZM58 46L60 46L60 44L58 44ZM62 46L64 46L64 44L68 44L68 42L66 42L66 38L64 38L64 36L66 36L66 38L68 38L68 34L66 34L66 32L62 32L62 34L60 34L60 36L62 36L62 40L64 40L64 42L62 42ZM70 46L72 46L72 44L70 44ZM12 44L14 44L14 40L12 40ZM36 44L38 44L38 40L32 40L32 42L36 42ZM72 44L76 44L76 42L72 42ZM24 42L26 42L26 40L24 40ZM48 42L48 38L52 38L52 40L50 40L50 42ZM58 42L60 42L60 40L58 40ZM10 40L12 40L12 38L10 38ZM20 40L24 40L24 38L20 38ZM26 40L28 40L28 38L26 38ZM30 40L32 40L32 36L36 36L36 34L38 34L38 32L40 32L40 30L42 30L42 36L44 36L44 30L46 30L46 28L44 28L44 26L58 26L58 24L56 24L56 22L54 22L54 24L52 24L52 22L54 22L54 20L60 20L60 12L58 12L58 10L56 10L56 12L54 12L54 10L52 10L52 14L54 14L54 18L50 18L50 14L48 14L48 12L46 12L46 16L38 16L38 14L42 14L42 12L40 12L40 10L36 10L36 20L40 20L40 18L46 18L46 20L48 20L48 22L50 22L50 24L48 24L48 22L46 22L46 24L44 24L44 22L46 22L46 20L40 20L40 22L42 22L42 24L40 24L40 22L38 22L38 26L42 26L42 28L38 28L38 26L34 26L34 28L32 28L32 26L26 26L26 28L28 28L28 32L26 32L26 34L20 34L20 36L24 36L24 38L26 38L26 36L28 36L28 34L30 34L30 36L28 36L28 38L30 38ZM72 40L74 40L74 36L70 36L70 38L72 38ZM12 38L14 38L14 36L16 36L16 34L10 34L10 36L12 36ZM74 36L76 36L76 28L72 28L72 30L74 30L74 32L72 32L72 34L74 34ZM16 34L18 34L18 32L26 32L26 30L22 30L22 28L24 28L24 26L20 26L20 30L16 30ZM32 34L32 32L30 32L30 30L34 30L34 34ZM56 34L58 34L58 32L56 32ZM68 34L70 34L70 32L68 32ZM12 32L14 32L14 30L12 30ZM54 32L56 32L56 30L54 30ZM58 32L62 32L62 30L60 30L60 28L62 28L62 26L58 26ZM70 32L72 32L72 30L70 30ZM10 30L12 30L12 26L10 26ZM14 30L16 30L16 28L14 28ZM62 30L64 30L64 28L62 28ZM16 28L18 28L18 26L16 26ZM64 28L66 28L66 26L64 26ZM10 24L24 24L24 10L10 10ZM26 24L28 24L28 20L26 20ZM30 24L32 24L32 22L30 22ZM34 24L36 24L36 22L34 22ZM58 24L60 24L60 22L58 22ZM62 24L76 24L76 10L62 10ZM12 22L12 12L22 12L22 22ZM64 22L64 12L74 12L74 22ZM14 20L20 20L20 14L14 14ZM28 20L30 20L30 18L32 18L32 16L30 16L30 12L28 12ZM32 20L34 20L34 18L32 18ZM66 20L72 20L72 14L66 14ZM56 16L56 14L58 14L58 16ZM32 14L34 14L34 12L32 12ZM44 12L46 12L46 10L44 10Z" fill="#000000" fill-rule="evenodd" />
</svg>
