<svg viewBox="0 0 79 79" xmlns="http://www.w3.org/2000/svg">
<rect width="100%" height="100%" fill="#FFFFFF" />
<path d="M0 0L0 79L79 79L79 0ZM2 2L77 2L77 77L2 77Z" fill="#ffffff" fill-rule="evenodd" />
<path d="M10 68L24 68L24 54L10 54ZM26 68L32 68L32 66L26 66ZM34 68L40 68L40 64L38 64L38 60L36 60L36 64L34 64ZM42 68L44 68L44 66L42 66ZM50 68L52 68L52 64L50 64L50 62L48 62L48 60L46 60L46 58L44 58L44 56L40 56L40 54L38 54L38 56L36 56L36 58L40 58L40 62L42 62L42 60L44 60L44 64L46 64L46 66L50 66ZM54 68L60 68L60 66L62 66L62 64L58 64L58 66L54 66ZM62 68L66 68L66 64L64 64L64 66L62 66ZM12 66L12 56L22 56L22 66ZM14 64L20 64L20 58L14 58ZM26 64L28 64L28 60L26 60ZM30 64L32 64L32 62L34 62L34 60L36 60L36 58L34 58L34 56L32 56L32 54L36 54L36 52L40 52L40 54L44 54L44 52L46 52L46 48L48 48L48 46L46 46L46 44L44 44L44 50L40 50L40 48L42 48L42 46L40 46L40 42L42 42L42 40L38 40L38 46L36 46L36 44L34 44L34 42L32 42L32 44L30 44L30 42L28 42L28 44L26 44L26 46L32 46L32 48L30 48L30 50L34 50L34 48L36 48L36 50L34 50L34 52L30 52L30 54L28 54L28 52L26 52L26 58L28 58L28 56L30 56L30 58L32 58L32 60L30 60ZM52 64L54 64L54 62L52 62ZM56 64L58 64L58 60L60 60L60 62L64 62L64 60L62 60L62 58L60 58L60 56L66 56L66 52L68 52L68 50L64 50L64 54L60 54L60 50L64 50L64 48L62 48L62 46L64 46L64 48L66 48L66 42L64 42L64 44L60 44L60 48L58 48L58 50L50 50L50 48L48 48L48 52L50 52L50 60L56 60ZM66 64L68 64L68 60L66 60ZM64 60L66 60L66 58L64 58ZM52 58L52 52L58 52L58 58ZM44 56L48 56L48 54L44 54ZM54 56L56 56L56 54L54 54ZM12 52L18 52L18 50L12 50ZM20 52L24 52L24 50L22 50L22 48L26 48L26 46L20 46ZM28 52L30 52L30 50L28 50ZM26 50L28 50L28 48L26 48ZM10 48L12 48L12 46L10 46ZM50 48L52 48L52 44L54 44L54 40L52 40L52 42L50 42ZM54 48L56 48L56 46L58 46L58 44L54 44ZM18 46L20 46L20 44L18 44ZM12 44L14 44L14 42L16 42L16 40L14 40L14 36L16 36L16 34L12 34L12 32L10 32L10 36L12 36L12 38L10 38L10 40L12 40ZM16 44L18 44L18 42L16 42ZM20 44L26 44L26 42L22 42L22 40L20 40ZM42 44L44 44L44 42L42 42ZM46 44L48 44L48 42L46 42ZM34 42L36 42L36 40L34 40ZM56 42L62 42L62 40L58 40L58 38L56 38ZM18 40L20 40L20 38L22 38L22 36L26 36L26 34L22 34L22 32L24 32L24 30L18 30ZM22 40L24 40L24 38L22 38ZM26 40L30 40L30 36L28 36L28 38L26 38ZM32 40L34 40L34 38L32 38ZM36 40L38 40L38 38L36 38ZM42 40L44 40L44 38L46 38L46 36L40 36L40 34L38 34L38 38L42 38ZM48 40L52 40L52 38L48 38ZM62 40L68 40L68 36L66 36L66 38L64 38L64 34L62 34L62 32L60 32L60 36L62 36ZM34 38L36 38L36 36L34 36ZM54 38L56 38L56 36L54 36ZM30 36L32 36L32 34L30 34ZM48 36L52 36L52 34L50 34L50 32L46 32L46 34L48 34ZM56 36L58 36L58 34L56 34ZM28 34L30 34L30 32L32 32L32 26L30 26L30 24L28 24L28 22L26 22L26 26L28 26ZM32 34L36 34L36 32L32 32ZM64 34L66 34L66 32L64 32ZM12 32L14 32L14 28L12 28L12 26L10 26L10 30L12 30ZM36 32L38 32L38 30L42 30L42 28L44 28L44 30L50 30L50 32L54 32L54 30L60 30L60 28L56 28L56 26L54 26L54 28L52 28L52 22L50 22L50 26L46 26L46 24L44 24L44 20L46 20L46 24L48 24L48 22L50 22L50 18L48 18L48 12L46 12L46 16L44 16L44 18L42 18L42 20L40 20L40 22L42 22L42 24L40 24L40 28L38 28L38 26L36 26L36 28L34 28L34 30L36 30ZM42 32L44 32L44 30L42 30ZM66 30L68 30L68 26L64 26L64 28L66 28ZM14 28L18 28L18 26L14 26ZM20 28L26 28L26 26L20 26ZM60 28L62 28L62 26L60 26ZM10 24L24 24L24 10L10 10ZM30 24L32 24L32 20L30 20L30 18L28 18L28 22L30 22ZM34 24L36 24L36 22L34 22ZM38 24L40 24L40 22L38 22ZM54 24L68 24L68 10L54 10ZM12 22L12 12L22 12L22 22ZM36 22L38 22L38 20L36 20ZM56 22L56 12L66 12L66 22ZM14 20L20 20L20 14L14 14ZM32 20L34 20L34 18L36 18L36 14L32 14L32 16L30 16L30 18L32 18ZM38 20L40 20L40 18L42 18L42 16L38 16ZM58 20L64 20L64 14L58 14ZM26 18L28 18L28 16L26 16ZM50 18L52 18L52 10L48 10L48 12L50 12ZM28 16L30 16L30 14L28 14ZM42 16L44 16L44 12L42 12ZM26 14L28 14L28 10L26 10ZM30 14L32 14L32 12L30 12ZM36 14L38 14L38 12L42 12L42 10L34 10L34 12L36 12Z" fill="#000000" fill-rule="evenodd" />
</svg>
