<svg viewBox="0 0 131 43" xmlns="http://www.w3.org/2000/svg">
<rect width="100%" height="100%" fill="#FFFFFF" />
<path d="M0 0L0 43L131 43L131 0ZM2 2L129 2L129 41L2 41Z" fill="#ffffff" fill-rule="evenodd" />
<path d="M6 36L12 36L12 34L14 34L14 36L16 36L16 34L18 34L18 30L20 30L20 24L18 24L18 22L16 22L16 24L14 24L14 22L6 22L6 24L8 24L8 26L18 26L18 28L16 28L16 30L12 30L12 28L10 28L10 30L6 30ZM18 36L20 36L20 34L18 34ZM22 36L24 36L24 34L22 34ZM26 36L28 36L28 32L30 32L30 36L32 36L32 34L34 34L34 32L32 32L32 26L28 26L28 28L30 28L30 30L24 30L24 28L22 28L22 30L20 30L20 34L22 34L22 32L26 32ZM34 36L36 36L36 34L34 34ZM38 36L40 36L40 34L38 34ZM42 36L48 36L48 32L50 32L50 30L48 30L48 28L46 28L46 30L44 30L44 28L42 28ZM50 36L52 36L52 32L50 32ZM54 36L56 36L56 34L54 34ZM58 36L60 36L60 34L58 34ZM62 36L64 36L64 34L62 34ZM66 36L68 36L68 34L66 34ZM70 36L72 36L72 32L70 32L70 30L66 30L66 32L68 32L68 34L70 34ZM74 36L76 36L76 34L74 34ZM78 36L80 36L80 32L82 32L82 36L88 36L88 30L84 30L84 28L80 28L80 26L78 26L78 30L76 30L76 28L74 28L74 22L72 22L72 20L70 20L70 24L72 24L72 26L68 26L68 24L62 24L62 26L60 26L60 28L54 28L54 32L56 32L56 30L58 30L58 32L60 32L60 30L62 30L62 28L64 28L64 26L66 26L66 28L72 28L72 30L74 30L74 32L78 32ZM90 36L92 36L92 34L90 34ZM94 36L96 36L96 34L98 34L98 36L100 36L100 32L98 32L98 28L100 28L100 30L102 30L102 28L104 28L104 26L102 26L102 24L96 24L96 22L94 22L94 24L92 24L92 28L90 28L90 32L94 32L94 28L96 28L96 32L94 32ZM102 36L104 36L104 30L102 30ZM106 36L108 36L108 34L110 34L110 32L108 32L108 30L106 30ZM110 36L112 36L112 34L110 34ZM114 36L124 36L124 26L120 26L120 24L116 24L116 26L114 26L114 24L112 24L112 28L110 28L110 24L106 24L106 28L108 28L108 30L110 30L110 32L112 32L112 34L114 34ZM8 34L8 32L10 32L10 34ZM44 34L44 32L46 32L46 34ZM84 34L84 32L86 32L86 34ZM116 34L116 28L122 28L122 34ZM34 32L40 32L40 28L36 28L36 30L34 30ZM62 32L64 32L64 30L62 30ZM118 32L120 32L120 30L118 30ZM6 28L8 28L8 26L6 26ZM24 28L26 28L26 24L24 24ZM44 28L46 28L46 26L44 26ZM48 28L50 28L50 26L60 26L60 24L58 24L58 22L56 22L56 24L54 24L54 22L52 22L52 24L50 24L50 20L56 20L56 18L54 18L54 16L56 16L56 14L58 14L58 16L60 16L60 14L62 14L62 12L64 12L64 10L66 10L66 12L72 12L72 14L76 14L76 16L78 16L78 12L74 12L74 8L72 8L72 10L68 10L68 6L66 6L66 8L64 8L64 6L62 6L62 10L60 10L60 12L54 12L54 14L52 14L52 12L50 12L50 8L48 8L48 6L42 6L42 14L44 14L44 12L48 12L48 16L50 16L50 18L44 18L44 20L48 20ZM84 28L90 28L90 24L88 24L88 26L84 26ZM32 26L34 26L34 22L32 22ZM40 26L44 26L44 24L46 24L46 22L44 22L44 20L42 20L42 18L44 18L44 16L34 16L34 18L40 18L40 20L36 20L36 22L38 22L38 24L40 24L40 22L42 22L42 24L40 24ZM82 26L84 26L84 24L82 24ZM20 24L22 24L22 22L20 22ZM60 24L62 24L62 22L60 22ZM78 24L82 24L82 22L84 22L84 20L78 20L78 18L72 18L72 20L74 20L74 22L78 22ZM84 24L86 24L86 22L84 22ZM90 24L92 24L92 20L90 20ZM120 24L124 24L124 22L122 22L122 20L124 20L124 18L122 18L122 16L120 16L120 12L118 12L118 14L116 14L116 16L118 16L118 20L120 20ZM22 22L24 22L24 20L22 20ZM26 22L28 22L28 20L26 20ZM62 22L68 22L68 20L66 20L66 18L64 18L64 20L62 20ZM96 22L102 22L102 20L100 20L100 18L98 18L98 20L96 20ZM108 22L110 22L110 20L116 20L116 16L114 16L114 18L110 18L110 12L108 12L108 14L106 14L106 12L108 12L108 10L110 10L110 8L108 8L108 6L106 6L106 8L104 8L104 10L100 10L100 12L104 12L104 14L102 14L102 16L106 16L106 20L108 20ZM116 22L118 22L118 20L116 20ZM6 20L20 20L20 6L6 6ZM28 20L32 20L32 16L34 16L34 14L28 14L28 16L30 16L30 18L28 18ZM58 20L60 20L60 18L58 18ZM84 20L90 20L90 18L88 18L88 16L86 16L86 18L84 18ZM92 20L96 20L96 16L94 16L94 18L92 18ZM102 20L104 20L104 18L102 18ZM8 18L8 8L18 8L18 18ZM22 18L24 18L24 16L26 16L26 14L24 14L24 12L28 12L28 10L32 10L32 6L30 6L30 8L28 8L28 6L26 6L26 10L22 10ZM68 18L72 18L72 16L70 16L70 14L66 14L66 16L68 16ZM100 18L102 18L102 16L100 16ZM10 16L16 16L16 10L10 10ZM44 16L46 16L46 14L44 14ZM62 16L64 16L64 14L62 14ZM80 16L82 16L82 14L84 14L84 12L88 12L88 6L82 6L82 8L80 8L80 10L82 10L82 12L80 12ZM84 16L86 16L86 14L84 14ZM90 16L92 16L92 12L88 12L88 14L90 14ZM98 16L100 16L100 14L98 14ZM112 16L114 16L114 12L112 12ZM122 16L124 16L124 14L122 14ZM34 14L36 14L36 12L34 12ZM32 12L34 12L34 10L32 10ZM36 12L38 12L38 10L36 10ZM52 12L54 12L54 10L52 10ZM94 12L96 12L96 6L94 6L94 8L92 8L92 10L94 10ZM114 12L118 12L118 10L116 10L116 6L114 6ZM120 12L124 12L124 6L118 6L118 10L120 10L120 8L122 8L122 10L120 10ZM34 10L36 10L36 6L34 6ZM38 10L40 10L40 6L38 6ZM44 10L44 8L46 8L46 10ZM56 10L60 10L60 6L58 6L58 8L56 8ZM84 10L84 8L86 8L86 10ZM98 10L100 10L100 6L98 6ZM22 8L24 8L24 6L22 6ZM50 8L52 8L52 6L50 6ZM54 8L56 8L56 6L54 6ZM70 8L72 8L72 6L70 6ZM74 8L76 8L76 6L74 6ZM78 8L80 8L80 6L78 6ZM90 8L92 8L92 6L90 6ZM102 8L104 8L104 6L102 6ZM110 8L112 8L112 6L110 6Z" fill="#000000" fill-rule="evenodd" />
</svg>
