<svg viewBox="0 0 87 87" xmlns="http://www.w3.org/2000/svg">
<rect width="100%" height="100%" fill="#FFFFFF" />
<path d="M0 0L0 87L87 87L87 0ZM2 2L85 2L85 85L2 85Z" fill="#ffffff" fill-rule="evenodd" />
<path d="M10 76L24 76L24 62L10 62ZM26 76L28 76L28 74L26 74ZM30 76L32 76L32 74L34 74L34 76L36 76L36 72L44 72L44 70L40 70L40 68L36 68L36 70L34 70L34 72L32 72L32 70L30 70ZM38 76L40 76L40 74L38 74ZM42 76L56 76L56 74L50 74L50 72L48 72L48 74L46 74L46 72L44 72L44 74L42 74ZM60 76L62 76L62 74L60 74ZM64 76L66 76L66 74L64 74ZM72 76L74 76L74 74L72 74ZM12 74L12 64L22 64L22 74ZM66 74L68 74L68 72L66 72ZM14 72L20 72L20 66L14 66ZM26 72L28 72L28 66L30 66L30 64L34 64L34 68L36 68L36 64L38 64L38 62L36 62L36 60L34 60L34 62L30 62L30 60L28 60L28 56L26 56L26 58L22 58L22 60L26 60L26 62L28 62L28 64L26 64ZM46 72L48 72L48 70L46 70ZM50 72L54 72L54 70L50 70ZM60 72L66 72L66 70L60 70ZM68 72L72 72L72 70L68 70ZM54 70L60 70L60 68L66 68L66 70L68 70L68 66L74 66L74 64L76 64L76 62L72 62L72 64L70 64L70 62L72 62L72 60L68 60L68 58L66 58L66 56L64 56L64 58L60 58L60 56L58 56L58 58L56 58L56 60L58 60L58 62L56 62L56 64L54 64L54 66L58 66L58 68L54 68ZM44 68L48 68L48 66L46 66L46 64L44 64ZM50 68L52 68L52 66L50 66ZM74 68L76 68L76 66L74 66ZM38 66L42 66L42 64L38 64ZM48 66L50 66L50 64L48 64ZM60 66L60 60L66 60L66 66ZM42 64L44 64L44 60L42 60L42 56L40 56L40 62L42 62ZM46 64L48 64L48 62L46 62ZM50 64L54 64L54 62L56 62L56 60L54 60L54 58L46 58L46 56L44 56L44 60L50 60ZM62 64L64 64L64 62L62 62ZM10 60L12 60L12 50L14 50L14 48L12 48L12 46L10 46ZM16 60L18 60L18 58L16 58ZM32 60L34 60L34 58L32 58ZM72 60L76 60L76 56L74 56L74 58L72 58ZM14 58L16 58L16 52L14 52ZM18 58L22 58L22 56L26 56L26 52L24 52L24 54L22 54L22 52L24 52L24 50L22 50L22 48L20 48L20 50L18 50L18 48L16 48L16 52L18 52L18 54L20 54L20 56L18 56ZM36 58L38 58L38 56L36 56ZM54 58L56 58L56 56L54 56ZM46 56L54 56L54 52L56 52L56 48L54 48L54 50L52 50L52 54L48 54L48 52L46 52ZM56 56L58 56L58 54L56 54ZM60 56L62 56L62 54L60 54ZM68 56L74 56L74 54L72 54L72 52L70 52L70 54L68 54ZM28 54L42 54L42 52L32 52L32 50L30 50L30 52L28 52ZM62 54L68 54L68 52L66 52L66 50L62 50ZM74 54L76 54L76 52L74 52ZM26 52L28 52L28 48L32 48L32 50L40 50L40 48L44 48L44 46L38 46L38 44L32 44L32 42L30 42L30 44L28 44L28 46L22 46L22 48L24 48L24 50L26 50ZM58 52L60 52L60 50L58 50ZM68 52L70 52L70 50L68 50ZM44 50L46 50L46 48L44 48ZM48 50L52 50L52 48L54 48L54 46L50 46L50 44L48 44L48 46L46 46L46 48L48 48ZM60 50L62 50L62 48L60 48ZM70 50L76 50L76 48L70 48ZM14 48L16 48L16 46L18 46L18 42L16 42L16 40L14 40L14 38L12 38L12 40L10 40L10 42L12 42L12 44L14 44ZM18 48L20 48L20 46L18 46ZM66 48L70 48L70 46L66 46ZM20 46L22 46L22 44L20 44ZM44 46L46 46L46 44L44 44ZM56 46L64 46L64 44L56 44ZM70 46L72 46L72 42L70 42ZM74 46L76 46L76 44L74 44ZM22 44L26 44L26 42L22 42ZM38 44L44 44L44 42L42 42L42 40L40 40L40 38L38 38ZM46 44L48 44L48 42L46 42ZM64 44L68 44L68 42L66 42L66 40L62 40L62 42L64 42ZM18 42L22 42L22 40L20 40L20 38L18 38ZM28 42L30 42L30 38L28 38ZM34 42L36 42L36 38L38 38L38 36L34 36L34 38L32 38L32 40L34 40ZM48 42L50 42L50 40L48 40ZM52 42L54 42L54 38L56 38L56 40L58 40L58 38L62 38L62 36L60 36L60 34L64 34L64 38L68 38L68 36L70 36L70 34L66 34L66 32L58 32L58 36L52 36L52 38L50 38L50 40L52 40ZM58 42L60 42L60 40L58 40ZM68 42L70 42L70 40L72 40L72 42L76 42L76 40L74 40L74 38L72 38L72 36L70 36L70 38L68 38ZM22 40L26 40L26 38L28 38L28 36L24 36L24 38L22 38ZM44 40L48 40L48 34L44 34L44 36L46 36L46 38L44 38ZM16 38L18 38L18 34L16 34ZM30 38L32 38L32 36L30 36ZM74 38L76 38L76 32L70 32L70 34L74 34ZM10 36L14 36L14 34L10 34ZM20 36L24 36L24 34L20 34ZM32 36L34 36L34 34L32 34ZM40 36L42 36L42 32L40 32ZM50 36L52 36L52 34L50 34ZM14 34L16 34L16 28L24 28L24 26L14 26ZM18 34L20 34L20 30L18 30ZM26 34L32 34L32 28L34 28L34 24L32 24L32 26L30 26L30 28L28 28L28 30L26 30ZM54 34L56 34L56 32L54 32ZM10 32L12 32L12 30L10 30ZM22 32L24 32L24 30L22 30ZM42 32L48 32L48 30L42 30ZM50 32L54 32L54 30L50 30ZM66 32L70 32L70 30L66 30ZM24 30L26 30L26 28L24 28ZM34 30L36 30L36 28L34 28ZM40 30L42 30L42 28L40 28ZM48 30L50 30L50 28L48 28ZM54 30L58 30L58 28L54 28ZM62 30L64 30L64 28L70 28L70 30L74 30L74 28L72 28L72 26L62 26ZM10 28L12 28L12 26L10 26ZM38 28L40 28L40 22L38 22L38 24L36 24L36 26L38 26ZM44 28L48 28L48 26L44 26ZM52 28L54 28L54 26L58 26L58 28L60 28L60 22L58 22L58 24L56 24L56 22L54 22L54 24L52 24ZM26 26L28 26L28 22L30 22L30 24L32 24L32 20L30 20L30 18L28 18L28 16L30 16L30 14L26 14ZM10 24L24 24L24 10L10 10ZM34 24L36 24L36 20L34 20ZM42 24L44 24L44 22L46 22L46 24L48 24L48 22L50 22L50 24L52 24L52 22L54 22L54 18L52 18L52 20L50 20L50 14L48 14L48 16L42 16L42 18L46 18L46 20L42 20L42 18L40 18L40 16L36 16L36 18L38 18L38 20L40 20L40 22L42 22ZM62 24L76 24L76 10L62 10ZM12 22L12 12L22 12L22 22ZM64 22L64 12L74 12L74 22ZM14 20L20 20L20 14L14 14ZM32 20L34 20L34 16L32 16ZM56 20L60 20L60 12L58 12L58 14L54 14L54 16L58 16L58 18L56 18ZM66 20L72 20L72 14L66 14ZM40 16L42 16L42 14L40 14ZM30 14L32 14L32 12L30 12ZM36 14L38 14L38 12L36 12ZM42 14L48 14L48 12L50 12L50 10L46 10L46 12L42 12ZM50 14L54 14L54 10L52 10L52 12L50 12ZM56 12L58 12L58 10L56 10Z" fill="#000000" fill-rule="evenodd" />
</svg>
