<svg viewBox="0 0 95 95" xmlns="http://www.w3.org/2000/svg">
<rect width="100%" height="100%" fill="#FFFFFF" />
<path d="M0 0L0 95L95 95L95 0ZM2 2L93 2L93 93L2 93Z" fill="#ffffff" fill-rule="evenodd" />
<path d="M10 84L24 84L24 70L10 70ZM26 84L32 84L32 78L28 78L28 76L30 76L30 74L28 74L28 72L26 72L26 80L28 80L28 82L26 82ZM34 84L36 84L36 82L34 82ZM38 84L40 84L40 82L38 82ZM44 84L46 84L46 82L44 82ZM58 84L64 84L64 82L60 82L60 78L58 78L58 80L54 80L54 78L52 78L52 76L48 76L48 72L46 72L46 82L48 82L48 78L50 78L50 80L52 80L52 82L58 82ZM70 84L84 84L84 70L78 70L78 72L80 72L80 74L76 74L76 70L78 70L78 68L76 68L76 66L72 66L72 64L74 64L74 60L76 60L76 64L82 64L82 68L84 68L84 62L78 62L78 60L84 60L84 54L82 54L82 58L76 58L76 56L72 56L72 58L70 58L70 54L68 54L68 52L66 52L66 54L58 54L58 56L64 56L64 58L58 58L58 56L56 56L56 58L54 58L54 62L58 62L58 64L62 64L62 62L60 62L60 60L66 60L66 56L68 56L68 60L66 60L66 62L64 62L64 64L62 64L62 66L58 66L58 68L64 68L64 66L66 66L66 64L68 64L68 66L66 66L66 68L64 68L64 70L66 70L66 74L64 74L64 70L62 70L62 74L60 74L60 78L64 78L64 76L68 76L68 78L72 78L72 76L74 76L74 78L76 78L76 76L80 76L80 78L78 78L78 80L82 80L82 82L76 82L76 80L74 80L74 78L72 78L72 80L68 80L68 78L66 78L66 80L64 80L64 82L70 82ZM12 82L12 72L22 72L22 82ZM42 82L44 82L44 80L42 80ZM14 80L20 80L20 74L14 74ZM36 80L38 80L38 78L36 78ZM32 78L34 78L34 76L36 76L36 74L34 74L34 72L38 72L38 70L40 70L40 68L38 68L38 66L36 66L36 70L34 70L34 64L32 64L32 68L30 68L30 66L28 66L28 64L26 64L26 62L22 62L22 64L24 64L24 66L22 66L22 64L20 64L20 68L26 68L26 70L32 70ZM40 78L44 78L44 76L42 76L42 72L44 72L44 68L46 68L46 70L52 70L52 74L54 74L54 72L56 72L56 70L58 70L58 68L56 68L56 66L54 66L54 68L48 68L48 66L42 66L42 64L44 64L44 62L42 62L42 60L46 60L46 58L40 58L40 68L42 68L42 70L40 70L40 74L38 74L38 76L40 76ZM56 78L58 78L58 74L54 74L54 76L56 76ZM58 74L60 74L60 72L58 72ZM68 74L68 68L74 68L74 74ZM70 72L72 72L72 70L70 70ZM10 68L12 68L12 60L10 60ZM14 68L16 68L16 66L14 66ZM78 68L80 68L80 66L78 66ZM48 66L50 66L50 64L48 64ZM52 66L54 66L54 64L52 64ZM16 64L18 64L18 62L16 62ZM36 64L38 64L38 58L36 58ZM14 62L16 62L16 60L14 60ZM20 62L22 62L22 60L24 60L24 58L22 58L22 56L18 56L18 58L16 58L16 60L20 60ZM28 62L34 62L34 60L30 60L30 58L36 58L36 56L32 56L32 54L30 54L30 56L28 56L28 52L26 52L26 50L22 50L22 52L24 52L24 54L22 54L22 56L26 56L26 60L28 60ZM48 62L52 62L52 60L50 60L50 58L48 58ZM70 62L70 60L72 60L72 62ZM12 60L14 60L14 58L12 58ZM52 58L54 58L54 54L58 54L58 52L56 52L56 48L54 48L54 44L50 44L50 42L48 42L48 46L52 46L52 48L50 48L50 50L54 50L54 52L50 52L50 50L48 50L48 52L46 52L46 54L44 54L44 56L48 56L48 54L50 54L50 56L52 56ZM10 56L12 56L12 54L10 54ZM14 56L16 56L16 50L12 50L12 54L14 54ZM36 56L38 56L38 54L36 54ZM40 56L42 56L42 54L40 54ZM78 56L80 56L80 54L78 54ZM18 54L22 54L22 52L18 52ZM38 54L40 54L40 50L38 50L38 48L34 48L34 52L38 52ZM42 54L44 54L44 52L42 52ZM72 54L74 54L74 52L72 52ZM76 54L78 54L78 52L80 52L80 50L76 50L76 48L74 48L74 52L76 52ZM44 52L46 52L46 50L44 50ZM58 52L66 52L66 50L64 50L64 48L62 48L62 50L60 50L60 46L58 46ZM68 52L72 52L72 50L68 50ZM82 52L84 52L84 50L82 50ZM10 50L12 50L12 48L10 48ZM20 50L22 50L22 48L26 48L26 44L24 44L24 46L20 46ZM26 50L28 50L28 48L26 48ZM42 50L44 50L44 48L42 48ZM38 48L40 48L40 46L38 46ZM44 48L48 48L48 46L44 46ZM64 48L74 48L74 46L68 46L68 44L66 44L66 46L64 46ZM80 48L84 48L84 46L82 46L82 44L80 44ZM12 46L14 46L14 44L16 44L16 40L14 40L14 42L12 42ZM16 46L20 46L20 44L16 44ZM28 46L32 46L32 40L30 40L30 42L28 42ZM40 46L44 46L44 44L40 44ZM56 46L58 46L58 44L56 44ZM62 46L64 46L64 42L68 42L68 40L66 40L66 38L64 38L64 40L62 40L62 42L60 42L60 44L62 44ZM22 44L24 44L24 42L22 42ZM34 44L36 44L36 42L38 42L38 40L34 40ZM38 44L40 44L40 42L38 42ZM44 44L46 44L46 42L44 42ZM68 44L72 44L72 42L68 42ZM74 44L80 44L80 42L76 42L76 40L74 40ZM82 44L84 44L84 38L82 38L82 36L80 36L80 34L78 34L78 40L82 40ZM24 42L26 42L26 40L30 40L30 36L28 36L28 38L26 38L26 36L28 36L28 32L30 32L30 30L28 30L28 28L26 28L26 30L22 30L22 32L26 32L26 34L18 34L18 36L16 36L16 40L20 40L20 38L22 38L22 36L24 36L24 38L22 38L22 40L24 40ZM40 42L44 42L44 36L42 36L42 38L40 38ZM50 42L56 42L56 38L52 38L52 36L48 36L48 38L50 38ZM10 40L14 40L14 36L12 36L12 38L10 38ZM32 40L34 40L34 38L32 38ZM68 40L70 40L70 38L68 38ZM72 40L74 40L74 38L72 38ZM38 38L40 38L40 36L38 36ZM56 38L62 38L62 36L66 36L66 34L68 34L68 30L62 30L62 34L60 34L60 32L56 32L56 34L58 34L58 36L56 36ZM66 38L68 38L68 36L66 36ZM14 36L16 36L16 34L18 34L18 32L14 32L14 28L12 28L12 26L10 26L10 32L12 32L12 34L14 34ZM30 36L32 36L32 32L30 32ZM40 36L42 36L42 32L46 32L46 26L44 26L44 22L42 22L42 24L40 24L40 26L42 26L42 28L44 28L44 30L42 30L42 28L40 28L40 26L38 26L38 30L40 30ZM44 36L46 36L46 34L44 34ZM54 36L56 36L56 34L54 34ZM68 36L72 36L72 30L70 30L70 34L68 34ZM74 36L76 36L76 34L74 34ZM82 36L84 36L84 34L82 34ZM34 34L38 34L38 32L34 32ZM46 34L48 34L48 32L46 32ZM50 34L54 34L54 32L52 32L52 30L50 30ZM18 32L20 32L20 28L24 28L24 26L14 26L14 28L18 28ZM78 32L84 32L84 30L78 30ZM30 30L34 30L34 28L36 28L36 26L38 26L38 24L36 24L36 22L34 22L34 26L32 26L32 22L30 22L30 26L28 26L28 28L30 28ZM48 30L50 30L50 26L48 26ZM52 30L54 30L54 28L52 28ZM56 30L58 30L58 28L56 28ZM60 30L62 30L62 28L66 28L66 26L68 26L68 20L62 20L62 24L64 24L64 22L66 22L66 24L64 24L64 26L60 26ZM72 30L74 30L74 28L76 28L76 30L78 30L78 28L80 28L80 26L70 26L70 28L72 28ZM54 28L56 28L56 22L54 22L54 24L52 24L52 22L54 22L54 20L52 20L52 18L46 18L46 20L50 20L50 26L54 26ZM26 26L28 26L28 14L26 14ZM46 26L48 26L48 22L46 22ZM58 26L60 26L60 20L58 20ZM10 24L24 24L24 10L10 10ZM38 24L40 24L40 22L38 22ZM70 24L84 24L84 10L70 10ZM12 22L12 12L22 12L22 22ZM36 22L38 22L38 18L40 18L40 16L42 16L42 18L40 18L40 20L44 20L44 18L46 18L46 16L44 16L44 10L42 10L42 14L40 14L40 10L34 10L34 16L36 16L36 18L32 18L32 20L36 20ZM72 22L72 12L82 12L82 22ZM14 20L20 20L20 14L14 14ZM54 20L58 20L58 18L56 18L56 16L58 16L58 14L52 14L52 16L54 16ZM74 20L80 20L80 14L74 14ZM58 18L66 18L66 12L64 12L64 16L58 16ZM30 16L32 16L32 14L30 14ZM28 14L30 14L30 12L32 12L32 10L28 10ZM46 12L54 12L54 10L46 10ZM56 12L58 12L58 10L56 10ZM66 12L68 12L68 10L66 10Z" fill="#000000" fill-rule="evenodd" />
</svg>
