<svg viewBox="0 0 87 87" xmlns="http://www.w3.org/2000/svg">
<rect width="100%" height="100%" fill="#FFFFFF" />
<path d="M0 0L0 87L87 87L87 0ZM2 2L85 2L85 85L2 85Z" fill="#ffffff" fill-rule="evenodd" />
<path d="M10 76L24 76L24 62L10 62ZM26 76L28 76L28 74L26 74ZM32 76L36 76L36 74L32 74ZM38 76L50 76L50 74L46 74L46 72L44 72L44 74L38 74ZM54 76L56 76L56 72L50 72L50 74L54 74ZM58 76L62 76L62 74L64 74L64 68L68 68L68 64L74 64L74 62L72 62L72 60L70 60L70 62L68 62L68 60L70 60L70 56L68 56L68 54L66 54L66 52L64 52L64 50L62 50L62 52L56 52L56 54L54 54L54 52L50 52L50 56L52 56L52 58L54 58L54 60L56 60L56 56L58 56L58 60L56 60L56 62L58 62L58 64L56 64L56 66L58 66L58 68L62 68L62 70L56 70L56 72L58 72ZM64 76L70 76L70 74L68 74L68 72L70 72L70 70L72 70L72 68L68 68L68 70L66 70L66 74L64 74ZM74 76L76 76L76 74L74 74ZM12 74L12 64L22 64L22 74ZM30 74L32 74L32 72L30 72ZM36 74L38 74L38 72L36 72ZM14 72L20 72L20 66L14 66ZM28 72L30 72L30 70L28 70ZM42 72L44 72L44 70L46 70L46 68L42 68ZM30 70L32 70L32 66L30 66L30 64L28 64L28 66L26 66L26 68L30 68ZM36 70L40 70L40 68L38 68L38 64L42 64L42 62L40 62L40 60L38 60L38 62L36 62ZM52 70L56 70L56 68L54 68L54 64L56 64L56 62L52 62L52 64L46 64L46 62L44 62L44 66L46 66L46 68L50 68L50 66L52 66ZM72 68L74 68L74 66L72 66ZM60 66L60 60L66 60L66 66ZM74 66L76 66L76 64L74 64ZM26 64L28 64L28 62L30 62L30 60L28 60L28 58L26 58L26 56L28 56L28 54L22 54L22 52L18 52L18 54L20 54L20 56L16 56L16 58L18 58L18 60L20 60L20 58L22 58L22 56L24 56L24 58L22 58L22 60L26 60ZM30 64L32 64L32 62L30 62ZM62 64L64 64L64 62L62 62ZM34 62L36 62L36 60L34 60ZM42 62L44 62L44 58L48 58L48 52L46 52L46 54L44 54L44 56L42 56L42 54L40 54L40 52L44 52L44 48L42 48L42 46L46 46L46 44L42 44L42 42L40 42L40 38L36 38L36 40L38 40L38 44L36 44L36 50L34 50L34 52L36 52L36 54L38 54L38 56L40 56L40 58L42 58ZM48 62L50 62L50 60L52 60L52 58L48 58ZM10 60L16 60L16 58L10 58ZM32 60L34 60L34 58L36 58L36 56L34 56L34 54L32 54L32 56L30 56L30 58L32 58ZM36 60L38 60L38 58L36 58ZM74 60L76 60L76 58L74 58ZM60 58L60 54L62 54L62 58ZM64 58L64 56L66 56L66 58ZM70 56L74 56L74 54L72 54L72 52L70 52ZM10 54L12 54L12 52L10 52ZM14 54L16 54L16 52L14 52ZM74 54L76 54L76 48L74 48ZM16 52L18 52L18 50L16 50ZM22 52L30 52L30 50L22 50ZM48 52L50 52L50 50L54 50L54 52L56 52L56 48L58 48L58 44L56 44L56 46L54 46L54 48L52 48L52 46L50 46L50 48L48 48ZM66 52L68 52L68 50L66 50ZM12 50L14 50L14 44L16 44L16 42L18 42L18 38L22 38L22 36L20 36L20 34L18 34L18 36L16 36L16 38L12 38L12 44L10 44L10 46L12 46ZM30 50L34 50L34 48L32 48L32 46L30 46ZM64 50L66 50L66 48L64 48ZM16 48L24 48L24 46L16 46ZM46 48L48 48L48 46L46 46ZM60 48L62 48L62 44L60 44ZM68 48L70 48L70 46L72 46L72 48L74 48L74 46L76 46L76 42L74 42L74 38L72 38L72 36L74 36L74 34L62 34L62 36L68 36L68 38L66 38L66 40L72 40L72 42L70 42L70 44L68 44ZM32 46L34 46L34 44L36 44L36 42L32 42ZM48 46L50 46L50 44L52 44L52 46L54 46L54 44L56 44L56 42L54 42L54 40L52 40L52 42L50 42L50 40L48 40ZM64 46L66 46L66 44L64 44ZM20 44L24 44L24 42L22 42L22 40L20 40ZM26 44L30 44L30 42L26 42ZM62 44L64 44L64 42L62 42ZM66 44L68 44L68 42L66 42ZM30 42L32 42L32 40L30 40ZM44 42L46 42L46 40L44 40ZM56 42L58 42L58 40L60 40L60 42L62 42L62 36L60 36L60 38L58 38L58 36L56 36L56 32L52 32L52 30L50 30L50 32L46 32L46 30L44 30L44 34L46 34L46 36L50 36L50 34L52 34L52 36L54 36L54 40L56 40ZM22 40L24 40L24 38L22 38ZM26 40L28 40L28 36L24 36L24 38L26 38ZM32 40L34 40L34 38L32 38ZM42 40L44 40L44 36L42 36ZM46 40L48 40L48 38L46 38ZM50 40L52 40L52 36L50 36ZM10 38L12 38L12 36L16 36L16 34L14 34L14 32L12 32L12 34L10 34ZM30 38L32 38L32 36L30 36ZM34 38L36 38L36 36L34 36ZM74 38L76 38L76 36L74 36ZM22 36L24 36L24 34L22 34ZM32 36L34 36L34 34L32 34ZM36 36L40 36L40 34L42 34L42 30L40 30L40 32L38 32L38 34L36 34ZM24 34L28 34L28 32L26 32L26 30L20 30L20 32L24 32ZM30 34L32 34L32 32L30 32ZM34 34L36 34L36 32L34 32ZM58 34L60 34L60 32L58 32ZM10 32L12 32L12 30L10 30ZM16 32L18 32L18 28L16 28ZM56 32L58 32L58 30L56 30ZM62 32L64 32L64 30L62 30ZM66 32L72 32L72 28L70 28L70 26L60 26L60 22L58 22L58 24L56 24L56 26L58 26L58 28L68 28L68 30L66 30ZM12 30L14 30L14 28L12 28ZM28 30L30 30L30 28L28 28ZM34 30L38 30L38 28L34 28ZM42 30L44 30L44 26L46 26L46 24L44 24L44 22L46 22L46 24L48 24L48 22L50 22L50 24L52 24L52 22L54 22L54 24L56 24L56 20L52 20L52 18L48 18L48 16L44 16L44 20L42 20L42 24L40 24L40 18L42 18L42 14L40 14L40 16L38 16L38 18L34 18L34 20L36 20L36 22L38 22L38 26L42 26ZM48 30L50 30L50 28L48 28ZM10 28L12 28L12 26L10 26ZM18 28L20 28L20 26L18 26ZM22 28L28 28L28 26L32 26L32 22L34 22L34 20L30 20L30 24L28 24L28 16L26 16L26 26L22 26ZM32 28L34 28L34 26L32 26ZM50 28L56 28L56 26L54 26L54 24L52 24L52 26L50 26ZM74 28L76 28L76 26L74 26ZM10 24L24 24L24 10L10 10ZM34 24L36 24L36 22L34 22ZM62 24L76 24L76 10L62 10ZM12 22L12 12L22 12L22 22ZM64 22L64 12L74 12L74 22ZM14 20L20 20L20 14L14 14ZM56 20L58 20L58 18L56 18ZM66 20L72 20L72 14L66 14ZM30 16L32 16L32 14L36 14L36 10L34 10L34 12L30 12ZM36 16L38 16L38 14L36 14ZM48 16L50 16L50 14L52 14L52 12L50 12L50 10L40 10L40 12L42 12L42 14L46 14L46 12L48 12ZM52 16L54 16L54 14L52 14ZM26 12L30 12L30 10L26 10ZM54 12L58 12L58 10L54 10Z" fill="#000000" fill-rule="evenodd" />
</svg>
