<svg viewBox="0 0 79 79" xmlns="http://www.w3.org/2000/svg">
<rect width="100%" height="100%" fill="#FFFFFF" />
<path d="M0 0L0 79L79 79L79 0ZM2 2L77 2L77 77L2 77Z" fill="#ffffff" fill-rule="evenodd" />
<path d="M10 68L24 68L24 54L10 54ZM26 68L28 68L28 66L26 66ZM34 68L38 68L38 66L36 66L36 64L34 64ZM44 68L46 68L46 66L50 66L50 68L52 68L52 64L50 64L50 62L48 62L48 64L46 64L46 62L44 62ZM54 68L58 68L58 66L56 66L56 62L54 62L54 60L56 60L56 62L58 62L58 60L60 60L60 68L66 68L66 66L68 66L68 60L66 60L66 62L64 62L64 60L62 60L62 52L60 52L60 50L56 50L56 48L54 48L54 42L52 42L52 40L56 40L56 38L50 38L50 40L48 40L48 42L50 42L50 44L52 44L52 46L50 46L50 50L48 50L48 52L50 52L50 56L48 56L48 58L46 58L46 56L44 56L44 58L42 58L42 60L52 60L52 64L54 64ZM12 66L12 56L22 56L22 66ZM62 66L62 64L64 64L64 66ZM14 64L20 64L20 58L14 58ZM30 64L32 64L32 62L30 62ZM36 64L38 64L38 60L40 60L40 56L38 56L38 58L36 58L36 54L40 54L40 52L38 52L38 48L40 48L40 52L42 52L42 50L44 50L44 52L46 52L46 50L48 50L48 44L46 44L46 46L44 46L44 44L42 44L42 46L36 46L36 50L34 50L34 62L36 62ZM40 64L42 64L42 60L40 60ZM28 62L30 62L30 60L28 60ZM26 60L28 60L28 58L26 58ZM30 60L32 60L32 54L30 54L30 52L26 52L26 56L30 56ZM52 58L52 52L58 52L58 58ZM64 58L66 58L66 56L64 56ZM40 56L42 56L42 54L40 54ZM54 56L56 56L56 54L54 54ZM66 56L68 56L68 54L66 54ZM42 54L44 54L44 52L42 52ZM10 52L16 52L16 48L18 48L18 46L16 46L16 44L24 44L24 42L22 42L22 40L20 40L20 38L18 38L18 40L16 40L16 42L14 42L14 40L12 40L12 42L10 42L10 46L14 46L14 50L10 50ZM18 52L20 52L20 50L18 50ZM22 52L24 52L24 50L22 50ZM30 52L32 52L32 50L34 50L34 46L32 46L32 42L34 42L34 40L30 40L30 42L28 42L28 40L30 40L30 38L26 38L26 34L22 34L22 36L24 36L24 38L22 38L22 40L26 40L26 44L28 44L28 48L30 48ZM64 52L66 52L66 50L68 50L68 38L66 38L66 40L64 40L64 42L66 42L66 44L62 44L62 48L64 48ZM20 50L22 50L22 48L20 48ZM22 48L26 48L26 46L22 46ZM56 48L58 48L58 46L60 46L60 44L58 44L58 42L56 42ZM34 46L36 46L36 44L40 44L40 40L38 40L38 42L34 42ZM44 44L46 44L46 36L54 36L54 34L56 34L56 32L54 32L54 30L60 30L60 28L62 28L62 26L52 26L52 28L50 28L50 32L52 32L52 34L46 34L46 32L42 32L42 30L36 30L36 32L34 32L34 30L36 30L36 28L32 28L32 30L30 30L30 26L28 26L28 22L30 22L30 20L28 20L28 18L30 18L30 14L28 14L28 16L26 16L26 26L22 26L22 28L26 28L26 30L28 30L28 32L26 32L26 34L36 34L36 38L40 38L40 36L38 36L38 32L40 32L40 34L44 34L44 36L42 36L42 38L40 38L40 40L42 40L42 42L44 42ZM60 42L62 42L62 40L60 40ZM58 40L60 40L60 38L62 38L62 40L64 40L64 36L56 36L56 38L58 38ZM12 38L14 38L14 36L12 36ZM20 38L22 38L22 36L20 36ZM32 38L34 38L34 36L32 36ZM16 36L20 36L20 32L18 32L18 34L16 34ZM64 36L68 36L68 30L66 30L66 32L64 32ZM12 34L14 34L14 32L12 32ZM60 34L62 34L62 30L60 30ZM16 32L18 32L18 30L20 30L20 26L18 26L18 28L16 28ZM22 32L24 32L24 30L22 30ZM10 30L12 30L12 26L10 26ZM36 28L42 28L42 26L40 26L40 22L42 22L42 20L40 20L40 18L42 18L42 20L44 20L44 16L46 16L46 12L48 12L48 10L44 10L44 12L42 12L42 14L40 14L40 16L38 16L38 18L36 18L36 20L34 20L34 18L36 18L36 16L34 16L34 14L36 14L36 10L32 10L32 12L30 12L30 14L32 14L32 18L30 18L30 20L32 20L32 22L34 22L34 24L36 24L36 22L38 22L38 26L36 26ZM44 28L50 28L50 26L52 26L52 16L46 16L46 20L44 20L44 22L46 22L46 24L48 24L48 22L50 22L50 24L48 24L48 26L46 26L46 24L44 24ZM66 28L68 28L68 26L66 26ZM30 26L32 26L32 22L30 22ZM10 24L24 24L24 10L10 10ZM42 24L44 24L44 22L42 22ZM54 24L68 24L68 10L54 10ZM12 22L12 12L22 12L22 22ZM56 22L56 12L66 12L66 22ZM14 20L20 20L20 14L14 14ZM48 20L48 18L50 18L50 20ZM58 20L64 20L64 14L58 14ZM36 16L38 16L38 14L36 14ZM48 14L52 14L52 12L48 12ZM26 12L30 12L30 10L26 10Z" fill="#000000" fill-rule="evenodd" />
</svg>
