<svg viewBox="0 0 131 43" xmlns="http://www.w3.org/2000/svg">
<rect width="100%" height="100%" fill="#FFFFFF" />
<path d="M0 0L0 43L131 43L131 0ZM2 2L129 2L129 41L2 41Z" fill="#ffffff" fill-rule="evenodd" />
<path d="M6 36L12 36L12 34L8 34L8 30L6 30ZM14 36L16 36L16 34L14 34ZM18 36L20 36L20 34L18 34ZM22 36L24 36L24 34L22 34ZM26 36L28 36L28 30L26 30L26 28L22 28L22 30L18 30L18 32L24 32L24 34L26 34ZM30 36L32 36L32 34L34 34L34 36L36 36L36 32L34 32L34 28L32 28L32 30L30 30ZM38 36L40 36L40 34L38 34ZM42 36L48 36L48 30L44 30L44 28L46 28L46 26L44 26L44 24L42 24L42 26L40 26L40 20L38 20L38 18L36 18L36 14L34 14L34 18L32 18L32 16L30 16L30 20L32 20L32 22L30 22L30 20L28 20L28 24L26 24L26 28L30 28L30 24L36 24L36 22L34 22L34 20L36 20L36 22L38 22L38 24L36 24L36 26L38 26L38 28L42 28L42 30L40 30L40 34L42 34ZM50 36L52 36L52 34L54 34L54 36L56 36L56 34L58 34L58 36L60 36L60 32L58 32L58 30L56 30L56 32L54 32L54 30L52 30L52 28L50 28L50 26L48 26L48 30L50 30ZM62 36L64 36L64 34L66 34L66 36L68 36L68 32L62 32ZM70 36L72 36L72 34L70 34ZM74 36L76 36L76 34L74 34ZM78 36L80 36L80 34L82 34L82 36L88 36L88 34L90 34L90 36L92 36L92 34L94 34L94 36L96 36L96 28L94 28L94 30L92 30L92 32L90 32L90 28L94 28L94 26L92 26L92 24L94 24L94 26L96 26L96 24L100 24L100 22L102 22L102 24L106 24L106 20L94 20L94 22L90 22L90 20L94 20L94 16L104 16L104 14L100 14L100 12L92 12L92 14L90 14L90 18L88 18L88 20L86 20L86 22L84 22L84 20L86 20L86 18L84 18L84 16L88 16L88 10L90 10L90 12L92 12L92 6L90 6L90 8L88 8L88 6L82 6L82 8L80 8L80 10L82 10L82 16L80 16L80 18L82 18L82 24L88 24L88 26L84 26L84 28L86 28L86 30L84 30L84 28L80 28L80 30L82 30L82 32L78 32ZM98 36L100 36L100 34L102 34L102 32L100 32L100 28L98 28ZM102 36L104 36L104 34L102 34ZM106 36L108 36L108 34L110 34L110 32L104 32L104 34L106 34ZM110 36L112 36L112 34L110 34ZM114 36L124 36L124 26L120 26L120 24L118 24L118 18L120 18L120 22L122 22L122 20L124 20L124 18L122 18L122 16L124 16L124 14L122 14L122 12L118 12L118 8L116 8L116 6L114 6L114 8L112 8L112 12L110 12L110 10L106 10L106 16L104 16L104 18L106 18L106 20L108 20L108 16L112 16L112 14L114 14L114 10L116 10L116 14L114 14L114 16L116 16L116 20L114 20L114 22L116 22L116 26L114 26L114 22L112 22L112 28L110 28L110 20L108 20L108 24L106 24L106 26L104 26L104 28L108 28L108 30L110 30L110 32L112 32L112 34L114 34ZM12 34L14 34L14 32L16 32L16 30L18 30L18 28L14 28L14 30L12 30L12 28L14 28L14 26L10 26L10 32L12 32ZM16 34L18 34L18 32L16 32ZM44 34L44 32L46 32L46 34ZM72 34L74 34L74 30L72 30L72 28L70 28L70 32L72 32ZM84 34L84 32L86 32L86 34ZM116 34L116 28L122 28L122 34ZM60 32L62 32L62 30L60 30ZM118 32L120 32L120 30L118 30ZM36 30L38 30L38 28L36 28ZM62 30L68 30L68 28L66 28L66 26L64 26L64 28L62 28ZM74 30L78 30L78 28L80 28L80 26L78 26L78 24L74 24L74 26L72 26L72 28L74 28ZM6 28L8 28L8 26L6 26ZM18 28L20 28L20 26L18 26ZM52 28L56 28L56 26L52 26ZM58 28L60 28L60 26L58 26ZM96 28L98 28L98 26L96 26ZM100 28L102 28L102 24L100 24ZM8 26L10 26L10 22L6 22L6 24L8 24ZM46 26L48 26L48 24L46 24ZM50 26L52 26L52 24L56 24L56 22L58 22L58 24L60 24L60 22L62 22L62 20L64 20L64 18L66 18L66 20L72 20L72 22L74 22L74 20L78 20L78 24L80 24L80 18L78 18L78 16L76 16L76 18L74 18L74 16L76 16L76 12L78 12L78 16L80 16L80 10L78 10L78 8L76 8L76 10L72 10L72 12L74 12L74 14L72 14L72 12L70 12L70 16L72 16L72 18L68 18L68 16L62 16L62 18L60 18L60 20L54 20L54 22L52 22L52 20L48 20L48 24L50 24ZM68 26L72 26L72 24L70 24L70 22L66 22L66 24L68 24ZM80 26L82 26L82 24L80 24ZM12 24L14 24L14 22L12 22ZM44 24L46 24L46 22L44 22ZM62 24L64 24L64 22L62 22ZM122 24L124 24L124 22L122 22ZM24 22L26 22L26 18L24 18ZM42 22L44 22L44 20L42 20ZM6 20L20 20L20 6L6 6ZM44 20L46 20L46 18L44 18ZM52 20L54 20L54 18L52 18ZM112 20L114 20L114 16L112 16ZM8 18L8 8L18 8L18 18ZM22 18L24 18L24 16L26 16L26 14L24 14L24 12L28 12L28 10L30 10L30 8L28 8L28 6L26 6L26 10L22 10ZM38 18L40 18L40 16L38 16ZM46 18L48 18L48 16L52 16L52 14L48 14L48 12L50 12L50 10L52 10L52 12L56 12L56 10L58 10L58 8L56 8L56 6L54 6L54 8L52 8L52 6L50 6L50 8L48 8L48 6L42 6L42 10L40 10L40 6L38 6L38 12L46 12L46 14L44 14L44 16L46 16ZM54 18L60 18L60 16L58 16L58 14L56 14L56 16L54 16ZM10 16L16 16L16 10L10 10ZM28 16L30 16L30 14L28 14ZM40 16L42 16L42 14L40 14ZM60 16L62 16L62 14L60 14ZM30 14L32 14L32 12L30 12ZM62 14L68 14L68 12L66 12L66 10L64 10L64 12L62 12ZM84 14L84 12L86 12L86 14ZM58 12L60 12L60 10L58 10ZM122 12L124 12L124 6L118 6L118 8L122 8ZM44 10L44 8L46 8L46 10ZM68 10L72 10L72 6L70 6L70 8L68 8ZM84 10L84 8L86 8L86 10ZM94 10L96 10L96 6L94 6ZM100 10L102 10L102 8L100 8ZM104 10L106 10L106 8L104 8ZM22 8L24 8L24 6L22 6ZM30 8L32 8L32 6L30 6ZM34 8L36 8L36 6L34 6ZM58 8L60 8L60 6L58 6ZM62 8L64 8L64 6L62 6ZM66 8L68 8L68 6L66 6ZM74 8L76 8L76 6L74 6ZM78 8L80 8L80 6L78 6ZM98 8L100 8L100 6L98 6ZM102 8L104 8L104 6L102 6ZM106 8L108 8L108 6L106 6ZM110 8L112 8L112 6L110 6Z" fill="#000000" fill-rule="evenodd" />
</svg>
