<svg viewBox="0 0 87 87" xmlns="http://www.w3.org/2000/svg">
<rect width="100%" height="100%" fill="#FFFFFF" />
<path d="M0 0L0 87L87 87L87 0ZM2 2L85 2L85 85L2 85Z" fill="#ffffff" fill-rule="evenodd" />
<path d="M10 76L24 76L24 62L10 62ZM26 76L28 76L28 74L26 74ZM32 76L36 76L36 74L38 74L38 70L36 70L36 68L38 68L38 66L36 66L36 64L30 64L30 66L28 66L28 64L30 64L30 62L28 62L28 58L32 58L32 60L30 60L30 62L34 62L34 56L32 56L32 54L34 54L34 50L32 50L32 52L30 52L30 50L32 50L32 46L30 46L30 48L28 48L28 52L26 52L26 54L22 54L22 56L26 56L26 70L28 70L28 68L32 68L32 66L34 66L34 68L32 68L32 70L34 70L34 74L32 74ZM38 76L40 76L40 74L38 74ZM42 76L46 76L46 74L44 74L44 72L46 72L46 70L42 70L42 72L40 72L40 74L42 74ZM48 76L50 76L50 74L52 74L52 76L54 76L54 74L56 74L56 76L62 76L62 74L64 74L64 76L68 76L68 72L66 72L66 68L68 68L68 72L70 72L70 70L72 70L72 68L74 68L74 66L72 66L72 64L70 64L70 66L68 66L68 60L72 60L72 64L74 64L74 60L76 60L76 52L72 52L72 54L74 54L74 58L70 58L70 56L72 56L72 54L70 54L70 52L68 52L68 54L66 54L66 58L62 58L62 56L58 56L58 58L56 58L56 62L54 62L54 64L58 64L58 68L56 68L56 72L48 72ZM70 76L74 76L74 74L72 74L72 72L70 72ZM12 74L12 64L22 64L22 74ZM30 74L32 74L32 70L28 70L28 72L30 72ZM74 74L76 74L76 70L72 70L72 72L74 72ZM14 72L20 72L20 66L14 66ZM58 72L58 70L60 70L60 68L62 68L62 72ZM46 70L48 70L48 66L50 66L50 70L52 70L52 68L54 68L54 66L52 66L52 64L50 64L50 62L48 62L48 64L46 64L46 66L44 66L44 68L46 68ZM40 68L42 68L42 66L44 66L44 62L42 62L42 64L40 64L40 62L38 62L38 58L36 58L36 64L38 64L38 66L40 66ZM60 66L60 60L66 60L66 66ZM74 66L76 66L76 64L74 64ZM62 64L64 64L64 62L62 62ZM46 62L48 62L48 60L46 60ZM50 62L54 62L54 60L52 60L52 58L48 58L48 60L50 60ZM10 60L16 60L16 58L18 58L18 56L20 56L20 54L16 54L16 56L14 56L14 58L12 58L12 54L14 54L14 52L10 52ZM22 60L24 60L24 58L22 58ZM40 60L44 60L44 58L48 58L48 56L50 56L50 54L52 54L52 56L54 56L54 58L56 58L56 56L58 56L58 54L56 54L56 52L54 52L54 50L56 50L56 48L58 48L58 46L48 46L48 54L46 54L46 56L44 56L44 52L42 52L42 54L40 54L40 56L42 56L42 58L40 58ZM38 58L40 58L40 56L38 56ZM28 56L28 54L30 54L30 56ZM34 56L38 56L38 54L34 54ZM20 54L22 54L22 52L24 52L24 50L20 50ZM58 54L60 54L60 52L62 52L62 50L60 50L60 48L58 48ZM64 54L66 54L66 52L64 52ZM14 52L18 52L18 50L16 50L16 48L14 48ZM36 52L38 52L38 50L40 50L40 48L38 48L38 44L36 44L36 42L34 42L34 36L30 36L30 32L32 32L32 30L22 30L22 32L26 32L26 36L24 36L24 38L32 38L32 46L34 46L34 48L36 48ZM40 52L42 52L42 50L40 50ZM50 52L50 50L52 50L52 52ZM66 52L68 52L68 50L66 50ZM10 50L12 50L12 48L10 48ZM72 50L74 50L74 48L76 48L76 36L72 36L72 38L70 38L70 42L72 42L72 40L74 40L74 46L62 46L62 44L58 44L58 46L60 46L60 48L72 48ZM16 48L20 48L20 46L22 46L22 44L18 44L18 46L16 46ZM22 48L26 48L26 46L22 46ZM40 48L42 48L42 46L40 46ZM12 46L16 46L16 44L12 44ZM26 46L28 46L28 44L30 44L30 42L28 42L28 40L24 40L24 42L22 42L22 44L26 44ZM42 46L46 46L46 42L48 42L48 44L50 44L50 42L54 42L54 40L52 40L52 36L54 36L54 24L52 24L52 22L50 22L50 24L48 24L48 22L50 22L50 20L48 20L48 18L46 18L46 20L44 20L44 22L46 22L46 24L44 24L44 26L46 26L46 28L44 28L44 30L48 30L48 26L52 26L52 28L50 28L50 30L52 30L52 34L50 34L50 32L44 32L44 34L42 34L42 40L44 40L44 36L46 36L46 34L48 34L48 38L46 38L46 40L44 40L44 44L42 44ZM10 44L12 44L12 42L10 42ZM68 44L70 44L70 42L68 42ZM12 42L22 42L22 40L24 40L24 38L22 38L22 36L20 36L20 28L28 28L28 26L16 26L16 28L14 28L14 30L10 30L10 38L12 38ZM40 42L42 42L42 40L40 40ZM58 42L60 42L60 40L58 40ZM18 40L18 38L20 38L20 40ZM36 40L40 40L40 38L38 38L38 36L40 36L40 28L38 28L38 34L34 34L34 36L36 36ZM54 40L58 40L58 38L54 38ZM60 40L62 40L62 38L60 38ZM64 40L68 40L68 38L70 38L70 36L72 36L72 34L64 34L64 36L66 36L66 38L64 38ZM58 38L60 38L60 36L58 36ZM22 36L24 36L24 34L22 34ZM56 36L58 36L58 34L60 34L60 32L66 32L66 30L62 30L62 26L60 26L60 22L58 22L58 32L56 32ZM14 34L14 32L16 32L16 34ZM32 34L34 34L34 32L32 32ZM34 32L36 32L36 28L38 28L38 26L36 26L36 22L38 22L38 26L40 26L40 20L42 20L42 14L40 14L40 18L38 18L38 20L34 20L34 24L32 24L32 26L34 26ZM74 30L76 30L76 26L70 26L70 28L74 28ZM10 28L12 28L12 26L10 26ZM40 28L44 28L44 26L40 26ZM66 28L68 28L68 26L66 26ZM28 26L30 26L30 24L28 24ZM10 24L24 24L24 10L10 10ZM26 24L28 24L28 22L26 22ZM30 24L32 24L32 22L30 22ZM42 24L44 24L44 22L42 22ZM54 24L56 24L56 22L54 22ZM62 24L76 24L76 10L62 10ZM12 22L12 12L22 12L22 22ZM28 22L30 22L30 20L28 20ZM64 22L64 12L74 12L74 22ZM14 20L20 20L20 14L14 14ZM26 20L28 20L28 18L26 18ZM30 20L34 20L34 18L30 18ZM50 20L54 20L54 18L52 18L52 16L48 16L48 18L50 18ZM56 20L58 20L58 18L60 18L60 10L56 10L56 12L58 12L58 16L56 16ZM66 20L72 20L72 14L66 14ZM34 18L36 18L36 16L34 16ZM26 16L28 16L28 14L30 14L30 16L32 16L32 12L30 12L30 10L26 10ZM44 16L48 16L48 14L50 14L50 12L52 12L52 10L42 10L42 12L46 12L46 14L44 14ZM32 12L36 12L36 10L32 10ZM38 12L40 12L40 10L38 10Z" fill="#000000" fill-rule="evenodd" />
</svg>
