<svg viewBox="0 0 95 95" xmlns="http://www.w3.org/2000/svg">
<rect width="100%" height="100%" fill="#FFFFFF" />
<path d="M0 0L0 95L95 95L95 0ZM2 2L93 2L93 93L2 93Z" fill="#ffffff" fill-rule="evenodd" />
<path d="M10 84L24 84L24 70L10 70ZM26 84L28 84L28 82L26 82ZM30 84L36 84L36 80L40 80L40 82L42 82L42 78L36 78L36 76L34 76L34 78L32 78L32 82L30 82ZM38 84L40 84L40 82L38 82ZM44 84L46 84L46 82L44 82ZM54 84L64 84L64 82L56 82L56 78L52 78L52 82L54 82ZM68 84L72 84L72 80L70 80L70 82L68 82ZM76 84L84 84L84 70L80 70L80 72L82 72L82 76L80 76L80 80L82 80L82 82L78 82L78 80L76 80ZM12 82L12 72L22 72L22 82ZM28 82L30 82L30 80L28 80ZM46 82L48 82L48 80L46 80ZM66 82L68 82L68 78L72 78L72 76L74 76L74 78L76 78L76 76L80 76L80 74L78 74L78 70L76 70L76 68L78 68L78 70L80 70L80 66L72 66L72 62L70 62L70 66L66 66L66 68L64 68L64 66L60 66L60 62L58 62L58 68L62 68L62 74L58 74L58 76L56 76L56 78L60 78L60 76L66 76L66 78L64 78L64 80L66 80ZM14 80L20 80L20 74L14 74ZM26 80L28 80L28 76L30 76L30 74L32 74L32 76L34 76L34 72L32 72L32 70L38 70L38 68L42 68L42 70L40 70L40 76L42 76L42 78L44 78L44 80L46 80L46 78L52 78L52 74L56 74L56 70L54 70L54 68L46 68L46 70L50 70L50 72L48 72L48 76L46 76L46 74L42 74L42 72L46 72L46 70L44 70L44 68L46 68L46 66L44 66L44 64L42 64L42 58L40 58L40 64L34 64L34 66L36 66L36 68L30 68L30 70L28 70L28 72L26 72ZM60 80L62 80L62 78L60 78ZM72 80L74 80L74 78L72 78ZM36 74L38 74L38 72L36 72ZM64 74L64 70L66 70L66 74ZM68 74L68 68L74 68L74 74ZM70 72L72 72L72 70L70 70ZM26 70L28 70L28 68L30 68L30 64L28 64L28 66L26 66L26 64L28 64L28 60L26 60L26 62L20 62L20 66L18 66L18 68L26 68ZM56 70L58 70L58 68L56 68ZM10 68L12 68L12 58L10 58ZM14 68L16 68L16 64L14 64ZM54 68L56 68L56 64L54 64L54 60L50 60L50 58L54 58L54 56L56 56L56 54L54 54L54 52L50 52L50 50L54 50L54 44L46 44L46 46L50 46L50 48L46 48L46 50L48 50L48 52L46 52L46 50L44 50L44 48L42 48L42 54L46 54L46 56L48 56L48 54L52 54L52 56L48 56L48 60L46 60L46 58L44 58L44 62L46 62L46 64L48 64L48 62L52 62L52 66L54 66ZM82 68L84 68L84 66L82 66ZM22 66L22 64L24 64L24 66ZM48 66L50 66L50 64L48 64ZM64 66L66 66L66 64L68 64L68 62L64 62ZM16 64L18 64L18 62L20 62L20 58L16 58ZM76 64L78 64L78 62L76 62ZM80 64L84 64L84 62L80 62ZM30 62L32 62L32 56L30 56L30 58L28 58L28 60L30 60ZM34 62L36 62L36 60L38 60L38 58L34 58ZM56 62L58 62L58 60L56 60ZM72 62L74 62L74 60L72 60ZM78 62L80 62L80 60L82 60L82 58L84 58L84 54L80 54L80 58L74 58L74 60L78 60ZM22 60L24 60L24 58L22 58ZM54 60L56 60L56 58L54 58ZM60 60L64 60L64 58L60 58ZM68 60L72 60L72 58L68 58ZM24 58L26 58L26 56L30 56L30 54L28 54L28 50L26 50L26 52L24 52L24 54L20 54L20 56L24 56ZM38 58L40 58L40 56L42 56L42 54L38 54ZM56 58L60 58L60 56L56 56ZM64 58L66 58L66 56L68 56L68 50L66 50L66 46L62 46L62 44L66 44L66 46L70 46L70 44L72 44L72 38L70 38L70 36L72 36L72 34L70 34L70 28L68 28L68 26L64 26L64 22L66 22L66 24L68 24L68 18L66 18L66 20L62 20L62 18L66 18L66 16L58 16L58 14L56 14L56 16L54 16L54 18L56 18L56 20L58 20L58 18L60 18L60 22L62 22L62 26L60 26L60 22L58 22L58 24L56 24L56 26L58 26L58 28L66 28L66 30L68 30L68 36L66 36L66 38L68 38L68 40L70 40L70 42L68 42L68 40L66 40L66 38L64 38L64 42L60 42L60 46L58 46L58 50L60 50L60 48L64 48L64 52L66 52L66 54L62 54L62 56L64 56ZM12 56L16 56L16 54L14 54L14 52L12 52ZM32 56L34 56L34 54L32 54ZM70 56L76 56L76 54L74 54L74 52L76 52L76 54L78 54L78 52L80 52L80 50L72 50L72 46L70 46L70 52L72 52L72 54L70 54ZM16 54L20 54L20 52L16 52ZM30 54L32 54L32 50L30 50ZM34 54L36 54L36 52L34 52ZM56 54L58 54L58 52L56 52ZM60 54L62 54L62 50L60 50ZM22 52L24 52L24 50L22 50ZM54 52L56 52L56 50L54 50ZM82 52L84 52L84 50L82 50ZM10 50L14 50L14 48L10 48ZM16 50L18 50L18 48L16 48ZM20 50L22 50L22 48L24 48L24 50L26 50L26 46L28 46L28 48L30 48L30 46L32 46L32 44L28 44L28 42L26 42L26 38L22 38L22 36L18 36L18 34L16 34L16 36L14 36L14 34L12 34L12 38L10 38L10 42L12 42L12 44L10 44L10 46L14 46L14 44L20 44L20 42L16 42L16 40L20 40L20 42L22 42L22 40L24 40L24 42L22 42L22 44L24 44L24 46L22 46L22 44L20 44L20 46L18 46L18 48L20 48ZM32 50L40 50L40 46L38 46L38 44L34 44L34 46L32 46ZM80 50L82 50L82 48L84 48L84 46L80 46ZM14 48L16 48L16 46L14 46ZM74 48L78 48L78 46L74 46ZM40 46L44 46L44 44L40 44ZM56 46L58 46L58 42L56 42L56 40L54 40L54 38L50 38L50 40L46 40L46 42L54 42L54 44L56 44ZM72 46L74 46L74 44L72 44ZM38 44L40 44L40 42L42 42L42 40L44 40L44 38L40 38L40 40L38 40ZM44 44L46 44L46 42L44 42ZM74 44L80 44L80 42L74 42ZM32 42L36 42L36 38L34 38L34 40L32 40ZM58 42L60 42L60 40L58 40ZM80 42L84 42L84 38L80 38L80 34L74 34L74 36L78 36L78 38L74 38L74 40L80 40ZM60 40L62 40L62 38L60 38ZM28 38L34 38L34 34L32 34L32 32L26 32L26 30L22 30L22 32L24 32L24 34L22 34L22 36L28 36L28 34L30 34L30 36L28 36ZM36 38L38 38L38 36L42 36L42 32L46 32L46 34L48 34L48 30L50 30L50 32L52 32L52 34L58 34L58 36L66 36L66 30L62 30L62 34L60 34L60 30L58 30L58 32L56 32L56 30L54 30L54 28L46 28L46 30L42 30L42 28L46 28L46 26L42 26L42 24L40 24L40 26L36 26L36 20L34 20L34 28L36 28L36 30L40 30L40 32L38 32L38 34L36 34ZM44 38L50 38L50 36L46 36L46 34L44 34ZM56 38L58 38L58 36L56 36ZM72 38L74 38L74 36L72 36ZM82 36L84 36L84 30L80 30L80 34L82 34ZM10 34L12 34L12 32L16 32L16 28L20 28L20 30L22 30L22 28L24 28L24 26L14 26L14 30L12 30L12 26L10 26ZM18 34L20 34L20 30L18 30ZM34 34L36 34L36 30L34 30ZM72 34L74 34L74 28L80 28L80 26L70 26L70 28L72 28ZM76 32L78 32L78 30L76 30ZM28 30L32 30L32 26L30 26L30 28L28 28ZM56 30L58 30L58 28L56 28ZM54 28L56 28L56 26L54 26ZM26 26L28 26L28 16L32 16L32 20L34 20L34 16L36 16L36 14L34 14L34 12L30 12L30 14L26 14ZM46 26L48 26L48 20L46 20ZM52 26L54 26L54 24L52 24ZM10 24L24 24L24 10L10 10ZM30 24L32 24L32 20L30 20ZM38 24L40 24L40 22L38 22ZM42 24L44 24L44 20L42 20ZM50 24L52 24L52 22L50 22ZM54 24L56 24L56 20L54 20ZM70 24L84 24L84 10L70 10ZM12 22L12 12L22 12L22 22ZM72 22L72 12L82 12L82 22ZM14 20L20 20L20 14L14 14ZM36 20L42 20L42 18L46 18L46 16L44 16L44 14L42 14L42 16L40 16L40 18L36 18ZM48 20L54 20L54 18L48 18ZM74 20L80 20L80 14L74 14ZM38 16L40 16L40 14L42 14L42 12L40 12L40 10L38 10L38 12L36 12L36 14L38 14ZM50 16L54 16L54 14L56 14L56 12L58 12L58 10L54 10L54 12L52 12L52 14L50 14ZM44 14L46 14L46 12L50 12L50 10L44 10ZM64 14L66 14L66 12L64 12ZM28 12L30 12L30 10L28 10ZM34 12L36 12L36 10L34 10ZM60 12L62 12L62 10L60 10ZM66 12L68 12L68 10L66 10Z" fill="#000000" fill-rule="evenodd" />
</svg>
