<svg viewBox="0 0 87 87" xmlns="http://www.w3.org/2000/svg">
<rect width="100%" height="100%" fill="#FFFFFF" />
<path d="M0 0L0 87L87 87L87 0ZM2 2L85 2L85 85L2 85Z" fill="#ffffff" fill-rule="evenodd" />
<path d="M10 76L24 76L24 62L10 62ZM26 76L28 76L28 74L26 74ZM32 76L38 76L38 74L34 74L34 72L36 72L36 70L34 70L34 68L36 68L36 70L40 70L40 68L38 68L38 64L36 64L36 66L34 66L34 62L32 62L32 66L28 66L28 68L32 68L32 72L30 72L30 74L32 74ZM42 76L44 76L44 72L46 72L46 70L44 70L44 68L42 68L42 72L40 72L40 74L42 74ZM50 76L52 76L52 74L50 74ZM54 76L66 76L66 74L68 74L68 76L70 76L70 74L72 74L72 72L68 72L68 70L66 70L66 72L64 72L64 74L62 74L62 72L64 72L64 70L62 70L62 68L70 68L70 66L68 66L68 64L70 64L70 62L68 62L68 60L70 60L70 58L72 58L72 56L74 56L74 54L76 54L76 44L74 44L74 52L72 52L72 54L70 54L70 50L68 50L68 48L66 48L66 52L62 52L62 58L58 58L58 64L56 64L56 66L58 66L58 68L60 68L60 70L58 70L58 68L56 68L56 66L52 66L52 68L54 68L54 70L56 70L56 72L58 72L58 74L56 74L56 72L54 72ZM72 76L74 76L74 74L72 74ZM12 74L12 64L22 64L22 74ZM14 72L20 72L20 66L14 66ZM48 72L50 72L50 70L48 70ZM52 72L54 72L54 70L52 70ZM72 72L76 72L76 68L74 68L74 66L72 66L72 68L70 68L70 70L72 70ZM50 70L52 70L52 68L50 68ZM40 68L42 68L42 66L40 66ZM46 68L48 68L48 66L46 66ZM60 66L60 60L66 60L66 66ZM70 66L72 66L72 64L70 64ZM40 64L44 64L44 60L42 60L42 58L40 58L40 60L38 60L38 62L40 62ZM46 64L48 64L48 60L46 60ZM50 64L52 64L52 58L50 58ZM62 64L64 64L64 62L62 62ZM72 64L74 64L74 60L70 60L70 62L72 62ZM26 62L32 62L32 60L30 60L30 58L28 58L28 56L24 56L24 58L26 58ZM54 62L56 62L56 58L58 58L58 56L56 56L56 54L52 54L52 56L54 56ZM10 60L14 60L14 58L12 58L12 52L14 52L14 46L16 46L16 50L18 50L18 44L14 44L14 42L12 42L12 50L10 50ZM16 60L18 60L18 58L16 58ZM22 60L24 60L24 58L22 58ZM34 60L38 60L38 58L36 58L36 56L38 56L38 58L40 58L40 56L48 56L48 54L50 54L50 52L46 52L46 54L44 54L44 50L42 50L42 54L40 54L40 52L38 52L38 48L36 48L36 46L38 46L38 48L44 48L44 46L48 46L48 48L44 48L44 50L52 50L52 48L50 48L50 46L54 46L54 44L56 44L56 38L54 38L54 42L52 42L52 32L50 32L50 34L44 34L44 30L40 30L40 32L42 32L42 38L44 38L44 36L48 36L48 38L50 38L50 42L48 42L48 44L42 44L42 46L40 46L40 42L42 42L42 40L38 40L38 44L36 44L36 42L34 42L34 46L28 46L28 44L30 44L30 38L28 38L28 36L26 36L26 34L22 34L22 32L20 32L20 34L18 34L18 36L24 36L24 38L26 38L26 40L28 40L28 42L22 42L22 40L18 40L18 38L14 38L14 40L16 40L16 42L18 42L18 44L24 44L24 46L26 46L26 52L24 52L24 54L28 54L28 52L30 52L30 54L32 54L32 52L36 52L36 54L32 54L32 56L34 56ZM44 60L46 60L46 58L44 58ZM74 60L76 60L76 58L74 58ZM14 58L16 58L16 56L18 56L18 54L16 54L16 52L14 52ZM20 58L22 58L22 56L20 56ZM30 58L32 58L32 56L30 56ZM48 58L50 58L50 56L48 56ZM66 58L66 56L68 56L68 58ZM22 56L24 56L24 54L22 54ZM58 56L60 56L60 54L58 54ZM20 54L22 54L22 52L20 52ZM56 54L58 54L58 52L62 52L62 50L56 50L56 48L54 48L54 50L52 50L52 52L56 52ZM18 52L20 52L20 50L18 50ZM22 52L24 52L24 50L22 50ZM30 50L30 48L32 48L32 50ZM62 50L64 50L64 48L62 48ZM70 50L72 50L72 42L76 42L76 40L74 40L74 36L70 36L70 38L72 38L72 40L70 40L70 38L68 38L68 40L66 40L66 42L70 42L70 44L68 44L68 46L70 46ZM20 48L24 48L24 46L20 46ZM56 48L58 48L58 44L56 44ZM64 48L66 48L66 42L64 42L64 44L62 44L62 46L64 46ZM58 44L62 44L62 42L64 42L64 40L66 40L66 38L60 38L60 40L58 40ZM10 42L12 42L12 36L16 36L16 32L14 32L14 30L10 30ZM32 42L34 42L34 40L32 40ZM22 40L24 40L24 38L22 38ZM34 40L38 40L38 38L40 38L40 32L38 32L38 34L32 34L32 36L34 36ZM46 40L48 40L48 38L46 38ZM30 38L32 38L32 36L30 36ZM56 38L60 38L60 36L58 36L58 34L56 34ZM62 36L64 36L64 34L62 34ZM26 34L28 34L28 32L30 32L30 30L26 30ZM58 34L60 34L60 32L58 32ZM68 34L76 34L76 32L74 32L74 30L76 30L76 28L74 28L74 26L68 26L68 28L70 28L70 32L68 32ZM22 32L24 32L24 30L22 30ZM46 32L48 32L48 30L46 30ZM52 32L56 32L56 26L54 26L54 28L52 28ZM60 32L62 32L62 30L60 30ZM66 32L68 32L68 28L64 28L64 30L66 30ZM14 30L16 30L16 28L14 28ZM34 30L36 30L36 26L34 26ZM38 30L40 30L40 28L42 28L42 26L38 26ZM48 30L50 30L50 28L48 28ZM10 28L12 28L12 26L10 26ZM22 28L24 28L24 26L22 26ZM26 28L30 28L30 24L28 24L28 22L26 22ZM44 28L46 28L46 26L44 26ZM60 28L64 28L64 26L60 26ZM48 26L50 26L50 24L48 24ZM10 24L24 24L24 10L10 10ZM30 24L32 24L32 22L34 22L34 24L36 24L36 20L38 20L38 18L34 18L34 20L32 20L32 18L30 18L30 20L28 20L28 22L30 22ZM38 24L40 24L40 22L38 22ZM42 24L44 24L44 22L46 22L46 24L48 24L48 18L46 18L46 20L42 20ZM50 24L52 24L52 22L50 22ZM54 24L56 24L56 20L54 20ZM58 24L60 24L60 22L58 22ZM62 24L76 24L76 10L62 10ZM12 22L12 12L22 12L22 22ZM64 22L64 12L74 12L74 22ZM14 20L20 20L20 14L14 14ZM40 20L42 20L42 18L40 18ZM52 20L54 20L54 18L52 18ZM56 20L58 20L58 18L60 18L60 12L58 12L58 16L56 16ZM66 20L72 20L72 14L66 14ZM26 18L28 18L28 14L30 14L30 12L32 12L32 14L30 14L30 16L32 16L32 18L34 18L34 14L36 14L36 16L38 16L38 14L40 14L40 10L38 10L38 12L36 12L36 10L28 10L28 12L26 12ZM50 18L52 18L52 16L56 16L56 12L54 12L54 14L46 14L46 12L42 12L42 14L44 14L44 16L50 16ZM48 12L50 12L50 10L48 10ZM52 12L54 12L54 10L52 10ZM56 12L58 12L58 10L56 10Z" fill="#000000" fill-rule="evenodd" />
</svg>
