<svg viewBox="0 0 79 79" xmlns="http://www.w3.org/2000/svg">
<rect width="100%" height="100%" fill="#FFFFFF" />
<path d="M0 0L0 79L79 79L79 0ZM2 2L77 2L77 77L2 77Z" fill="#ffffff" fill-rule="evenodd" />
<path d="M10 68L24 68L24 54L10 54ZM26 68L28 68L28 66L26 66ZM32 68L38 68L38 66L32 66ZM40 68L42 68L42 64L40 64ZM46 68L52 68L52 66L54 66L54 64L58 64L58 62L54 62L54 60L62 60L62 58L60 58L60 54L62 54L62 52L64 52L64 54L62 54L62 56L66 56L66 52L68 52L68 50L64 50L64 46L62 46L62 48L60 48L60 50L50 50L50 60L48 60L48 50L50 50L50 48L48 48L48 46L46 46L46 44L48 44L48 42L44 42L44 50L46 50L46 58L44 58L44 56L40 56L40 54L38 54L38 56L36 56L36 58L40 58L40 60L42 60L42 64L50 64L50 62L52 62L52 64L50 64L50 66L46 66ZM54 68L56 68L56 66L54 66ZM60 68L66 68L66 64L64 64L64 66L62 66L62 64L64 64L64 60L62 60L62 62L60 62ZM12 66L12 56L22 56L22 66ZM28 66L32 66L32 64L28 64ZM14 64L20 64L20 58L14 58ZM26 64L28 64L28 60L26 60ZM34 64L36 64L36 62L38 62L38 60L34 60ZM38 64L40 64L40 62L38 62ZM66 64L68 64L68 60L66 60ZM30 60L34 60L34 58L32 58L32 56L30 56ZM64 60L66 60L66 58L64 58ZM26 58L28 58L28 54L32 54L32 56L34 56L34 52L40 52L40 54L44 54L44 52L42 52L42 50L40 50L40 48L42 48L42 42L40 42L40 40L38 40L38 46L36 46L36 50L32 50L32 52L26 52ZM52 58L52 52L58 52L58 58ZM54 56L56 56L56 54L54 54ZM12 52L20 52L20 48L18 48L18 46L16 46L16 48L14 48L14 50L12 50ZM22 52L26 52L26 50L22 50ZM26 50L28 50L28 48L26 48ZM10 48L12 48L12 46L10 46ZM22 48L24 48L24 46L22 46ZM28 48L34 48L34 46L32 46L32 44L34 44L34 40L38 40L38 38L32 38L32 42L30 42L30 40L28 40L28 38L22 38L22 36L24 36L24 34L22 34L22 32L20 32L20 34L18 34L18 36L20 36L20 38L18 38L18 40L20 40L20 42L22 42L22 40L24 40L24 42L26 42L26 44L30 44L30 46L28 46ZM52 48L56 48L56 46L54 46L54 40L56 40L56 46L58 46L58 42L62 42L62 40L60 40L60 38L58 38L58 34L56 34L56 36L52 36L52 34L56 34L56 32L54 32L54 30L52 30L52 32L46 32L46 34L44 34L44 36L42 36L42 42L44 42L44 40L48 40L48 42L50 42L50 38L52 38L52 42L50 42L50 44L48 44L48 46L52 46ZM12 46L16 46L16 44L14 44L14 42L18 42L18 40L12 40L12 42L10 42L10 44L12 44ZM18 46L20 46L20 42L18 42ZM24 46L26 46L26 44L24 44ZM34 46L36 46L36 44L34 44ZM66 46L68 46L68 42L62 42L62 44L66 44ZM22 44L24 44L24 42L22 42ZM10 40L12 40L12 38L16 38L16 36L10 36ZM62 40L68 40L68 36L66 36L66 38L64 38L64 34L62 34L62 36L60 36L60 38L62 38ZM30 38L32 38L32 34L28 34L28 32L30 32L30 28L26 28L26 26L20 26L20 28L24 28L24 30L26 30L26 36L30 36ZM38 38L40 38L40 36L42 36L42 34L38 34ZM48 36L48 34L50 34L50 36ZM12 34L14 34L14 30L12 30L12 26L10 26L10 32L12 32ZM32 34L34 34L34 32L32 32ZM18 32L20 32L20 28L18 28L18 26L14 26L14 30L18 30ZM22 32L24 32L24 30L22 30ZM36 32L38 32L38 30L42 30L42 28L44 28L44 26L46 26L46 30L52 30L52 26L48 26L48 22L50 22L50 24L52 24L52 20L48 20L48 18L46 18L46 16L44 16L44 18L42 18L42 20L40 20L40 22L42 22L42 24L40 24L40 28L38 28L38 26L36 26ZM42 32L46 32L46 30L42 30ZM56 32L60 32L60 30L62 30L62 32L66 32L66 28L68 28L68 26L64 26L64 28L62 28L62 26L60 26L60 28L56 28L56 26L54 26L54 30L56 30ZM26 26L28 26L28 22L26 22ZM32 26L34 26L34 24L32 24ZM10 24L24 24L24 10L10 10ZM30 24L32 24L32 22L30 22ZM34 24L36 24L36 22L34 22ZM38 24L40 24L40 22L38 22ZM44 24L44 20L46 20L46 24ZM54 24L68 24L68 10L54 10ZM12 22L12 12L22 12L22 22ZM28 22L30 22L30 18L32 18L32 16L34 16L34 14L38 14L38 12L42 12L42 10L32 10L32 14L30 14L30 16L26 16L26 18L28 18ZM32 22L34 22L34 20L32 20ZM36 22L38 22L38 20L36 20ZM56 22L56 12L66 12L66 22ZM14 20L20 20L20 14L14 14ZM34 20L36 20L36 16L34 16ZM38 20L40 20L40 18L42 18L42 16L38 16ZM58 20L64 20L64 14L58 14ZM42 16L44 16L44 14L46 14L46 10L44 10L44 12L42 12ZM26 14L28 14L28 10L26 10ZM48 12L50 12L50 10L48 10Z" fill="#000000" fill-rule="evenodd" />
</svg>
