<svg viewBox="0 0 131 43" xmlns="http://www.w3.org/2000/svg">
<rect width="100%" height="100%" fill="#FFFFFF" />
<path d="M0 0L0 43L131 43L131 0ZM2 2L129 2L129 41L2 41Z" fill="#ffffff" fill-rule="evenodd" />
<path d="M6 36L12 36L12 34L8 34L8 32L10 32L10 30L6 30ZM14 36L16 36L16 34L14 34ZM18 36L20 36L20 32L16 32L16 34L18 34ZM22 36L24 36L24 32L22 32ZM26 36L28 36L28 34L26 34ZM30 36L32 36L32 32L30 32ZM34 36L36 36L36 34L38 34L38 30L32 30L32 32L34 32ZM38 36L40 36L40 34L38 34ZM42 36L48 36L48 32L50 32L50 36L52 36L52 32L56 32L56 30L58 30L58 32L60 32L60 30L62 30L62 28L64 28L64 26L66 26L66 28L72 28L72 30L74 30L74 32L78 32L78 30L76 30L76 28L74 28L74 22L72 22L72 20L70 20L70 24L72 24L72 26L68 26L68 24L62 24L62 26L60 26L60 28L54 28L54 30L50 30L50 28L54 28L54 26L52 26L52 24L50 24L50 22L52 22L52 18L54 18L54 16L52 16L52 14L48 14L48 6L42 6L42 12L40 12L40 14L34 14L34 18L32 18L32 22L38 22L38 20L36 20L36 16L38 16L38 20L40 20L40 18L42 18L42 22L40 22L40 26L42 26L42 28L48 28L48 30L40 30L40 32L42 32ZM54 36L56 36L56 34L54 34ZM58 36L60 36L60 34L58 34ZM62 36L64 36L64 34L62 34ZM66 36L68 36L68 34L66 34ZM70 36L72 36L72 32L70 32L70 30L66 30L66 32L68 32L68 34L70 34ZM74 36L76 36L76 34L74 34ZM78 36L80 36L80 34L82 34L82 36L88 36L88 32L90 32L90 36L92 36L92 34L94 34L94 32L92 32L92 28L88 28L88 26L82 26L82 32L78 32ZM94 36L96 36L96 34L94 34ZM98 36L100 36L100 34L98 34ZM102 36L104 36L104 34L106 34L106 36L108 36L108 34L110 34L110 32L104 32L104 30L102 30ZM110 36L112 36L112 34L110 34ZM114 36L124 36L124 26L120 26L120 24L118 24L118 22L114 22L114 20L112 20L112 28L110 28L110 24L108 24L108 30L110 30L110 32L112 32L112 34L114 34ZM44 34L44 32L46 32L46 34ZM84 34L84 32L86 32L86 34ZM96 34L98 34L98 32L96 32ZM116 34L116 28L122 28L122 34ZM12 32L16 32L16 30L18 30L18 26L20 26L20 24L16 24L16 22L6 22L6 24L8 24L8 26L10 26L10 24L14 24L14 26L12 26L12 28L14 28L14 30L12 30ZM20 32L22 32L22 30L20 30ZM26 32L30 32L30 30L28 30L28 24L26 24L26 18L24 18L24 16L26 16L26 14L24 14L24 12L28 12L28 10L30 10L30 8L28 8L28 6L26 6L26 10L22 10L22 20L24 20L24 22L22 22L22 26L24 26L24 28L26 28ZM62 32L64 32L64 30L62 30ZM98 32L100 32L100 30L98 30ZM118 32L120 32L120 30L118 30ZM22 30L24 30L24 28L22 28ZM30 30L32 30L32 26L30 26ZM38 30L40 30L40 26L38 26ZM84 30L84 28L86 28L86 30ZM96 30L98 30L98 28L100 28L100 24L96 24L96 22L100 22L100 20L102 20L102 24L104 24L104 22L106 22L106 20L104 20L104 18L102 18L102 16L96 16L96 12L94 12L94 16L92 16L92 12L94 12L94 8L92 8L92 10L88 10L88 6L82 6L82 8L80 8L80 6L78 6L78 10L80 10L80 12L74 12L74 8L72 8L72 10L68 10L68 6L66 6L66 8L64 8L64 6L62 6L62 10L60 10L60 12L52 12L52 14L54 14L54 16L56 16L56 14L58 14L58 16L60 16L60 14L62 14L62 12L64 12L64 10L66 10L66 12L72 12L72 14L76 14L76 16L80 16L80 18L82 18L82 16L86 16L86 18L88 18L88 16L90 16L90 18L88 18L88 20L92 20L92 18L94 18L94 28L96 28ZM100 30L102 30L102 28L100 28ZM6 28L8 28L8 26L6 26ZM20 28L22 28L22 26L20 26ZM34 28L36 28L36 26L34 26ZM102 28L104 28L104 26L102 26ZM32 26L34 26L34 24L32 24ZM44 26L44 24L46 24L46 26ZM54 26L60 26L60 24L58 24L58 22L56 22L56 24L54 24ZM90 26L92 26L92 24L90 24ZM104 26L106 26L106 24L104 24ZM114 26L114 24L116 24L116 26ZM28 24L30 24L30 16L32 16L32 14L34 14L34 12L40 12L40 6L38 6L38 10L32 10L32 12L30 12L30 14L28 14ZM60 24L62 24L62 22L60 22ZM80 24L82 24L82 22L84 22L84 20L80 20ZM84 24L88 24L88 20L86 20L86 22L84 22ZM106 24L108 24L108 22L106 22ZM120 24L124 24L124 22L122 22L122 20L124 20L124 18L122 18L122 16L120 16L120 18L116 18L116 16L114 16L114 20L120 20ZM44 22L44 20L46 20L46 22ZM62 22L68 22L68 20L66 20L66 18L64 18L64 20L62 20ZM74 22L78 22L78 18L72 18L72 20L74 20ZM108 22L110 22L110 20L108 20ZM6 20L20 20L20 6L6 6ZM46 20L46 18L44 18L44 16L48 16L48 18L50 18L50 20ZM54 20L56 20L56 18L54 18ZM58 20L60 20L60 18L58 18ZM84 20L86 20L86 18L84 18ZM106 20L108 20L108 16L106 16L106 12L104 12L104 10L102 10L102 8L100 8L100 12L102 12L102 14L104 14L104 18L106 18ZM110 20L112 20L112 18L110 18ZM8 18L8 8L18 8L18 18ZM68 18L72 18L72 16L70 16L70 14L66 14L66 16L68 16ZM10 16L16 16L16 10L10 10ZM42 16L42 14L44 14L44 16ZM62 16L64 16L64 14L62 14ZM112 16L114 16L114 12L112 12ZM118 16L120 16L120 12L116 12L116 14L118 14ZM122 16L124 16L124 14L122 14ZM44 14L44 12L46 12L46 14ZM82 14L82 12L90 12L90 14ZM108 14L110 14L110 12L108 12ZM96 12L98 12L98 8L96 8ZM106 12L108 12L108 6L106 6ZM110 12L112 12L112 6L110 6ZM114 12L116 12L116 6L114 6ZM122 12L124 12L124 6L118 6L118 10L120 10L120 8L122 8ZM44 10L44 8L46 8L46 10ZM58 10L60 10L60 6L58 6ZM84 10L84 8L86 8L86 10ZM22 8L24 8L24 6L22 6ZM30 8L32 8L32 6L30 6ZM34 8L36 8L36 6L34 6ZM50 8L52 8L52 6L50 6ZM54 8L56 8L56 6L54 6ZM70 8L72 8L72 6L70 6ZM74 8L76 8L76 6L74 6ZM90 8L92 8L92 6L90 6ZM94 8L96 8L96 6L94 6ZM98 8L100 8L100 6L98 6ZM102 8L104 8L104 6L102 6Z" fill="#000000" fill-rule="evenodd" />
</svg>
