<svg viewBox="0 0 95 95" xmlns="http://www.w3.org/2000/svg">
<rect width="100%" height="100%" fill="#FFFFFF" />
<path d="M0 0L0 95L95 95L95 0ZM2 2L93 2L93 93L2 93Z" fill="#ffffff" fill-rule="evenodd" />
<path d="M10 84L24 84L24 70L10 70ZM26 84L30 84L30 82L26 82ZM32 84L34 84L34 82L32 82ZM42 84L48 84L48 82L44 82L44 80L42 80ZM50 84L52 84L52 82L50 82ZM58 84L66 84L66 82L60 82L60 80L66 80L66 78L64 78L64 76L62 76L62 78L58 78ZM76 84L84 84L84 74L76 74L76 72L78 72L78 70L80 70L80 66L78 66L78 68L76 68L76 66L72 66L72 64L76 64L76 66L78 66L78 62L70 62L70 60L68 60L68 66L66 66L66 62L62 62L62 66L64 66L64 68L66 68L66 72L62 72L62 74L64 74L64 76L70 76L70 78L76 78L76 76L82 76L82 78L80 78L80 80L82 80L82 82L76 82ZM12 82L12 72L22 72L22 82ZM30 82L32 82L32 80L30 80ZM34 82L36 82L36 80L34 80ZM52 82L54 82L54 80L52 80ZM66 82L68 82L68 80L66 80ZM70 82L74 82L74 80L70 80ZM14 80L20 80L20 74L14 74ZM26 80L30 80L30 78L28 78L28 76L30 76L30 74L28 74L28 72L26 72ZM32 80L34 80L34 74L32 74ZM50 80L52 80L52 78L50 78ZM54 80L56 80L56 78L54 78ZM68 80L70 80L70 78L68 78ZM76 80L78 80L78 78L76 78ZM38 78L44 78L44 76L42 76L42 72L44 72L44 70L38 70L38 72L36 72L36 74L40 74L40 76L38 76ZM52 78L54 78L54 76L56 76L56 74L52 74L52 72L50 72L50 76L52 76ZM56 78L58 78L58 76L56 76ZM46 76L48 76L48 74L46 74ZM58 76L62 76L62 74L60 74L60 72L58 72ZM68 74L68 68L74 68L74 74ZM28 72L30 72L30 68L26 68L26 70L28 70ZM34 72L36 72L36 68L32 68L32 70L34 70ZM46 72L48 72L48 70L50 70L50 68L52 68L52 66L54 66L54 64L56 64L56 60L54 60L54 58L56 58L56 56L54 56L54 54L58 54L58 52L62 52L62 50L58 50L58 48L60 48L60 46L54 46L54 44L56 44L56 42L50 42L50 44L52 44L52 46L50 46L50 48L52 48L52 50L54 50L54 48L56 48L56 52L48 52L48 54L52 54L52 56L46 56L46 52L48 52L48 46L44 46L44 48L46 48L46 50L44 50L44 48L42 48L42 52L44 52L44 58L52 58L52 60L50 60L50 62L52 62L52 64L50 64L50 62L48 62L48 60L46 60L46 64L48 64L48 68L46 68ZM54 72L56 72L56 70L54 70ZM70 72L72 72L72 70L70 70ZM80 72L84 72L84 70L80 70ZM56 70L60 70L60 68L56 68ZM62 70L64 70L64 68L62 68ZM10 68L12 68L12 62L14 62L14 56L12 56L12 60L10 60ZM22 68L26 68L26 66L30 66L30 68L32 68L32 66L36 66L36 62L34 62L34 60L36 60L36 58L38 58L38 60L40 60L40 58L42 58L42 54L40 54L40 56L38 56L38 54L36 54L36 56L34 56L34 58L32 58L32 60L26 60L26 62L30 62L30 64L24 64L24 66L22 66ZM36 68L46 68L46 66L42 66L42 64L44 64L44 62L42 62L42 60L40 60L40 62L38 62L38 64L40 64L40 66L36 66ZM54 68L56 68L56 66L54 66ZM60 68L62 68L62 66L60 66ZM82 68L84 68L84 62L82 62ZM16 66L22 66L22 64L20 64L20 60L16 60L16 62L14 62L14 64L16 64ZM56 66L60 66L60 64L56 64ZM22 64L24 64L24 62L22 62ZM36 62L38 62L38 60L36 60ZM58 62L60 62L60 60L68 60L68 56L66 56L66 54L64 54L64 52L62 52L62 56L64 56L64 58L60 58L60 56L58 56L58 58L56 58L56 60L58 60ZM80 62L82 62L82 60L80 60ZM22 60L26 60L26 56L24 56L24 58L22 58ZM42 60L44 60L44 58L42 58ZM70 60L76 60L76 58L78 58L78 54L76 54L76 56L74 56L74 58L72 58L72 56L74 56L74 52L72 52L72 54L70 54L70 52L66 52L66 54L68 54L68 56L70 56ZM78 60L80 60L80 58L78 58ZM82 60L84 60L84 58L82 58ZM28 58L30 58L30 56L28 56ZM80 58L82 58L82 56L84 56L84 54L80 54ZM10 56L12 56L12 54L10 54ZM14 56L18 56L18 54L14 54ZM22 56L24 56L24 54L22 54ZM26 56L28 56L28 54L26 54ZM12 54L14 54L14 50L12 50L12 46L10 46L10 52L12 52ZM18 54L20 54L20 52L24 52L24 54L26 54L26 52L28 52L28 48L24 48L24 50L22 50L22 48L20 48L20 50L18 50L18 46L20 46L20 44L18 44L18 42L20 42L20 44L24 44L24 42L22 42L22 40L24 40L24 42L28 42L28 40L26 40L26 38L20 38L20 40L18 40L18 38L14 38L14 40L16 40L16 46L14 46L14 48L16 48L16 52L18 52ZM28 54L30 54L30 52L28 52ZM32 54L34 54L34 52L32 52ZM38 54L40 54L40 50L36 50L36 46L30 46L30 48L32 48L32 50L34 50L34 52L38 52ZM30 52L32 52L32 50L30 50ZM70 52L72 52L72 50L70 50ZM74 52L84 52L84 50L74 50ZM64 50L66 50L66 46L64 46ZM22 48L24 48L24 46L22 46ZM70 48L84 48L84 46L78 46L78 44L76 44L76 46L70 46ZM12 46L14 46L14 42L12 42ZM26 46L30 46L30 44L26 44ZM36 46L38 46L38 40L40 40L40 46L44 46L44 44L42 44L42 38L40 38L40 36L36 36L36 40L34 40L34 44L36 44ZM62 46L64 46L64 44L62 44ZM66 46L68 46L68 44L66 44ZM46 44L48 44L48 42L46 42ZM58 44L62 44L62 42L60 42L60 40L58 40ZM64 44L66 44L66 42L64 42ZM68 44L76 44L76 42L74 42L74 40L72 40L72 42L70 42L70 40L72 40L72 38L70 38L70 36L66 36L66 38L64 38L64 40L68 40ZM78 44L80 44L80 42L78 42ZM82 44L84 44L84 42L82 42ZM10 42L12 42L12 40L10 40ZM30 42L32 42L32 38L28 38L28 40L30 40ZM48 42L50 42L50 40L48 40ZM62 42L64 42L64 40L62 40ZM76 42L78 42L78 38L80 38L80 34L74 34L74 32L72 32L72 34L70 34L70 36L76 36ZM80 42L82 42L82 40L84 40L84 38L80 38ZM46 40L48 40L48 38L46 38ZM54 40L56 40L56 38L60 38L60 36L54 36ZM60 40L62 40L62 38L60 38ZM10 38L14 38L14 32L12 32L12 36L10 36ZM18 38L20 38L20 36L18 36ZM26 38L28 38L28 36L26 36ZM48 38L52 38L52 36L50 36L50 34L56 34L56 28L54 28L54 26L56 26L56 22L54 22L54 24L52 24L52 22L50 22L50 26L52 26L52 28L50 28L50 30L52 30L52 32L50 32L50 30L48 30L48 32L46 32L46 34L42 34L42 32L46 32L46 30L42 30L42 28L44 28L44 26L48 26L48 22L46 22L46 24L44 24L44 22L42 22L42 26L40 26L40 22L42 22L42 20L34 20L34 14L36 14L36 10L34 10L34 12L32 12L32 18L30 18L30 14L26 14L26 26L28 26L28 20L32 20L32 22L34 22L34 26L36 26L36 22L38 22L38 30L36 30L36 32L40 32L40 36L48 36ZM62 38L64 38L64 36L62 36ZM20 36L24 36L24 34L20 34ZM28 36L32 36L32 34L28 34ZM34 36L36 36L36 32L32 32L32 34L34 34ZM60 36L62 36L62 34L60 34ZM64 36L66 36L66 34L68 34L68 32L66 32L66 30L64 30ZM82 36L84 36L84 30L82 30L82 32L80 32L80 34L82 34ZM16 34L20 34L20 32L24 32L24 30L20 30L20 28L24 28L24 26L14 26L14 32L16 32L16 30L18 30L18 32L16 32ZM24 34L26 34L26 32L24 32ZM58 34L60 34L60 32L58 32ZM10 32L12 32L12 26L10 26ZM30 32L32 32L32 30L30 30ZM70 32L72 32L72 30L70 30ZM76 32L80 32L80 30L76 30ZM26 30L28 30L28 28L26 28ZM32 30L36 30L36 28L32 28ZM46 30L48 30L48 28L46 28ZM58 30L62 30L62 28L66 28L66 24L64 24L64 26L60 26L60 28L58 28ZM66 30L70 30L70 28L66 28ZM80 30L82 30L82 28L80 28ZM30 28L32 28L32 26L30 26ZM70 28L80 28L80 26L70 26ZM58 26L60 26L60 22L58 22ZM10 24L24 24L24 10L10 10ZM30 24L32 24L32 22L30 22ZM62 24L64 24L64 22L62 22ZM66 24L68 24L68 18L66 18L66 20L64 20L64 22L66 22ZM70 24L84 24L84 10L70 10ZM12 22L12 12L22 12L22 22ZM44 22L46 22L46 20L50 20L50 18L46 18L46 16L44 16L44 14L38 14L38 16L36 16L36 18L42 18L42 20L44 20ZM52 22L54 22L54 18L52 18ZM60 22L62 22L62 20L60 20ZM72 22L72 12L82 12L82 22ZM14 20L20 20L20 14L14 14ZM56 20L60 20L60 18L58 18L58 14L62 14L62 12L54 12L54 14L56 14L56 16L54 16L54 18L56 18ZM62 20L64 20L64 18L62 18ZM74 20L80 20L80 14L74 14ZM50 18L52 18L52 16L50 16ZM60 18L62 18L62 16L60 16ZM64 18L66 18L66 16L64 16ZM46 16L48 16L48 12L46 12ZM52 16L54 16L54 14L52 14ZM62 16L64 16L64 14L62 14ZM50 14L52 14L52 12L50 12ZM64 14L68 14L68 10L66 10L66 12L64 12ZM28 12L32 12L32 10L28 10ZM40 12L46 12L46 10L40 10ZM52 12L54 12L54 10L52 10Z" fill="#000000" fill-rule="evenodd" />
</svg>
