<svg viewBox="0 0 95 95" xmlns="http://www.w3.org/2000/svg">
<rect width="100%" height="100%" fill="#FFFFFF" />
<path d="M0 0L0 95L95 95L95 0ZM2 2L93 2L93 93L2 93Z" fill="#ffffff" fill-rule="evenodd" />
<path d="M10 84L24 84L24 70L10 70ZM26 84L28 84L28 82L26 82ZM32 84L36 84L36 80L34 80L34 82L32 82ZM38 84L42 84L42 80L44 80L44 78L42 78L42 76L44 76L44 74L42 74L42 70L40 70L40 74L36 74L36 76L38 76L38 78L40 78L40 80L38 80ZM44 84L50 84L50 82L48 82L48 78L50 78L50 80L52 80L52 82L54 82L54 84L56 84L56 82L58 82L58 84L64 84L64 82L68 82L68 84L70 84L70 80L62 80L62 82L60 82L60 80L62 80L62 76L68 76L68 78L72 78L72 76L74 76L74 78L76 78L76 76L80 76L80 74L76 74L76 70L78 70L78 68L76 68L76 66L70 66L70 64L66 64L66 68L64 68L64 70L66 70L66 72L64 72L64 74L60 74L60 72L58 72L58 74L56 74L56 72L54 72L54 68L48 68L48 70L52 70L52 72L50 72L50 74L48 74L48 76L46 76L46 82L44 82ZM72 84L84 84L84 76L82 76L82 78L80 78L80 80L82 80L82 82L76 82L76 80L74 80L74 82L72 82ZM12 82L12 72L22 72L22 82ZM30 82L32 82L32 80L30 80ZM14 80L20 80L20 74L14 74ZM26 80L28 80L28 78L30 78L30 76L28 76L28 72L26 72ZM36 80L38 80L38 78L36 78ZM54 80L54 76L56 76L56 78L58 78L58 80ZM72 80L74 80L74 78L72 78ZM76 80L78 80L78 78L76 78ZM32 76L34 76L34 74L36 74L36 70L32 70L32 68L34 68L34 62L36 62L36 64L38 64L38 62L46 62L46 60L42 60L42 58L40 58L40 60L38 60L38 58L36 58L36 60L32 60L32 62L30 62L30 64L32 64L32 66L30 66L30 68L26 68L26 70L28 70L28 72L30 72L30 74L32 74ZM52 76L52 74L54 74L54 76ZM44 74L48 74L48 72L46 72L46 66L44 66L44 68L42 68L42 70L44 70ZM68 74L68 68L74 68L74 74ZM80 74L84 74L84 70L80 70ZM60 72L62 72L62 70L60 70ZM70 72L72 72L72 70L70 70ZM36 70L38 70L38 68L36 68ZM56 70L58 70L58 68L56 68ZM10 68L12 68L12 62L14 62L14 66L16 66L16 68L20 68L20 66L22 66L22 64L26 64L26 66L28 66L28 62L30 62L30 60L28 60L28 58L30 58L30 56L32 56L32 54L28 54L28 56L26 56L26 58L22 58L22 56L24 56L24 54L22 54L22 52L26 52L26 50L32 50L32 48L30 48L30 46L32 46L32 44L30 44L30 42L22 42L22 44L24 44L24 46L22 46L22 44L20 44L20 52L18 52L18 54L20 54L20 56L16 56L16 58L20 58L20 60L16 60L16 58L14 58L14 60L10 60ZM22 68L24 68L24 66L22 66ZM38 68L40 68L40 64L38 64ZM54 68L56 68L56 66L54 66ZM58 68L64 68L64 64L62 64L62 66L60 66L60 64L62 64L62 62L58 62ZM78 68L80 68L80 66L78 66ZM42 66L44 66L44 64L42 64ZM48 66L50 66L50 64L48 64ZM52 66L54 66L54 64L56 64L56 62L54 62L54 60L50 60L50 58L46 58L46 60L48 60L48 62L50 62L50 64L52 64ZM80 66L82 66L82 64L84 64L84 62L80 62ZM16 64L16 62L18 62L18 64ZM64 64L66 64L66 62L64 62ZM70 64L74 64L74 60L72 60L72 62L70 62ZM22 62L22 60L26 60L26 62ZM56 62L58 62L58 60L62 60L62 62L64 62L64 60L66 60L66 54L64 54L64 52L66 52L66 54L68 54L68 52L72 52L72 50L68 50L68 48L70 48L70 46L64 46L64 50L58 50L58 52L60 52L60 54L58 54L58 56L62 56L62 58L54 58L54 60L56 60ZM66 62L68 62L68 60L66 60ZM76 62L80 62L80 60L82 60L82 58L84 58L84 54L80 54L80 58L76 58L76 56L78 56L78 52L82 52L82 50L76 50L76 48L72 48L72 50L74 50L74 52L76 52L76 54L74 54L74 56L70 56L70 58L68 58L68 60L72 60L72 58L74 58L74 60L76 60ZM38 58L40 58L40 56L44 56L44 52L42 52L42 54L38 54ZM50 58L54 58L54 54L58 54L58 52L56 52L56 48L50 48L50 50L54 50L54 52L52 52L52 56L50 56ZM12 56L14 56L14 52L16 52L16 50L14 50L14 48L10 48L10 54L12 54ZM34 56L36 56L36 54L34 54ZM46 56L48 56L48 54L50 54L50 50L48 50L48 52L46 52ZM26 54L28 54L28 52L26 52ZM36 54L38 54L38 52L36 52ZM72 54L74 54L74 52L72 52ZM32 52L36 52L36 46L40 46L40 48L38 48L38 52L42 52L42 48L44 48L44 46L42 46L42 44L40 44L40 42L32 42L32 44L34 44L34 50L32 50ZM44 52L46 52L46 50L44 50ZM22 50L22 48L24 48L24 50ZM26 48L26 44L28 44L28 48ZM46 48L48 48L48 46L54 46L54 44L44 44L44 46L46 46ZM58 48L60 48L60 46L58 46ZM76 48L84 48L84 46L82 46L82 44L80 44L80 46L76 46ZM10 46L18 46L18 44L14 44L14 42L10 42ZM56 46L58 46L58 42L56 42ZM42 44L44 44L44 42L48 42L48 40L46 40L46 38L58 38L58 40L62 40L62 38L60 38L60 36L62 36L62 34L60 34L60 30L58 30L58 32L56 32L56 34L58 34L58 36L56 36L56 34L54 34L54 36L52 36L52 34L54 34L54 32L52 32L52 30L50 30L50 36L46 36L46 34L44 34L44 36L42 36L42 38L44 38L44 40L42 40L42 38L40 38L40 42L42 42ZM60 44L66 44L66 42L68 42L68 40L66 40L66 38L64 38L64 40L62 40L62 42L60 42ZM68 44L72 44L72 42L74 42L74 44L80 44L80 42L78 42L78 38L74 38L74 36L76 36L76 34L72 34L72 30L70 30L70 28L66 28L66 30L68 30L68 34L66 34L66 30L64 30L64 36L66 36L66 38L68 38L68 36L72 36L72 38L70 38L70 42L68 42ZM82 44L84 44L84 42L82 42ZM14 42L16 42L16 40L14 40ZM18 42L20 42L20 40L18 40ZM52 42L56 42L56 40L52 40ZM20 40L24 40L24 38L20 38ZM28 40L32 40L32 38L30 38L30 36L28 36ZM34 40L36 40L36 38L38 38L38 36L36 36L36 34L38 34L38 36L40 36L40 32L38 32L38 30L36 30L36 32L34 32L34 34L32 34L32 36L34 36ZM82 40L84 40L84 38L82 38ZM10 38L12 38L12 36L14 36L14 32L12 32L12 34L10 34ZM18 36L20 36L20 32L18 32ZM22 36L24 36L24 34L22 34ZM26 36L28 36L28 34L26 34ZM78 36L84 36L84 30L82 30L82 28L80 28L80 34L78 34ZM24 34L26 34L26 30L22 30L22 32L24 32ZM28 34L30 34L30 32L32 32L32 30L30 30L30 26L28 26ZM42 34L44 34L44 32L42 32ZM46 34L48 34L48 30L44 30L44 32L46 32ZM10 32L12 32L12 30L10 30ZM14 32L18 32L18 30L14 30ZM54 32L56 32L56 30L58 30L58 28L56 28L56 22L54 22L54 24L52 24L52 26L54 26ZM76 32L78 32L78 28L80 28L80 26L70 26L70 28L72 28L72 30L74 30L74 28L76 28ZM18 30L22 30L22 28L24 28L24 26L14 26L14 28L18 28ZM34 30L36 30L36 28L34 28ZM38 30L44 30L44 28L42 28L42 26L44 26L44 18L42 18L42 20L40 20L40 22L42 22L42 24L40 24L40 22L38 22L38 26L36 26L36 28L38 28ZM62 30L64 30L64 28L66 28L66 26L60 26L60 22L62 22L62 20L58 20L58 28L62 28ZM10 28L12 28L12 26L10 26ZM32 28L34 28L34 26L36 26L36 20L40 20L40 14L42 14L42 16L44 16L44 12L46 12L46 16L48 16L48 20L50 20L50 24L52 24L52 20L54 20L54 18L50 18L50 16L54 16L54 18L56 18L56 14L54 14L54 12L52 12L52 14L50 14L50 12L48 12L48 10L40 10L40 12L38 12L38 14L36 14L36 12L38 12L38 10L34 10L34 16L38 16L38 18L34 18L34 24L32 24L32 22L30 22L30 26L32 26ZM46 28L48 28L48 26L46 26ZM26 26L28 26L28 20L32 20L32 18L28 18L28 16L30 16L30 14L26 14ZM48 26L50 26L50 24L48 24ZM10 24L24 24L24 10L10 10ZM46 24L48 24L48 20L46 20ZM62 24L64 24L64 22L62 22ZM66 24L68 24L68 22L66 22ZM70 24L84 24L84 10L70 10ZM12 22L12 12L22 12L22 22ZM64 22L66 22L66 20L64 20ZM72 22L72 12L82 12L82 22ZM14 20L20 20L20 14L14 14ZM56 20L58 20L58 18L56 18ZM62 20L64 20L64 18L66 18L66 14L68 14L68 10L66 10L66 12L64 12L64 14L62 14L62 16L58 16L58 18L62 18ZM66 20L68 20L68 18L66 18ZM74 20L80 20L80 14L74 14ZM44 18L46 18L46 16L44 16ZM30 14L32 14L32 12L30 12ZM50 12L52 12L52 10L50 10ZM54 12L58 12L58 10L54 10ZM60 12L62 12L62 10L60 10Z" fill="#000000" fill-rule="evenodd" />
</svg>
