<svg viewBox="0 0 87 87" xmlns="http://www.w3.org/2000/svg">
<rect width="100%" height="100%" fill="#FFFFFF" />
<path d="M0 0L0 87L87 87L87 0ZM2 2L85 2L85 85L2 85Z" fill="#ffffff" fill-rule="evenodd" />
<path d="M10 76L24 76L24 62L10 62ZM26 76L28 76L28 74L26 74ZM30 76L32 76L32 74L30 74ZM36 76L42 76L42 74L36 74ZM46 76L48 76L48 74L50 74L50 76L56 76L56 74L54 74L54 72L52 72L52 70L50 70L50 72L44 72L44 74L46 74ZM58 76L64 76L64 74L60 74L60 68L62 68L62 70L64 70L64 72L72 72L72 70L68 70L68 60L70 60L70 58L64 58L64 56L62 56L62 54L64 54L64 56L66 56L66 50L64 50L64 52L62 52L62 50L60 50L60 52L58 52L58 56L52 56L52 62L56 62L56 60L54 60L54 58L58 58L58 64L50 64L50 66L48 66L48 62L50 62L50 60L46 60L46 58L42 58L42 60L44 60L44 62L42 62L42 64L44 64L44 66L46 66L46 70L50 70L50 68L52 68L52 70L54 70L54 72L56 72L56 74L58 74ZM66 76L74 76L74 74L66 74ZM12 74L12 64L22 64L22 74ZM32 74L36 74L36 72L38 72L38 70L40 70L40 72L44 72L44 68L42 68L42 64L40 64L40 62L38 62L38 66L36 66L36 70L34 70L34 66L36 66L36 64L34 64L34 62L36 62L36 58L34 58L34 56L32 56L32 60L28 60L28 58L30 58L30 56L32 56L32 52L30 52L30 54L28 54L28 56L26 56L26 62L28 62L28 64L26 64L26 66L30 66L30 62L32 62L32 68L26 68L26 70L28 70L28 72L32 72ZM14 72L20 72L20 66L14 66ZM74 72L76 72L76 70L74 70ZM54 68L54 66L58 66L58 68ZM72 68L76 68L76 64L74 64L74 66L72 66ZM60 66L60 60L66 60L66 66ZM62 64L64 64L64 62L62 62ZM72 64L74 64L74 62L72 62ZM10 60L12 60L12 58L10 58ZM22 60L24 60L24 58L22 58ZM38 60L40 60L40 58L38 58ZM72 60L76 60L76 54L74 54L74 56L72 56ZM12 58L18 58L18 56L16 56L16 54L14 54L14 52L12 52L12 54L10 54L10 56L12 56ZM40 58L42 58L42 56L40 56ZM48 58L50 58L50 56L52 56L52 52L50 52L50 54L48 54ZM22 56L26 56L26 38L28 38L28 36L26 36L26 34L30 34L30 30L28 30L28 32L26 32L26 28L24 28L24 30L22 30L22 32L24 32L24 34L22 34L22 32L20 32L20 30L18 30L18 32L14 32L14 30L10 30L10 32L12 32L12 34L10 34L10 36L12 36L12 38L16 38L16 34L18 34L18 38L20 38L20 36L24 36L24 38L20 38L20 40L24 40L24 42L22 42L22 44L24 44L24 46L22 46L22 44L20 44L20 46L18 46L18 50L20 50L20 48L24 48L24 50L22 50L22 52L24 52L24 54L22 54ZM36 56L40 56L40 54L38 54L38 50L36 50L36 52L34 52L34 54L36 54ZM42 56L44 56L44 54L42 54ZM68 56L72 56L72 54L68 54ZM16 54L22 54L22 52L18 52L18 50L16 50L16 46L14 46L14 48L12 48L12 46L10 46L10 50L14 50L14 52L16 52ZM40 54L42 54L42 52L40 52ZM54 54L56 54L56 52L58 52L58 50L54 50L54 48L52 48L52 52L54 52ZM28 52L30 52L30 50L28 50ZM44 52L46 52L46 50L44 50ZM68 52L70 52L70 50L68 50ZM74 52L76 52L76 42L72 42L72 44L74 44L74 46L72 46L72 48L74 48ZM38 50L40 50L40 46L38 46ZM42 50L44 50L44 48L46 48L46 44L42 44L42 42L40 42L40 46L42 46ZM48 50L50 50L50 48L48 48ZM62 50L64 50L64 48L62 48ZM28 48L30 48L30 46L28 46ZM32 48L34 48L34 44L32 44L32 40L28 40L28 44L30 44L30 46L32 46ZM50 48L52 48L52 46L50 46ZM54 48L56 48L56 46L54 46ZM16 46L18 46L18 44L20 44L20 40L12 40L12 42L14 42L14 44L16 44ZM56 46L60 46L60 44L56 44ZM10 44L12 44L12 42L10 42ZM36 44L38 44L38 42L36 42ZM52 44L56 44L56 42L54 42L54 40L52 40L52 34L50 34L50 40L44 40L44 38L42 38L42 36L40 36L40 34L38 34L38 38L40 38L40 40L42 40L42 42L52 42ZM60 44L70 44L70 42L62 42L62 40L60 40ZM38 42L40 42L40 40L38 40ZM10 40L12 40L12 38L10 38ZM32 40L38 40L38 38L32 38ZM56 40L58 40L58 38L60 38L60 36L64 36L64 34L62 34L62 32L60 32L60 30L58 30L58 32L54 32L54 28L52 28L52 26L50 26L50 28L48 28L48 30L46 30L46 38L48 38L48 34L50 34L50 32L52 32L52 34L58 34L58 36L56 36ZM62 40L70 40L70 38L68 38L68 36L66 36L66 38L62 38ZM72 40L74 40L74 36L72 36ZM42 36L44 36L44 30L46 30L46 28L40 28L40 30L42 30ZM70 36L72 36L72 34L70 34ZM32 34L34 34L34 32L32 32ZM36 34L38 34L38 32L40 32L40 30L38 30L38 28L40 28L40 26L36 26L36 22L34 22L34 24L32 24L32 22L34 22L34 20L36 20L36 18L38 18L38 20L36 20L36 22L38 22L38 24L40 24L40 22L42 22L42 24L40 24L40 26L46 26L46 24L44 24L44 20L40 20L40 16L38 16L38 14L42 14L42 12L38 12L38 10L34 10L34 12L36 12L36 16L32 16L32 18L30 18L30 20L26 20L26 24L28 24L28 22L30 22L30 26L26 26L26 28L30 28L30 30L32 30L32 28L36 28L36 30L34 30L34 32L36 32ZM68 34L70 34L70 28L68 28L68 30L64 30L64 32L68 32ZM72 34L74 34L74 32L72 32ZM74 32L76 32L76 28L72 28L72 30L74 30ZM14 30L18 30L18 26L16 26L16 28L14 28ZM20 30L22 30L22 28L24 28L24 26L20 26ZM62 30L64 30L64 28L62 28ZM10 28L12 28L12 26L10 26ZM56 28L58 28L58 26L60 26L60 20L58 20L58 24L56 24L56 22L54 22L54 24L52 24L52 26L56 26ZM60 28L62 28L62 26L60 26ZM64 28L66 28L66 26L64 26ZM10 24L24 24L24 10L10 10ZM46 24L48 24L48 22L46 22ZM50 24L52 24L52 22L50 22ZM62 24L76 24L76 10L62 10ZM12 22L12 12L22 12L22 22ZM48 22L50 22L50 20L52 20L52 22L54 22L54 20L58 20L58 16L54 16L54 18L50 18L50 14L48 14L48 12L46 12L46 16L44 16L44 14L42 14L42 18L44 18L44 20L48 20ZM64 22L64 12L74 12L74 22ZM14 20L20 20L20 14L14 14ZM66 20L72 20L72 14L66 14ZM30 14L34 14L34 12L32 12L32 10L28 10L28 12L30 12ZM54 14L58 14L58 12L56 12L56 10L54 10ZM44 12L46 12L46 10L44 10Z" fill="#000000" fill-rule="evenodd" />
</svg>
