<svg viewBox="0 0 79 79" xmlns="http://www.w3.org/2000/svg">
<rect width="100%" height="100%" fill="#FFFFFF" />
<path d="M0 0L0 79L79 79L79 0ZM2 2L77 2L77 77L2 77Z" fill="#ffffff" fill-rule="evenodd" />
<path d="M10 68L24 68L24 54L10 54ZM26 68L28 68L28 66L26 66ZM36 68L38 68L38 66L36 66ZM40 68L42 68L42 64L40 64ZM44 68L46 68L46 64L44 64ZM48 68L52 68L52 66L48 66ZM54 68L56 68L56 66L54 66ZM60 68L62 68L62 64L64 64L64 62L66 62L66 64L68 64L68 54L66 54L66 52L68 52L68 50L66 50L66 48L68 48L68 46L66 46L66 44L62 44L62 46L64 46L64 58L66 58L66 60L64 60L64 58L62 58L62 62L58 62L58 60L60 60L60 52L62 52L62 50L56 50L56 48L54 48L54 46L56 46L56 44L58 44L58 42L56 42L56 40L58 40L58 38L56 38L56 36L58 36L58 34L60 34L60 30L56 30L56 34L54 34L54 38L52 38L52 42L50 42L50 44L46 44L46 46L44 46L44 48L42 48L42 56L44 56L44 60L42 60L42 62L48 62L48 60L46 60L46 58L48 58L48 56L46 56L46 54L50 54L50 60L56 60L56 62L48 62L48 64L56 64L56 66L58 66L58 64L60 64ZM64 68L68 68L68 66L66 66L66 64L64 64ZM12 66L12 56L22 56L22 66ZM28 66L36 66L36 64L34 64L34 58L32 58L32 64L28 64ZM14 64L20 64L20 58L14 58ZM26 64L28 64L28 62L26 62ZM38 64L40 64L40 60L42 60L42 56L40 56L40 54L38 54L38 56L36 56L36 54L38 54L38 52L36 52L36 48L38 48L38 46L36 46L36 42L38 42L38 46L40 46L40 44L42 44L42 40L40 40L40 38L38 38L38 40L32 40L32 42L30 42L30 44L32 44L32 46L34 46L34 48L30 48L30 44L26 44L26 40L28 40L28 36L32 36L32 38L38 38L38 36L34 36L34 32L32 32L32 34L30 34L30 30L28 30L28 28L24 28L24 30L26 30L26 34L22 34L22 36L26 36L26 38L22 38L22 36L18 36L18 38L20 38L20 40L24 40L24 42L16 42L16 38L14 38L14 44L20 44L20 46L22 46L22 44L24 44L24 46L28 46L28 52L26 52L26 54L30 54L30 52L32 52L32 54L34 54L34 58L38 58ZM28 62L30 62L30 58L26 58L26 60L28 60ZM30 58L32 58L32 56L30 56ZM52 58L52 52L58 52L58 58ZM54 56L56 56L56 54L54 54ZM10 52L12 52L12 50L10 50ZM16 52L18 52L18 50L16 50ZM20 52L26 52L26 48L24 48L24 50L20 50ZM44 52L44 50L46 50L46 48L48 48L48 46L52 46L52 48L50 48L50 52ZM12 50L14 50L14 48L12 48ZM18 50L20 50L20 48L18 48ZM10 48L12 48L12 46L10 46ZM14 48L18 48L18 46L14 46ZM22 48L24 48L24 46L22 46ZM56 48L58 48L58 46L56 46ZM66 44L68 44L68 42L66 42ZM10 42L12 42L12 40L10 40ZM28 42L30 42L30 40L28 40ZM44 42L50 42L50 40L48 40L48 38L46 38L46 36L42 36L42 32L40 32L40 38L44 38ZM60 40L62 40L62 36L64 36L64 34L60 34ZM64 40L68 40L68 34L66 34L66 36L64 36ZM50 38L52 38L52 36L50 36ZM10 36L12 36L12 34L10 34ZM16 34L18 34L18 32L24 32L24 30L22 30L22 28L20 28L20 26L18 26L18 30L16 30ZM44 34L46 34L46 32L44 32ZM48 34L54 34L54 28L52 28L52 22L50 22L50 24L48 24L48 22L46 22L46 24L44 24L44 22L42 22L42 26L40 26L40 22L38 22L38 24L36 24L36 22L34 22L34 24L32 24L32 26L34 26L34 32L38 32L38 30L36 30L36 26L38 26L38 30L42 30L42 28L44 28L44 30L46 30L46 32L48 32L48 30L52 30L52 32L48 32ZM64 32L68 32L68 30L66 30L66 26L64 26L64 28L62 28L62 30L64 30ZM10 30L12 30L12 26L10 26ZM14 30L16 30L16 26L14 26ZM22 28L24 28L24 26L22 26ZM46 28L46 26L50 26L50 28ZM58 28L60 28L60 26L58 26ZM10 24L24 24L24 10L10 10ZM26 24L28 24L28 22L26 22ZM30 24L32 24L32 20L30 20L30 14L28 14L28 18L26 18L26 20L28 20L28 22L30 22ZM54 24L68 24L68 10L54 10ZM12 22L12 12L22 12L22 22ZM36 22L38 22L38 20L36 20ZM48 22L50 22L50 20L48 20ZM56 22L56 12L66 12L66 22ZM14 20L20 20L20 14L14 14ZM38 20L40 20L40 18L42 18L42 16L40 16L40 14L42 14L42 16L44 16L44 14L46 14L46 12L44 12L44 10L42 10L42 12L38 12L38 14L36 14L36 12L38 12L38 10L34 10L34 12L32 12L32 14L34 14L34 18L38 18ZM44 20L48 20L48 18L50 18L50 12L48 12L48 16L44 16ZM58 20L64 20L64 14L58 14ZM26 14L28 14L28 12L26 12ZM46 12L48 12L48 10L46 10Z" fill="#000000" fill-rule="evenodd" />
</svg>
