<svg viewBox="0 0 131 43" xmlns="http://www.w3.org/2000/svg">
<rect width="100%" height="100%" fill="#FFFFFF" />
<path d="M0 0L0 43L131 43L131 0ZM2 2L129 2L129 41L2 41Z" fill="#ffffff" fill-rule="evenodd" />
<path d="M6 36L12 36L12 32L16 32L16 34L18 34L18 36L20 36L20 32L18 32L18 30L20 30L20 26L18 26L18 28L14 28L14 26L12 26L12 24L10 24L10 22L6 22L6 24L8 24L8 26L10 26L10 30L6 30ZM14 36L16 36L16 34L14 34ZM22 36L24 36L24 32L22 32ZM26 36L28 36L28 34L26 34ZM30 36L32 36L32 34L30 34ZM34 36L36 36L36 34L34 34ZM38 36L40 36L40 34L38 34ZM42 36L48 36L48 32L50 32L50 36L52 36L52 34L54 34L54 36L56 36L56 34L58 34L58 36L60 36L60 32L58 32L58 30L56 30L56 32L54 32L54 30L48 30L48 28L56 28L56 26L52 26L52 24L50 24L50 20L48 20L48 26L44 26L44 28L46 28L46 30L44 30L44 28L40 28L40 30L42 30ZM62 36L64 36L64 34L66 34L66 36L68 36L68 32L62 32ZM70 36L72 36L72 34L70 34ZM74 36L76 36L76 34L74 34ZM78 36L80 36L80 34L78 34ZM82 36L88 36L88 34L90 34L90 32L88 32L88 30L84 30L84 28L88 28L88 30L90 30L90 32L92 32L92 34L94 34L94 36L96 36L96 32L94 32L94 30L92 30L92 28L90 28L90 20L86 20L86 22L84 22L84 20L86 20L86 18L84 18L84 16L88 16L88 12L90 12L90 10L88 10L88 6L82 6L82 8L80 8L80 12L86 12L86 14L82 14L82 16L74 16L74 14L72 14L72 12L70 12L70 16L72 16L72 18L68 18L68 16L62 16L62 18L60 18L60 20L52 20L52 22L54 22L54 24L56 24L56 22L58 22L58 24L60 24L60 22L62 22L62 20L64 20L64 18L66 18L66 20L72 20L72 22L74 22L74 18L76 18L76 22L78 22L78 24L80 24L80 18L82 18L82 24L88 24L88 26L82 26L82 24L80 24L80 28L82 28L82 32L80 32L80 34L82 34ZM90 36L92 36L92 34L90 34ZM98 36L100 36L100 34L98 34ZM102 36L104 36L104 34L102 34ZM106 36L108 36L108 34L110 34L110 32L108 32L108 30L106 30L106 28L104 28L104 30L102 30L102 32L106 32ZM110 36L112 36L112 34L110 34ZM114 36L124 36L124 26L120 26L120 24L116 24L116 26L114 26L114 24L116 24L116 22L112 22L112 28L110 28L110 20L116 20L116 16L118 16L118 12L116 12L116 6L114 6L114 10L110 10L110 12L112 12L112 14L114 14L114 16L110 16L110 18L108 18L108 22L106 22L106 24L104 24L104 26L106 26L106 28L108 28L108 30L110 30L110 32L112 32L112 34L114 34ZM8 34L8 32L10 32L10 34ZM28 34L30 34L30 32L32 32L32 30L34 30L34 28L30 28L30 26L28 26L28 28L26 28L26 30L28 30ZM32 34L34 34L34 32L32 32ZM36 34L38 34L38 32L36 32ZM44 34L44 32L46 32L46 34ZM72 34L74 34L74 30L72 30L72 28L70 28L70 32L72 32ZM84 34L84 32L86 32L86 34ZM100 34L102 34L102 32L100 32ZM116 34L116 28L122 28L122 34ZM20 32L22 32L22 30L20 30ZM60 32L62 32L62 30L60 30ZM78 32L80 32L80 30L78 30ZM96 32L100 32L100 28L96 28ZM118 32L120 32L120 30L118 30ZM36 30L38 30L38 28L36 28ZM62 30L68 30L68 28L66 28L66 26L64 26L64 28L62 28ZM74 30L78 30L78 28L76 28L76 26L78 26L78 24L74 24L74 26L72 26L72 28L74 28ZM6 28L8 28L8 26L6 26ZM38 28L40 28L40 26L44 26L44 24L40 24L40 22L42 22L42 20L48 20L48 16L50 16L50 14L48 14L48 12L50 12L50 10L48 10L48 6L42 6L42 8L40 8L40 6L38 6L38 8L36 8L36 6L34 6L34 8L32 8L32 6L30 6L30 8L28 8L28 6L26 6L26 10L22 10L22 20L24 20L24 16L26 16L26 14L24 14L24 12L28 12L28 10L36 10L36 12L30 12L30 14L32 14L32 16L34 16L34 14L36 14L36 16L38 16L38 14L42 14L42 12L46 12L46 14L44 14L44 16L46 16L46 18L44 18L44 16L42 16L42 18L36 18L36 16L34 16L34 18L32 18L32 20L28 20L28 24L30 24L30 22L34 22L34 20L38 20L38 22L36 22L36 24L38 24ZM58 28L60 28L60 26L58 26ZM94 28L96 28L96 24L100 24L100 20L94 20L94 24L92 24L92 26L94 26ZM100 28L102 28L102 24L100 24ZM26 26L28 26L28 24L26 24ZM30 26L36 26L36 24L30 24ZM68 26L72 26L72 24L70 24L70 22L66 22L66 24L68 24ZM14 24L18 24L18 22L14 22ZM24 24L26 24L26 22L24 22ZM44 24L46 24L46 22L44 22ZM62 24L64 24L64 22L62 22ZM102 24L104 24L104 20L102 20ZM120 24L124 24L124 22L122 22L122 20L124 20L124 18L120 18L120 16L118 16L118 20L120 20ZM116 22L118 22L118 20L116 20ZM6 20L20 20L20 6L6 6ZM26 20L28 20L28 18L26 18ZM50 20L52 20L52 18L50 18ZM90 20L94 20L94 18L92 18L92 16L90 16ZM100 20L102 20L102 18L108 18L108 16L98 16L98 18L100 18ZM8 18L8 8L18 8L18 18ZM30 18L32 18L32 16L30 16ZM52 18L60 18L60 16L58 16L58 14L56 14L56 16L54 16L54 12L56 12L56 6L54 6L54 8L52 8ZM94 18L96 18L96 16L98 16L98 14L100 14L100 12L104 12L104 10L110 10L110 8L108 8L108 6L106 6L106 8L104 8L104 6L102 6L102 8L100 8L100 6L98 6L98 12L96 12L96 14L94 14ZM10 16L16 16L16 10L10 10ZM60 16L62 16L62 14L60 14ZM122 16L124 16L124 14L122 14ZM62 14L68 14L68 12L66 12L66 10L64 10L64 12L62 12ZM74 14L76 14L76 12L78 12L78 8L76 8L76 10L72 10L72 12L74 12ZM78 14L80 14L80 12L78 12ZM92 14L94 14L94 10L96 10L96 6L94 6L94 8L92 8ZM58 12L60 12L60 10L58 10ZM118 12L124 12L124 6L118 6ZM44 10L44 8L46 8L46 10ZM68 10L72 10L72 6L70 6L70 8L68 8ZM84 10L84 8L86 8L86 10ZM120 10L120 8L122 8L122 10ZM22 8L24 8L24 6L22 6ZM50 8L52 8L52 6L50 6ZM58 8L60 8L60 6L58 6ZM62 8L64 8L64 6L62 6ZM66 8L68 8L68 6L66 6ZM74 8L76 8L76 6L74 6ZM78 8L80 8L80 6L78 6ZM90 8L92 8L92 6L90 6ZM110 8L112 8L112 6L110 6Z" fill="#000000" fill-rule="evenodd" />
</svg>
