<svg viewBox="0 0 87 87" xmlns="http://www.w3.org/2000/svg">
<rect width="100%" height="100%" fill="#FFFFFF" />
<path d="M0 0L0 87L87 87L87 0ZM2 2L85 2L85 85L2 85Z" fill="#ffffff" fill-rule="evenodd" />
<path d="M10 76L24 76L24 62L10 62ZM26 76L28 76L28 74L26 74ZM30 76L32 76L32 74L30 74ZM34 76L36 76L36 74L34 74ZM38 76L40 76L40 74L38 74ZM42 76L50 76L50 74L48 74L48 72L44 72L44 70L40 70L40 68L38 68L38 72L42 72ZM56 76L62 76L62 72L60 72L60 74L58 74L58 68L62 68L62 70L66 70L66 68L68 68L68 66L70 66L70 64L72 64L72 62L74 62L74 60L76 60L76 58L74 58L74 56L72 56L72 58L70 58L70 56L66 56L66 58L64 58L64 56L60 56L60 58L58 58L58 62L56 62L56 68L54 68L54 72L56 72ZM68 76L76 76L76 74L74 74L74 72L72 72L72 74L68 74ZM12 74L12 64L22 64L22 74ZM28 74L30 74L30 72L28 72ZM36 74L38 74L38 72L36 72ZM14 72L20 72L20 66L14 66ZM48 72L50 72L50 70L52 70L52 68L50 68L50 64L48 64L48 66L46 66L46 64L44 64L44 66L42 66L42 68L48 68ZM66 72L72 72L72 70L76 70L76 64L74 64L74 68L68 68L68 70L66 70ZM28 70L36 70L36 68L34 68L34 66L38 66L38 64L36 64L36 62L38 62L38 60L34 60L34 56L38 56L38 58L40 58L40 60L44 60L44 56L40 56L40 52L38 52L38 54L36 54L36 50L34 50L34 54L32 54L32 58L30 58L30 60L26 60L26 64L28 64L28 62L30 62L30 64L32 64L32 62L34 62L34 64L32 64L32 68L30 68L30 64L28 64L28 66L26 66L26 68L28 68ZM52 68L54 68L54 64L52 64ZM60 66L60 60L66 60L66 66ZM38 64L44 64L44 62L38 62ZM50 64L52 64L52 60L48 60L48 62L50 62ZM62 64L64 64L64 62L62 62ZM54 62L56 62L56 60L54 60ZM10 60L16 60L16 58L10 58ZM18 60L20 60L20 58L18 58ZM22 60L26 60L26 58L28 58L28 56L24 56L24 58L22 58ZM46 60L48 60L48 58L50 58L50 56L46 56ZM16 58L18 58L18 56L20 56L20 54L18 54L18 52L20 52L20 50L18 50L18 46L14 46L14 48L16 48L16 50L14 50L14 52L16 52L16 54L14 54L14 56L16 56ZM20 58L22 58L22 56L20 56ZM56 58L58 58L58 56L60 56L60 52L62 52L62 50L64 50L64 48L58 48L58 54L54 54L54 56L56 56ZM22 56L24 56L24 54L22 54ZM64 56L66 56L66 54L64 54ZM70 56L72 56L72 52L70 52ZM10 54L12 54L12 52L10 52ZM24 54L32 54L32 50L34 50L34 48L32 48L32 46L30 46L30 44L28 44L28 48L30 48L30 50L28 50L28 52L26 52L26 50L22 50L22 52L24 52ZM48 54L52 54L52 52L50 52L50 50L56 50L56 48L58 48L58 46L56 46L56 44L54 44L54 48L46 48L46 50L42 50L42 52L48 52ZM62 54L64 54L64 52L62 52ZM64 52L66 52L66 50L64 50ZM72 52L76 52L76 48L74 48L74 46L72 46L72 44L70 44L70 46L68 46L68 48L72 48ZM10 50L12 50L12 42L10 42ZM26 50L28 50L28 48L26 48ZM38 50L40 50L40 48L46 48L46 46L44 46L44 44L48 44L48 42L50 42L50 40L52 40L52 36L50 36L50 34L52 34L52 36L54 36L54 38L56 38L56 34L54 34L54 28L46 28L46 24L44 24L44 22L42 22L42 24L40 24L40 20L38 20L38 28L42 28L42 30L44 30L44 32L48 32L48 30L52 30L52 32L48 32L48 34L44 34L44 32L42 32L42 36L48 36L48 40L44 40L44 38L40 38L40 40L38 40L38 38L40 38L40 32L38 32L38 34L36 34L36 38L34 38L34 34L30 34L30 36L32 36L32 40L34 40L34 42L36 42L36 44L38 44ZM66 50L68 50L68 48L66 48ZM20 48L26 48L26 46L20 46ZM34 48L36 48L36 46L34 46ZM64 48L66 48L66 46L64 46ZM32 46L34 46L34 44L32 44ZM40 46L40 44L42 44L42 46ZM48 46L52 46L52 44L48 44ZM60 46L62 46L62 44L66 44L66 42L68 42L68 40L62 40L62 42L58 42L58 44L60 44ZM16 44L18 44L18 42L22 42L22 40L24 40L24 38L16 38L16 40L14 40L14 42L16 42ZM22 44L24 44L24 42L22 42ZM52 44L54 44L54 42L56 42L56 40L52 40ZM68 44L70 44L70 42L68 42ZM72 44L74 44L74 42L76 42L76 40L72 40ZM24 42L30 42L30 36L28 36L28 38L26 38L26 40L24 40ZM12 40L14 40L14 34L18 34L18 32L16 32L16 30L18 30L18 32L20 32L20 34L18 34L18 36L24 36L24 34L22 34L22 32L24 32L24 30L20 30L20 26L18 26L18 28L14 28L14 30L12 30L12 32L10 32L10 34L12 34L12 36L10 36L10 38L12 38ZM56 40L58 40L58 38L56 38ZM60 40L62 40L62 38L60 38ZM70 40L72 40L72 36L76 36L76 32L74 32L74 30L76 30L76 26L74 26L74 28L72 28L72 34L70 34ZM58 38L60 38L60 36L58 36ZM62 38L66 38L66 36L62 36ZM26 36L28 36L28 30L30 30L30 32L32 32L32 28L30 28L30 26L28 26L28 22L30 22L30 20L28 20L28 16L26 16L26 26L22 26L22 28L26 28ZM60 36L62 36L62 34L64 34L64 32L60 32ZM66 36L68 36L68 32L66 32ZM34 34L36 34L36 32L34 32ZM36 32L38 32L38 30L36 30ZM40 32L42 32L42 30L40 30ZM56 32L60 32L60 30L62 30L62 28L70 28L70 26L58 26L58 28L56 28ZM64 32L66 32L66 30L64 30ZM68 32L70 32L70 30L68 30ZM34 30L36 30L36 28L34 28ZM10 28L12 28L12 26L10 26ZM32 28L34 28L34 26L36 26L36 22L34 22L34 24L32 24ZM54 28L56 28L56 26L54 26ZM50 26L54 26L54 24L52 24L52 22L54 22L54 20L52 20L52 18L54 18L54 14L52 14L52 16L50 16L50 18L48 18L48 22L50 22ZM56 26L58 26L58 24L56 24ZM10 24L24 24L24 10L10 10ZM30 24L32 24L32 22L30 22ZM46 24L48 24L48 22L46 22ZM54 24L56 24L56 22L54 22ZM58 24L60 24L60 22L58 22ZM62 24L76 24L76 10L62 10ZM12 22L12 12L22 12L22 22ZM32 22L34 22L34 20L32 20ZM44 22L46 22L46 20L44 20ZM56 22L58 22L58 20L56 20ZM64 22L64 12L74 12L74 22ZM14 20L20 20L20 14L14 14ZM34 20L38 20L38 18L34 18ZM40 20L42 20L42 16L40 16ZM66 20L72 20L72 14L66 14ZM30 18L32 18L32 16L34 16L34 14L32 14L32 12L34 12L34 10L26 10L26 12L30 12ZM44 18L46 18L46 14L44 14ZM56 18L58 18L58 16L56 16ZM36 16L40 16L40 10L36 10ZM48 16L50 16L50 14L48 14ZM58 16L60 16L60 10L58 10ZM46 14L48 14L48 12L56 12L56 10L42 10L42 12L46 12Z" fill="#000000" fill-rule="evenodd" />
</svg>
