<svg viewBox="0 0 95 95" xmlns="http://www.w3.org/2000/svg">
<rect width="100%" height="100%" fill="#FFFFFF" />
<path d="M0 0L0 95L95 95L95 0ZM2 2L93 2L93 93L2 93Z" fill="#ffffff" fill-rule="evenodd" />
<path d="M10 84L24 84L24 70L10 70ZM26 84L28 84L28 82L26 82ZM42 84L46 84L46 82L44 82L44 80L42 80ZM48 84L50 84L50 82L54 82L54 84L58 84L58 80L56 80L56 78L54 78L54 76L52 76L52 78L50 78L50 80L48 80L48 78L46 78L46 82L48 82ZM60 84L64 84L64 82L70 82L70 84L74 84L74 82L76 82L76 80L74 80L74 78L72 78L72 80L64 80L64 78L62 78L62 82L60 82ZM78 84L84 84L84 70L80 70L80 72L82 72L82 78L80 78L80 80L82 80L82 82L78 82ZM12 82L12 72L22 72L22 82ZM28 82L30 82L30 80L28 80ZM32 82L36 82L36 80L34 80L34 78L32 78ZM14 80L20 80L20 74L14 74ZM26 80L28 80L28 78L30 78L30 72L26 72ZM36 80L40 80L40 78L44 78L44 76L42 76L42 74L44 74L44 72L42 72L42 70L38 70L38 76L34 76L34 78L36 78ZM58 80L60 80L60 78L58 78ZM76 80L78 80L78 78L80 78L80 74L78 74L78 76L76 76L76 72L78 72L78 68L80 68L80 66L74 66L74 60L72 60L72 64L70 64L70 62L68 62L68 60L66 60L66 62L64 62L64 64L62 64L62 66L60 66L60 64L58 64L58 66L54 66L54 68L56 68L56 70L58 70L58 68L60 68L60 70L58 70L58 72L54 72L54 70L52 70L52 66L54 66L54 62L52 62L52 64L50 64L50 62L48 62L48 66L44 66L44 68L46 68L46 72L48 72L48 70L50 70L50 72L52 72L52 74L54 74L54 76L56 76L56 74L58 74L58 76L68 76L68 78L72 78L72 76L74 76L74 78L76 78ZM56 78L58 78L58 76L56 76ZM46 76L48 76L48 74L46 74ZM34 74L36 74L36 72L34 72ZM60 74L60 72L62 72L62 74ZM68 74L68 68L74 68L74 74ZM30 72L34 72L34 70L32 70L32 68L34 68L34 64L32 64L32 66L28 66L28 68L26 68L26 70L30 70ZM64 72L64 70L66 70L66 72ZM70 72L72 72L72 70L70 70ZM42 70L44 70L44 68L42 68ZM10 68L12 68L12 62L14 62L14 60L10 60ZM16 68L20 68L20 66L22 66L22 64L18 64L18 66L16 66ZM22 68L24 68L24 66L22 66ZM40 68L42 68L42 64L46 64L46 62L42 62L42 60L44 60L44 58L42 58L42 56L44 56L44 58L48 58L48 56L46 56L46 50L44 50L44 52L42 52L42 54L40 54L40 58L38 58L38 62L40 62L40 64L36 64L36 66L40 66ZM64 68L64 66L66 66L66 68ZM14 66L16 66L16 62L14 62ZM66 66L66 64L68 64L68 66ZM82 66L84 66L84 62L82 62L82 60L80 60L80 64L82 64ZM22 64L24 64L24 62L22 62ZM26 64L30 64L30 62L34 62L34 60L26 60ZM60 64L62 64L62 62L60 62ZM76 64L78 64L78 60L80 60L80 58L78 58L78 56L76 56L76 58L74 58L74 60L76 60ZM18 62L22 62L22 60L26 60L26 58L32 58L32 56L28 56L28 54L26 54L26 52L24 52L24 54L22 54L22 56L24 56L24 58L22 58L22 56L20 56L20 58L16 58L16 60L18 60ZM46 62L48 62L48 60L46 60ZM50 62L52 62L52 60L50 60ZM56 62L58 62L58 60L56 60ZM34 60L36 60L36 58L34 58ZM54 60L56 60L56 58L54 58ZM58 60L66 60L66 54L64 54L64 58L58 58ZM68 60L72 60L72 58L74 58L74 52L72 52L72 54L70 54L70 58L68 58ZM82 60L84 60L84 54L82 54L82 52L84 52L84 46L82 46L82 44L84 44L84 42L82 42L82 40L84 40L84 38L80 38L80 42L76 42L76 40L72 40L72 42L74 42L74 44L76 44L76 46L80 46L80 48L82 48L82 50L78 50L78 48L74 48L74 44L72 44L72 50L74 50L74 52L80 52L80 58L82 58ZM10 58L16 58L16 56L12 56L12 54L10 54ZM52 58L54 58L54 56L56 56L56 54L54 54L54 52L52 52ZM56 58L58 58L58 56L56 56ZM16 56L18 56L18 54L20 54L20 52L16 52ZM34 56L38 56L38 54L34 54ZM58 56L60 56L60 54L58 54ZM12 54L14 54L14 52L16 52L16 50L14 50L14 48L10 48L10 50L12 50ZM28 54L34 54L34 50L38 50L38 46L44 46L44 48L46 48L46 44L42 44L42 42L40 42L40 40L42 40L42 42L44 42L44 38L40 38L40 36L38 36L38 38L36 38L36 44L32 44L32 46L30 46L30 48L28 48L28 50L26 50L26 52L28 52ZM48 54L50 54L50 52L48 52ZM56 54L58 54L58 52L62 52L62 54L64 54L64 52L66 52L66 50L58 50L58 48L52 48L52 50L54 50L54 52L56 52ZM66 54L68 54L68 52L66 52ZM22 52L24 52L24 50L22 50ZM30 52L30 50L32 50L32 52ZM68 52L72 52L72 50L70 50L70 46L68 46L68 44L66 44L66 46L64 46L64 48L66 48L66 50L68 50ZM24 50L26 50L26 48L28 48L28 44L24 44L24 46L20 46L20 48L24 48ZM42 50L44 50L44 48L42 48ZM16 48L18 48L18 46L16 46ZM34 48L34 46L36 46L36 48ZM50 48L52 48L52 46L50 46ZM14 46L16 46L16 44L14 44ZM18 46L20 46L20 44L18 44ZM52 46L54 46L54 44L52 44ZM56 46L58 46L58 44L56 44ZM22 44L24 44L24 42L22 42ZM30 44L32 44L32 38L30 38L30 34L28 34L28 36L26 36L26 42L30 42ZM46 44L48 44L48 42L46 42ZM50 44L52 44L52 42L50 42ZM54 44L56 44L56 40L54 40L54 36L52 36L52 34L54 34L54 28L50 28L50 30L52 30L52 32L50 32L50 30L48 30L48 28L46 28L46 30L42 30L42 28L40 28L40 30L38 30L38 32L40 32L40 36L42 36L42 32L46 32L46 34L48 34L48 36L46 36L46 40L48 40L48 38L52 38L52 42L54 42ZM58 44L62 44L62 42L60 42L60 40L58 40ZM64 44L66 44L66 42L64 42ZM70 44L72 44L72 42L70 42ZM16 42L22 42L22 40L24 40L24 38L22 38L22 36L20 36L20 30L18 30L18 32L16 32L16 30L14 30L14 34L12 34L12 38L16 38ZM18 40L18 38L20 38L20 40ZM62 40L68 40L68 36L66 36L66 38L62 38ZM70 40L72 40L72 38L70 38ZM34 38L36 38L36 34L34 34ZM56 38L58 38L58 36L60 36L60 38L62 38L62 34L58 34L58 32L56 32L56 34L54 34L54 36L56 36ZM72 38L74 38L74 36L72 36ZM16 36L16 34L18 34L18 36ZM22 36L26 36L26 34L22 34ZM44 36L46 36L46 34L44 34ZM68 36L72 36L72 34L70 34L70 32L68 32ZM74 36L76 36L76 30L74 30L74 28L76 28L76 30L78 30L78 28L80 28L80 26L70 26L70 28L72 28L72 30L70 30L70 32L72 32L72 34L74 34ZM78 36L80 36L80 34L78 34ZM82 36L84 36L84 34L82 34ZM32 34L34 34L34 32L32 32ZM36 34L38 34L38 32L36 32ZM64 34L66 34L66 32L68 32L68 30L70 30L70 28L68 28L68 26L66 26L66 24L64 24L64 22L62 22L62 26L60 26L60 22L58 22L58 24L56 24L56 26L58 26L58 28L56 28L56 30L58 30L58 32L60 32L60 28L66 28L66 30L64 30ZM10 32L12 32L12 30L10 30ZM22 32L26 32L26 30L22 30ZM28 32L30 32L30 30L28 30ZM34 32L36 32L36 30L34 30ZM80 32L84 32L84 30L82 30L82 28L80 28ZM12 30L14 30L14 28L12 28ZM16 30L18 30L18 28L20 28L20 30L22 30L22 28L24 28L24 26L14 26L14 28L16 28ZM26 30L28 30L28 28L26 28ZM32 30L34 30L34 26L32 26ZM10 28L12 28L12 26L10 26ZM38 28L40 28L40 22L42 22L42 20L44 20L44 22L46 22L46 16L44 16L44 18L42 18L42 16L40 16L40 18L38 18L38 14L36 14L36 12L32 12L32 10L28 10L28 12L30 12L30 18L28 18L28 14L26 14L26 26L30 26L30 24L28 24L28 22L30 22L30 24L32 24L32 14L34 14L34 16L36 16L36 18L34 18L34 24L36 24L36 22L38 22ZM42 28L44 28L44 26L48 26L48 22L46 22L46 24L44 24L44 22L42 22ZM54 28L56 28L56 26L54 26ZM50 26L54 26L54 24L52 24L52 22L50 22ZM10 24L24 24L24 10L10 10ZM54 24L56 24L56 22L54 22ZM66 24L68 24L68 18L66 18L66 20L64 20L64 22L66 22ZM70 24L84 24L84 10L70 10ZM12 22L12 12L22 12L22 22ZM72 22L72 12L82 12L82 22ZM14 20L20 20L20 14L14 14ZM48 20L54 20L54 18L48 18ZM56 20L58 20L58 18L56 18ZM62 20L64 20L64 18L66 18L66 16L68 16L68 14L66 14L66 12L62 12L62 16L60 16L60 12L58 12L58 18L62 18ZM74 20L80 20L80 14L74 14ZM42 16L44 16L44 14L42 14ZM46 16L48 16L48 12L46 12ZM52 16L56 16L56 12L58 12L58 10L52 10L52 12L50 12L50 14L52 14ZM40 14L42 14L42 10L36 10L36 12L40 12ZM44 12L46 12L46 10L44 10ZM60 12L62 12L62 10L60 10ZM66 12L68 12L68 10L66 10Z" fill="#000000" fill-rule="evenodd" />
</svg>
