<svg viewBox="0 0 87 87" xmlns="http://www.w3.org/2000/svg">
<rect width="100%" height="100%" fill="#FFFFFF" />
<path d="M0 0L0 87L87 87L87 0ZM2 2L85 2L85 85L2 85Z" fill="#ffffff" fill-rule="evenodd" />
<path d="M10 76L24 76L24 62L10 62ZM26 76L32 76L32 74L26 74ZM34 76L38 76L38 74L34 74ZM40 76L42 76L42 74L40 74ZM48 76L52 76L52 74L50 74L50 72L48 72ZM58 76L60 76L60 74L58 74ZM64 76L68 76L68 74L66 74L66 72L72 72L72 70L68 70L68 58L66 58L66 56L64 56L64 52L62 52L62 56L60 56L60 58L58 58L58 56L56 56L56 60L58 60L58 64L56 64L56 66L58 66L58 72L60 72L60 74L62 74L62 70L60 70L60 68L62 68L62 70L64 70L64 68L66 68L66 70L64 70ZM70 76L74 76L74 74L70 74ZM12 74L12 64L22 64L22 74ZM38 74L40 74L40 72L38 72ZM44 74L46 74L46 72L44 72ZM52 74L54 74L54 68L56 68L56 66L54 66L54 64L52 64ZM56 74L58 74L58 72L56 72ZM14 72L20 72L20 66L14 66ZM30 72L34 72L34 70L32 70L32 68L30 68ZM36 72L38 72L38 70L40 70L40 72L44 72L44 70L46 70L46 72L48 72L48 68L50 68L50 66L48 66L48 62L46 62L46 58L42 58L42 60L44 60L44 62L42 62L42 64L40 64L40 58L42 58L42 56L36 56L36 58L38 58L38 60L36 60L36 62L38 62L38 64L36 64L36 62L34 62L34 64L32 64L32 62L28 62L28 64L26 64L26 66L28 66L28 68L30 68L30 66L34 66L34 68L36 68L36 66L38 66L38 68L36 68ZM74 72L76 72L76 70L74 70ZM26 70L28 70L28 68L26 68ZM40 68L40 66L46 66L46 68ZM74 68L76 68L76 66L74 66ZM60 66L60 60L66 60L66 66ZM72 66L74 66L74 62L70 62L70 64L72 64ZM54 64L56 64L56 60L54 60ZM62 64L64 64L64 62L62 62ZM26 62L28 62L28 60L26 60ZM32 62L34 62L34 60L36 60L36 58L30 58L30 60L32 60ZM50 62L52 62L52 60L54 60L54 56L52 56L52 58L50 58ZM74 62L76 62L76 54L74 54L74 56L72 56L72 60L74 60ZM10 60L12 60L12 58L10 58ZM18 60L26 60L26 58L18 58ZM12 58L14 58L14 56L16 56L16 54L18 54L18 52L12 52L12 54L10 54L10 56L12 56ZM16 58L18 58L18 56L16 56ZM48 58L50 58L50 54L46 54L46 50L44 50L44 54L42 54L42 56L48 56ZM68 58L70 58L70 56L72 56L72 54L70 54L70 52L72 52L72 50L66 50L66 52L68 52ZM20 56L24 56L24 54L20 54ZM26 56L28 56L28 54L30 54L30 52L26 52ZM58 56L60 56L60 50L56 50L56 52L58 52ZM32 54L34 54L34 52L32 52ZM36 54L42 54L42 52L38 52L38 50L34 50L34 52L36 52ZM50 54L52 54L52 52L54 52L54 48L56 48L56 46L54 46L54 44L52 44L52 46L50 46L50 48L48 48L48 52L50 52ZM10 52L12 52L12 48L14 48L14 50L18 50L18 48L20 48L20 46L18 46L18 44L12 44L12 46L10 46ZM22 52L26 52L26 50L22 50ZM30 52L32 52L32 48L30 48L30 46L32 46L32 48L36 48L36 46L34 46L34 42L32 42L32 36L30 36L30 38L28 38L28 40L30 40L30 42L28 42L28 50L30 50ZM74 52L76 52L76 50L74 50ZM20 50L22 50L22 48L20 48ZM38 50L40 50L40 46L42 46L42 50L44 50L44 48L46 48L46 46L50 46L50 42L54 42L54 44L56 44L56 46L58 46L58 48L60 48L60 50L62 50L62 48L64 48L64 50L66 50L66 48L68 48L68 46L62 46L62 44L60 44L60 42L58 42L58 40L60 40L60 42L62 42L62 38L60 38L60 36L58 36L58 38L54 38L54 34L58 34L58 32L54 32L54 24L52 24L52 28L50 28L50 30L46 30L46 38L48 38L48 34L50 34L50 32L52 32L52 36L50 36L50 40L48 40L48 44L46 44L46 40L44 40L44 38L42 38L42 36L40 36L40 34L38 34L38 36L36 36L36 38L38 38L38 40L42 40L42 42L40 42L40 44L38 44L38 40L36 40L36 46L38 46ZM22 48L26 48L26 46L22 46ZM72 48L76 48L76 46L72 46ZM10 44L12 44L12 42L18 42L18 44L20 44L20 42L22 42L22 40L14 40L14 38L12 38L12 32L14 32L14 34L18 34L18 36L14 36L14 38L22 38L22 36L24 36L24 34L20 34L20 32L24 32L24 34L26 34L26 38L28 38L28 34L30 34L30 32L26 32L26 30L30 30L30 28L28 28L28 26L26 26L26 28L24 28L24 30L14 30L14 28L12 28L12 26L10 26ZM22 44L24 44L24 42L22 42ZM62 44L66 44L66 42L62 42ZM70 44L76 44L76 42L70 42ZM26 42L28 42L28 40L26 40ZM22 40L24 40L24 38L22 38ZM64 40L74 40L74 36L76 36L76 30L74 30L74 32L72 32L72 38L68 38L68 34L66 34L66 38L64 38ZM32 36L34 36L34 30L36 30L36 34L38 34L38 32L40 32L40 30L46 30L46 26L48 26L48 28L50 28L50 24L48 24L48 22L46 22L46 24L44 24L44 20L40 20L40 22L42 22L42 24L40 24L40 22L38 22L38 28L36 28L36 26L34 26L34 28L32 28L32 30L30 30L30 32L32 32ZM42 36L44 36L44 32L40 32L40 34L42 34ZM60 36L64 36L64 32L66 32L66 30L64 30L64 28L62 28L62 30L60 30L60 28L56 28L56 30L58 30L58 32L62 32L62 34L60 34ZM68 34L70 34L70 32L68 32ZM70 32L72 32L72 30L70 30ZM72 30L74 30L74 28L72 28ZM16 28L18 28L18 26L16 26ZM20 28L24 28L24 26L20 26ZM40 28L40 26L42 26L42 28ZM60 28L62 28L62 26L60 26ZM64 28L66 28L66 26L64 26ZM28 26L34 26L34 24L32 24L32 22L30 22L30 24L28 24ZM56 26L58 26L58 24L56 24ZM10 24L24 24L24 10L10 10ZM26 24L28 24L28 20L26 20ZM34 24L36 24L36 22L34 22ZM50 24L52 24L52 18L50 18L50 16L48 16L48 12L46 12L46 16L38 16L38 14L44 14L44 12L38 12L38 10L32 10L32 12L36 12L36 18L30 18L30 16L28 16L28 20L36 20L36 22L38 22L38 20L40 20L40 18L44 18L44 20L48 20L48 22L50 22ZM54 24L56 24L56 22L54 22ZM58 24L60 24L60 20L58 20ZM62 24L76 24L76 10L62 10ZM12 22L12 12L22 12L22 22ZM64 22L64 12L74 12L74 22ZM14 20L20 20L20 14L14 14ZM66 20L72 20L72 14L66 14ZM52 18L58 18L58 16L52 16ZM30 16L34 16L34 14L32 14L32 12L30 12ZM58 16L60 16L60 14L58 14ZM50 14L58 14L58 12L52 12L52 10L48 10L48 12L50 12ZM28 12L30 12L30 10L28 10ZM44 12L46 12L46 10L44 10Z" fill="#000000" fill-rule="evenodd" />
</svg>
