<svg viewBox="0 0 79 79" xmlns="http://www.w3.org/2000/svg">
<rect width="100%" height="100%" fill="#FFFFFF" />
<path d="M0 0L0 79L79 79L79 0ZM2 2L77 2L77 77L2 77Z" fill="#ffffff" fill-rule="evenodd" />
<path d="M10 68L24 68L24 54L10 54ZM26 68L28 68L28 66L26 66ZM30 68L36 68L36 66L40 66L40 68L42 68L42 62L40 62L40 58L38 58L38 64L36 64L36 62L34 62L34 66L30 66ZM44 68L46 68L46 66L44 66ZM52 68L54 68L54 66L52 66ZM58 68L60 68L60 66L58 66ZM12 66L12 56L22 56L22 66ZM28 66L30 66L30 64L32 64L32 62L28 62ZM46 66L50 66L50 64L48 64L48 62L44 62L44 64L46 64ZM54 66L56 66L56 62L54 62ZM60 66L62 66L62 62L58 62L58 64L60 64ZM64 66L68 66L68 56L66 56L66 60L64 60L64 58L62 58L62 62L66 62L66 64L64 64ZM14 64L20 64L20 58L14 58ZM50 64L52 64L52 62L50 62ZM26 62L28 62L28 60L26 60ZM32 62L34 62L34 60L36 60L36 58L34 58L34 56L32 56ZM48 62L50 62L50 60L48 60ZM28 60L30 60L30 56L26 56L26 58L28 58ZM42 60L44 60L44 58L48 58L48 56L50 56L50 60L60 60L60 56L64 56L64 54L62 54L62 50L60 50L60 48L62 48L62 50L64 50L64 54L68 54L68 50L66 50L66 48L64 48L64 46L66 46L66 48L68 48L68 44L66 44L66 42L64 42L64 44L60 44L60 46L56 46L56 48L58 48L58 50L56 50L56 48L54 48L54 50L50 50L50 54L46 54L46 56L44 56L44 54L38 54L38 52L36 52L36 58L38 58L38 56L40 56L40 58L42 58ZM52 58L52 52L58 52L58 58ZM30 56L32 56L32 54L34 54L34 48L36 48L36 50L38 50L38 46L32 46L32 44L34 44L34 42L36 42L36 44L40 44L40 42L44 42L44 46L46 46L46 52L48 52L48 42L50 42L50 38L48 38L48 36L46 36L46 38L40 38L40 40L32 40L32 36L34 36L34 38L36 38L36 22L34 22L34 26L32 26L32 28L28 28L28 30L30 30L30 32L32 32L32 34L30 34L30 36L28 36L28 34L30 34L30 32L28 32L28 30L26 30L26 28L24 28L24 30L20 30L20 36L24 36L24 34L22 34L22 32L26 32L26 38L22 38L22 40L26 40L26 42L30 42L30 44L28 44L28 46L30 46L30 48L28 48L28 50L32 50L32 52L28 52L28 50L26 50L26 48L28 48L28 46L22 46L22 48L24 48L24 50L22 50L22 52L26 52L26 54L30 54ZM54 56L56 56L56 54L54 54ZM44 54L46 54L46 52L44 52ZM10 52L12 52L12 50L10 50ZM14 52L20 52L20 44L18 44L18 48L16 48L16 50L14 50ZM38 52L40 52L40 50L38 50ZM40 50L42 50L42 48L40 48ZM10 48L12 48L12 46L10 46ZM40 46L42 46L42 44L40 44ZM50 46L54 46L54 42L50 42ZM10 44L18 44L18 40L20 40L20 38L18 38L18 36L14 36L14 38L16 38L16 42L14 42L14 40L12 40L12 36L14 36L14 30L10 30L10 32L12 32L12 34L10 34ZM20 44L24 44L24 42L20 42ZM58 44L60 44L60 42L58 42ZM52 40L54 40L54 38L52 38ZM58 40L60 40L60 36L68 36L68 34L66 34L66 32L64 32L64 30L62 30L62 34L58 34L58 32L60 32L60 30L62 30L62 28L58 28L58 26L56 26L56 30L54 30L54 32L56 32L56 34L54 34L54 38L58 38ZM50 38L52 38L52 34L50 34ZM42 36L44 36L44 34L50 34L50 30L54 30L54 26L52 26L52 28L50 28L50 26L48 26L48 22L46 22L46 26L40 26L40 28L38 28L38 30L42 30L42 28L46 28L46 32L38 32L38 34L42 34ZM16 32L18 32L18 30L16 30ZM66 32L68 32L68 28L66 28ZM14 30L16 30L16 28L14 28ZM18 30L20 30L20 28L18 28ZM10 28L12 28L12 26L10 26ZM16 28L18 28L18 26L16 26ZM20 28L24 28L24 26L20 26ZM26 28L28 28L28 26L26 26ZM28 26L30 26L30 24L28 24ZM38 26L40 26L40 18L42 18L42 16L38 16L38 14L42 14L42 12L38 12L38 10L36 10L36 22L38 22ZM50 26L52 26L52 22L50 22ZM10 24L24 24L24 10L10 10ZM26 24L28 24L28 20L26 20ZM30 24L32 24L32 22L30 22ZM42 24L44 24L44 22L42 22ZM54 24L68 24L68 10L54 10ZM12 22L12 12L22 12L22 22ZM56 22L56 12L66 12L66 22ZM14 20L20 20L20 14L14 14ZM30 20L32 20L32 18L30 18ZM42 20L50 20L50 18L52 18L52 10L48 10L48 14L50 14L50 16L48 16L48 18L42 18ZM58 20L64 20L64 14L58 14ZM32 16L34 16L34 12L32 12ZM42 16L46 16L46 10L42 10L42 12L44 12L44 14L42 14ZM28 14L30 14L30 12L28 12Z" fill="#000000" fill-rule="evenodd" />
</svg>
