<svg viewBox="0 0 131 43" xmlns="http://www.w3.org/2000/svg">
<rect width="100%" height="100%" fill="#FFFFFF" />
<path d="M0 0L0 43L131 43L131 0ZM2 2L129 2L129 41L2 41Z" fill="#ffffff" fill-rule="evenodd" />
<path d="M6 36L12 36L12 34L8 34L8 32L12 32L12 30L6 30ZM14 36L16 36L16 34L14 34ZM18 36L20 36L20 34L22 34L22 32L18 32ZM22 36L24 36L24 34L22 34ZM26 36L28 36L28 34L26 34ZM30 36L32 36L32 34L30 34ZM34 36L36 36L36 34L38 34L38 36L40 36L40 30L38 30L38 28L40 28L40 26L38 26L38 24L36 24L36 26L34 26L34 30L36 30L36 32L34 32L34 30L32 30L32 28L30 28L30 32L32 32L32 34L34 34ZM42 36L48 36L48 34L50 34L50 32L48 32L48 30L50 30L50 26L52 26L52 24L56 24L56 22L58 22L58 24L60 24L60 22L62 22L62 20L64 20L64 18L66 18L66 20L72 20L72 22L74 22L74 20L76 20L76 18L78 18L78 20L76 20L76 22L80 22L80 18L82 18L82 24L88 24L88 20L98 20L98 18L100 18L100 16L96 16L96 18L92 18L92 16L96 16L96 12L94 12L94 14L90 14L90 16L88 16L88 18L84 18L84 16L88 16L88 14L82 14L82 16L74 16L74 14L72 14L72 12L70 12L70 16L72 16L72 18L68 18L68 16L62 16L62 18L60 18L60 20L52 20L52 22L50 22L50 24L46 24L46 26L48 26L48 28L46 28L46 30L42 30ZM50 36L52 36L52 34L50 34ZM54 36L56 36L56 34L58 34L58 36L60 36L60 32L58 32L58 30L56 30L56 32L54 32ZM62 36L64 36L64 34L66 34L66 36L68 36L68 32L62 32ZM70 36L72 36L72 34L70 34ZM74 36L76 36L76 34L74 34ZM78 36L80 36L80 34L78 34ZM82 36L88 36L88 34L90 34L90 36L92 36L92 34L94 34L94 36L96 36L96 30L98 30L98 24L96 24L96 26L94 26L94 28L92 28L92 26L94 26L94 24L92 24L92 22L90 22L90 28L88 28L88 26L84 26L84 28L86 28L86 30L82 30L82 32L80 32L80 34L82 34ZM98 36L100 36L100 34L98 34ZM102 36L104 36L104 34L102 34ZM106 36L108 36L108 34L110 34L110 32L106 32L106 30L102 30L102 32L104 32L104 34L106 34ZM110 36L112 36L112 34L110 34ZM114 36L124 36L124 26L120 26L120 24L116 24L116 26L114 26L114 24L112 24L112 28L110 28L110 24L106 24L106 26L108 26L108 28L106 28L106 30L110 30L110 32L112 32L112 34L114 34ZM12 34L14 34L14 32L12 32ZM28 34L30 34L30 32L28 32ZM44 34L44 32L46 32L46 34ZM72 34L74 34L74 30L72 30L72 28L70 28L70 32L72 32ZM84 34L84 32L86 32L86 34ZM100 34L102 34L102 32L100 32ZM116 34L116 28L122 28L122 34ZM26 32L28 32L28 30L26 30ZM52 32L54 32L54 30L52 30ZM60 32L62 32L62 30L60 30ZM78 32L80 32L80 30L78 30ZM118 32L120 32L120 30L118 30ZM16 30L22 30L22 28L16 28ZM40 30L42 30L42 28L40 28ZM62 30L68 30L68 28L66 28L66 26L64 26L64 28L62 28ZM76 30L78 30L78 26L80 26L80 28L82 28L82 24L76 24L76 26L72 26L72 28L76 28ZM100 30L102 30L102 28L106 28L106 26L104 26L104 24L106 24L106 22L102 22L102 20L98 20L98 24L102 24L102 26L100 26ZM6 28L8 28L8 26L6 26ZM10 28L12 28L12 26L10 26ZM22 28L30 28L30 26L26 26L26 22L22 22L22 24L24 24L24 26L22 26ZM42 28L46 28L46 26L42 26ZM52 28L56 28L56 26L52 26ZM58 28L60 28L60 26L58 26ZM8 26L10 26L10 22L6 22L6 24L8 24ZM14 26L16 26L16 22L12 22L12 24L14 24ZM20 26L22 26L22 24L20 24ZM32 26L34 26L34 24L32 24ZM68 26L72 26L72 24L70 24L70 22L66 22L66 24L68 24ZM30 24L32 24L32 22L34 22L34 18L32 18L32 20L30 20ZM44 24L46 24L46 22L44 22ZM62 24L64 24L64 22L62 22ZM74 24L76 24L76 22L74 22ZM120 24L124 24L124 22L122 22L122 20L120 20ZM38 22L44 22L44 20L46 20L46 18L42 18L42 14L38 14L38 12L36 12L36 6L34 6L34 8L32 8L32 6L30 6L30 8L28 8L28 6L26 6L26 10L22 10L22 18L24 18L24 16L26 16L26 14L24 14L24 12L28 12L28 10L30 10L30 12L32 12L32 10L34 10L34 18L36 18L36 16L38 16L38 18L40 18L40 20L38 20ZM84 22L84 20L86 20L86 22ZM116 22L118 22L118 20L116 20ZM6 20L20 20L20 6L6 6ZM24 20L26 20L26 18L24 18ZM28 20L30 20L30 18L28 18ZM48 20L52 20L52 18L50 18L50 16L52 16L52 10L54 10L54 8L52 8L52 6L50 6L50 8L48 8L48 6L42 6L42 12L46 12L46 14L44 14L44 16L46 16L46 18L48 18ZM102 20L116 20L116 16L118 16L118 12L116 12L116 14L114 14L114 12L112 12L112 16L114 16L114 18L112 18L112 16L110 16L110 18L108 18L108 12L110 12L110 8L108 8L108 6L106 6L106 8L104 8L104 6L102 6L102 8L100 8L100 6L98 6L98 10L96 10L96 12L98 12L98 14L100 14L100 12L102 12L102 10L104 10L104 12L106 12L106 14L104 14L104 16L102 16ZM122 20L124 20L124 18L122 18ZM8 18L8 8L18 8L18 18ZM52 18L60 18L60 16L58 16L58 14L56 14L56 16L52 16ZM120 18L122 18L122 16L120 16ZM10 16L16 16L16 10L10 10ZM30 16L32 16L32 14L30 14ZM60 16L62 16L62 14L60 14ZM122 16L124 16L124 14L122 14ZM62 14L68 14L68 12L66 12L66 10L64 10L64 12L62 12ZM74 14L78 14L78 10L82 10L82 12L94 12L94 8L92 8L92 6L90 6L90 10L88 10L88 6L82 6L82 8L80 8L80 6L78 6L78 8L76 8L76 6L74 6L74 10L76 10L76 12L74 12ZM102 14L104 14L104 12L102 12ZM54 12L56 12L56 10L54 10ZM58 12L60 12L60 10L58 10ZM72 12L74 12L74 10L72 10ZM114 12L116 12L116 10L118 10L118 12L124 12L124 6L118 6L118 8L116 8L116 6L114 6ZM38 10L40 10L40 6L38 6ZM44 10L44 8L46 8L46 10ZM68 10L72 10L72 6L70 6L70 8L68 8ZM84 10L84 8L86 8L86 10ZM120 10L120 8L122 8L122 10ZM22 8L24 8L24 6L22 6ZM54 8L56 8L56 6L54 6ZM58 8L60 8L60 6L58 6ZM62 8L64 8L64 6L62 6ZM66 8L68 8L68 6L66 6ZM94 8L96 8L96 6L94 6ZM110 8L112 8L112 6L110 6Z" fill="#000000" fill-rule="evenodd" />
</svg>
