<svg viewBox="0 0 87 87" xmlns="http://www.w3.org/2000/svg">
<rect width="100%" height="100%" fill="#FFFFFF" />
<path d="M0 0L0 87L87 87L87 0ZM2 2L85 2L85 85L2 85Z" fill="#ffffff" fill-rule="evenodd" />
<path d="M10 76L24 76L24 62L10 62ZM26 76L28 76L28 74L26 74ZM30 76L34 76L34 74L30 74ZM44 76L46 76L46 72L48 72L48 70L44 70L44 72L38 72L38 74L44 74ZM50 76L52 76L52 74L50 74ZM54 76L56 76L56 74L54 74ZM62 76L64 76L64 74L62 74ZM66 76L68 76L68 72L66 72ZM70 76L72 76L72 74L70 74ZM12 74L12 64L22 64L22 74ZM28 74L30 74L30 72L28 72ZM34 74L36 74L36 72L34 72ZM48 74L50 74L50 72L48 72ZM60 74L62 74L62 72L66 72L66 68L68 68L68 72L72 72L72 70L70 70L70 68L72 68L72 66L74 66L74 60L72 60L72 62L70 62L70 64L68 64L68 58L70 58L70 56L68 56L68 54L66 54L66 58L64 58L64 54L66 54L66 52L68 52L68 50L60 50L60 52L58 52L58 54L56 54L56 56L60 56L60 54L62 54L62 58L58 58L58 60L52 60L52 62L50 62L50 54L48 54L48 56L46 56L46 58L48 58L48 64L46 64L46 66L50 66L50 64L52 64L52 66L54 66L54 62L56 62L56 68L54 68L54 70L52 70L52 72L60 72ZM74 74L76 74L76 72L74 72ZM14 72L20 72L20 66L14 66ZM26 72L28 72L28 68L26 68ZM36 72L38 72L38 70L36 70ZM30 70L34 70L34 68L30 68ZM38 70L40 70L40 62L42 62L42 66L44 66L44 60L34 60L34 54L36 54L36 56L38 56L38 58L44 58L44 56L40 56L40 50L42 50L42 46L44 46L44 50L46 50L46 48L48 48L48 44L44 44L44 42L36 42L36 40L38 40L38 36L36 36L36 38L34 38L34 40L32 40L32 42L34 42L34 44L38 44L38 46L40 46L40 48L38 48L38 46L36 46L36 52L32 52L32 58L30 58L30 60L28 60L28 58L30 58L30 56L28 56L28 54L26 54L26 66L30 66L30 64L32 64L32 66L36 66L36 64L34 64L34 62L38 62ZM48 70L52 70L52 68L48 68ZM62 70L62 68L64 68L64 70ZM72 70L74 70L74 68L72 68ZM44 68L46 68L46 66L44 66ZM74 68L76 68L76 66L74 66ZM60 66L60 60L66 60L66 66ZM62 64L64 64L64 62L62 62ZM10 60L12 60L12 58L10 58ZM14 60L16 60L16 58L18 58L18 60L20 60L20 58L22 58L22 56L20 56L20 54L18 54L18 56L12 56L12 58L14 58ZM22 60L24 60L24 58L22 58ZM44 60L46 60L46 58L44 58ZM74 60L76 60L76 52L74 52L74 54L72 54L72 52L74 52L74 46L76 46L76 40L74 40L74 32L72 32L72 38L70 38L70 44L72 44L72 42L74 42L74 44L72 44L72 50L70 50L70 52L68 52L68 54L70 54L70 56L74 56ZM52 58L56 58L56 56L52 56ZM22 56L24 56L24 54L22 54ZM44 56L46 56L46 54L48 54L48 52L50 52L50 50L46 50L46 52L44 52L44 50L42 50L42 54L44 54ZM10 54L14 54L14 50L12 50L12 46L16 46L16 44L14 44L14 38L12 38L12 44L10 44ZM20 54L22 54L22 52L20 52ZM24 54L26 54L26 52L24 52ZM28 54L30 54L30 52L28 52ZM52 54L54 54L54 52L52 52ZM16 52L18 52L18 48L14 48L14 50L16 50ZM22 52L24 52L24 50L22 50ZM26 52L28 52L28 50L26 50ZM54 52L56 52L56 50L54 50ZM20 50L22 50L22 48L20 48ZM28 50L32 50L32 48L30 48L30 46L28 46L28 42L30 42L30 40L28 40L28 38L26 38L26 40L24 40L24 42L22 42L22 44L26 44L26 46L22 46L22 48L28 48ZM56 50L60 50L60 48L56 48ZM50 48L56 48L56 44L60 44L60 40L62 40L62 38L60 38L60 36L56 36L56 38L54 38L54 40L58 40L58 42L54 42L54 44L52 44L52 46L50 46ZM64 48L70 48L70 46L68 46L68 42L66 42L66 44L64 44L64 42L66 42L66 40L62 40L62 46L64 46ZM18 46L20 46L20 40L16 40L16 44L18 44ZM32 46L34 46L34 44L32 44ZM30 44L32 44L32 42L30 42ZM46 42L48 42L48 40L46 40ZM50 42L52 42L52 40L50 40ZM20 40L24 40L24 38L22 38L22 36L20 36ZM30 40L32 40L32 38L30 38ZM42 40L44 40L44 38L48 38L48 36L46 36L46 32L44 32L44 30L46 30L46 26L48 26L48 22L46 22L46 24L44 24L44 26L42 26L42 32L40 32L40 28L38 28L38 32L34 32L34 34L40 34L40 38L42 38ZM48 40L50 40L50 38L48 38ZM66 40L68 40L68 38L66 38ZM14 38L16 38L16 36L14 36ZM24 38L26 38L26 36L30 36L30 34L28 34L28 30L26 30L26 32L24 32L24 34L22 34L22 36L24 36ZM32 38L34 38L34 34L32 34ZM50 38L54 38L54 36L56 36L56 34L54 34L54 32L52 32L52 36L50 36ZM62 38L64 38L64 32L62 32L62 30L60 30L60 34L62 34ZM68 38L70 38L70 34L68 34ZM16 36L18 36L18 34L16 34ZM42 36L42 34L44 34L44 36ZM18 34L20 34L20 32L24 32L24 30L22 30L22 28L24 28L24 30L26 30L26 26L20 26L20 30L18 30ZM30 34L32 34L32 32L30 32ZM48 34L50 34L50 32L48 32ZM66 34L68 34L68 32L70 32L70 30L64 30L64 32L66 32ZM10 32L16 32L16 28L18 28L18 26L14 26L14 28L12 28L12 26L10 26ZM32 32L34 32L34 28L32 28ZM50 32L52 32L52 30L50 30ZM54 32L58 32L58 30L60 30L60 28L58 28L58 24L56 24L56 26L54 26ZM74 32L76 32L76 26L72 26L72 28L70 28L70 30L74 30ZM48 30L50 30L50 28L48 28ZM62 30L64 30L64 26L62 26ZM34 28L36 28L36 22L34 22L34 24L32 24L32 26L34 26ZM50 28L52 28L52 26L54 26L54 24L52 24L52 22L50 22ZM68 28L70 28L70 26L68 26ZM26 26L28 26L28 22L26 22ZM38 26L42 26L42 24L40 24L40 18L42 18L42 14L40 14L40 16L38 16ZM10 24L24 24L24 10L10 10ZM30 24L32 24L32 22L30 22ZM42 24L44 24L44 20L42 20ZM54 24L56 24L56 22L58 22L58 20L60 20L60 10L56 10L56 12L54 12L54 14L56 14L56 16L58 16L58 18L56 18L56 20L54 20ZM58 24L60 24L60 22L58 22ZM62 24L76 24L76 10L62 10ZM12 22L12 12L22 12L22 22ZM28 22L30 22L30 20L28 20ZM48 22L50 22L50 18L46 18L46 16L44 16L44 20L48 20ZM64 22L64 12L74 12L74 22ZM14 20L20 20L20 14L14 14ZM34 20L36 20L36 16L32 16L32 18L34 18ZM52 20L54 20L54 14L46 14L46 16L52 16ZM66 20L72 20L72 14L66 14ZM26 18L30 18L30 16L32 16L32 14L30 14L30 12L32 12L32 10L26 10L26 14L28 14L28 16L26 16ZM32 14L38 14L38 10L34 10L34 12L32 12ZM44 14L46 14L46 12L52 12L52 10L42 10L42 12L44 12Z" fill="#000000" fill-rule="evenodd" />
</svg>
