<svg viewBox="0 0 95 95" xmlns="http://www.w3.org/2000/svg">
<rect width="100%" height="100%" fill="#FFFFFF" />
<path d="M0 0L0 95L95 95L95 0ZM2 2L93 2L93 93L2 93Z" fill="#ffffff" fill-rule="evenodd" />
<path d="M10 84L24 84L24 70L10 70ZM26 84L28 84L28 82L26 82ZM34 84L46 84L46 82L42 82L42 80L44 80L44 78L42 78L42 76L44 76L44 74L40 74L40 78L36 78L36 72L32 72L32 70L30 70L30 68L26 68L26 70L28 70L28 72L30 72L30 74L34 74L34 80L32 80L32 82L34 82ZM54 84L56 84L56 78L54 78L54 80L52 80L52 74L54 74L54 76L56 76L56 72L46 72L46 70L52 70L52 66L48 66L48 68L46 68L46 66L44 66L44 74L48 74L48 76L46 76L46 78L50 78L50 82L54 82ZM58 84L64 84L64 82L58 82ZM68 84L70 84L70 82L68 82ZM72 84L74 84L74 80L70 80L70 82L72 82ZM76 84L84 84L84 70L78 70L78 68L82 68L82 64L84 64L84 62L82 62L82 58L78 58L78 60L80 60L80 66L76 66L76 64L78 64L78 60L76 60L76 62L74 62L74 60L76 60L76 58L72 58L72 54L70 54L70 58L68 58L68 60L66 60L66 62L70 62L70 60L72 60L72 62L70 62L70 66L66 66L66 62L64 62L64 64L62 64L62 66L64 66L64 70L66 70L66 74L60 74L60 72L58 72L58 76L62 76L62 78L64 78L64 76L68 76L68 78L72 78L72 76L74 76L74 78L76 78L76 76L80 76L80 74L76 74L76 72L80 72L80 74L82 74L82 78L76 78L76 80L82 80L82 82L76 82ZM12 82L12 72L22 72L22 82ZM28 82L30 82L30 80L28 80ZM36 82L36 80L40 80L40 82ZM66 82L68 82L68 80L66 80ZM14 80L20 80L20 74L14 74ZM26 80L28 80L28 76L30 76L30 74L28 74L28 72L26 72ZM58 80L60 80L60 78L58 78ZM30 78L32 78L32 76L30 76ZM56 78L58 78L58 76L56 76ZM38 74L40 74L40 72L42 72L42 70L38 70ZM68 74L68 68L74 68L74 74ZM60 72L62 72L62 70L60 70ZM70 72L72 72L72 70L70 70ZM56 70L58 70L58 68L56 68ZM10 68L12 68L12 60L10 60ZM16 68L24 68L24 66L20 66L20 64L18 64L18 66L16 66ZM30 68L32 68L32 66L34 66L34 64L36 64L36 62L34 62L34 60L32 60L32 58L28 58L28 56L30 56L30 54L28 54L28 50L26 50L26 52L24 52L24 54L20 54L20 56L18 56L18 54L14 54L14 56L12 56L12 54L14 54L14 52L24 52L24 50L22 50L22 48L20 48L20 50L16 50L16 46L14 46L14 44L12 44L12 48L14 48L14 50L12 50L12 52L10 52L10 58L12 58L12 60L16 60L16 58L18 58L18 60L24 60L24 58L22 58L22 56L24 56L24 58L26 58L26 60L30 60L30 62L32 62L32 64L28 64L28 66L30 66ZM38 68L40 68L40 66L38 66ZM54 68L56 68L56 66L54 66ZM58 68L62 68L62 66L60 66L60 64L58 64ZM14 66L16 66L16 64L14 64ZM42 66L44 66L44 64L42 64ZM46 66L48 66L48 64L46 64ZM52 66L54 66L54 64L52 64ZM22 64L28 64L28 62L26 62L26 60L24 60L24 62L22 62ZM38 64L40 64L40 62L38 62ZM50 64L52 64L52 62L50 62ZM36 62L38 62L38 60L36 60ZM40 62L44 62L44 60L42 60L42 54L40 54L40 58L38 58L38 60L40 60ZM46 62L50 62L50 60L48 60L48 58L46 58ZM52 62L54 62L54 60L52 60ZM56 62L58 62L58 60L56 60ZM62 62L64 62L64 58L68 58L68 56L66 56L66 54L62 54L62 58L58 58L58 60L62 60ZM54 60L56 60L56 58L54 58ZM32 58L36 58L36 54L38 54L38 50L36 50L36 52L34 52L34 48L32 48L32 46L34 46L34 44L28 44L28 42L26 42L26 44L24 44L24 46L22 46L22 48L24 48L24 50L26 50L26 48L30 48L30 52L32 52ZM50 58L54 58L54 56L52 56L52 50L50 50L50 52L48 52L48 54L50 54ZM82 58L84 58L84 54L80 54L80 56L82 56ZM44 56L48 56L48 54L44 54ZM54 56L56 56L56 54L54 54ZM58 56L60 56L60 54L58 54ZM42 54L44 54L44 52L42 52ZM56 54L58 54L58 52L64 52L64 50L60 50L60 48L58 48L58 50L54 50L54 52L56 52ZM68 54L70 54L70 52L72 52L72 50L70 50L70 48L68 48ZM72 54L74 54L74 52L72 52ZM40 52L42 52L42 48L44 48L44 46L42 46L42 44L46 44L46 42L44 42L44 40L48 40L48 38L44 38L44 36L42 36L42 38L36 38L36 36L34 36L34 34L32 34L32 32L34 32L34 30L32 30L32 28L34 28L34 26L30 26L30 32L28 32L28 34L26 34L26 30L20 30L20 34L18 34L18 36L14 36L14 38L22 38L22 36L30 36L30 38L34 38L34 40L30 40L30 42L34 42L34 44L36 44L36 46L40 46L40 48L38 48L38 50L40 50ZM44 52L46 52L46 50L44 50ZM74 52L80 52L80 50L78 50L78 48L76 48L76 50L74 50ZM82 52L84 52L84 50L82 50ZM46 50L48 50L48 48L46 48ZM52 50L54 50L54 44L48 44L48 46L52 46ZM64 50L66 50L66 48L68 48L68 44L66 44L66 46L62 46L62 44L66 44L66 38L64 38L64 40L62 40L62 42L60 42L60 40L62 40L62 38L58 38L58 40L56 40L56 38L54 38L54 40L52 40L52 42L54 42L54 44L56 44L56 46L58 46L58 44L60 44L60 48L64 48ZM80 50L82 50L82 48L84 48L84 46L82 46L82 44L80 44L80 42L74 42L74 44L76 44L76 46L80 46ZM18 48L20 48L20 46L22 46L22 44L20 44L20 42L18 42L18 44L16 44L16 46L18 46ZM70 48L72 48L72 46L70 46ZM74 48L76 48L76 46L74 46ZM72 46L74 46L74 44L72 44ZM14 44L16 44L16 42L14 42ZM22 44L24 44L24 42L22 42ZM38 44L38 42L36 42L36 40L42 40L42 42L40 42L40 44ZM70 44L72 44L72 42L74 42L74 40L78 40L78 38L80 38L80 42L82 42L82 44L84 44L84 38L82 38L82 36L80 36L80 34L78 34L78 36L76 36L76 38L74 38L74 36L72 36L72 38L70 38L70 36L72 36L72 34L70 34L70 30L68 30L68 28L66 28L66 30L62 30L62 34L60 34L60 36L66 36L66 34L64 34L64 32L68 32L68 36L66 36L66 38L68 38L68 42L70 42ZM12 42L14 42L14 40L12 40ZM20 42L22 42L22 40L20 40ZM48 42L50 42L50 40L48 40ZM22 40L30 40L30 38L22 38ZM50 40L52 40L52 38L50 38ZM48 38L50 38L50 36L48 36ZM56 38L58 38L58 32L56 32ZM10 36L14 36L14 34L10 34ZM36 36L38 36L38 32L34 32L34 34L36 34ZM44 36L46 36L46 34L44 34ZM74 36L76 36L76 34L74 34ZM82 36L84 36L84 30L80 30L80 32L82 32ZM14 34L16 34L16 32L18 32L18 28L24 28L24 26L14 26L14 28L16 28L16 30L14 30ZM22 34L22 32L24 32L24 34ZM42 34L44 34L44 32L42 32ZM48 34L50 34L50 32L48 32ZM52 34L54 34L54 32L56 32L56 30L54 30L54 28L52 28L52 26L50 26L50 28L48 28L48 30L50 30L50 32L52 32ZM38 32L40 32L40 30L44 30L44 28L40 28L40 26L36 26L36 28L38 28ZM46 32L48 32L48 30L46 30ZM58 32L60 32L60 28L66 28L66 24L64 24L64 26L58 26L58 28L56 28L56 30L58 30ZM72 32L78 32L78 30L80 30L80 26L70 26L70 28L72 28ZM12 30L14 30L14 28L12 28ZM34 30L36 30L36 28L34 28ZM74 30L74 28L76 28L76 30ZM10 28L12 28L12 26L10 26ZM44 28L46 28L46 26L44 26ZM54 28L56 28L56 26L54 26ZM26 26L28 26L28 20L30 20L30 24L32 24L32 22L34 22L34 20L38 20L38 24L40 24L40 22L42 22L42 24L40 24L40 26L44 26L44 22L46 22L46 20L52 20L52 22L54 22L54 24L56 24L56 20L58 20L58 18L56 18L56 14L52 14L52 16L54 16L54 18L46 18L46 16L44 16L44 14L42 14L42 16L40 16L40 18L38 18L38 16L36 16L36 14L34 14L34 16L32 16L32 18L30 18L30 16L32 16L32 14L26 14ZM52 26L54 26L54 24L52 24ZM10 24L24 24L24 10L10 10ZM34 24L36 24L36 22L34 22ZM46 24L48 24L48 22L46 22ZM50 24L52 24L52 22L50 22ZM58 24L60 24L60 22L58 22ZM62 24L64 24L64 22L62 22ZM66 24L68 24L68 12L64 12L64 16L60 16L60 18L66 18L66 20L64 20L64 22L66 22ZM70 24L84 24L84 10L70 10ZM12 22L12 12L22 12L22 22ZM72 22L72 12L82 12L82 22ZM14 20L20 20L20 14L14 14ZM42 20L42 18L44 18L44 20ZM74 20L80 20L80 14L74 14ZM48 16L50 16L50 14L48 14ZM58 16L60 16L60 14L62 14L62 12L58 12ZM32 14L34 14L34 12L32 12ZM36 14L38 14L38 10L34 10L34 12L36 12ZM28 12L30 12L30 10L28 10ZM42 12L54 12L54 10L42 10ZM56 12L58 12L58 10L56 10Z" fill="#000000" fill-rule="evenodd" />
</svg>
