<svg viewBox="0 0 87 87" xmlns="http://www.w3.org/2000/svg">
<rect width="100%" height="100%" fill="#FFFFFF" />
<path d="M0 0L0 87L87 87L87 0ZM2 2L85 2L85 85L2 85Z" fill="#ffffff" fill-rule="evenodd" />
<path d="M10 76L24 76L24 62L10 62ZM26 76L34 76L34 72L32 72L32 74L30 74L30 70L26 70L26 72L28 72L28 74L26 74ZM46 76L50 76L50 74L48 74L48 72L46 72L46 70L48 70L48 68L50 68L50 70L52 70L52 66L48 66L48 54L46 54L46 48L42 48L42 50L44 50L44 56L46 56L46 58L44 58L44 60L46 60L46 62L44 62L44 64L46 64L46 66L42 66L42 72L40 72L40 74L46 74ZM52 76L54 76L54 74L52 74ZM56 76L60 76L60 74L56 74ZM62 76L68 76L68 74L64 74L64 72L66 72L66 70L70 70L70 72L68 72L68 74L70 74L70 76L76 76L76 70L72 70L72 68L74 68L74 64L72 64L72 66L70 66L70 68L68 68L68 66L70 66L70 64L72 64L72 62L74 62L74 60L76 60L76 54L74 54L74 56L72 56L72 52L70 52L70 50L74 50L74 46L72 46L72 48L70 48L70 46L68 46L68 44L66 44L66 50L64 50L64 52L68 52L68 54L70 54L70 62L68 62L68 58L66 58L66 56L64 56L64 58L58 58L58 66L56 66L56 70L52 70L52 72L54 72L54 74L56 74L56 72L58 72L58 68L60 68L60 74L62 74ZM12 74L12 64L22 64L22 74ZM36 74L38 74L38 64L34 64L34 62L32 62L32 66L34 66L34 72L36 72ZM50 74L52 74L52 72L50 72ZM72 74L72 72L74 72L74 74ZM14 72L20 72L20 66L14 66ZM28 66L30 66L30 62L28 62L28 60L30 60L30 62L32 62L32 60L34 60L34 58L36 58L36 54L38 54L38 52L36 52L36 50L38 50L38 52L42 52L42 50L40 50L40 48L42 48L42 44L40 44L40 46L38 46L38 48L34 48L34 50L30 50L30 52L34 52L34 54L32 54L32 56L30 56L30 58L26 58L26 64L28 64ZM52 66L56 66L56 62L54 62L54 60L50 60L50 64L52 64ZM60 66L60 60L66 60L66 66ZM38 64L40 64L40 62L42 62L42 58L40 58L40 60L38 60ZM62 64L64 64L64 62L62 62ZM74 64L76 64L76 62L74 62ZM34 62L36 62L36 60L34 60ZM10 60L14 60L14 58L10 58ZM16 60L18 60L18 58L20 58L20 56L24 56L24 58L26 58L26 56L28 56L28 54L30 54L30 52L26 52L26 54L22 54L22 52L26 52L26 50L22 50L22 48L24 48L24 46L22 46L22 44L24 44L24 42L22 42L22 40L28 40L28 38L26 38L26 36L24 36L24 38L22 38L22 36L18 36L18 34L16 34L16 38L20 38L20 50L16 50L16 54L18 54L18 52L20 52L20 54L18 54L18 56L16 56L16 54L10 54L10 56L14 56L14 58L16 58ZM20 60L24 60L24 58L20 58ZM36 60L38 60L38 58L36 58ZM54 60L56 60L56 56L54 56ZM40 56L42 56L42 54L40 54ZM50 56L54 56L54 54L52 54L52 52L54 52L54 50L56 50L56 46L54 46L54 44L52 44L52 42L54 42L54 44L56 44L56 40L58 40L58 38L54 38L54 36L52 36L52 40L50 40L50 42L48 42L48 44L50 44L50 46L52 46L52 48L50 48L50 52L48 52L48 54L50 54ZM62 56L64 56L64 52L62 52L62 48L58 48L58 50L60 50L60 54L62 54ZM66 56L68 56L68 54L66 54ZM54 54L58 54L58 52L54 52ZM12 52L14 52L14 46L18 46L18 40L14 40L14 42L16 42L16 44L12 44L12 38L14 38L14 36L10 36L10 48L12 48ZM74 52L76 52L76 50L74 50ZM26 50L28 50L28 46L26 46ZM62 48L64 48L64 44L62 44ZM24 46L26 46L26 44L24 44ZM28 46L32 46L32 44L30 44L30 40L28 40L28 42L26 42L26 44L28 44ZM36 46L38 46L38 44L36 44ZM44 46L48 46L48 44L46 44L46 42L48 42L48 40L50 40L50 38L48 38L48 32L50 32L50 28L48 28L48 20L56 20L56 22L58 22L58 24L60 24L60 16L58 16L58 18L54 18L54 14L52 14L52 18L50 18L50 14L52 14L52 12L56 12L56 10L50 10L50 12L48 12L48 10L46 10L46 12L44 12L44 14L46 14L46 18L44 18L44 16L42 16L42 18L40 18L40 16L42 16L42 10L40 10L40 12L36 12L36 10L34 10L34 12L32 12L32 14L38 14L38 20L42 20L42 24L44 24L44 20L46 20L46 24L44 24L44 26L46 26L46 30L44 30L44 26L40 26L40 30L42 30L42 32L46 32L46 34L42 34L42 40L38 40L38 42L44 42ZM58 46L60 46L60 44L58 44ZM74 46L76 46L76 44L74 44ZM34 44L36 44L36 40L32 40L32 42L34 42ZM64 44L66 44L66 42L68 42L68 44L74 44L74 42L76 42L76 38L74 38L74 36L76 36L76 34L72 34L72 30L70 30L70 36L68 36L68 34L66 34L66 40L64 40ZM58 42L62 42L62 36L64 36L64 34L62 34L62 32L60 32L60 34L58 34L58 38L60 38L60 40L58 40ZM30 40L32 40L32 36L30 36ZM68 40L68 38L70 38L70 40ZM38 38L40 38L40 30L36 30L36 28L34 28L34 30L32 30L32 32L38 32L38 34L36 34L36 36L38 36ZM22 36L24 36L24 34L22 34ZM32 36L34 36L34 34L32 34ZM50 36L52 36L52 34L50 34ZM10 34L16 34L16 32L14 32L14 30L12 30L12 26L10 26ZM18 34L22 34L22 32L24 32L24 30L22 30L22 28L20 28L20 30L18 30L18 28L16 28L16 26L14 26L14 30L16 30L16 32L18 32ZM28 34L30 34L30 32L28 32ZM54 34L56 34L56 32L54 32ZM26 32L28 32L28 30L32 30L32 28L30 28L30 26L28 26L28 28L26 28L26 26L22 26L22 28L24 28L24 30L26 30ZM52 32L54 32L54 28L52 28ZM58 32L60 32L60 30L62 30L62 28L60 28L60 26L58 26L58 28L56 28L56 30L58 30ZM62 32L64 32L64 30L62 30ZM66 32L68 32L68 28L66 28ZM72 30L74 30L74 28L72 28ZM32 28L34 28L34 26L32 26ZM36 28L38 28L38 26L36 26ZM50 28L52 28L52 26L50 26ZM64 28L66 28L66 26L64 26ZM70 28L72 28L72 26L70 26ZM74 28L76 28L76 26L74 26ZM34 26L36 26L36 22L34 22ZM38 26L40 26L40 22L38 22ZM52 26L56 26L56 22L54 22L54 24L52 24ZM10 24L24 24L24 10L10 10ZM26 24L28 24L28 20L26 20ZM30 24L32 24L32 22L30 22ZM50 24L52 24L52 22L50 22ZM62 24L76 24L76 10L62 10ZM12 22L12 12L22 12L22 22ZM32 22L34 22L34 20L36 20L36 16L34 16L34 18L32 18ZM64 22L64 12L74 12L74 22ZM14 20L20 20L20 14L14 14ZM28 20L30 20L30 18L32 18L32 14L26 14L26 16L28 16ZM66 20L72 20L72 14L66 14ZM56 16L58 16L58 14L60 14L60 10L58 10L58 12L56 12ZM26 12L28 12L28 10L26 10Z" fill="#000000" fill-rule="evenodd" />
</svg>
