<svg viewBox="0 0 79 79" xmlns="http://www.w3.org/2000/svg">
<rect width="100%" height="100%" fill="#FFFFFF" />
<path d="M0 0L0 79L79 79L79 0ZM2 2L77 2L77 77L2 77Z" fill="#ffffff" fill-rule="evenodd" />
<path d="M10 68L24 68L24 54L10 54ZM26 68L28 68L28 66L26 66ZM32 68L38 68L38 66L40 66L40 64L38 64L38 60L42 60L42 58L46 58L46 56L48 56L48 60L58 60L58 62L62 62L62 60L60 60L60 58L62 58L62 56L60 56L60 54L62 54L62 48L60 48L60 50L58 50L58 48L60 48L60 46L62 46L62 48L64 48L64 52L66 52L66 50L68 50L68 38L66 38L66 40L64 40L64 42L66 42L66 44L62 44L62 40L60 40L60 44L58 44L58 46L54 46L54 48L56 48L56 50L54 50L54 48L52 48L52 44L50 44L50 48L48 48L48 50L50 50L50 52L46 52L46 54L44 54L44 52L38 52L38 48L40 48L40 50L42 50L42 48L44 48L44 44L42 44L42 46L36 46L36 48L34 48L34 52L36 52L36 54L40 54L40 56L38 56L38 58L36 58L36 66L34 66L34 64L32 64L32 62L30 62L30 60L34 60L34 56L32 56L32 54L30 54L30 58L26 58L26 60L28 60L28 64L30 64L30 66L32 66ZM42 68L46 68L46 66L50 66L50 64L48 64L48 60L42 60L42 62L44 62L44 66L42 66ZM50 68L52 68L52 66L50 66ZM54 68L58 68L58 64L52 64L52 66L54 66ZM60 68L66 68L66 66L68 66L68 60L66 60L66 62L62 62L62 64L64 64L64 66L62 66L62 64L60 64ZM12 66L12 56L22 56L22 66ZM14 64L20 64L20 58L14 58ZM40 64L42 64L42 62L40 62ZM62 60L64 60L64 58L62 58ZM52 58L52 52L58 52L58 58ZM64 58L66 58L66 56L64 56ZM26 56L28 56L28 54L30 54L30 48L28 48L28 46L22 46L22 48L24 48L24 50L26 50ZM34 56L36 56L36 54L34 54ZM54 56L56 56L56 54L54 54ZM66 56L68 56L68 54L66 54ZM10 52L18 52L18 50L10 50ZM22 52L24 52L24 50L22 50ZM20 50L22 50L22 48L20 48ZM44 50L46 50L46 48L44 48ZM16 48L18 48L18 46L16 46ZM30 48L34 48L34 46L36 46L36 44L32 44L32 46L30 46ZM10 46L12 46L12 44L10 44ZM18 46L22 46L22 44L24 44L24 42L18 42ZM28 44L32 44L32 42L28 42ZM36 44L40 44L40 40L38 40L38 42L36 42ZM44 44L48 44L48 42L46 42L46 40L44 40ZM52 44L54 44L54 42L56 42L56 44L58 44L58 40L54 40L54 38L58 38L58 40L60 40L60 36L62 36L62 32L60 32L60 34L58 34L58 30L62 30L62 26L50 26L50 28L54 28L54 30L56 30L56 36L52 36ZM10 42L14 42L14 40L10 40ZM16 42L18 42L18 36L16 36L16 34L18 34L18 36L20 36L20 40L24 40L24 38L22 38L22 36L24 36L24 34L22 34L22 32L24 32L24 30L20 30L20 32L14 32L14 34L10 34L10 38L16 38ZM24 42L28 42L28 40L32 40L32 38L30 38L30 34L32 34L32 32L30 32L30 30L26 30L26 32L28 32L28 34L26 34L26 36L24 36L24 38L26 38L26 40L24 40ZM32 42L36 42L36 40L32 40ZM40 40L42 40L42 38L40 38ZM46 40L48 40L48 38L50 38L50 36L42 36L42 38L46 38ZM62 40L64 40L64 38L62 38ZM36 38L40 38L40 36L38 36L38 32L42 32L42 34L48 34L48 28L46 28L46 26L50 26L50 24L48 24L48 22L46 22L46 24L44 24L44 30L46 30L46 32L44 32L44 30L36 30L36 28L34 28L34 34L32 34L32 36L36 36ZM64 38L66 38L66 36L64 36ZM40 36L42 36L42 34L40 34ZM64 34L66 34L66 32L64 32ZM12 32L14 32L14 30L12 30ZM62 32L64 32L64 30L62 30ZM66 32L68 32L68 26L66 26L66 28L64 28L64 30L66 30ZM16 30L20 30L20 26L18 26L18 28L16 28ZM24 30L26 30L26 28L28 28L28 16L26 16L26 26L22 26L22 28L24 28ZM10 28L12 28L12 26L10 26ZM30 28L32 28L32 22L30 22ZM36 28L42 28L42 26L40 26L40 22L42 22L42 20L40 20L40 18L42 18L42 20L44 20L44 16L48 16L48 14L50 14L50 10L44 10L44 12L42 12L42 14L40 14L40 16L38 16L38 18L36 18L36 20L34 20L34 26L36 26L36 22L38 22L38 26L36 26ZM10 24L24 24L24 10L10 10ZM42 24L44 24L44 22L42 22ZM50 24L52 24L52 20L48 20L48 22L50 22ZM54 24L68 24L68 10L54 10ZM12 22L12 12L22 12L22 22ZM44 22L46 22L46 20L44 20ZM56 22L56 12L66 12L66 22ZM14 20L20 20L20 14L14 14ZM58 20L64 20L64 14L58 14ZM50 18L52 18L52 16L50 16ZM32 16L38 16L38 14L32 14ZM26 12L28 12L28 10L26 10ZM32 12L34 12L34 10L32 10Z" fill="#000000" fill-rule="evenodd" />
</svg>
