<svg viewBox="0 0 131 43" xmlns="http://www.w3.org/2000/svg">
<rect width="100%" height="100%" fill="#FFFFFF" />
<path d="M0 0L0 43L131 43L131 0ZM2 2L129 2L129 41L2 41Z" fill="#ffffff" fill-rule="evenodd" />
<path d="M6 36L12 36L12 34L14 34L14 36L16 36L16 34L18 34L18 36L20 36L20 34L22 34L22 32L14 32L14 30L12 30L12 32L10 32L10 34L8 34L8 30L6 30ZM22 36L24 36L24 34L22 34ZM26 36L28 36L28 34L26 34ZM30 36L32 36L32 34L30 34ZM34 36L36 36L36 34L34 34ZM38 36L40 36L40 34L38 34ZM42 36L48 36L48 34L50 34L50 30L42 30L42 28L40 28L40 30L38 30L38 32L40 32L40 34L42 34ZM50 36L52 36L52 34L50 34ZM54 36L56 36L56 34L54 34ZM58 36L60 36L60 34L58 34ZM62 36L64 36L64 34L62 34ZM66 36L68 36L68 34L66 34ZM70 36L72 36L72 32L70 32L70 30L66 30L66 32L68 32L68 34L70 34ZM74 36L76 36L76 34L74 34ZM78 36L80 36L80 34L78 34ZM82 36L88 36L88 34L90 34L90 36L92 36L92 32L96 32L96 30L94 30L94 28L96 28L96 30L100 30L100 32L102 32L102 30L104 30L104 26L106 26L106 28L108 28L108 30L110 30L110 32L112 32L112 34L114 34L114 36L124 36L124 26L120 26L120 24L116 24L116 26L114 26L114 24L112 24L112 28L110 28L110 24L106 24L106 22L102 22L102 24L96 24L96 26L92 26L92 28L88 28L88 30L90 30L90 32L88 32L88 30L82 30L82 28L80 28L80 34L82 34ZM94 36L96 36L96 34L94 34ZM98 36L100 36L100 32L96 32L96 34L98 34ZM102 36L104 36L104 34L106 34L106 36L108 36L108 34L110 34L110 32L108 32L108 30L104 30L104 32L102 32ZM110 36L112 36L112 34L110 34ZM32 34L34 34L34 32L32 32ZM36 34L38 34L38 32L36 32ZM44 34L44 32L46 32L46 34ZM52 34L54 34L54 32L56 32L56 30L58 30L58 32L60 32L60 30L62 30L62 28L64 28L64 26L66 26L66 28L72 28L72 30L74 30L74 32L78 32L78 30L76 30L76 28L74 28L74 22L72 22L72 20L70 20L70 24L72 24L72 26L68 26L68 24L62 24L62 26L60 26L60 28L50 28L50 30L52 30ZM84 34L84 32L86 32L86 34ZM116 34L116 28L122 28L122 34ZM24 32L26 32L26 30L24 30ZM28 32L30 32L30 30L32 30L32 26L36 26L36 24L34 24L34 22L32 22L32 20L34 20L34 18L28 18L28 20L30 20L30 28L28 28L28 24L24 24L24 22L28 22L28 20L26 20L26 18L24 18L24 16L26 16L26 14L24 14L24 12L28 12L28 10L30 10L30 12L32 12L32 6L30 6L30 8L28 8L28 6L26 6L26 10L22 10L22 24L20 24L20 26L18 26L18 28L14 28L14 30L20 30L20 28L26 28L26 30L28 30ZM62 32L64 32L64 30L62 30ZM118 32L120 32L120 30L118 30ZM34 30L36 30L36 28L34 28ZM6 28L8 28L8 26L6 26ZM10 28L14 28L14 26L10 26ZM36 28L40 28L40 26L42 26L42 28L48 28L48 26L44 26L44 24L40 24L40 22L38 22L38 16L36 16L36 14L32 14L32 16L34 16L34 18L36 18L36 24L38 24L38 26L36 26ZM82 28L88 28L88 24L86 24L86 26L82 26ZM8 26L10 26L10 22L6 22L6 24L8 24ZM54 26L60 26L60 24L58 24L58 22L56 22L56 24L54 24ZM80 26L82 26L82 20L80 20L80 16L86 16L86 14L82 14L82 12L80 12L80 6L78 6L78 12L76 12L76 6L74 6L74 8L72 8L72 10L68 10L68 6L66 6L66 8L64 8L64 6L62 6L62 10L60 10L60 12L54 12L54 14L52 14L52 16L56 16L56 14L58 14L58 16L60 16L60 14L62 14L62 12L64 12L64 10L66 10L66 12L72 12L72 14L74 14L74 16L76 16L76 14L78 14L78 18L72 18L72 20L74 20L74 22L78 22L78 24L80 24ZM90 26L92 26L92 20L88 20L88 22L90 22ZM12 24L16 24L16 22L12 22ZM44 24L46 24L46 22L44 22ZM48 24L50 24L50 20L48 20ZM52 24L54 24L54 20L52 20ZM60 24L62 24L62 22L60 22ZM84 24L86 24L86 22L84 22ZM94 24L96 24L96 22L94 22ZM120 24L124 24L124 22L122 22L122 20L124 20L124 18L122 18L122 16L120 16L120 12L116 12L116 14L114 14L114 16L100 16L100 18L104 18L104 20L108 20L108 22L110 22L110 20L120 20ZM40 22L42 22L42 18L40 18ZM62 22L68 22L68 20L66 20L66 18L64 18L64 20L62 20ZM98 22L102 22L102 20L100 20L100 18L98 18L98 16L96 16L96 14L94 14L94 16L92 16L92 18L94 18L94 20L98 20ZM6 20L20 20L20 6L6 6ZM44 20L48 20L48 18L44 18ZM50 20L52 20L52 16L48 16L48 18L50 18ZM54 20L56 20L56 18L54 18ZM58 20L60 20L60 18L58 18ZM84 20L88 20L88 18L84 18ZM8 18L8 8L18 8L18 18ZM68 18L72 18L72 16L70 16L70 14L66 14L66 16L68 16ZM88 18L90 18L90 16L92 16L92 12L88 12ZM10 16L16 16L16 10L10 10ZM28 16L30 16L30 14L28 14ZM40 16L46 16L46 14L44 14L44 12L50 12L50 10L52 10L52 6L50 6L50 8L48 8L48 6L42 6L42 14L40 14ZM62 16L64 16L64 14L62 14ZM98 16L100 16L100 14L98 14ZM122 16L124 16L124 14L122 14ZM36 14L38 14L38 12L36 12ZM96 14L98 14L98 12L96 12ZM102 14L104 14L104 12L108 12L108 10L110 10L110 12L112 12L112 6L110 6L110 8L108 8L108 6L106 6L106 8L104 8L104 6L102 6L102 10L98 10L98 12L102 12ZM108 14L110 14L110 12L108 12ZM112 14L114 14L114 12L112 12ZM34 12L36 12L36 10L34 10ZM82 12L88 12L88 10L90 10L90 8L88 8L88 6L82 6ZM94 12L96 12L96 6L94 6L94 8L92 8L92 10L94 10ZM114 12L116 12L116 6L114 6ZM120 12L124 12L124 6L118 6L118 8L122 8L122 10L120 10ZM38 10L40 10L40 6L38 6ZM44 10L44 8L46 8L46 10ZM58 10L60 10L60 6L58 6ZM84 10L84 8L86 8L86 10ZM22 8L24 8L24 6L22 6ZM34 8L36 8L36 6L34 6ZM54 8L56 8L56 6L54 6ZM70 8L72 8L72 6L70 6ZM90 8L92 8L92 6L90 6ZM98 8L100 8L100 6L98 6Z" fill="#000000" fill-rule="evenodd" />
</svg>
