<svg viewBox="0 0 87 87" xmlns="http://www.w3.org/2000/svg">
<rect width="100%" height="100%" fill="#FFFFFF" />
<path d="M0 0L0 87L87 87L87 0ZM2 2L85 2L85 85L2 85Z" fill="#ffffff" fill-rule="evenodd" />
<path d="M10 76L24 76L24 62L10 62ZM26 76L30 76L30 74L26 74ZM32 76L34 76L34 74L36 74L36 72L40 72L40 70L38 70L38 68L34 68L34 66L32 66L32 64L30 64L30 68L32 68L32 70L34 70L34 72L30 72L30 74L32 74ZM38 76L44 76L44 74L48 74L48 72L50 72L50 70L46 70L46 72L44 72L44 70L42 70L42 72L40 72L40 74L38 74ZM50 76L54 76L54 74L50 74ZM60 76L62 76L62 74L60 74ZM64 76L72 76L72 74L64 74ZM12 74L12 64L22 64L22 74ZM54 74L56 74L56 72L58 72L58 70L54 70L54 68L52 68L52 66L50 66L50 70L52 70L52 72L54 72ZM58 74L60 74L60 72L58 72ZM72 74L74 74L74 72L72 72ZM14 72L20 72L20 66L14 66ZM26 72L28 72L28 70L30 70L30 68L28 68L28 64L26 64ZM64 72L72 72L72 70L64 70ZM40 70L42 70L42 68L40 68ZM58 70L60 70L60 68L62 68L62 70L64 70L64 68L72 68L72 66L70 66L70 64L68 64L68 60L70 60L70 64L76 64L76 62L74 62L74 60L72 60L72 58L62 58L62 56L60 56L60 58L58 58L58 62L48 62L48 60L46 60L46 64L44 64L44 62L42 62L42 64L40 64L40 66L48 66L48 64L56 64L56 66L54 66L54 68L58 68ZM38 68L40 68L40 66L38 66ZM36 66L38 66L38 64L40 64L40 62L36 62ZM60 66L60 60L66 60L66 66ZM32 64L34 64L34 62L32 62ZM62 64L64 64L64 62L62 62ZM26 62L28 62L28 60L26 60ZM30 62L32 62L32 60L30 60ZM40 62L42 62L42 60L40 60ZM10 60L12 60L12 52L14 52L14 48L12 48L12 50L10 50ZM16 60L18 60L18 58L22 58L22 56L16 56ZM22 60L24 60L24 58L22 58ZM36 60L38 60L38 58L36 58ZM44 60L46 60L46 58L48 58L48 56L50 56L50 54L46 54L46 56L44 56L44 54L42 54L42 56L38 56L38 58L44 58ZM48 60L56 60L56 58L48 58ZM24 58L26 58L26 56L30 56L30 52L28 52L28 54L22 54L22 56L24 56ZM30 58L34 58L34 56L30 56ZM72 58L74 58L74 56L76 56L76 54L72 54L72 52L74 52L74 48L72 48L72 46L70 46L70 50L68 50L68 52L66 52L66 54L68 54L68 56L72 56ZM14 56L16 56L16 54L14 54ZM34 56L36 56L36 54L34 54ZM52 56L60 56L60 54L54 54L54 52L56 52L56 50L52 50L52 52L50 52L50 54L52 54ZM62 56L66 56L66 54L62 54ZM16 54L18 54L18 52L16 52ZM20 54L22 54L22 52L28 52L28 50L26 50L26 46L22 46L22 48L24 48L24 50L22 50L22 48L20 48ZM32 54L34 54L34 50L30 50L30 52L32 52ZM38 54L42 54L42 52L38 52ZM42 52L44 52L44 50L42 50ZM46 52L48 52L48 50L46 50ZM58 52L64 52L64 50L58 50ZM16 50L18 50L18 46L14 46L14 48L16 48ZM34 50L36 50L36 48L34 48ZM38 50L42 50L42 48L38 48ZM44 50L46 50L46 48L44 48ZM64 50L68 50L68 48L66 48L66 46L62 46L62 48L64 48ZM30 48L34 48L34 46L32 46L32 40L36 40L36 42L40 42L40 44L36 44L36 48L38 48L38 46L44 46L44 44L42 44L42 42L48 42L48 40L50 40L50 42L52 42L52 40L54 40L54 38L56 38L56 36L54 36L54 34L52 34L52 38L46 38L46 40L42 40L42 38L44 38L44 36L42 36L42 34L46 34L46 32L44 32L44 30L42 30L42 32L40 32L40 40L38 40L38 38L36 38L36 36L34 36L34 34L36 34L36 30L32 30L32 32L30 32L30 30L22 30L22 28L24 28L24 26L14 26L14 28L18 28L18 32L20 32L20 34L22 34L22 32L28 32L28 34L22 34L22 36L28 36L28 40L26 40L26 42L22 42L22 44L26 44L26 46L30 46ZM46 48L54 48L54 46L46 46ZM56 48L60 48L60 46L56 46ZM74 48L76 48L76 46L74 46ZM10 46L14 46L14 44L10 44ZM18 46L22 46L22 44L18 44ZM66 46L70 46L70 44L66 44ZM14 44L18 44L18 42L14 42ZM28 44L28 42L30 42L30 44ZM52 44L56 44L56 42L52 42ZM60 44L66 44L66 42L60 42ZM70 44L72 44L72 42L70 42ZM12 42L14 42L14 40L18 40L18 42L22 42L22 40L20 40L20 38L18 38L18 36L16 36L16 38L12 38L12 36L10 36L10 40L12 40ZM68 42L70 42L70 40L68 40ZM74 42L76 42L76 34L74 34L74 36L72 36L72 38L70 38L70 40L74 40ZM22 40L24 40L24 38L22 38ZM56 40L66 40L66 38L62 38L62 36L66 36L66 30L64 30L64 34L60 34L60 38L56 38ZM66 38L68 38L68 36L66 36ZM12 36L14 36L14 32L12 32ZM18 36L20 36L20 34L18 34ZM46 36L50 36L50 34L46 34ZM56 36L58 36L58 34L56 34ZM68 36L72 36L72 34L68 34ZM54 34L56 34L56 32L54 32ZM38 32L40 32L40 30L38 30ZM48 32L54 32L54 30L48 30ZM56 32L60 32L60 30L56 30ZM68 32L70 32L70 30L68 30ZM72 32L76 32L76 30L74 30L74 28L72 28ZM12 30L14 30L14 28L12 28ZM40 30L42 30L42 24L40 24L40 26L38 26L38 28L40 28ZM54 30L56 30L56 28L54 28ZM60 30L62 30L62 28L60 28ZM66 30L68 30L68 28L72 28L72 26L62 26L62 28L66 28ZM10 28L12 28L12 26L10 26ZM28 28L30 28L30 26L28 26ZM34 28L36 28L36 26L34 26ZM46 28L54 28L54 26L52 26L52 22L50 22L50 26L46 26ZM26 26L28 26L28 20L30 20L30 24L32 24L32 20L40 20L40 18L38 18L38 16L34 16L34 18L28 18L28 14L26 14ZM36 26L38 26L38 24L36 24ZM44 26L46 26L46 24L44 24ZM54 26L56 26L56 22L54 22ZM10 24L24 24L24 10L10 10ZM34 24L36 24L36 22L34 22ZM38 24L40 24L40 22L38 22ZM42 24L44 24L44 22L42 22ZM46 24L48 24L48 22L46 22ZM58 24L60 24L60 20L56 20L56 22L58 22ZM62 24L76 24L76 10L62 10ZM12 22L12 12L22 12L22 22ZM40 22L42 22L42 20L40 20ZM48 22L50 22L50 20L48 20ZM52 22L54 22L54 20L56 20L56 16L52 16L52 18L50 18L50 20L52 20ZM64 22L64 12L74 12L74 22ZM14 20L20 20L20 14L14 14ZM44 20L46 20L46 18L44 18ZM66 20L72 20L72 14L66 14ZM40 18L44 18L44 16L46 16L46 14L40 14L40 12L38 12L38 10L32 10L32 12L30 12L30 14L32 14L32 16L34 16L34 14L38 14L38 16L40 16ZM46 18L50 18L50 16L46 16ZM58 18L60 18L60 14L58 14ZM48 14L50 14L50 12L48 12ZM52 14L54 14L54 12L56 12L56 10L50 10L50 12L52 12ZM56 14L58 14L58 12L56 12ZM40 12L46 12L46 10L40 10ZM58 12L60 12L60 10L58 10Z" fill="#000000" fill-rule="evenodd" />
</svg>
