<svg viewBox="0 0 95 95" xmlns="http://www.w3.org/2000/svg">
<rect width="100%" height="100%" fill="#FFFFFF" />
<path d="M0 0L0 95L95 95L95 0ZM2 2L93 2L93 93L2 93Z" fill="#ffffff" fill-rule="evenodd" />
<path d="M10 84L24 84L24 70L10 70ZM26 84L32 84L32 82L26 82ZM34 84L36 84L36 80L38 80L38 78L36 78L36 76L34 76L34 78L32 78L32 82L34 82ZM40 84L46 84L46 78L44 78L44 76L42 76L42 80L44 80L44 82L40 82ZM50 84L54 84L54 80L52 80L52 82L50 82ZM58 84L60 84L60 82L58 82ZM64 84L66 84L66 80L70 80L70 82L72 82L72 80L74 80L74 78L72 78L72 76L76 76L76 74L78 74L78 84L84 84L84 82L82 82L82 80L80 80L80 66L82 66L82 64L78 64L78 70L76 70L76 64L78 64L78 62L76 62L76 60L74 60L74 64L72 64L72 66L70 66L70 64L68 64L68 66L64 66L64 68L66 68L66 76L70 76L70 78L64 78L64 80L62 80L62 82L64 82ZM72 84L76 84L76 82L72 82ZM12 82L12 72L22 72L22 82ZM48 82L50 82L50 80L48 80ZM56 82L58 82L58 76L56 76L56 78L54 78L54 80L56 80ZM14 80L20 80L20 74L14 74ZM50 80L52 80L52 76L56 76L56 74L54 74L54 72L60 72L60 70L58 70L58 60L56 60L56 62L54 62L54 64L56 64L56 66L54 66L54 64L50 64L50 60L56 60L56 58L54 58L54 54L50 54L50 56L52 56L52 58L48 58L48 60L46 60L46 62L44 62L44 64L42 64L42 62L40 62L40 64L38 64L38 66L44 66L44 68L46 68L46 70L48 70L48 66L50 66L50 68L54 68L54 70L52 70L52 74L48 74L48 72L46 72L46 70L44 70L44 68L40 68L40 70L38 70L38 66L32 66L32 70L34 70L34 72L38 72L38 76L40 76L40 74L46 74L46 76L48 76L48 78L50 78ZM28 78L30 78L30 74L26 74L26 76L28 76ZM60 78L64 78L64 74L62 74L62 76L60 76ZM82 78L84 78L84 76L82 76ZM58 76L60 76L60 74L58 74ZM32 74L34 74L34 72L32 72ZM68 74L68 68L74 68L74 74ZM26 72L28 72L28 70L30 70L30 68L26 68ZM30 72L32 72L32 70L30 70ZM62 72L64 72L64 68L60 68L60 70L62 70ZM70 72L72 72L72 70L70 70ZM10 68L14 68L14 66L10 66ZM16 68L18 68L18 64L16 64L16 62L20 62L20 60L28 60L28 58L30 58L30 62L32 62L32 58L34 58L34 56L32 56L32 54L30 54L30 52L28 52L28 54L26 54L26 56L24 56L24 58L18 58L18 60L14 60L14 66L16 66ZM20 68L24 68L24 66L20 66ZM24 66L26 66L26 64L28 64L28 62L20 62L20 64L24 64ZM28 66L30 66L30 64L28 64ZM62 66L64 66L64 64L62 64ZM32 64L36 64L36 62L32 62ZM60 64L62 64L62 60L60 60ZM64 64L68 64L68 60L74 60L74 56L76 56L76 52L74 52L74 54L72 54L72 58L68 58L68 56L66 56L66 54L70 54L70 52L74 52L74 48L72 48L72 50L68 50L68 52L66 52L66 50L68 50L68 48L66 48L66 44L64 44L64 52L60 52L60 56L62 56L62 54L64 54L64 56L62 56L62 58L66 58L66 60L64 60ZM10 62L12 62L12 60L10 60ZM36 62L38 62L38 60L36 60ZM12 60L14 60L14 56L16 56L16 54L12 54ZM34 60L36 60L36 58L34 58ZM42 60L44 60L44 58L42 58ZM58 60L60 60L60 56L58 56L58 52L56 52L56 50L54 50L54 48L56 48L56 50L58 50L58 48L60 48L60 46L58 46L58 44L56 44L56 46L52 46L52 44L50 44L50 40L46 40L46 38L44 38L44 36L40 36L40 40L38 40L38 44L36 44L36 40L38 40L38 38L34 38L34 42L26 42L26 44L28 44L28 50L30 50L30 48L32 48L32 50L30 50L30 52L36 52L36 50L34 50L34 48L36 48L36 46L40 46L40 44L42 44L42 40L44 40L44 42L46 42L46 44L48 44L48 46L50 46L50 48L52 48L52 50L48 50L48 52L54 52L54 54L56 54L56 58L58 58ZM78 60L80 60L80 56L78 56ZM82 60L84 60L84 56L82 56ZM36 58L42 58L42 54L46 54L46 56L48 56L48 52L46 52L46 48L44 48L44 52L42 52L42 50L40 50L40 48L36 48L36 50L38 50L38 52L40 52L40 56L36 56ZM20 56L24 56L24 54L20 54ZM34 56L36 56L36 54L34 54ZM18 54L20 54L20 52L18 52ZM24 54L26 54L26 52L28 52L28 50L22 50L22 52L24 52ZM36 54L38 54L38 52L36 52ZM10 52L16 52L16 50L22 50L22 48L24 48L24 46L20 46L20 44L24 44L24 42L20 42L20 40L16 40L16 38L14 38L14 36L10 36L10 38L12 38L12 42L10 42L10 48L14 48L14 46L12 46L12 44L14 44L14 42L18 42L18 44L14 44L14 46L18 46L18 48L14 48L14 50L10 50ZM78 52L80 52L80 46L76 46L76 48L78 48ZM82 52L84 52L84 48L82 48ZM42 48L44 48L44 44L42 44ZM46 48L48 48L48 46L46 46ZM68 48L70 48L70 44L72 44L72 46L76 46L76 44L74 44L74 42L72 42L72 40L68 40L68 36L64 36L64 34L68 34L68 28L66 28L66 26L64 26L64 28L60 28L60 26L58 26L58 28L56 28L56 26L54 26L54 24L52 24L52 26L50 26L50 28L52 28L52 32L50 32L50 28L46 28L46 30L44 30L44 32L42 32L42 30L40 30L40 28L44 28L44 26L42 26L42 24L40 24L40 26L38 26L38 32L40 32L40 34L44 34L44 36L46 36L46 34L50 34L50 36L56 36L56 34L54 34L54 30L56 30L56 34L60 34L60 32L58 32L58 30L62 30L62 36L60 36L60 38L64 38L64 40L66 40L66 42L68 42ZM30 46L30 44L32 44L32 46ZM60 46L62 46L62 44L60 44ZM52 44L56 44L56 42L60 42L60 38L58 38L58 36L56 36L56 40L54 40L54 38L50 38L50 40L52 40ZM78 44L80 44L80 38L78 38ZM82 44L84 44L84 42L82 42ZM24 42L26 42L26 40L24 40ZM62 42L64 42L64 40L62 40ZM74 42L76 42L76 40L74 40ZM20 40L24 40L24 38L20 38ZM28 40L32 40L32 38L34 38L34 36L32 36L32 32L36 32L36 30L32 30L32 28L30 28L30 26L28 26L28 22L30 22L30 20L28 20L28 18L30 18L30 20L32 20L32 18L36 18L36 16L38 16L38 14L32 14L32 16L26 16L26 26L22 26L22 28L24 28L24 30L20 30L20 36L24 36L24 34L22 34L22 32L26 32L26 34L28 34L28 32L30 32L30 36L26 36L26 38L28 38ZM16 38L18 38L18 36L16 36ZM74 38L78 38L78 36L74 36ZM34 36L36 36L36 34L34 34ZM68 36L74 36L74 34L68 34ZM78 36L82 36L82 34L80 34L80 32L78 32L78 30L82 30L82 28L78 28L78 26L68 26L68 28L74 28L74 30L76 30L76 34L78 34ZM10 34L12 34L12 32L10 32ZM16 34L18 34L18 32L16 32ZM36 34L38 34L38 32L36 32ZM82 34L84 34L84 32L82 32ZM12 32L14 32L14 30L12 30ZM10 30L12 30L12 26L10 26ZM14 30L18 30L18 28L14 28ZM18 28L20 28L20 26L18 26ZM34 28L36 28L36 26L38 26L38 24L36 24L36 22L34 22L34 24L32 24L32 26L34 26ZM82 28L84 28L84 26L82 26ZM62 26L64 26L64 22L62 22ZM10 24L24 24L24 10L10 10ZM30 24L32 24L32 22L30 22ZM38 24L40 24L40 22L38 22ZM42 24L44 24L44 22L46 22L46 20L48 20L48 14L50 14L50 12L52 12L52 10L48 10L48 12L46 12L46 14L44 14L44 16L46 16L46 18L42 18ZM46 24L48 24L48 22L46 22ZM50 24L52 24L52 22L54 22L54 20L48 20L48 22L50 22ZM54 24L56 24L56 22L54 22ZM58 24L60 24L60 22L58 22ZM66 24L68 24L68 18L66 18L66 16L60 16L60 18L62 18L62 20L66 20ZM70 24L84 24L84 10L70 10ZM12 22L12 12L22 12L22 22ZM72 22L72 12L82 12L82 22ZM14 20L20 20L20 14L14 14ZM36 20L40 20L40 18L36 18ZM56 20L60 20L60 18L58 18L58 14L52 14L52 16L56 16ZM74 20L80 20L80 14L74 14ZM40 18L42 18L42 14L44 14L44 12L46 12L46 10L42 10L42 12L40 12L40 10L26 10L26 12L28 12L28 14L32 14L32 12L38 12L38 14L40 14ZM66 16L68 16L68 10L60 10L60 12L66 12ZM58 14L60 14L60 12L58 12ZM54 12L58 12L58 10L54 10Z" fill="#000000" fill-rule="evenodd" />
</svg>
