<svg viewBox="0 0 87 87" xmlns="http://www.w3.org/2000/svg">
<rect width="100%" height="100%" fill="#FFFFFF" />
<path d="M0 0L0 87L87 87L87 0ZM2 2L85 2L85 85L2 85Z" fill="#ffffff" fill-rule="evenodd" />
<path d="M10 76L24 76L24 62L10 62ZM26 76L36 76L36 74L38 74L38 76L40 76L40 72L36 72L36 68L32 68L32 72L34 72L34 74L26 74ZM42 76L46 76L46 74L44 74L44 72L42 72ZM48 76L52 76L52 74L48 74ZM54 76L66 76L66 74L62 74L62 72L60 72L60 74L54 74ZM68 76L74 76L74 74L72 74L72 70L70 70L70 72L68 72ZM12 74L12 64L22 64L22 74ZM46 74L48 74L48 72L46 72ZM52 74L54 74L54 72L52 72ZM14 72L20 72L20 66L14 66ZM26 72L30 72L30 70L28 70L28 68L32 68L32 66L30 66L30 60L28 60L28 58L30 58L30 60L32 60L32 56L30 56L30 54L28 54L28 56L26 56L26 62L28 62L28 64L26 64ZM58 72L60 72L60 70L62 70L62 68L64 68L64 70L70 70L70 66L72 66L72 70L76 70L76 68L74 68L74 66L76 66L76 64L74 64L74 62L72 62L72 64L68 64L68 58L64 58L64 56L62 56L62 58L58 58L58 60L56 60L56 62L58 62L58 64L56 64L56 66L58 66L58 68L56 68L56 70L58 70ZM62 72L64 72L64 70L62 70ZM40 70L44 70L44 68L42 68L42 66L40 66L40 64L44 64L44 60L42 60L42 56L46 56L46 54L42 54L42 52L44 52L44 50L36 50L36 52L38 52L38 54L40 54L40 56L38 56L38 58L36 58L36 60L38 60L38 66L36 66L36 68L40 68ZM50 70L52 70L52 66L46 66L46 68L50 68ZM54 68L56 68L56 66L54 66ZM52 66L54 66L54 64L52 64ZM60 66L60 60L66 60L66 66ZM32 64L36 64L36 62L34 62L34 60L32 60ZM46 64L48 64L48 62L46 62ZM62 64L64 64L64 62L62 62ZM48 62L52 62L52 60L56 60L56 58L54 58L54 56L56 56L56 52L58 52L58 50L56 50L56 46L54 46L54 44L56 44L56 38L58 38L58 36L56 36L56 34L54 34L54 28L50 28L50 30L52 30L52 32L48 32L48 34L46 34L46 36L48 36L48 38L50 38L50 36L54 36L54 38L50 38L50 42L52 42L52 44L50 44L50 42L48 42L48 46L50 46L50 48L52 48L52 50L54 50L54 54L52 54L52 52L46 52L46 54L50 54L50 56L52 56L52 58L50 58L50 60L48 60ZM74 62L76 62L76 60L74 60ZM10 60L12 60L12 54L14 54L14 52L16 52L16 48L18 48L18 46L20 46L20 44L18 44L18 42L16 42L16 44L12 44L12 46L10 46ZM18 60L20 60L20 58L18 58ZM22 60L24 60L24 58L22 58ZM70 60L74 60L74 58L72 58L72 56L68 56L68 58L70 58ZM16 58L18 58L18 56L16 56ZM46 58L48 58L48 56L46 56ZM18 56L20 56L20 54L18 54ZM22 56L24 56L24 54L22 54ZM34 56L38 56L38 54L34 54ZM72 56L74 56L74 52L72 52ZM20 54L22 54L22 52L20 52ZM26 54L28 54L28 52L26 52ZM32 54L34 54L34 52L32 52ZM60 54L62 54L62 50L60 50ZM68 54L70 54L70 52L68 52ZM22 52L26 52L26 50L22 50ZM66 52L68 52L68 50L66 50ZM70 52L72 52L72 48L74 48L74 44L72 44L72 46L70 46L70 44L68 44L68 46L64 46L64 50L66 50L66 48L68 48L68 50L70 50ZM74 52L76 52L76 48L74 48ZM20 50L22 50L22 48L20 48ZM32 50L36 50L36 48L34 48L34 46L36 46L36 44L34 44L34 42L32 42ZM44 50L48 50L48 48L46 48L46 42L44 42L44 40L42 40L42 44L38 44L38 48L42 48L42 46L44 46ZM58 50L60 50L60 48L62 48L62 40L66 40L66 38L64 38L64 36L62 36L62 34L60 34L60 32L58 32L58 36L60 36L60 46L58 46ZM22 48L24 48L24 46L22 46ZM26 48L28 48L28 46L30 46L30 44L28 44L28 42L30 42L30 40L24 40L24 42L20 42L20 44L24 44L24 46L26 46ZM10 44L12 44L12 42L10 42ZM64 44L66 44L66 42L64 42ZM70 44L72 44L72 42L74 42L74 38L72 38L72 40L68 40L68 42L70 42ZM12 42L16 42L16 40L18 40L18 42L20 42L20 40L24 40L24 38L18 38L18 36L24 36L24 34L20 34L20 32L16 32L16 34L14 34L14 40L12 40ZM34 42L40 42L40 40L38 40L38 38L36 38L36 40L34 40ZM30 40L32 40L32 38L30 38ZM44 40L48 40L48 38L44 38ZM10 38L12 38L12 34L14 34L14 32L12 32L12 30L10 30ZM28 38L30 38L30 36L28 36ZM32 38L36 38L36 36L34 36L34 34L32 34ZM38 38L44 38L44 36L42 36L42 34L44 34L44 28L42 28L42 30L40 30L40 32L38 32L38 34L40 34L40 36L38 36ZM68 38L72 38L72 36L68 36ZM26 36L28 36L28 34L32 34L32 32L28 32L28 28L26 28L26 30L22 30L22 32L26 32ZM64 36L68 36L68 34L64 34ZM62 34L64 34L64 32L62 32ZM68 34L72 34L72 32L68 32ZM74 34L76 34L76 32L74 32ZM34 32L36 32L36 28L34 28ZM46 32L48 32L48 30L46 30ZM60 32L62 32L62 30L60 30ZM66 32L68 32L68 30L66 30ZM72 32L74 32L74 28L72 28ZM12 30L16 30L16 28L18 28L18 30L22 30L22 28L24 28L24 26L14 26L14 28L12 28ZM38 30L40 30L40 28L38 28ZM56 30L58 30L58 26L60 26L60 22L58 22L58 24L56 24L56 22L54 22L54 24L52 24L52 26L54 26L54 28L56 28ZM62 30L64 30L64 28L68 28L68 30L70 30L70 28L72 28L72 26L62 26ZM10 28L12 28L12 26L10 26ZM32 28L34 28L34 24L32 24L32 20L38 20L38 18L36 18L36 16L38 16L38 14L42 14L42 12L40 12L40 10L36 10L36 14L34 14L34 12L30 12L30 10L28 10L28 14L30 14L30 16L28 16L28 14L26 14L26 26L32 26ZM36 28L38 28L38 26L36 26ZM40 28L42 28L42 24L40 24L40 22L38 22L38 26L40 26ZM48 28L50 28L50 26L48 26ZM10 24L24 24L24 10L10 10ZM28 24L28 22L30 22L30 24ZM34 24L36 24L36 22L34 22ZM42 24L44 24L44 20L42 20L42 18L40 18L40 22L42 22ZM46 24L48 24L48 18L44 18L44 20L46 20ZM50 24L52 24L52 22L54 22L54 20L50 20ZM62 24L76 24L76 10L62 10ZM12 22L12 12L22 12L22 22ZM64 22L64 12L74 12L74 22ZM14 20L20 20L20 14L14 14ZM54 20L56 20L56 16L54 16L54 14L52 14L52 18L54 18ZM66 20L72 20L72 14L66 14ZM38 18L40 18L40 16L38 16ZM42 18L44 18L44 16L42 16ZM48 18L50 18L50 14L46 14L46 10L42 10L42 12L44 12L44 16L48 16ZM58 18L60 18L60 16L58 16ZM54 14L56 14L56 12L54 12ZM58 14L60 14L60 12L58 12ZM48 12L54 12L54 10L48 10ZM56 12L58 12L58 10L56 10Z" fill="#000000" fill-rule="evenodd" />
</svg>
