<svg viewBox="0 0 79 79" xmlns="http://www.w3.org/2000/svg">
<rect width="100%" height="100%" fill="#FFFFFF" />
<path d="M0 0L0 79L79 79L79 0ZM2 2L77 2L77 77L2 77Z" fill="#ffffff" fill-rule="evenodd" />
<path d="M10 68L24 68L24 54L10 54ZM26 68L30 68L30 64L28 64L28 66L26 66ZM32 68L34 68L34 62L38 62L38 64L40 64L40 62L42 62L42 60L44 60L44 62L46 62L46 64L42 64L42 68L46 68L46 66L50 66L50 64L48 64L48 56L46 56L46 58L44 58L44 56L46 56L46 54L44 54L44 50L42 50L42 56L40 56L40 58L38 58L38 60L36 60L36 58L38 58L38 56L40 56L40 54L38 54L38 52L34 52L34 48L32 48L32 46L30 46L30 44L26 44L26 46L28 46L28 50L30 50L30 52L32 52L32 54L36 54L36 56L34 56L34 58L32 58L32 54L30 54L30 56L26 56L26 58L30 58L30 60L32 60L32 62L30 62L30 64L32 64ZM36 68L38 68L38 64L36 64ZM50 68L54 68L54 66L56 66L56 60L62 60L62 58L60 58L60 54L62 54L62 48L60 48L60 50L56 50L56 46L58 46L58 42L56 42L56 44L54 44L54 42L52 42L52 46L50 46L50 52L48 52L48 54L50 54L50 62L52 62L52 60L54 60L54 62L52 62L52 66L50 66ZM58 68L66 68L66 64L64 64L64 66L60 66L60 64L62 64L62 62L58 62ZM12 66L12 56L22 56L22 66ZM14 64L20 64L20 58L14 58ZM66 64L68 64L68 62L66 62ZM26 62L28 62L28 60L26 60ZM62 62L66 62L66 60L62 60ZM66 60L68 60L68 56L66 56L66 52L68 52L68 44L66 44L66 48L64 48L64 54L62 54L62 58L66 58ZM52 58L52 52L58 52L58 58ZM54 56L56 56L56 54L54 54ZM26 54L30 54L30 52L26 52ZM10 52L12 52L12 50L10 50ZM18 52L20 52L20 48L16 48L16 50L18 50ZM22 52L26 52L26 48L24 48L24 50L22 50ZM38 52L40 52L40 50L38 50ZM36 50L38 50L38 46L36 46ZM40 50L42 50L42 48L40 48ZM44 50L46 50L46 48L48 48L48 44L50 44L50 42L52 42L52 40L46 40L46 38L44 38L44 44L46 44L46 46L44 46ZM52 50L52 48L54 48L54 50ZM10 48L12 48L12 46L10 46ZM14 48L16 48L16 46L18 46L18 44L14 44ZM20 48L24 48L24 46L22 46L22 44L20 44ZM58 48L60 48L60 46L58 46ZM62 48L64 48L64 44L62 44ZM32 46L36 46L36 44L34 44L34 42L32 42ZM42 46L44 46L44 44L42 44ZM22 44L26 44L26 42L22 42ZM36 44L42 44L42 40L34 40L34 42L36 42ZM60 44L62 44L62 42L60 42ZM64 44L66 44L66 42L68 42L68 38L66 38L66 40L64 40ZM10 42L14 42L14 40L10 40ZM16 42L18 42L18 40L16 40ZM30 42L32 42L32 40L34 40L34 38L32 38L32 36L30 36L30 38L28 38L28 40L30 40ZM54 42L56 42L56 40L62 40L62 38L54 38ZM18 40L20 40L20 38L18 38ZM22 40L24 40L24 38L22 38ZM16 38L18 38L18 30L20 30L20 28L18 28L18 26L16 26L16 34L14 34L14 36L16 36ZM20 38L22 38L22 36L26 36L26 34L20 34ZM26 38L28 38L28 36L26 36ZM34 38L36 38L36 26L32 26L32 18L30 18L30 12L28 12L28 20L30 20L30 24L28 24L28 26L26 26L26 28L28 28L28 30L26 30L26 28L24 28L24 30L22 30L22 32L26 32L26 34L32 34L32 36L34 36ZM40 38L42 38L42 36L44 36L44 32L38 32L38 34L40 34ZM48 38L52 38L52 36L48 36ZM62 38L64 38L64 36L62 36ZM10 36L12 36L12 34L10 34ZM54 36L62 36L62 34L58 34L58 30L56 30L56 34L54 34ZM64 36L68 36L68 32L66 32L66 30L68 30L68 28L62 28L62 34L64 34ZM48 34L50 34L50 32L54 32L54 30L56 30L56 28L54 28L54 26L52 26L52 28L50 28L50 24L48 24L48 22L46 22L46 24L44 24L44 26L40 26L40 28L38 28L38 30L42 30L42 28L44 28L44 32L48 32ZM12 32L14 32L14 30L12 30ZM32 32L32 30L34 30L34 32ZM30 30L30 28L32 28L32 30ZM10 28L12 28L12 26L10 26ZM20 28L24 28L24 26L20 26ZM46 28L46 26L48 26L48 28ZM56 28L58 28L58 26L56 26ZM38 26L40 26L40 18L42 18L42 16L38 16L38 14L42 14L42 12L38 12L38 10L34 10L34 12L36 12L36 16L32 16L32 18L34 18L34 20L36 20L36 22L38 22ZM10 24L24 24L24 10L10 10ZM26 24L28 24L28 20L26 20ZM34 24L36 24L36 22L34 22ZM42 24L44 24L44 22L42 22ZM50 24L52 24L52 20L48 20L48 22L50 22ZM54 24L68 24L68 10L54 10ZM12 22L12 12L22 12L22 22ZM44 22L46 22L46 20L44 20ZM56 22L56 12L66 12L66 22ZM14 20L20 20L20 14L14 14ZM42 20L44 20L44 18L42 18ZM46 20L48 20L48 12L50 12L50 10L46 10L46 14L42 14L42 16L46 16ZM58 20L64 20L64 14L58 14ZM50 18L52 18L52 16L50 16ZM32 14L34 14L34 12L32 12ZM50 14L52 14L52 12L50 12ZM30 12L32 12L32 10L30 10ZM42 12L44 12L44 10L42 10Z" fill="#000000" fill-rule="evenodd" />
</svg>
