<svg viewBox="0 0 131 43" xmlns="http://www.w3.org/2000/svg">
<rect width="100%" height="100%" fill="#FFFFFF" />
<path d="M0 0L0 43L131 43L131 0ZM2 2L129 2L129 41L2 41Z" fill="#ffffff" fill-rule="evenodd" />
<path d="M6 36L12 36L12 34L14 34L14 36L16 36L16 30L12 30L12 32L10 32L10 34L8 34L8 32L10 32L10 30L6 30ZM18 36L20 36L20 32L24 32L24 30L20 30L20 28L18 28ZM22 36L24 36L24 34L22 34ZM26 36L28 36L28 34L26 34ZM30 36L32 36L32 30L38 30L38 24L36 24L36 28L32 28L32 26L34 26L34 24L36 24L36 20L32 20L32 22L28 22L28 24L30 24L30 26L28 26L28 24L26 24L26 28L24 28L24 30L26 30L26 32L28 32L28 30L30 30L30 32L28 32L28 34L30 34ZM34 36L36 36L36 34L38 34L38 36L40 36L40 34L42 34L42 36L48 36L48 28L46 28L46 30L42 30L42 32L40 32L40 30L38 30L38 32L34 32ZM50 36L52 36L52 28L50 28ZM54 36L56 36L56 34L58 34L58 36L60 36L60 32L58 32L58 30L56 30L56 32L54 32ZM62 36L64 36L64 34L66 34L66 36L68 36L68 32L62 32ZM70 36L72 36L72 34L74 34L74 32L70 32ZM74 36L76 36L76 34L74 34ZM78 36L80 36L80 34L82 34L82 36L88 36L88 30L84 30L84 28L86 28L86 26L84 26L84 24L82 24L82 28L80 28L80 32L76 32L76 34L78 34ZM90 36L92 36L92 32L90 32ZM94 36L96 36L96 32L94 32ZM98 36L100 36L100 32L98 32ZM102 36L104 36L104 34L106 34L106 30L104 30L104 28L102 28ZM106 36L108 36L108 34L106 34ZM110 36L112 36L112 34L110 34ZM114 36L124 36L124 26L120 26L120 24L118 24L118 22L116 22L116 26L114 26L114 20L112 20L112 28L110 28L110 24L108 24L108 30L110 30L110 32L112 32L112 34L114 34ZM24 34L26 34L26 32L24 32ZM44 34L44 32L46 32L46 34ZM84 34L84 32L86 32L86 34ZM108 34L110 34L110 32L108 32ZM116 34L116 28L122 28L122 34ZM60 32L62 32L62 30L60 30ZM92 32L94 32L94 30L92 30ZM96 32L98 32L98 28L94 28L94 30L96 30ZM118 32L120 32L120 30L118 30ZM62 30L68 30L68 28L66 28L66 26L64 26L64 28L62 28ZM88 30L92 30L92 28L90 28L90 26L92 26L92 24L88 24ZM6 28L8 28L8 26L6 26ZM10 28L12 28L12 26L16 26L16 24L18 24L18 26L24 26L24 20L26 20L26 18L24 18L24 16L26 16L26 14L24 14L24 12L28 12L28 10L30 10L30 8L28 8L28 6L26 6L26 10L22 10L22 22L14 22L14 24L12 24L12 22L6 22L6 24L8 24L8 26L10 26ZM16 28L18 28L18 26L16 26ZM40 28L42 28L42 26L40 26ZM44 28L46 28L46 26L44 26ZM52 28L56 28L56 26L54 26L54 24L50 24L50 22L54 22L54 24L56 24L56 22L58 22L58 24L60 24L60 22L62 22L62 20L64 20L64 18L66 18L66 20L70 20L70 18L68 18L68 16L62 16L62 18L60 18L60 20L54 20L54 18L60 18L60 16L58 16L58 14L56 14L56 16L52 16L52 14L50 14L50 16L48 16L48 14L50 14L50 12L48 12L48 6L42 6L42 8L40 8L40 12L42 12L42 14L44 14L44 12L46 12L46 14L44 14L44 16L46 16L46 18L48 18L48 22L40 22L40 24L46 24L46 26L52 26ZM58 28L60 28L60 26L58 26ZM74 28L80 28L80 24L78 24L78 26L74 26ZM98 28L102 28L102 26L98 26ZM104 28L106 28L106 22L104 22ZM68 26L72 26L72 22L66 22L66 24L68 24ZM94 26L96 26L96 24L94 24ZM62 24L64 24L64 22L62 22ZM76 24L78 24L78 20L76 20ZM80 24L82 24L82 22L80 22ZM84 24L88 24L88 22L84 22ZM92 24L94 24L94 22L92 22ZM96 24L98 24L98 20L94 20L94 22L96 22ZM100 24L102 24L102 22L100 22ZM120 24L124 24L124 22L120 22ZM26 22L28 22L28 20L26 20ZM38 22L40 22L40 20L38 20ZM72 22L74 22L74 20L76 20L76 18L74 18L74 14L72 14L72 12L70 12L70 16L72 16ZM82 22L84 22L84 20L82 20ZM88 22L92 22L92 18L90 18L90 16L88 16ZM108 22L110 22L110 20L108 20ZM6 20L20 20L20 6L6 6ZM28 20L30 20L30 16L28 16ZM40 20L46 20L46 18L44 18L44 16L42 16L42 14L40 14ZM50 20L50 18L52 18L52 20ZM78 20L80 20L80 16L82 16L82 18L84 18L84 16L86 16L86 14L84 14L84 12L90 12L90 8L88 8L88 6L82 6L82 8L80 8L80 6L78 6L78 8L76 8L76 10L72 10L72 12L76 12L76 18L78 18ZM84 20L86 20L86 18L84 18ZM98 20L108 20L108 16L106 16L106 14L102 14L102 16L100 16L100 18L98 18ZM110 20L112 20L112 16L110 16ZM114 20L118 20L118 18L120 18L120 12L118 12L118 16L114 16ZM120 20L124 20L124 18L120 18ZM8 18L8 8L18 8L18 18ZM32 18L36 18L36 16L34 16L34 14L32 14ZM10 16L16 16L16 10L10 10ZM60 16L62 16L62 14L60 14ZM90 16L100 16L100 12L96 12L96 14L90 14ZM108 16L110 16L110 12L108 12ZM112 16L114 16L114 12L112 12ZM122 16L124 16L124 14L122 14ZM34 14L36 14L36 12L38 12L38 8L36 8L36 6L34 6L34 8L32 8L32 12L34 12ZM62 14L68 14L68 12L66 12L66 10L64 10L64 12L62 12ZM78 14L78 12L80 12L80 14ZM54 12L56 12L56 10L54 10ZM58 12L60 12L60 10L58 10ZM92 12L94 12L94 10L92 10ZM100 12L108 12L108 6L106 6L106 8L104 8L104 10L100 10ZM114 12L118 12L118 10L116 10L116 6L114 6ZM120 12L124 12L124 6L118 6L118 8L122 8L122 10L120 10ZM44 10L44 8L46 8L46 10ZM52 10L54 10L54 8L52 8ZM56 10L58 10L58 8L56 8ZM68 10L72 10L72 6L70 6L70 8L68 8ZM84 10L84 8L86 8L86 10ZM94 10L96 10L96 6L94 6ZM22 8L24 8L24 6L22 6ZM30 8L32 8L32 6L30 6ZM38 8L40 8L40 6L38 6ZM50 8L52 8L52 6L50 6ZM54 8L56 8L56 6L54 6ZM58 8L60 8L60 6L58 6ZM62 8L64 8L64 6L62 6ZM66 8L68 8L68 6L66 6ZM74 8L76 8L76 6L74 6ZM90 8L92 8L92 6L90 6ZM98 8L100 8L100 6L98 6ZM102 8L104 8L104 6L102 6ZM110 8L112 8L112 6L110 6Z" fill="#000000" fill-rule="evenodd" />
</svg>
