<svg viewBox="0 0 87 87" xmlns="http://www.w3.org/2000/svg">
<rect width="100%" height="100%" fill="#FFFFFF" />
<path d="M0 0L0 87L87 87L87 0ZM2 2L85 2L85 85L2 85Z" fill="#ffffff" fill-rule="evenodd" />
<path d="M10 76L24 76L24 62L10 62ZM26 76L30 76L30 72L28 72L28 74L26 74ZM32 76L36 76L36 74L32 74ZM40 76L42 76L42 74L40 74ZM48 76L50 76L50 74L54 74L54 76L56 76L56 72L54 72L54 70L50 70L50 72L48 72L48 68L46 68L46 66L48 66L48 64L44 64L44 66L42 66L42 68L44 68L44 74L48 74ZM62 76L64 76L64 74L62 74ZM66 76L68 76L68 74L66 74ZM70 76L72 76L72 74L70 74ZM12 74L12 64L22 64L22 74ZM68 74L70 74L70 70L68 70ZM74 74L76 74L76 72L74 72ZM14 72L20 72L20 66L14 66ZM26 72L28 72L28 70L32 70L32 68L34 68L34 66L30 66L30 68L26 68ZM32 72L38 72L38 70L32 70ZM58 72L66 72L66 68L68 68L68 64L70 64L70 62L72 62L72 64L70 64L70 68L72 68L72 66L76 66L76 64L74 64L74 62L76 62L76 52L74 52L74 48L72 48L72 50L70 50L70 48L68 48L68 50L66 50L66 52L70 52L70 54L74 54L74 58L72 58L72 60L68 60L68 54L66 54L66 52L64 52L64 54L62 54L62 56L60 56L60 58L58 58L58 56L60 56L60 54L62 54L62 52L64 52L64 50L66 50L66 48L54 48L54 46L52 46L52 48L50 48L50 46L52 46L52 42L50 42L50 44L48 44L48 48L44 48L44 50L48 50L48 52L50 52L50 50L52 50L52 54L54 54L54 52L56 52L56 50L58 50L58 54L56 54L56 56L54 56L54 58L56 58L56 60L58 60L58 62L54 62L54 66L56 66L56 64L58 64L58 66L56 66L56 68L60 68L60 70L58 70ZM54 70L56 70L56 68L54 68ZM62 70L62 68L64 68L64 70ZM72 70L74 70L74 68L72 68ZM36 68L40 68L40 66L42 66L42 62L40 62L40 64L38 64L38 66L36 66ZM48 68L50 68L50 66L48 66ZM52 68L54 68L54 66L52 66ZM26 66L30 66L30 64L28 64L28 58L30 58L30 56L26 56L26 58L22 58L22 60L26 60ZM50 66L52 66L52 62L54 62L54 60L48 60L48 62L50 62ZM60 66L60 60L66 60L66 66ZM30 64L38 64L38 62L34 62L34 60L32 60L32 62L30 62ZM62 64L64 64L64 62L62 62ZM42 62L46 62L46 60L42 60ZM10 60L12 60L12 58L10 58ZM18 60L20 60L20 58L18 58ZM34 60L40 60L40 58L36 58L36 56L32 56L32 58L34 58ZM46 60L48 60L48 58L50 58L50 56L52 56L52 54L48 54L48 56L46 56ZM12 58L16 58L16 54L14 54L14 56L12 56ZM42 58L44 58L44 56L42 56ZM64 58L64 56L66 56L66 58ZM70 58L72 58L72 56L70 56ZM18 56L20 56L20 54L18 54ZM22 56L24 56L24 54L22 54ZM30 56L32 56L32 54L30 54ZM40 56L42 56L42 52L44 52L44 50L42 50L42 48L44 48L44 46L46 46L46 44L44 44L44 40L46 40L46 38L42 38L42 40L40 40L40 42L42 42L42 46L38 46L38 44L36 44L36 48L40 48L40 52L36 52L36 54L40 54ZM10 54L14 54L14 52L16 52L16 50L14 50L14 48L12 48L12 50L10 50ZM20 54L22 54L22 52L20 52ZM24 54L30 54L30 52L24 52ZM32 54L34 54L34 50L32 50ZM44 54L48 54L48 52L44 52ZM22 52L24 52L24 50L22 50ZM16 50L22 50L22 48L26 48L26 46L28 46L28 44L34 44L34 42L36 42L36 40L32 40L32 42L26 42L26 40L24 40L24 42L22 42L22 44L24 44L24 46L22 46L22 44L20 44L20 48L18 48L18 44L16 44L16 46L14 46L14 48L16 48ZM26 50L32 50L32 48L26 48ZM10 48L12 48L12 46L10 46ZM66 48L68 48L68 46L70 46L70 44L68 44L68 40L70 40L70 36L66 36L66 38L64 38L64 40L62 40L62 42L60 42L60 38L58 38L58 36L54 36L54 40L52 40L52 42L56 42L56 40L58 40L58 44L60 44L60 46L66 46ZM70 48L72 48L72 46L70 46ZM56 46L58 46L58 44L56 44ZM72 46L76 46L76 40L74 40L74 42L72 42ZM10 44L16 44L16 42L18 42L18 44L20 44L20 42L22 42L22 40L20 40L20 38L22 38L22 36L20 36L20 34L22 34L22 32L24 32L24 30L22 30L22 28L24 28L24 30L26 30L26 26L20 26L20 28L18 28L18 26L14 26L14 28L16 28L16 30L14 30L14 32L16 32L16 36L18 36L18 38L16 38L16 40L12 40L12 42L10 42ZM38 44L40 44L40 42L38 42ZM64 44L64 42L66 42L66 44ZM10 40L12 40L12 38L10 38ZM22 40L24 40L24 38L22 38ZM26 40L32 40L32 38L38 38L38 40L40 40L40 36L36 36L36 34L34 34L34 36L30 36L30 38L28 38L28 32L30 32L30 34L32 34L32 30L26 30L26 32L24 32L24 34L22 34L22 36L24 36L24 38L26 38ZM48 40L52 40L52 36L50 36L50 38L48 38ZM72 40L74 40L74 36L72 36ZM60 38L64 38L64 36L66 36L66 34L70 34L70 32L72 32L72 30L76 30L76 26L72 26L72 28L70 28L70 26L68 26L68 32L64 32L64 34L62 34L62 36L60 36ZM40 36L42 36L42 34L44 34L44 30L42 30L42 32L40 32ZM44 36L46 36L46 34L44 34ZM48 36L50 36L50 28L46 28L46 30L48 30ZM12 34L14 34L14 32L12 32ZM36 34L38 34L38 32L36 32ZM52 34L54 34L54 32L52 32ZM58 34L60 34L60 26L56 26L56 32L58 32ZM10 32L12 32L12 30L10 30ZM18 32L18 30L20 30L20 32ZM34 32L36 32L36 30L34 30ZM38 32L40 32L40 30L42 30L42 28L38 28ZM62 32L64 32L64 26L62 26ZM52 30L54 30L54 26L52 26ZM10 28L12 28L12 26L10 26ZM30 28L38 28L38 26L30 26ZM26 26L28 26L28 22L26 22ZM40 26L42 26L42 24L40 24ZM44 26L48 26L48 22L46 22L46 24L44 24ZM10 24L24 24L24 10L10 10ZM30 24L32 24L32 22L30 22ZM34 24L36 24L36 20L44 20L44 22L46 22L46 18L44 18L44 16L46 16L46 12L48 12L48 16L50 16L50 14L54 14L54 12L52 12L52 10L44 10L44 12L42 12L42 10L40 10L40 14L42 14L42 16L40 16L40 18L36 18L36 16L34 16ZM38 24L40 24L40 22L38 22ZM42 24L44 24L44 22L42 22ZM50 24L52 24L52 20L48 20L48 22L50 22ZM54 24L56 24L56 20L58 20L58 18L54 18L54 16L50 16L50 18L52 18L52 20L54 20ZM58 24L60 24L60 20L58 20ZM62 24L76 24L76 10L62 10ZM12 22L12 12L22 12L22 22ZM64 22L64 12L74 12L74 22ZM14 20L20 20L20 14L14 14ZM28 20L30 20L30 18L32 18L32 16L26 16L26 18L28 18ZM66 20L72 20L72 14L66 14ZM46 18L48 18L48 16L46 16ZM58 18L60 18L60 10L54 10L54 12L56 12L56 16L58 16ZM32 16L34 16L34 14L36 14L36 12L38 12L38 10L32 10L32 12L30 12L30 10L26 10L26 14L32 14ZM36 16L40 16L40 14L36 14Z" fill="#000000" fill-rule="evenodd" />
</svg>
