<svg viewBox="0 0 95 95" xmlns="http://www.w3.org/2000/svg">
<rect width="100%" height="100%" fill="#FFFFFF" />
<path d="M0 0L0 95L95 95L95 0ZM2 2L93 2L93 93L2 93Z" fill="#ffffff" fill-rule="evenodd" />
<path d="M10 84L24 84L24 70L10 70ZM26 84L30 84L30 82L26 82ZM32 84L36 84L36 80L34 80L34 82L32 82ZM38 84L40 84L40 82L38 82ZM42 84L44 84L44 80L40 80L40 82L42 82ZM48 84L52 84L52 76L48 76L48 78L50 78L50 82L48 82ZM58 84L60 84L60 80L58 80ZM66 84L72 84L72 80L70 80L70 82L68 82L68 80L66 80L66 76L68 76L68 78L72 78L72 76L76 76L76 74L78 74L78 70L76 70L76 68L80 68L80 70L82 70L82 66L80 66L80 64L84 64L84 62L78 62L78 60L76 60L76 62L74 62L74 60L72 60L72 62L70 62L70 64L74 64L74 66L70 66L70 64L68 64L68 60L72 60L72 58L68 58L68 56L70 56L70 54L66 54L66 52L64 52L64 56L62 56L62 58L66 58L66 60L62 60L62 64L64 64L64 66L60 66L60 64L54 64L54 72L64 72L64 70L62 70L62 68L66 68L66 72L64 72L64 74L60 74L60 76L62 76L62 78L64 78L64 80L62 80L62 82L66 82ZM74 84L78 84L78 80L76 80L76 82L74 82ZM82 84L84 84L84 76L82 76L82 78L80 78L80 80L82 80ZM12 82L12 72L22 72L22 82ZM30 82L32 82L32 80L34 80L34 76L32 76L32 74L28 74L28 80L30 80ZM46 82L48 82L48 80L46 80ZM54 82L56 82L56 78L58 78L58 74L54 74ZM14 80L20 80L20 74L14 74ZM36 80L40 80L40 76L42 76L42 74L40 74L40 72L38 72L38 74L36 74ZM44 78L46 78L46 76L44 76ZM46 76L48 76L48 74L46 74ZM78 76L80 76L80 74L78 74ZM42 74L44 74L44 72L50 72L50 70L52 70L52 64L50 64L50 68L46 68L46 70L42 70L42 66L40 66L40 68L38 68L38 62L34 62L34 64L36 64L36 68L32 68L32 70L36 70L36 72L38 72L38 70L40 70L40 72L42 72ZM68 74L68 68L74 68L74 74ZM82 74L84 74L84 70L82 70ZM28 72L30 72L30 68L28 68L28 66L32 66L32 64L28 64L28 62L20 62L20 64L24 64L24 66L22 66L22 68L26 68L26 70L28 70ZM70 72L72 72L72 70L70 70ZM10 68L12 68L12 60L16 60L16 58L14 58L14 56L12 56L12 52L10 52ZM16 68L18 68L18 66L20 66L20 64L18 64L18 60L16 60L16 62L14 62L14 64L16 64ZM44 68L46 68L46 66L44 66ZM56 68L56 66L58 66L58 68ZM42 66L44 66L44 62L40 62L40 64L42 64ZM46 64L48 64L48 62L52 62L52 60L46 60L46 58L48 58L48 56L46 56L46 54L50 54L50 56L54 56L54 58L56 58L56 54L58 54L58 52L54 52L54 54L52 54L52 52L46 52L46 50L44 50L44 48L46 48L46 46L44 46L44 44L42 44L42 48L40 48L40 44L42 44L42 42L40 42L40 40L42 40L42 38L46 38L46 36L44 36L44 34L40 34L40 38L38 38L38 40L36 40L36 38L38 38L38 36L36 36L36 30L34 30L34 28L32 28L32 30L28 30L28 26L34 26L34 24L32 24L32 20L30 20L30 24L28 24L28 22L26 22L26 28L24 28L24 30L22 30L22 32L26 32L26 34L28 34L28 32L32 32L32 34L34 34L34 36L32 36L32 34L30 34L30 36L26 36L26 38L32 38L32 40L24 40L24 42L20 42L20 44L26 44L26 42L30 42L30 46L32 46L32 48L38 48L38 54L40 54L40 56L42 56L42 52L40 52L40 50L42 50L42 52L44 52L44 62L46 62ZM52 64L54 64L54 62L52 62ZM28 62L32 62L32 60L34 60L34 58L36 58L36 60L38 60L38 62L40 62L40 60L42 60L42 58L40 58L40 56L38 56L38 54L36 54L36 52L34 52L34 56L32 56L32 52L34 52L34 50L32 50L32 48L30 48L30 50L26 50L26 52L28 52L28 54L30 54L30 60L28 60ZM54 62L60 62L60 54L58 54L58 58L56 58L56 60L54 60ZM22 60L24 60L24 58L22 58ZM82 60L84 60L84 54L80 54L80 58L82 58ZM16 58L18 58L18 54L16 54ZM24 58L28 58L28 56L24 56ZM76 58L78 58L78 56L76 56ZM20 56L24 56L24 54L20 54ZM14 54L16 54L16 52L18 52L18 54L20 54L20 52L24 52L24 50L20 50L20 48L28 48L28 46L18 46L18 50L14 50ZM72 54L80 54L80 52L84 52L84 46L82 46L82 50L78 50L78 48L80 48L80 46L74 46L74 44L72 44L72 50L74 50L74 48L76 48L76 50L74 50L74 52L72 52ZM60 52L64 52L64 48L66 48L66 46L68 46L68 44L64 44L64 46L62 46L62 50L60 50ZM68 52L72 52L72 50L70 50L70 48L66 48L66 50L68 50ZM10 50L12 50L12 48L10 48ZM48 50L50 50L50 46L52 46L52 44L48 44L48 42L46 42L46 46L48 46ZM54 50L56 50L56 48L54 48ZM58 50L60 50L60 46L58 46L58 44L56 44L56 42L58 42L58 44L64 44L64 40L62 40L62 42L60 42L60 40L56 40L56 38L52 38L52 40L54 40L54 46L56 46L56 48L58 48ZM12 48L16 48L16 46L14 46L14 44L12 44ZM52 48L54 48L54 46L52 46ZM16 46L18 46L18 44L16 44ZM34 46L34 44L36 44L36 42L38 42L38 46ZM68 44L72 44L72 42L70 42L70 38L68 38ZM74 44L82 44L82 42L84 42L84 38L78 38L78 34L76 34L76 38L74 38ZM12 42L20 42L20 40L24 40L24 38L20 38L20 34L16 34L16 36L18 36L18 38L16 38L16 36L14 36L14 38L12 38L12 34L10 34L10 40L12 40ZM50 42L52 42L52 40L50 40ZM46 40L48 40L48 38L46 38ZM64 40L66 40L66 38L68 38L68 30L66 30L66 28L62 28L62 34L66 34L66 36L62 36L62 38L64 38ZM48 38L52 38L52 36L48 36ZM56 38L58 38L58 36L60 36L60 34L58 34L58 32L56 32ZM72 38L74 38L74 36L72 36ZM22 36L24 36L24 34L22 34ZM70 36L72 36L72 34L70 34ZM80 36L82 36L82 34L84 34L84 30L82 30L82 26L76 26L76 28L78 28L78 30L76 30L76 32L80 32ZM12 34L16 34L16 30L18 30L18 28L12 28L12 26L10 26L10 32L12 32ZM20 34L22 34L22 32L20 32ZM46 34L48 34L48 30L44 30L44 28L46 28L46 26L42 26L42 30L40 30L40 32L46 32ZM74 34L76 34L76 32L74 32ZM18 32L20 32L20 30L18 30ZM50 32L52 32L52 30L50 30ZM54 32L56 32L56 30L54 30ZM58 32L60 32L60 30L58 30ZM70 32L74 32L74 30L76 30L76 28L72 28L72 30L70 30ZM20 30L22 30L22 28L20 28ZM38 30L40 30L40 28L38 28ZM48 30L50 30L50 28L48 28ZM52 30L54 30L54 28L52 28ZM56 30L58 30L58 28L56 28ZM22 28L24 28L24 26L22 26ZM34 28L38 28L38 26L34 26ZM54 28L56 28L56 26L58 26L58 28L62 28L62 26L60 26L60 22L58 22L58 24L56 24L56 22L54 22ZM68 28L72 28L72 26L68 26ZM40 26L42 26L42 24L40 24ZM46 26L50 26L50 24L48 24L48 22L46 22ZM62 26L64 26L64 18L62 18ZM10 24L24 24L24 10L10 10ZM34 24L36 24L36 22L34 22ZM38 24L40 24L40 20L38 20L38 14L40 14L40 18L42 18L42 16L44 16L44 14L42 14L42 10L40 10L40 12L38 12L38 10L34 10L34 12L36 12L36 18L32 18L32 20L36 20L36 22L38 22ZM42 24L44 24L44 20L54 20L54 16L56 16L56 10L52 10L52 12L54 12L54 14L50 14L50 16L48 16L48 18L46 18L46 16L44 16L44 18L42 18ZM50 24L52 24L52 22L50 22ZM66 24L68 24L68 20L66 20ZM70 24L84 24L84 10L70 10ZM12 22L12 12L22 12L22 22ZM72 22L72 12L82 12L82 22ZM14 20L20 20L20 14L14 14ZM28 20L30 20L30 18L32 18L32 16L30 16L30 14L34 14L34 12L30 12L30 10L28 10L28 12L26 12L26 18L28 18ZM56 20L58 20L58 18L56 18ZM74 20L80 20L80 14L74 14ZM58 18L62 18L62 16L58 16ZM64 18L68 18L68 16L64 16ZM66 14L68 14L68 12L66 12ZM44 12L48 12L48 10L44 10ZM60 12L64 12L64 10L60 10Z" fill="#000000" fill-rule="evenodd" />
</svg>
