<svg viewBox="0 0 87 87" xmlns="http://www.w3.org/2000/svg">
<rect width="100%" height="100%" fill="#FFFFFF" />
<path d="M0 0L0 87L87 87L87 0ZM2 2L85 2L85 85L2 85Z" fill="#ffffff" fill-rule="evenodd" />
<path d="M10 76L24 76L24 62L10 62ZM26 76L30 76L30 72L28 72L28 74L26 74ZM32 76L34 76L34 74L32 74ZM36 76L38 76L38 74L36 74ZM42 76L44 76L44 72L42 72ZM50 76L62 76L62 68L64 68L64 70L66 70L66 68L70 68L70 66L72 66L72 62L68 62L68 60L70 60L70 58L66 58L66 56L62 56L62 50L64 50L64 48L58 48L58 50L60 50L60 56L56 56L56 58L58 58L58 60L56 60L56 58L54 58L54 62L56 62L56 64L52 64L52 66L54 66L54 68L56 68L56 66L58 66L58 68L60 68L60 70L58 70L58 74L54 74L54 72L52 72L52 74L50 74ZM64 76L66 76L66 74L68 74L68 76L74 76L74 74L72 74L72 70L70 70L70 72L64 72ZM12 74L12 64L22 64L22 74ZM34 74L36 74L36 66L34 66L34 68L28 68L28 66L32 66L32 58L30 58L30 62L28 62L28 64L26 64L26 72L28 72L28 70L34 70ZM38 74L40 74L40 70L38 70ZM14 72L20 72L20 66L14 66ZM46 72L48 72L48 70L46 70ZM50 72L52 72L52 70L54 70L54 68L50 68ZM54 72L56 72L56 70L54 70ZM40 70L46 70L46 68L42 68L42 66L40 66ZM56 70L58 70L58 68L56 68ZM72 70L76 70L76 66L74 66L74 68L72 68ZM46 68L50 68L50 66L46 66ZM36 66L38 66L38 64L36 64ZM60 66L60 60L66 60L66 66ZM34 64L36 64L36 62L34 62ZM38 64L44 64L44 58L42 58L42 56L44 56L44 54L42 54L42 52L44 52L44 50L42 50L42 46L44 46L44 50L48 50L48 48L46 48L46 42L44 42L44 44L40 44L40 40L38 40L38 38L36 38L36 34L34 34L34 36L32 36L32 34L28 34L28 36L30 36L30 38L28 38L28 42L30 42L30 40L32 40L32 38L34 38L34 42L38 42L38 44L36 44L36 46L38 46L38 48L40 48L40 50L38 50L38 52L40 52L40 54L38 54ZM46 64L48 64L48 62L46 62ZM62 64L64 64L64 62L62 62ZM26 62L28 62L28 58L26 58ZM50 62L52 62L52 60L50 60ZM72 62L76 62L76 60L74 60L74 58L72 58ZM10 60L12 60L12 52L10 52ZM18 60L24 60L24 58L18 58ZM16 58L18 58L18 56L16 56ZM24 58L26 58L26 56L30 56L30 54L28 54L28 52L24 52L24 54L22 54L22 56L24 56ZM46 58L48 58L48 52L44 52L44 54L46 54ZM50 58L54 58L54 54L52 54L52 56L50 56ZM70 58L72 58L72 56L70 56ZM14 56L16 56L16 54L22 54L22 52L24 52L24 50L20 50L20 48L24 48L24 50L32 50L32 48L26 48L26 46L22 46L22 44L20 44L20 46L18 46L18 42L16 42L16 44L10 44L10 48L12 48L12 50L16 50L16 48L14 48L14 46L16 46L16 48L18 48L18 50L16 50L16 52L14 52ZM34 56L36 56L36 52L34 52L34 50L32 50L32 52L30 52L30 54L34 54ZM68 56L70 56L70 54L72 54L72 56L74 56L74 52L72 52L72 50L74 50L74 46L72 46L72 44L68 44L68 46L70 46L70 48L68 48L68 50L66 50L66 52L68 52ZM50 54L52 54L52 52L56 52L56 48L54 48L54 44L48 44L48 46L50 46L50 50L48 50L48 52L50 52ZM56 54L58 54L58 52L56 52ZM74 52L76 52L76 50L74 50ZM34 50L38 50L38 48L36 48L36 46L34 46L34 42L32 42L32 44L26 44L26 46L32 46L32 48L34 48ZM64 48L68 48L68 46L64 46ZM56 46L58 46L58 44L56 44ZM60 46L64 46L64 44L60 44ZM22 44L26 44L26 42L22 42ZM54 44L56 44L56 42L54 42ZM58 44L60 44L60 42L62 42L62 40L60 40L60 38L58 38L58 40L56 40L56 42L58 42ZM64 44L68 44L68 42L64 42ZM10 42L12 42L12 40L14 40L14 38L16 38L16 36L18 36L18 38L16 38L16 40L18 40L18 42L20 42L20 40L24 40L24 38L22 38L22 36L24 36L24 34L22 34L22 32L18 32L18 34L16 34L16 32L18 32L18 30L16 30L16 28L18 28L18 30L20 30L20 28L24 28L24 26L14 26L14 30L10 30L10 34L12 34L12 32L14 32L14 36L10 36ZM42 42L44 42L44 40L42 40ZM46 42L54 42L54 40L52 40L52 38L54 38L54 36L52 36L52 34L50 34L50 32L48 32L48 34L46 34L46 36L50 36L50 40L48 40L48 38L46 38ZM68 42L74 42L74 36L76 36L76 34L72 34L72 36L70 36L70 34L66 34L66 36L68 36L68 38L72 38L72 40L68 40ZM62 40L68 40L68 38L62 38ZM26 38L28 38L28 36L26 36ZM38 38L46 38L46 36L38 36ZM56 38L58 38L58 32L56 32L56 34L54 34L54 36L56 36ZM60 38L62 38L62 34L64 34L64 32L60 32ZM26 34L28 34L28 32L30 32L30 30L28 30L28 28L24 28L24 30L26 30ZM32 34L34 34L34 32L32 32ZM38 34L40 34L40 32L38 32ZM52 34L54 34L54 32L52 32ZM70 34L72 34L72 32L70 32ZM22 32L24 32L24 30L22 30ZM34 32L36 32L36 30L34 30ZM40 32L42 32L42 30L40 30ZM46 32L48 32L48 30L46 30ZM64 32L66 32L66 30L64 30ZM68 32L70 32L70 30L68 30ZM72 32L74 32L74 30L72 30ZM30 30L32 30L32 28L30 28ZM42 30L44 30L44 26L42 26L42 24L40 24L40 22L38 22L38 28L42 28ZM50 30L52 30L52 26L54 26L54 28L56 28L56 22L54 22L54 24L52 24L52 22L54 22L54 18L52 18L52 20L50 20L50 24L48 24L48 22L46 22L46 26L50 26ZM60 30L62 30L62 28L60 28ZM70 30L72 30L72 26L62 26L62 28L70 28ZM10 28L12 28L12 26L10 26ZM28 28L30 28L30 26L28 26ZM26 26L28 26L28 22L30 22L30 24L32 24L32 22L34 22L34 20L32 20L32 16L34 16L34 20L36 20L36 16L38 16L38 14L42 14L42 12L38 12L38 10L32 10L32 12L30 12L30 14L26 14ZM32 26L36 26L36 22L34 22L34 24L32 24ZM58 26L60 26L60 20L58 20ZM10 24L24 24L24 10L10 10ZM42 24L44 24L44 22L46 22L46 20L48 20L48 18L44 18L44 20L42 20L42 18L44 18L44 16L38 16L38 18L40 18L40 22L42 22ZM62 24L76 24L76 10L62 10ZM12 22L12 12L22 12L22 22ZM64 22L64 12L74 12L74 22ZM14 20L20 20L20 14L14 14ZM66 20L72 20L72 14L66 14ZM48 18L50 18L50 16L48 16ZM54 18L60 18L60 10L54 10L54 12L58 12L58 14L52 14L52 16L54 16ZM44 16L48 16L48 14L46 14L46 12L50 12L50 14L52 14L52 10L42 10L42 12L44 12ZM28 12L30 12L30 10L28 10Z" fill="#000000" fill-rule="evenodd" />
</svg>
