<svg viewBox="0 0 79 79" xmlns="http://www.w3.org/2000/svg">
<rect width="100%" height="100%" fill="#FFFFFF" />
<path d="M0 0L0 79L79 79L79 0ZM2 2L77 2L77 77L2 77Z" fill="#ffffff" fill-rule="evenodd" />
<path d="M10 68L24 68L24 54L10 54ZM26 68L30 68L30 66L32 66L32 68L36 68L36 66L34 66L34 64L28 64L28 66L26 66ZM40 68L46 68L46 64L52 64L52 60L56 60L56 62L54 62L54 64L58 64L58 66L56 66L56 68L62 68L62 66L60 66L60 64L64 64L64 62L58 62L58 60L62 60L62 58L60 58L60 54L62 54L62 52L64 52L64 54L62 54L62 56L64 56L64 58L66 58L66 60L64 60L64 62L66 62L66 64L68 64L68 54L66 54L66 52L68 52L68 50L66 50L66 48L68 48L68 46L66 46L66 44L68 44L68 36L66 36L66 38L64 38L64 46L62 46L62 48L64 48L64 50L60 50L60 48L58 48L58 46L56 46L56 38L54 38L54 46L52 46L52 48L48 48L48 44L46 44L46 42L48 42L48 44L50 44L50 46L52 46L52 40L46 40L46 38L44 38L44 36L42 36L42 32L40 32L40 38L42 38L42 40L40 40L40 38L38 38L38 40L36 40L36 42L38 42L38 46L42 46L42 52L40 52L40 54L50 54L50 62L44 62L44 64L40 64L40 60L42 60L42 56L40 56L40 54L38 54L38 56L36 56L36 58L38 58L38 62L36 62L36 66L40 66ZM48 68L52 68L52 66L48 66ZM64 68L68 68L68 66L66 66L66 64L64 64ZM12 66L12 56L22 56L22 66ZM14 64L20 64L20 58L14 58ZM26 64L28 64L28 62L26 62ZM32 62L36 62L36 58L32 58ZM26 60L28 60L28 58L26 58ZM28 58L32 58L32 56L30 56L30 54L28 54ZM44 58L46 58L46 56L44 56ZM52 58L52 52L58 52L58 58ZM32 56L36 56L36 54L32 54ZM54 56L56 56L56 54L54 54ZM26 54L28 54L28 52L26 52ZM30 54L32 54L32 50L28 50L28 52L30 52ZM36 54L38 54L38 52L36 52ZM10 52L12 52L12 50L10 50ZM18 52L20 52L20 50L18 50ZM22 52L26 52L26 50L22 50ZM34 52L36 52L36 48L34 48ZM46 52L46 50L50 50L50 52ZM12 50L14 50L14 48L12 48ZM20 50L22 50L22 48L24 48L24 46L22 46L22 44L24 44L24 46L26 46L26 44L28 44L28 42L26 42L26 40L24 40L24 42L20 42L20 36L16 36L16 38L18 38L18 44L20 44L20 46L18 46L18 44L16 44L16 46L14 46L14 48L20 48ZM26 50L28 50L28 48L30 48L30 46L26 46ZM10 48L12 48L12 46L10 46ZM36 48L38 48L38 46L36 46ZM44 48L44 46L46 46L46 48ZM30 46L34 46L34 44L36 44L36 42L32 42L32 40L30 40ZM12 44L16 44L16 42L12 42ZM40 44L40 42L42 42L42 44ZM58 44L62 44L62 42L60 42L60 40L62 40L62 38L58 38ZM10 42L12 42L12 40L10 40ZM14 40L16 40L16 38L14 38ZM22 40L24 40L24 38L22 38ZM26 40L28 40L28 38L26 38ZM34 40L36 40L36 38L34 38ZM12 38L14 38L14 36L12 36ZM28 38L32 38L32 34L34 34L34 36L36 36L36 32L38 32L38 30L34 30L34 26L32 26L32 28L30 28L30 26L28 26L28 28L24 28L24 30L28 30L28 32L24 32L24 34L30 34L30 36L28 36ZM36 38L38 38L38 36L36 36ZM48 38L54 38L54 36L56 36L56 34L58 34L58 36L64 36L64 34L60 34L60 32L50 32L50 34L52 34L52 36L48 36ZM20 36L24 36L24 34L22 34L22 32L20 32L20 26L18 26L18 28L16 28L16 26L14 26L14 30L18 30L18 32L14 32L14 34L20 34ZM44 36L46 36L46 34L48 34L48 28L46 28L46 32L44 32ZM10 34L12 34L12 32L14 32L14 30L12 30L12 26L10 26ZM22 32L24 32L24 30L22 30ZM30 32L30 30L32 30L32 32ZM42 32L44 32L44 30L42 30ZM64 32L68 32L68 30L64 30ZM38 30L42 30L42 28L46 28L46 26L48 26L48 28L50 28L50 30L56 30L56 28L52 28L52 26L50 26L50 24L48 24L48 22L46 22L46 24L44 24L44 22L42 22L42 26L40 26L40 22L38 22L38 24L36 24L36 22L34 22L34 26L38 26ZM22 28L24 28L24 26L22 26ZM58 28L60 28L60 26L58 26ZM64 28L66 28L66 26L64 26ZM30 26L32 26L32 12L34 12L34 10L30 10L30 16L28 16L28 18L26 18L26 20L30 20ZM10 24L24 24L24 10L10 10ZM26 24L28 24L28 22L26 22ZM50 24L52 24L52 20L48 20L48 22L50 22ZM54 24L68 24L68 10L54 10ZM12 22L12 12L22 12L22 22ZM36 22L38 22L38 20L36 20ZM56 22L56 12L66 12L66 22ZM14 20L20 20L20 14L14 14ZM38 20L40 20L40 18L42 18L42 16L40 16L40 14L42 14L42 16L44 16L44 12L48 12L48 10L42 10L42 12L38 12L38 14L34 14L34 16L36 16L36 18L38 18ZM58 20L64 20L64 14L58 14ZM44 18L48 18L48 16L50 16L50 18L52 18L52 14L50 14L50 12L48 12L48 14L46 14L46 16L44 16ZM26 14L28 14L28 12L26 12ZM36 12L38 12L38 10L36 10Z" fill="#000000" fill-rule="evenodd" />
</svg>
