<svg viewBox="0 0 87 87" xmlns="http://www.w3.org/2000/svg">
<rect width="100%" height="100%" fill="#FFFFFF" />
<path d="M0 0L0 87L87 87L87 0ZM2 2L85 2L85 85L2 85Z" fill="#ffffff" fill-rule="evenodd" />
<path d="M10 76L24 76L24 62L10 62ZM26 76L28 76L28 74L26 74ZM30 76L32 76L32 72L30 72ZM34 76L38 76L38 72L36 72L36 70L32 70L32 72L34 72ZM42 76L44 76L44 74L46 74L46 70L48 70L48 66L46 66L46 64L44 64L44 66L42 66L42 70L44 70L44 72L42 72ZM46 76L50 76L50 74L52 74L52 70L50 70L50 72L48 72L48 74L46 74ZM56 76L58 76L58 74L60 74L60 68L64 68L64 72L62 72L62 74L66 74L66 72L68 72L68 70L66 70L66 68L68 68L68 70L70 70L70 66L74 66L74 68L76 68L76 54L70 54L70 56L74 56L74 58L70 58L70 56L68 56L68 58L66 58L66 52L64 52L64 54L60 54L60 56L54 56L54 62L56 62L56 64L58 64L58 66L56 66L56 64L54 64L54 66L52 66L52 68L54 68L54 70L56 70L56 68L58 68L58 72L56 72ZM60 76L62 76L62 74L60 74ZM66 76L68 76L68 74L66 74ZM70 76L72 76L72 74L70 74ZM12 74L12 64L22 64L22 74ZM72 74L76 74L76 70L74 70L74 68L72 68L72 70L70 70L70 72L72 72ZM14 72L20 72L20 66L14 66ZM38 72L40 72L40 70L38 70ZM26 70L30 70L30 68L34 68L34 66L36 66L36 60L38 60L38 58L36 58L36 54L34 54L34 58L32 58L32 60L28 60L28 58L22 58L22 60L26 60ZM36 70L38 70L38 68L36 68ZM48 66L52 66L52 64L54 64L54 62L52 62L52 60L50 60L50 56L52 56L52 54L50 54L50 52L58 52L58 50L56 50L56 48L54 48L54 46L48 46L48 50L46 50L46 54L44 54L44 52L42 52L42 56L48 56L48 58L40 58L40 60L42 60L42 64L44 64L44 60L48 60ZM60 66L60 60L66 60L66 66ZM28 64L28 62L30 62L30 64ZM62 64L64 64L64 62L62 62ZM68 64L68 62L70 62L70 64ZM72 62L72 60L74 60L74 62ZM10 60L16 60L16 58L12 58L12 54L16 54L16 52L14 52L14 50L12 50L12 52L10 52ZM56 60L56 58L58 58L58 60ZM18 58L22 58L22 56L24 56L24 54L22 54L22 52L24 52L24 50L20 50L20 48L18 48L18 42L16 42L16 40L14 40L14 42L12 42L12 38L10 38L10 44L12 44L12 46L10 46L10 50L12 50L12 48L14 48L14 44L16 44L16 50L18 50L18 52L20 52L20 56L18 56ZM30 58L32 58L32 56L30 56ZM38 58L40 58L40 56L38 56ZM62 58L62 56L64 56L64 58ZM16 56L18 56L18 54L16 54ZM28 56L30 56L30 54L28 54ZM26 54L28 54L28 52L30 52L30 54L34 54L34 52L32 52L32 50L34 50L34 48L36 48L36 44L34 44L34 46L32 46L32 44L30 44L30 46L28 46L28 48L30 48L30 50L28 50L28 48L24 48L24 50L26 50ZM58 54L60 54L60 52L58 52ZM38 52L40 52L40 48L36 48L36 50L38 50ZM62 52L64 52L64 48L66 48L66 52L70 52L70 50L68 50L68 48L70 48L70 46L68 46L68 42L64 42L64 40L62 40L62 44L60 44L60 46L62 46L62 48L60 48L60 46L56 46L56 48L58 48L58 50L62 50ZM42 50L46 50L46 46L42 46ZM70 50L72 50L72 48L70 48ZM74 50L76 50L76 48L74 48ZM20 48L24 48L24 46L22 46L22 44L26 44L26 46L28 46L28 44L30 44L30 42L26 42L26 40L24 40L24 42L20 42ZM72 48L74 48L74 46L72 46ZM38 46L40 46L40 44L38 44ZM46 46L48 46L48 44L46 44ZM54 46L56 46L56 44L60 44L60 42L56 42L56 40L54 40ZM70 46L72 46L72 42L70 42ZM32 44L34 44L34 42L36 42L36 44L38 44L38 38L34 38L34 40L32 40ZM40 44L44 44L44 40L42 40L42 42L40 42ZM48 44L50 44L50 42L48 42ZM74 44L76 44L76 42L74 42ZM46 42L48 42L48 40L50 40L50 42L52 42L52 38L46 38ZM68 42L70 42L70 40L68 40ZM22 40L24 40L24 38L22 38ZM28 40L32 40L32 36L30 36L30 34L28 34L28 36L24 36L24 38L28 38ZM56 40L58 40L58 38L56 38ZM66 40L68 40L68 36L70 36L70 34L68 34L68 30L70 30L70 34L74 34L74 32L72 32L72 30L76 30L76 26L70 26L70 28L68 28L68 26L66 26L66 30L64 30L64 32L66 32L66 34L64 34L64 36L66 36ZM70 40L72 40L72 38L70 38ZM12 38L14 38L14 36L12 36ZM20 38L22 38L22 36L20 36ZM38 38L40 38L40 36L48 36L48 34L50 34L50 32L48 32L48 30L44 30L44 26L46 26L46 24L44 24L44 22L46 22L46 20L44 20L44 16L42 16L42 10L40 10L40 12L34 12L34 14L38 14L38 18L40 18L40 20L38 20L38 26L36 26L36 28L32 28L32 30L38 30L38 28L42 28L42 34L34 34L34 36L38 36ZM58 38L64 38L64 36L58 36ZM72 38L74 38L74 36L72 36ZM14 36L16 36L16 32L14 32ZM18 36L20 36L20 32L18 32ZM22 36L24 36L24 34L22 34ZM52 36L58 36L58 34L54 34L54 32L58 32L58 30L60 30L60 32L62 32L62 26L60 26L60 28L58 28L58 26L54 26L54 28L56 28L56 30L50 30L50 32L52 32ZM74 36L76 36L76 34L74 34ZM10 34L12 34L12 32L10 32ZM26 34L28 34L28 32L26 32ZM30 34L34 34L34 32L30 32ZM58 34L60 34L60 32L58 32ZM12 32L14 32L14 30L20 30L20 28L24 28L24 30L22 30L22 32L26 32L26 28L28 28L28 26L16 26L16 28L12 28L12 26L10 26L10 30L12 30ZM38 32L40 32L40 30L38 30ZM48 30L50 30L50 28L52 28L52 26L50 26L50 24L48 24L48 26L46 26L46 28L48 28ZM30 28L32 28L32 26L30 26ZM32 26L34 26L34 24L32 24ZM40 26L40 22L42 22L42 26ZM58 26L60 26L60 20L58 20ZM10 24L24 24L24 10L10 10ZM26 24L28 24L28 22L26 22ZM30 24L32 24L32 18L30 18L30 16L28 16L28 18L26 18L26 20L28 20L28 22L30 22ZM34 24L36 24L36 22L34 22ZM46 24L48 24L48 22L46 22ZM50 24L52 24L52 22L54 22L54 18L52 18L52 20L50 20ZM54 24L56 24L56 22L54 22ZM62 24L76 24L76 10L62 10ZM12 22L12 12L22 12L22 22ZM64 22L64 12L74 12L74 22ZM14 20L20 20L20 14L14 14ZM34 20L36 20L36 18L34 18ZM48 20L50 20L50 16L52 16L52 14L50 14L50 12L54 12L54 10L48 10L48 12L44 12L44 16L46 16L46 14L48 14ZM56 20L58 20L58 18L56 18ZM66 20L72 20L72 14L66 14ZM32 18L34 18L34 16L32 16ZM26 16L28 16L28 10L26 10ZM30 16L32 16L32 14L30 14ZM54 16L60 16L60 10L58 10L58 14L56 14L56 12L54 12Z" fill="#000000" fill-rule="evenodd" />
</svg>
