<svg viewBox="0 0 95 95" xmlns="http://www.w3.org/2000/svg">
<rect width="100%" height="100%" fill="#FFFFFF" />
<path d="M0 0L0 95L95 95L95 0ZM2 2L93 2L93 93L2 93Z" fill="#ffffff" fill-rule="evenodd" />
<path d="M10 84L24 84L24 70L10 70ZM26 84L28 84L28 82L26 82ZM30 84L36 84L36 82L38 82L38 80L34 80L34 82L30 82ZM42 84L44 84L44 82L42 82ZM48 84L50 84L50 82L48 82ZM56 84L60 84L60 82L58 82L58 78L60 78L60 74L58 74L58 76L54 76L54 78L56 78ZM66 84L76 84L76 82L70 82L70 80L68 80L68 82L66 82ZM82 84L84 84L84 74L80 74L80 76L82 76L82 80L80 80L80 76L78 76L78 80L76 80L76 82L82 82ZM12 82L12 72L22 72L22 82ZM28 82L30 82L30 80L28 80ZM40 82L42 82L42 80L40 80ZM44 82L46 82L46 80L48 80L48 78L46 78L46 76L44 76ZM50 82L52 82L52 80L50 80ZM64 82L66 82L66 78L64 78L64 76L68 76L68 78L72 78L72 76L78 76L78 74L76 74L76 72L78 72L78 70L76 70L76 66L78 66L78 70L82 70L82 68L80 68L80 64L78 64L78 62L80 62L80 60L74 60L74 62L76 62L76 64L72 64L72 62L70 62L70 60L66 60L66 58L64 58L64 64L68 64L68 66L64 66L64 68L66 68L66 74L64 74L64 72L62 72L62 70L60 70L60 74L62 74L62 78L60 78L60 80L64 80ZM14 80L20 80L20 74L14 74ZM32 80L34 80L34 78L32 78ZM38 80L40 80L40 78L38 78ZM52 80L54 80L54 78L52 78ZM72 80L76 80L76 78L72 78ZM26 78L30 78L30 74L28 74L28 72L30 72L30 68L32 68L32 74L34 74L34 72L36 72L36 70L34 70L34 68L38 68L38 72L40 72L40 74L42 74L42 76L44 76L44 72L42 72L42 70L44 70L44 72L48 72L48 74L46 74L46 76L48 76L48 78L50 78L50 72L52 72L52 68L50 68L50 62L48 62L48 64L46 64L46 66L48 66L48 68L42 68L42 66L38 66L38 64L42 64L42 62L38 62L38 60L36 60L36 62L34 62L34 64L36 64L36 66L30 66L30 64L32 64L32 62L30 62L30 58L28 58L28 56L32 56L32 54L26 54L26 56L24 56L24 58L26 58L26 60L24 60L24 62L28 62L28 68L26 68ZM34 78L38 78L38 76L36 76L36 74L34 74ZM38 76L40 76L40 74L38 74ZM54 74L56 74L56 72L58 72L58 70L56 70L56 68L58 68L58 70L60 70L60 68L62 68L62 66L60 66L60 64L62 64L62 62L58 62L58 66L56 66L56 62L58 62L58 58L60 58L60 54L58 54L58 52L54 52L54 54L56 54L56 56L54 56L54 58L56 58L56 60L54 60ZM68 74L68 68L74 68L74 74ZM70 72L72 72L72 70L70 70ZM82 72L84 72L84 70L82 70ZM10 68L12 68L12 64L14 64L14 60L18 60L18 56L20 56L20 58L22 58L22 56L24 56L24 54L18 54L18 52L30 52L30 50L26 50L26 46L22 46L22 48L24 48L24 50L18 50L18 48L20 48L20 46L18 46L18 42L16 42L16 50L14 50L14 52L10 52L10 54L12 54L12 56L14 56L14 54L16 54L16 56L14 56L14 58L10 58ZM14 68L18 68L18 64L14 64ZM22 68L26 68L26 64L24 64L24 66L22 66ZM42 66L44 66L44 64L42 64ZM82 66L84 66L84 62L80 62L80 64L82 64ZM18 64L24 64L24 62L22 62L22 60L20 60L20 62L18 62ZM46 62L48 62L48 60L46 60ZM22 60L24 60L24 58L22 58ZM34 60L36 60L36 58L34 58ZM38 60L42 60L42 58L40 58L40 56L42 56L42 52L40 52L40 54L38 54ZM44 60L46 60L46 58L44 58ZM48 60L52 60L52 56L54 56L54 54L50 54L50 58L48 58ZM70 60L72 60L72 58L80 58L80 56L76 56L76 54L80 54L80 52L78 52L78 48L74 48L74 44L72 44L72 46L70 46L70 50L66 50L66 48L68 48L68 46L66 46L66 42L64 42L64 46L62 46L62 48L58 48L58 46L56 46L56 44L54 44L54 46L52 46L52 48L56 48L56 50L62 50L62 58L64 58L64 56L66 56L66 52L72 52L72 54L70 54ZM82 60L84 60L84 54L82 54ZM42 58L44 58L44 56L42 56ZM46 58L48 58L48 56L46 56ZM66 58L68 58L68 56L66 56ZM34 56L36 56L36 48L40 48L40 46L34 46L34 48L30 48L30 50L34 50ZM44 54L50 54L50 52L46 52L46 50L44 50L44 48L48 48L48 50L52 50L52 48L50 48L50 46L52 46L52 42L44 42L44 46L42 46L42 48L40 48L40 50L42 50L42 52L44 52ZM38 52L40 52L40 50L38 50ZM82 52L84 52L84 46L82 46L82 48L80 48L80 50L82 50ZM10 50L12 50L12 48L10 48ZM28 48L30 48L30 46L32 46L32 44L28 44ZM78 48L80 48L80 46L82 46L82 44L80 44L80 38L78 38L78 34L84 34L84 30L82 30L82 32L78 32L78 30L76 30L76 26L74 26L74 30L68 30L68 28L70 28L70 26L68 26L68 22L66 22L66 26L62 26L62 28L64 28L64 30L60 30L60 32L62 32L62 34L64 34L64 32L66 32L66 34L64 34L64 38L62 38L62 36L60 36L60 38L58 38L58 42L56 42L56 44L62 44L62 42L60 42L60 40L62 40L62 42L64 42L64 40L68 40L68 38L70 38L70 36L68 36L68 32L72 32L72 34L74 34L74 32L76 32L76 36L74 36L74 38L76 38L76 40L74 40L74 42L76 42L76 46L78 46ZM20 46L22 46L22 44L20 44ZM46 46L46 44L48 44L48 46ZM68 46L70 46L70 44L68 44ZM10 44L14 44L14 40L12 40L12 42L10 42ZM22 44L24 44L24 42L22 42ZM34 44L36 44L36 42L34 42ZM70 44L72 44L72 38L70 38ZM24 42L34 42L34 40L36 40L36 34L34 34L34 38L26 38L26 40L24 40ZM36 42L42 42L42 38L44 38L44 36L42 36L42 34L38 34L38 36L40 36L40 40L36 40ZM54 42L56 42L56 40L54 40ZM10 40L12 40L12 38L14 38L14 40L16 40L16 34L14 34L14 36L10 36ZM18 40L20 40L20 36L18 36ZM22 40L24 40L24 38L22 38ZM46 40L50 40L50 38L48 38L48 36L46 36ZM52 40L54 40L54 38L52 38ZM82 40L84 40L84 38L82 38ZM24 38L26 38L26 36L24 36ZM56 38L58 38L58 36L56 36ZM20 36L24 36L24 34L22 34L22 32L20 32ZM50 36L52 36L52 32L48 32L48 30L50 30L50 28L52 28L52 26L50 26L50 24L48 24L48 22L46 22L46 24L44 24L44 18L40 18L40 20L38 20L38 28L40 28L40 22L42 22L42 26L48 26L48 28L46 28L46 32L44 32L44 28L42 28L42 30L36 30L36 28L34 28L34 26L32 26L32 32L30 32L30 34L34 34L34 32L36 32L36 34L38 34L38 32L42 32L42 34L50 34ZM54 36L56 36L56 32L54 32ZM70 36L72 36L72 34L70 34ZM10 34L12 34L12 32L10 32ZM24 34L28 34L28 32L24 32ZM22 32L24 32L24 30L22 30ZM28 32L30 32L30 30L28 30ZM52 32L54 32L54 30L52 30ZM56 32L58 32L58 28L54 28L54 30L56 30ZM14 30L22 30L22 28L24 28L24 30L28 30L28 26L16 26L16 28L14 28ZM78 30L82 30L82 28L84 28L84 26L78 26ZM10 28L12 28L12 26L10 26ZM28 26L30 26L30 24L28 24ZM60 26L62 26L62 24L60 24ZM10 24L24 24L24 10L10 10ZM26 24L28 24L28 22L26 22ZM30 24L32 24L32 22L30 22ZM34 24L36 24L36 20L38 20L38 18L40 18L40 16L42 16L42 12L40 12L40 14L38 14L38 16L36 16L36 18L30 18L30 20L32 20L32 22L34 22ZM50 24L52 24L52 22L54 22L54 20L52 20L52 18L54 18L54 16L56 16L56 10L54 10L54 14L52 14L52 16L50 16L50 18L48 18L48 20L50 20ZM54 24L56 24L56 22L54 22ZM58 24L60 24L60 22L58 22ZM62 24L64 24L64 22L62 22ZM70 24L84 24L84 10L70 10ZM12 22L12 12L22 12L22 22ZM56 22L58 22L58 20L56 20ZM60 22L62 22L62 20L60 20ZM72 22L72 12L82 12L82 22ZM14 20L20 20L20 14L14 14ZM26 20L28 20L28 18L26 18ZM54 20L56 20L56 18L54 18ZM62 20L64 20L64 18L62 18ZM66 20L68 20L68 18L66 18ZM74 20L80 20L80 14L74 14ZM44 18L46 18L46 16L44 16ZM58 18L62 18L62 16L68 16L68 14L64 14L64 12L62 12L62 14L60 14L60 16L58 16ZM26 16L28 16L28 12L32 12L32 10L26 10ZM32 16L34 16L34 14L32 14ZM46 16L48 16L48 14L52 14L52 10L44 10L44 12L46 12ZM34 14L38 14L38 12L40 12L40 10L36 10L36 12L34 12ZM60 12L62 12L62 10L60 10Z" fill="#000000" fill-rule="evenodd" />
</svg>
