<svg viewBox="0 0 87 87" xmlns="http://www.w3.org/2000/svg">
<rect width="100%" height="100%" fill="#FFFFFF" />
<path d="M0 0L0 87L87 87L87 0ZM2 2L85 2L85 85L2 85Z" fill="#ffffff" fill-rule="evenodd" />
<path d="M10 76L24 76L24 62L10 62ZM26 76L28 76L28 74L26 74ZM34 76L36 76L36 74L34 74ZM42 76L44 76L44 72L46 72L46 70L44 70L44 68L42 68L42 72L38 72L38 70L34 70L34 72L36 72L36 74L42 74ZM48 76L50 76L50 70L52 70L52 68L50 68L50 66L52 66L52 64L48 64L48 66L46 66L46 68L48 68L48 72L46 72L46 74L48 74ZM52 76L60 76L60 74L52 74ZM62 76L64 76L64 74L62 74ZM68 76L70 76L70 74L68 74ZM72 76L74 76L74 74L72 74ZM12 74L12 64L22 64L22 74ZM28 74L30 74L30 72L28 72ZM32 74L34 74L34 72L32 72ZM70 74L72 74L72 72L76 72L76 66L74 66L74 68L68 68L68 66L72 66L72 64L74 64L74 62L72 62L72 56L66 56L66 58L58 58L58 60L56 60L56 58L54 58L54 60L52 60L52 64L54 64L54 62L58 62L58 64L54 64L54 68L56 68L56 66L58 66L58 68L60 68L60 72L64 72L64 70L62 70L62 68L64 68L64 70L66 70L66 72L70 72ZM14 72L20 72L20 66L14 66ZM54 72L56 72L56 70L54 70ZM28 70L30 70L30 68L28 68ZM38 70L40 70L40 68L38 68ZM34 68L38 68L38 64L40 64L40 68L42 68L42 62L40 62L40 60L42 60L42 58L36 58L36 66L34 66ZM30 66L32 66L32 64L30 64ZM60 66L60 60L66 60L66 66ZM28 64L30 64L30 62L32 62L32 60L26 60L26 62L28 62ZM46 64L48 64L48 62L46 62ZM62 64L64 64L64 62L62 62ZM68 64L68 58L70 58L70 64ZM42 62L44 62L44 60L42 60ZM48 62L50 62L50 58L52 58L52 56L48 56ZM10 60L14 60L14 58L12 58L12 54L14 54L14 52L12 52L12 48L14 48L14 52L16 52L16 46L18 46L18 44L16 44L16 42L14 42L14 44L10 44ZM18 60L20 60L20 56L16 56L16 54L14 54L14 58L18 58ZM22 60L26 60L26 54L22 54L22 52L16 52L16 54L20 54L20 56L24 56L24 58L22 58ZM44 60L46 60L46 58L44 58ZM74 60L76 60L76 58L74 58ZM28 58L30 58L30 52L26 52L26 54L28 54ZM56 58L58 58L58 56L56 56ZM32 56L34 56L34 54L32 54ZM38 56L44 56L44 50L38 50L38 52L36 52L36 54L38 54ZM54 56L56 56L56 54L58 54L58 52L56 52L56 50L52 50L52 52L54 52ZM58 56L60 56L60 54L58 54ZM62 56L64 56L64 54L62 54ZM72 56L74 56L74 54L76 54L76 50L72 50L72 52L70 52L70 54L72 54ZM40 54L40 52L42 52L42 54ZM46 54L50 54L50 52L46 52ZM64 54L68 54L68 52L64 52ZM22 52L26 52L26 50L22 50ZM30 52L34 52L34 48L32 48L32 50L30 50ZM58 52L62 52L62 50L66 50L66 48L68 48L68 46L66 46L66 44L62 44L62 46L64 46L64 48L60 48L60 50L58 50ZM68 52L70 52L70 50L72 50L72 48L76 48L76 44L72 44L72 42L76 42L76 40L74 40L74 36L76 36L76 34L74 34L74 30L72 30L72 32L70 32L70 34L72 34L72 36L68 36L68 38L72 38L72 40L68 40L68 42L70 42L70 48L68 48ZM20 50L22 50L22 48L20 48ZM44 50L50 50L50 48L52 48L52 46L54 46L54 48L56 48L56 50L58 50L58 48L60 48L60 46L58 46L58 42L52 42L52 44L50 44L50 42L44 42L44 44L42 44L42 46L40 46L40 48L44 48L44 46L46 46L46 44L48 44L48 48L44 48ZM22 48L28 48L28 46L22 46ZM30 48L32 48L32 46L34 46L34 48L36 48L36 44L38 44L38 46L40 46L40 42L36 42L36 40L40 40L40 32L38 32L38 34L36 34L36 36L34 36L34 42L28 42L28 38L26 38L26 42L22 42L22 44L28 44L28 46L30 46ZM20 46L22 46L22 44L20 44ZM60 44L62 44L62 42L60 42ZM10 42L12 42L12 40L16 40L16 42L22 42L22 40L20 40L20 36L24 36L24 34L22 34L22 32L26 32L26 30L28 30L28 26L30 26L30 24L28 24L28 22L26 22L26 28L24 28L24 30L18 30L18 28L16 28L16 34L18 34L18 36L16 36L16 38L10 38ZM40 42L42 42L42 40L40 40ZM50 42L52 42L52 40L50 40ZM58 42L60 42L60 40L58 40ZM62 42L64 42L64 38L66 38L66 34L64 34L64 30L62 30L62 28L64 28L64 26L60 26L60 30L58 30L58 32L62 32ZM22 40L24 40L24 38L22 38ZM30 40L32 40L32 38L30 38ZM44 40L48 40L48 38L46 38L46 36L48 36L48 34L44 34L44 26L40 26L40 22L38 22L38 26L36 26L36 28L38 28L38 30L40 30L40 32L42 32L42 38L44 38ZM24 38L26 38L26 36L24 36ZM50 38L52 38L52 36L54 36L54 34L50 34ZM54 38L56 38L56 36L54 36ZM14 36L16 36L16 34L14 34ZM26 36L30 36L30 32L34 32L34 34L36 34L36 30L32 30L32 26L30 26L30 30L28 30L28 32L26 32ZM56 36L58 36L58 32L56 32ZM48 34L50 34L50 32L48 32ZM66 34L68 34L68 32L66 32ZM46 32L48 32L48 28L46 28ZM50 32L52 32L52 30L50 30ZM52 30L56 30L56 26L54 26L54 28L52 28ZM64 30L72 30L72 28L74 28L74 26L68 26L68 28L64 28ZM74 30L76 30L76 28L74 28ZM10 28L12 28L12 26L10 26ZM22 28L24 28L24 26L22 26ZM48 28L52 28L52 22L50 22L50 26L48 26ZM32 26L34 26L34 24L32 24ZM46 26L48 26L48 22L46 22ZM58 26L60 26L60 20L58 20ZM10 24L24 24L24 10L10 10ZM30 24L32 24L32 22L34 22L34 18L30 18L30 20L28 20L28 22L30 22ZM34 24L36 24L36 22L34 22ZM42 24L44 24L44 20L42 20ZM54 24L56 24L56 22L54 22ZM62 24L76 24L76 10L62 10ZM12 22L12 12L22 12L22 22ZM36 22L38 22L38 18L36 18ZM64 22L64 12L74 12L74 22ZM14 20L20 20L20 14L14 14ZM40 20L42 20L42 18L40 18ZM46 20L48 20L48 18L46 18ZM54 20L58 20L58 18L54 18ZM66 20L72 20L72 14L66 14ZM26 18L28 18L28 12L26 12ZM50 18L52 18L52 16L50 16ZM58 18L60 18L60 14L58 14ZM36 16L38 16L38 14L40 14L40 10L38 10L38 12L36 12ZM40 16L48 16L48 14L46 14L46 12L42 12L42 14L40 14ZM52 16L54 16L54 14L56 14L56 12L58 12L58 10L52 10ZM30 12L34 12L34 10L30 10ZM46 12L48 12L48 10L46 10Z" fill="#000000" fill-rule="evenodd" />
</svg>
